# Rhino

mtllib OuterRibConnector_Result.mtl
usemtl Default
v -200 -2960 2797.0551181103929
v 0 -2960 2803
v 0 -2960.0000000000005 2861.5000000029886
v -400 -2930 2791.1102362207866
v -400 -2930.0000000000005 2861.5000000055174
v -400 -2970 2791.1102362207866
v -400 -2970.0000000000005 2861.5000000055174
v -200 -2940 2797.0551181103929
v -200 -2940.0000000000005 2861.5000000032187
v -200 -2930.0000000000005 2861.5000000055174
v -200 -2930 2797.0551181103938
v -200 -2960.0000000000005 2861.5000000032187
v -200 -2970.0000000000005 2861.5000000055174
v -200 -2970 2797.0551181103938
v 200 -2960 2797.0551181103929
v 0 -2940 2803
v 0 -2940.0000000000005 2861.5000000029886
v 400 -2930 2791.1102362207866
v 400 -2930.0000000000005 2861.5000000055174
v 400 -2970 2791.1102362207866
v 400 -2970.0000000000005 2861.5000000055174
v 200 -2940 2797.0551181103929
v 200 -2940.0000000000005 2861.5000000032187
v 200 -2930.0000000000005 2861.5000000055174
v 200 -2930 2797.0551181103938
v 200 -2960.0000000000005 2861.5000000032187
v 200 -2970.0000000000005 2861.5000000055174
v 200 -2970 2797.0551181103938
v -2960 200 2797.0551181103929
v -2960 0 2803
v -2960.0000000000005 0 2861.5000000029886
v -2930 400 2791.1102362207866
v -2930.0000000000005 400 2861.5000000055174
v -2970 400 2791.1102362207866
v -2970.0000000000005 400 2861.5000000055174
v -2940 200 2797.0551181103929
v -2940.0000000000005 200 2861.5000000032187
v -2930.0000000000005 200 2861.5000000055174
v -2930 200 2797.0551181103938
v -2960.0000000000005 200 2861.5000000032187
v -2970.0000000000005 200 2861.5000000055174
v -2970 200 2797.0551181103938
v -2960 -200 2797.0551181103929
v -2940 0 2803
v -2940.0000000000005 0 2861.5000000029886
v -2930 -400 2791.1102362207866
v -2930.0000000000005 -400 2861.5000000055174
v -2970 -400 2791.1102362207866
v -2970.0000000000005 -400 2861.5000000055174
v -2940 -200 2797.0551181103929
v -2940.0000000000005 -200 2861.5000000032187
v -2930.0000000000005 -200 2861.5000000055174
v -2930 -200 2797.0551181103938
v -2960.0000000000005 -200 2861.5000000032187
v -2970.0000000000005 -200 2861.5000000055174
v -2970 -200 2797.0551181103938
v 200 2960 2797.0551181103929
v 0 2960 2803
v 0 2960.0000000000005 2861.5000000029886
v 400 2930 2791.1102362207866
v 400 2930.0000000000005 2861.5000000055174
v 400 2970 2791.1102362207866
v 400 2970.0000000000005 2861.5000000055174
v 200 2940 2797.0551181103929
v 200 2940.0000000000005 2861.5000000032187
v 200 2930.0000000000005 2861.5000000055174
v 200 2930 2797.0551181103938
v 200 2960.0000000000005 2861.5000000032187
v 200 2970.0000000000005 2861.5000000055174
v 200 2970 2797.0551181103938
v -200 2960 2797.0551181103929
v 0 2940 2803
v 0 2940.0000000000005 2861.5000000029886
v -400 2930 2791.1102362207866
v -400 2930.0000000000005 2861.5000000055174
v -400 2970 2791.1102362207866
v -400 2970.0000000000005 2861.5000000055174
v -200 2940 2797.0551181103929
v -200 2940.0000000000005 2861.5000000032187
v -200 2930.0000000000005 2861.5000000055174
v -200 2930 2797.0551181103938
v -200 2960.0000000000005 2861.5000000032187
v -200 2970.0000000000005 2861.5000000055174
v -200 2970 2797.0551181103938
v 2960 -200 2797.0551181103929
v 2960 0 2803
v 2960.0000000000005 0 2861.5000000029886
v 2930 -400 2791.1102362207866
v 2930.0000000000005 -400 2861.5000000055174
v 2970 -400 2791.1102362207866
v 2970.0000000000005 -400 2861.5000000055174
v 2940 -200 2797.0551181103929
v 2940.0000000000005 -200 2861.5000000032187
v 2930.0000000000005 -200 2861.5000000055174
v 2930 -200 2797.0551181103938
v 2960.0000000000005 -200 2861.5000000032187
v 2970.0000000000005 -200 2861.5000000055174
v 2970 -200 2797.0551181103938
v 2960 200 2797.0551181103929
v 2940 0 2803
v 2940.0000000000005 0 2861.5000000029886
v 2930 400 2791.1102362207866
v 2930.0000000000005 400 2861.5000000055174
v 2970 400 2791.1102362207866
v 2970.0000000000005 400 2861.5000000055174
v 2940 200 2797.0551181103929
v 2940.0000000000005 200 2861.5000000032187
v 2930.0000000000005 200 2861.5000000055174
v 2930 200 2797.0551181103938
v 2960.0000000000005 200 2861.5000000032187
v 2970.0000000000005 200 2861.5000000055174
v 2970 200 2797.0551181103938
vn 0.32575714588165283 -0.29909747838973999 -0.89689630270004272
vn 0 -0.70726287364959717 -0.70695066452026367
vn 0 -0.70710676908493042 0.70710676908493042
vn -0.38784950971603394 0.41235256195068359 -0.82434099912643433
vn -0.40824830532073975 0.40824830532073975 0.81649661064147949
vn -0.38784950971603394 -0.41235256195068359 -0.82434099912643433
vn -0.40824830532073975 -0.40824830532073975 0.81649661064147949
vn 0.32575714588165283 0.29909747838973999 -0.89689630270004272
vn 0.30151134729385376 0.30151134729385376 0.90453404188156128
vn 0.57735025882720947 0.57735025882720947 0.57735025882720947
vn 0.58870232105255127 0.57171589136123657 -0.57146352529525757
vn 0.30151134729385376 -0.30151134729385376 0.90453404188156128
vn 0.57735025882720947 -0.57735025882720947 0.57735025882720947
vn 0.58870232105255127 -0.57171589136123657 -0.57146352529525757
vn -0.32575714588165283 -0.29909747838973999 -0.89689630270004272
vn 0 0.70726287364959717 -0.70695066452026367
vn 0 0.70710676908493042 0.70710676908493042
vn 0.38784950971603394 0.41235256195068359 -0.82434099912643433
vn 0.40824830532073975 0.40824830532073975 0.81649661064147949
vn 0.38784950971603394 -0.41235256195068359 -0.82434099912643433
vn 0.40824830532073975 -0.40824830532073975 0.81649661064147949
vn -0.32575714588165283 0.29909747838973999 -0.89689630270004272
vn -0.30151134729385376 0.30151134729385376 0.90453404188156128
vn -0.57735025882720947 0.57735025882720947 0.57735025882720947
vn -0.58870232105255127 0.57171589136123657 -0.57146352529525757
vn -0.30151134729385376 -0.30151134729385376 0.90453404188156128
vn -0.57735025882720947 -0.57735025882720947 0.57735025882720947
vn -0.58870232105255127 -0.57171589136123657 -0.57146352529525757
vn -0.29909747838973999 -0.32575714588165283 -0.89689630270004272
vn -0.70726287364959717 0 -0.70695066452026367
vn -0.70710676908493042 0 0.70710676908493042
vn 0.41235256195068359 0.38784950971603394 -0.82434099912643433
vn 0.40824830532073975 0.40824830532073975 0.81649661064147949
vn -0.41235256195068359 0.38784950971603394 -0.82434099912643433
vn -0.40824830532073975 0.40824830532073975 0.81649661064147949
vn 0.29909747838973999 -0.32575714588165283 -0.89689630270004272
vn 0.30151134729385376 -0.30151134729385376 0.90453404188156128
vn 0.57735025882720947 -0.57735025882720947 0.57735025882720947
vn 0.57171589136123657 -0.58870232105255127 -0.57146352529525757
vn -0.30151134729385376 -0.30151134729385376 0.90453404188156128
vn -0.57735025882720947 -0.57735025882720947 0.57735025882720947
vn -0.57171589136123657 -0.58870232105255127 -0.57146352529525757
vn -0.29909747838973999 0.32575714588165283 -0.89689630270004272
vn 0.70726287364959717 0 -0.70695066452026367
vn 0.70710676908493042 0 0.70710676908493042
vn 0.41235256195068359 -0.38784950971603394 -0.82434099912643433
vn 0.40824830532073975 -0.40824830532073975 0.81649661064147949
vn -0.41235256195068359 -0.38784950971603394 -0.82434099912643433
vn -0.40824830532073975 -0.40824830532073975 0.81649661064147949
vn 0.29909747838973999 0.32575714588165283 -0.89689630270004272
vn 0.30151134729385376 0.30151134729385376 0.90453404188156128
vn 0.57735025882720947 0.57735025882720947 0.57735025882720947
vn 0.57171589136123657 0.58870232105255127 -0.57146352529525757
vn -0.30151134729385376 0.30151134729385376 0.90453404188156128
vn -0.57735025882720947 0.57735025882720947 0.57735025882720947
vn -0.57171589136123657 0.58870232105255127 -0.57146352529525757
vn -0.32575714588165283 0.29909747838973999 -0.89689630270004272
vn 0 0.70726287364959717 -0.70695066452026367
vn 0 0.70710676908493042 0.70710676908493042
vn 0.38784950971603394 -0.41235256195068359 -0.82434099912643433
vn 0.40824830532073975 -0.40824830532073975 0.81649661064147949
vn 0.38784950971603394 0.41235256195068359 -0.82434099912643433
vn 0.40824830532073975 0.40824830532073975 0.81649661064147949
vn -0.32575714588165283 -0.29909747838973999 -0.89689630270004272
vn -0.30151134729385376 -0.30151134729385376 0.90453404188156128
vn -0.57735025882720947 -0.57735025882720947 0.57735025882720947
vn -0.58870232105255127 -0.57171589136123657 -0.57146352529525757
vn -0.30151134729385376 0.30151134729385376 0.90453404188156128
vn -0.57735025882720947 0.57735025882720947 0.57735025882720947
vn -0.58870232105255127 0.57171589136123657 -0.57146352529525757
vn 0.32575714588165283 0.29909747838973999 -0.89689630270004272
vn 0 -0.70726287364959717 -0.70695066452026367
vn 0 -0.70710676908493042 0.70710676908493042
vn -0.38784950971603394 -0.41235256195068359 -0.82434099912643433
vn -0.40824830532073975 -0.40824830532073975 0.81649661064147949
vn -0.38784950971603394 0.41235256195068359 -0.82434099912643433
vn -0.40824830532073975 0.40824830532073975 0.81649661064147949
vn 0.32575714588165283 -0.29909747838973999 -0.89689630270004272
vn 0.30151134729385376 -0.30151134729385376 0.90453404188156128
vn 0.57735025882720947 -0.57735025882720947 0.57735025882720947
vn 0.58870232105255127 -0.57171589136123657 -0.57146352529525757
vn 0.30151134729385376 0.30151134729385376 0.90453404188156128
vn 0.57735025882720947 0.57735025882720947 0.57735025882720947
vn 0.58870232105255127 0.57171589136123657 -0.57146352529525757
vn 0.29909747838973999 0.32575714588165283 -0.89689630270004272
vn 0.70726287364959717 0 -0.70695066452026367
vn 0.70710676908493042 0 0.70710676908493042
vn -0.41235256195068359 -0.38784950971603394 -0.82434099912643433
vn -0.40824830532073975 -0.40824830532073975 0.81649661064147949
vn 0.41235256195068359 -0.38784950971603394 -0.82434099912643433
vn 0.40824830532073975 -0.40824830532073975 0.81649661064147949
vn -0.29909747838973999 0.32575714588165283 -0.89689630270004272
vn -0.30151134729385376 0.30151134729385376 0.90453404188156128
vn -0.57735025882720947 0.57735025882720947 0.57735025882720947
vn -0.57171589136123657 0.58870232105255127 -0.57146352529525757
vn 0.30151134729385376 0.30151134729385376 0.90453404188156128
vn 0.57735025882720947 0.57735025882720947 0.57735025882720947
vn 0.57171589136123657 0.58870232105255127 -0.57146352529525757
vn 0.29909747838973999 -0.32575714588165283 -0.89689630270004272
vn -0.70726287364959717 0 -0.70695066452026367
vn -0.70710676908493042 0 0.70710676908493042
vn -0.41235256195068359 0.38784950971603394 -0.82434099912643433
vn -0.40824830532073975 0.40824830532073975 0.81649661064147949
vn 0.41235256195068359 0.38784950971603394 -0.82434099912643433
vn 0.40824830532073975 0.40824830532073975 0.81649661064147949
vn -0.29909747838973999 -0.32575714588165283 -0.89689630270004272
vn -0.30151134729385376 -0.30151134729385376 0.90453404188156128
vn -0.57735025882720947 -0.57735025882720947 0.57735025882720947
vn -0.57171589136123657 -0.58870232105255127 -0.57146352529525757
vn 0.30151134729385376 -0.30151134729385376 0.90453404188156128
vn 0.57735025882720947 -0.57735025882720947 0.57735025882720947
vn 0.57171589136123657 -0.58870232105255127 -0.57146352529525757
f 4//4 8//8 1//1 6//6
f 8//8 4//4 11//11
f 1//1 14//14 6//6
f 2//2 1//1 8//8 16//16
f 9//9 17//17 16//16 8//8
f 3//3 12//12 1//1 2//2
f 17//17 9//9 12//12 3//3
f 5//5 10//10 11//11 4//4
f 6//6 7//7 5//5 4//4
f 6//6 14//14 13//13 7//7
f 9//9 5//5 7//7 12//12
f 9//9 10//10 5//5
f 13//13 12//12 7//7
f 8//8 11//11 10//10 9//9
f 1//1 12//12 13//13 14//14
f 18//18 20//20 15//15 22//22
f 22//22 25//25 18//18
f 15//15 20//20 28//28
f 2//2 16//16 22//22 15//15
f 23//23 22//22 16//16 17//17
f 3//3 2//2 15//15 26//26
f 17//17 3//3 26//26 23//23
f 19//19 18//18 25//25 24//24
f 20//20 18//18 19//19 21//21
f 20//20 21//21 27//27 28//28
f 23//23 26//26 21//21 19//19
f 23//23 19//19 24//24
f 27//27 21//21 26//26
f 22//22 23//23 24//24 25//25
f 15//15 28//28 27//27 26//26
f 32//32 36//36 29//29 34//34
f 36//36 32//32 39//39
f 29//29 42//42 34//34
f 30//30 29//29 36//36 44//44
f 37//37 45//45 44//44 36//36
f 31//31 40//40 29//29 30//30
f 45//45 37//37 40//40 31//31
f 33//33 38//38 39//39 32//32
f 34//34 35//35 33//33 32//32
f 34//34 42//42 41//41 35//35
f 37//37 33//33 35//35 40//40
f 37//37 38//38 33//33
f 41//41 40//40 35//35
f 36//36 39//39 38//38 37//37
f 29//29 40//40 41//41 42//42
f 46//46 48//48 43//43 50//50
f 50//50 53//53 46//46
f 43//43 48//48 56//56
f 30//30 44//44 50//50 43//43
f 51//51 50//50 44//44 45//45
f 31//31 30//30 43//43 54//54
f 45//45 31//31 54//54 51//51
f 47//47 46//46 53//53 52//52
f 48//48 46//46 47//47 49//49
f 48//48 49//49 55//55 56//56
f 51//51 54//54 49//49 47//47
f 51//51 47//47 52//52
f 55//55 49//49 54//54
f 50//50 51//51 52//52 53//53
f 43//43 56//56 55//55 54//54
f 60//60 64//64 57//57 62//62
f 64//64 60//60 67//67
f 57//57 70//70 62//62
f 58//58 57//57 64//64 72//72
f 65//65 73//73 72//72 64//64
f 59//59 68//68 57//57 58//58
f 73//73 65//65 68//68 59//59
f 61//61 66//66 67//67 60//60
f 62//62 63//63 61//61 60//60
f 62//62 70//70 69//69 63//63
f 65//65 61//61 63//63 68//68
f 65//65 66//66 61//61
f 69//69 68//68 63//63
f 64//64 67//67 66//66 65//65
f 57//57 68//68 69//69 70//70
f 74//74 76//76 71//71 78//78
f 78//78 81//81 74//74
f 71//71 76//76 84//84
f 58//58 72//72 78//78 71//71
f 79//79 78//78 72//72 73//73
f 59//59 58//58 71//71 82//82
f 73//73 59//59 82//82 79//79
f 75//75 74//74 81//81 80//80
f 76//76 74//74 75//75 77//77
f 76//76 77//77 83//83 84//84
f 79//79 82//82 77//77 75//75
f 79//79 75//75 80//80
f 83//83 77//77 82//82
f 78//78 79//79 80//80 81//81
f 71//71 84//84 83//83 82//82
f 88//88 92//92 85//85 90//90
f 92//92 88//88 95//95
f 85//85 98//98 90//90
f 86//86 85//85 92//92 100//100
f 93//93 101//101 100//100 92//92
f 87//87 96//96 85//85 86//86
f 101//101 93//93 96//96 87//87
f 89//89 94//94 95//95 88//88
f 90//90 91//91 89//89 88//88
f 90//90 98//98 97//97 91//91
f 93//93 89//89 91//91 96//96
f 93//93 94//94 89//89
f 97//97 96//96 91//91
f 92//92 95//95 94//94 93//93
f 85//85 96//96 97//97 98//98
f 102//102 104//104 99//99 106//106
f 106//106 109//109 102//102
f 99//99 104//104 112//112
f 86//86 100//100 106//106 99//99
f 107//107 106//106 100//100 101//101
f 87//87 86//86 99//99 110//110
f 101//101 87//87 110//110 107//107
f 103//103 102//102 109//109 108//108
f 104//104 102//102 103//103 105//105
f 104//104 105//105 111//111 112//112
f 107//107 110//110 105//105 103//103
f 107//107 103//103 108//108
f 111//111 105//105 110//110
f 106//106 107//107 108//108 109//109
f 99//99 112//112 111//111 110//110
