# Rhino

mtllib OuterRibConnector_cut0.mtl
usemtl Default
v 138.4999999919537 -200 20.000000000000455
v 218.4999999919537 -200 20.000000000000455
v 218.4999999919537 -400 20.000000000000455
v 138.4999999919537 -200 -19.999999999999922
v 151.83333332528684 -200 10.000000000000455
v 214.86363635570666 -200 10.000000000000455
v 138.49999999466598 -200 10.000000000000455
v 205.16666665862078 -200 -10
v 142.13636363076512 -200 -9.9999999999999964
v 138.49999999451802 10.000000000000028 10.000000000000455
v 218.4999999919537 10.000000000000028 -10
v 138.4999999919537 -400 20.000000000000455
v 138.4999999919537 -400 -19.999999999999922
v 138.4999999954797 -200 -10.000000000000002
v 138.49999999451802 10.000000000000028 -10
v 218.4999999919537 -200 -19.999999999999922
v 218.4999999919537 -400 -19.999999999999922
v 218.4999999919537 -200 10.000000000000455
v 218.4999999919537 10.000000000000028 10.000000000000455
v 218.4999999919537 -200 -10
vn -0.40824830532073975 0.81649661064147949 0.40824830532073975
vn 0.30151134729385376 0.90453404188156128 0.30151134729385376
vn 0.81649661064147949 -0.40824830532073975 0.40824830532073975
vn -0.30151134729385376 0.90453404188156128 -0.30151134729385376
vn 0 0.83205032348632812 0.55470019578933716
vn 0 0.55470019578933716 0.83205032348632812
vn -0.94280904531478882 0.2357022613286972 0.2357022613286972
vn 0 0.83205032348632812 -0.55470019578933716
vn 0 0.55470019578933716 -0.83205032348632812
vn -0.30151134729385376 0.30151134729385376 0.90453404188156128
vn 0.53452247381210327 0.26726123690605164 -0.80178374052047729
vn -0.90453404188156128 -0.30151134729385376 0.30151134729385376
vn -0.81649661064147949 -0.40824830532073975 -0.40824830532073975
vn -0.94280904531478882 0.2357022613286972 -0.2357022613286972
vn -0.66666668653488159 0.3333333432674408 -0.66666668653488159
vn 0.40824830532073975 0.81649661064147949 -0.40824830532073975
vn 0.90453404188156128 -0.30151134729385376 -0.30151134729385376
vn 0.9622504711151123 0.19245009124279022 0.19245009124279022
vn 0.40824830532073975 0.40824830532073975 0.81649661064147949
vn 0.90453404188156128 0.30151134729385376 -0.30151134729385376
f 12//12 3//3 2//2 1//1
f 4//4 16//16 17//17 13//13
f 3//3 12//12 13//13 17//17
f 2//2 6//6 5//5
f 2//2 5//5 1//1
f 6//6 2//2 18//18
f 8//8 20//20 16//16
f 5//5 7//7 1//1
f 4//4 9//9 8//8
f 9//9 4//4 14//14
f 16//16 4//4 8//8
f 19//19 11//11 15//15 10//10
f 5//5 10//10 7//7
f 6//6 10//10 5//5
f 6//6 19//19 10//10
f 19//19 6//6 18//18
f 11//11 9//9 15//15
f 14//14 15//15 9//9
f 20//20 8//8 11//11
f 9//9 11//11 8//8
f 14//14 4//4 13//13
f 7//7 14//14 12//12
f 13//13 12//12 14//14
f 10//10 15//15 7//7
f 14//14 7//7 15//15
f 12//12 1//1 7//7
f 20//20 17//17 16//16
f 20//20 18//18 17//17
f 3//3 17//17 18//18
f 19//19 18//18 11//11
f 20//20 11//11 18//18
f 3//3 18//18 2//2
