# OBJ
# COMPAS
# version: 2.15.0
# precision: 3
# V F E: 138 272 408

o Mesh 0
v -80.000 -2574.456 3388.188
v -80.000 -2570.021 3392.623
v -80.000 -2567.644 3398.364
v -80.000 -2567.644 3404.636
v -80.000 -2570.022 3410.377
v -51.625 -2583.333 3417.504
v -16.815 -2580.184 3385.813
v -17.000 -2577.194 3386.725
v -17.703 -2572.020 3390.186
v -18.200 -2570.014 3392.634
v -18.760 -2568.545 3395.393
v -20.000 -2567.333 3401.500
v -20.634 -2567.641 3404.623
v -21.240 -2568.545 3407.607
v -21.800 -2570.014 3410.366
v -22.297 -2572.020 3412.814
v -22.701 -2574.446 3414.805
v -23.000 -2577.194 3416.276
v -23.186 -2580.184 3417.189
v -80.000 -2583.333 3417.504
v -80.000 -2586.469 3417.192
v -80.000 -2589.456 3416.283
v -80.000 -2592.210 3414.812
v -80.000 -2596.645 3410.377
v -80.000 -2599.023 3404.636
v -80.000 -2599.023 3398.364
v -80.000 -2596.645 3392.623
v -80.000 -2592.210 3388.188
v -16.751 -2583.333 3385.500
v -48.376 -2583.333 3385.500
v -23.000 -2589.472 3416.276
v -22.701 -2592.221 3414.805
v -22.297 -2594.647 3412.814
v -21.800 -2596.652 3410.366
v -21.240 -2598.122 3407.607
v -20.634 -2599.025 3404.623
v -20.000 -2599.333 3401.500
v -19.366 -2599.026 3398.377
v -18.760 -2598.122 3395.393
v -18.200 -2596.653 3392.634
v -17.703 -2594.647 3390.186
v -17.299 -2592.221 3388.196
v -17.000 -2589.473 3386.725
v -16.815 -2586.483 3385.813
v 80.000 -2577.210 3386.718
v 80.000 -2572.020 3390.186
v 80.000 -2568.551 3395.377
v 80.000 -2567.333 3401.500
v 80.000 -2568.551 3407.623
v 80.000 -2572.020 3412.814
v 80.000 -2586.469 3417.192
v 80.000 -2589.456 3416.283
v 80.000 -2592.210 3414.812
v 80.000 -2594.647 3412.814
v 80.000 -2598.115 3407.623
v 80.000 -2599.333 3401.500
v 80.000 -2598.115 3395.377
v 80.000 -2594.647 3390.186
v 80.000 -2589.456 3386.718
v -80.000 -2583.333 3385.500
v -80.000 -2580.197 3385.810
v -80.000 -2577.210 3386.718
v -80.000 -2572.020 3390.186
v -80.000 -2568.551 3395.377
v -80.000 -2567.333 3401.500
v -80.000 -2568.551 3407.623
v -80.000 -2572.020 3412.814
v -80.000 -2574.457 3414.812
v -80.000 -2577.211 3416.283
v -80.000 -2580.197 3417.192
v -80.000 -2594.647 3412.814
v -80.000 -2598.115 3407.623
v -80.000 -2599.333 3401.500
v -80.000 -2598.115 3395.377
v -80.000 -2594.647 3390.186
v -80.000 -2589.456 3386.718
v -80.000 -2586.469 3385.810
v 80.000 -2580.197 3385.810
v 80.000 -2574.456 3388.188
v 80.000 -2570.021 3392.623
v 80.000 -2567.644 3398.364
v 80.000 -2567.644 3404.636
v 80.000 -2570.022 3410.377
v 80.000 -2574.457 3414.812
v 80.000 -2577.211 3416.283
v 80.000 -2580.197 3417.192
v 51.625 -2583.333 3417.504
v 20.634 -2567.641 3404.623
v 20.000 -2567.333 3401.500
v 17.703 -2572.020 3390.186
v 17.299 -2574.445 3388.196
v 16.815 -2580.184 3385.813
v 80.000 -2583.333 3417.504
v 80.000 -2596.645 3410.377
v 80.000 -2599.023 3404.636
v 80.000 -2599.023 3398.364
v 80.000 -2596.645 3392.623
v 80.000 -2592.210 3388.188
v 80.000 -2586.469 3385.810
v 80.000 -2583.333 3385.500
v 23.250 -2583.333 3417.504
v 48.376 -2583.333 3385.500
v 17.000 -2589.473 3386.725
v 17.299 -2592.221 3388.196
v 20.000 -2599.333 3401.500
v 23.186 -2586.482 3417.189
v 44.061 -2662.061 3520.000
v 44.061 -2504.606 3520.000
v 23.186 -2580.184 3417.189
v 23.000 -2577.194 3416.276
v 22.701 -2574.446 3414.805
v 22.297 -2572.020 3412.814
v 21.800 -2570.014 3410.366
v 21.240 -2568.545 3407.607
v 19.366 -2567.641 3398.377
v 18.760 -2568.545 3395.393
v 18.200 -2570.014 3392.634
v 17.000 -2577.194 3386.725
v 16.751 -2583.333 3385.500
v 16.815 -2586.483 3385.813
v 17.703 -2594.647 3390.186
v 18.200 -2596.653 3392.634
v 18.760 -2598.122 3395.393
v 19.366 -2599.026 3398.377
v 20.634 -2599.025 3404.623
v 21.240 -2598.122 3407.607
v 21.800 -2596.652 3410.366
v 22.297 -2594.647 3412.814
v 22.701 -2592.221 3414.805
v 23.000 -2589.472 3416.276
v -44.061 -2662.061 3520.000
v -0.000 -2504.606 3303.000
v -0.000 -2662.061 3303.000
v -17.299 -2574.445 3388.196
v -19.366 -2567.641 3398.377
v -23.250 -2583.333 3417.504
v -23.186 -2586.482 3417.189
v -44.061 -2504.606 3520.000
f 7 29 30
f 8 7 62
f 8 1 134
f 10 9 63
f 3 135 11
f 10 64 11
f 9 134 1
f 12 135 3
f 61 30 60
f 7 30 61
f 7 61 62
f 1 8 62
f 2 10 63
f 64 10 2
f 1 63 9
f 64 3 11
f 3 65 12
f 14 13 4
f 16 15 5
f 15 14 66
f 18 17 68
f 6 136 19
f 69 19 18
f 67 17 16
f 70 6 19
f 13 65 4
f 15 66 5
f 66 14 4
f 17 67 68
f 19 69 70
f 6 70 20
f 69 18 68
f 67 16 5
f 12 65 13
f 23 32 31
f 6 137 136
f 137 22 31
f 73 36 25
f 72 35 34
f 24 34 33
f 35 25 36
f 71 33 32
f 21 6 20
f 137 6 21
f 137 21 22
f 23 31 22
f 24 33 71
f 72 34 24
f 23 71 32
f 72 25 35
f 73 37 36
f 40 39 74
f 38 26 39
f 40 75 41
f 30 29 44
f 43 42 28
f 43 76 44
f 28 42 41
f 77 30 44
f 26 37 73
f 40 74 27
f 74 39 26
f 41 75 28
f 44 76 77
f 30 77 60
f 76 43 28
f 75 40 27
f 38 37 26
f 49 83 50
f 49 48 82
f 47 49 100
f 85 53 84
f 84 54 50
f 50 54 49
f 85 86 52
f 47 81 48
f 47 46 80
f 47 48 49
f 45 79 46
f 46 100 45
f 46 47 100
f 78 45 100
f 51 86 93
f 53 85 52
f 84 53 54
f 49 54 100
f 100 54 55
f 55 95 56
f 94 55 54
f 56 57 55
f 59 58 98
f 59 99 100
f 100 58 59
f 100 57 58
f 57 97 58
f 57 100 55
f 57 56 96
f 51 52 86
f 66 67 5
f 66 4 65
f 64 60 66
f 69 68 23
f 68 67 71
f 67 66 71
f 69 22 70
f 64 65 3
f 64 2 63
f 64 66 65
f 62 63 1
f 63 62 60
f 63 60 64
f 61 60 62
f 21 20 70
f 23 22 69
f 68 71 23
f 66 60 71
f 60 72 71
f 72 73 25
f 24 71 72
f 73 72 74
f 76 28 75
f 76 60 77
f 60 76 75
f 60 75 74
f 74 75 27
f 74 72 60
f 74 26 73
f 21 70 22
f 102 78 100
f 118 79 45
f 92 45 78
f 117 80 46
f 116 81 47
f 89 81 115
f 117 47 80
f 90 46 79
f 102 92 78
f 92 118 45
f 102 119 92
f 90 117 46
f 79 118 91
f 79 91 90
f 117 116 47
f 116 115 81
f 89 48 81
f 49 82 114
f 50 83 112
f 83 49 113
f 85 84 110
f 87 93 86
f 109 86 85
f 111 84 50
f 109 87 86
f 49 114 113
f 88 48 89
f 82 88 114
f 87 109 101
f 50 112 111
f 84 111 110
f 85 110 109
f 112 83 113
f 82 48 88
f 87 51 93
f 130 53 52
f 106 52 51
f 128 94 54
f 126 95 55
f 125 56 95
f 127 55 94
f 129 54 53
f 106 87 101
f 51 87 106
f 52 106 130
f 129 53 130
f 127 94 128
f 126 55 127
f 129 128 54
f 126 125 95
f 125 105 56
f 57 96 123
f 58 97 122
f 97 57 122
f 59 98 103
f 102 100 99
f 120 99 59
f 121 98 58
f 120 102 99
f 96 124 123
f 57 123 122
f 124 96 105
f 104 98 121
f 103 120 59
f 98 104 103
f 121 58 122
f 120 119 102
f 56 105 96
f 118 132 91
f 90 91 132
f 132 118 92
f 119 132 92
f 132 89 115
f 132 117 90
f 132 116 117
f 132 115 116
f 89 132 108
f 133 119 120
f 104 133 103
f 120 103 133
f 132 119 133
f 133 104 121
f 133 123 124
f 133 122 123
f 133 121 122
f 105 133 124
f 108 114 88
f 108 112 113
f 113 114 108
f 110 111 108
f 112 108 111
f 108 109 110
f 108 101 109
f 101 108 107
f 108 88 89
f 107 126 127
f 107 105 125
f 125 126 107
f 107 130 106
f 107 128 129
f 130 107 129
f 127 128 107
f 107 106 101
f 133 105 107
f 108 132 138
f 19 138 18
f 17 18 138
f 138 19 136
f 131 138 136
f 138 13 14
f 138 16 17
f 138 15 16
f 138 14 15
f 13 138 12
f 131 137 31
f 33 131 32
f 31 32 131
f 136 137 131
f 131 33 34
f 131 36 37
f 131 35 36
f 131 34 35
f 133 131 37
f 132 135 12
f 132 10 11
f 11 135 132
f 134 9 132
f 10 132 9
f 132 8 134
f 132 7 8
f 7 132 29
f 132 12 138
f 133 40 41
f 133 38 39
f 39 40 133
f 133 44 29
f 133 42 43
f 44 133 43
f 41 42 133
f 133 29 132
f 37 38 133
f 107 131 133
f 138 131 107
f 138 107 108
