OFF
8 12 0
0.000000000000000000e+00 -2.900000000000000000e+03 3.500000000000000000e+03
-5.684341886080801487e-14 -1.000000000000000000e+03 3.500000000000000000e+03
0.000000000000000000e+00 -9.756256520610789948e+02 3.303000000000000000e+03
0.000000000000000000e+00 -2.900000000000000000e+03 3.303000000000000000e+03
-6.000000000000000000e+01 -2.900000000000000000e+03 3.500000000000000000e+03
-6.000000000000000000e+01 -9.400000000000000000e+02 3.500000000000000000e+03
-5.999999999999994316e+01 -9.156256520610791085e+02 3.303000000000000000e+03
-6.000000000000000000e+01 -2.900000000000000000e+03 3.303000000000000000e+03
3 0 1 5
3 0 5 4
3 1 2 6
3 1 6 5
3 2 3 7
3 2 7 6
3 3 0 4
3 3 4 7
3 0 3 2
3 2 1 0
3 7 4 5
3 5 6 7
