# file written from a CGAL tool in Wavefront obj format
# 398 vertices
# 2412 halfedges
# 804 facets


# 398 vertices
# ------------------------------------------

v -14.7426 -2504.61 3500
v -3.28122 -2504.61 3500
v 0 -2504.61 3500
v 0 -2504.61 3459.52
v -0 -2504.61 3351.92
v 0 -2504.61 3314.29
v 0 -2504.61 3303
v 0 -2662.06 3303
v 0 -2662.06 3309.8
v 0 -2662.06 3332.44
v 0 -2662.06 3475.64
v 0 -2662.06 3500
v -1.97456 -2662.06 3500
v -8.87175 -2662.06 3500
v -40.0001 -2662.06 3500
v -40.0001 -2651.47 3500
v -40.0001 -2651.13 3500
v -40.0001 -2650.68 3500
v -40 -2650.13 3500
v -40 -2649.48 3500
v -40 -2648.78 3500
v -40 -2648.06 3500
v -40.0002 -2647.36 3500
v -40.0002 -2646.7 3500
v -40.0002 -2519.97 3500
v -40.0002 -2519.31 3500
v -40 -2518.6 3500
v -40 -2517.88 3500
v -40 -2517.18 3500
v -40 -2516.54 3500
v -40.0001 -2515.98 3500
v -40.0001 -2515.53 3500
v -40.0001 -2515.19 3500
v -40.0001 -2504.61 3500
v -60 -2574.45 3414.81
v -60 -2575.42 3415.33
v -60 -2577.21 3416.28
v -60 -2578.26 3416.6
v -60 -2580.19 3417.19
v -60 -2582.41 3417.41
v -60 -2583.33 3417.5
v -60 -2584.26 3417.41
v -60 -2586.47 3417.19
v -60 -2588.41 3416.6
v -60 -2589.46 3416.28
v -60 -2591.25 3415.33
v -60 -2592.21 3414.81
v -60 -2593.8 3413.51
v -60 -2594.65 3412.81
v -60 -2595.95 3411.22
v -60 -2596.65 3410.37
v -60 -2597.61 3408.57
v -60 -2598.12 3407.62
v -60 -2598.72 3405.65
v -60 -2599.02 3404.63
v -60 -2599.23 3402.55
v -60 -2599.33 3401.5
v -60 -2599.13 3399.41
v -60 -2599.02 3398.37
v -60 -2598.73 3397.39
v -60 -2598.12 3395.38
v -60 -2597.64 3394.49
v -60 -2596.65 3392.63
v -60 -2595.3 3390.98
v -60 -2594.65 3390.19
v -60 -2592.99 3388.83
v -60 -2592.21 3388.19
v -60 -2591.34 3387.72
v -60 -2589.46 3386.72
v -60 -2588.51 3386.43
v -60 -2586.47 3385.81
v -60 -2584.49 3385.61
v -60 -2583.33 3385.5
v -60 -2582.18 3385.61
v -60 -2580.19 3385.81
v -60 -2578.15 3386.43
v -60 -2577.2 3386.72
v -60 -2575.33 3387.72
v -60 -2574.45 3388.19
v -60 -2573.67 3388.83
v -60 -2572.02 3390.19
v -60 -2571.37 3390.98
v -60 -2570.02 3392.63
v -60 -2569.02 3394.49
v -60 -2568.55 3395.38
v -60 -2567.94 3397.39
v -60 -2567.64 3398.37
v -60 -2567.54 3399.41
v -60 -2567.33 3401.5
v -60 -2567.44 3402.55
v -60 -2567.64 3404.63
v -60 -2567.95 3405.65
v -60 -2568.55 3407.62
v -60 -2569.05 3408.57
v -60 -2570.02 3410.37
v -60 -2570.71 3411.22
v -60 -2572.02 3412.81
v -60 -2572.87 3413.51
v 0 -1237.94 3329.85
v 0 -1237.94 3500
v -7.51386 -1237.94 3500
v -40.0001 -1248.53 3500
v -40 -1251.94 3500
v -40 -1251.22 3500
v -40 -1250.52 3500
v -40.0002 -1252.64 3500
v -40.0002 -1253.3 3500
v -40.0001 -1249.32 3500
v -40.0001 -1248.87 3500
v -40 -1249.87 3500
v -40.0001 -1237.94 3500
v -40.0002 -1380.03 3500
v -40.0002 -1380.69 3500
v -40 -1382.12 3500
v -40 -1381.4 3500
v -40 -1382.82 3500
v -40.0001 -1384.47 3500
v -40.0001 -1384.02 3500
v -40 -1383.46 3500
v -40.0001 -1384.81 3500
v -60 -915.626 3303
v 0 -1000 3500
v 0 -975.626 3303
v 0 -1237.94 3303
v -16.815 -1313.52 3385.81
v -17 -1310.53 3386.73
v -17.299 -1307.78 3388.2
v -18.2 -1303.35 3392.63
v -60 -1301.27 3397.39
v -19.366 -1300.97 3398.38
v -18.76 -1301.88 3395.39
v -17.703 -1305.35 3390.19
v -20 -1300.67 3401.5
v -60 -1315.51 3385.61
v -21.24 -1301.88 3407.61
v -22.297 -1305.35 3412.81
v -21.8 -1303.35 3410.37
v -60 -1307.79 3414.81
v -60 -1308.75 3415.33
v -60 -1310.54 3416.28
v -23.186 -1313.52 3417.19
v -60 -1305.35 3412.81
v -22.701 -1307.78 3414.81
v -60 -1313.53 3417.19
v -60 -1300.67 3401.5
v -20.634 -1300.97 3404.62
v -60 -1324.58 3415.33
v -23 -1322.81 3416.28
v -23.186 -1319.82 3417.19
v -60 -1321.74 3416.6
v -60 -1330.95 3408.57
v -21.8 -1329.99 3410.37
v -60 -1329.29 3411.22
v -22.297 -1327.98 3412.81
v -60 -1332.05 3405.65
v -60 -1327.13 3413.51
v -22.701 -1325.55 3414.81
v -51.625 -1316.67 3417.5
v -60 -1317.59 3417.41
v -20.634 -1332.36 3404.62
v -60 -1332.56 3402.55
v -18.76 -1331.45 3395.39
v -60 -1331.45 3395.38
v -19.366 -1332.36 3398.38
v -60 -1332.36 3398.37
v -18.2 -1329.99 3392.63
v -60 -1328.63 3390.98
v -17.299 -1325.55 3388.2
v -60 -1325.55 3388.19
v -17 -1322.81 3386.73
v -60 -1322.8 3386.72
v -60 -1326.33 3388.83
v -17.703 -1327.98 3390.19
v -60 -1319.81 3385.81
v -48.376 -1316.67 3385.5
v -60 -1332.46 3399.41
v -20 -1332.67 3401.5
v -23 -1310.53 3416.28
v -21.24 -1331.45 3407.61
v -16.751 -1316.67 3385.5
v -60 -1322.79 3416.28
v -60 -1303.35 3392.63
v -60 -1305.35 3390.19
v -60 -1331.45 3407.62
v -60 -1316.67 3417.5
v -60 -1311.59 3416.6
v -60 -1327.98 3412.81
v -23.25 -1316.67 3417.5
v -60 -1306.2 3413.51
v -60 -1325.55 3414.81
v -60 -1304.05 3411.22
v -60 -1329.98 3410.37
v -60 -1315.74 3417.41
v -60 -1300.77 3402.55
v -60 -1302.36 3394.49
v -60 -1311.49 3386.43
v -60 -1313.53 3385.81
v -60 -1310.54 3386.72
v -60 -1308.66 3387.72
v -60 -1307.79 3388.19
v -60 -1307.01 3388.83
v -60 -1304.7 3390.98
v -60 -1300.98 3398.37
v -60 -1301.88 3395.38
v -60 -1332.36 3404.63
v -60 -1300.87 3399.41
v -60 -1316.67 3385.5
v -60 -1317.82 3385.61
v -60 -1300.98 3404.63
v -60 -1301.28 3405.65
v -60 -1303.35 3410.37
v -60 -1302.39 3408.57
v -60 -1301.88 3407.62
v -60 -1332.67 3401.5
v -60 -1332.06 3397.39
v -60 -1330.98 3394.49
v -60 -1329.98 3392.63
v -60 -1327.98 3390.19
v -60 -1324.67 3387.72
v -60 -1321.85 3386.43
v -16.815 -1319.82 3385.81
v 0 -1395.39 3303
v -40.0001 -1395.39 3500
v -12.4861 -1395.39 3500
v -60 -940 3500
v -60 -1319.81 3417.19
v 0 -1395.39 3500
v 0 -1395.39 3345.97
v -16.815 -1946.85 3385.81
v -17 -1943.86 3386.73
v -17.299 -1941.11 3388.2
v -18.2 -1936.68 3392.63
v -60 -1934.6 3397.39
v -19.366 -1934.31 3398.38
v -18.76 -1935.21 3395.39
v -17.703 -1938.69 3390.19
v -20 -1934 3401.5
v -48.376 -1950 3385.5
v -60 -1948.85 3385.61
v -21.24 -1935.21 3407.61
v -22.297 -1938.69 3412.81
v -21.8 -1936.68 3410.37
v -60 -1941.12 3414.81
v -60 -1943.87 3416.28
v -23.186 -1946.85 3417.19
v -60 -1938.69 3412.81
v -22.701 -1941.11 3414.81
v -60 -1946.86 3417.19
v -20.634 -1934.31 3404.62
v -60 -1957.92 3415.33
v -23 -1956.14 3416.28
v -23.186 -1953.15 3417.19
v -60 -1955.08 3416.6
v -60 -1964.28 3408.57
v -21.8 -1963.32 3410.37
v -60 -1962.62 3411.22
v -22.297 -1961.31 3412.81
v -60 -1965.38 3405.65
v -21.24 -1964.79 3407.61
v -60 -1960.47 3413.51
v -22.701 -1958.89 3414.81
v -51.625 -1950 3417.5
v -60 -1950.93 3417.41
v -20.634 -1965.69 3404.62
v -60 -1965.9 3402.55
v -18.76 -1964.79 3395.39
v -60 -1964.78 3395.38
v -19.366 -1965.69 3398.38
v -60 -1965.69 3398.37
v -18.2 -1963.32 3392.63
v -60 -1961.96 3390.98
v -17.299 -1958.89 3388.2
v -60 -1958.88 3388.19
v -60 -1956.13 3386.72
v -17 -1956.14 3386.73
v -60 -1959.66 3388.83
v -17.703 -1961.31 3390.19
v -60 -1953.14 3385.81
v -60 -1965.26 3396.95
v -60 -1965.79 3399.41
v -23 -1943.86 3416.28
v -40.0002 -1886.63 3500
v -40.0001 -1882.65 3500
v -40 -1883.21 3500
v -40.0001 -1882.2 3500
v -40 -2014.73 3500
v -40 -2016.15 3500
v -40 -2015.45 3500
v -40.0002 -2014.02 3500
v -40 -2016.79 3500
v -40.0001 -2018.14 3500
v -40.0001 -2017.35 3500
v -40.0001 -2028.73 3500
v -20 -1966 3401.5
v -40.0001 -1881.86 3500
v 0 -1871.27 3303
v -16.751 -1950 3385.5
v -60 -1934.21 3399.41
v -60 -1934.14 3400.08
v -40.0001 -1871.27 3500
v -27.5139 -1871.27 3500
v 0 -1871.27 3500
v 0 -1871.27 3394.69
v -8.537 -1871.27 3500
v 0 -1871.27 3332.38
v -60 -1965.4 3397.39
v -60 -1936.69 3392.63
v -60 -1942.08 3415.33
v -60 -1938.69 3390.19
v -40.0002 -1885.98 3500
v -40 -1885.27 3500
v -60 -1944.92 3416.6
v -40 -1884.55 3500
v -60 -1944.82 3386.43
v -60 -1958.01 3387.72
v -23.25 -1950 3417.5
v -40.0002 -2013.37 3500
v -60 -1939.53 3413.51
v -40.0001 -2017.8 3500
v -60 -1955.18 3386.43
v -60 -1937.38 3411.22
v -60 -1961.31 3390.19
v -40 -1883.85 3500
v -16.815 -1953.15 3385.81
v -60 -1951.15 3385.61
v -60 -1964.31 3394.49
v -60 -1941.99 3387.72
v -60 -1963.31 3392.63
v -60 -1946.86 3385.81
v -60 -1950 3385.5
v -60 -1943.87 3386.72
v -60 -1941.12 3388.19
v -60 -1940.34 3388.83
v -60 -1938.04 3390.98
v -60 -1934.31 3398.37
v -60 -1935.22 3395.38
v -60 -1935.69 3394.49
v -60 -1936.69 3410.37
v -60 -1935.72 3408.57
v -60 -1935.22 3407.62
v -60 -1934.62 3405.65
v -60 -1934 3401.5
v -60 -1934.31 3404.63
v -60 -1934.1 3402.55
v -60 -1949.07 3417.41
v -60 -1950 3417.5
v -60 -1958.88 3414.81
v -60 -1956.13 3416.28
v -60 -1953.14 3417.19
v -60 -1965.69 3404.63
v -60 -1964.78 3407.62
v -60 -1963.31 3410.37
v -60 -1961.31 3412.81
v -60 -1966 3401.5
v -32.4861 -2028.73 3500
v -60 -2900 3500
v -7.23035 -2028.73 3500
v 0 -2900 3500
v 0 -2028.73 3303
v 0 -2028.73 3500
v 0 -2028.73 3410.81
v 0 -2028.73 3327.88
v 0 -2900 3303
v -60 -2900 3303
v -16.751 -2583.33 3385.5
v -22.297 -2572.02 3412.81
v -20 -2567.33 3401.5
v -17.299 -2592.22 3388.2
v -17.703 -2594.65 3390.19
v -17 -2589.47 3386.73
v -17 -2577.19 3386.73
v -16.815 -2586.48 3385.81
v -22.701 -2574.45 3414.81
v -23.25 -2583.33 3417.5
v -21.8 -2570.01 3410.37
v -20.634 -2567.64 3404.62
v -17.299 -2574.44 3388.2
v -17.703 -2572.02 3390.19
v -21.24 -2568.55 3407.61
v -23.186 -2586.48 3417.19
v -23 -2589.47 3416.28
v -48.376 -2583.33 3385.5
v -23 -2577.19 3416.28
v -23.186 -2580.18 3417.19
v -51.625 -2583.33 3417.5
v -22.701 -2592.22 3414.81
v -22.297 -2594.65 3412.81
v -21.8 -2596.65 3410.37
v -20.634 -2599.02 3404.62
v -21.24 -2598.12 3407.61
v -20 -2599.33 3401.5
v -16.815 -2580.18 3385.81
v -18.2 -2570.01 3392.63
v -19.366 -2567.64 3398.38
v -18.76 -2568.55 3395.39
v -18.76 -2598.12 3395.39
v -19.366 -2599.03 3398.38
v -18.2 -2596.65 3392.63

# 804 facets
# ------------------------------------------

f  225 122 123
f  364 121 123
f  364 363 358
f  305 222 228
f  100 99 122
f  121 364 174
f  123 121 225
f  124 364 123
f  358 356 364
f  304 227 224
f  1 357 355
f  122 101 100
f  122 111 101
f  225 109 102
f  223 225 356
f  225 111 122
f  106 103 225
f  225 103 104
f  225 104 105
f  107 106 225
f  112 107 225
f  108 225 110
f  225 108 109
f  225 105 110
f  225 102 111
f  113 112 225
f  115 113 225
f  116 115 225
f  114 115 116
f  119 116 225
f  120 117 118
f  118 119 225
f  120 118 225
f  223 120 225
f  121 203 206
f  225 189 138
f  225 142 189
f  144 193 225
f  186 144 225
f  225 194 209
f  193 185 225
f  121 195 204
f  225 138 139
f  121 196 198
f  190 364 147
f  121 198 199
f  121 199 200
f  147 364 181
f  121 200 201
f  159 226 225
f  121 183 202
f  181 364 150
f  121 202 182
f  225 121 206
f  205 364 155
f  121 129 203
f  184 364 151
f  121 204 129
f  192 364 153
f  201 183 121
f  225 206 145
f  121 134 197
f  207 121 208
f  121 207 134
f  121 197 196
f  121 182 195
f  225 145 194
f  225 209 210
f  225 210 213
f  225 211 191
f  225 191 142
f  225 213 212
f  225 212 211
f  140 186 225
f  139 140 225
f  161 364 205
f  151 364 192
f  153 364 187
f  155 364 184
f  187 364 156
f  156 364 190
f  185 159 225
f  226 150 364
f  214 364 161
f  163 364 215
f  216 364 163
f  176 364 214
f  215 364 165
f  167 364 217
f  218 364 167
f  172 364 218
f  219 364 169
f  171 364 219
f  220 364 171
f  364 172 169
f  208 121 174
f  174 364 220
f  364 176 165
f  217 364 216
f  99 123 122
f  364 124 222
f  296 364 222
f  99 124 123
f  175 180 125
f  125 126 196
f  126 127 199
f  132 128 183
f  129 130 203
f  128 131 195
f  127 132 200
f  130 133 203
f  175 197 134
f  146 135 209
f  137 136 211
f  135 137 213
f  138 178 139
f  141 188 158
f  140 141 186
f  142 143 189
f  144 158 193
f  145 146 194
f  147 148 190
f  188 149 158
f  149 181 150
f  151 152 184
f  153 154 192
f  155 179 205
f  156 157 187
f  158 226 159
f  160 214 161
f  162 216 163
f  164 215 165
f  166 218 167
f  221 180 175
f  168 219 169
f  170 220 171
f  172 173 169
f  174 175 208
f  176 177 165
f  141 178 106
f  178 143 103
f  107 141 106
f  108 135 109
f  143 136 104
f  136 137 105
f  110 137 108
f  146 102 109
f  115 148 113
f  154 114 116
f  114 157 115
f  113 149 112
f  119 152 116
f  120 160 117
f  160 179 117
f  118 152 119
f  223 177 120
f  133 130 124
f  131 128 124
f  124 130 131
f  124 132 127
f  132 124 128
f  127 126 124
f  126 125 124
f  180 124 125
f  102 133 111
f  173 166 222
f  162 164 222
f  222 166 162
f  180 221 222
f  170 168 222
f  170 222 221
f  222 168 173
f  124 180 222
f  222 164 177
f  160 205 179
f  99 101 111
f  99 100 101
f  124 99 111
f  148 147 181
f  146 109 135
f  128 195 182
f  222 223 228
f  223 224 228
f  224 227 228
f  178 138 143
f  140 139 178
f  183 128 202
f  124 111 133
f  106 178 103
f  155 184 179
f  146 133 102
f  141 107 188
f  159 185 158
f  103 143 104
f  141 140 178
f  144 186 141
f  154 153 187
f  104 136 105
f  149 150 226
f  188 107 112
f  188 112 149
f  143 142 136
f  138 189 143
f  156 190 157
f  135 108 137
f  136 142 191
f  151 192 152
f  105 137 110
f  158 144 141
f  185 193 158
f  209 194 146
f  146 145 133
f  149 113 148
f  148 115 157
f  154 157 114
f  154 116 152
f  152 118 179
f  160 120 177
f  117 179 118
f  177 223 222
f  195 131 204
f  196 126 198
f  125 196 197
f  199 198 126
f  157 190 148
f  199 127 200
f  200 132 201
f  132 183 201
f  149 148 181
f  182 202 128
f  130 129 131
f  203 133 206
f  131 129 204
f  161 205 160
f  179 184 152
f  152 192 154
f  145 206 133
f  175 134 207
f  175 125 197
f  175 207 208
f  209 135 210
f  213 210 135
f  211 136 191
f  137 211 212
f  213 137 212
f  160 177 214
f  154 187 157
f  158 149 226
f  176 214 177
f  162 166 216
f  162 163 215
f  217 216 166
f  164 162 215
f  164 165 177
f  166 173 218
f  166 167 217
f  172 218 173
f  168 170 219
f  168 169 173
f  171 219 170
f  170 221 220
f  174 220 221
f  175 174 221
f  6 359 362
f  296 222 305
f  10 358 363
f  228 303 305
f  301 304 224
f  14 15 358
f  223 300 301
f  223 301 224
f  300 223 356
f  310 311 323
f  323 311 313
f  283 323 284
f  282 310 356
f  317 282 356
f  283 285 295
f  310 283 356
f  310 323 283
f  295 300 356
f  283 295 356
f  289 317 356
f  292 289 356
f  287 286 289
f  288 286 287
f  292 287 289
f  291 319 292
f  292 290 287
f  291 292 356
f  293 291 356
f  355 293 356
f  356 346 263
f  356 265 354
f  364 269 306
f  364 306 279
f  364 280 269
f  299 342 225
f  343 341 225
f  338 321 225
f  341 340 225
f  339 338 225
f  340 339 225
f  243 308 225
f  244 312 225
f  308 244 225
f  318 243 225
f  246 318 225
f  321 246 225
f  248 345 225
f  312 248 225
f  344 343 225
f  342 344 225
f  346 356 225
f  345 346 225
f  356 347 260
f  356 250 347
f  356 253 348
f  356 348 250
f  40 356 39
f  356 350 265
f  356 351 258
f  356 254 351
f  356 352 254
f  356 256 352
f  356 258 350
f  356 353 256
f  356 260 353
f  356 263 349
f  356 349 253
f  364 354 280
f  226 239 329
f  226 299 225
f  278 325 364
f  226 314 331
f  239 226 330
f  330 226 364
f  325 330 364
f  226 329 314
f  226 331 327
f  226 327 332
f  226 332 333
f  226 333 309
f  273 315 364
f  315 274 364
f  320 278 364
f  274 320 364
f  276 273 364
f  226 309 334
f  226 334 307
f  226 335 298
f  226 233 335
f  226 337 336
f  226 336 233
f  226 298 299
f  226 307 337
f  279 267 364
f  267 326 364
f  322 276 364
f  271 322 364
f  328 271 364
f  326 328 364
f  2 360 357
f  302 227 304
f  227 302 303
f  227 303 228
f  3 4 360
f  364 296 359
f  7 364 359
f  238 297 229
f  229 230 314
f  230 231 327
f  236 232 309
f  233 234 335
f  232 235 337
f  231 236 332
f  234 237 335
f  238 329 239
f  249 240 343
f  242 241 338
f  240 242 340
f  243 281 308
f  245 316 262
f  244 245 312
f  246 247 318
f  248 262 345
f  237 249 342
f  250 251 347
f  316 252 262
f  252 348 253
f  254 255 351
f  256 257 352
f  258 259 350
f  260 261 353
f  262 349 263
f  264 354 265
f  266 326 267
f  268 306 269
f  270 322 271
f  324 297 238
f  272 315 273
f  274 275 320
f  276 277 273
f  278 238 325
f  279 266 267
f  294 269 280
f  245 281 310
f  281 247 311
f  282 245 310
f  283 240 285
f  247 241 313
f  241 242 323
f  284 242 283
f  249 295 285
f  286 251 289
f  257 288 287
f  288 261 286
f  289 252 317
f  290 255 287
f  291 264 319
f  264 259 319
f  292 255 290
f  293 294 291
f  237 234 296
f  235 232 296
f  296 234 235
f  296 236 231
f  236 296 232
f  231 230 296
f  230 229 296
f  297 296 229
f  295 237 300
f  277 270 359
f  266 268 359
f  359 270 266
f  297 324 359
f  275 272 359
f  275 359 324
f  359 272 277
f  296 297 359
f  359 268 294
f  299 298 237
f  342 299 237
f  305 303 300
f  303 301 300
f  303 304 301
f  303 302 304
f  296 305 300
f  249 285 240
f  266 279 306
f  232 337 307
f  359 293 362
f  361 293 355
f  361 355 357
f  361 357 360
f  293 361 362
f  281 243 247
f  244 308 281
f  309 232 334
f  294 268 269
f  296 300 237
f  249 237 295
f  310 281 311
f  245 282 316
f  311 247 313
f  245 244 281
f  248 312 245
f  264 291 294
f  272 275 315
f  255 292 259
f  272 273 277
f  313 241 323
f  314 230 331
f  274 315 275
f  316 282 317
f  247 246 241
f  243 318 247
f  319 259 292
f  324 320 275
f  278 320 324
f  270 277 322
f  316 317 252
f  241 246 321
f  240 283 242
f  277 276 322
f  323 242 284
f  294 293 359
f  238 278 324
f  330 325 238
f  294 280 354
f  252 289 251
f  268 266 306
f  251 286 261
f  266 270 326
f  257 261 288
f  257 287 255
f  270 328 326
f  327 231 332
f  271 328 270
f  229 314 329
f  238 239 330
f  238 229 329
f  327 331 230
f  332 236 333
f  309 333 236
f  307 334 232
f  234 233 235
f  335 237 298
f  235 233 336
f  337 235 336
f  338 241 321
f  242 338 339
f  340 242 339
f  240 340 341
f  342 249 344
f  343 240 341
f  249 343 344
f  262 248 245
f  346 345 262
f  263 346 262
f  261 347 251
f  260 347 261
f  251 250 348
f  252 251 348
f  252 253 349
f  264 265 350
f  264 294 354
f  264 350 259
f  259 351 255
f  258 351 259
f  255 254 352
f  255 352 257
f  257 256 353
f  257 353 261
f  262 252 349
f  356 354 39
f  35 354 98
f  92 354 91
f  356 50 51
f  88 354 87
f  91 354 90
f  95 354 94
f  96 354 95
f  93 354 92
f  94 354 93
f  36 354 35
f  38 354 37
f  37 354 36
f  98 354 97
f  356 40 41
f  39 354 38
f  71 72 364
f  90 354 89
f  356 47 48
f  356 46 47
f  356 44 45
f  356 45 46
f  356 56 57
f  356 55 56
f  356 53 54
f  356 52 53
f  356 51 52
f  74 75 364
f  356 54 55
f  356 48 49
f  356 42 43
f  356 43 44
f  73 74 364
f  72 73 364
f  75 354 364
f  76 354 75
f  77 354 76
f  78 354 77
f  79 354 78
f  80 354 79
f  67 68 364
f  68 69 364
f  70 71 364
f  69 70 364
f  66 67 364
f  81 354 80
f  82 354 81
f  87 354 86
f  86 354 85
f  84 354 83
f  85 354 84
f  83 354 82
f  61 62 364
f  58 59 364
f  60 61 364
f  59 60 364
f  65 66 364
f  64 65 364
f  63 64 364
f  62 63 364
f  89 354 88
f  97 354 96
f  356 49 50
f  57 58 364
f  356 57 364
f  356 41 42
f  356 358 15
f  34 1 355
f  356 34 355
f  28 356 27
f  356 28 29
f  356 24 25
f  356 29 30
f  356 30 31
f  33 356 32
f  356 33 34
f  356 23 24
f  356 26 27
f  356 25 26
f  356 31 32
f  356 22 23
f  356 20 21
f  356 21 22
f  356 19 20
f  356 17 18
f  356 16 17
f  356 18 19
f  356 15 16
f  13 14 358
f  2 357 1
f  4 5 361
f  11 358 10
f  12 13 358
f  3 360 2
f  8 9 363
f  7 359 6
f  11 12 358
f  4 361 360
f  362 5 6
f  361 5 362
f  363 9 10
f  364 7 8
f  364 8 363
f  382 365 392
f  76 371 77
f  78 377 79
f  378 393 81
f  86 394 87
f  393 395 84
f  377 378 79
f  87 367 88
f  382 75 74
f  91 379 92
f  375 366 95
f  379 375 93
f  373 383 35
f  384 374 385
f  37 384 38
f  97 373 98
f  39 385 40
f  89 376 90
f  46 381 47
f  374 380 385
f  380 45 44
f  52 388 53
f  387 51 50
f  54 390 55
f  386 49 48
f  385 43 42
f  389 57 56
f  396 62 61
f  397 60 59
f  398 65 64
f  372 365 382
f  368 68 67
f  370 70 69
f  66 369 67
f  71 382 72
f  391 59 58
f  384 383 26
f  27 373 28
f  25 384 26
f  31 379 32
f  373 366 28
f  366 375 29
f  375 31 30
f  32 376 33
f  22 381 23
f  387 21 20
f  21 386 22
f  23 380 24
f  19 388 20
f  16 389 17
f  389 390 17
f  18 388 19
f  15 391 16
f  367 394 7
f  395 393 7
f  7 394 395
f  7 378 377
f  378 7 393
f  377 371 7
f  371 392 7
f  365 7 392
f  33 367 34
f  369 398 8
f  396 397 8
f  8 398 396
f  365 372 8
f  370 368 8
f  370 8 372
f  8 368 369
f  7 365 8
f  8 397 391
f  89 88 367
f  389 55 390
f  4 1 34
f  4 2 1
f  7 6 34
f  6 5 34
f  5 4 34
f  4 3 2
f  8 15 9
f  15 10 9
f  11 10 15
f  14 11 15
f  14 13 11
f  11 13 12
f  367 87 394
f  387 388 51
f  28 366 29
f  387 50 49
f  379 91 376
f  93 92 379
f  35 383 36
f  373 35 98
f  376 91 90
f  95 366 96
f  375 95 94
f  97 96 366
f  93 375 94
f  37 36 383
f  391 397 59
f  7 34 367
f  368 370 68
f  368 67 369
f  384 37 383
f  39 38 384
f  385 42 41
f  373 27 383
f  370 372 70
f  371 76 392
f  370 69 68
f  71 70 372
f  373 97 366
f  380 44 43
f  25 24 374
f  374 24 380
f  385 39 384
f  41 40 385
f  388 52 51
f  29 375 30
f  48 47 386
f  375 379 31
f  382 71 372
f  73 72 382
f  376 89 367
f  54 53 390
f  367 33 376
f  78 77 371
f  386 47 381
f  377 78 371
f  79 378 80
f  376 32 379
f  381 46 45
f  380 381 45
f  389 56 55
f  380 23 381
f  389 391 57
f  390 53 388
f  81 80 378
f  382 74 73
f  382 392 75
f  26 383 27
f  386 387 49
f  384 25 374
f  385 380 43
f  391 58 57
f  381 22 386
f  387 386 21
f  387 20 388
f  388 18 390
f  389 16 391
f  17 390 18
f  391 15 8
f  76 75 392
f  369 66 65
f  81 393 82
f  83 82 393
f  394 86 395
f  395 86 85
f  84 395 85
f  393 84 83
f  396 398 62
f  396 61 60
f  63 62 398
f  397 396 60
f  398 369 65
f  398 64 63

# End of Wavefront obj format #
