ISO-10303-21;
HEADER;
/* Generated by software containing ST-Developer
 * from STEP Tools, Inc. (www.steptools.com) 
 */
/* OPTION: using custom schema-name function */

FILE_DESCRIPTION(
/* description */ (''),
/* implementation_level */ '2;1');

FILE_NAME(
/* name */ 'wedge_boolean',
/* time_stamp */ '2026-05-20T14:48:48+02:00',
/* author */ (''),
/* organization */ (''),
/* preprocessor_version */ 'ST-DEVELOPER v19.2',
/* originating_system */ 'Rhino 8.31',
/* authorisation */ '');

FILE_SCHEMA (('CONFIG_CONTROL_DESIGN'));
ENDSEC;

DATA;
#10=SHAPE_REPRESENTATION_RELATIONSHIP('','',#246,#12);
#11=MANIFOLD_SOLID_BREP('brep_1',#13);
#12=ADVANCED_BREP_SHAPE_REPRESENTATION('brep_rep_0',(#11,#259),#245);
#13=CLOSED_SHELL('',(#16,#17,#18,#19,#20,#21,#22,#23,#24,#25,#26));
#14=FACE_BOUND('',#45,.T.);
#15=FACE_BOUND('',#48,.T.);
#16=ADVANCED_FACE('',(#27),#156,.T.);
#17=ADVANCED_FACE('',(#28),#157,.T.);
#18=ADVANCED_FACE('',(#29),#149,.T.);
#19=ADVANCED_FACE('',(#30),#150,.T.);
#20=ADVANCED_FACE('',(#31),#158,.T.);
#21=ADVANCED_FACE('',(#32),#159,.T.);
#22=ADVANCED_FACE('',(#33,#14),#151,.T.);
#23=ADVANCED_FACE('',(#34),#152,.T.);
#24=ADVANCED_FACE('',(#35,#15),#153,.T.);
#25=ADVANCED_FACE('',(#36),#154,.T.);
#26=ADVANCED_FACE('',(#37),#155,.T.);
#27=FACE_OUTER_BOUND('',#38,.T.);
#28=FACE_OUTER_BOUND('',#39,.T.);
#29=FACE_OUTER_BOUND('',#40,.T.);
#30=FACE_OUTER_BOUND('',#41,.T.);
#31=FACE_OUTER_BOUND('',#42,.T.);
#32=FACE_OUTER_BOUND('',#43,.T.);
#33=FACE_OUTER_BOUND('',#44,.T.);
#34=FACE_OUTER_BOUND('',#46,.T.);
#35=FACE_OUTER_BOUND('',#47,.T.);
#36=FACE_OUTER_BOUND('',#49,.T.);
#37=FACE_OUTER_BOUND('',#50,.T.);
#38=EDGE_LOOP('',(#51,#52,#53,#54));
#39=EDGE_LOOP('',(#55,#56,#57,#58));
#40=EDGE_LOOP('',(#59,#60));
#41=EDGE_LOOP('',(#61,#62));
#42=EDGE_LOOP('',(#63,#64,#65,#66));
#43=EDGE_LOOP('',(#67,#68,#69,#70));
#44=EDGE_LOOP('',(#71,#72,#73,#74));
#45=EDGE_LOOP('',(#75,#76));
#46=EDGE_LOOP('',(#77,#78,#79));
#47=EDGE_LOOP('',(#80,#81,#82,#83));
#48=EDGE_LOOP('',(#84,#85));
#49=EDGE_LOOP('',(#86,#87,#88));
#50=EDGE_LOOP('',(#89,#90,#91,#92));
#51=ORIENTED_EDGE('',*,*,#95,.T.);
#52=ORIENTED_EDGE('',*,*,#93,.T.);
#53=ORIENTED_EDGE('',*,*,#94,.F.);
#54=ORIENTED_EDGE('',*,*,#111,.F.);
#55=ORIENTED_EDGE('',*,*,#94,.T.);
#56=ORIENTED_EDGE('',*,*,#96,.T.);
#57=ORIENTED_EDGE('',*,*,#95,.F.);
#58=ORIENTED_EDGE('',*,*,#112,.F.);
#59=ORIENTED_EDGE('',*,*,#97,.T.);
#60=ORIENTED_EDGE('',*,*,#100,.T.);
#61=ORIENTED_EDGE('',*,*,#96,.F.);
#62=ORIENTED_EDGE('',*,*,#93,.F.);
#63=ORIENTED_EDGE('',*,*,#98,.F.);
#64=ORIENTED_EDGE('',*,*,#97,.F.);
#65=ORIENTED_EDGE('',*,*,#99,.T.);
#66=ORIENTED_EDGE('',*,*,#105,.F.);
#67=ORIENTED_EDGE('',*,*,#99,.F.);
#68=ORIENTED_EDGE('',*,*,#100,.F.);
#69=ORIENTED_EDGE('',*,*,#98,.T.);
#70=ORIENTED_EDGE('',*,*,#106,.F.);
#71=ORIENTED_EDGE('',*,*,#101,.T.);
#72=ORIENTED_EDGE('',*,*,#104,.T.);
#73=ORIENTED_EDGE('',*,*,#102,.T.);
#74=ORIENTED_EDGE('',*,*,#103,.T.);
#75=ORIENTED_EDGE('',*,*,#105,.T.);
#76=ORIENTED_EDGE('',*,*,#106,.T.);
#77=ORIENTED_EDGE('',*,*,#103,.F.);
#78=ORIENTED_EDGE('',*,*,#109,.F.);
#79=ORIENTED_EDGE('',*,*,#107,.F.);
#80=ORIENTED_EDGE('',*,*,#108,.T.);
#81=ORIENTED_EDGE('',*,*,#109,.T.);
#82=ORIENTED_EDGE('',*,*,#102,.F.);
#83=ORIENTED_EDGE('',*,*,#110,.T.);
#84=ORIENTED_EDGE('',*,*,#112,.T.);
#85=ORIENTED_EDGE('',*,*,#111,.T.);
#86=ORIENTED_EDGE('',*,*,#113,.T.);
#87=ORIENTED_EDGE('',*,*,#110,.F.);
#88=ORIENTED_EDGE('',*,*,#104,.F.);
#89=ORIENTED_EDGE('',*,*,#108,.F.);
#90=ORIENTED_EDGE('',*,*,#113,.F.);
#91=ORIENTED_EDGE('',*,*,#101,.F.);
#92=ORIENTED_EDGE('',*,*,#107,.T.);
#93=EDGE_CURVE('',#136,#135,#114,.T.);
#94=EDGE_CURVE('',#138,#135,#115,.T.);
#95=EDGE_CURVE('',#137,#136,#116,.T.);
#96=EDGE_CURVE('',#135,#136,#117,.T.);
#97=EDGE_CURVE('',#139,#140,#118,.T.);
#98=EDGE_CURVE('',#140,#141,#119,.T.);
#99=EDGE_CURVE('',#139,#142,#120,.T.);
#100=EDGE_CURVE('',#140,#139,#121,.T.);
#101=EDGE_CURVE('',#145,#146,#122,.T.);
#102=EDGE_CURVE('',#144,#143,#123,.T.);
#103=EDGE_CURVE('',#143,#145,#124,.T.);
#104=EDGE_CURVE('',#146,#144,#125,.T.);
#105=EDGE_CURVE('',#141,#142,#126,.T.);
#106=EDGE_CURVE('',#142,#141,#127,.T.);
#107=EDGE_CURVE('',#145,#147,#128,.T.);
#108=EDGE_CURVE('',#148,#147,#129,.T.);
#109=EDGE_CURVE('',#147,#143,#130,.T.);
#110=EDGE_CURVE('',#144,#148,#131,.T.);
#111=EDGE_CURVE('',#137,#138,#132,.T.);
#112=EDGE_CURVE('',#138,#137,#133,.T.);
#113=EDGE_CURVE('',#146,#148,#134,.T.);
#114=B_SPLINE_CURVE_WITH_KNOTS('',3,(#301,#302,#303,#304,#305,#306,#307,
#308,#309,#310,#311),.UNSPECIFIED.,.F.,.F.,(4,2,3,2,4),(0.,6.44601308029479,
12.8919993337575,19.3379947361906,25.7838764430934),.UNSPECIFIED.);
#115=B_SPLINE_CURVE_WITH_KNOTS('',1,(#312,#313),.UNSPECIFIED.,.F.,.F.,(2,
2),(38.7185888791411,59.9999999999973),.UNSPECIFIED.);
#116=B_SPLINE_CURVE_WITH_KNOTS('',1,(#314,#315),.UNSPECIFIED.,.F.,.F.,(2,
2),(36.2817258845779,59.9999999999973),.UNSPECIFIED.);
#117=B_SPLINE_CURVE_WITH_KNOTS('',3,(#316,#317,#318,#319,#320,#321,#322,
#323,#324,#325,#326),.UNSPECIFIED.,.F.,.F.,(4,2,3,2,4),(25.7838764430934,
32.2297399759328,38.6757477553695,45.1217439329175,51.5677741564462),
 .UNSPECIFIED.);
#118=B_SPLINE_CURVE_WITH_KNOTS('',3,(#327,#328,#329,#330,#331,#332,#333,
#334,#335,#336,#337),.UNSPECIFIED.,.F.,.F.,(4,2,3,2,4),(0.,6.44601308029479,
12.8919993337575,19.3379947361906,25.7838764430934),.UNSPECIFIED.);
#119=B_SPLINE_CURVE_WITH_KNOTS('',1,(#338,#339),.UNSPECIFIED.,.F.,.F.,(2,
2),(0.,21.2814111133455),.UNSPECIFIED.);
#120=B_SPLINE_CURVE_WITH_KNOTS('',1,(#340,#341),.UNSPECIFIED.,.F.,.F.,(2,
2),(0.,23.7182741079188),.UNSPECIFIED.);
#121=B_SPLINE_CURVE_WITH_KNOTS('',3,(#342,#343,#344,#345,#346,#347,#348,
#349,#350,#351,#352),.UNSPECIFIED.,.F.,.F.,(4,2,3,2,4),(25.7838764430934,
32.2297399759328,38.6757477553695,45.1217439329175,51.5677741564462),
 .UNSPECIFIED.);
#122=B_SPLINE_CURVE_WITH_KNOTS('',1,(#353,#354),.UNSPECIFIED.,.F.,.F.,(2,
2),(64.4372230514562,112.409676977767),.UNSPECIFIED.);
#123=B_SPLINE_CURVE_WITH_KNOTS('',1,(#355,#356),.UNSPECIFIED.,.F.,.F.,(2,
2),(-78.7272727271829,0.),.UNSPECIFIED.);
#124=B_SPLINE_CURVE_WITH_KNOTS('',1,(#357,#358),.UNSPECIFIED.,.F.,.F.,(2,
2),(140.509949756229,251.223955325252),.UNSPECIFIED.);
#125=B_SPLINE_CURVE_WITH_KNOTS('',1,(#359,#360),.UNSPECIFIED.,.F.,.F.,(2,
2),(-251.223955325255,-140.509949756229),.UNSPECIFIED.);
#126=B_SPLINE_CURVE_WITH_KNOTS('',3,(#361,#362,#363,#364,#365,#366,#367,
#368,#369,#370,#371,#372,#373),.UNSPECIFIED.,.F.,.F.,(4,3,3,3,4),(0.,6.47429237284835,
13.0238006919897,19.5732842172002,26.0477265141382),.UNSPECIFIED.);
#127=B_SPLINE_CURVE_WITH_KNOTS('',3,(#374,#375,#376,#377,#378,#379,#380,
#381,#382,#383,#384,#385,#386),.UNSPECIFIED.,.F.,.F.,(4,3,3,3,4),(0.,6.47446018680082,
13.0239535898482,19.5734784613297,26.0477492818553),.UNSPECIFIED.);
#128=B_SPLINE_CURVE_WITH_KNOTS('',1,(#387,#388),.UNSPECIFIED.,.F.,.F.,(2,
2),(-2.03045685279968,42.0304568528312),.UNSPECIFIED.);
#129=B_SPLINE_CURVE_WITH_KNOTS('',1,(#389,#390),.UNSPECIFIED.,.F.,.F.,(2,
2),(-78.7272727271829,0.),.UNSPECIFIED.);
#130=B_SPLINE_CURVE_WITH_KNOTS('',1,(#391,#392),.UNSPECIFIED.,.F.,.F.,(2,
2),(29.7959441872284,140.509949756229),.UNSPECIFIED.);
#131=B_SPLINE_CURVE_WITH_KNOTS('',1,(#393,#394),.UNSPECIFIED.,.F.,.F.,(2,
2),(-140.509949756229,-29.7959441872256),.UNSPECIFIED.);
#132=B_SPLINE_CURVE_WITH_KNOTS('',3,(#395,#396,#397,#398,#399,#400,#401,
#402,#403,#404,#405,#406,#407),.UNSPECIFIED.,.F.,.F.,(4,3,3,3,4),(0.,6.47444229693773,
13.0239258221472,19.5734341412877,26.0477265141358),.UNSPECIFIED.);
#133=B_SPLINE_CURVE_WITH_KNOTS('',3,(#408,#409,#410,#411,#412,#413,#414,
#415,#416,#417,#418,#419,#420),.UNSPECIFIED.,.F.,.F.,(4,3,3,3,4),(0.,6.47427082052525,
13.0237956920058,19.5732890950523,26.0477492818529),.UNSPECIFIED.);
#134=B_SPLINE_CURVE_WITH_KNOTS('',1,(#421,#422),.UNSPECIFIED.,.F.,.F.,(2,
2),(-2.03045685280025,42.0304568528317),.UNSPECIFIED.);
#135=VERTEX_POINT('',#287);
#136=VERTEX_POINT('',#288);
#137=VERTEX_POINT('',#289);
#138=VERTEX_POINT('',#290);
#139=VERTEX_POINT('',#291);
#140=VERTEX_POINT('',#292);
#141=VERTEX_POINT('',#293);
#142=VERTEX_POINT('',#294);
#143=VERTEX_POINT('',#295);
#144=VERTEX_POINT('',#296);
#145=VERTEX_POINT('',#297);
#146=VERTEX_POINT('',#298);
#147=VERTEX_POINT('',#299);
#148=VERTEX_POINT('',#300);
#149=PLANE('',#250);
#150=PLANE('',#251);
#151=PLANE('',#254);
#152=PLANE('',#255);
#153=PLANE('',#256);
#154=PLANE('',#257);
#155=PLANE('',#258);
#156=CYLINDRICAL_SURFACE('',#248,8.00103356557035);
#157=CYLINDRICAL_SURFACE('',#249,8.00103356557048);
#158=CYLINDRICAL_SURFACE('',#252,8.00103356557035);
#159=CYLINDRICAL_SURFACE('',#253,8.00103356557048);
#160=SHAPE_DEFINITION_REPRESENTATION(#161,#246);
#161=PRODUCT_DEFINITION_SHAPE($,$,#163);
#162=PRODUCT_DEFINITION_CONTEXT('3D Mechanical Parts',#235,'design');
#163=PRODUCT_DEFINITION('A','First version',#205,#162);
#164=DATE_TIME_ROLE('classification_date');
#165=DATE_TIME_ROLE('creation_date');
#166=APPLIED_DATE_AND_TIME_ASSIGNMENT(#190,#164,(#169));
#167=APPLIED_DATE_AND_TIME_ASSIGNMENT(#192,#165,(#163));
#168=SECURITY_CLASSIFICATION_LEVEL('unclassified');
#169=SECURITY_CLASSIFICATION('A','Security for version',#168);
#170=APPLIED_SECURITY_CLASSIFICATION_ASSIGNMENT(#169,(#205));
#171=APPROVAL_ROLE('Version approval');
#172=APPROVAL_ROLE('Version Security approval');
#173=APPROVAL_ROLE('Definition approval');
#174=APPROVAL_PERSON_ORGANIZATION(#223,#199,#171);
#175=APPROVAL_PERSON_ORGANIZATION(#224,#200,#172);
#176=APPROVAL_PERSON_ORGANIZATION(#227,#201,#173);
#177=COORDINATED_UNIVERSAL_TIME_OFFSET(5,0,.BEHIND.);
#178=LOCAL_TIME(0,0,0.,#177);
#179=LOCAL_TIME(0,0,0.,#177);
#180=LOCAL_TIME(0,0,0.,#177);
#181=LOCAL_TIME(0,0,0.,#177);
#182=LOCAL_TIME(0,0,0.,#177);
#183=CALENDAR_DATE(1999,1,1);
#184=CALENDAR_DATE(1999,1,1);
#185=CALENDAR_DATE(1999,1,1);
#186=CALENDAR_DATE(1999,1,1);
#187=CALENDAR_DATE(1999,1,1);
#188=DATE_AND_TIME(#183,#178);
#189=DATE_AND_TIME(#184,#179);
#190=DATE_AND_TIME(#185,#180);
#191=DATE_AND_TIME(#186,#181);
#192=DATE_AND_TIME(#187,#182);
#193=APPROVAL_DATE_TIME(#188,#199);
#194=APPROVAL_DATE_TIME(#189,#200);
#195=APPROVAL_DATE_TIME(#191,#201);
#196=APPROVAL_STATUS('not_yet_approved');
#197=APPROVAL_STATUS('not_yet_approved');
#198=APPROVAL_STATUS('approved');
#199=APPROVAL(#196,'Version approval');
#200=APPROVAL(#197,'Version Security approval');
#201=APPROVAL(#198,'Definition approval');
#202=APPLIED_APPROVAL_ASSIGNMENT(#199,(#205));
#203=APPLIED_APPROVAL_ASSIGNMENT(#200,(#169));
#204=APPLIED_APPROVAL_ASSIGNMENT(#201,(#163));
#205=PRODUCT_DEFINITION_FORMATION_WITH_SPECIFIED_SOURCE('A',
'First version',#237,.MADE.);
#206=PERSON_AND_ORGANIZATION_ROLE('design_owner');
#207=PERSON_AND_ORGANIZATION_ROLE('creator');
#208=PERSON_AND_ORGANIZATION_ROLE('design_supplier');
#209=PERSON_AND_ORGANIZATION_ROLE('classification_officer');
#210=PERSON_AND_ORGANIZATION_ROLE('creator');
#211=ORGANIZATION('STI','lab','lab');
#212=ORGANIZATION('STI','unknown','unknown');
#213=ORGANIZATION('STI','unknown','unknown');
#214=ORGANIZATION('STI','unknown','unknown');
#215=ORGANIZATION('STI','unknown','unknown');
#216=ORGANIZATION('STI','unknown','unknown');
#217=ORGANIZATION('STI','unknown','unknown');
#218=PERSON('1','Box','vc60',$,$,$);
#219=PERSON('2','last','first',$,$,$);
#220=PERSON('3','President','Mr.',$,$,$);
#221=PERSON_AND_ORGANIZATION(#218,#211);
#222=PERSON_AND_ORGANIZATION(#219,#212);
#223=PERSON_AND_ORGANIZATION(#220,#213);
#224=PERSON_AND_ORGANIZATION(#220,#214);
#225=PERSON_AND_ORGANIZATION(#220,#215);
#226=PERSON_AND_ORGANIZATION(#219,#216);
#227=PERSON_AND_ORGANIZATION(#220,#217);
#228=APPLIED_PERSON_AND_ORGANIZATION_ASSIGNMENT(#221,#206,(#237));
#229=APPLIED_PERSON_AND_ORGANIZATION_ASSIGNMENT(#222,#207,(#205));
#230=APPLIED_PERSON_AND_ORGANIZATION_ASSIGNMENT(#222,#208,(#205));
#231=APPLIED_PERSON_AND_ORGANIZATION_ASSIGNMENT(#225,#209,(#169));
#232=APPLIED_PERSON_AND_ORGANIZATION_ASSIGNMENT(#226,#210,(#163));
#233=PRODUCT_RELATED_PRODUCT_CATEGORY('detail','detail',(#237));
#234=APPLICATION_PROTOCOL_DEFINITION('International Standard',
'config_control_design',1994,#235);
#235=APPLICATION_CONTEXT(
'configuration controlled 3d designs of mechanical parts and assemblie
s');
#236=PRODUCT_CONTEXT('3D Mechanical Parts',#235,'mechanical');
#237=PRODUCT('Document','Document','',(#236));
#238=(
LENGTH_UNIT()
NAMED_UNIT(*)
SI_UNIT(.MILLI.,.METRE.)
);
#239=(
NAMED_UNIT(*)
PLANE_ANGLE_UNIT()
SI_UNIT($,.RADIAN.)
);
#240=DIMENSIONAL_EXPONENTS(0.,0.,0.,0.,0.,0.,0.);
#241=PLANE_ANGLE_MEASURE_WITH_UNIT(PLANE_ANGLE_MEASURE(0.01745329252),#239);
#242=(
CONVERSION_BASED_UNIT('DEGREES',#241)
NAMED_UNIT(#240)
PLANE_ANGLE_UNIT()
);
#243=(
NAMED_UNIT(*)
SI_UNIT($,.STERADIAN.)
SOLID_ANGLE_UNIT()
);
#244=UNCERTAINTY_MEASURE_WITH_UNIT(LENGTH_MEASURE(0.01),#238,
'DISTANCE_ACCURACY_VALUE',
'Maximum model space distance between geometric entities at asserted c
onnectivities');
#245=(
GEOMETRIC_REPRESENTATION_CONTEXT(3)
GLOBAL_UNCERTAINTY_ASSIGNED_CONTEXT((#244))
GLOBAL_UNIT_ASSIGNED_CONTEXT((#243,#242,#238))
REPRESENTATION_CONTEXT('ID1','3D')
);
#246=SHAPE_REPRESENTATION('Document',(#247,#259),#245);
#247=AXIS2_PLACEMENT_3D($,#275,#260,#261);
#248=AXIS2_PLACEMENT_3D('',#276,#262,$);
#249=AXIS2_PLACEMENT_3D('',#277,#263,$);
#250=AXIS2_PLACEMENT_3D('',#278,#264,$);
#251=AXIS2_PLACEMENT_3D('',#279,#265,$);
#252=AXIS2_PLACEMENT_3D('',#280,#266,$);
#253=AXIS2_PLACEMENT_3D('',#281,#267,$);
#254=AXIS2_PLACEMENT_3D('',#282,#268,$);
#255=AXIS2_PLACEMENT_3D('',#283,#269,$);
#256=AXIS2_PLACEMENT_3D('',#284,#270,$);
#257=AXIS2_PLACEMENT_3D('',#285,#271,$);
#258=AXIS2_PLACEMENT_3D('',#286,#272,$);
#259=AXIS2_PLACEMENT_3D($,#423,#273,#274);
#260=DIRECTION('',(0.,0.,1.));
#261=DIRECTION('',(1.,0.,0.));
#262=DIRECTION('',(-5.50595593972823E-14,1.,-5.86122037447874E-14));
#263=DIRECTION('',(-5.59627243137368E-14,1.,-5.86122037447876E-14));
#264=DIRECTION('',(0.,1.,0.));
#265=DIRECTION('',(0.,-1.,0.));
#266=DIRECTION('',(-5.50595593972823E-14,1.,-5.86122037447874E-14));
#267=DIRECTION('',(-5.59627243137368E-14,1.,-5.86122037447876E-14));
#268=DIRECTION('',(-6.89264265924877E-15,0.98000247974334,-0.198985275075582));
#269=DIRECTION('',(-1.,0.,0.));
#270=DIRECTION('',(-6.89264265921506E-15,-0.980002479743537,-0.198985275074609));
#271=DIRECTION('',(1.,0.,0.));
#272=DIRECTION('',(0.,0.,1.));
#273=DIRECTION('',(0.,0.,1.));
#274=DIRECTION('',(1.,0.,0.));
#275=CARTESIAN_POINT('',(0.,0.,0.));
#276=CARTESIAN_POINT('',(0.00103350249476133,-5.02845759336486E-9,-49.2489665011669));
#277=CARTESIAN_POINT('',(-0.00103350345209316,-5.02845770810672E-9,-49.2489665011669));
#278=CARTESIAN_POINT('',(-8.15999999996153,39.9999999949711,-41.087912031338));
#279=CARTESIAN_POINT('',(-8.15999999995759,-40.0000000050276,-41.0879120313337));
#280=CARTESIAN_POINT('',(0.00103350249476133,-5.02845759336486E-9,-49.2489665011669));
#281=CARTESIAN_POINT('',(-0.00103350345209316,-5.02845770810672E-9,-49.2489665011669));
#282=CARTESIAN_POINT('',(-39.3636363635949,-5.0931703299284E-11,-98.4999999999604));
#283=CARTESIAN_POINT('',(-39.3636363635949,-26.3062197731853,-99.7701777684195));
#284=CARTESIAN_POINT('',(-39.3636363635813,-79.6955825224035,294.000743923063));
#285=CARTESIAN_POINT('',(39.363636363588,-24.1327657337858,-99.6652340317159));
#286=CARTESIAN_POINT('',(-39.3636363635911,22.0304568528211,9.99999999999998));
#287=CARTESIAN_POINT('',(4.06240966791909E-11,-40.0000000050286,-41.2479330023438));
#288=CARTESIAN_POINT('',(4.42620754862826E-11,-40.0000000050307,-57.2499999999854));
#289=CARTESIAN_POINT('',(4.27091999666915E-11,-8.37563451780298,-57.2499999999872));
#290=CARTESIAN_POINT('',(3.89064715264549E-11,-11.624785177219,-41.2479330023453));
#291=CARTESIAN_POINT('',(4.03209317785997E-11,39.9999999949705,-57.2499999999901));
#292=CARTESIAN_POINT('',(3.57734582697351E-11,39.9999999949714,-41.247933002348));
#293=CARTESIAN_POINT('',(3.7495524314266E-11,11.6247851771761,-41.2479330023465));
#294=CARTESIAN_POINT('',(4.18791363684627E-11,8.37563451774354,-57.2499999999882));
#295=CARTESIAN_POINT('',(-39.3636363635949,-5.09364402508557E-11,-98.4999999999604));
#296=CARTESIAN_POINT('',(39.3636363635881,-5.09364402508557E-11,-98.4999999999632));
#297=CARTESIAN_POINT('',(-39.3636363635911,22.0304568528206,10.));
#298=CARTESIAN_POINT('',(39.3636363635918,22.0304568528211,9.99999999999995));
#299=CARTESIAN_POINT('',(-39.3636363635911,-22.0304568528103,9.99999999999998));
#300=CARTESIAN_POINT('',(39.3636363635918,-22.0304568528108,10.));
#301=CARTESIAN_POINT('',(4.42620754862826E-11,-40.0000000050307,-57.2499999999854));
#302=CARTESIAN_POINT('',(-2.12175668519679,-40.0000000050307,-57.250023720654));
#303=CARTESIAN_POINT('',(-4.15660127488748,-40.0000000050307,-56.4071538601146));
#304=CARTESIAN_POINT('',(-7.15717328459808,-40.0000000050307,-53.4065100810239));
#305=CARTESIAN_POINT('',(-7.99999999995756,-40.0000000050295,-51.371652875699));
#306=CARTESIAN_POINT('',(-7.99999999995665,-40.0000000050295,-49.2499129509824));
#307=CARTESIAN_POINT('',(-7.99999999995574,-40.0000000050308,-47.1281427441321));
#308=CARTESIAN_POINT('',(-7.1569412878019,-40.0000000050296,-45.0933510138542));
#309=CARTESIAN_POINT('',(-4.15642943904307,-40.0000000050285,-42.0927978768113));
#310=CARTESIAN_POINT('',(-2.12169197531451,-40.0000000050286,-41.2496942541697));
#311=CARTESIAN_POINT('',(4.06240966791909E-11,-40.0000000050286,-41.2479330023438));
#312=CARTESIAN_POINT('',(3.89064715264549E-11,-11.624785177219,-41.2479330023453));
#313=CARTESIAN_POINT('',(4.06240966791909E-11,-40.0000000050286,-41.2479330023438));
#314=CARTESIAN_POINT('',(4.27091999666915E-11,-8.37563451780298,-57.2499999999872));
#315=CARTESIAN_POINT('',(4.42620754862826E-11,-40.0000000050307,-57.2499999999854));
#316=CARTESIAN_POINT('',(4.06240966791909E-11,-40.0000000050286,-41.2479330023438));
#317=CARTESIAN_POINT('',(2.12168122156496,-40.0000000050286,-41.2496119832776));
#318=CARTESIAN_POINT('',(4.15639343894115,-40.0000000050287,-42.0927825719263));
#319=CARTESIAN_POINT('',(7.15688639206989,-40.0000000050287,-45.0933279335522));
#320=CARTESIAN_POINT('',(8.00000000004608,-40.0000000050299,-47.128109025295));
#321=CARTESIAN_POINT('',(8.00000000004426,-40.0000000050286,-49.2498895290291));
#322=CARTESIAN_POINT('',(8.00000000004426,-40.0000000050286,-51.3716316078184));
#323=CARTESIAN_POINT('',(7.15718082032496,-40.0000000050297,-53.4064957826085));
#324=CARTESIAN_POINT('',(4.1566115138509,-40.0000000050308,-56.40715616967));
#325=CARTESIAN_POINT('',(2.12176334928305,-40.0000000050308,-57.2500301033505));
#326=CARTESIAN_POINT('',(4.42620754862826E-11,-40.0000000050307,-57.2499999999854));
#327=CARTESIAN_POINT('',(4.03209317785997E-11,39.9999999949705,-57.2499999999901));
#328=CARTESIAN_POINT('',(-2.12175668520073,39.9999999949705,-57.2500237206587));
#329=CARTESIAN_POINT('',(-4.15660127489142,39.9999999949705,-56.4071538601193));
#330=CARTESIAN_POINT('',(-7.15717328460202,39.9999999949705,-53.4065100810286));
#331=CARTESIAN_POINT('',(-7.9999999999615,39.9999999949705,-51.3716528757037));
#332=CARTESIAN_POINT('',(-7.99999999996059,39.9999999949705,-49.2499129509871));
#333=CARTESIAN_POINT('',(-7.99999999996059,39.9999999949705,-47.1281427441364));
#334=CARTESIAN_POINT('',(-7.15694128780676,39.9999999949704,-45.0933510138585));
#335=CARTESIAN_POINT('',(-4.15642943904792,39.9999999949715,-42.0927978768155));
#336=CARTESIAN_POINT('',(-2.12169197531936,39.9999999949714,-41.2496942541739));
#337=CARTESIAN_POINT('',(3.57734582697351E-11,39.9999999949714,-41.247933002348));
#338=CARTESIAN_POINT('',(3.57734582697351E-11,39.9999999949714,-41.247933002348));
#339=CARTESIAN_POINT('',(3.7495524314266E-11,11.6247851771761,-41.2479330023465));
#340=CARTESIAN_POINT('',(4.03209317785997E-11,39.9999999949705,-57.2499999999901));
#341=CARTESIAN_POINT('',(4.18791363684627E-11,8.37563451774354,-57.2499999999882));
#342=CARTESIAN_POINT('',(3.57734582697351E-11,39.9999999949714,-41.247933002348));
#343=CARTESIAN_POINT('',(2.12168122156011,39.9999999949714,-41.2496119832818));
#344=CARTESIAN_POINT('',(4.1563934389363,39.9999999949713,-42.0927825719305));
#345=CARTESIAN_POINT('',(7.15688639206504,39.9999999949713,-45.0933279335564));
#346=CARTESIAN_POINT('',(8.00000000004123,39.9999999949713,-47.1281090252993));
#347=CARTESIAN_POINT('',(8.00000000004032,39.9999999949714,-49.2498895290338));
#348=CARTESIAN_POINT('',(8.00000000004032,39.9999999949714,-51.3716316078231));
#349=CARTESIAN_POINT('',(7.15718082032102,39.9999999949715,-53.4064957826132));
#350=CARTESIAN_POINT('',(4.15661151384696,39.9999999949704,-56.4071561696747));
#351=CARTESIAN_POINT('',(2.12176334927911,39.9999999949704,-57.2500301033552));
#352=CARTESIAN_POINT('',(4.03209317785997E-11,39.9999999949705,-57.2499999999901));
#353=CARTESIAN_POINT('',(-39.3636363635911,22.0304568528206,10.));
#354=CARTESIAN_POINT('',(39.3636363635918,22.0304568528211,9.99999999999995));
#355=CARTESIAN_POINT('',(39.3636363635881,-5.09364402508557E-11,-98.4999999999632));
#356=CARTESIAN_POINT('',(-39.3636363635949,-5.09364402508557E-11,-98.4999999999604));
#357=CARTESIAN_POINT('',(-39.3636363635949,-5.09364402508557E-11,-98.4999999999604));
#358=CARTESIAN_POINT('',(-39.3636363635911,22.0304568528206,10.));
#359=CARTESIAN_POINT('',(39.3636363635918,22.0304568528211,9.99999999999995));
#360=CARTESIAN_POINT('',(39.3636363635881,-5.09364402508557E-11,-98.4999999999632));
#361=CARTESIAN_POINT('',(3.7495524314266E-11,11.6247851771761,-41.2479330023465));
#362=CARTESIAN_POINT('',(-2.13430400384998,11.6244254368145,-41.2497047236272));
#363=CARTESIAN_POINT('',(-4.16536416273383,11.4514248277132,-42.1017327234477));
#364=CARTESIAN_POINT('',(-5.65667213242756,11.1486170123398,-43.593061214156));
#365=CARTESIAN_POINT('',(-7.16568160314301,10.842214934103,-45.1020914494659));
#366=CARTESIAN_POINT('',(-7.99999999995823,10.4283182473592,-47.1405326316712));
#367=CARTESIAN_POINT('',(-7.99999999995911,10.0000176749079,-49.2499129509855));
#368=CARTESIAN_POINT('',(-7.99999999995999,9.57172336739878,-51.3592624154593));
#369=CARTESIAN_POINT('',(-7.16591170830459,9.1578129038737,-53.3977714483123));
#370=CARTESIAN_POINT('',(-5.65689040167529,8.85140530991203,-54.9068288485675));
#371=CARTESIAN_POINT('',(-4.16561738890772,8.54860151663576,-56.3981375304473));
#372=CARTESIAN_POINT('',(-2.13447354223973,8.37562967249685,-57.2500238628281));
#373=CARTESIAN_POINT('',(4.18791363684627E-11,8.37563451774354,-57.2499999999882));
#374=CARTESIAN_POINT('',(4.18791363684627E-11,8.37563451774354,-57.2499999999882));
#375=CARTESIAN_POINT('',(2.13448035178205,8.37562836875008,-57.2500302837811));
#376=CARTESIAN_POINT('',(4.16562772371256,8.54860107893435,-56.398139686127));
#377=CARTESIAN_POINT('',(5.65690012912071,8.85140669764423,-54.9068220139868));
#378=CARTESIAN_POINT('',(7.16591911455335,9.15781579223472,-53.3977572231347));
#379=CARTESIAN_POINT('',(8.00000000004182,9.57172767339011,-51.3592412084526));
#380=CARTESIAN_POINT('',(8.0000000000418,10.0000224306345,-49.2498895290322));
#381=CARTESIAN_POINT('',(8.00000000004358,10.4283251375019,-47.1404986977187));
#382=CARTESIAN_POINT('',(7.16562708688305,10.842219536829,-45.102068781041));
#383=CARTESIAN_POINT('',(5.65662312930927,11.148621631203,-43.593038466255));
#384=CARTESIAN_POINT('',(4.16533914533862,11.4514256985493,-42.1017284345804));
#385=CARTESIAN_POINT('',(2.13430710325176,11.6244422386265,-41.2496219747033));
#386=CARTESIAN_POINT('',(3.7495524314266E-11,11.6247851771761,-41.2479330023465));
#387=CARTESIAN_POINT('',(-39.3636363635911,22.0304568528206,10.));
#388=CARTESIAN_POINT('',(-39.3636363635911,-22.0304568528103,9.99999999999998));
#389=CARTESIAN_POINT('',(39.3636363635918,-22.0304568528108,10.));
#390=CARTESIAN_POINT('',(-39.3636363635911,-22.0304568528103,9.99999999999998));
#391=CARTESIAN_POINT('',(-39.3636363635911,-22.0304568528103,9.99999999999998));
#392=CARTESIAN_POINT('',(-39.3636363635949,-5.09364402508557E-11,-98.4999999999604));
#393=CARTESIAN_POINT('',(39.3636363635881,-5.09364402508557E-11,-98.4999999999632));
#394=CARTESIAN_POINT('',(39.3636363635918,-22.0304568528108,10.));
#395=CARTESIAN_POINT('',(4.27091999666915E-11,-8.37563451780298,-57.2499999999872));
#396=CARTESIAN_POINT('',(-2.13447354223874,-8.37562967255623,-57.2500238628272));
#397=CARTESIAN_POINT('',(-4.1656173889068,-8.54860151669425,-56.3981375304465));
#398=CARTESIAN_POINT('',(-5.65689040167442,-8.851405309969,-54.9068288485666));
#399=CARTESIAN_POINT('',(-7.16591170830362,-9.1578129039291,-53.3977714483114));
#400=CARTESIAN_POINT('',(-7.99999999995905,-9.57172336745208,-51.3592624154584));
#401=CARTESIAN_POINT('',(-7.99999999995813,-10.000017674959,-49.2499129509844));
#402=CARTESIAN_POINT('',(-7.9999999999572,-10.4283182474082,-47.14053263167));
#403=CARTESIAN_POINT('',(-7.16568160314186,-10.8422149341499,-45.1020914494647));
#404=CARTESIAN_POINT('',(-5.65667213242647,-11.1486170123851,-43.5930612141548));
#405=CARTESIAN_POINT('',(-4.1653641627326,-11.451424827757,-42.1017327234464));
#406=CARTESIAN_POINT('',(-2.13430400384876,-11.6244254368574,-41.249704723626));
#407=CARTESIAN_POINT('',(3.89064715264549E-11,-11.624785177219,-41.2479330023453));
#408=CARTESIAN_POINT('',(3.89064715264549E-11,-11.624785177219,-41.2479330023453));
#409=CARTESIAN_POINT('',(2.13430710325278,-11.6244422386694,-41.2496219747021));
#410=CARTESIAN_POINT('',(4.16533914533967,-11.4514256985931,-42.1017284345791));
#411=CARTESIAN_POINT('',(5.65662312931037,-11.1486216312483,-43.5930384662538));
#412=CARTESIAN_POINT('',(7.16562708688406,-10.8422195368759,-45.1020687810398));
#413=CARTESIAN_POINT('',(8.00000000004461,-10.4283251375509,-47.1404986977175));
#414=CARTESIAN_POINT('',(8.00000000004279,-10.0000224306857,-49.2498895290311));
#415=CARTESIAN_POINT('',(8.00000000004276,-9.57172767344341,-51.3592412084517));
#416=CARTESIAN_POINT('',(7.16591911455415,-9.15781579229012,-53.3977572231339));
#417=CARTESIAN_POINT('',(5.65690012912158,-8.8514066977012,-54.9068220139859));
#418=CARTESIAN_POINT('',(4.16562772371337,-8.54860107899285,-56.3981396861262));
#419=CARTESIAN_POINT('',(2.13448035178273,-8.37562836880946,-57.2500302837802));
#420=CARTESIAN_POINT('',(4.27091999666915E-11,-8.37563451780298,-57.2499999999872));
#421=CARTESIAN_POINT('',(39.3636363635918,22.0304568528211,9.99999999999995));
#422=CARTESIAN_POINT('',(39.3636363635918,-22.0304568528108,10.));
#423=CARTESIAN_POINT('',(0.,0.,0.));
ENDSEC;
END-ISO-10303-21;
