# Rhino

mtllib wedge.mtl
usemtl Default
v 1.7784316539764404 2.720238208770752 -69.69537353515625
v 2.2980971336364746 2.2980997562408447 -69.69537353515625
v 2.7202353477478027 1.7784343957901001 -69.69537353515625
v 3.0218119621276855 1.1963105201721191 -69.69537353515625
v 3.25 2.7435326046543196E-06 -69.69537353515625
v 3.0218119621276855 -1.1963050365447998 -69.69537353515625
v 2.7202353477478027 -1.7784289121627808 -69.69537353515625
v 2.2980971336364746 -2.2980942726135254 -69.69537353515625
v 1.7784316539764404 -2.7202327251434326 -69.69537353515625
v 1.1963077783584595 -3.0218093395233154 -69.69537353515625
v 0 -3.2499971389770508 -69.69537353515625
v 0 -3.2499971389770508 -73.19537353515625
v 0 3.2500028610229492 -76.69537353515625
v 1.1963077783584595 3.0218148231506348 -74.94537353515625
v 2.2980971336364746 2.2980997562408447 -74.94537353515625
v 2.7202353477478027 1.7784343957901001 -74.94537353515625
v 3.0218119621276855 1.1963105201721191 -74.94537353515625
v 3.25 2.7435467018221971E-06 -74.94537353515625
v 3.0218119621276855 -1.1963050365447998 -74.94537353515625
v 2.7202353477478027 -1.7784289121627808 -74.94537353515625
v 2.2980971336364746 -2.2980942726135254 -74.94537353515625
v 1.7784316539764404 -2.7202327251434326 -74.94537353515625
v 1.1963077783584595 -3.0218093395233154 -74.94537353515625
v -39.363636016845703 2.0304651260375977 -88.499916076660156
v -39.363636016845703 20.000001907348633 0
v -11.363636016845703 -16.181812286376953 -18.804546356201172
v 11.363636016845703 16.181818008422852 -18.804546356201172
v 39.363636016845703 20.000001907348633 0
v 39.363636016845703 2.0304651260375977 -88.499916076660156
v 11.363636016845703 14.72727108001709 -25.968181610107422
v -11.363636016845703 16.181818008422852 -18.804546356201172
v -11.363636016845703 14.72727108001709 -25.968181610107422
v 4.1999998092651367 16.181818008422852 -18.804546356201172
v -4.1999998092651367 16.181818008422852 -18.804546356201172
v -39.363636016845703 -2.0304594039916992 -88.499916076660156
v 39.363636016845703 -19.999998092651367 0
v 39.363636016845703 -2.0304594039916992 -88.499916076660156
v -39.363636016845703 -19.999998092651367 0
v 11.363636016845703 -14.727265357971191 -25.968181610107422
v 11.363636016845703 -16.181812286376953 -18.804546356201172
v -11.363636016845703 -14.727265357971191 -25.968181610107422
v 4.1999998092651367 -16.181812286376953 -18.804546356201172
v -4.1999998092651367 -16.181812286376953 -18.804546356201172
v -1.7784316539764404 2.720238208770752 -18.804546356201172
v -1.1963077783584595 -3.0218093395233154 -9.4022731781005859
v -2.2980971336364746 -2.2980942726135254 -9.4022731781005859
v -2.7202353477478027 -1.7784289121627808 -9.4022731781005859
v -3.0218119621276855 -1.1963050365447998 -9.4022731781005859
v -3.25 2.7435098672867753E-06 -9.4022731781005859
v -3.0218119621276855 1.1963105201721191 -9.4022731781005859
v -2.7202353477478027 1.7784343957901001 -9.4022731781005859
v -2.2980971336364746 2.2980997562408447 -9.4022731781005859
v -1.7784316539764404 2.720238208770752 -9.4022731781005859
v -1.1963077783584595 3.0218148231506348 -9.4022731781005859
v -0.79316973686218262 3.1517295837402344 -9.4022731781005859
v 2.2980971336364746 2.2980997562408447 -18.804546356201172
v 2.7202353477478027 1.7784343957901001 -18.804546356201172
v 3.0218119621276855 1.1963105201721191 -18.804546356201172
v 0 -3.2499971389770508 -6.2681818008422852
v 0 -3.2499971389770508 -12.53636360168457
v 0 3.2500028610229492 -12.53636360168457
v 0 3.2500028610229492 -6.2681818008422852
v 1.1963077783584595 3.0218148231506348 -9.4022731781005859
v 2.2980971336364746 2.2980997562408447 -9.4022731781005859
v 2.7202353477478027 1.7784343957901001 -9.4022731781005859
v 3.0218119621276855 1.1963105201721191 -9.4022731781005859
v 3.25 2.7435294214228634E-06 -9.4022731781005859
v 3.0218119621276855 -1.1963050365447998 -9.4022731781005859
v 2.7202353477478027 -1.7784289121627808 -9.4022731781005859
v 2.2980971336364746 -2.2980942726135254 -9.4022731781005859
v 1.7784316539764404 -2.7202327251434326 -9.4022731781005859
v 1.1963077783584595 -3.0218093395233154 -9.4022731781005859
v 0.79316973686218262 -3.151724100112915 -9.4022731781005859
v 0 -3.2499971389770508 0
v -1.1963077783584595 -3.0218093395233154 0
v -1.7784316539764404 -2.7202327251434326 0
v -2.2980971336364746 -2.2980942726135254 0
v -2.7202353477478027 -1.7784289121627808 0
v -3.0218119621276855 -1.1963050365447998 0
v -3.25 2.7435116862761788E-06 0
v -3.0218119621276855 1.1963105201721191 0
v -2.7202353477478027 1.7784343957901001 0
v -2.2980971336364746 2.2980997562408447 0
v -1.7784316539764404 2.720238208770752 0
v -1.1963077783584595 3.0218148231506348 0
v 0 3.2500028610229492 0
v 1.1963077783584595 3.0218148231506348 0
v 1.7784316539764404 2.720238208770752 0
v 2.2980971336364746 2.2980997562408447 0
v 2.7202353477478027 1.7784343957901001 0
v 3.0218119621276855 1.1963105201721191 0
v 3.25 2.7435144147602841E-06 0
v 3.0218119621276855 -1.1963050365447998 0
v 2.7202353477478027 -1.7784289121627808 0
v 2.2980971336364746 -2.2980942726135254 0
v 1.7784316539764404 -2.7202327251434326 0
v 1.1963077783584595 -3.0218093395233154 0
v -11.363636016845703 5.8486461639404297 -69.69537353515625
v 11.363636016845703 -5.8486409187316895 -69.69537353515625
v -11.363636016845703 -5.8486409187316895 -69.69537353515625
v 1.1963077783584595 3.0218148231506348 -69.69537353515625
v 0 3.2500028610229492 -69.69537353515625
v 11.363636016845703 5.8486461639404297 -69.69537353515625
v -2.2980971336364746 2.2980997562408447 -69.69537353515625
v -2.7202353477478027 1.7784343957901001 -69.69537353515625
v -3.25 2.7435326046543196E-06 -69.69537353515625
v -3.0218119621276855 -1.1963050365447998 -69.69537353515625
v -2.2980971336364746 -2.2980942726135254 -69.69537353515625
v -1.7784316539764404 -2.7202327251434326 -69.69537353515625
v 0 3.2500028610229492 -18.804546356201172
v -2.2980971336364746 2.2980997562408447 -18.804546356201172
v -2.7202353477478027 1.7784343957901001 -18.804546356201172
v -3.0218119621276855 1.1963105201721191 -18.804546356201172
v -3.25 2.7435080482973717E-06 -18.804546356201172
v -3.0218119621276855 -1.1963050365447998 -18.804546356201172
v -2.7202353477478027 -1.7784289121627808 -18.804546356201172
v -2.2980971336364746 -2.2980942726135254 -18.804546356201172
v -1.7784316539764404 -2.7202327251434326 -18.804546356201172
v -1.1963077783584595 -3.0218093395233154 -18.804546356201172
v 0 -3.2499971389770508 -18.804546356201172
v 1.1963077783584595 -3.0218093395233154 -18.804546356201172
v 1.7784316539764404 -2.7202327251434326 -18.804546356201172
v 2.2980971336364746 -2.2980942726135254 -18.804546356201172
v 2.7202353477478027 -1.7784289121627808 -18.804546356201172
v 3.0218119621276855 -1.1963050365447998 -18.804546356201172
v 3.25 2.7435444280854426E-06 -18.804546356201172
v 1.7784316539764404 2.720238208770752 -18.804546356201172
v 1.1963077783584595 3.0218148231506348 -18.804546356201172
v -1.1963077783584595 3.0218148231506348 -69.69537353515625
v -1.7784316539764404 2.720238208770752 -69.69537353515625
v -3.0218119621276855 1.1963105201721191 -69.69537353515625
v -2.7202353477478027 -1.7784289121627808 -69.69537353515625
v -1.1963077783584595 -3.0218093395233154 -69.69537353515625
v 0 -3.2499971389770508 -76.69537353515625
v 0 3.2500028610229492 -73.19537353515625
v -1.1963077783584595 3.0218148231506348 -74.94537353515625
v -2.2980971336364746 2.2980997562408447 -74.94537353515625
v -2.7202353477478027 1.7784343957901001 -74.94537353515625
v -3.0218119621276855 1.1963105201721191 -74.94537353515625
v -3.25 2.7435467018221971E-06 -74.94537353515625
v -3.0218119621276855 -1.1963050365447998 -74.94537353515625
v -2.7202353477478027 -1.7784289121627808 -74.94537353515625
v -2.2980971336364746 -2.2980942726135254 -74.94537353515625
v -1.7784316539764404 -2.7202327251434326 -74.94537353515625
v -1.1963077783584595 -3.0218093395233154 -74.94537353515625
v 0 -3.2499971389770508 -80.19537353515625
v 1.1963077783584595 -3.0218093395233154 -80.19537353515625
v 1.7784316539764404 -2.7202327251434326 -80.19537353515625
v 2.2980971336364746 -2.2980942726135254 -80.19537353515625
v 2.7202353477478027 -1.7784289121627808 -80.19537353515625
v 3.0218119621276855 -1.1963050365447998 -80.19537353515625
v 3.25 2.7435607989900745E-06 -80.19537353515625
v 3.0218119621276855 1.1963105201721191 -80.19537353515625
v 2.7202353477478027 1.7784343957901001 -80.19537353515625
v 2.2980971336364746 2.2980997562408447 -80.19537353515625
v 1.7784316539764404 2.720238208770752 -80.19537353515625
v 1.1963077783584595 3.0218148231506348 -80.19537353515625
v 0 3.2500028610229492 -80.19537353515625
v -1.1963077783584595 3.0218148231506348 -80.19537353515625
v -1.7784316539764404 2.720238208770752 -80.19537353515625
v -2.2980971336364746 2.2980997562408447 -80.19537353515625
v -2.7202353477478027 1.7784343957901001 -80.19537353515625
v -3.0218119621276855 1.1963105201721191 -80.19537353515625
v -3.25 2.7435607989900745E-06 -80.19537353515625
v -3.0218119621276855 -1.1963050365447998 -80.19537353515625
v -2.7202353477478027 -1.7784289121627808 -80.19537353515625
v -2.2980971336364746 -2.2980942726135254 -80.19537353515625
v -1.7784316539764404 -2.7202327251434326 -80.19537353515625
v -1.1963077783584595 -3.0218093395233154 -80.19537353515625
f 135 14 101 102
f 1 101 14
f 15 1 14
f 13 14 135
f 15 16 3 2
f 4 3 16 17
f 5 4 17 18
f 1 15 2
f 156 15 14
f 157 13 158
f 14 157 156
f 15 156 155
f 14 13 157
f 17 16 154 153
f 153 152 18 17
f 16 15 155 154
f 18 19 6 5
f 7 6 19 20
f 20 21 8 7
f 20 19 151 150
f 152 151 19 18
f 9 8 21 22
f 10 9 22 23
f 11 10 23 12
f 21 20 150 149
f 149 148 22 21
f 147 146 134 23
f 12 23 134
f 23 22 148 147
f 37 35 24 29
f 37 29 28
f 28 36 37
f 25 35 38
f 35 25 24
f 41 32 31 26
f 100 98 32 41
f 39 40 27 30
f 99 39 30 103
f 31 25 34
f 28 34 25
f 32 25 31
f 98 24 32
f 25 32 24
f 103 24 98
f 27 33 28
f 34 28 33
f 30 27 28
f 29 103 30
f 28 29 30
f 24 103 29
f 26 43 38
f 38 43 42 36
f 41 26 38
f 100 41 35
f 38 35 41
f 37 100 35
f 40 36 42
f 39 36 40
f 99 37 39
f 36 39 37
f 100 37 99
f 59 75 74
f 59 45 75
f 76 75 45
f 46 77 76 45
f 60 45 59
f 46 47 78 77
f 79 78 47 48
f 80 79 48 49
f 45 118 117 46
f 120 119 45 60
f 45 119 118
f 48 47 116 115
f 115 114 49 48
f 47 46 117 116
f 49 50 81 80
f 82 81 50 51
f 51 52 83 82
f 51 50 113 112
f 114 113 50 49
f 84 83 52 53
f 85 84 53 54
f 85 55 86
f 86 55 62
f 52 51 112 111
f 111 44 53 52
f 44 55 54
f 85 54 55
f 44 110 55
f 61 55 110
f 61 62 55
f 53 44 54
f 62 63 87 86
f 88 87 63
f 64 88 63
f 61 63 62
f 64 65 90 89
f 91 90 65 66
f 92 91 66 67
f 88 64 89
f 127 64 63
f 128 61 110
f 63 128 127
f 64 127 56
f 63 61 128
f 66 65 57 58
f 58 126 67 66
f 65 64 56 57
f 67 68 93 92
f 94 93 68 69
f 69 70 95 94
f 69 68 125 124
f 126 125 68 67
f 96 95 70 71
f 97 96 71 72
f 97 73 74
f 74 73 59
f 70 69 124 123
f 123 122 71 70
f 73 72 121
f 97 72 73
f 59 73 60
f 60 73 120
f 72 71 122 121
f 73 121 120
f 86 25 85
f 84 85 25
f 28 25 86
f 25 81 82
f 25 83 84
f 25 82 83
f 81 25 80
f 88 28 87
f 86 87 28
f 89 28 88
f 28 89 90
f 28 91 92
f 28 90 91
f 36 28 92
f 38 79 80
f 38 78 79
f 76 77 38
f 78 38 77
f 38 75 76
f 75 38 74
f 38 80 25
f 36 94 95
f 36 93 94
f 36 97 74
f 95 96 36
f 97 36 96
f 36 74 38
f 92 93 36
f 101 1 103
f 2 103 1
f 102 101 103
f 103 4 5
f 103 2 3
f 103 3 4
f 5 99 103
f 129 102 98
f 103 98 102
f 130 129 98
f 98 104 130
f 98 131 105
f 98 105 104
f 106 131 98
f 99 6 7
f 99 7 8
f 10 99 9
f 8 9 99
f 99 10 11
f 11 100 99
f 99 5 6
f 100 132 107
f 100 107 106
f 100 133 109
f 132 100 108
f 109 108 100
f 100 11 133
f 98 100 106
f 113 114 31
f 34 112 31
f 26 31 114
f 34 44 111
f 31 112 113
f 34 111 112
f 26 115 116
f 116 43 26
f 43 116 117
f 114 115 26
f 43 117 118
f 43 119 120
f 43 118 119
f 42 43 120
f 110 44 34
f 33 128 110
f 33 56 127
f 127 128 33
f 57 33 27
f 27 58 57
f 58 27 126
f 56 33 57
f 33 110 34
f 42 123 124
f 42 121 122
f 122 123 42
f 40 125 126
f 40 42 124
f 40 126 27
f 125 40 124
f 120 121 42
f 135 102 129 136
f 130 136 129
f 137 136 130
f 13 135 136
f 137 104 105 138
f 131 139 138 105
f 106 140 139 131
f 130 104 137
f 160 136 137
f 159 158 13
f 136 160 159
f 137 161 160
f 136 159 13
f 139 163 162 138
f 163 139 140 164
f 138 162 161 137
f 140 106 107 141
f 132 142 141 107
f 142 132 108 143
f 142 166 165 141
f 164 140 141 165
f 109 144 143 108
f 133 145 144 109
f 11 12 145 133
f 143 167 166 142
f 167 143 144 168
f 169 145 134 146
f 12 134 145
f 145 169 168 144
f 166 150 151 165
f 167 149 150 166
f 148 168 169 147
f 149 167 168 148
f 165 151 152 164
f 163 164 158
f 162 163 158
f 162 158 161
f 160 161 158
f 159 160 158
f 147 169 146
f 164 152 153
f 157 158 156
f 155 156 158
f 155 158 154
f 153 154 158
f 158 164 153
