# Rhino

mtllib wedge_minimal.mtl
usemtl Default
v 78.727272033691406 44.0609130859375 20
v 78.727272033691406 -44.0609130859375 20
v -78.727272033691406 44.0609130859375 20
v -78.727272033691406 0 -197
v -78.727272033691406 -44.0609130859375 20
v 78.727272033691406 0 -197
f 2 1 3
f 1 6 4
f 6 2 5
f 2 3 5
f 1 4 3
f 6 5 4
f 3 4 5
f 1 2 6
usemtl Default
v 0 -80.000000010059338 -98.497933002329162
v 0 79.99999998994187 -98.497933002338101
cstype bspline
deg 1
curv 0 80.000000000000597 7 8
parm u 0 0 80.000000000000597 80.000000000000597
end
