ISO-10303-21;
HEADER;
/* Generated by software containing ST-Developer
 * from STEP Tools, Inc. (www.steptools.com) 
 */
/* OPTION: using custom schema-name function */

FILE_DESCRIPTION(
/* description */ (''),
/* implementation_level */ '2;1');

FILE_NAME(
/* name */ 'wedge',
/* time_stamp */ '2026-05-20T14:48:39+02:00',
/* author */ (''),
/* organization */ (''),
/* preprocessor_version */ 'ST-DEVELOPER v19.2',
/* originating_system */ 'Rhino 8.31',
/* authorisation */ '');

FILE_SCHEMA (('CONFIG_CONTROL_DESIGN'));
ENDSEC;

DATA;
#10=SHAPE_REPRESENTATION_RELATIONSHIP('','',#346,#12);
#11=MANIFOLD_SOLID_BREP('brep_2',#13);
#12=ADVANCED_BREP_SHAPE_REPRESENTATION('brep_rep_0',(#11,#371),#345);
#13=CLOSED_SHELL('',(#19,#20,#21,#22,#23,#24,#25,#26,#27,#28,#29,#30,#31,
#32,#33));
#14=FACE_BOUND('',#56,.T.);
#15=FACE_BOUND('',#58,.T.);
#16=FACE_BOUND('',#62,.T.);
#17=FACE_BOUND('',#64,.T.);
#18=FACE_BOUND('',#66,.T.);
#19=ADVANCED_FACE('',(#34),#256,.F.);
#20=ADVANCED_FACE('',(#35),#245,.T.);
#21=ADVANCED_FACE('',(#36),#246,.T.);
#22=ADVANCED_FACE('',(#37),#247,.T.);
#23=ADVANCED_FACE('',(#38),#248,.T.);
#24=ADVANCED_FACE('',(#39),#249,.T.);
#25=ADVANCED_FACE('',(#40,#14),#250,.T.);
#26=ADVANCED_FACE('',(#41,#15),#251,.T.);
#27=ADVANCED_FACE('',(#42),#257,.F.);
#28=ADVANCED_FACE('',(#43),#258,.F.);
#29=ADVANCED_FACE('',(#44,#16),#252,.T.);
#30=ADVANCED_FACE('',(#45,#17),#253,.T.);
#31=ADVANCED_FACE('',(#46,#18),#254,.T.);
#32=ADVANCED_FACE('',(#47),#259,.F.);
#33=ADVANCED_FACE('',(#48),#255,.T.);
#34=FACE_OUTER_BOUND('',#49,.T.);
#35=FACE_OUTER_BOUND('',#50,.T.);
#36=FACE_OUTER_BOUND('',#51,.T.);
#37=FACE_OUTER_BOUND('',#52,.T.);
#38=FACE_OUTER_BOUND('',#53,.T.);
#39=FACE_OUTER_BOUND('',#54,.T.);
#40=FACE_OUTER_BOUND('',#55,.T.);
#41=FACE_OUTER_BOUND('',#57,.T.);
#42=FACE_OUTER_BOUND('',#59,.T.);
#43=FACE_OUTER_BOUND('',#60,.T.);
#44=FACE_OUTER_BOUND('',#61,.T.);
#45=FACE_OUTER_BOUND('',#63,.T.);
#46=FACE_OUTER_BOUND('',#65,.T.);
#47=FACE_OUTER_BOUND('',#67,.T.);
#48=FACE_OUTER_BOUND('',#68,.T.);
#49=EDGE_LOOP('',(#69,#70,#71,#72));
#50=EDGE_LOOP('',(#73,#74,#75,#76));
#51=EDGE_LOOP('',(#77,#78,#79,#80));
#52=EDGE_LOOP('',(#81,#82,#83,#84));
#53=EDGE_LOOP('',(#85,#86,#87,#88));
#54=EDGE_LOOP('',(#89,#90,#91,#92));
#55=EDGE_LOOP('',(#93,#94,#95,#96));
#56=EDGE_LOOP('',(#97,#98,#99,#100));
#57=EDGE_LOOP('',(#101,#102,#103,#104));
#58=EDGE_LOOP('',(#105,#106,#107,#108));
#59=EDGE_LOOP('',(#109,#110,#111,#112));
#60=EDGE_LOOP('',(#113,#114,#115,#116));
#61=EDGE_LOOP('',(#117,#118,#119,#120));
#62=EDGE_LOOP('',(#121,#122));
#63=EDGE_LOOP('',(#123,#124,#125,#126));
#64=EDGE_LOOP('',(#127,#128));
#65=EDGE_LOOP('',(#129,#130,#131,#132));
#66=EDGE_LOOP('',(#133,#134));
#67=EDGE_LOOP('',(#135,#136,#137,#138));
#68=EDGE_LOOP('',(#139,#140));
#69=ORIENTED_EDGE('',*,*,#144,.F.);
#70=ORIENTED_EDGE('',*,*,#142,.T.);
#71=ORIENTED_EDGE('',*,*,#141,.F.);
#72=ORIENTED_EDGE('',*,*,#143,.T.);
#73=ORIENTED_EDGE('',*,*,#146,.T.);
#74=ORIENTED_EDGE('',*,*,#148,.T.);
#75=ORIENTED_EDGE('',*,*,#145,.T.);
#76=ORIENTED_EDGE('',*,*,#147,.T.);
#77=ORIENTED_EDGE('',*,*,#151,.F.);
#78=ORIENTED_EDGE('',*,*,#150,.T.);
#79=ORIENTED_EDGE('',*,*,#147,.F.);
#80=ORIENTED_EDGE('',*,*,#149,.F.);
#81=ORIENTED_EDGE('',*,*,#154,.F.);
#82=ORIENTED_EDGE('',*,*,#155,.T.);
#83=ORIENTED_EDGE('',*,*,#148,.F.);
#84=ORIENTED_EDGE('',*,*,#156,.F.);
#85=ORIENTED_EDGE('',*,*,#166,.T.);
#86=ORIENTED_EDGE('',*,*,#158,.F.);
#87=ORIENTED_EDGE('',*,*,#164,.F.);
#88=ORIENTED_EDGE('',*,*,#161,.F.);
#89=ORIENTED_EDGE('',*,*,#162,.T.);
#90=ORIENTED_EDGE('',*,*,#163,.F.);
#91=ORIENTED_EDGE('',*,*,#157,.F.);
#92=ORIENTED_EDGE('',*,*,#165,.T.);
#93=ORIENTED_EDGE('',*,*,#152,.T.);
#94=ORIENTED_EDGE('',*,*,#149,.T.);
#95=ORIENTED_EDGE('',*,*,#145,.F.);
#96=ORIENTED_EDGE('',*,*,#155,.F.);
#97=ORIENTED_EDGE('',*,*,#163,.T.);
#98=ORIENTED_EDGE('',*,*,#167,.F.);
#99=ORIENTED_EDGE('',*,*,#164,.T.);
#100=ORIENTED_EDGE('',*,*,#160,.F.);
#101=ORIENTED_EDGE('',*,*,#156,.T.);
#102=ORIENTED_EDGE('',*,*,#146,.F.);
#103=ORIENTED_EDGE('',*,*,#150,.F.);
#104=ORIENTED_EDGE('',*,*,#153,.T.);
#105=ORIENTED_EDGE('',*,*,#159,.T.);
#106=ORIENTED_EDGE('',*,*,#166,.F.);
#107=ORIENTED_EDGE('',*,*,#168,.F.);
#108=ORIENTED_EDGE('',*,*,#165,.F.);
#109=ORIENTED_EDGE('',*,*,#170,.F.);
#110=ORIENTED_EDGE('',*,*,#171,.F.);
#111=ORIENTED_EDGE('',*,*,#172,.F.);
#112=ORIENTED_EDGE('',*,*,#169,.F.);
#113=ORIENTED_EDGE('',*,*,#173,.F.);
#114=ORIENTED_EDGE('',*,*,#170,.T.);
#115=ORIENTED_EDGE('',*,*,#174,.F.);
#116=ORIENTED_EDGE('',*,*,#172,.T.);
#117=ORIENTED_EDGE('',*,*,#152,.F.);
#118=ORIENTED_EDGE('',*,*,#154,.T.);
#119=ORIENTED_EDGE('',*,*,#153,.F.);
#120=ORIENTED_EDGE('',*,*,#151,.T.);
#121=ORIENTED_EDGE('',*,*,#174,.T.);
#122=ORIENTED_EDGE('',*,*,#169,.T.);
#123=ORIENTED_EDGE('',*,*,#157,.T.);
#124=ORIENTED_EDGE('',*,*,#160,.T.);
#125=ORIENTED_EDGE('',*,*,#158,.T.);
#126=ORIENTED_EDGE('',*,*,#159,.F.);
#127=ORIENTED_EDGE('',*,*,#175,.T.);
#128=ORIENTED_EDGE('',*,*,#141,.T.);
#129=ORIENTED_EDGE('',*,*,#167,.T.);
#130=ORIENTED_EDGE('',*,*,#162,.F.);
#131=ORIENTED_EDGE('',*,*,#168,.T.);
#132=ORIENTED_EDGE('',*,*,#161,.T.);
#133=ORIENTED_EDGE('',*,*,#173,.T.);
#134=ORIENTED_EDGE('',*,*,#171,.T.);
#135=ORIENTED_EDGE('',*,*,#143,.F.);
#136=ORIENTED_EDGE('',*,*,#175,.F.);
#137=ORIENTED_EDGE('',*,*,#142,.F.);
#138=ORIENTED_EDGE('',*,*,#176,.T.);
#139=ORIENTED_EDGE('',*,*,#176,.F.);
#140=ORIENTED_EDGE('',*,*,#144,.T.);
#141=EDGE_CURVE('',#222,#221,#205,.T.);
#142=EDGE_CURVE('',#223,#221,#201,.T.);
#143=EDGE_CURVE('',#222,#224,#202,.T.);
#144=EDGE_CURVE('',#223,#224,#206,.T.);
#145=EDGE_CURVE('',#227,#228,#177,.T.);
#146=EDGE_CURVE('',#225,#226,#178,.T.);
#147=EDGE_CURVE('',#228,#225,#179,.T.);
#148=EDGE_CURVE('',#226,#227,#180,.T.);
#149=EDGE_CURVE('',#229,#228,#181,.T.);
#150=EDGE_CURVE('',#230,#225,#182,.T.);
#151=EDGE_CURVE('',#230,#229,#183,.T.);
#152=EDGE_CURVE('',#231,#229,#184,.T.);
#153=EDGE_CURVE('',#230,#232,#185,.T.);
#154=EDGE_CURVE('',#231,#232,#186,.T.);
#155=EDGE_CURVE('',#231,#227,#187,.T.);
#156=EDGE_CURVE('',#232,#226,#188,.T.);
#157=EDGE_CURVE('',#237,#235,#189,.T.);
#158=EDGE_CURVE('',#236,#238,#190,.T.);
#159=EDGE_CURVE('',#237,#238,#191,.T.);
#160=EDGE_CURVE('',#235,#236,#192,.T.);
#161=EDGE_CURVE('',#239,#233,#193,.T.);
#162=EDGE_CURVE('',#240,#234,#194,.T.);
#163=EDGE_CURVE('',#235,#234,#195,.T.);
#164=EDGE_CURVE('',#233,#236,#196,.T.);
#165=EDGE_CURVE('',#237,#240,#197,.T.);
#166=EDGE_CURVE('',#239,#238,#198,.T.);
#167=EDGE_CURVE('',#233,#234,#199,.T.);
#168=EDGE_CURVE('',#240,#239,#200,.T.);
#169=EDGE_CURVE('',#241,#242,#207,.T.);
#170=EDGE_CURVE('',#243,#241,#203,.T.);
#171=EDGE_CURVE('',#244,#243,#208,.T.);
#172=EDGE_CURVE('',#242,#244,#204,.T.);
#173=EDGE_CURVE('',#243,#244,#209,.T.);
#174=EDGE_CURVE('',#242,#241,#210,.T.);
#175=EDGE_CURVE('',#221,#222,#211,.T.);
#176=EDGE_CURVE('',#223,#224,#212,.T.);
#177=B_SPLINE_CURVE_WITH_KNOTS('',1,(#457,#458),.UNSPECIFIED.,.F.,.F.,(2,
2),(-73.5311407885692,-5.19612669021669),.UNSPECIFIED.);
#178=B_SPLINE_CURVE_WITH_KNOTS('',1,(#459,#460),.UNSPECIFIED.,.F.,.F.,(2,
2),(5.19612669021899,73.5311407885689),.UNSPECIFIED.);
#179=B_SPLINE_CURVE_WITH_KNOTS('',1,(#461,#462),.UNSPECIFIED.,.F.,.F.,(2,
2),(-2.54894941767175,-1.51233943714584),.UNSPECIFIED.);
#180=B_SPLINE_CURVE_WITH_KNOTS('',1,(#463,#464),.UNSPECIFIED.,.F.,.F.,(2,
2),(1.51233943713979,2.54894941767437),.UNSPECIFIED.);
#181=B_SPLINE_CURVE_WITH_KNOTS('',1,(#465,#466),.UNSPECIFIED.,.F.,.F.,(2,
2),(26.7951984623783,49.5501475037028),.UNSPECIFIED.);
#182=B_SPLINE_CURVE_WITH_KNOTS('',1,(#467,#468),.UNSPECIFIED.,.F.,.F.,(2,
2),(26.7951978940807,49.5501464395944),.UNSPECIFIED.);
#183=B_SPLINE_CURVE_WITH_KNOTS('',1,(#469,#470),.UNSPECIFIED.,.F.,.F.,(2,
2),(-33.7749194806931,0.969948794888891),.UNSPECIFIED.);
#184=B_SPLINE_CURVE_WITH_KNOTS('',1,(#471,#472),.UNSPECIFIED.,.F.,.F.,(2,
2),(1.86162196769146E-12,78.7272727271873),.UNSPECIFIED.);
#185=B_SPLINE_CURVE_WITH_KNOTS('',1,(#473,#474),.UNSPECIFIED.,.F.,.F.,(2,
2),(5.09455542385422E-12,78.7272727271881),.UNSPECIFIED.);
#186=B_SPLINE_CURVE_WITH_KNOTS('',1,(#475,#476),.UNSPECIFIED.,.F.,.F.,(2,
2),(-0.969948794897538,33.7749194807086),.UNSPECIFIED.);
#187=B_SPLINE_CURVE_WITH_KNOTS('',1,(#477,#478),.UNSPECIFIED.,.F.,.F.,(2,
2),(26.7951984623815,49.550147503702),.UNSPECIFIED.);
#188=B_SPLINE_CURVE_WITH_KNOTS('',1,(#479,#480),.UNSPECIFIED.,.F.,.F.,(2,
2),(26.795197894078,49.55014643959),.UNSPECIFIED.);
#189=B_SPLINE_CURVE_WITH_KNOTS('',1,(#481,#482),.UNSPECIFIED.,.F.,.F.,(2,
2),(-19.95511146258,-13.8158105411141),.UNSPECIFIED.);
#190=B_SPLINE_CURVE_WITH_KNOTS('',1,(#483,#484),.UNSPECIFIED.,.F.,.F.,(2,
2),(13.8158105411143,19.9551114625812),.UNSPECIFIED.);
#191=B_SPLINE_CURVE_WITH_KNOTS('',1,(#485,#486),.UNSPECIFIED.,.F.,.F.,(2,
2),(0.,22.7272727271884),.UNSPECIFIED.);
#192=B_SPLINE_CURVE_WITH_KNOTS('',1,(#487,#488),.UNSPECIFIED.,.F.,.F.,(2,
2),(0.,22.7272727271884),.UNSPECIFIED.);
#193=B_SPLINE_CURVE_WITH_KNOTS('',1,(#489,#490),.UNSPECIFIED.,.F.,.F.,(2,
2),(0.,32.3636300274611),.UNSPECIFIED.);
#194=B_SPLINE_CURVE_WITH_KNOTS('',1,(#491,#492),.UNSPECIFIED.,.F.,.F.,(2,
2),(0.,32.3636300274611),.UNSPECIFIED.);
#195=B_SPLINE_CURVE_WITH_KNOTS('',1,(#493,#494,#495),.UNSPECIFIED.,.F.,
 .F.,(2,1,2),(-51.9292859820088,-7.30981476787538,-2.01658791316403),
 .UNSPECIFIED.);
#196=B_SPLINE_CURVE_WITH_KNOTS('',1,(#496,#497,#498),.UNSPECIFIED.,.F.,
 .F.,(2,1,2),(27.1285660607036,32.2801352200495,76.8996064341827),
 .UNSPECIFIED.);
#197=B_SPLINE_CURVE_WITH_KNOTS('',1,(#499,#500,#501),.UNSPECIFIED.,.F.,
 .F.,(2,1,2),(-71.1175497476947,-26.4980785335623,-21.2048516788509),
 .UNSPECIFIED.);
#198=B_SPLINE_CURVE_WITH_KNOTS('',1,(#502,#503,#504),.UNSPECIFIED.,.F.,
 .F.,(2,1,2),(27.1285660607036,32.2801352200495,76.899606434183),
 .UNSPECIFIED.);
#199=B_SPLINE_CURVE_WITH_KNOTS('',1,(#505,#506,#507,#508),.UNSPECIFIED.,
 .F.,.F.,(2,1,1,2),(-49.9224763297012,-45.3430531785507,-36.9430531786129,
-32.3636300274611),.UNSPECIFIED.);
#200=B_SPLINE_CURVE_WITH_KNOTS('',1,(#509,#510,#511,#512),.UNSPECIFIED.,
 .F.,.F.,(2,1,1,2),(1.93594751785148,6.51537066900332,14.9153706689411,
19.4947938200916),.UNSPECIFIED.);
#201=(
BOUNDED_CURVE()
B_SPLINE_CURVE(1,(#450,#451),.UNSPECIFIED.,.F.,.F.)
B_SPLINE_CURVE_WITH_KNOTS((2,2),(-17.8045454545408,0.),.UNSPECIFIED.)
CURVE()
GEOMETRIC_REPRESENTATION_ITEM()
RATIONAL_B_SPLINE_CURVE((1.,1.))
REPRESENTATION_ITEM('')
);
#202=(
BOUNDED_CURVE()
B_SPLINE_CURVE(1,(#452,#453),.UNSPECIFIED.,.F.,.F.)
B_SPLINE_CURVE_WITH_KNOTS((2,2),(-17.8045454545409,0.),.UNSPECIFIED.)
CURVE()
GEOMETRIC_REPRESENTATION_ITEM()
RATIONAL_B_SPLINE_CURVE((1.,1.))
REPRESENTATION_ITEM('')
);
#203=(
BOUNDED_CURVE()
B_SPLINE_CURVE(1,(#516,#517),.UNSPECIFIED.,.F.,.F.)
B_SPLINE_CURVE_WITH_KNOTS((2,2),(-17.8045454545408,0.),.UNSPECIFIED.)
CURVE()
GEOMETRIC_REPRESENTATION_ITEM()
RATIONAL_B_SPLINE_CURVE((1.,1.))
REPRESENTATION_ITEM('')
);
#204=(
BOUNDED_CURVE()
B_SPLINE_CURVE(1,(#521,#522),.UNSPECIFIED.,.F.,.F.)
B_SPLINE_CURVE_WITH_KNOTS((2,2),(-17.8045454545409,0.),.UNSPECIFIED.)
CURVE()
GEOMETRIC_REPRESENTATION_ITEM()
RATIONAL_B_SPLINE_CURVE((1.,1.))
REPRESENTATION_ITEM('')
);
#205=TRIMMED_CURVE($,#213,(#448),(#449),.T.,.CARTESIAN.);
#206=TRIMMED_CURVE($,#214,(#455),(#456),.T.,.CARTESIAN.);
#207=TRIMMED_CURVE($,#215,(#514),(#515),.T.,.CARTESIAN.);
#208=TRIMMED_CURVE($,#216,(#519),(#520),.T.,.CARTESIAN.);
#209=TRIMMED_CURVE($,#217,(#524),(#525),.T.,.CARTESIAN.);
#210=TRIMMED_CURVE($,#218,(#527),(#528),.T.,.CARTESIAN.);
#211=TRIMMED_CURVE($,#219,(#530),(#531),.T.,.CARTESIAN.);
#212=TRIMMED_CURVE($,#220,(#533),(#534),.T.,.CARTESIAN.);
#213=CIRCLE('',#363,3.25000000000045);
#214=CIRCLE('',#364,3.25);
#215=CIRCLE('',#365,3.25000000000045);
#216=CIRCLE('',#366,3.25);
#217=CIRCLE('',#367,3.25);
#218=CIRCLE('',#368,3.25000000000045);
#219=CIRCLE('',#369,3.25000000000045);
#220=CIRCLE('',#370,3.25);
#221=VERTEX_POINT('',#423);
#222=VERTEX_POINT('',#424);
#223=VERTEX_POINT('',#425);
#224=VERTEX_POINT('',#426);
#225=VERTEX_POINT('',#427);
#226=VERTEX_POINT('',#428);
#227=VERTEX_POINT('',#429);
#228=VERTEX_POINT('',#430);
#229=VERTEX_POINT('',#431);
#230=VERTEX_POINT('',#432);
#231=VERTEX_POINT('',#433);
#232=VERTEX_POINT('',#434);
#233=VERTEX_POINT('',#435);
#234=VERTEX_POINT('',#436);
#235=VERTEX_POINT('',#437);
#236=VERTEX_POINT('',#438);
#237=VERTEX_POINT('',#439);
#238=VERTEX_POINT('',#440);
#239=VERTEX_POINT('',#441);
#240=VERTEX_POINT('',#442);
#241=VERTEX_POINT('',#443);
#242=VERTEX_POINT('',#444);
#243=VERTEX_POINT('',#445);
#244=VERTEX_POINT('',#446);
#245=PLANE('',#349);
#246=PLANE('',#350);
#247=PLANE('',#351);
#248=PLANE('',#352);
#249=PLANE('',#353);
#250=PLANE('',#354);
#251=PLANE('',#355);
#252=PLANE('',#358);
#253=PLANE('',#359);
#254=PLANE('',#360);
#255=PLANE('',#362);
#256=CYLINDRICAL_SURFACE('',#348,3.25000000001455);
#257=CYLINDRICAL_SURFACE('',#356,3.24999999996817);
#258=CYLINDRICAL_SURFACE('',#357,3.25000000001546);
#259=CYLINDRICAL_SURFACE('',#361,3.25000000001455);
#260=SHAPE_DEFINITION_REPRESENTATION(#261,#346);
#261=PRODUCT_DEFINITION_SHAPE($,$,#263);
#262=PRODUCT_DEFINITION_CONTEXT('3D Mechanical Parts',#335,'design');
#263=PRODUCT_DEFINITION('A','First version',#305,#262);
#264=DATE_TIME_ROLE('classification_date');
#265=DATE_TIME_ROLE('creation_date');
#266=APPLIED_DATE_AND_TIME_ASSIGNMENT(#290,#264,(#269));
#267=APPLIED_DATE_AND_TIME_ASSIGNMENT(#292,#265,(#263));
#268=SECURITY_CLASSIFICATION_LEVEL('unclassified');
#269=SECURITY_CLASSIFICATION('A','Security for version',#268);
#270=APPLIED_SECURITY_CLASSIFICATION_ASSIGNMENT(#269,(#305));
#271=APPROVAL_ROLE('Version approval');
#272=APPROVAL_ROLE('Version Security approval');
#273=APPROVAL_ROLE('Definition approval');
#274=APPROVAL_PERSON_ORGANIZATION(#323,#299,#271);
#275=APPROVAL_PERSON_ORGANIZATION(#324,#300,#272);
#276=APPROVAL_PERSON_ORGANIZATION(#327,#301,#273);
#277=COORDINATED_UNIVERSAL_TIME_OFFSET(5,0,.BEHIND.);
#278=LOCAL_TIME(0,0,0.,#277);
#279=LOCAL_TIME(0,0,0.,#277);
#280=LOCAL_TIME(0,0,0.,#277);
#281=LOCAL_TIME(0,0,0.,#277);
#282=LOCAL_TIME(0,0,0.,#277);
#283=CALENDAR_DATE(1999,1,1);
#284=CALENDAR_DATE(1999,1,1);
#285=CALENDAR_DATE(1999,1,1);
#286=CALENDAR_DATE(1999,1,1);
#287=CALENDAR_DATE(1999,1,1);
#288=DATE_AND_TIME(#283,#278);
#289=DATE_AND_TIME(#284,#279);
#290=DATE_AND_TIME(#285,#280);
#291=DATE_AND_TIME(#286,#281);
#292=DATE_AND_TIME(#287,#282);
#293=APPROVAL_DATE_TIME(#288,#299);
#294=APPROVAL_DATE_TIME(#289,#300);
#295=APPROVAL_DATE_TIME(#291,#301);
#296=APPROVAL_STATUS('not_yet_approved');
#297=APPROVAL_STATUS('not_yet_approved');
#298=APPROVAL_STATUS('approved');
#299=APPROVAL(#296,'Version approval');
#300=APPROVAL(#297,'Version Security approval');
#301=APPROVAL(#298,'Definition approval');
#302=APPLIED_APPROVAL_ASSIGNMENT(#299,(#305));
#303=APPLIED_APPROVAL_ASSIGNMENT(#300,(#269));
#304=APPLIED_APPROVAL_ASSIGNMENT(#301,(#263));
#305=PRODUCT_DEFINITION_FORMATION_WITH_SPECIFIED_SOURCE('A',
'First version',#337,.MADE.);
#306=PERSON_AND_ORGANIZATION_ROLE('design_owner');
#307=PERSON_AND_ORGANIZATION_ROLE('creator');
#308=PERSON_AND_ORGANIZATION_ROLE('design_supplier');
#309=PERSON_AND_ORGANIZATION_ROLE('classification_officer');
#310=PERSON_AND_ORGANIZATION_ROLE('creator');
#311=ORGANIZATION('STI','lab','lab');
#312=ORGANIZATION('STI','unknown','unknown');
#313=ORGANIZATION('STI','unknown','unknown');
#314=ORGANIZATION('STI','unknown','unknown');
#315=ORGANIZATION('STI','unknown','unknown');
#316=ORGANIZATION('STI','unknown','unknown');
#317=ORGANIZATION('STI','unknown','unknown');
#318=PERSON('1','Box','vc60',$,$,$);
#319=PERSON('2','last','first',$,$,$);
#320=PERSON('3','President','Mr.',$,$,$);
#321=PERSON_AND_ORGANIZATION(#318,#311);
#322=PERSON_AND_ORGANIZATION(#319,#312);
#323=PERSON_AND_ORGANIZATION(#320,#313);
#324=PERSON_AND_ORGANIZATION(#320,#314);
#325=PERSON_AND_ORGANIZATION(#320,#315);
#326=PERSON_AND_ORGANIZATION(#319,#316);
#327=PERSON_AND_ORGANIZATION(#320,#317);
#328=APPLIED_PERSON_AND_ORGANIZATION_ASSIGNMENT(#321,#306,(#337));
#329=APPLIED_PERSON_AND_ORGANIZATION_ASSIGNMENT(#322,#307,(#305));
#330=APPLIED_PERSON_AND_ORGANIZATION_ASSIGNMENT(#322,#308,(#305));
#331=APPLIED_PERSON_AND_ORGANIZATION_ASSIGNMENT(#325,#309,(#269));
#332=APPLIED_PERSON_AND_ORGANIZATION_ASSIGNMENT(#326,#310,(#263));
#333=PRODUCT_RELATED_PRODUCT_CATEGORY('detail','detail',(#337));
#334=APPLICATION_PROTOCOL_DEFINITION('International Standard',
'config_control_design',1994,#335);
#335=APPLICATION_CONTEXT(
'configuration controlled 3d designs of mechanical parts and assemblie
s');
#336=PRODUCT_CONTEXT('3D Mechanical Parts',#335,'mechanical');
#337=PRODUCT('Document','Document','',(#336));
#338=(
LENGTH_UNIT()
NAMED_UNIT(*)
SI_UNIT(.MILLI.,.METRE.)
);
#339=(
NAMED_UNIT(*)
PLANE_ANGLE_UNIT()
SI_UNIT($,.RADIAN.)
);
#340=DIMENSIONAL_EXPONENTS(0.,0.,0.,0.,0.,0.,0.);
#341=PLANE_ANGLE_MEASURE_WITH_UNIT(PLANE_ANGLE_MEASURE(0.01745329252),#339);
#342=(
CONVERSION_BASED_UNIT('DEGREES',#341)
NAMED_UNIT(#340)
PLANE_ANGLE_UNIT()
);
#343=(
NAMED_UNIT(*)
SI_UNIT($,.STERADIAN.)
SOLID_ANGLE_UNIT()
);
#344=UNCERTAINTY_MEASURE_WITH_UNIT(LENGTH_MEASURE(0.01),#338,
'DISTANCE_ACCURACY_VALUE',
'Maximum model space distance between geometric entities at asserted c
onnectivities');
#345=(
GEOMETRIC_REPRESENTATION_CONTEXT(3)
GLOBAL_UNCERTAINTY_ASSIGNED_CONTEXT((#344))
GLOBAL_UNIT_ASSIGNED_CONTEXT((#343,#342,#338))
REPRESENTATION_CONTEXT('ID1','3D')
);
#346=SHAPE_REPRESENTATION('Document',(#347,#371),#345);
#347=AXIS2_PLACEMENT_3D($,#407,#372,#373);
#348=AXIS2_PLACEMENT_3D('',#408,#374,$);
#349=AXIS2_PLACEMENT_3D('',#409,#375,$);
#350=AXIS2_PLACEMENT_3D('',#410,#376,$);
#351=AXIS2_PLACEMENT_3D('',#411,#377,$);
#352=AXIS2_PLACEMENT_3D('',#412,#378,$);
#353=AXIS2_PLACEMENT_3D('',#413,#379,$);
#354=AXIS2_PLACEMENT_3D('',#414,#380,$);
#355=AXIS2_PLACEMENT_3D('',#415,#381,$);
#356=AXIS2_PLACEMENT_3D('',#416,#382,$);
#357=AXIS2_PLACEMENT_3D('',#417,#383,$);
#358=AXIS2_PLACEMENT_3D('',#418,#384,$);
#359=AXIS2_PLACEMENT_3D('',#419,#385,$);
#360=AXIS2_PLACEMENT_3D('',#420,#386,$);
#361=AXIS2_PLACEMENT_3D('',#421,#387,$);
#362=AXIS2_PLACEMENT_3D('',#422,#388,$);
#363=AXIS2_PLACEMENT_3D($,#447,#389,#390);
#364=AXIS2_PLACEMENT_3D($,#454,#391,#392);
#365=AXIS2_PLACEMENT_3D($,#513,#393,#394);
#366=AXIS2_PLACEMENT_3D($,#518,#395,#396);
#367=AXIS2_PLACEMENT_3D($,#523,#397,#398);
#368=AXIS2_PLACEMENT_3D($,#526,#399,#400);
#369=AXIS2_PLACEMENT_3D($,#529,#401,#402);
#370=AXIS2_PLACEMENT_3D($,#532,#403,#404);
#371=AXIS2_PLACEMENT_3D($,#535,#405,#406);
#372=DIRECTION('',(0.,0.,1.));
#373=DIRECTION('',(1.,0.,0.));
#374=DIRECTION('',(4.61743463974811E-12,6.99611309062657E-13,-1.));
#375=DIRECTION('',(0.,0.,-1.));
#376=DIRECTION('',(1.,0.,0.));
#377=DIRECTION('',(-1.,0.,0.));
#378=DIRECTION('',(1.,0.,0.));
#379=DIRECTION('',(-1.,0.,0.));
#380=DIRECTION('',(2.87817852153174E-13,0.980002447546883,-0.198985433643065));
#381=DIRECTION('',(6.27442003737553E-13,-0.980002447546882,-0.198985433643072));
#382=DIRECTION('',(2.86840636715812E-12,-6.99611309054924E-14,-1.));
#383=DIRECTION('',(9.79455832671275E-13,9.79455832676482E-13,-1.));
#384=DIRECTION('',(0.,0.,1.));
#385=DIRECTION('',(0.,0.,1.));
#386=DIRECTION('',(0.,0.,-1.));
#387=DIRECTION('',(4.61743463974811E-12,-6.99611309062657E-13,1.));
#388=DIRECTION('',(0.,0.,1.));
#389=DIRECTION('',(4.19766785433894E-13,5.59689047244801E-13,-1.));
#390=DIRECTION('',(1.39884491250201E-13,1.,5.59689047244801E-13));
#391=DIRECTION('',(-3.98778446161865E-12,-4.89727916339269E-13,1.));
#392=DIRECTION('',(-2.79867170937819E-13,-1.,-4.89727916339269E-13));
#393=DIRECTION('',(1.399222618112E-13,1.9578239350362E-26,-1.));
#394=DIRECTION('',(1.39958341634146E-13,-1.,0.));
#395=DIRECTION('',(-6.99611309056784E-14,-3.4980565452804E-13,1.));
#396=DIRECTION('',(5.5966169316288E-13,1.,3.49805654528049E-13));
#397=DIRECTION('',(6.99611309055805E-14,-3.49805654528059E-13,1.));
#398=DIRECTION('',(-5.5967491691094E-13,-1.,-3.49805654528049E-13));
#399=DIRECTION('',(0.,0.,-1.));
#400=DIRECTION('',(-4.19749124014774E-13,1.,0.));
#401=DIRECTION('',(-4.19766785434012E-13,5.59689047244801E-13,-1.));
#402=DIRECTION('',(-4.19744417355522E-13,-1.,-5.59689047244801E-13));
#403=DIRECTION('',(-3.98778446161865E-12,4.89727916339269E-13,-1.));
#404=DIRECTION('',(2.79858712857746E-13,-1.,-4.89727916339269E-13));
#405=DIRECTION('',(0.,0.,1.));
#406=DIRECTION('',(1.,0.,0.));
#407=CARTESIAN_POINT('',(0.,0.,0.));
#408=CARTESIAN_POINT('',(-4.68388469760587E-11,2.74353988057227E-6,-74.9453728162973));
#409=CARTESIAN_POINT('',(45.3499800918298,7.95359089805879,-88.499918270807));
#410=CARTESIAN_POINT('',(39.3636363636042,21.4321477513868,5.29098544302042));
#411=CARTESIAN_POINT('',(-39.363636363586,-19.959556870801,8.4589907269783));
#412=CARTESIAN_POINT('',(-11.3636363635806,-16.1818122702725,-18.8045454545368));
#413=CARTESIAN_POINT('',(11.3636363635933,-16.1818122702725,-18.8045454545368));
#414=CARTESIAN_POINT('',(-39.3636363635915,21.7969568897161,8.84999182709589));
#415=CARTESIAN_POINT('',(-39.3636363635978,-21.7969514028091,8.84999182709907));
#416=CARTESIAN_POINT('',(6.82110890987559E-12,2.74351077686743E-6,-9.40227272726929));
#417=CARTESIAN_POINT('',(-1.63710473425648E-11,2.74352078118256E-6,-9.40227272725951));
#418=CARTESIAN_POINT('',(-42.6960928852086,24.0000027739798,1.00044417195022E-11));
#419=CARTESIAN_POINT('',(13.6363636363321,7.01837497204087,-69.6953728162621));
#420=CARTESIAN_POINT('',(-11.5909090908526,16.5054540574629,-18.8045454545372));
#421=CARTESIAN_POINT('',(-4.54850027373297E-13,2.74353988057227E-6,-74.9453728162973));
#422=CARTESIAN_POINT('',(-3.31500000002486,-3.31499725646941,-80.1953728162557));
#423=CARTESIAN_POINT('',(-2.27373675443232E-11,-3.24999725647194,-69.6953728163435));
#424=CARTESIAN_POINT('',(-2.27373675443232E-11,3.25000274352897,-69.6953728163398));
#425=CARTESIAN_POINT('',(-2.36468622460961E-11,-3.2499972564683,-80.1953728162594));
#426=CARTESIAN_POINT('',(-2.36468622460961E-11,3.2500027435317,-80.1953728162562));
#427=CARTESIAN_POINT('',(39.3636363635924,-2.03045952143111,-88.4999182708057));
#428=CARTESIAN_POINT('',(-39.3636363635842,-2.03045952145385,-88.4999182708084));
#429=CARTESIAN_POINT('',(-39.3636363635806,2.03046500837263,-88.4999182708098));
#430=CARTESIAN_POINT('',(39.3636363635933,2.03046500835717,-88.4999182708057));
#431=CARTESIAN_POINT('',(39.3636363635969,20.0000027688739,1.36424205265939E-11));
#432=CARTESIAN_POINT('',(39.3636363635951,-19.9999972819396,1.36424205265939E-11));
#433=CARTESIAN_POINT('',(-39.3636363635815,20.0000027688893,5.00222085975111E-12));
#434=CARTESIAN_POINT('',(-39.3636363635824,-19.9999972819633,6.82121026329696E-12));
#435=CARTESIAN_POINT('',(-11.3636363635769,16.1818177571895,-18.8045454545372));
#436=CARTESIAN_POINT('',(11.3636363636006,16.1818177571868,-18.8045454545363));
#437=CARTESIAN_POINT('',(11.3636363636051,5.84864626727449,-69.695372816263));
#438=CARTESIAN_POINT('',(-11.3636363635769,5.84864626727813,-69.6953728162621));
#439=CARTESIAN_POINT('',(11.3636363636051,-5.84864078034479,-69.695372816263));
#440=CARTESIAN_POINT('',(-11.3636363635769,-5.84864078034479,-69.695372816263));
#441=CARTESIAN_POINT('',(-11.3636363635806,-16.1818122702707,-18.8045454545363));
#442=CARTESIAN_POINT('',(11.3636363636006,-16.1818122702653,-18.8045454545363));
#443=CARTESIAN_POINT('',(-2.63753463514149E-11,-3.24999725649104,4.54747350886464E-13));
#444=CARTESIAN_POINT('',(-2.72848410531878E-11,3.25000274350987,4.54747350886464E-13));
#445=CARTESIAN_POINT('',(-2.63753463514149E-11,-3.24999725648649,-18.8045454545277));
#446=CARTESIAN_POINT('',(-2.5465851649642E-11,3.25000274351351,-18.8045454545254));
#447=CARTESIAN_POINT('',(-2.31919921408864E-11,2.74352851184661E-6,-69.6953728163417));
#448=CARTESIAN_POINT('',(-2.27373675443232E-11,3.25000274352897,-69.6953728163398));
#449=CARTESIAN_POINT('',(-2.27369460700718E-11,-3.24999725647194,-69.6953728163435));
#450=CARTESIAN_POINT('',(-2.36468622460961E-11,-3.2499972564683,-80.1953728162594));
#451=CARTESIAN_POINT('',(-2.27373675443232E-11,-3.24999725647194,-69.6953728163435));
#452=CARTESIAN_POINT('',(-2.27373675443232E-11,3.25000274352897,-69.6953728163398));
#453=CARTESIAN_POINT('',(-2.36468622460961E-11,3.2500027435317,-80.1953728162562));
#454=CARTESIAN_POINT('',(-2.27372939405482E-11,2.74353169505263E-6,-80.1953728162578));
#455=CARTESIAN_POINT('',(-2.36468622460961E-11,-3.2499972564683,-80.1953728162594));
#456=CARTESIAN_POINT('',(-2.36458729391266E-11,3.2500027435317,-80.1953728162562));
#457=CARTESIAN_POINT('',(-39.3636363635806,2.03046500837263,-88.4999182708098));
#458=CARTESIAN_POINT('',(39.3636363635933,2.03046500835717,-88.4999182708057));
#459=CARTESIAN_POINT('',(39.3636363635924,-2.03045952143111,-88.4999182708057));
#460=CARTESIAN_POINT('',(-39.3636363635842,-2.03045952145385,-88.4999182708084));
#461=CARTESIAN_POINT('',(39.3636363635933,2.03046500835717,-88.4999182708057));
#462=CARTESIAN_POINT('',(39.3636363635924,-2.03045952143111,-88.4999182708057));
#463=CARTESIAN_POINT('',(-39.3636363635842,-2.03045952145385,-88.4999182708084));
#464=CARTESIAN_POINT('',(-39.3636363635806,2.03046500837263,-88.4999182708098));
#465=CARTESIAN_POINT('',(39.3636363635969,20.0000027688739,1.36424205265939E-11));
#466=CARTESIAN_POINT('',(39.3636363635933,2.03046500835717,-88.4999182708057));
#467=CARTESIAN_POINT('',(39.3636363635951,-19.9999972819396,1.36424205265939E-11));
#468=CARTESIAN_POINT('',(39.3636363635924,-2.03045952143111,-88.4999182708057));
#469=CARTESIAN_POINT('',(39.3636363635951,-19.9999972819396,1.36424205265939E-11));
#470=CARTESIAN_POINT('',(39.3636363635969,20.0000027688739,1.36424205265939E-11));
#471=CARTESIAN_POINT('',(-39.3636363635815,20.0000027688893,5.00222085975111E-12));
#472=CARTESIAN_POINT('',(39.3636363635969,20.0000027688739,1.36424205265939E-11));
#473=CARTESIAN_POINT('',(39.3636363635951,-19.9999972819396,1.36424205265939E-11));
#474=CARTESIAN_POINT('',(-39.3636363635824,-19.9999972819633,6.82121026329696E-12));
#475=CARTESIAN_POINT('',(-39.3636363635815,20.0000027688893,5.00222085975111E-12));
#476=CARTESIAN_POINT('',(-39.3636363635824,-19.9999972819633,6.82121026329696E-12));
#477=CARTESIAN_POINT('',(-39.3636363635815,20.0000027688893,5.00222085975111E-12));
#478=CARTESIAN_POINT('',(-39.3636363635806,2.03046500837263,-88.4999182708098));
#479=CARTESIAN_POINT('',(-39.3636363635824,-19.9999972819633,6.82121026329696E-12));
#480=CARTESIAN_POINT('',(-39.3636363635842,-2.03045952145385,-88.4999182708084));
#481=CARTESIAN_POINT('',(11.3636363636051,-5.84864078034479,-69.695372816263));
#482=CARTESIAN_POINT('',(11.3636363636051,5.84864626727449,-69.695372816263));
#483=CARTESIAN_POINT('',(-11.3636363635769,5.84864626727813,-69.6953728162621));
#484=CARTESIAN_POINT('',(-11.3636363635769,-5.84864078034479,-69.695372816263));
#485=CARTESIAN_POINT('',(11.3636363636051,-5.84864078034479,-69.695372816263));
#486=CARTESIAN_POINT('',(-11.3636363635769,-5.84864078034479,-69.695372816263));
#487=CARTESIAN_POINT('',(11.3636363636051,5.84864626727449,-69.695372816263));
#488=CARTESIAN_POINT('',(-11.3636363635769,5.84864626727813,-69.6953728162621));
#489=CARTESIAN_POINT('',(-11.3636363635806,-16.1818122702707,-18.8045454545363));
#490=CARTESIAN_POINT('',(-11.3636363635769,16.1818177571895,-18.8045454545372));
#491=CARTESIAN_POINT('',(11.3636363636006,-16.1818122702653,-18.8045454545363));
#492=CARTESIAN_POINT('',(11.3636363636006,16.1818177571868,-18.8045454545363));
#493=CARTESIAN_POINT('',(11.3636363636051,5.84864626727449,-69.695372816263));
#494=CARTESIAN_POINT('',(11.3636363636106,14.7272710957468,-25.9681818181671));
#495=CARTESIAN_POINT('',(11.3636363636006,16.1818177571868,-18.8045454545363));
#496=CARTESIAN_POINT('',(-11.3636363635769,16.1818177571895,-18.8045454545372));
#497=CARTESIAN_POINT('',(-11.3636363635824,14.7272710957477,-25.968181818168));
#498=CARTESIAN_POINT('',(-11.3636363635769,5.84864626727813,-69.6953728162621));
#499=CARTESIAN_POINT('',(11.3636363636051,-5.84864078034479,-69.695372816263));
#500=CARTESIAN_POINT('',(11.3636363636069,-14.7272656088217,-25.9681818181666));
#501=CARTESIAN_POINT('',(11.3636363636006,-16.1818122702653,-18.8045454545363));
#502=CARTESIAN_POINT('',(-11.3636363635806,-16.1818122702707,-18.8045454545363));
#503=CARTESIAN_POINT('',(-11.363636363586,-14.7272656088289,-25.9681818181671));
#504=CARTESIAN_POINT('',(-11.3636363635769,-5.84864078034479,-69.695372816263));
#505=CARTESIAN_POINT('',(-11.3636363635769,16.1818177571895,-18.8045454545372));
#506=CARTESIAN_POINT('',(-4.19999999994707,16.1818177571886,-18.8045454545363));
#507=CARTESIAN_POINT('',(4.19999999997981,16.1818177571777,-18.8045454545349));
#508=CARTESIAN_POINT('',(11.3636363636006,16.1818177571868,-18.8045454545363));
#509=CARTESIAN_POINT('',(11.3636363636006,-16.1818122702653,-18.8045454545363));
#510=CARTESIAN_POINT('',(4.19999999997617,-16.1818122702562,-18.8045454545345));
#511=CARTESIAN_POINT('',(-4.19999999995071,-16.1818122702698,-18.8045454545359));
#512=CARTESIAN_POINT('',(-11.3636363635806,-16.1818122702707,-18.8045454545363));
#513=CARTESIAN_POINT('',(-2.6830210961726E-11,2.74350941261409E-6,4.54747350886464E-13));
#514=CARTESIAN_POINT('',(-2.63753463514149E-11,-3.24999725649104,4.54747350886464E-13));
#515=CARTESIAN_POINT('',(-2.72854735822467E-11,3.25000274350987,4.54747350886464E-13));
#516=CARTESIAN_POINT('',(-2.63753463514149E-11,-3.24999725648649,-18.8045454545277));
#517=CARTESIAN_POINT('',(-2.63753463514149E-11,-3.24999725649104,4.54747350886464E-13));
#518=CARTESIAN_POINT('',(-2.72847521524214E-11,2.74351350537468E-6,-18.8045454545265));
#519=CARTESIAN_POINT('',(-2.5465851649642E-11,3.25000274351351,-18.8045454545254));
#520=CARTESIAN_POINT('',(-2.63762326939064E-11,-3.24999725648649,-18.8045454545277));
#521=CARTESIAN_POINT('',(-2.72848410531878E-11,3.25000274350987,4.54747350886464E-13));
#522=CARTESIAN_POINT('',(-2.5465851649642E-11,3.25000274351351,-18.8045454545254));
#523=CARTESIAN_POINT('',(-2.45564028714544E-11,2.74351350521767E-6,-18.8045454545265));
#524=CARTESIAN_POINT('',(-2.63753463514149E-11,-3.24999725648649,-18.8045454545277));
#525=CARTESIAN_POINT('',(-2.54648793527881E-11,3.25000274351351,-18.8045454545254));
#526=CARTESIAN_POINT('',(-2.59206564001396E-11,2.74350941245747E-6,4.54747350886464E-13));
#527=CARTESIAN_POINT('',(-2.72848410531878E-11,3.25000274350987,4.54747350886464E-13));
#528=CARTESIAN_POINT('',(-2.6374619051218E-11,-3.24999725649104,4.54747350886464E-13));
#529=CARTESIAN_POINT('',(-2.13731981879176E-11,2.74352851184622E-6,-69.6953728163417));
#530=CARTESIAN_POINT('',(-2.27373675443232E-11,-3.24999725647194,-69.6953728163435));
#531=CARTESIAN_POINT('',(-2.2737244813226E-11,3.25000274352897,-69.6953728163398));
#532=CARTESIAN_POINT('',(-2.45564030628838E-11,2.74353169505263E-6,-80.1953728162578));
#533=CARTESIAN_POINT('',(-2.36468622460961E-11,-3.2499972564683,-80.1953728162594));
#534=CARTESIAN_POINT('',(-2.36477965755452E-11,3.2500027435317,-80.1953728162562));
#535=CARTESIAN_POINT('',(0.,0.,0.));
ENDSEC;
END-ISO-10303-21;
