# Rhino

mtllib FloorColumnConnection.mtl
usemtl Default
v -2650.5 -3000 3409.24169921875
v -2650.5 -2840 3409.24169921875
v -2647.150634765625 -3000 3421.74169921875
v -2647.150634765625 -2840 3421.74169921875
v -2647.150634765625 -3000 3421.74169921875
v -2647.150634765625 -2840 3421.74169921875
v -2638 -3000 3430.892333984375
v -2638 -2840 3430.892333984375
v -2638 -3000 3430.892333984375
v -2638 -2840 3430.892333984375
v -2625.5 -3000 3434.24169921875
v -2625.5 -2840 3434.24169921875
v -2625.5 -3000 3434.24169921875
v -2625.5 -2840 3434.24169921875
v -2613 -3000 3430.892333984375
v -2613 -2840 3430.892333984375
v -2613 -3000 3430.892333984375
v -2613 -2840 3430.892333984375
v -2603.849365234375 -3000 3421.74169921875
v -2603.849365234375 -2840 3421.74169921875
v -2603.849365234375 -3000 3421.74169921875
v -2603.849365234375 -2840 3421.74169921875
v -2600.5 -3000 3409.24169921875
v -2600.5 -2840 3409.24169921875
v -2600.5 -3000 3409.24169921875
v -2600.5 -2840 3409.24169921875
v -2603.849365234375 -3000 3396.74169921875
v -2603.849365234375 -2840 3396.74169921875
v -2603.849365234375 -3000 3396.74169921875
v -2603.849365234375 -2840 3396.74169921875
v -2613 -3000 3387.591064453125
v -2613 -2840 3387.591064453125
v -2613 -3000 3387.591064453125
v -2613 -2840 3387.591064453125
v -2625.5 -3000 3384.24169921875
v -2625.5 -2840 3384.24169921875
v -2625.5 -3000 3384.24169921875
v -2625.5 -2840 3384.24169921875
v -2638 -3000 3387.591064453125
v -2638 -2840 3387.591064453125
v -2638 -3000 3387.591064453125
v -2638 -2840 3387.591064453125
v -2647.150634765625 -3000 3396.74169921875
v -2647.150634765625 -2840 3396.74169921875
v -2647.150634765625 -3000 3396.74169921875
v -2647.150634765625 -2840 3396.74169921875
v -2650.5 -3000 3409.24169921875
v -2650.5 -2840 3409.24169921875
v -2650.5 -3000 3409.24169921875
v -2647.150634765625 -3000 3421.74169921875
v -2638 -3000 3430.892333984375
v -2625.5 -3000 3434.24169921875
v -2613 -3000 3430.892333984375
v -2603.849365234375 -3000 3421.74169921875
v -2600.5 -3000 3409.24169921875
v -2603.849365234375 -3000 3396.74169921875
v -2613 -3000 3387.591064453125
v -2625.5 -3000 3384.24169921875
v -2638 -3000 3387.591064453125
v -2647.150634765625 -3000 3396.74169921875
v -2650.5 -2840 3409.24169921875
v -2647.150634765625 -2840 3421.74169921875
v -2638 -2840 3430.892333984375
v -2625.5 -2840 3434.24169921875
v -2613 -2840 3430.892333984375
v -2603.849365234375 -2840 3421.74169921875
v -2600.5 -2840 3409.24169921875
v -2603.849365234375 -2840 3396.74169921875
v -2613 -2840 3387.591064453125
v -2625.5 -2840 3384.24169921875
v -2638 -2840 3387.591064453125
v -2647.150634765625 -2840 3396.74169921875
v -2650.5 -3000 3293.4833984375
v -2650.5 -2840 3293.4833984375
v -2647.150634765625 -3000 3305.9833984375
v -2647.150634765625 -2840 3305.9833984375
v -2647.150634765625 -3000 3305.9833984375
v -2647.150634765625 -2840 3305.9833984375
v -2638 -3000 3315.134033203125
v -2638 -2840 3315.134033203125
v -2638 -3000 3315.134033203125
v -2638 -2840 3315.134033203125
v -2625.5 -3000 3318.4833984375
v -2625.5 -2840 3318.4833984375
v -2625.5 -3000 3318.4833984375
v -2625.5 -2840 3318.4833984375
v -2613 -3000 3315.134033203125
v -2613 -2840 3315.134033203125
v -2613 -3000 3315.134033203125
v -2613 -2840 3315.134033203125
v -2603.849365234375 -3000 3305.9833984375
v -2603.849365234375 -2840 3305.9833984375
v -2603.849365234375 -3000 3305.9833984375
v -2603.849365234375 -2840 3305.9833984375
v -2600.5 -3000 3293.4833984375
v -2600.5 -2840 3293.4833984375
v -2600.5 -3000 3293.4833984375
v -2600.5 -2840 3293.4833984375
v -2603.849365234375 -3000 3280.9833984375
v -2603.849365234375 -2840 3280.9833984375
v -2603.849365234375 -3000 3280.9833984375
v -2603.849365234375 -2840 3280.9833984375
v -2613 -3000 3271.832763671875
v -2613 -2840 3271.832763671875
v -2613 -3000 3271.832763671875
v -2613 -2840 3271.832763671875
v -2625.5 -3000 3268.4833984375
v -2625.5 -2840 3268.4833984375
v -2625.5 -3000 3268.4833984375
v -2625.5 -2840 3268.4833984375
v -2638 -3000 3271.832763671875
v -2638 -2840 3271.832763671875
v -2638 -3000 3271.832763671875
v -2638 -2840 3271.832763671875
v -2647.150634765625 -3000 3280.9833984375
v -2647.150634765625 -2840 3280.9833984375
v -2647.150634765625 -3000 3280.9833984375
v -2647.150634765625 -2840 3280.9833984375
v -2650.5 -3000 3293.4833984375
v -2650.5 -2840 3293.4833984375
v -2650.5 -3000 3293.4833984375
v -2647.150634765625 -3000 3305.9833984375
v -2638 -3000 3315.134033203125
v -2625.5 -3000 3318.4833984375
v -2613 -3000 3315.134033203125
v -2603.849365234375 -3000 3305.9833984375
v -2600.5 -3000 3293.4833984375
v -2603.849365234375 -3000 3280.9833984375
v -2613 -3000 3271.832763671875
v -2625.5 -3000 3268.4833984375
v -2638 -3000 3271.832763671875
v -2647.150634765625 -3000 3280.9833984375
v -2650.5 -2840 3293.4833984375
v -2647.150634765625 -2840 3305.9833984375
v -2638 -2840 3315.134033203125
v -2625.5 -2840 3318.4833984375
v -2613 -2840 3315.134033203125
v -2603.849365234375 -2840 3305.9833984375
v -2600.5 -2840 3293.4833984375
v -2603.849365234375 -2840 3280.9833984375
v -2613 -2840 3271.832763671875
v -2625.5 -2840 3268.4833984375
v -2638 -2840 3271.832763671875
v -2647.150634765625 -2840 3280.9833984375
v -2915.5 -3000 3409.24169921875
v -2915.5 -2840 3409.24169921875
v -2912.150634765625 -3000 3421.74169921875
v -2912.150634765625 -2840 3421.74169921875
v -2912.150634765625 -3000 3421.74169921875
v -2912.150634765625 -2840 3421.74169921875
v -2903 -3000 3430.892333984375
v -2903 -2840 3430.892333984375
v -2903 -3000 3430.892333984375
v -2903 -2840 3430.892333984375
v -2890.5 -3000 3434.24169921875
v -2890.5 -2840 3434.24169921875
v -2890.5 -3000 3434.24169921875
v -2890.5 -2840 3434.24169921875
v -2878 -3000 3430.892333984375
v -2878 -2840 3430.892333984375
v -2878 -3000 3430.892333984375
v -2878 -2840 3430.892333984375
v -2868.849365234375 -3000 3421.74169921875
v -2868.849365234375 -2840 3421.74169921875
v -2868.849365234375 -3000 3421.74169921875
v -2868.849365234375 -2840 3421.74169921875
v -2865.5 -3000 3409.24169921875
v -2865.5 -2840 3409.24169921875
v -2865.5 -3000 3409.24169921875
v -2865.5 -2840 3409.24169921875
v -2868.849365234375 -3000 3396.74169921875
v -2868.849365234375 -2840 3396.74169921875
v -2868.849365234375 -3000 3396.74169921875
v -2868.849365234375 -2840 3396.74169921875
v -2878 -3000 3387.591064453125
v -2878 -2840 3387.591064453125
v -2878 -3000 3387.591064453125
v -2878 -2840 3387.591064453125
v -2890.5 -3000 3384.24169921875
v -2890.5 -2840 3384.24169921875
v -2890.5 -3000 3384.24169921875
v -2890.5 -2840 3384.24169921875
v -2903 -3000 3387.591064453125
v -2903 -2840 3387.591064453125
v -2903 -3000 3387.591064453125
v -2903 -2840 3387.591064453125
v -2912.150634765625 -3000 3396.74169921875
v -2912.150634765625 -2840 3396.74169921875
v -2912.150634765625 -3000 3396.74169921875
v -2912.150634765625 -2840 3396.74169921875
v -2915.5 -3000 3409.24169921875
v -2915.5 -2840 3409.24169921875
v -2915.5 -3000 3409.24169921875
v -2912.150634765625 -3000 3421.74169921875
v -2903 -3000 3430.892333984375
v -2890.5 -3000 3434.24169921875
v -2878 -3000 3430.892333984375
v -2868.849365234375 -3000 3421.74169921875
v -2865.5 -3000 3409.24169921875
v -2868.849365234375 -3000 3396.74169921875
v -2878 -3000 3387.591064453125
v -2890.5 -3000 3384.24169921875
v -2903 -3000 3387.591064453125
v -2912.150634765625 -3000 3396.74169921875
v -2915.5 -2840 3409.24169921875
v -2912.150634765625 -2840 3421.74169921875
v -2903 -2840 3430.892333984375
v -2890.5 -2840 3434.24169921875
v -2878 -2840 3430.892333984375
v -2868.849365234375 -2840 3421.74169921875
v -2865.5 -2840 3409.24169921875
v -2868.849365234375 -2840 3396.74169921875
v -2878 -2840 3387.591064453125
v -2890.5 -2840 3384.24169921875
v -2903 -2840 3387.591064453125
v -2912.150634765625 -2840 3396.74169921875
v -2915.5 -3000 3293.4833984375
v -2915.5 -2840 3293.4833984375
v -2912.150634765625 -3000 3305.9833984375
v -2912.150634765625 -2840 3305.9833984375
v -2912.150634765625 -3000 3305.9833984375
v -2912.150634765625 -2840 3305.9833984375
v -2903 -3000 3315.134033203125
v -2903 -2840 3315.134033203125
v -2903 -3000 3315.134033203125
v -2903 -2840 3315.134033203125
v -2890.5 -3000 3318.4833984375
v -2890.5 -2840 3318.4833984375
v -2890.5 -3000 3318.4833984375
v -2890.5 -2840 3318.4833984375
v -2878 -3000 3315.134033203125
v -2878 -2840 3315.134033203125
v -2878 -3000 3315.134033203125
v -2878 -2840 3315.134033203125
v -2868.849365234375 -3000 3305.9833984375
v -2868.849365234375 -2840 3305.9833984375
v -2868.849365234375 -3000 3305.9833984375
v -2868.849365234375 -2840 3305.9833984375
v -2865.5 -3000 3293.4833984375
v -2865.5 -2840 3293.4833984375
v -2865.5 -3000 3293.4833984375
v -2865.5 -2840 3293.4833984375
v -2868.849365234375 -3000 3280.9833984375
v -2868.849365234375 -2840 3280.9833984375
v -2868.849365234375 -3000 3280.9833984375
v -2868.849365234375 -2840 3280.9833984375
v -2878 -3000 3271.832763671875
v -2878 -2840 3271.832763671875
v -2878 -3000 3271.832763671875
v -2878 -2840 3271.832763671875
v -2890.5 -3000 3268.4833984375
v -2890.5 -2840 3268.4833984375
v -2890.5 -3000 3268.4833984375
v -2890.5 -2840 3268.4833984375
v -2903 -3000 3271.832763671875
v -2903 -2840 3271.832763671875
v -2903 -3000 3271.832763671875
v -2903 -2840 3271.832763671875
v -2912.150634765625 -3000 3280.9833984375
v -2912.150634765625 -2840 3280.9833984375
v -2912.150634765625 -3000 3280.9833984375
v -2912.150634765625 -2840 3280.9833984375
v -2915.5 -3000 3293.4833984375
v -2915.5 -2840 3293.4833984375
v -2915.5 -3000 3293.4833984375
v -2912.150634765625 -3000 3305.9833984375
v -2903 -3000 3315.134033203125
v -2890.5 -3000 3318.4833984375
v -2878 -3000 3315.134033203125
v -2868.849365234375 -3000 3305.9833984375
v -2865.5 -3000 3293.4833984375
v -2868.849365234375 -3000 3280.9833984375
v -2878 -3000 3271.832763671875
v -2890.5 -3000 3268.4833984375
v -2903 -3000 3271.832763671875
v -2912.150634765625 -3000 3280.9833984375
v -2915.5 -2840 3293.4833984375
v -2912.150634765625 -2840 3305.9833984375
v -2903 -2840 3315.134033203125
v -2890.5 -2840 3318.4833984375
v -2878 -2840 3315.134033203125
v -2868.849365234375 -2840 3305.9833984375
v -2865.5 -2840 3293.4833984375
v -2868.849365234375 -2840 3280.9833984375
v -2878 -2840 3271.832763671875
v -2890.5 -2840 3268.4833984375
v -2903 -2840 3271.832763671875
v -2912.150634765625 -2840 3280.9833984375
v -3000 -2915.5 3243.4833984375
v -2840 -2915.5 3243.4833984375
v -3000 -2912.150634765625 3255.9833984375
v -2840 -2912.150634765625 3255.9833984375
v -3000 -2912.150634765625 3255.9833984375
v -2840 -2912.150634765625 3255.9833984375
v -3000 -2903 3265.134033203125
v -2840 -2903 3265.134033203125
v -3000 -2903 3265.134033203125
v -2840 -2903 3265.134033203125
v -3000 -2890.5 3268.4833984375
v -2840 -2890.5 3268.4833984375
v -3000 -2890.5 3268.4833984375
v -2840 -2890.5 3268.4833984375
v -3000 -2878 3265.134033203125
v -2840 -2878 3265.134033203125
v -3000 -2878 3265.134033203125
v -2840 -2878 3265.134033203125
v -3000 -2868.849365234375 3255.9833984375
v -2840 -2868.849365234375 3255.9833984375
v -3000 -2868.849365234375 3255.9833984375
v -2840 -2868.849365234375 3255.9833984375
v -3000 -2865.5 3243.4833984375
v -2840 -2865.5 3243.4833984375
v -3000 -2865.5 3243.4833984375
v -2840 -2865.5 3243.4833984375
v -3000 -2868.849365234375 3230.9833984375
v -2840 -2868.849365234375 3230.9833984375
v -3000 -2868.849365234375 3230.9833984375
v -2840 -2868.849365234375 3230.9833984375
v -3000 -2878 3221.832763671875
v -2840 -2878 3221.832763671875
v -3000 -2878 3221.832763671875
v -2840 -2878 3221.832763671875
v -3000 -2890.5 3218.4833984375
v -2840 -2890.5 3218.4833984375
v -3000 -2890.5 3218.4833984375
v -2840 -2890.5 3218.4833984375
v -3000 -2903 3221.832763671875
v -2840 -2903 3221.832763671875
v -3000 -2903 3221.832763671875
v -2840 -2903 3221.832763671875
v -3000 -2912.150634765625 3230.9833984375
v -2840 -2912.150634765625 3230.9833984375
v -3000 -2912.150634765625 3230.9833984375
v -2840 -2912.150634765625 3230.9833984375
v -3000 -2915.5 3243.4833984375
v -2840 -2915.5 3243.4833984375
v -3000 -2915.5 3243.4833984375
v -3000 -2912.150634765625 3255.9833984375
v -3000 -2903 3265.134033203125
v -3000 -2890.5 3268.4833984375
v -3000 -2878 3265.134033203125
v -3000 -2868.849365234375 3255.9833984375
v -3000 -2865.5 3243.4833984375
v -3000 -2868.849365234375 3230.9833984375
v -3000 -2878 3221.832763671875
v -3000 -2890.5 3218.4833984375
v -3000 -2903 3221.832763671875
v -3000 -2912.150634765625 3230.9833984375
v -2840 -2915.5 3243.4833984375
v -2840 -2912.150634765625 3255.9833984375
v -2840 -2903 3265.134033203125
v -2840 -2890.5 3268.4833984375
v -2840 -2878 3265.134033203125
v -2840 -2868.849365234375 3255.9833984375
v -2840 -2865.5 3243.4833984375
v -2840 -2868.849365234375 3230.9833984375
v -2840 -2878 3221.832763671875
v -2840 -2890.5 3218.4833984375
v -2840 -2903 3221.832763671875
v -2840 -2912.150634765625 3230.9833984375
v -3000 -2915.5 3359.24169921875
v -2840 -2915.5 3359.24169921875
v -3000 -2912.150634765625 3371.74169921875
v -2840 -2912.150634765625 3371.74169921875
v -3000 -2912.150634765625 3371.74169921875
v -2840 -2912.150634765625 3371.74169921875
v -3000 -2903 3380.892333984375
v -2840 -2903 3380.892333984375
v -3000 -2903 3380.892333984375
v -2840 -2903 3380.892333984375
v -3000 -2890.5 3384.24169921875
v -2840 -2890.5 3384.24169921875
v -3000 -2890.5 3384.24169921875
v -2840 -2890.5 3384.24169921875
v -3000 -2878 3380.892333984375
v -2840 -2878 3380.892333984375
v -3000 -2878 3380.892333984375
v -2840 -2878 3380.892333984375
v -3000 -2868.849365234375 3371.74169921875
v -2840 -2868.849365234375 3371.74169921875
v -3000 -2868.849365234375 3371.74169921875
v -2840 -2868.849365234375 3371.74169921875
v -3000 -2865.5 3359.24169921875
v -2840 -2865.5 3359.24169921875
v -3000 -2865.5 3359.24169921875
v -2840 -2865.5 3359.24169921875
v -3000 -2868.849365234375 3346.74169921875
v -2840 -2868.849365234375 3346.74169921875
v -3000 -2868.849365234375 3346.74169921875
v -2840 -2868.849365234375 3346.74169921875
v -3000 -2878 3337.591064453125
v -2840 -2878 3337.591064453125
v -3000 -2878 3337.591064453125
v -2840 -2878 3337.591064453125
v -3000 -2890.5 3334.24169921875
v -2840 -2890.5 3334.24169921875
v -3000 -2890.5 3334.24169921875
v -2840 -2890.5 3334.24169921875
v -3000 -2903 3337.591064453125
v -2840 -2903 3337.591064453125
v -3000 -2903 3337.591064453125
v -2840 -2903 3337.591064453125
v -3000 -2912.150634765625 3346.74169921875
v -2840 -2912.150634765625 3346.74169921875
v -3000 -2912.150634765625 3346.74169921875
v -2840 -2912.150634765625 3346.74169921875
v -3000 -2915.5 3359.24169921875
v -2840 -2915.5 3359.24169921875
v -3000 -2915.5 3359.24169921875
v -3000 -2912.150634765625 3371.74169921875
v -3000 -2903 3380.892333984375
v -3000 -2890.5 3384.24169921875
v -3000 -2878 3380.892333984375
v -3000 -2868.849365234375 3371.74169921875
v -3000 -2865.5 3359.24169921875
v -3000 -2868.849365234375 3346.74169921875
v -3000 -2878 3337.591064453125
v -3000 -2890.5 3334.24169921875
v -3000 -2903 3337.591064453125
v -3000 -2912.150634765625 3346.74169921875
v -2840 -2915.5 3359.24169921875
v -2840 -2912.150634765625 3371.74169921875
v -2840 -2903 3380.892333984375
v -2840 -2890.5 3384.24169921875
v -2840 -2878 3380.892333984375
v -2840 -2868.849365234375 3371.74169921875
v -2840 -2865.5 3359.24169921875
v -2840 -2868.849365234375 3346.74169921875
v -2840 -2878 3337.591064453125
v -2840 -2890.5 3334.24169921875
v -2840 -2903 3337.591064453125
v -2840 -2912.150634765625 3346.74169921875
v -3000 -2650.5 3243.4833984375
v -2840 -2650.5 3243.4833984375
v -3000 -2647.150634765625 3255.9833984375
v -2840 -2647.150634765625 3255.9833984375
v -3000 -2647.150634765625 3255.9833984375
v -2840 -2647.150634765625 3255.9833984375
v -3000 -2638 3265.134033203125
v -2840 -2638 3265.134033203125
v -3000 -2638 3265.134033203125
v -2840 -2638 3265.134033203125
v -3000 -2625.5 3268.4833984375
v -2840 -2625.5 3268.4833984375
v -3000 -2625.5 3268.4833984375
v -2840 -2625.5 3268.4833984375
v -3000 -2613 3265.134033203125
v -2840 -2613 3265.134033203125
v -3000 -2613 3265.134033203125
v -2840 -2613 3265.134033203125
v -3000 -2603.849365234375 3255.9833984375
v -2840 -2603.849365234375 3255.9833984375
v -3000 -2603.849365234375 3255.9833984375
v -2840 -2603.849365234375 3255.9833984375
v -3000 -2600.5 3243.4833984375
v -2840 -2600.5 3243.4833984375
v -3000 -2600.5 3243.4833984375
v -2840 -2600.5 3243.4833984375
v -3000 -2603.849365234375 3230.9833984375
v -2840 -2603.849365234375 3230.9833984375
v -3000 -2603.849365234375 3230.9833984375
v -2840 -2603.849365234375 3230.9833984375
v -3000 -2613 3221.832763671875
v -2840 -2613 3221.832763671875
v -3000 -2613 3221.832763671875
v -2840 -2613 3221.832763671875
v -3000 -2625.5 3218.4833984375
v -2840 -2625.5 3218.4833984375
v -3000 -2625.5 3218.4833984375
v -2840 -2625.5 3218.4833984375
v -3000 -2638 3221.832763671875
v -2840 -2638 3221.832763671875
v -3000 -2638 3221.832763671875
v -2840 -2638 3221.832763671875
v -3000 -2647.150634765625 3230.9833984375
v -2840 -2647.150634765625 3230.9833984375
v -3000 -2647.150634765625 3230.9833984375
v -2840 -2647.150634765625 3230.9833984375
v -3000 -2650.5 3243.4833984375
v -2840 -2650.5 3243.4833984375
v -3000 -2650.5 3243.4833984375
v -3000 -2647.150634765625 3255.9833984375
v -3000 -2638 3265.134033203125
v -3000 -2625.5 3268.4833984375
v -3000 -2613 3265.134033203125
v -3000 -2603.849365234375 3255.9833984375
v -3000 -2600.5 3243.4833984375
v -3000 -2603.849365234375 3230.9833984375
v -3000 -2613 3221.832763671875
v -3000 -2625.5 3218.4833984375
v -3000 -2638 3221.832763671875
v -3000 -2647.150634765625 3230.9833984375
v -2840 -2650.5 3243.4833984375
v -2840 -2647.150634765625 3255.9833984375
v -2840 -2638 3265.134033203125
v -2840 -2625.5 3268.4833984375
v -2840 -2613 3265.134033203125
v -2840 -2603.849365234375 3255.9833984375
v -2840 -2600.5 3243.4833984375
v -2840 -2603.849365234375 3230.9833984375
v -2840 -2613 3221.832763671875
v -2840 -2625.5 3218.4833984375
v -2840 -2638 3221.832763671875
v -2840 -2647.150634765625 3230.9833984375
v -3000 -2650.5 3359.24169921875
v -2840 -2650.5 3359.24169921875
v -3000 -2647.150634765625 3371.74169921875
v -2840 -2647.150634765625 3371.74169921875
v -3000 -2647.150634765625 3371.74169921875
v -2840 -2647.150634765625 3371.74169921875
v -3000 -2638 3380.892333984375
v -2840 -2638 3380.892333984375
v -3000 -2638 3380.892333984375
v -2840 -2638 3380.892333984375
v -3000 -2625.5 3384.24169921875
v -2840 -2625.5 3384.24169921875
v -3000 -2625.5 3384.24169921875
v -2840 -2625.5 3384.24169921875
v -3000 -2613 3380.892333984375
v -2840 -2613 3380.892333984375
v -3000 -2613 3380.892333984375
v -2840 -2613 3380.892333984375
v -3000 -2603.849365234375 3371.74169921875
v -2840 -2603.849365234375 3371.74169921875
v -3000 -2603.849365234375 3371.74169921875
v -2840 -2603.849365234375 3371.74169921875
v -3000 -2600.5 3359.24169921875
v -2840 -2600.5 3359.24169921875
v -3000 -2600.5 3359.24169921875
v -2840 -2600.5 3359.24169921875
v -3000 -2603.849365234375 3346.74169921875
v -2840 -2603.849365234375 3346.74169921875
v -3000 -2603.849365234375 3346.74169921875
v -2840 -2603.849365234375 3346.74169921875
v -3000 -2613 3337.591064453125
v -2840 -2613 3337.591064453125
v -3000 -2613 3337.591064453125
v -2840 -2613 3337.591064453125
v -3000 -2625.5 3334.24169921875
v -2840 -2625.5 3334.24169921875
v -3000 -2625.5 3334.24169921875
v -2840 -2625.5 3334.24169921875
v -3000 -2638 3337.591064453125
v -2840 -2638 3337.591064453125
v -3000 -2638 3337.591064453125
v -2840 -2638 3337.591064453125
v -3000 -2647.150634765625 3346.74169921875
v -2840 -2647.150634765625 3346.74169921875
v -3000 -2647.150634765625 3346.74169921875
v -2840 -2647.150634765625 3346.74169921875
v -3000 -2650.5 3359.24169921875
v -2840 -2650.5 3359.24169921875
v -3000 -2650.5 3359.24169921875
v -3000 -2647.150634765625 3371.74169921875
v -3000 -2638 3380.892333984375
v -3000 -2625.5 3384.24169921875
v -3000 -2613 3380.892333984375
v -3000 -2603.849365234375 3371.74169921875
v -3000 -2600.5 3359.24169921875
v -3000 -2603.849365234375 3346.74169921875
v -3000 -2613 3337.591064453125
v -3000 -2625.5 3334.24169921875
v -3000 -2638 3337.591064453125
v -3000 -2647.150634765625 3346.74169921875
v -2840 -2650.5 3359.24169921875
v -2840 -2647.150634765625 3371.74169921875
v -2840 -2638 3380.892333984375
v -2840 -2625.5 3384.24169921875
v -2840 -2613 3380.892333984375
v -2840 -2603.849365234375 3371.74169921875
v -2840 -2600.5 3359.24169921875
v -2840 -2603.849365234375 3346.74169921875
v -2840 -2613 3337.591064453125
v -2840 -2625.5 3334.24169921875
v -2840 -2638 3337.591064453125
v -2840 -2647.150634765625 3346.74169921875
v -2945 -2950 3500
v -2512.0322265625 -2950 3500
v -2945 -2971 3500
v -2512.0322265625 -2971 3500
v -2945 -2971 3152.72509765625
v -2512.0322265625 -2971 3152.72509765625
v -2945 -2950 3152.72509765625
v -2512.0322265625 -2950 3152.72509765625
v -2945 -2971 3500
v -2512.0322265625 -2971 3500
v -2945 -2971 3152.72509765625
v -2512.0322265625 -2971 3152.72509765625
v -2512.0322265625 -2971 3500
v -2512.0322265625 -2950 3500
v -2512.0322265625 -2971 3152.72509765625
v -2512.0322265625 -2950 3152.72509765625
v -2512.0322265625 -2950 3500
v -2945 -2950 3500
v -2512.0322265625 -2950 3152.72509765625
v -2945 -2950 3152.72509765625
v -2945 -2950 3500
v -2945 -2971 3500
v -2945 -2950 3152.72509765625
v -2945 -2971 3152.72509765625
v -2971 -2512.0322265625 3500
v -2950 -2512.0322265625 3500
v -2971 -2945 3500
v -2950 -2945 3500
v -2971 -2945 3152.72509765625
v -2950 -2945 3152.72509765625
v -2971 -2512.0322265625 3152.72509765625
v -2950 -2512.0322265625 3152.72509765625
v -2971 -2945 3500
v -2950 -2945 3500
v -2971 -2945 3152.72509765625
v -2950 -2945 3152.72509765625
v -2950 -2945 3500
v -2950 -2512.0322265625 3500
v -2950 -2945 3152.72509765625
v -2950 -2512.0322265625 3152.72509765625
v -2950 -2512.0322265625 3500
v -2971 -2512.0322265625 3500
v -2950 -2512.0322265625 3152.72509765625
v -2971 -2512.0322265625 3152.72509765625
v -2971 -2512.0322265625 3500
v -2971 -2945 3500
v -2971 -2512.0322265625 3152.72509765625
v -2971 -2945 3152.72509765625
f 1 3 4 2
f 5 7 8 6
f 9 11 12 10
f 13 15 16 14
f 17 19 20 18
f 21 23 24 22
f 25 27 28 26
f 29 31 32 30
f 33 35 36 34
f 37 39 40 38
f 41 43 44 42
f 45 47 48 46
f 50 54 51
f 50 60 54
f 52 51 53
f 54 53 51
f 60 50 49
f 59 57 60
f 58 57 59
f 54 56 55
f 57 56 60
f 60 56 54
f 62 63 66
f 62 66 72
f 64 65 63
f 66 63 65
f 72 61 62
f 71 72 69
f 70 71 69
f 66 67 68
f 69 72 68
f 72 66 68
f 73 75 76 74
f 77 79 80 78
f 81 83 84 82
f 85 87 88 86
f 89 91 92 90
f 93 95 96 94
f 97 99 100 98
f 101 103 104 102
f 105 107 108 106
f 109 111 112 110
f 113 115 116 114
f 117 119 120 118
f 122 126 123
f 122 132 126
f 124 123 125
f 126 125 123
f 132 122 121
f 131 129 132
f 130 129 131
f 126 128 127
f 129 128 132
f 132 128 126
f 134 135 138
f 134 138 144
f 136 137 135
f 138 135 137
f 144 133 134
f 143 144 141
f 142 143 141
f 138 139 140
f 141 144 140
f 144 138 140
f 145 147 148 146
f 149 151 152 150
f 153 155 156 154
f 157 159 160 158
f 161 163 164 162
f 165 167 168 166
f 169 171 172 170
f 173 175 176 174
f 177 179 180 178
f 181 183 184 182
f 185 187 188 186
f 189 191 192 190
f 194 198 195
f 194 204 198
f 196 195 197
f 198 197 195
f 204 194 193
f 203 201 204
f 202 201 203
f 198 200 199
f 201 200 204
f 204 200 198
f 206 207 210
f 206 210 216
f 208 209 207
f 210 207 209
f 216 205 206
f 215 216 213
f 214 215 213
f 210 211 212
f 213 216 212
f 216 210 212
f 217 219 220 218
f 221 223 224 222
f 225 227 228 226
f 229 231 232 230
f 233 235 236 234
f 237 239 240 238
f 241 243 244 242
f 245 247 248 246
f 249 251 252 250
f 253 255 256 254
f 257 259 260 258
f 261 263 264 262
f 266 270 267
f 266 276 270
f 268 267 269
f 270 269 267
f 276 266 265
f 275 273 276
f 274 273 275
f 270 272 271
f 273 272 276
f 276 272 270
f 278 279 282
f 278 282 288
f 280 281 279
f 282 279 281
f 288 277 278
f 287 288 285
f 286 287 285
f 282 283 284
f 285 288 284
f 288 282 284
f 289 290 292 291
f 293 294 296 295
f 297 298 300 299
f 301 302 304 303
f 305 306 308 307
f 309 310 312 311
f 313 314 316 315
f 317 318 320 319
f 321 322 324 323
f 325 326 328 327
f 329 330 332 331
f 333 334 336 335
f 338 339 342
f 338 342 348
f 340 341 339
f 342 339 341
f 348 337 338
f 347 348 345
f 346 347 345
f 342 343 344
f 345 348 344
f 348 342 344
f 350 354 351
f 350 360 354
f 352 351 353
f 354 353 351
f 360 350 349
f 359 357 360
f 358 357 359
f 354 356 355
f 357 356 360
f 360 356 354
f 361 362 364 363
f 365 366 368 367
f 369 370 372 371
f 373 374 376 375
f 377 378 380 379
f 381 382 384 383
f 385 386 388 387
f 389 390 392 391
f 393 394 396 395
f 397 398 400 399
f 401 402 404 403
f 405 406 408 407
f 410 411 414
f 410 414 420
f 412 413 411
f 414 411 413
f 420 409 410
f 419 420 417
f 418 419 417
f 414 415 416
f 417 420 416
f 420 414 416
f 422 426 423
f 422 432 426
f 424 423 425
f 426 425 423
f 432 422 421
f 431 429 432
f 430 429 431
f 426 428 427
f 429 428 432
f 432 428 426
f 433 434 436 435
f 437 438 440 439
f 441 442 444 443
f 445 446 448 447
f 449 450 452 451
f 453 454 456 455
f 457 458 460 459
f 461 462 464 463
f 465 466 468 467
f 469 470 472 471
f 473 474 476 475
f 477 478 480 479
f 482 483 486
f 482 486 492
f 484 485 483
f 486 483 485
f 492 481 482
f 491 492 489
f 490 491 489
f 486 487 488
f 489 492 488
f 492 486 488
f 494 498 495
f 494 504 498
f 496 495 497
f 498 497 495
f 504 494 493
f 503 501 504
f 502 501 503
f 498 500 499
f 501 500 504
f 504 500 498
f 505 506 508 507
f 509 510 512 511
f 513 514 516 515
f 517 518 520 519
f 521 522 524 523
f 525 526 528 527
f 529 530 532 531
f 533 534 536 535
f 537 538 540 539
f 541 542 544 543
f 545 546 548 547
f 549 550 552 551
f 554 555 558
f 554 558 564
f 556 557 555
f 558 555 557
f 564 553 554
f 563 564 561
f 562 563 561
f 558 559 560
f 561 564 560
f 564 558 560
f 566 570 567
f 566 576 570
f 568 567 569
f 570 569 567
f 576 566 565
f 575 573 576
f 574 573 575
f 570 572 571
f 573 572 576
f 576 572 570
f 577 579 580 578
f 581 583 584 582
f 585 587 588 586
f 589 591 592 590
f 593 595 596 594
f 597 599 600 598
f 601 603 604 602
f 605 607 608 606
f 609 611 612 610
f 613 615 616 614
f 617 619 620 618
f 621 623 624 622
