ISO-10303-21;
HEADER;
FILE_DESCRIPTION(('ViewDefinition [CoordinationView]'),'2;1');
FILE_NAME('','2026-08-20T17:08:45',(''),(''),'IfcOpenShell 0.8.4-e8eb5e4','IfcOpenShell 0.8.4-e8eb5e4','');
FILE_SCHEMA(('IFC4'));
ENDSEC;
DATA;
#1=IFCPROJECT('2r2FJN8sT2Ix9vPpndTXaE',$,'Default Project',$,$,$,$,(#11),#6);
#2=IFCSIUNIT(*,.LENGTHUNIT.,.MILLI.,.METRE.);
#3=IFCSIUNIT(*,.AREAUNIT.,.MILLI.,.SQUARE_METRE.);
#4=IFCSIUNIT(*,.VOLUMEUNIT.,.MILLI.,.CUBIC_METRE.);
#5=IFCSIUNIT(*,.PLANEANGLEUNIT.,$,.RADIAN.);
#6=IFCUNITASSIGNMENT((#2,#3,#4,#5));
#7=IFCCARTESIANPOINT((0.,0.,0.));
#8=IFCDIRECTION((0.,0.,1.));
#9=IFCDIRECTION((1.,0.,0.));
#10=IFCAXIS2PLACEMENT3D(#7,#8,#9);
#11=IFCGEOMETRICREPRESENTATIONCONTEXT($,'Model',3,1.E-05,#10,$);
#12=IFCGEOMETRICREPRESENTATIONSUBCONTEXT('Body','Model',*,*,*,*,#11,$,.MODEL_VIEW.,$);
#13=IFCPERSON($,'Unknown Author',$,$,$,$,$,$);
#14=IFCORGANIZATION($,'compas.dev',$,$,$);
#15=IFCPERSONANDORGANIZATION(#13,#14,$);
#16=IFCAPPLICATION(#14,'2.1.0','compas_ifc','compas_ifc v2.1.0');
#17=IFCOWNERHISTORY(#15,#16,$,$,$,$,$,1787238525);
#18=IFCSITE('2WU3UDk41EP9gUQAo1BOzF',$,'Default Site',$,$,$,$,$,$,$,$,$,$,$);
#19=IFCRELAGGREGATES('3t70KurKjEAA_C$a53WQ7I',$,$,$,#1,(#18));
#20=IFCBUILDING('3_Dt1_RcfBBwb5dTh0uxhO',$,'Default Building 1',$,$,$,$,$,$,$,$,$);
#21=IFCRELAGGREGATES('3IluLF3Q5FLfXsuhc3d_bV',$,$,$,#18,(#20));
#22=IFCBUILDINGSTOREY('2ek04lwQ96TuD$eIB5wG9k',$,'Default Storey 1',$,$,$,$,$,$,$);
#23=IFCRELAGGREGATES('02TQElOCL4gx7nFG_3SRZB',$,$,$,#20,(#22));
#24=IFCBUILDINGELEMENTPROXY('1Vps7jBd5DXh9BJmHIlJe8',$,'beds_0_0_0_uncut',$,$,$,#37,$,$);
#25=IFCRELCONTAINEDINSPATIALSTRUCTURE('0DQ$s_$wn6mOX5F8zeCtc2',$,$,$,(#24),#22);
#26=IFCINDEXEDPOLYGONALFACE((1,2,6,5));
#27=IFCINDEXEDPOLYGONALFACE((2,3,7,6));
#28=IFCINDEXEDPOLYGONALFACE((3,4,8,7));
#29=IFCINDEXEDPOLYGONALFACE((4,1,5,8));
#30=IFCINDEXEDPOLYGONALFACE((1,4,3));
#31=IFCINDEXEDPOLYGONALFACE((3,2,1));
#32=IFCINDEXEDPOLYGONALFACE((8,5,6));
#33=IFCINDEXEDPOLYGONALFACE((6,7,8));
#34=IFCCARTESIANPOINTLIST3D(((2.98232928695015E-13,1787.63401241954,27.0000000000009),(3.03090885722668E-13,1875.14718625761,27.0000000000009),(585.656256742707,1875.14718625761,27.0000000000009),(585.656256742707,1407.97264010657,27.0000000000009),(4.60228447522145,1790.37349951013,9.09494701772928E-13),(4.60228447522146,1875.14718625761,9.09494701772928E-13),(586.393711534977,1875.14718625761,1.02318153949454E-12),(586.393711534977,1413.21756707643,1.02318153949454E-12)));
#35=IFCPOLYGONALFACESET(#34,.T.,(#26,#27,#28,#29,#30,#31,#32,#33),$);
#36=IFCSHAPEREPRESENTATION(#12,'Body','Tessellation',(#35));
#37=IFCPRODUCTDEFINITIONSHAPE($,$,(#36));
#38=IFCBUILDINGELEMENTPROXY('3Z_Lv_Fy163R0yhWetcUV5',$,'beds_0_0_0',$,$,$,#51,$,$);
#39=IFCRELCONTAINEDINSPATIALSTRUCTURE('3sIrbIvnD2PfRPKJ6tKKxV',$,$,$,(#38),#22);
#40=IFCINDEXEDPOLYGONALFACE((1,2,6,5));
#41=IFCINDEXEDPOLYGONALFACE((2,3,7,6));
#42=IFCINDEXEDPOLYGONALFACE((3,4,8,7));
#43=IFCINDEXEDPOLYGONALFACE((4,1,5,8));
#44=IFCINDEXEDPOLYGONALFACE((1,4,3));
#45=IFCINDEXEDPOLYGONALFACE((3,2,1));
#46=IFCINDEXEDPOLYGONALFACE((8,5,6));
#47=IFCINDEXEDPOLYGONALFACE((6,7,8));
#48=IFCCARTESIANPOINTLIST3D(((0.,1787.63401241954,27.0000000000008),(-2.27373675443232E-13,1875.14718625761,27.0000000000008),(585.656256742707,1875.14718625761,27.0000000000013),(585.656256742707,1407.97264010657,27.0000000000013),(4.60228447522059,1790.37349951013,1.13686837721616E-12),(4.60228447522059,1875.14718625761,1.13686837721616E-12),(586.393711534977,1875.14718625761,1.25055521493778E-12),(586.393711534977,1413.21756707643,1.25055521493778E-12)));
#49=IFCPOLYGONALFACESET(#48,.T.,(#40,#41,#42,#43,#44,#45,#46,#47),$);
#50=IFCSHAPEREPRESENTATION(#12,'Body','Tessellation',(#49));
#51=IFCPRODUCTDEFINITIONSHAPE($,$,(#50));
#52=IFCBUILDINGELEMENTPROXY('3xQHhtUtn3SfGNaRxKPzb9',$,'beds_0_1_0_uncut',$,$,$,#65,$,$);
#53=IFCRELCONTAINEDINSPATIALSTRUCTURE('2atS_2Lgj0_wywPwdIxlLm',$,$,$,(#52),#22);
#54=IFCINDEXEDPOLYGONALFACE((1,2,6,5));
#55=IFCINDEXEDPOLYGONALFACE((2,3,7,6));
#56=IFCINDEXEDPOLYGONALFACE((3,4,8,7));
#57=IFCINDEXEDPOLYGONALFACE((4,1,5,8));
#58=IFCINDEXEDPOLYGONALFACE((1,4,3));
#59=IFCINDEXEDPOLYGONALFACE((3,2,1));
#60=IFCINDEXEDPOLYGONALFACE((8,5,6));
#61=IFCINDEXEDPOLYGONALFACE((6,7,8));
#62=IFCCARTESIANPOINTLIST3D(((587.131166327251,1407.97264010657,27.0000000000011),(587.131166327251,1875.14718625761,27.0000000000011),(1026.84815286803,1875.14718625761,27.0000000000013),(1026.84815286803,1118.25623356048,27.0000000000013),(586.393711534977,1413.21756707643,1.30739863379858E-12),(586.393711534977,1875.14718625761,1.30739863379858E-12),(1027.60779276773,1875.14718625761,1.59161572810262E-12),(1027.60779276773,1122.51476949316,1.59161572810262E-12)));
#63=IFCPOLYGONALFACESET(#62,.T.,(#54,#55,#56,#57,#58,#59,#60,#61),$);
#64=IFCSHAPEREPRESENTATION(#12,'Body','Tessellation',(#63));
#65=IFCPRODUCTDEFINITIONSHAPE($,$,(#64));
#66=IFCBUILDINGELEMENTPROXY('2t9yAeUD9EE9FAHevfXZKR',$,'beds_0_1_0',$,$,$,#79,$,$);
#67=IFCRELCONTAINEDINSPATIALSTRUCTURE('1yjc__Cu96R8DWgl_cbIq4',$,$,$,(#66),#22);
#68=IFCINDEXEDPOLYGONALFACE((1,2,6,5));
#69=IFCINDEXEDPOLYGONALFACE((2,3,7,6));
#70=IFCINDEXEDPOLYGONALFACE((3,4,8,7));
#71=IFCINDEXEDPOLYGONALFACE((4,1,5,8));
#72=IFCINDEXEDPOLYGONALFACE((1,4,3));
#73=IFCINDEXEDPOLYGONALFACE((3,2,1));
#74=IFCINDEXEDPOLYGONALFACE((8,5,6));
#75=IFCINDEXEDPOLYGONALFACE((6,7,8));
#76=IFCCARTESIANPOINTLIST3D(((587.131166327251,1407.97264010657,27.0000000000009),(587.131166327251,1875.14718625761,27.0000000000009),(1026.84815286803,1875.14718625761,27.0000000000013),(1026.84815286803,1118.25623356048,27.0000000000013),(586.393711534977,1413.21756707643,1.02318153949454E-12),(586.393711534977,1875.14718625761,1.02318153949454E-12),(1027.60779276773,1875.14718625761,1.70530256582424E-12),(1027.60779276773,1122.51476949316,1.70530256582424E-12)));
#77=IFCPOLYGONALFACESET(#76,.T.,(#68,#69,#70,#71,#72,#73,#74,#75),$);
#78=IFCSHAPEREPRESENTATION(#12,'Body','Tessellation',(#77));
#79=IFCPRODUCTDEFINITIONSHAPE($,$,(#78));
#80=IFCBUILDINGELEMENTPROXY('2VYgKaXjf9swYmEQaC78CN',$,'beds_0_2_0_uncut',$,$,$,#93,$,$);
#81=IFCRELCONTAINEDINSPATIALSTRUCTURE('2QS3fLSC53COp4muqq9DYh',$,$,$,(#80),#22);
#82=IFCINDEXEDPOLYGONALFACE((1,2,6,5));
#83=IFCINDEXEDPOLYGONALFACE((2,3,7,6));
#84=IFCINDEXEDPOLYGONALFACE((3,4,8,7));
#85=IFCINDEXEDPOLYGONALFACE((4,1,5,8));
#86=IFCINDEXEDPOLYGONALFACE((1,4,3));
#87=IFCINDEXEDPOLYGONALFACE((3,2,1));
#88=IFCINDEXEDPOLYGONALFACE((8,5,6));
#89=IFCINDEXEDPOLYGONALFACE((6,7,8));
#90=IFCCARTESIANPOINTLIST3D(((1028.36743266742,1118.25623356048,27.0000000000014),(1028.36743266742,1875.14718625761,27.0000000000014),(1462.30494028976,1875.14718625761,27.0000000000012),(1462.30494028976,828.499584573262,27.0000000000012),(1027.60779276773,1122.51476949316,1.59161572810262E-12),(1027.60779276773,1875.14718625761,1.59161572810262E-12),(1463.08277942703,1875.14718625761,1.4495071809506E-12),(1463.08277942703,831.731487025748,1.4495071809506E-12)));
#91=IFCPOLYGONALFACESET(#90,.T.,(#82,#83,#84,#85,#86,#87,#88,#89),$);
#92=IFCSHAPEREPRESENTATION(#12,'Body','Tessellation',(#91));
#93=IFCPRODUCTDEFINITIONSHAPE($,$,(#92));
#94=IFCBUILDINGELEMENTPROXY('0913UAaPH5rPG12fV7X9qq',$,'beds_0_2_0',$,$,$,#107,$,$);
#95=IFCRELCONTAINEDINSPATIALSTRUCTURE('3bCB$u2Gf4Oe$Wf4PtNTkY',$,$,$,(#94),#22);
#96=IFCINDEXEDPOLYGONALFACE((1,2,6,5));
#97=IFCINDEXEDPOLYGONALFACE((2,3,7,6));
#98=IFCINDEXEDPOLYGONALFACE((3,4,8,7));
#99=IFCINDEXEDPOLYGONALFACE((4,1,5,8));
#100=IFCINDEXEDPOLYGONALFACE((1,4,3));
#101=IFCINDEXEDPOLYGONALFACE((3,2,1));
#102=IFCINDEXEDPOLYGONALFACE((8,5,6));
#103=IFCINDEXEDPOLYGONALFACE((6,7,8));
#104=IFCCARTESIANPOINTLIST3D(((1028.36743266742,1118.25623356048,27.0000000000016),(1028.36743266742,1875.14718625761,27.0000000000016),(1462.30494028976,1875.14718625761,27.0000000000014),(1462.30494028976,828.499584573261,27.0000000000014),(1027.60779276773,1122.51476949316,1.81898940354586E-12),(1027.60779276773,1875.14718625761,1.81898940354586E-12),(1463.08277942703,1875.14718625761,1.70530256582424E-12),(1463.08277942703,831.731487025748,1.70530256582424E-12)));
#105=IFCPOLYGONALFACESET(#104,.T.,(#96,#97,#98,#99,#100,#101,#102,#103),$);
#106=IFCSHAPEREPRESENTATION(#12,'Body','Tessellation',(#105));
#107=IFCPRODUCTDEFINITIONSHAPE($,$,(#106));
#108=IFCBUILDINGELEMENTPROXY('28VMxjeqL2w9eRI4AkSlPa',$,'beds_0_3_0_uncut',$,$,$,#121,$,$);
#109=IFCRELCONTAINEDINSPATIALSTRUCTURE('1CUr8wgvHBtfQuXjj_pH41',$,$,$,(#108),#22);
#110=IFCINDEXEDPOLYGONALFACE((1,2,6,5));
#111=IFCINDEXEDPOLYGONALFACE((2,3,7,6));
#112=IFCINDEXEDPOLYGONALFACE((3,4,8,7));
#113=IFCINDEXEDPOLYGONALFACE((4,1,5,8));
#114=IFCINDEXEDPOLYGONALFACE((1,4,3));
#115=IFCINDEXEDPOLYGONALFACE((3,2,1));
#116=IFCINDEXEDPOLYGONALFACE((8,5,6));
#117=IFCINDEXEDPOLYGONALFACE((6,7,8));
#118=IFCCARTESIANPOINTLIST3D(((1463.86061856429,828.499584573262,27.0000000000018),(1463.86061856429,1875.14718625761,27.0000000000018),(1893.41303734777,1875.14718625761,27.0000000000011),(1893.41303734777,538.710926934457,27.0000000000011),(1463.08277942703,831.731487025748,1.90425453183707E-12),(1463.08277942703,1875.14718625761,1.90425453183707E-12),(1894.20441866203,1875.14718625761,1.10844666778576E-12),(1894.20441866203,540.884187255501,1.10844666778576E-12)));
#119=IFCPOLYGONALFACESET(#118,.T.,(#110,#111,#112,#113,#114,#115,#116,#117),$);
#120=IFCSHAPEREPRESENTATION(#12,'Body','Tessellation',(#119));
#121=IFCPRODUCTDEFINITIONSHAPE($,$,(#120));
#122=IFCBUILDINGELEMENTPROXY('3OEKkbVuzDKAPw5wyLquSb',$,'beds_0_3_0',$,$,$,#135,$,$);
#123=IFCRELCONTAINEDINSPATIALSTRUCTURE('1neQQCBFX3sfqiGwuFANBT',$,$,$,(#122),#22);
#124=IFCINDEXEDPOLYGONALFACE((1,2,6,5));
#125=IFCINDEXEDPOLYGONALFACE((2,3,7,6));
#126=IFCINDEXEDPOLYGONALFACE((3,4,8,7));
#127=IFCINDEXEDPOLYGONALFACE((4,1,5,8));
#128=IFCINDEXEDPOLYGONALFACE((1,4,3));
#129=IFCINDEXEDPOLYGONALFACE((3,2,1));
#130=IFCINDEXEDPOLYGONALFACE((8,5,6));
#131=IFCINDEXEDPOLYGONALFACE((6,7,8));
#132=IFCCARTESIANPOINTLIST3D(((1463.86061856429,828.499584573261,27.000000000002),(1463.86061856429,1875.14718625761,27.000000000002),(1893.41303734777,1875.14718625761,27.0000000000007),(1893.41303734777,538.710926934456,27.0000000000007),(1463.08277942703,831.731487025748,1.76214598468505E-12),(1463.08277942702,1875.14718625761,1.76214598468505E-12),(1894.20441866203,1875.14718625761,1.30739863379858E-12),(1894.20441866203,540.8841872555,1.30739863379858E-12)));
#133=IFCPOLYGONALFACESET(#132,.T.,(#124,#125,#126,#127,#128,#129,#130,#131),$);
#134=IFCSHAPEREPRESENTATION(#12,'Body','Tessellation',(#133));
#135=IFCPRODUCTDEFINITIONSHAPE($,$,(#134));
#136=IFCBUILDINGELEMENTPROXY('2UUu1iEYr1m9OZxqcnwzAT',$,'beds_0_4_0_uncut',$,$,$,#149,$,$);
#137=IFCRELCONTAINEDINSPATIALSTRUCTURE('1_7KVwZwH5JRH0ongb9B8g',$,$,$,(#136),#22);
#138=IFCINDEXEDPOLYGONALFACE((1,2,6,5));
#139=IFCINDEXEDPOLYGONALFACE((2,3,7,6));
#140=IFCINDEXEDPOLYGONALFACE((3,4,8,7));
#141=IFCINDEXEDPOLYGONALFACE((4,1,5,8));
#142=IFCINDEXEDPOLYGONALFACE((1,4,3));
#143=IFCINDEXEDPOLYGONALFACE((3,2,1));
#144=IFCINDEXEDPOLYGONALFACE((8,5,6));
#145=IFCINDEXEDPOLYGONALFACE((6,7,8));
#146=IFCCARTESIANPOINTLIST3D(((1894.9957999763,538.710926934457,27.0000000000005),(1894.9957999763,1875.14718625761,27.0000000000005),(2321.60006165943,1875.14718625761,27.0000000000001),(2321.60006165943,248.899996433842,27.0000000000001),(1894.20441866203,540.884187255501,4.83169060316868E-13),(1894.20441866203,1875.14718625761,4.83169060316868E-13),(2322.39979680718,1875.14718625761,1.70530256582424E-13),(2322.39979680718,249.992341762212,1.70530256582424E-13)));
#147=IFCPOLYGONALFACESET(#146,.T.,(#138,#139,#140,#141,#142,#143,#144,#145),$);
#148=IFCSHAPEREPRESENTATION(#12,'Body','Tessellation',(#147));
#149=IFCPRODUCTDEFINITIONSHAPE($,$,(#148));
#150=IFCBUILDINGELEMENTPROXY('3HOTzuxKH0tuJ7b5whIwG3',$,'beds_0_4_0',$,$,$,#163,$,$);
#151=IFCRELCONTAINEDINSPATIALSTRUCTURE('26IswdPVzEdALlvfVonyfU',$,$,$,(#150),#22);
#152=IFCINDEXEDPOLYGONALFACE((1,2,6,5));
#153=IFCINDEXEDPOLYGONALFACE((2,3,7,6));
#154=IFCINDEXEDPOLYGONALFACE((3,4,8,7));
#155=IFCINDEXEDPOLYGONALFACE((4,1,5,8));
#156=IFCINDEXEDPOLYGONALFACE((1,4,3));
#157=IFCINDEXEDPOLYGONALFACE((3,2,1));
#158=IFCINDEXEDPOLYGONALFACE((8,5,6));
#159=IFCINDEXEDPOLYGONALFACE((6,7,8));
#160=IFCCARTESIANPOINTLIST3D(((1894.9957999763,538.710926934456,27.0000000000005),(1894.9957999763,1875.14718625761,27.0000000000005),(2321.60006165943,1875.14718625761,27.0000000000004),(2321.60006165943,248.899996433842,27.0000000000004),(1894.20441866203,540.8841872555,1.02318153949454E-12),(1894.20441866203,1875.14718625761,1.02318153949454E-12),(2322.39979680718,1875.14718625761,0.),(2322.39979680718,249.992341762212,0.)));
#161=IFCPOLYGONALFACESET(#160,.T.,(#152,#153,#154,#155,#156,#157,#158,#159),$);
#162=IFCSHAPEREPRESENTATION(#12,'Body','Tessellation',(#161));
#163=IFCPRODUCTDEFINITIONSHAPE($,$,(#162));
#164=IFCBUILDINGELEMENTPROXY('02sIOB8fzDFBE6Y8_VU7P3',$,'beds_0_5_0_uncut',$,$,$,#177,$,$);
#165=IFCRELCONTAINEDINSPATIALSTRUCTURE('1g3tU1kgLAVBgahELS9RBm',$,$,$,(#164),#22);
#166=IFCINDEXEDPOLYGONALFACE((1,2,6,5));
#167=IFCINDEXEDPOLYGONALFACE((2,3,7,6));
#168=IFCINDEXEDPOLYGONALFACE((3,4,8,7));
#169=IFCINDEXEDPOLYGONALFACE((4,1,5,8));
#170=IFCINDEXEDPOLYGONALFACE((1,4,3));
#171=IFCINDEXEDPOLYGONALFACE((3,2,1));
#172=IFCINDEXEDPOLYGONALFACE((8,5,6));
#173=IFCINDEXEDPOLYGONALFACE((6,7,8));
#174=IFCCARTESIANPOINTLIST3D(((2323.19953195494,248.899996433842,27.0000000000005),(2323.19953195494,1875.14718625761,27.0000000000005),(2688.29563391313,1875.14718625761,27.0000000000011),(2688.29563391313,4.56184299763114E-13,27.0000000000011),(2322.39979680718,249.992341762213,4.74287276119867E-13),(2322.39979680718,1875.14718625761,4.74287276119867E-13),(2689.09819296824,1875.14718625761,1.0653700144303E-12),(2689.09819296824,4.55434568231716E-13,1.0653700144303E-12)));
#175=IFCPOLYGONALFACESET(#174,.T.,(#166,#167,#168,#169,#170,#171,#172,#173),$);
#176=IFCSHAPEREPRESENTATION(#12,'Body','Tessellation',(#175));
#177=IFCPRODUCTDEFINITIONSHAPE($,$,(#176));
#178=IFCBUILDINGELEMENTPROXY('3ULSonHvv2jOflZaC6ablU',$,'beds_0_5_0',$,$,$,#191,$,$);
#179=IFCRELCONTAINEDINSPATIALSTRUCTURE('3ZwsRy1Cj3HvZJFAODiTgy',$,$,$,(#178),#22);
#180=IFCINDEXEDPOLYGONALFACE((1,2,6,5));
#181=IFCINDEXEDPOLYGONALFACE((2,3,7,6));
#182=IFCINDEXEDPOLYGONALFACE((3,4,8,7));
#183=IFCINDEXEDPOLYGONALFACE((4,1,5,8));
#184=IFCINDEXEDPOLYGONALFACE((1,4,3));
#185=IFCINDEXEDPOLYGONALFACE((3,2,1));
#186=IFCINDEXEDPOLYGONALFACE((8,5,6));
#187=IFCINDEXEDPOLYGONALFACE((6,7,8));
#188=IFCCARTESIANPOINTLIST3D(((2323.19953195494,248.899996433842,27.0000000000006),(2323.19953195494,1875.14718625761,27.0000000000006),(2688.29563391313,1875.14718625761,27.0000000000013),(2688.29563391313,1.70530256582424E-13,27.0000000000013),(2322.39979680718,249.992341762212,1.35003119794419E-13),(2322.39979680718,1875.14718625761,1.35003119794419E-13),(2689.09819296824,1875.14718625761,1.26476606965298E-12),(2689.09819296824,-5.6843418860808E-14,1.26476606965298E-12)));
#189=IFCPOLYGONALFACESET(#188,.T.,(#180,#181,#182,#183,#184,#185,#186,#187),$);
#190=IFCSHAPEREPRESENTATION(#12,'Body','Tessellation',(#189));
#191=IFCPRODUCTDEFINITIONSHAPE($,$,(#190));
#192=IFCBUILDINGELEMENTPROXY('0MsWNu50r1C9Vf$V0U7jcQ',$,'beds_1_0_0_uncut',$,$,$,#205,$,$);
#193=IFCRELCONTAINEDINSPATIALSTRUCTURE('0G9lGz38nC8PP9m3xYl09c',$,$,$,(#192),#22);
#194=IFCINDEXEDPOLYGONALFACE((1,2,6,5));
#195=IFCINDEXEDPOLYGONALFACE((2,3,7,6));
#196=IFCINDEXEDPOLYGONALFACE((3,4,8,7));
#197=IFCINDEXEDPOLYGONALFACE((4,1,5,8));
#198=IFCINDEXEDPOLYGONALFACE((1,4,3));
#199=IFCINDEXEDPOLYGONALFACE((3,2,1));
#200=IFCINDEXEDPOLYGONALFACE((8,5,6));
#201=IFCINDEXEDPOLYGONALFACE((6,7,8));
#202=IFCCARTESIANPOINTLIST3D(((0.,2578.24214668677,27.3900826259132),(686.63850544028,2703.39629411722,27.494561928649),(686.638505440281,2389.28082804593,27.4945619286491),(0.,2514.43497547637,27.3900826259134),(2.57946946392903,2577.33908359892,1.70530256582424E-13),(684.686748870633,2701.6673208502,0.103789828823892),(684.686748870634,2391.00980131294,0.103789828823949),(2.57946946392903,2515.33803856423,1.13686837721616E-13)));
#203=IFCPOLYGONALFACESET(#202,.T.,(#194,#195,#196,#197,#198,#199,#200,#201),$);
#204=IFCSHAPEREPRESENTATION(#12,'Body','Tessellation',(#203));
#205=IFCPRODUCTDEFINITIONSHAPE($,$,(#204));
#206=IFCBUILDINGELEMENTPROXY('0PzfL7C8n1hPh_YejHZfKz',$,'beds_1_0_0',$,$,$,#219,$,$);
#207=IFCRELCONTAINEDINSPATIALSTRUCTURE('25j4fxUSX8mPq1iqkjsGRv',$,$,$,(#206),#22);
#208=IFCINDEXEDPOLYGONALFACE((1,2,6,5));
#209=IFCINDEXEDPOLYGONALFACE((2,3,7,6));
#210=IFCINDEXEDPOLYGONALFACE((3,4,8,7));
#211=IFCINDEXEDPOLYGONALFACE((4,1,5,8));
#212=IFCINDEXEDPOLYGONALFACE((1,4,3));
#213=IFCINDEXEDPOLYGONALFACE((3,2,1));
#214=IFCINDEXEDPOLYGONALFACE((8,5,6));
#215=IFCINDEXEDPOLYGONALFACE((6,7,8));
#216=IFCCARTESIANPOINTLIST3D(((0.,2578.24214668677,27.390082625913),(686.63850544028,2703.39629411722,27.4945619286492),(686.63850544028,2389.28082804593,27.4945619286493),(0.,2514.43497547637,27.3900826259131),(2.57946946392872,2577.33908359892,5.6843418860808E-14),(684.686748870633,2701.6673208502,0.103789828823608),(684.686748870633,2391.00980131294,0.103789828823665),(2.57946946392872,2515.33803856423,0.)));
#217=IFCPOLYGONALFACESET(#216,.T.,(#208,#209,#210,#211,#212,#213,#214,#215),$);
#218=IFCSHAPEREPRESENTATION(#12,'Body','Tessellation',(#217));
#219=IFCPRODUCTDEFINITIONSHAPE($,$,(#218));
#220=IFCBUILDINGELEMENTPROXY('1X2uIFUSz8cQcgqfbFHn1l',$,'beds_1_1_0_uncut',$,$,$,#233,$,$);
#221=IFCRELCONTAINEDINSPATIALSTRUCTURE('0Ft1Vtacz4NwRHfu_VyTkk',$,$,$,(#220),#22);
#222=IFCINDEXEDPOLYGONALFACE((1,2,6,5));
#223=IFCINDEXEDPOLYGONALFACE((2,3,7,6));
#224=IFCINDEXEDPOLYGONALFACE((3,4,8,7));
#225=IFCINDEXEDPOLYGONALFACE((4,1,5,8));
#226=IFCINDEXEDPOLYGONALFACE((1,4,3));
#227=IFCINDEXEDPOLYGONALFACE((3,2,1));
#228=IFCINDEXEDPOLYGONALFACE((8,5,6));
#229=IFCINDEXEDPOLYGONALFACE((6,7,8));
#230=IFCCARTESIANPOINTLIST3D(((687.924268641176,2703.39629411722,27.3724937889884),(1205.77133977117,2798.90037354726,27.4512896917615),(1205.77133977117,2293.77674861589,27.4512896917616),(687.924268641177,2389.28082804593,27.3724937889884),(684.686748870633,2701.6673208502,0.103789828824404),(1204.29692246237,2797.49656090572,0.18285400626371),(1204.29692246237,2295.18056125743,0.182854006263824),(684.686748870633,2391.00980131294,0.103789828824461)));
#231=IFCPOLYGONALFACESET(#230,.T.,(#222,#223,#224,#225,#226,#227,#228,#229),$);
#232=IFCSHAPEREPRESENTATION(#12,'Body','Tessellation',(#231));
#233=IFCPRODUCTDEFINITIONSHAPE($,$,(#232));
#234=IFCBUILDINGELEMENTPROXY('0zeaqzU3fCV8BylhP93MN5',$,'beds_1_1_0',$,$,$,#247,$,$);
#235=IFCRELCONTAINEDINSPATIALSTRUCTURE('3x6N9Xmqv1fenz249X99Le',$,$,$,(#234),#22);
#236=IFCINDEXEDPOLYGONALFACE((1,2,6,5));
#237=IFCINDEXEDPOLYGONALFACE((2,3,7,6));
#238=IFCINDEXEDPOLYGONALFACE((3,4,8,7));
#239=IFCINDEXEDPOLYGONALFACE((4,1,5,8));
#240=IFCINDEXEDPOLYGONALFACE((1,4,3));
#241=IFCINDEXEDPOLYGONALFACE((3,2,1));
#242=IFCINDEXEDPOLYGONALFACE((8,5,6));
#243=IFCINDEXEDPOLYGONALFACE((6,7,8));
#244=IFCCARTESIANPOINTLIST3D(((687.924268641177,2703.39629411722,27.3724937889883),(1205.77133977117,2798.90037354726,27.4512896917612),(1205.77133977117,2293.77674861589,27.4512896917614),(687.924268641177,2389.28082804593,27.3724937889884),(684.686748870633,2701.6673208502,0.103789828823835),(1204.29692246237,2797.49656090572,0.182854006263369),(1204.29692246238,2295.18056125743,0.182854006263483),(684.686748870633,2391.00980131294,0.103789828823892)));
#245=IFCPOLYGONALFACESET(#244,.T.,(#236,#237,#238,#239,#240,#241,#242,#243),$);
#246=IFCSHAPEREPRESENTATION(#12,'Body','Tessellation',(#245));
#247=IFCPRODUCTDEFINITIONSHAPE($,$,(#246));
#248=IFCBUILDINGELEMENTPROXY('3MS1UwbZT55RV8y3YdRS9J',$,'beds_1_2_0_uncut',$,$,$,#261,$,$);
#249=IFCRELCONTAINEDINSPATIALSTRUCTURE('2YJBxrWlvCXwVZhuemaxMP',$,$,$,(#248),#22);
#250=IFCINDEXEDPOLYGONALFACE((1,2,6,5));
#251=IFCINDEXEDPOLYGONALFACE((2,3,7,6));
#252=IFCINDEXEDPOLYGONALFACE((3,4,8,7));
#253=IFCINDEXEDPOLYGONALFACE((4,1,5,8));
#254=IFCINDEXEDPOLYGONALFACE((1,4,3));
#255=IFCINDEXEDPOLYGONALFACE((3,2,1));
#256=IFCINDEXEDPOLYGONALFACE((8,5,6));
#257=IFCINDEXEDPOLYGONALFACE((6,7,8));
#258=IFCCARTESIANPOINTLIST3D(((1207.07948186244,2798.90037354726,27.3489883341308),(1720.04839595309,2894.41771876828,27.4270419737749),(1720.04839595309,2198.25940339486,27.427041973775),(1207.07948186244,2293.77674861589,27.348988334131),(1204.29692246238,2797.49656090572,0.182854006263682),(1719.08333086539,2893.35233254383,0.261184196868726),(1719.08333086539,2199.32478961932,0.261184196868868),(1204.29692246238,2295.18056125743,0.182854006263767)));
#259=IFCPOLYGONALFACESET(#258,.T.,(#250,#251,#252,#253,#254,#255,#256,#257),$);
#260=IFCSHAPEREPRESENTATION(#12,'Body','Tessellation',(#259));
#261=IFCPRODUCTDEFINITIONSHAPE($,$,(#260));
#262=IFCBUILDINGELEMENTPROXY('0VMMQRZPbCnQo5uItZr3I6',$,'beds_1_2_0',$,$,$,#275,$,$);
#263=IFCRELCONTAINEDINSPATIALSTRUCTURE('1PIlM0nPTCYf7dC1c$U2uY',$,$,$,(#262),#22);
#264=IFCINDEXEDPOLYGONALFACE((1,2,6,5));
#265=IFCINDEXEDPOLYGONALFACE((2,3,7,6));
#266=IFCINDEXEDPOLYGONALFACE((3,4,8,7));
#267=IFCINDEXEDPOLYGONALFACE((4,1,5,8));
#268=IFCINDEXEDPOLYGONALFACE((1,4,3));
#269=IFCINDEXEDPOLYGONALFACE((3,2,1));
#270=IFCINDEXEDPOLYGONALFACE((8,5,6));
#271=IFCINDEXEDPOLYGONALFACE((6,7,8));
#272=IFCCARTESIANPOINTLIST3D(((1207.07948186244,2798.90037354726,27.3489883341304),(1720.04839595309,2894.41771876828,27.4270419737748),(1720.04839595309,2198.25940339486,27.427041973775),(1207.07948186244,2293.77674861589,27.3489883341305),(1204.29692246237,2797.49656090572,0.182854006263682),(1719.08333086539,2893.35233254383,0.261184196868726),(1719.08333086539,2199.32478961932,0.261184196868868),(1204.29692246238,2295.18056125743,0.182854006263767)));
#273=IFCPOLYGONALFACESET(#272,.T.,(#264,#265,#266,#267,#268,#269,#270,#271),$);
#274=IFCSHAPEREPRESENTATION(#12,'Body','Tessellation',(#273));
#275=IFCPRODUCTDEFINITIONSHAPE($,$,(#274));
#276=IFCBUILDINGELEMENTPROXY('2xQfK6FQz2S9tnXcHZBdxI',$,'beds_1_3_0_uncut',$,$,$,#289,$,$);
#277=IFCRELCONTAINEDINSPATIALSTRUCTURE('3sbyEy0Sn20fxTz$66JcLe',$,$,$,(#276),#22);
#278=IFCINDEXEDPOLYGONALFACE((1,2,6,5));
#279=IFCINDEXEDPOLYGONALFACE((2,3,7,6));
#280=IFCINDEXEDPOLYGONALFACE((3,4,8,7));
#281=IFCINDEXEDPOLYGONALFACE((4,1,5,8));
#282=IFCINDEXEDPOLYGONALFACE((1,4,3));
#283=IFCINDEXEDPOLYGONALFACE((3,2,1));
#284=IFCINDEXEDPOLYGONALFACE((8,5,6));
#285=IFCINDEXEDPOLYGONALFACE((6,7,8));
#286=IFCCARTESIANPOINTLIST3D(((1721.37443972914,2894.41771876828,27.3474537730403),(2230.65546383321,2989.94561553811,27.4249462612632),(2230.65546383321,2102.73150662503,27.4249462612633),(1721.37443972914,2198.25940339486,27.3474537730404),(1719.08333086539,2893.35233254383,0.261184196868896),(2230.22483616722,2989.22920727944,0.338959776961431),(2230.22483616722,2103.44791488371,0.33895977696163),(1719.08333086539,2199.32478961932,0.261184196869067)));
#287=IFCPOLYGONALFACESET(#286,.T.,(#278,#279,#280,#281,#282,#283,#284,#285),$);
#288=IFCSHAPEREPRESENTATION(#12,'Body','Tessellation',(#287));
#289=IFCPRODUCTDEFINITIONSHAPE($,$,(#288));
#290=IFCBUILDINGELEMENTPROXY('3uOmhR2Y95DgtFUt6f2v3r',$,'beds_1_3_0',$,$,$,#303,$,$);
#291=IFCRELCONTAINEDINSPATIALSTRUCTURE('2nlA0wxJvAww_vvxQPjaAE',$,$,$,(#290),#22);
#292=IFCINDEXEDPOLYGONALFACE((1,2,6,5));
#293=IFCINDEXEDPOLYGONALFACE((2,3,7,6));
#294=IFCINDEXEDPOLYGONALFACE((3,4,8,7));
#295=IFCINDEXEDPOLYGONALFACE((4,1,5,8));
#296=IFCINDEXEDPOLYGONALFACE((1,4,3));
#297=IFCINDEXEDPOLYGONALFACE((3,2,1));
#298=IFCINDEXEDPOLYGONALFACE((8,5,6));
#299=IFCINDEXEDPOLYGONALFACE((6,7,8));
#300=IFCCARTESIANPOINTLIST3D(((1721.37443972914,2894.41771876828,27.3474537730404),(2230.65546383321,2989.94561553811,27.4249462612631),(2230.65546383321,2102.73150662503,27.4249462612633),(1721.37443972914,2198.25940339486,27.3474537730405),(1719.08333086539,2893.35233254383,0.26118419686901),(2230.22483616722,2989.22920727944,0.338959776961573),(2230.22483616722,2103.44791488371,0.338959776961772),(1719.08333086539,2199.32478961932,0.261184196869181)));
#301=IFCPOLYGONALFACESET(#300,.T.,(#292,#293,#294,#295,#296,#297,#298,#299),$);
#302=IFCSHAPEREPRESENTATION(#12,'Body','Tessellation',(#301));
#303=IFCPRODUCTDEFINITIONSHAPE($,$,(#302));
#304=IFCBUILDINGELEMENTPROXY('3Ya9Na8CH4Eu81mLiO39RQ',$,'beds_1_4_0_uncut',$,$,$,#317,$,$);
#305=IFCRELCONTAINEDINSPATIALSTRUCTURE('1UgPDC3_X4fh8hrc4mN1Iv',$,$,$,(#304),#22);
#306=IFCINDEXEDPOLYGONALFACE((1,2,6,5));
#307=IFCINDEXEDPOLYGONALFACE((2,3,7,6));
#308=IFCINDEXEDPOLYGONALFACE((3,4,8,7));
#309=IFCINDEXEDPOLYGONALFACE((4,1,5,8));
#310=IFCINDEXEDPOLYGONALFACE((1,4,3));
#311=IFCINDEXEDPOLYGONALFACE((3,2,1));
#312=IFCINDEXEDPOLYGONALFACE((8,5,6));
#313=IFCINDEXEDPOLYGONALFACE((6,7,8));
#314=IFCCARTESIANPOINTLIST3D(((2231.9945675499,2989.94561553811,27.3704997783687),(2738.80279922761,3085.48085448503,27.4476160051),(2738.80279922761,2007.19626767811,27.4476160051002),(2231.9945675499,2102.73150662503,27.3704997783689),(2230.22483616722,2989.22920727944,0.338959776961872),(2738.92332303677,3085.12076636904,0.416363625990613),(2738.92332303677,2007.55635579411,0.416363625990854),(2230.22483616722,2103.44791488371,0.338959776962071)));
#315=IFCPOLYGONALFACESET(#314,.T.,(#306,#307,#308,#309,#310,#311,#312,#313),$);
#316=IFCSHAPEREPRESENTATION(#12,'Body','Tessellation',(#315));
#317=IFCPRODUCTDEFINITIONSHAPE($,$,(#316));
#318=IFCBUILDINGELEMENTPROXY('2RITGkH0jBBubnf8Bptk2W',$,'beds_1_4_0',$,$,$,#331,$,$);
#319=IFCRELCONTAINEDINSPATIALSTRUCTURE('15YkVCziT7nxqEZrT5Lya_',$,$,$,(#318),#22);
#320=IFCINDEXEDPOLYGONALFACE((1,2,6,5));
#321=IFCINDEXEDPOLYGONALFACE((2,3,7,6));
#322=IFCINDEXEDPOLYGONALFACE((3,4,8,7));
#323=IFCINDEXEDPOLYGONALFACE((4,1,5,8));
#324=IFCINDEXEDPOLYGONALFACE((1,4,3));
#325=IFCINDEXEDPOLYGONALFACE((3,2,1));
#326=IFCINDEXEDPOLYGONALFACE((8,5,6));
#327=IFCINDEXEDPOLYGONALFACE((6,7,8));
#328=IFCCARTESIANPOINTLIST3D(((2231.9945675499,2989.94561553811,27.3704997783681),(2738.80279922761,3085.48085448503,27.4476160051),(2738.80279922761,2007.19626767811,27.4476160051003),(2231.9945675499,2102.73150662503,27.3704997783683),(2230.22483616722,2989.22920727944,0.338959776961502),(2738.92332303677,3085.12076636904,0.416363625990158),(2738.92332303677,2007.55635579411,0.4163636259904),(2230.22483616722,2103.44791488371,0.338959776961701)));
#329=IFCPOLYGONALFACESET(#328,.T.,(#320,#321,#322,#323,#324,#325,#326,#327),$);
#330=IFCSHAPEREPRESENTATION(#12,'Body','Tessellation',(#329));
#331=IFCPRODUCTDEFINITIONSHAPE($,$,(#330));
#332=IFCBUILDINGELEMENTPROXY('23P1p9l2L6y8zWAAM98Z1C',$,'beds_1_5_0_uncut',$,$,$,#345,$,$);
#333=IFCRELCONTAINEDINSPATIALSTRUCTURE('2PcZ6AqqD1xQk0SkJmR_6L',$,$,$,(#332),#22);
#334=IFCINDEXEDPOLYGONALFACE((1,2,6,5));
#335=IFCINDEXEDPOLYGONALFACE((2,3,7,6));
#336=IFCINDEXEDPOLYGONALFACE((3,4,8,7));
#337=IFCINDEXEDPOLYGONALFACE((4,1,5,8));
#338=IFCINDEXEDPOLYGONALFACE((1,4,3));
#339=IFCINDEXEDPOLYGONALFACE((3,2,1));
#340=IFCINDEXEDPOLYGONALFACE((8,5,6));
#341=IFCINDEXEDPOLYGONALFACE((6,7,8));
#342=IFCCARTESIANPOINTLIST3D(((2740.14984922001,3085.48085448503,27.4200442027839),(3174.3322023428,3167.52993590553,27.4861096348225),(3174.3322023428,1925.14718625761,27.4861096348227),(2740.14984922001,2007.19626767811,27.4200442027841),(2738.92332303677,3085.12076636904,0.41636362599032),(3175.01116861392,3167.52993590553,0.482718998836782),(3175.01116861392,1925.14718625761,0.482718998837055),(2738.92332303677,2007.55635579411,0.416363625990558)));
#343=IFCPOLYGONALFACESET(#342,.T.,(#334,#335,#336,#337,#338,#339,#340,#341),$);
#344=IFCSHAPEREPRESENTATION(#12,'Body','Tessellation',(#343));
#345=IFCPRODUCTDEFINITIONSHAPE($,$,(#344));
#346=IFCBUILDINGELEMENTPROXY('2kAlyznAP3zwD6Bo5xEDtZ',$,'beds_1_5_0',$,$,$,#359,$,$);
#347=IFCRELCONTAINEDINSPATIALSTRUCTURE('33bjPJTEv3pO_BtsbjaTSH',$,$,$,(#346),#22);
#348=IFCINDEXEDPOLYGONALFACE((1,2,6,5));
#349=IFCINDEXEDPOLYGONALFACE((2,3,7,6));
#350=IFCINDEXEDPOLYGONALFACE((3,4,8,7));
#351=IFCINDEXEDPOLYGONALFACE((4,1,5,8));
#352=IFCINDEXEDPOLYGONALFACE((1,4,3));
#353=IFCINDEXEDPOLYGONALFACE((3,2,1));
#354=IFCINDEXEDPOLYGONALFACE((8,5,6));
#355=IFCINDEXEDPOLYGONALFACE((6,7,8));
#356=IFCCARTESIANPOINTLIST3D(((2740.14984922001,3085.48085448503,27.4200442027839),(3174.3322023428,3167.52993590553,27.4861096348225),(3174.3322023428,1925.14718625761,27.4861096348228),(2740.14984922001,2007.19626767811,27.4200442027842),(2738.92332303677,3085.12076636904,0.41636362598998),(3175.01116861392,3167.52993590553,0.482718998836638),(3175.01116861392,1925.14718625761,0.482718998836912),(2738.92332303677,2007.55635579411,0.416363625990215)));
#357=IFCPOLYGONALFACESET(#356,.T.,(#348,#349,#350,#351,#352,#353,#354,#355),$);
#358=IFCSHAPEREPRESENTATION(#12,'Body','Tessellation',(#357));
#359=IFCPRODUCTDEFINITIONSHAPE($,$,(#358));
#360=IFCBUILDINGELEMENTPROXY('22RhvnCI16thmg7ZEmi4Yu',$,'beds_2_0_0_uncut',$,$,$,#373,$,$);
#361=IFCRELCONTAINEDINSPATIALSTRUCTURE('0$xuzK7Wf3pQ7jZ9PxtDNX',$,$,$,(#360),#22);
#362=IFCINDEXEDPOLYGONALFACE((1,2,6,5));
#363=IFCINDEXEDPOLYGONALFACE((2,3,7,6));
#364=IFCINDEXEDPOLYGONALFACE((3,4,8,7));
#365=IFCINDEXEDPOLYGONALFACE((4,1,5,8));
#366=IFCINDEXEDPOLYGONALFACE((1,4,3));
#367=IFCINDEXEDPOLYGONALFACE((3,2,1));
#368=IFCINDEXEDPOLYGONALFACE((8,5,6));
#369=IFCINDEXEDPOLYGONALFACE((6,7,8));
#370=IFCCARTESIANPOINTLIST3D(((3.83888097634681E-13,3305.0431097436,27.0000000000016),(585.656256742707,3684.70448205658,27.0000000000007),(585.656256742707,3217.52993590553,27.0000000000009),(3.79030140607028E-13,3217.52993590553,27.0000000000017),(4.60228447522103,3302.30362265301,1.74050759079691E-12),(586.393711534977,3679.45955508672,9.01363864444011E-13),(586.393711534977,3217.52993590553,1.09368070155824E-12),(4.60228447522102,3217.52993590553,1.77580172788794E-12)));
#371=IFCPOLYGONALFACESET(#370,.T.,(#362,#363,#364,#365,#366,#367,#368,#369),$);
#372=IFCSHAPEREPRESENTATION(#12,'Body','Tessellation',(#371));
#373=IFCPRODUCTDEFINITIONSHAPE($,$,(#372));
#374=IFCBUILDINGELEMENTPROXY('1JHBahS8L8bu_976XBYrxC',$,'beds_2_0_0',$,$,$,#387,$,$);
#375=IFCRELCONTAINEDINSPATIALSTRUCTURE('00c7foPoH8mRUEHjKEftMI',$,$,$,(#374),#22);
#376=IFCINDEXEDPOLYGONALFACE((1,2,6,5));
#377=IFCINDEXEDPOLYGONALFACE((2,3,7,6));
#378=IFCINDEXEDPOLYGONALFACE((3,4,8,7));
#379=IFCINDEXEDPOLYGONALFACE((4,1,5,8));
#380=IFCINDEXEDPOLYGONALFACE((1,4,3));
#381=IFCINDEXEDPOLYGONALFACE((3,2,1));
#382=IFCINDEXEDPOLYGONALFACE((8,5,6));
#383=IFCINDEXEDPOLYGONALFACE((6,7,8));
#384=IFCCARTESIANPOINTLIST3D(((0.,3305.0431097436,27.0000000000019),(585.656256742707,3684.70448205658,27.0000000000011),(585.656256742707,3217.52993590553,27.0000000000013),(2.27373675443232E-13,3217.52993590553,27.000000000002),(4.60228447522059,3302.30362265301,2.27728946811112E-12),(586.393711534977,3679.45955508672,1.09778852674935E-12),(586.393711534977,3217.52993590553,1.28963506540458E-12),(4.60228447522059,3217.52993590553,2.31281660489913E-12)));
#385=IFCPOLYGONALFACESET(#384,.T.,(#376,#377,#378,#379,#380,#381,#382,#383),$);
#386=IFCSHAPEREPRESENTATION(#12,'Body','Tessellation',(#385));
#387=IFCPRODUCTDEFINITIONSHAPE($,$,(#386));
#388=IFCBUILDINGELEMENTPROXY('0q$DPxC711P8iYNdX4e$S_',$,'beds_2_1_0_uncut',$,$,$,#401,$,$);
#389=IFCRELCONTAINEDINSPATIALSTRUCTURE('243xvROg9Epf9r3hBF9TQE',$,$,$,(#388),#22);
#390=IFCINDEXEDPOLYGONALFACE((1,2,6,5));
#391=IFCINDEXEDPOLYGONALFACE((2,3,7,6));
#392=IFCINDEXEDPOLYGONALFACE((3,4,8,7));
#393=IFCINDEXEDPOLYGONALFACE((4,1,5,8));
#394=IFCINDEXEDPOLYGONALFACE((1,4,3));
#395=IFCINDEXEDPOLYGONALFACE((3,2,1));
#396=IFCINDEXEDPOLYGONALFACE((8,5,6));
#397=IFCINDEXEDPOLYGONALFACE((6,7,8));
#398=IFCCARTESIANPOINTLIST3D(((587.131166327251,3684.70448205658,27.0000000000008),(1026.84815286803,3974.42088860267,27.0000000000005),(1026.84815286803,3217.52993590553,27.0000000000008),(587.131166327251,3217.52993590553,27.000000000001),(586.393711534978,3679.45955508672,1.24242437760886E-12),(1027.60779276773,3970.16235266999,7.80334512244051E-13),(1027.60779276773,3217.52993590553,1.09368070155824E-12),(586.393711534977,3217.52993590553,1.43474121472309E-12)));
#399=IFCPOLYGONALFACESET(#398,.T.,(#390,#391,#392,#393,#394,#395,#396,#397),$);
#400=IFCSHAPEREPRESENTATION(#12,'Body','Tessellation',(#399));
#401=IFCPRODUCTDEFINITIONSHAPE($,$,(#400));
#402=IFCBUILDINGELEMENTPROXY('22y1T7D_z89O8k3pr_CF9o',$,'beds_2_1_0',$,$,$,#415,$,$);
#403=IFCRELCONTAINEDINSPATIALSTRUCTURE('3VMYkBY5945ufg5KfNSerh',$,$,$,(#402),#22);
#404=IFCINDEXEDPOLYGONALFACE((1,2,6,5));
#405=IFCINDEXEDPOLYGONALFACE((2,3,7,6));
#406=IFCINDEXEDPOLYGONALFACE((3,4,8,7));
#407=IFCINDEXEDPOLYGONALFACE((4,1,5,8));
#408=IFCINDEXEDPOLYGONALFACE((1,4,3));
#409=IFCINDEXEDPOLYGONALFACE((3,2,1));
#410=IFCINDEXEDPOLYGONALFACE((8,5,6));
#411=IFCINDEXEDPOLYGONALFACE((6,7,8));
#412=IFCCARTESIANPOINTLIST3D(((587.131166327252,3684.70448205658,27.0000000000008),(1026.84815286803,3974.42088860267,27.0000000000006),(1026.84815286803,3217.52993590553,27.0000000000009),(587.131166327251,3217.52993590553,27.0000000000009),(586.393711534977,3679.45955508672,9.84101689027739E-13),(1027.60779276773,3970.16235266999,9.76996261670138E-13),(1027.60779276773,3217.52993590553,1.28963506540458E-12),(586.393711534977,3217.52993590553,1.17594822768297E-12)));
#413=IFCPOLYGONALFACESET(#412,.T.,(#404,#405,#406,#407,#408,#409,#410,#411),$);
#414=IFCSHAPEREPRESENTATION(#12,'Body','Tessellation',(#413));
#415=IFCPRODUCTDEFINITIONSHAPE($,$,(#414));
#416=IFCBUILDINGELEMENTPROXY('19fqlM8G502xOJdaT89G69',$,'beds_2_2_0_uncut',$,$,$,#429,$,$);
#417=IFCRELCONTAINEDINSPATIALSTRUCTURE('3k7IkZUOH1gf$uQNhqM_JF',$,$,$,(#416),#22);
#418=IFCINDEXEDPOLYGONALFACE((1,2,6,5));
#419=IFCINDEXEDPOLYGONALFACE((2,3,7,6));
#420=IFCINDEXEDPOLYGONALFACE((3,4,8,7));
#421=IFCINDEXEDPOLYGONALFACE((4,1,5,8));
#422=IFCINDEXEDPOLYGONALFACE((1,4,3));
#423=IFCINDEXEDPOLYGONALFACE((3,2,1));
#424=IFCINDEXEDPOLYGONALFACE((8,5,6));
#425=IFCINDEXEDPOLYGONALFACE((6,7,8));
#426=IFCCARTESIANPOINTLIST3D(((1028.36743266743,3974.42088860267,27.0000000000003),(1462.30494028976,4264.17753758989,27.0000000000003),(1462.30494028976,3217.52993590553,27.0000000000008),(1028.36743266742,3217.52993590553,27.0000000000006),(1027.60779276773,3970.16235266999,5.52960836800818E-13),(1463.08277942703,4260.9456351374,4.88741394897352E-13),(1463.08277942703,3217.52993590553,9.23150444975818E-13),(1027.60779276773,3217.52993590553,8.6630702611501E-13)));
#427=IFCPOLYGONALFACESET(#426,.T.,(#418,#419,#420,#421,#422,#423,#424,#425),$);
#428=IFCSHAPEREPRESENTATION(#12,'Body','Tessellation',(#427));
#429=IFCPRODUCTDEFINITIONSHAPE($,$,(#428));
#430=IFCBUILDINGELEMENTPROXY('0zbb$Z$eTAfeWn8_jJ2fsF',$,'beds_2_2_0',$,$,$,#443,$,$);
#431=IFCRELCONTAINEDINSPATIALSTRUCTURE('1qvRU6SHP9uAs$dJPqD8Gm',$,$,$,(#430),#22);
#432=IFCINDEXEDPOLYGONALFACE((1,2,6,5));
#433=IFCINDEXEDPOLYGONALFACE((2,3,7,6));
#434=IFCINDEXEDPOLYGONALFACE((3,4,8,7));
#435=IFCINDEXEDPOLYGONALFACE((4,1,5,8));
#436=IFCINDEXEDPOLYGONALFACE((1,4,3));
#437=IFCINDEXEDPOLYGONALFACE((3,2,1));
#438=IFCINDEXEDPOLYGONALFACE((8,5,6));
#439=IFCINDEXEDPOLYGONALFACE((6,7,8));
#440=IFCCARTESIANPOINTLIST3D(((1028.36743266742,3974.42088860267,27.0000000000007),(1462.30494028976,4264.17753758988,27.0000000000007),(1462.30494028976,3217.52993590553,27.0000000000012),(1028.36743266742,3217.52993590553,27.0000000000011),(1027.60779276773,3970.16235266999,5.79092329644482E-13),(1463.08277942703,4260.9456351374,9.69890834312537E-13),(1463.08277942703,3217.52993590553,1.4033219031262E-12),(1027.60779276773,3217.52993590553,8.91731133378926E-13)));
#441=IFCPOLYGONALFACESET(#440,.T.,(#432,#433,#434,#435,#436,#437,#438,#439),$);
#442=IFCSHAPEREPRESENTATION(#12,'Body','Tessellation',(#441));
#443=IFCPRODUCTDEFINITIONSHAPE($,$,(#442));
#444=IFCBUILDINGELEMENTPROXY('0xurlOd05Eg8YU3ZApAs3x',$,'beds_2_3_0_uncut',$,$,$,#457,$,$);
#445=IFCRELCONTAINEDINSPATIALSTRUCTURE('3_xXg0E416qPcCDNEkqpRj',$,$,$,(#444),#22);
#446=IFCINDEXEDPOLYGONALFACE((1,2,6,5));
#447=IFCINDEXEDPOLYGONALFACE((2,3,7,6));
#448=IFCINDEXEDPOLYGONALFACE((3,4,8,7));
#449=IFCINDEXEDPOLYGONALFACE((4,1,5,8));
#450=IFCINDEXEDPOLYGONALFACE((1,4,3));
#451=IFCINDEXEDPOLYGONALFACE((3,2,1));
#452=IFCINDEXEDPOLYGONALFACE((8,5,6));
#453=IFCINDEXEDPOLYGONALFACE((6,7,8));
#454=IFCCARTESIANPOINTLIST3D(((1463.86061856429,4264.17753758989,27.0000000000009),(1893.41303734777,4553.96619522869,27.0000000000003),(1893.41303734777,3217.52993590553,27.0000000000009),(1463.86061856429,3217.52993590553,27.0000000000014),(1463.08277942703,4260.9456351374,1.02875387407503E-12),(1894.20441866203,4551.79293490765,3.53441026861531E-13),(1894.20441866203,3217.52993590553,9.08939590260616E-13),(1463.08277942703,3217.52993590553,1.46316292415349E-12)));
#455=IFCPOLYGONALFACESET(#454,.T.,(#446,#447,#448,#449,#450,#451,#452,#453),$);
#456=IFCSHAPEREPRESENTATION(#12,'Body','Tessellation',(#455));
#457=IFCPRODUCTDEFINITIONSHAPE($,$,(#456));
#458=IFCBUILDINGELEMENTPROXY('0mdYyMEE93CfuqCCyBnPhE',$,'beds_2_3_0',$,$,$,#471,$,$);
#459=IFCRELCONTAINEDINSPATIALSTRUCTURE('0jaH98$gr2_QtoLxnYPq4w',$,$,$,(#458),#22);
#460=IFCINDEXEDPOLYGONALFACE((1,2,6,5));
#461=IFCINDEXEDPOLYGONALFACE((2,3,7,6));
#462=IFCINDEXEDPOLYGONALFACE((3,4,8,7));
#463=IFCINDEXEDPOLYGONALFACE((4,1,5,8));
#464=IFCINDEXEDPOLYGONALFACE((1,4,3));
#465=IFCINDEXEDPOLYGONALFACE((3,2,1));
#466=IFCINDEXEDPOLYGONALFACE((8,5,6));
#467=IFCINDEXEDPOLYGONALFACE((6,7,8));
#468=IFCCARTESIANPOINTLIST3D(((1463.86061856429,4264.17753758989,27.0000000000013),(1893.41303734777,4553.96619522869,27.0000000000001),(1893.41303734777,3217.52993590553,27.0000000000007),(1463.86061856429,3217.52993590553,27.0000000000017),(1463.08277942702,4260.9456351374,1.08357767203415E-12),(1894.20441866203,4551.79293490765,7.46069872548105E-13),(1894.20441866203,3217.52993590553,1.30384592011978E-12),(1463.08277942702,3217.52993590553,1.51700874084781E-12)));
#469=IFCPOLYGONALFACESET(#468,.T.,(#460,#461,#462,#463,#464,#465,#466,#467),$);
#470=IFCSHAPEREPRESENTATION(#12,'Body','Tessellation',(#469));
#471=IFCPRODUCTDEFINITIONSHAPE($,$,(#470));
#472=IFCBUILDINGELEMENTPROXY('0uFRKLCM9Cyu6lJWU1_yUo',$,'beds_2_4_0_uncut',$,$,$,#485,$,$);
#473=IFCRELCONTAINEDINSPATIALSTRUCTURE('3MaRiTGM9CqBOb1gDdOe5$',$,$,$,(#472),#22);
#474=IFCINDEXEDPOLYGONALFACE((1,2,6,5));
#475=IFCINDEXEDPOLYGONALFACE((2,3,7,6));
#476=IFCINDEXEDPOLYGONALFACE((3,4,8,7));
#477=IFCINDEXEDPOLYGONALFACE((4,1,5,8));
#478=IFCINDEXEDPOLYGONALFACE((1,4,3));
#479=IFCINDEXEDPOLYGONALFACE((3,2,1));
#480=IFCINDEXEDPOLYGONALFACE((8,5,6));
#481=IFCINDEXEDPOLYGONALFACE((6,7,8));
#482=IFCCARTESIANPOINTLIST3D(((1894.9957999763,4553.96619522869,27.0000000000002),(2321.60006165943,4843.7771257293,26.9999999999999),(2321.60006165943,3217.52993590553,27.0000000000006),(1894.9957999763,3217.52993590553,27.0000000000007),(1894.20441866203,4551.79293490765,1.40278206133501E-13),(2322.39979680718,4842.68478040093,-2.34624172154872E-14),(2322.39979680718,3217.52993590553,6.5314420538698E-13),(1894.20441866203,3217.52993590553,6.95776769532586E-13)));
#483=IFCPOLYGONALFACESET(#482,.T.,(#474,#475,#476,#477,#478,#479,#480,#481),$);
#484=IFCSHAPEREPRESENTATION(#12,'Body','Tessellation',(#483));
#485=IFCPRODUCTDEFINITIONSHAPE($,$,(#484));
#486=IFCBUILDINGELEMENTPROXY('0JeDAJlMD5UR2zL5WhuY9f',$,'beds_2_4_0',$,$,$,#499,$,$);
#487=IFCRELCONTAINEDINSPATIALSTRUCTURE('2A9aEFZ615YhAQyVEa6omn',$,$,$,(#486),#22);
#488=IFCINDEXEDPOLYGONALFACE((1,2,6,5));
#489=IFCINDEXEDPOLYGONALFACE((2,3,7,6));
#490=IFCINDEXEDPOLYGONALFACE((3,4,8,7));
#491=IFCINDEXEDPOLYGONALFACE((4,1,5,8));
#492=IFCINDEXEDPOLYGONALFACE((1,4,3));
#493=IFCINDEXEDPOLYGONALFACE((3,2,1));
#494=IFCINDEXEDPOLYGONALFACE((8,5,6));
#495=IFCINDEXEDPOLYGONALFACE((6,7,8));
#496=IFCCARTESIANPOINTLIST3D(((1894.9957999763,4553.96619522869,27.0000000000004),(2321.60006165943,4843.7771257293,27.0000000000004),(2321.60006165943,3217.52993590553,27.000000000001),(1894.9957999763,3217.52993590553,27.0000000000009),(1894.20441866203,4551.79293490765,8.73967564984923E-13),(2322.39979680718,4842.68478040093,0.),(2322.39979680718,3217.52993590553,6.78568312650896E-13),(1894.20441866203,3217.52993590553,1.4317436125566E-12)));
#497=IFCPOLYGONALFACESET(#496,.T.,(#488,#489,#490,#491,#492,#493,#494,#495),$);
#498=IFCSHAPEREPRESENTATION(#12,'Body','Tessellation',(#497));
#499=IFCPRODUCTDEFINITIONSHAPE($,$,(#498));
#500=IFCBUILDINGELEMENTPROXY('1bS2hNDbf3XOEnXD6fIfle',$,'beds_2_5_0_uncut',$,$,$,#513,$,$);
#501=IFCRELCONTAINEDINSPATIALSTRUCTURE('0M3FIMTsvA3OJw6Z6PM9B8',$,$,$,(#500),#22);
#502=IFCINDEXEDPOLYGONALFACE((1,2,6,5));
#503=IFCINDEXEDPOLYGONALFACE((2,3,7,6));
#504=IFCINDEXEDPOLYGONALFACE((3,4,8,7));
#505=IFCINDEXEDPOLYGONALFACE((4,1,5,8));
#506=IFCINDEXEDPOLYGONALFACE((1,4,3));
#507=IFCINDEXEDPOLYGONALFACE((3,2,1));
#508=IFCINDEXEDPOLYGONALFACE((8,5,6));
#509=IFCINDEXEDPOLYGONALFACE((6,7,8));
#510=IFCCARTESIANPOINTLIST3D(((2323.19953195494,4843.7771257293,27.0000000000003),(2688.29563391313,5092.67712216315,27.000000000001),(2688.29563391313,3217.52993590553,27.0000000000018),(2323.19953195494,3217.52993590553,27.0000000000009),(2322.39979680718,4842.68478040093,2.62531033927953E-13),(2689.09819296824,5092.67712216315,1.00066600023196E-12),(2689.09819296824,3217.52993590553,1.78135284301106E-12),(2322.39979680718,3217.52993590553,9.3913765653042E-13)));
#511=IFCPOLYGONALFACESET(#510,.T.,(#502,#503,#504,#505,#506,#507,#508,#509),$);
#512=IFCSHAPEREPRESENTATION(#12,'Body','Tessellation',(#511));
#513=IFCPRODUCTDEFINITIONSHAPE($,$,(#512));
#514=IFCBUILDINGELEMENTPROXY('3HFy5iALz0aQB8hvB8$lVT',$,'beds_2_5_0',$,$,$,#527,$,$);
#515=IFCRELCONTAINEDINSPATIALSTRUCTURE('0JM3X_2cLElOjGdcwknq_8',$,$,$,(#514),#22);
#516=IFCINDEXEDPOLYGONALFACE((1,2,6,5));
#517=IFCINDEXEDPOLYGONALFACE((2,3,7,6));
#518=IFCINDEXEDPOLYGONALFACE((3,4,8,7));
#519=IFCINDEXEDPOLYGONALFACE((4,1,5,8));
#520=IFCINDEXEDPOLYGONALFACE((1,4,3));
#521=IFCINDEXEDPOLYGONALFACE((3,2,1));
#522=IFCINDEXEDPOLYGONALFACE((8,5,6));
#523=IFCINDEXEDPOLYGONALFACE((6,7,8));
#524=IFCCARTESIANPOINTLIST3D(((2323.19953195494,4843.7771257293,27.0000000000006),(2688.29563391313,5092.67712216315,27.0000000000014),(2688.29563391313,3217.52993590553,27.0000000000022),(2323.19953195494,3217.52993590553,27.0000000000013),(2322.39979680718,4842.68478040093,1.45661260830821E-13),(2689.09819296824,5092.67712216315,9.41469124882133E-13),(2689.09819296824,3217.52993590553,1.71951342053944E-12),(2322.39979680718,3217.52993590553,8.20676859802916E-13)));
#525=IFCPOLYGONALFACESET(#524,.T.,(#516,#517,#518,#519,#520,#521,#522,#523),$);
#526=IFCSHAPEREPRESENTATION(#12,'Body','Tessellation',(#525));
#527=IFCPRODUCTDEFINITIONSHAPE($,$,(#526));
ENDSEC;
END-ISO-10303-21;
