# OBJ
# COMPAS
# version: 2.15.1
# precision: 3
# V F E: 16 28 42

o bolt_0_preview
v 80.000 -9.239 13.066
v 80.000 -3.827 18.478
v 80.000 3.827 18.478
v 80.000 9.239 13.066
v 80.000 9.239 5.412
v 80.000 3.827 -0.000
v 80.000 -3.827 -0.000
v 80.000 -9.239 5.412
v -80.000 -9.239 13.066
v -80.000 -3.827 18.478
v -80.000 3.827 18.478
v -80.000 9.239 13.066
v -80.000 9.239 5.412
v -80.000 3.827 -0.000
v -80.000 -3.827 -0.000
v -80.000 -9.239 5.412
f 1 8 7
f 7 6 5
f 5 4 3
f 3 2 1
f 1 7 5
f 5 3 1
f 16 9 10
f 10 11 12
f 12 13 14
f 14 15 16
f 16 10 12
f 12 14 16
f 9 1 2
f 2 10 9
f 10 2 3
f 3 11 10
f 11 3 4
f 4 12 11
f 12 4 5
f 5 13 12
f 13 5 6
f 6 14 13
f 14 6 7
f 7 15 14
f 15 7 8
f 8 16 15
f 16 8 1
f 1 9 16
