ISO-10303-21;
HEADER;
FILE_DESCRIPTION(('ViewDefinition [CoordinationView]'),'2;1');
FILE_NAME('','2026-08-20T14:41:56',(''),(''),'IfcOpenShell 0.8.4-e8eb5e4','IfcOpenShell 0.8.4-e8eb5e4','');
FILE_SCHEMA(('IFC4'));
ENDSEC;
DATA;
#1=IFCPROJECT('2F4MDUyTb4H9KmAI1zo_qE',$,'Default Project',$,$,$,$,(#11),#6);
#2=IFCSIUNIT(*,.LENGTHUNIT.,.MILLI.,.METRE.);
#3=IFCSIUNIT(*,.AREAUNIT.,.MILLI.,.SQUARE_METRE.);
#4=IFCSIUNIT(*,.VOLUMEUNIT.,.MILLI.,.CUBIC_METRE.);
#5=IFCSIUNIT(*,.PLANEANGLEUNIT.,$,.RADIAN.);
#6=IFCUNITASSIGNMENT((#2,#3,#4,#5));
#7=IFCCARTESIANPOINT((0.,0.,0.));
#8=IFCDIRECTION((0.,0.,1.));
#9=IFCDIRECTION((1.,0.,0.));
#10=IFCAXIS2PLACEMENT3D(#7,#8,#9);
#11=IFCGEOMETRICREPRESENTATIONCONTEXT($,'Model',3,1.E-05,#10,$);
#12=IFCGEOMETRICREPRESENTATIONSUBCONTEXT('Body','Model',*,*,*,*,#11,$,.MODEL_VIEW.,$);
#13=IFCPERSON($,'Unknown Author',$,$,$,$,$,$);
#14=IFCORGANIZATION($,'compas.dev',$,$,$);
#15=IFCPERSONANDORGANIZATION(#13,#14,$);
#16=IFCAPPLICATION(#14,'2.1.0','compas_ifc','compas_ifc v2.1.0');
#17=IFCOWNERHISTORY(#15,#16,$,$,$,$,$,1787229716);
#18=IFCSITE('1Ow0IgM7155vzjoxsIX4Xq',$,'Default Site',$,$,$,$,$,$,$,$,$,$,$);
#19=IFCRELAGGREGATES('1MMCScS4n2xxlYWiK_RXmH',$,$,$,#1,(#18));
#20=IFCBUILDING('3zC3DOUwrDrxmpQlTnCpWG',$,'Default Building 1',$,$,$,$,$,$,$,$,$);
#21=IFCRELAGGREGATES('2md0wOqMv9UOoORJBTadvL',$,$,$,#18,(#20));
#22=IFCBUILDINGSTOREY('1UkOG0XbL5cRTKTAGbUNg8',$,'Default Storey 1',$,$,$,$,$,$,$);
#23=IFCRELAGGREGATES('3Oz1ljG91FkhKcqGy9ahGY',$,$,$,#20,(#22));
#24=IFCBUILDINGELEMENTPROXY('1abYjXJY1C$hEl2nx38hDO',$,'column_0_uncut',$,$,$,#63,$,$);
#25=IFCRELCONTAINEDINSPATIALSTRUCTURE('0UM6Ujekb7S8GC0fyu$4Dr',$,$,$,(#24),#22);
#26=IFCINDEXEDPOLYGONALFACE((1,2,3));
#27=IFCINDEXEDPOLYGONALFACE((1,3,13));
#28=IFCINDEXEDPOLYGONALFACE((1,8,9));
#29=IFCINDEXEDPOLYGONALFACE((1,13,8));
#30=IFCINDEXEDPOLYGONALFACE((1,10,2));
#31=IFCINDEXEDPOLYGONALFACE((2,4,3));
#32=IFCINDEXEDPOLYGONALFACE((2,5,4));
#33=IFCINDEXEDPOLYGONALFACE((2,15,5));
#34=IFCINDEXEDPOLYGONALFACE((1,9,10));
#35=IFCINDEXEDPOLYGONALFACE((2,10,15));
#36=IFCINDEXEDPOLYGONALFACE((3,4,14));
#37=IFCINDEXEDPOLYGONALFACE((3,14,13));
#38=IFCINDEXEDPOLYGONALFACE((8,14,9));
#39=IFCINDEXEDPOLYGONALFACE((8,13,14));
#40=IFCINDEXEDPOLYGONALFACE((9,16,11));
#41=IFCINDEXEDPOLYGONALFACE((9,12,10));
#42=IFCINDEXEDPOLYGONALFACE((9,11,12));
#43=IFCINDEXEDPOLYGONALFACE((10,12,17));
#44=IFCINDEXEDPOLYGONALFACE((11,17,12));
#45=IFCINDEXEDPOLYGONALFACE((9,14,16));
#46=IFCINDEXEDPOLYGONALFACE((10,17,15));
#47=IFCINDEXEDPOLYGONALFACE((11,16,17));
#48=IFCINDEXEDPOLYGONALFACE((4,5,6));
#49=IFCINDEXEDPOLYGONALFACE((5,7,6));
#50=IFCINDEXEDPOLYGONALFACE((4,6,18));
#51=IFCINDEXEDPOLYGONALFACE((6,7,18));
#52=IFCINDEXEDPOLYGONALFACE((5,19,7));
#53=IFCINDEXEDPOLYGONALFACE((4,18,14));
#54=IFCINDEXEDPOLYGONALFACE((19,5,15));
#55=IFCINDEXEDPOLYGONALFACE((7,19,18));
#56=IFCINDEXEDPOLYGONALFACE((18,16,14));
#57=IFCINDEXEDPOLYGONALFACE((17,19,15));
#58=IFCINDEXEDPOLYGONALFACE((16,19,17));
#59=IFCINDEXEDPOLYGONALFACE((16,18,19));
#60=IFCCARTESIANPOINTLIST3D(((0.,0.,0.),(2850.,0.,0.),(0.,0.,220.),(2120.,0.,220.),(2850.,0.,220.),(2120.,0.,340.),(2850.,0.,340.),(0.,220.,0.),(2120.,220.,0.),(2850.,220.,0.),(2120.,340.,0.),(2850.,340.,0.),(0.,220.,220.),(2120.,220.,220.),(2850.,220.,220.),(2120.,340.,220.),(2850.,340.,220.),(2120.,340.,340.),(2850.,340.,340.)));
#61=IFCPOLYGONALFACESET(#60,.T.,(#26,#27,#28,#29,#30,#31,#32,#33,#34,#35,#36,#37,#38,#39,#40,#41,#42,#43,#44,#45,#46,#47,#48,#49,#50,#51,#52,#53,#54,#55,#56,#57,#58,#59),$);
#62=IFCSHAPEREPRESENTATION(#12,'Body','Tessellation',(#61));
#63=IFCPRODUCTDEFINITIONSHAPE($,$,(#62));
#64=IFCBUILDINGELEMENTPROXY('0Shnoyhbf1eQC9tfSlwPBv',$,'column_0_cut',$,$,$,#687,$,$);
#65=IFCRELCONTAINEDINSPATIALSTRUCTURE('3qAWxiPjj51e0Q4mJxIKsf',$,$,$,(#64),#22);
#66=IFCINDEXEDPOLYGONALFACE((1,2,199));
#67=IFCINDEXEDPOLYGONALFACE((1,199,300));
#68=IFCINDEXEDPOLYGONALFACE((1,249,250));
#69=IFCINDEXEDPOLYGONALFACE((1,300,249));
#70=IFCINDEXEDPOLYGONALFACE((1,13,5));
#71=IFCINDEXEDPOLYGONALFACE((1,6,2));
#72=IFCINDEXEDPOLYGONALFACE((1,5,6));
#73=IFCINDEXEDPOLYGONALFACE((1,86,13));
#74=IFCINDEXEDPOLYGONALFACE((2,4,3));
#75=IFCINDEXEDPOLYGONALFACE((2,8,4));
#76=IFCINDEXEDPOLYGONALFACE((3,4,7));
#77=IFCINDEXEDPOLYGONALFACE((2,6,8));
#78=IFCINDEXEDPOLYGONALFACE((4,8,7));
#79=IFCINDEXEDPOLYGONALFACE((3,11,9));
#80=IFCINDEXEDPOLYGONALFACE((9,12,10));
#81=IFCINDEXEDPOLYGONALFACE((3,7,11));
#82=IFCINDEXEDPOLYGONALFACE((9,11,12));
#83=IFCINDEXEDPOLYGONALFACE((2,3,199));
#84=IFCINDEXEDPOLYGONALFACE((3,200,199));
#85=IFCINDEXEDPOLYGONALFACE((3,9,200));
#86=IFCINDEXEDPOLYGONALFACE((9,10,200));
#87=IFCINDEXEDPOLYGONALFACE((10,23,21));
#88=IFCINDEXEDPOLYGONALFACE((10,25,23));
#89=IFCINDEXEDPOLYGONALFACE((10,28,25));
#90=IFCINDEXEDPOLYGONALFACE((10,36,28));
#91=IFCINDEXEDPOLYGONALFACE((10,12,222));
#92=IFCINDEXEDPOLYGONALFACE((200,21,19));
#93=IFCINDEXEDPOLYGONALFACE((200,19,20));
#94=IFCINDEXEDPOLYGONALFACE((10,21,200));
#95=IFCINDEXEDPOLYGONALFACE((21,24,22));
#96=IFCINDEXEDPOLYGONALFACE((21,23,24));
#97=IFCINDEXEDPOLYGONALFACE((22,24,27));
#98=IFCINDEXEDPOLYGONALFACE((22,27,26));
#99=IFCINDEXEDPOLYGONALFACE((26,33,32));
#100=IFCINDEXEDPOLYGONALFACE((26,27,33));
#101=IFCINDEXEDPOLYGONALFACE((32,33,35));
#102=IFCINDEXEDPOLYGONALFACE((32,35,34));
#103=IFCINDEXEDPOLYGONALFACE((10,221,36));
#104=IFCINDEXEDPOLYGONALFACE((34,35,39));
#105=IFCINDEXEDPOLYGONALFACE((34,39,38));
#106=IFCINDEXEDPOLYGONALFACE((1,105,86));
#107=IFCINDEXEDPOLYGONALFACE((1,106,105));
#108=IFCINDEXEDPOLYGONALFACE((1,107,106));
#109=IFCINDEXEDPOLYGONALFACE((1,251,107));
#110=IFCINDEXEDPOLYGONALFACE((1,252,251));
#111=IFCINDEXEDPOLYGONALFACE((1,250,281));
#112=IFCINDEXEDPOLYGONALFACE((1,281,252));
#113=IFCINDEXEDPOLYGONALFACE((93,14,13));
#114=IFCINDEXEDPOLYGONALFACE((97,15,16));
#115=IFCINDEXEDPOLYGONALFACE((85,87,13));
#116=IFCINDEXEDPOLYGONALFACE((87,88,13));
#117=IFCINDEXEDPOLYGONALFACE((85,13,86));
#118=IFCINDEXEDPOLYGONALFACE((88,92,13));
#119=IFCINDEXEDPOLYGONALFACE((92,93,13));
#120=IFCINDEXEDPOLYGONALFACE((89,14,90));
#121=IFCINDEXEDPOLYGONALFACE((89,91,14));
#122=IFCINDEXEDPOLYGONALFACE((90,14,93));
#123=IFCINDEXEDPOLYGONALFACE((91,94,14));
#124=IFCINDEXEDPOLYGONALFACE((94,112,14));
#125=IFCINDEXEDPOLYGONALFACE((95,15,97));
#126=IFCINDEXEDPOLYGONALFACE((95,96,15));
#127=IFCINDEXEDPOLYGONALFACE((96,117,15));
#128=IFCINDEXEDPOLYGONALFACE((117,118,15));
#129=IFCINDEXEDPOLYGONALFACE((97,16,99));
#130=IFCINDEXEDPOLYGONALFACE((99,16,101));
#131=IFCINDEXEDPOLYGONALFACE((101,16,104));
#132=IFCINDEXEDPOLYGONALFACE((282,16,14));
#133=IFCINDEXEDPOLYGONALFACE((104,16,124));
#134=IFCINDEXEDPOLYGONALFACE((124,16,125));
#135=IFCINDEXEDPOLYGONALFACE((135,18,17));
#136=IFCINDEXEDPOLYGONALFACE((129,131,17));
#137=IFCINDEXEDPOLYGONALFACE((131,132,17));
#138=IFCINDEXEDPOLYGONALFACE((129,17,130));
#139=IFCINDEXEDPOLYGONALFACE((132,136,17));
#140=IFCINDEXEDPOLYGONALFACE((130,17,139));
#141=IFCINDEXEDPOLYGONALFACE((139,17,140));
#142=IFCINDEXEDPOLYGONALFACE((133,17,134));
#143=IFCINDEXEDPOLYGONALFACE((136,137,17));
#144=IFCINDEXEDPOLYGONALFACE((134,17,137));
#145=IFCINDEXEDPOLYGONALFACE((133,135,17));
#146=IFCINDEXEDPOLYGONALFACE((135,138,18));
#147=IFCINDEXEDPOLYGONALFACE((138,146,18));
#148=IFCINDEXEDPOLYGONALFACE((85,95,87));
#149=IFCINDEXEDPOLYGONALFACE((85,86,96));
#150=IFCINDEXEDPOLYGONALFACE((86,105,117));
#151=IFCINDEXEDPOLYGONALFACE((87,97,88));
#152=IFCINDEXEDPOLYGONALFACE((88,98,92));
#153=IFCINDEXEDPOLYGONALFACE((89,99,91));
#154=IFCINDEXEDPOLYGONALFACE((89,90,100));
#155=IFCINDEXEDPOLYGONALFACE((91,101,94));
#156=IFCINDEXEDPOLYGONALFACE((92,108,93));
#157=IFCINDEXEDPOLYGONALFACE((93,108,109));
#158=IFCINDEXEDPOLYGONALFACE((90,93,103));
#159=IFCINDEXEDPOLYGONALFACE((92,102,108));
#160=IFCINDEXEDPOLYGONALFACE((93,109,121));
#161=IFCINDEXEDPOLYGONALFACE((94,104,112));
#162=IFCINDEXEDPOLYGONALFACE((87,95,97));
#163=IFCINDEXEDPOLYGONALFACE((85,96,95));
#164=IFCINDEXEDPOLYGONALFACE((118,119,15));
#165=IFCINDEXEDPOLYGONALFACE((86,117,96));
#166=IFCINDEXEDPOLYGONALFACE((88,97,98));
#167=IFCINDEXEDPOLYGONALFACE((89,100,99));
#168=IFCINDEXEDPOLYGONALFACE((91,99,101));
#169=IFCINDEXEDPOLYGONALFACE((90,103,100));
#170=IFCINDEXEDPOLYGONALFACE((97,100,98));
#171=IFCINDEXEDPOLYGONALFACE((97,99,100));
#172=IFCINDEXEDPOLYGONALFACE((98,100,103));
#173=IFCINDEXEDPOLYGONALFACE((125,16,128));
#174=IFCINDEXEDPOLYGONALFACE((92,98,102));
#175=IFCINDEXEDPOLYGONALFACE((102,120,108));
#176=IFCINDEXEDPOLYGONALFACE((93,121,103));
#177=IFCINDEXEDPOLYGONALFACE((94,101,104));
#178=IFCINDEXEDPOLYGONALFACE((104,124,112));
#179=IFCINDEXEDPOLYGONALFACE((98,103,102));
#180=IFCINDEXEDPOLYGONALFACE((102,121,120));
#181=IFCINDEXEDPOLYGONALFACE((102,103,121));
#182=IFCINDEXEDPOLYGONALFACE((105,106,118));
#183=IFCINDEXEDPOLYGONALFACE((106,107,119));
#184=IFCINDEXEDPOLYGONALFACE((108,110,109));
#185=IFCINDEXEDPOLYGONALFACE((109,110,111));
#186=IFCINDEXEDPOLYGONALFACE((112,281,14));
#187=IFCINDEXEDPOLYGONALFACE((108,120,110));
#188=IFCINDEXEDPOLYGONALFACE((109,111,123));
#189=IFCINDEXEDPOLYGONALFACE((112,124,113));
#190=IFCINDEXEDPOLYGONALFACE((110,114,111));
#191=IFCINDEXEDPOLYGONALFACE((111,114,115));
#192=IFCINDEXEDPOLYGONALFACE((110,122,114));
#193=IFCINDEXEDPOLYGONALFACE((111,115,127));
#194=IFCINDEXEDPOLYGONALFACE((113,125,116));
#195=IFCINDEXEDPOLYGONALFACE((105,118,117));
#196=IFCINDEXEDPOLYGONALFACE((106,119,118));
#197=IFCINDEXEDPOLYGONALFACE((119,296,15));
#198=IFCINDEXEDPOLYGONALFACE((109,123,121));
#199=IFCINDEXEDPOLYGONALFACE((110,120,122));
#200=IFCINDEXEDPOLYGONALFACE((113,124,125));
#201=IFCINDEXEDPOLYGONALFACE((120,121,123));
#202=IFCINDEXEDPOLYGONALFACE((120,123,122));
#203=IFCINDEXEDPOLYGONALFACE((128,16,282));
#204=IFCINDEXEDPOLYGONALFACE((111,127,123));
#205=IFCINDEXEDPOLYGONALFACE((114,122,126));
#206=IFCINDEXEDPOLYGONALFACE((116,125,128));
#207=IFCINDEXEDPOLYGONALFACE((122,123,127));
#208=IFCINDEXEDPOLYGONALFACE((122,127,126));
#209=IFCINDEXEDPOLYGONALFACE((298,17,15));
#210=IFCINDEXEDPOLYGONALFACE((140,17,141));
#211=IFCINDEXEDPOLYGONALFACE((136,142,137));
#212=IFCINDEXEDPOLYGONALFACE((137,142,143));
#213=IFCINDEXEDPOLYGONALFACE((141,17,298));
#214=IFCINDEXEDPOLYGONALFACE((142,144,143));
#215=IFCINDEXEDPOLYGONALFACE((143,144,145));
#216=IFCINDEXEDPOLYGONALFACE((146,284,18));
#217=IFCINDEXEDPOLYGONALFACE((144,148,145));
#218=IFCINDEXEDPOLYGONALFACE((145,148,149));
#219=IFCINDEXEDPOLYGONALFACE((129,152,131));
#220=IFCINDEXEDPOLYGONALFACE((129,130,154));
#221=IFCINDEXEDPOLYGONALFACE((130,139,185));
#222=IFCINDEXEDPOLYGONALFACE((131,157,132));
#223=IFCINDEXEDPOLYGONALFACE((132,158,136));
#224=IFCINDEXEDPOLYGONALFACE((133,162,135));
#225=IFCINDEXEDPOLYGONALFACE((133,134,163));
#226=IFCINDEXEDPOLYGONALFACE((135,164,138));
#227=IFCINDEXEDPOLYGONALFACE((134,137,169));
#228=IFCINDEXEDPOLYGONALFACE((136,168,142));
#229=IFCINDEXEDPOLYGONALFACE((137,143,189));
#230=IFCINDEXEDPOLYGONALFACE((138,170,146));
#231=IFCINDEXEDPOLYGONALFACE((131,152,157));
#232=IFCINDEXEDPOLYGONALFACE((129,154,152));
#233=IFCINDEXEDPOLYGONALFACE((130,185,154));
#234=IFCINDEXEDPOLYGONALFACE((132,157,158));
#235=IFCINDEXEDPOLYGONALFACE((133,163,162));
#236=IFCINDEXEDPOLYGONALFACE((135,162,164));
#237=IFCINDEXEDPOLYGONALFACE((134,169,163));
#238=IFCINDEXEDPOLYGONALFACE((136,158,168));
#239=IFCINDEXEDPOLYGONALFACE((142,168,188));
#240=IFCINDEXEDPOLYGONALFACE((137,189,169));
#241=IFCINDEXEDPOLYGONALFACE((138,164,170));
#242=IFCINDEXEDPOLYGONALFACE((146,170,193));
#243=IFCINDEXEDPOLYGONALFACE((238,18,284));
#244=IFCINDEXEDPOLYGONALFACE((139,140,186));
#245=IFCINDEXEDPOLYGONALFACE((140,141,187));
#246=IFCINDEXEDPOLYGONALFACE((142,188,144));
#247=IFCINDEXEDPOLYGONALFACE((143,145,192));
#248=IFCINDEXEDPOLYGONALFACE((146,193,147));
#249=IFCINDEXEDPOLYGONALFACE((144,191,148));
#250=IFCINDEXEDPOLYGONALFACE((145,149,197));
#251=IFCINDEXEDPOLYGONALFACE((147,195,150));
#252=IFCINDEXEDPOLYGONALFACE((139,186,185));
#253=IFCINDEXEDPOLYGONALFACE((140,187,186));
#254=IFCINDEXEDPOLYGONALFACE((143,192,189));
#255=IFCINDEXEDPOLYGONALFACE((144,188,191));
#256=IFCINDEXEDPOLYGONALFACE((147,193,195));
#257=IFCINDEXEDPOLYGONALFACE((145,197,192));
#258=IFCINDEXEDPOLYGONALFACE((148,191,196));
#259=IFCINDEXEDPOLYGONALFACE((150,195,198));
#260=IFCINDEXEDPOLYGONALFACE((152,190,157));
#261=IFCINDEXEDPOLYGONALFACE((152,154,190));
#262=IFCINDEXEDPOLYGONALFACE((157,190,158));
#263=IFCINDEXEDPOLYGONALFACE((158,190,168));
#264=IFCINDEXEDPOLYGONALFACE((162,163,194));
#265=IFCINDEXEDPOLYGONALFACE((162,194,164));
#266=IFCINDEXEDPOLYGONALFACE((163,169,194));
#267=IFCINDEXEDPOLYGONALFACE((164,194,170));
#268=IFCINDEXEDPOLYGONALFACE((154,185,190));
#269=IFCINDEXEDPOLYGONALFACE((185,186,190));
#270=IFCINDEXEDPOLYGONALFACE((186,187,190));
#271=IFCINDEXEDPOLYGONALFACE((187,285,190));
#272=IFCINDEXEDPOLYGONALFACE((168,190,188));
#273=IFCINDEXEDPOLYGONALFACE((188,190,191));
#274=IFCINDEXEDPOLYGONALFACE((189,192,194));
#275=IFCINDEXEDPOLYGONALFACE((169,189,194));
#276=IFCINDEXEDPOLYGONALFACE((170,194,193));
#277=IFCINDEXEDPOLYGONALFACE((193,194,195));
#278=IFCINDEXEDPOLYGONALFACE((190,196,191));
#279=IFCINDEXEDPOLYGONALFACE((192,197,194));
#280=IFCINDEXEDPOLYGONALFACE((190,287,196));
#281=IFCINDEXEDPOLYGONALFACE((194,198,195));
#282=IFCINDEXEDPOLYGONALFACE((194,197,288));
#283=IFCINDEXEDPOLYGONALFACE((194,289,198));
#284=IFCINDEXEDPOLYGONALFACE((199,200,301));
#285=IFCINDEXEDPOLYGONALFACE((199,301,300));
#286=IFCINDEXEDPOLYGONALFACE((200,20,29));
#287=IFCINDEXEDPOLYGONALFACE((200,29,30));
#288=IFCINDEXEDPOLYGONALFACE((200,30,31));
#289=IFCINDEXEDPOLYGONALFACE((200,31,201));
#290=IFCINDEXEDPOLYGONALFACE((200,201,202));
#291=IFCINDEXEDPOLYGONALFACE((200,202,207));
#292=IFCINDEXEDPOLYGONALFACE((38,204,203));
#293=IFCINDEXEDPOLYGONALFACE((38,39,204));
#294=IFCINDEXEDPOLYGONALFACE((203,204,208));
#295=IFCINDEXEDPOLYGONALFACE((221,37,36));
#296=IFCINDEXEDPOLYGONALFACE((203,208,206));
#297=IFCINDEXEDPOLYGONALFACE((206,208,207));
#298=IFCINDEXEDPOLYGONALFACE((221,40,37));
#299=IFCINDEXEDPOLYGONALFACE((10,222,221));
#300=IFCINDEXEDPOLYGONALFACE((200,207,208));
#301=IFCINDEXEDPOLYGONALFACE((200,208,209));
#302=IFCINDEXEDPOLYGONALFACE((221,205,40));
#303=IFCINDEXEDPOLYGONALFACE((221,209,210));
#304=IFCINDEXEDPOLYGONALFACE((221,210,205));
#305=IFCINDEXEDPOLYGONALFACE((200,209,221));
#306=IFCINDEXEDPOLYGONALFACE((200,221,236));
#307=IFCINDEXEDPOLYGONALFACE((236,234,235));
#308=IFCINDEXEDPOLYGONALFACE((236,235,237));
#309=IFCINDEXEDPOLYGONALFACE((221,222,236));
#310=IFCINDEXEDPOLYGONALFACE((236,222,234));
#311=IFCINDEXEDPOLYGONALFACE((236,237,238));
#312=IFCINDEXEDPOLYGONALFACE((200,236,302));
#313=IFCINDEXEDPOLYGONALFACE((238,233,18));
#314=IFCINDEXEDPOLYGONALFACE((238,237,233));
#315=IFCINDEXEDPOLYGONALFACE((200,302,301));
#316=IFCINDEXEDPOLYGONALFACE((236,238,302));
#317=IFCINDEXEDPOLYGONALFACE((249,301,250));
#318=IFCINDEXEDPOLYGONALFACE((249,300,301));
#319=IFCINDEXEDPOLYGONALFACE((107,251,261));
#320=IFCINDEXEDPOLYGONALFACE((251,252,262));
#321=IFCINDEXEDPOLYGONALFACE((252,257,267));
#322=IFCINDEXEDPOLYGONALFACE((114,253,115));
#323=IFCINDEXEDPOLYGONALFACE((115,253,254));
#324=IFCINDEXEDPOLYGONALFACE((253,256,254));
#325=IFCINDEXEDPOLYGONALFACE((112,113,281));
#326=IFCINDEXEDPOLYGONALFACE((114,126,253));
#327=IFCINDEXEDPOLYGONALFACE((115,254,264));
#328=IFCINDEXEDPOLYGONALFACE((253,263,256));
#329=IFCINDEXEDPOLYGONALFACE((116,128,255));
#330=IFCINDEXEDPOLYGONALFACE((255,265,260));
#331=IFCINDEXEDPOLYGONALFACE((281,282,14));
#332=IFCINDEXEDPOLYGONALFACE((256,257,258));
#333=IFCINDEXEDPOLYGONALFACE((254,256,258));
#334=IFCINDEXEDPOLYGONALFACE((257,259,258));
#335=IFCINDEXEDPOLYGONALFACE((113,116,281));
#336=IFCINDEXEDPOLYGONALFACE((256,266,257));
#337=IFCINDEXEDPOLYGONALFACE((254,258,268));
#338=IFCINDEXEDPOLYGONALFACE((259,260,270));
#339=IFCINDEXEDPOLYGONALFACE((258,259,269));
#340=IFCINDEXEDPOLYGONALFACE((107,261,119));
#341=IFCINDEXEDPOLYGONALFACE((251,262,261));
#342=IFCINDEXEDPOLYGONALFACE((252,267,262));
#343=IFCINDEXEDPOLYGONALFACE((126,263,253));
#344=IFCINDEXEDPOLYGONALFACE((115,264,127));
#345=IFCINDEXEDPOLYGONALFACE((254,268,264));
#346=IFCINDEXEDPOLYGONALFACE((128,265,255));
#347=IFCINDEXEDPOLYGONALFACE((256,263,266));
#348=IFCINDEXEDPOLYGONALFACE((257,266,267));
#349=IFCINDEXEDPOLYGONALFACE((260,265,270));
#350=IFCINDEXEDPOLYGONALFACE((258,269,268));
#351=IFCINDEXEDPOLYGONALFACE((259,270,269));
#352=IFCINDEXEDPOLYGONALFACE((252,281,257));
#353=IFCINDEXEDPOLYGONALFACE((116,255,281));
#354=IFCINDEXEDPOLYGONALFACE((257,281,259));
#355=IFCINDEXEDPOLYGONALFACE((259,281,260));
#356=IFCINDEXEDPOLYGONALFACE((255,260,281));
#357=IFCINDEXEDPOLYGONALFACE((119,261,296));
#358=IFCINDEXEDPOLYGONALFACE((261,262,296));
#359=IFCINDEXEDPOLYGONALFACE((263,296,266));
#360=IFCINDEXEDPOLYGONALFACE((126,127,283));
#361=IFCINDEXEDPOLYGONALFACE((126,283,263));
#362=IFCINDEXEDPOLYGONALFACE((127,264,283));
#363=IFCINDEXEDPOLYGONALFACE((128,282,265));
#364=IFCINDEXEDPOLYGONALFACE((264,268,283));
#365=IFCINDEXEDPOLYGONALFACE((268,269,282));
#366=IFCINDEXEDPOLYGONALFACE((269,270,282));
#367=IFCINDEXEDPOLYGONALFACE((265,282,270));
#368=IFCINDEXEDPOLYGONALFACE((146,147,284));
#369=IFCINDEXEDPOLYGONALFACE((147,150,284));
#370=IFCINDEXEDPOLYGONALFACE((296,298,15));
#371=IFCINDEXEDPOLYGONALFACE((141,298,271));
#372=IFCINDEXEDPOLYGONALFACE((271,297,272));
#373=IFCINDEXEDPOLYGONALFACE((272,297,277));
#374=IFCINDEXEDPOLYGONALFACE((276,277,297));
#375=IFCINDEXEDPOLYGONALFACE((148,297,149));
#376=IFCINDEXEDPOLYGONALFACE((150,275,284));
#377=IFCINDEXEDPOLYGONALFACE((279,284,280));
#378=IFCINDEXEDPOLYGONALFACE((275,280,284));
#379=IFCINDEXEDPOLYGONALFACE((148,273,297));
#380=IFCINDEXEDPOLYGONALFACE((149,297,274));
#381=IFCINDEXEDPOLYGONALFACE((273,276,297));
#382=IFCINDEXEDPOLYGONALFACE((274,297,278));
#383=IFCINDEXEDPOLYGONALFACE((278,297,279));
#384=IFCINDEXEDPOLYGONALFACE((262,267,296));
#385=IFCINDEXEDPOLYGONALFACE((266,296,267));
#386=IFCINDEXEDPOLYGONALFACE((268,282,283));
#387=IFCINDEXEDPOLYGONALFACE((263,283,296));
#388=IFCINDEXEDPOLYGONALFACE((281,283,282));
#389=IFCINDEXEDPOLYGONALFACE((281,296,283));
#390=IFCINDEXEDPOLYGONALFACE((279,297,284));
#391=IFCINDEXEDPOLYGONALFACE((271,298,297));
#392=IFCINDEXEDPOLYGONALFACE((141,271,285));
#393=IFCINDEXEDPOLYGONALFACE((271,272,286));
#394=IFCINDEXEDPOLYGONALFACE((272,277,291));
#395=IFCINDEXEDPOLYGONALFACE((148,196,273));
#396=IFCINDEXEDPOLYGONALFACE((149,274,288));
#397=IFCINDEXEDPOLYGONALFACE((273,287,276));
#398=IFCINDEXEDPOLYGONALFACE((150,198,275));
#399=IFCINDEXEDPOLYGONALFACE((275,289,280));
#400=IFCINDEXEDPOLYGONALFACE((276,290,277));
#401=IFCINDEXEDPOLYGONALFACE((274,278,292));
#402=IFCINDEXEDPOLYGONALFACE((279,280,294));
#403=IFCINDEXEDPOLYGONALFACE((278,279,293));
#404=IFCINDEXEDPOLYGONALFACE((141,285,187));
#405=IFCINDEXEDPOLYGONALFACE((271,286,285));
#406=IFCINDEXEDPOLYGONALFACE((272,291,286));
#407=IFCINDEXEDPOLYGONALFACE((196,287,273));
#408=IFCINDEXEDPOLYGONALFACE((149,288,197));
#409=IFCINDEXEDPOLYGONALFACE((274,292,288));
#410=IFCINDEXEDPOLYGONALFACE((198,289,275));
#411=IFCINDEXEDPOLYGONALFACE((276,287,290));
#412=IFCINDEXEDPOLYGONALFACE((277,290,291));
#413=IFCINDEXEDPOLYGONALFACE((280,289,294));
#414=IFCINDEXEDPOLYGONALFACE((278,293,292));
#415=IFCINDEXEDPOLYGONALFACE((279,294,293));
#416=IFCINDEXEDPOLYGONALFACE((190,285,286));
#417=IFCINDEXEDPOLYGONALFACE((190,286,291));
#418=IFCINDEXEDPOLYGONALFACE((190,290,287));
#419=IFCINDEXEDPOLYGONALFACE((190,291,290));
#420=IFCINDEXEDPOLYGONALFACE((194,288,292));
#421=IFCINDEXEDPOLYGONALFACE((194,294,289));
#422=IFCINDEXEDPOLYGONALFACE((194,292,293));
#423=IFCINDEXEDPOLYGONALFACE((194,293,294));
#424=IFCINDEXEDPOLYGONALFACE((238,284,295));
#425=IFCINDEXEDPOLYGONALFACE((284,297,295));
#426=IFCINDEXEDPOLYGONALFACE((250,301,299));
#427=IFCINDEXEDPOLYGONALFACE((250,299,281));
#428=IFCINDEXEDPOLYGONALFACE((296,299,298));
#429=IFCINDEXEDPOLYGONALFACE((281,299,296));
#430=IFCINDEXEDPOLYGONALFACE((297,298,303));
#431=IFCINDEXEDPOLYGONALFACE((295,297,303));
#432=IFCINDEXEDPOLYGONALFACE((298,299,303));
#433=IFCINDEXEDPOLYGONALFACE((299,301,303));
#434=IFCINDEXEDPOLYGONALFACE((238,295,302));
#435=IFCINDEXEDPOLYGONALFACE((295,303,302));
#436=IFCINDEXEDPOLYGONALFACE((301,302,303));
#437=IFCINDEXEDPOLYGONALFACE((6,5,7));
#438=IFCINDEXEDPOLYGONALFACE((6,7,8));
#439=IFCINDEXEDPOLYGONALFACE((15,5,13));
#440=IFCINDEXEDPOLYGONALFACE((17,5,15));
#441=IFCINDEXEDPOLYGONALFACE((16,13,14));
#442=IFCINDEXEDPOLYGONALFACE((16,15,13));
#443=IFCINDEXEDPOLYGONALFACE((41,12,11));
#444=IFCINDEXEDPOLYGONALFACE((42,41,11));
#445=IFCINDEXEDPOLYGONALFACE((42,11,51));
#446=IFCINDEXEDPOLYGONALFACE((52,51,11));
#447=IFCINDEXEDPOLYGONALFACE((41,43,12));
#448=IFCINDEXEDPOLYGONALFACE((43,45,12));
#449=IFCINDEXEDPOLYGONALFACE((45,47,12));
#450=IFCINDEXEDPOLYGONALFACE((47,50,12));
#451=IFCINDEXEDPOLYGONALFACE((50,58,12));
#452=IFCINDEXEDPOLYGONALFACE((43,19,21));
#453=IFCINDEXEDPOLYGONALFACE((41,20,19));
#454=IFCINDEXEDPOLYGONALFACE((42,29,20));
#455=IFCINDEXEDPOLYGONALFACE((44,21,22));
#456=IFCINDEXEDPOLYGONALFACE((45,24,23));
#457=IFCINDEXEDPOLYGONALFACE((47,23,25));
#458=IFCINDEXEDPOLYGONALFACE((46,27,24));
#459=IFCINDEXEDPOLYGONALFACE((48,22,26));
#460=IFCINDEXEDPOLYGONALFACE((54,26,32));
#461=IFCINDEXEDPOLYGONALFACE((49,33,27));
#462=IFCINDEXEDPOLYGONALFACE((50,25,28));
#463=IFCINDEXEDPOLYGONALFACE((58,28,36));
#464=IFCINDEXEDPOLYGONALFACE((51,30,29));
#465=IFCINDEXEDPOLYGONALFACE((52,31,30));
#466=IFCINDEXEDPOLYGONALFACE((55,35,33));
#467=IFCINDEXEDPOLYGONALFACE((56,32,34));
#468=IFCINDEXEDPOLYGONALFACE((59,36,37));
#469=IFCINDEXEDPOLYGONALFACE((57,39,35));
#470=IFCINDEXEDPOLYGONALFACE((60,34,38));
#471=IFCINDEXEDPOLYGONALFACE((62,37,40));
#472=IFCINDEXEDPOLYGONALFACE((41,19,43));
#473=IFCINDEXEDPOLYGONALFACE((42,20,41));
#474=IFCINDEXEDPOLYGONALFACE((42,51,29));
#475=IFCINDEXEDPOLYGONALFACE((52,11,53));
#476=IFCINDEXEDPOLYGONALFACE((43,21,44));
#477=IFCINDEXEDPOLYGONALFACE((44,22,48));
#478=IFCINDEXEDPOLYGONALFACE((45,23,47));
#479=IFCINDEXEDPOLYGONALFACE((46,24,45));
#480=IFCINDEXEDPOLYGONALFACE((47,25,50));
#481=IFCINDEXEDPOLYGONALFACE((49,27,46));
#482=IFCINDEXEDPOLYGONALFACE((48,26,54));
#483=IFCINDEXEDPOLYGONALFACE((55,33,49));
#484=IFCINDEXEDPOLYGONALFACE((50,28,58));
#485=IFCINDEXEDPOLYGONALFACE((43,44,45));
#486=IFCINDEXEDPOLYGONALFACE((44,48,46));
#487=IFCINDEXEDPOLYGONALFACE((44,46,45));
#488=IFCINDEXEDPOLYGONALFACE((48,49,46));
#489=IFCINDEXEDPOLYGONALFACE((48,54,49));
#490=IFCINDEXEDPOLYGONALFACE((54,55,49));
#491=IFCINDEXEDPOLYGONALFACE((52,30,51));
#492=IFCINDEXEDPOLYGONALFACE((52,53,31));
#493=IFCINDEXEDPOLYGONALFACE((53,11,235));
#494=IFCINDEXEDPOLYGONALFACE((54,32,56));
#495=IFCINDEXEDPOLYGONALFACE((55,57,35));
#496=IFCINDEXEDPOLYGONALFACE((58,36,59));
#497=IFCINDEXEDPOLYGONALFACE((56,34,60));
#498=IFCINDEXEDPOLYGONALFACE((57,61,39));
#499=IFCINDEXEDPOLYGONALFACE((59,37,62));
#500=IFCINDEXEDPOLYGONALFACE((54,56,55));
#501=IFCINDEXEDPOLYGONALFACE((56,57,55));
#502=IFCINDEXEDPOLYGONALFACE((58,222,12));
#503=IFCINDEXEDPOLYGONALFACE((56,60,57));
#504=IFCINDEXEDPOLYGONALFACE((60,61,57));
#505=IFCINDEXEDPOLYGONALFACE((5,237,7));
#506=IFCINDEXEDPOLYGONALFACE((7,237,11));
#507=IFCINDEXEDPOLYGONALFACE((5,17,237));
#508=IFCINDEXEDPOLYGONALFACE((67,17,18));
#509=IFCINDEXEDPOLYGONALFACE((63,17,65));
#510=IFCINDEXEDPOLYGONALFACE((64,17,63));
#511=IFCINDEXEDPOLYGONALFACE((64,73,17));
#512=IFCINDEXEDPOLYGONALFACE((74,17,73));
#513=IFCINDEXEDPOLYGONALFACE((65,17,67));
#514=IFCINDEXEDPOLYGONALFACE((67,18,69));
#515=IFCINDEXEDPOLYGONALFACE((69,18,72));
#516=IFCINDEXEDPOLYGONALFACE((72,18,80));
#517=IFCINDEXEDPOLYGONALFACE((80,18,81));
#518=IFCINDEXEDPOLYGONALFACE((74,75,17));
#519=IFCINDEXEDPOLYGONALFACE((65,68,66));
#520=IFCINDEXEDPOLYGONALFACE((65,67,68));
#521=IFCINDEXEDPOLYGONALFACE((66,68,71));
#522=IFCINDEXEDPOLYGONALFACE((81,18,84));
#523=IFCINDEXEDPOLYGONALFACE((66,71,70));
#524=IFCINDEXEDPOLYGONALFACE((70,77,76));
#525=IFCINDEXEDPOLYGONALFACE((70,71,77));
#526=IFCINDEXEDPOLYGONALFACE((75,237,17));
#527=IFCINDEXEDPOLYGONALFACE((76,77,79));
#528=IFCINDEXEDPOLYGONALFACE((76,79,78));
#529=IFCINDEXEDPOLYGONALFACE((84,18,233));
#530=IFCINDEXEDPOLYGONALFACE((78,79,83));
#531=IFCINDEXEDPOLYGONALFACE((78,83,82));
#532=IFCINDEXEDPOLYGONALFACE((63,65,155));
#533=IFCINDEXEDPOLYGONALFACE((64,63,151));
#534=IFCINDEXEDPOLYGONALFACE((64,153,73));
#535=IFCINDEXEDPOLYGONALFACE((65,66,156));
#536=IFCINDEXEDPOLYGONALFACE((68,67,159));
#537=IFCINDEXEDPOLYGONALFACE((67,69,161));
#538=IFCINDEXEDPOLYGONALFACE((71,68,160));
#539=IFCINDEXEDPOLYGONALFACE((66,70,165));
#540=IFCINDEXEDPOLYGONALFACE((70,76,174));
#541=IFCINDEXEDPOLYGONALFACE((77,71,166));
#542=IFCINDEXEDPOLYGONALFACE((69,72,167));
#543=IFCINDEXEDPOLYGONALFACE((72,80,179));
#544=IFCINDEXEDPOLYGONALFACE((74,73,171));
#545=IFCINDEXEDPOLYGONALFACE((74,172,75));
#546=IFCINDEXEDPOLYGONALFACE((77,175,79));
#547=IFCINDEXEDPOLYGONALFACE((76,78,177));
#548=IFCINDEXEDPOLYGONALFACE((80,81,181));
#549=IFCINDEXEDPOLYGONALFACE((79,178,83));
#550=IFCINDEXEDPOLYGONALFACE((78,82,182));
#551=IFCINDEXEDPOLYGONALFACE((81,84,184));
#552=IFCINDEXEDPOLYGONALFACE((63,155,151));
#553=IFCINDEXEDPOLYGONALFACE((64,151,153));
#554=IFCINDEXEDPOLYGONALFACE((73,153,171));
#555=IFCINDEXEDPOLYGONALFACE((65,156,155));
#556=IFCINDEXEDPOLYGONALFACE((66,165,156));
#557=IFCINDEXEDPOLYGONALFACE((67,161,159));
#558=IFCINDEXEDPOLYGONALFACE((68,159,160));
#559=IFCINDEXEDPOLYGONALFACE((69,167,161));
#560=IFCINDEXEDPOLYGONALFACE((71,160,166));
#561=IFCINDEXEDPOLYGONALFACE((70,174,165));
#562=IFCINDEXEDPOLYGONALFACE((77,166,175));
#563=IFCINDEXEDPOLYGONALFACE((72,179,167));
#564=IFCINDEXEDPOLYGONALFACE((74,171,172));
#565=IFCINDEXEDPOLYGONALFACE((75,172,173));
#566=IFCINDEXEDPOLYGONALFACE((76,177,174));
#567=IFCINDEXEDPOLYGONALFACE((79,175,178));
#568=IFCINDEXEDPOLYGONALFACE((80,181,179));
#569=IFCINDEXEDPOLYGONALFACE((78,182,177));
#570=IFCINDEXEDPOLYGONALFACE((83,178,183));
#571=IFCINDEXEDPOLYGONALFACE((81,184,181));
#572=IFCINDEXEDPOLYGONALFACE((151,155,176));
#573=IFCINDEXEDPOLYGONALFACE((153,151,176));
#574=IFCINDEXEDPOLYGONALFACE((155,156,176));
#575=IFCINDEXEDPOLYGONALFACE((156,165,176));
#576=IFCINDEXEDPOLYGONALFACE((160,159,180));
#577=IFCINDEXEDPOLYGONALFACE((159,161,180));
#578=IFCINDEXEDPOLYGONALFACE((166,160,180));
#579=IFCINDEXEDPOLYGONALFACE((161,167,180));
#580=IFCINDEXEDPOLYGONALFACE((153,176,171));
#581=IFCINDEXEDPOLYGONALFACE((172,171,176));
#582=IFCINDEXEDPOLYGONALFACE((172,176,173));
#583=IFCINDEXEDPOLYGONALFACE((173,176,239));
#584=IFCINDEXEDPOLYGONALFACE((176,165,174));
#585=IFCINDEXEDPOLYGONALFACE((176,174,177));
#586=IFCINDEXEDPOLYGONALFACE((175,180,178));
#587=IFCINDEXEDPOLYGONALFACE((175,166,180));
#588=IFCINDEXEDPOLYGONALFACE((180,167,179));
#589=IFCINDEXEDPOLYGONALFACE((180,179,181));
#590=IFCINDEXEDPOLYGONALFACE((176,177,182));
#591=IFCINDEXEDPOLYGONALFACE((178,180,183));
#592=IFCINDEXEDPOLYGONALFACE((176,182,241));
#593=IFCINDEXEDPOLYGONALFACE((180,181,184));
#594=IFCINDEXEDPOLYGONALFACE((183,180,242));
#595=IFCINDEXEDPOLYGONALFACE((180,184,243));
#596=IFCINDEXEDPOLYGONALFACE((53,201,31));
#597=IFCINDEXEDPOLYGONALFACE((211,202,201));
#598=IFCINDEXEDPOLYGONALFACE((212,207,202));
#599=IFCINDEXEDPOLYGONALFACE((213,38,203));
#600=IFCINDEXEDPOLYGONALFACE((61,204,39));
#601=IFCINDEXEDPOLYGONALFACE((214,208,204));
#602=IFCINDEXEDPOLYGONALFACE((215,40,205));
#603=IFCINDEXEDPOLYGONALFACE((216,203,206));
#604=IFCINDEXEDPOLYGONALFACE((217,206,207));
#605=IFCINDEXEDPOLYGONALFACE((220,205,210));
#606=IFCINDEXEDPOLYGONALFACE((218,209,208));
#607=IFCINDEXEDPOLYGONALFACE((219,210,209));
#608=IFCINDEXEDPOLYGONALFACE((53,211,201));
#609=IFCINDEXEDPOLYGONALFACE((211,212,202));
#610=IFCINDEXEDPOLYGONALFACE((212,217,207));
#611=IFCINDEXEDPOLYGONALFACE((60,38,213));
#612=IFCINDEXEDPOLYGONALFACE((61,214,204));
#613=IFCINDEXEDPOLYGONALFACE((216,213,203));
#614=IFCINDEXEDPOLYGONALFACE((62,40,215));
#615=IFCINDEXEDPOLYGONALFACE((220,215,205));
#616=IFCINDEXEDPOLYGONALFACE((217,216,206));
#617=IFCINDEXEDPOLYGONALFACE((214,218,208));
#618=IFCINDEXEDPOLYGONALFACE((219,220,210));
#619=IFCINDEXEDPOLYGONALFACE((218,219,209));
#620=IFCINDEXEDPOLYGONALFACE((58,59,222));
#621=IFCINDEXEDPOLYGONALFACE((59,62,222));
#622=IFCINDEXEDPOLYGONALFACE((53,235,211));
#623=IFCINDEXEDPOLYGONALFACE((211,234,212));
#624=IFCINDEXEDPOLYGONALFACE((212,234,217));
#625=IFCINDEXEDPOLYGONALFACE((217,234,216));
#626=IFCINDEXEDPOLYGONALFACE((60,234,61));
#627=IFCINDEXEDPOLYGONALFACE((62,215,222));
#628=IFCINDEXEDPOLYGONALFACE((219,222,220));
#629=IFCINDEXEDPOLYGONALFACE((220,222,215));
#630=IFCINDEXEDPOLYGONALFACE((60,213,234));
#631=IFCINDEXEDPOLYGONALFACE((61,234,214));
#632=IFCINDEXEDPOLYGONALFACE((216,234,213));
#633=IFCINDEXEDPOLYGONALFACE((214,234,218));
#634=IFCINDEXEDPOLYGONALFACE((218,234,219));
#635=IFCINDEXEDPOLYGONALFACE((219,234,222));
#636=IFCINDEXEDPOLYGONALFACE((211,235,234));
#637=IFCINDEXEDPOLYGONALFACE((237,235,11));
#638=IFCINDEXEDPOLYGONALFACE((82,83,226));
#639=IFCINDEXEDPOLYGONALFACE((82,226,230));
#640=IFCINDEXEDPOLYGONALFACE((75,223,237));
#641=IFCINDEXEDPOLYGONALFACE((223,224,237));
#642=IFCINDEXEDPOLYGONALFACE((82,233,225));
#643=IFCINDEXEDPOLYGONALFACE((228,225,233));
#644=IFCINDEXEDPOLYGONALFACE((229,228,233));
#645=IFCINDEXEDPOLYGONALFACE((82,230,233));
#646=IFCINDEXEDPOLYGONALFACE((84,233,227));
#647=IFCINDEXEDPOLYGONALFACE((230,231,233));
#648=IFCINDEXEDPOLYGONALFACE((231,232,233));
#649=IFCINDEXEDPOLYGONALFACE((232,227,233));
#650=IFCINDEXEDPOLYGONALFACE((224,229,237));
#651=IFCINDEXEDPOLYGONALFACE((229,233,237));
#652=IFCINDEXEDPOLYGONALFACE((75,173,223));
#653=IFCINDEXEDPOLYGONALFACE((223,239,224));
#654=IFCINDEXEDPOLYGONALFACE((224,240,229));
#655=IFCINDEXEDPOLYGONALFACE((82,225,241));
#656=IFCINDEXEDPOLYGONALFACE((83,183,226));
#657=IFCINDEXEDPOLYGONALFACE((226,242,230));
#658=IFCINDEXEDPOLYGONALFACE((84,227,243));
#659=IFCINDEXEDPOLYGONALFACE((228,244,225));
#660=IFCINDEXEDPOLYGONALFACE((229,245,228));
#661=IFCINDEXEDPOLYGONALFACE((232,248,227));
#662=IFCINDEXEDPOLYGONALFACE((230,246,231));
#663=IFCINDEXEDPOLYGONALFACE((231,247,232));
#664=IFCINDEXEDPOLYGONALFACE((223,173,239));
#665=IFCINDEXEDPOLYGONALFACE((224,239,240));
#666=IFCINDEXEDPOLYGONALFACE((229,240,245));
#667=IFCINDEXEDPOLYGONALFACE((82,241,182));
#668=IFCINDEXEDPOLYGONALFACE((226,183,242));
#669=IFCINDEXEDPOLYGONALFACE((225,244,241));
#670=IFCINDEXEDPOLYGONALFACE((84,243,184));
#671=IFCINDEXEDPOLYGONALFACE((227,248,243));
#672=IFCINDEXEDPOLYGONALFACE((228,245,244));
#673=IFCINDEXEDPOLYGONALFACE((230,242,246));
#674=IFCINDEXEDPOLYGONALFACE((232,247,248));
#675=IFCINDEXEDPOLYGONALFACE((231,246,247));
#676=IFCINDEXEDPOLYGONALFACE((239,176,240));
#677=IFCINDEXEDPOLYGONALFACE((240,176,245));
#678=IFCINDEXEDPOLYGONALFACE((176,241,244));
#679=IFCINDEXEDPOLYGONALFACE((176,244,245));
#680=IFCINDEXEDPOLYGONALFACE((242,180,246));
#681=IFCINDEXEDPOLYGONALFACE((180,243,248));
#682=IFCINDEXEDPOLYGONALFACE((246,180,247));
#683=IFCINDEXEDPOLYGONALFACE((180,248,247));
#684=IFCCARTESIANPOINTLIST3D(((0.,0.,0.),(2850.,0.,0.),(2600.,0.,35.),(2850.,0.,35.),(2600.,35.,0.),(2850.,35.,0.),(2600.,35.,35.),(2850.,35.,35.),(2600.,0.,65.),(2850.,0.,65.),(2600.,35.,65.),(2850.,35.,65.),(2600.,65.,0.),(2850.,65.,0.),(2600.,65.,35.),(2850.,65.,35.),(2600.,65.,65.),(2850.,65.,65.),(2665.43291419087,0.,128.153011687217),(2657.32233047034,0.,133.572330470336),(2675.,0.,126.25),(2684.56708580913,0.,128.153011687217),(2775.,0.,126.25),(2765.43291419087,0.,128.153011687217),(2784.56708580913,0.,128.153011687217),(2692.67766952966,0.,133.572330470336),(2757.32233047034,0.,133.572330470336),(2792.67766952966,0.,133.572330470336),(2651.90301168722,0.,141.682914190872),(2650.,0.,151.25),(2651.90301168722,0.,160.817085809127),(2698.09698831278,0.,141.682914190872),(2751.90301168722,0.,141.682914190872),(2700.,0.,151.25),(2750.,0.,151.25),(2798.09698831278,0.,141.682914190872),(2800.,0.,151.25),(2698.09698831278,0.,160.817085809127),(2751.90301168722,0.,160.817085809127),(2798.09698831278,0.,160.817085809127),(2665.43291419087,35.,128.153011687217),(2657.32233047034,35.,133.572330470336),(2675.,35.,126.25),(2684.56708580913,35.,128.153011687217),(2775.,35.,126.25),(2765.43291419087,35.,128.153011687217),(2784.56708580913,35.,128.153011687217),(2692.67766952966,35.,133.572330470336),(2757.32233047034,35.,133.572330470336),(2792.67766952966,35.,133.572330470336),(2651.90301168722,35.,141.682914190872),(2650.,35.,151.25),(2651.90301168722,35.,160.817085809127),(2698.09698831278,35.,141.682914190872),(2751.90301168722,35.,141.682914190872),(2700.,35.,151.25),(2750.,35.,151.25),(2798.09698831278,35.,141.682914190872),(2800.,35.,151.25),(2698.09698831278,35.,160.817085809127),(2751.90301168722,35.,160.817085809127),(2798.09698831278,35.,160.817085809127),(2665.43291419087,65.,128.153011687217),(2657.32233047034,65.,133.572330470336),(2675.,65.,126.25),(2684.56708580913,65.,128.153011687217),(2775.,65.,126.25),(2765.43291419087,65.,128.153011687217),(2784.56708580913,65.,128.153011687217),(2692.67766952966,65.,133.572330470336),(2757.32233047034,65.,133.572330470336),(2792.67766952966,65.,133.572330470336),(2651.90301168722,65.,141.682914190872),(2650.,65.,151.25),(2651.90301168722,65.,160.817085809127),(2698.09698831278,65.,141.682914190872),(2751.90301168722,65.,141.682914190872),(2700.,65.,151.25),(2750.,65.,151.25),(2798.09698831278,65.,141.682914190872),(2800.,65.,151.25),(2698.09698831278,65.,160.817085809127),(2751.90301168722,65.,160.817085809127),(2798.09698831278,65.,160.817085809127),(2665.43291419087,128.153011687218,0.),(2657.32233047034,133.572330470337,0.),(2675.,126.25,0.),(2684.56708580913,128.153011687218,0.),(2775.,126.25,0.),(2765.43291419087,128.153011687218,0.),(2784.56708580913,128.153011687218,0.),(2692.67766952966,133.572330470337,0.),(2757.32233047034,133.572330470337,0.),(2792.67766952966,133.572330470337,0.),(2665.43291419087,128.153011687218,35.),(2657.32233047034,133.572330470337,35.),(2675.,126.25,35.),(2684.56708580913,128.153011687218,35.),(2775.,126.25,35.),(2765.43291419087,128.153011687218,35.),(2784.56708580913,128.153011687218,35.),(2692.67766952966,133.572330470337,35.),(2757.32233047034,133.572330470337,35.),(2792.67766952966,133.572330470337,35.),(2651.90301168722,141.682914190873,0.),(2650.,151.25,0.),(2651.90301168722,160.817085809127,0.),(2698.09698831278,141.682914190873,0.),(2751.90301168722,141.682914190873,0.),(2700.,151.25,0.),(2750.,151.25,0.),(2798.09698831278,141.682914190873,0.),(2800.,151.25,0.),(2698.09698831278,160.817085809127,0.),(2751.90301168722,160.817085809127,0.),(2798.09698831278,160.817085809127,0.),(2651.90301168722,141.682914190873,35.),(2650.,151.25,35.),(2651.90301168722,160.817085809127,35.),(2698.09698831278,141.682914190873,35.),(2751.90301168722,141.682914190873,35.),(2700.,151.25,35.),(2750.,151.25,35.),(2798.09698831278,141.682914190873,35.),(2800.,151.25,35.),(2698.09698831278,160.817085809127,35.),(2751.90301168722,160.817085809127,35.),(2798.09698831278,160.817085809127,35.),(2665.43291419087,128.153011687218,65.),(2657.32233047034,133.572330470337,65.),(2675.,126.25,65.),(2684.56708580913,128.153011687218,65.),(2775.,126.25,65.),(2765.43291419087,128.153011687218,65.),(2784.56708580913,128.153011687218,65.),(2692.67766952966,133.572330470337,65.),(2757.32233047034,133.572330470337,65.),(2792.67766952966,133.572330470337,65.),(2651.90301168722,141.682914190873,65.),(2650.,151.25,65.),(2651.90301168722,160.817085809127,65.),(2698.09698831278,141.682914190873,65.),(2751.90301168722,141.682914190873,65.),(2700.,151.25,65.),(2750.,151.25,65.),(2798.09698831278,141.682914190873,65.),(2800.,151.25,65.),(2698.09698831278,160.817085809127,65.),(2751.90301168722,160.817085809127,65.),(2798.09698831278,160.817085809127,65.),(2665.43291419087,125.,128.153011687217),(2665.43291419087,128.153011687218,125.),(2657.32233047034,125.,133.572330470336),(2657.32233047034,133.572330470337,125.),(2675.,125.,126.25),(2684.56708580913,125.,128.153011687217),(2675.,126.25,125.),(2684.56708580913,128.153011687218,125.),(2775.,125.,126.25),(2765.43291419087,125.,128.153011687217),(2784.56708580913,125.,128.153011687217),(2775.,126.25,125.),(2765.43291419087,128.153011687218,125.),(2784.56708580913,128.153011687218,125.),(2692.67766952966,125.,133.572330470336),(2757.32233047034,125.,133.572330470336),(2792.67766952966,125.,133.572330470336),(2692.67766952966,133.572330470337,125.),(2757.32233047034,133.572330470337,125.),(2792.67766952966,133.572330470337,125.),(2651.90301168722,125.,141.682914190872),(2650.,125.,151.25),(2651.90301168722,125.,160.817085809127),(2698.09698831278,125.,141.682914190872),(2751.90301168722,125.,141.682914190872),(2675.,125.,151.25),(2700.,125.,151.25),(2750.,125.,151.25),(2798.09698831278,125.,141.682914190872),(2775.,125.,151.25),(2800.,125.,151.25),(2698.09698831278,125.,160.817085809127),(2751.90301168722,125.,160.817085809127),(2798.09698831278,125.,160.817085809127),(2651.90301168722,141.682914190873,125.),(2650.,151.25,125.),(2651.90301168722,160.817085809127,125.),(2698.09698831278,141.682914190873,125.),(2751.90301168722,141.682914190873,125.),(2675.,151.25,125.),(2700.,151.25,125.),(2750.,151.25,125.),(2798.09698831278,141.682914190873,125.),(2775.,151.25,125.),(2800.,151.25,125.),(2698.09698831278,160.817085809127,125.),(2751.90301168722,160.817085809127,125.),(2798.09698831278,160.817085809127,125.),(0.,0.,220.),(2120.,0.,220.),(2657.32233047034,0.,168.927669529663),(2665.43291419087,0.,174.346988312782),(2692.67766952966,0.,168.927669529663),(2757.32233047034,0.,168.927669529663),(2792.67766952966,0.,168.927669529663),(2684.56708580913,0.,174.346988312782),(2675.,0.,176.25),(2765.43291419087,0.,174.346988312782),(2775.,0.,176.25),(2784.56708580913,0.,174.346988312782),(2657.32233047034,35.,168.927669529663),(2665.43291419087,35.,174.346988312782),(2692.67766952966,35.,168.927669529663),(2757.32233047034,35.,168.927669529663),(2792.67766952966,35.,168.927669529663),(2684.56708580913,35.,174.346988312782),(2675.,35.,176.25),(2765.43291419087,35.,174.346988312782),(2775.,35.,176.25),(2784.56708580913,35.,174.346988312782),(2850.,0.,220.),(2850.,35.,220.),(2657.32233047034,65.,168.927669529663),(2665.43291419087,65.,174.346988312782),(2692.67766952966,65.,168.927669529663),(2757.32233047034,65.,168.927669529663),(2792.67766952966,65.,168.927669529663),(2684.56708580913,65.,174.346988312782),(2675.,65.,176.25),(2765.43291419087,65.,174.346988312782),(2775.,65.,176.25),(2784.56708580913,65.,174.346988312782),(2850.,65.,220.),(2642.48045801124,35.,250.764977576968),(2600.,35.,257.0627475395),(2155.45,0.,322.967725214238),(2600.,65.,257.0627475395),(2850.,120.,220.),(2657.32233047034,125.,168.927669529663),(2665.43291419087,125.,174.346988312782),(2692.67766952966,125.,168.927669529663),(2757.32233047034,125.,168.927669529663),(2792.67766952966,125.,168.927669529663),(2684.56708580913,125.,174.346988312782),(2675.,125.,176.25),(2765.43291419087,125.,174.346988312782),(2775.,125.,176.25),(2784.56708580913,125.,174.346988312782),(0.,220.,0.),(2120.,220.,0.),(2657.32233047034,168.927669529663,0.),(2665.43291419087,174.346988312782,0.),(2692.67766952966,168.927669529663,0.),(2757.32233047034,168.927669529663,0.),(2792.67766952966,168.927669529663,0.),(2684.56708580913,174.346988312782,0.),(2675.,176.25,0.),(2765.43291419087,174.346988312782,0.),(2775.,176.25,0.),(2784.56708580913,174.346988312782,0.),(2657.32233047034,168.927669529663,35.),(2665.43291419087,174.346988312782,35.),(2692.67766952966,168.927669529663,35.),(2757.32233047034,168.927669529663,35.),(2792.67766952966,168.927669529663,35.),(2684.56708580913,174.346988312782,35.),(2675.,176.25,35.),(2765.43291419087,174.346988312782,35.),(2775.,176.25,35.),(2784.56708580913,174.346988312782,35.),(2657.32233047034,168.927669529663,65.),(2665.43291419087,174.346988312782,65.),(2692.67766952966,168.927669529663,65.),(2757.32233047034,168.927669529663,65.),(2792.67766952966,168.927669529663,65.),(2684.56708580913,174.346988312782,65.),(2675.,176.25,65.),(2765.43291419087,174.346988312782,65.),(2775.,176.25,65.),(2784.56708580913,174.346988312782,65.),(2850.,220.,0.),(2850.,220.,35.),(2780.19038585768,230.349344419146,35.),(2850.,220.,65.),(2657.32233047034,168.927669529663,125.),(2665.43291419087,174.346988312782,125.),(2692.67766952966,168.927669529663,125.),(2757.32233047034,168.927669529663,125.),(2792.67766952966,168.927669529663,125.),(2684.56708580913,174.346988312782,125.),(2675.,176.25,125.),(2765.43291419087,174.346988312782,125.),(2775.,176.25,125.),(2784.56708580913,174.346988312782,125.),(2850.,220.,120.),(2600.,257.0627475395,35.),(2642.48045801124,250.764977576968,65.),(2600.,257.0627475395,65.),(2155.45,322.967725214238,0.),(0.,220.,220.),(2120.,220.,220.),(2155.45,190.228046215868,322.967725214238),(2155.45,322.967725214238,190.228046215869)));
#685=IFCPOLYGONALFACESET(#684,.T.,(#66,#67,#68,#69,#70,#71,#72,#73,#74,#75,#76,#77,#78,#79,#80,#81,#82,#83,#84,#85,#86,#87,#88,#89,#90,#91,#92,#93,#94,#95,#96,#97,#98,#99,#100,#101,#102,#103,#104,#105,#106,#107,#108,#109,#110,#111,#112,#113,#114,#115,#116,#117,#118,#119,#120,#121,#122,#123,#124,#125,#126,#127,#128,#129,#130,#131,#132,#133,#134,#135,#136,#137,#138,#139,#140,#141,#142,#143,#144,#145,#146,#147,#148,#149,#150,#151,#152,#153,#154,#155,#156,#157,#158,#159,#160,#161,#162,#163,#164,#165,#166,#167,#168,#169,#170,#171,#172,#173,#174,#175,#176,#177,#178,#179,#180,#181,#182,#183,#184,#185,#186,#187,#188,#189,#190,#191,#192,#193,#194,#195,#196,#197,#198,#199,#200,#201,#202,#203,#204,#205,#206,#207,#208,#209,#210,#211,#212,#213,#214,#215,#216,#217,#218,#219,#220,#221,#222,#223,#224,#225,#226,#227,#228,#229,#230,#231,#232,#233,#234,#235,#236,#237,#238,#239,#240,#241,#242,#243,#244,#245,#246,#247,#248,#249,#250,#251,#252,#253,#254,#255,#256,#257,#258,#259,#260,#261,#262,#263,#264,#265,#266,#267,#268,#269,#270,#271,#272,#273,#274,#275,#276,#277,#278,#279,#280,#281,#282,#283,#284,#285,#286,#287,#288,#289,#290,#291,#292,#293,#294,#295,#296,#297,#298,#299,#300,#301,#302,#303,#304,#305,#306,#307,#308,#309,#310,#311,#312,#313,#314,#315,#316,#317,#318,#319,#320,#321,#322,#323,#324,#325,#326,#327,#328,#329,#330,#331,#332,#333,#334,#335,#336,#337,#338,#339,#340,#341,#342,#343,#344,#345,#346,#347,#348,#349,#350,#351,#352,#353,#354,#355,#356,#357,#358,#359,#360,#361,#362,#363,#364,#365,#366,#367,#368,#369,#370,#371,#372,#373,#374,#375,#376,#377,#378,#379,#380,#381,#382,#383,#384,#385,#386,#387,#388,#389,#390,#391,#392,#393,#394,#395,#396,#397,#398,#399,#400,#401,#402,#403,#404,#405,#406,#407,#408,#409,#410,#411,#412,#413,#414,#415,#416,#417,#418,#419,#420,#421,#422,#423,#424,#425,#426,#427,#428,#429,#430,#431,#432,#433,#434,#435,#436,#437,#438,#439,#440,#441,#442,#443,#444,#445,#446,#447,#448,#449,#450,#451,#452,#453,#454,#455,#456,#457,#458,#459,#460,#461,#462,#463,#464,#465,#466,#467,#468,#469,#470,#471,#472,#473,#474,#475,#476,#477,#478,#479,#480,#481,#482,#483,#484,#485,#486,#487,#488,#489,#490,#491,#492,#493,#494,#495,#496,#497,#498,#499,#500,#501,#502,#503,#504,#505,#506,#507,#508,#509,#510,#511,#512,#513,#514,#515,#516,#517,#518,#519,#520,#521,#522,#523,#524,#525,#526,#527,#528,#529,#530,#531,#532,#533,#534,#535,#536,#537,#538,#539,#540,#541,#542,#543,#544,#545,#546,#547,#548,#549,#550,#551,#552,#553,#554,#555,#556,#557,#558,#559,#560,#561,#562,#563,#564,#565,#566,#567,#568,#569,#570,#571,#572,#573,#574,#575,#576,#577,#578,#579,#580,#581,#582,#583,#584,#585,#586,#587,#588,#589,#590,#591,#592,#593,#594,#595,#596,#597,#598,#599,#600,#601,#602,#603,#604,#605,#606,#607,#608,#609,#610,#611,#612,#613,#614,#615,#616,#617,#618,#619,#620,#621,#622,#623,#624,#625,#626,#627,#628,#629,#630,#631,#632,#633,#634,#635,#636,#637,#638,#639,#640,#641,#642,#643,#644,#645,#646,#647,#648,#649,#650,#651,#652,#653,#654,#655,#656,#657,#658,#659,#660,#661,#662,#663,#664,#665,#666,#667,#668,#669,#670,#671,#672,#673,#674,#675,#676,#677,#678,#679,#680,#681,#682,#683),$);
#686=IFCSHAPEREPRESENTATION(#12,'Body','Tessellation',(#685));
#687=IFCPRODUCTDEFINITIONSHAPE($,$,(#686));
#688=IFCBUILDINGELEMENTPROXY('3GrLJu9q51E9dmZsRSWEwA',$,'column_0_cutter_0',$,$,$,#701,$,$);
#689=IFCRELCONTAINEDINSPATIALSTRUCTURE('0MZSPqXJ9DwRplDBsY9m0Z',$,$,$,(#688),#22);
#690=IFCINDEXEDPOLYGONALFACE((1,2,6,5));
#691=IFCINDEXEDPOLYGONALFACE((2,3,7,6));
#692=IFCINDEXEDPOLYGONALFACE((3,4,8,7));
#693=IFCINDEXEDPOLYGONALFACE((4,1,5,8));
#694=IFCINDEXEDPOLYGONALFACE((1,4,3));
#695=IFCINDEXEDPOLYGONALFACE((3,2,1));
#696=IFCINDEXEDPOLYGONALFACE((8,5,6));
#697=IFCINDEXEDPOLYGONALFACE((6,7,8));
#698=IFCCARTESIANPOINTLIST3D(((2963.09258250224,304.326857823062,-109.952328002225),(2963.09258250224,304.326857823062,210.047671997776),(2071.19594958073,436.551416772259,290.22804621587),(2071.19594958073,436.551416772259,-100.),(2948.42776193286,205.407986834418,-109.952328002225),(2948.42776193286,205.407986834418,210.047671997776),(2056.53112901136,337.632545783616,290.22804621587),(2056.53112901136,337.632545783616,-100.)));
#699=IFCPOLYGONALFACESET(#698,.T.,(#690,#691,#692,#693,#694,#695,#696,#697),$);
#700=IFCSHAPEREPRESENTATION(#12,'Body','Tessellation',(#699));
#701=IFCPRODUCTDEFINITIONSHAPE($,$,(#700));
#702=IFCBUILDINGELEMENTPROXY('1wtQu1D_P7vR4jyFN0wMnm',$,'column_0_cutter_1',$,$,$,#715,$,$);
#703=IFCRELCONTAINEDINSPATIALSTRUCTURE('2f94xKmCX4GgAz3NIE1s0m',$,$,$,(#702),#22);
#704=IFCINDEXEDPOLYGONALFACE((1,2,6,5));
#705=IFCINDEXEDPOLYGONALFACE((2,3,7,6));
#706=IFCINDEXEDPOLYGONALFACE((3,4,8,7));
#707=IFCINDEXEDPOLYGONALFACE((4,1,5,8));
#708=IFCINDEXEDPOLYGONALFACE((1,4,3));
#709=IFCINDEXEDPOLYGONALFACE((3,2,1));
#710=IFCINDEXEDPOLYGONALFACE((8,5,6));
#711=IFCINDEXEDPOLYGONALFACE((6,7,8));
#712=IFCCARTESIANPOINTLIST3D(((2965.79257969955,350.394774148431,104.333732747766),(2965.79257969955,108.973417911121,345.755088985075),(2074.38705583383,203.7458052948,473.26715536712),(2074.38705583383,477.906840530476,199.106120131442),(2948.42776193286,280.758350116429,34.6973087157639),(2948.42776193286,39.3369938791197,276.118664953072),(2057.02223806714,134.109381262798,403.630731335118),(2057.02223806714,408.270416498474,129.46969609944)));
#713=IFCPOLYGONALFACESET(#712,.T.,(#704,#705,#706,#707,#708,#709,#710,#711),$);
#714=IFCSHAPEREPRESENTATION(#12,'Body','Tessellation',(#713));
#715=IFCPRODUCTDEFINITIONSHAPE($,$,(#714));
#716=IFCBUILDINGELEMENTPROXY('1XkXnwSD137uBCf9v2Nw71',$,'column_0_cutter_2',$,$,$,#729,$,$);
#717=IFCRELCONTAINEDINSPATIALSTRUCTURE('2GsKqPN1b6nP6pQVVNNCt3',$,$,$,(#716),#22);
#718=IFCINDEXEDPOLYGONALFACE((1,2,6,5));
#719=IFCINDEXEDPOLYGONALFACE((2,3,7,6));
#720=IFCINDEXEDPOLYGONALFACE((3,4,8,7));
#721=IFCINDEXEDPOLYGONALFACE((4,1,5,8));
#722=IFCINDEXEDPOLYGONALFACE((1,4,3));
#723=IFCINDEXEDPOLYGONALFACE((3,2,1));
#724=IFCINDEXEDPOLYGONALFACE((8,5,6));
#725=IFCINDEXEDPOLYGONALFACE((6,7,8));
#726=IFCCARTESIANPOINTLIST3D(((2963.58369155802,220.,304.254050419266),(2963.58369155802,-100.,304.254050419266),(2071.68705863652,-90.0476719977746,436.478609368464),(2071.68705863652,300.180374218095,436.478609368464),(2948.91887098864,220.,205.335179430622),(2948.91887098864,-100.,205.335179430622),(2057.02223806714,-90.0476719977746,337.55973837982),(2057.02223806714,300.180374218095,337.55973837982)));
#727=IFCPOLYGONALFACESET(#726,.T.,(#718,#719,#720,#721,#722,#723,#724,#725),$);
#728=IFCSHAPEREPRESENTATION(#12,'Body','Tessellation',(#727));
#729=IFCPRODUCTDEFINITIONSHAPE($,$,(#728));
#730=IFCBUILDINGELEMENTPROXY('2ytNuwBnr5FhJ7qxts2M$s',$,'column_0_cutter_3',$,$,$,#743,$,$);
#731=IFCRELCONTAINEDINSPATIALSTRUCTURE('22h4M17uT7ugLSrZdbufKR',$,$,$,(#730),#22);
#732=IFCINDEXEDPOLYGONALFACE((1,2,6,5));
#733=IFCINDEXEDPOLYGONALFACE((2,3,7,6));
#734=IFCINDEXEDPOLYGONALFACE((3,4,8,7));
#735=IFCINDEXEDPOLYGONALFACE((4,1,5,8));
#736=IFCINDEXEDPOLYGONALFACE((1,4,3));
#737=IFCINDEXEDPOLYGONALFACE((3,2,1));
#738=IFCINDEXEDPOLYGONALFACE((8,5,6));
#739=IFCINDEXEDPOLYGONALFACE((6,7,8));
#740=IFCCARTESIANPOINTLIST3D(((2092.29751630508,446.726856847123,-126.371218034768),(2092.29751630508,446.726856847123,263.856828181101),(2025.44683343049,252.55301355755,320.),(2025.44683343049,252.55301355755,-100.),(2186.85068287459,414.173843289572,-126.371218034768),(2186.85068287459,414.173843289572,263.856828181101),(2120.,220.,320.),(2120.,220.,-100.)));
#741=IFCPOLYGONALFACESET(#740,.T.,(#732,#733,#734,#735,#736,#737,#738,#739),$);
#742=IFCSHAPEREPRESENTATION(#12,'Body','Tessellation',(#741));
#743=IFCPRODUCTDEFINITIONSHAPE($,$,(#742));
#744=IFCBUILDINGELEMENTPROXY('3mB5gA5FDEquL_aaL652NH',$,'column_0_cutter_4',$,$,$,#757,$,$);
#745=IFCRELCONTAINEDINSPATIALSTRUCTURE('2aDFyBvbv0SxlRIcZ7QqRD',$,$,$,(#744),#22);
#746=IFCINDEXEDPOLYGONALFACE((1,2,6,5));
#747=IFCINDEXEDPOLYGONALFACE((2,3,7,6));
#748=IFCINDEXEDPOLYGONALFACE((3,4,8,7));
#749=IFCINDEXEDPOLYGONALFACE((4,1,5,8));
#750=IFCINDEXEDPOLYGONALFACE((1,4,3));
#751=IFCINDEXEDPOLYGONALFACE((3,2,1));
#752=IFCINDEXEDPOLYGONALFACE((8,5,6));
#753=IFCINDEXEDPOLYGONALFACE((6,7,8));
#754=IFCCARTESIANPOINTLIST3D(((2127.68615310018,472.591390743761,233.543282797406),(2127.68615310018,198.430355508084,507.704318033084),(2037.49688996036,134.247029734699,385.668385972008),(2037.49688996036,385.668385972008,134.247029734698),(2210.18926313981,432.633682890407,193.585574944053),(2210.18926313981,158.472647654731,467.746610179731),(2120.,94.2893218813451,345.710678118655),(2120.,345.710678118655,94.2893218813451)));
#755=IFCPOLYGONALFACESET(#754,.T.,(#746,#747,#748,#749,#750,#751,#752,#753),$);
#756=IFCSHAPEREPRESENTATION(#12,'Body','Tessellation',(#755));
#757=IFCPRODUCTDEFINITIONSHAPE($,$,(#756));
#758=IFCBUILDINGELEMENTPROXY('3ZXQJg$b5EKuGF90sjol$A',$,'column_0_cutter_5',$,$,$,#771,$,$);
#759=IFCRELCONTAINEDINSPATIALSTRUCTURE('05MQeP8pf4qgQBy3uXQAHl',$,$,$,(#758),#22);
#760=IFCINDEXEDPOLYGONALFACE((1,2,6,5));
#761=IFCINDEXEDPOLYGONALFACE((2,3,7,6));
#762=IFCINDEXEDPOLYGONALFACE((3,4,8,7));
#763=IFCINDEXEDPOLYGONALFACE((4,1,5,8));
#764=IFCINDEXEDPOLYGONALFACE((1,4,3));
#765=IFCINDEXEDPOLYGONALFACE((3,2,1));
#766=IFCINDEXEDPOLYGONALFACE((8,5,6));
#767=IFCINDEXEDPOLYGONALFACE((6,7,8));
#768=IFCCARTESIANPOINTLIST3D(((2093.44984698804,290.22804621587,450.0739053413),(2093.44984698804,-100.,450.0739053413),(2025.44683343049,-100.,252.55301355755),(2025.44683343049,320.,252.55301355755),(2188.00301355755,290.22804621587,417.52089178375),(2188.00301355755,-100.,417.52089178375),(2120.,-100.,220.),(2120.,320.,220.)));
#769=IFCPOLYGONALFACESET(#768,.T.,(#760,#761,#762,#763,#764,#765,#766,#767),$);
#770=IFCSHAPEREPRESENTATION(#12,'Body','Tessellation',(#769));
#771=IFCPRODUCTDEFINITIONSHAPE($,$,(#770));
#772=IFCBUILDINGELEMENTPROXY('2egsLVokbBHfn6WNRfTSxB',$,'column_0_cutter_6',$,$,$,#783,$,$);
#773=IFCRELCONTAINEDINSPATIALSTRUCTURE('33Be6xmwX2YeBBjwYH08op',$,$,$,(#772),#22);
#774=IFCINDEXEDPOLYGONALFACE((1,2,3,4));
#775=IFCINDEXEDPOLYGONALFACE((1,4,6,5));
#776=IFCINDEXEDPOLYGONALFACE((4,3,7,6));
#777=IFCINDEXEDPOLYGONALFACE((3,2,8,7));
#778=IFCINDEXEDPOLYGONALFACE((2,1,5,8));
#779=IFCINDEXEDPOLYGONALFACE((5,6,7,8));
#780=IFCCARTESIANPOINTLIST3D(((2600.,0.,35.),(2600.,0.,65.),(2600.,485.,65.),(2600.,485.,35.),(2875.,0.,35.),(2875.,485.,35.),(2875.,485.,65.),(2875.,0.,65.)));
#781=IFCPOLYGONALFACESET(#780,.T.,(#774,#775,#776,#777,#778,#779),$);
#782=IFCSHAPEREPRESENTATION(#12,'Body','Tessellation',(#781));
#783=IFCPRODUCTDEFINITIONSHAPE($,$,(#782));
#784=IFCBUILDINGELEMENTPROXY('26yC1Ec$L5WwYBGrAcEtiH',$,'column_0_cutter_7',$,$,$,#837,$,$);
#785=IFCRELCONTAINEDINSPATIALSTRUCTURE('2RV3CIcoj0Y9T2iNiQAvii',$,$,$,(#784),#22);
#786=IFCINDEXEDPOLYGONALFACE((1,2,4,3));
#787=IFCINDEXEDPOLYGONALFACE((3,4,6,5));
#788=IFCINDEXEDPOLYGONALFACE((5,6,8,7));
#789=IFCINDEXEDPOLYGONALFACE((7,8,10,9));
#790=IFCINDEXEDPOLYGONALFACE((9,10,12,11));
#791=IFCINDEXEDPOLYGONALFACE((11,12,14,13));
#792=IFCINDEXEDPOLYGONALFACE((13,14,16,15));
#793=IFCINDEXEDPOLYGONALFACE((15,16,18,17));
#794=IFCINDEXEDPOLYGONALFACE((17,18,20,19));
#795=IFCINDEXEDPOLYGONALFACE((19,20,22,21));
#796=IFCINDEXEDPOLYGONALFACE((21,22,24,23));
#797=IFCINDEXEDPOLYGONALFACE((23,24,26,25));
#798=IFCINDEXEDPOLYGONALFACE((25,26,28,27));
#799=IFCINDEXEDPOLYGONALFACE((27,28,30,29));
#800=IFCINDEXEDPOLYGONALFACE((29,30,32,31));
#801=IFCINDEXEDPOLYGONALFACE((31,32,2,1));
#802=IFCINDEXEDPOLYGONALFACE((1,3,33));
#803=IFCINDEXEDPOLYGONALFACE((34,4,2));
#804=IFCINDEXEDPOLYGONALFACE((3,5,33));
#805=IFCINDEXEDPOLYGONALFACE((34,6,4));
#806=IFCINDEXEDPOLYGONALFACE((5,7,33));
#807=IFCINDEXEDPOLYGONALFACE((34,8,6));
#808=IFCINDEXEDPOLYGONALFACE((7,9,33));
#809=IFCINDEXEDPOLYGONALFACE((34,10,8));
#810=IFCINDEXEDPOLYGONALFACE((9,11,33));
#811=IFCINDEXEDPOLYGONALFACE((34,12,10));
#812=IFCINDEXEDPOLYGONALFACE((11,13,33));
#813=IFCINDEXEDPOLYGONALFACE((34,14,12));
#814=IFCINDEXEDPOLYGONALFACE((13,15,33));
#815=IFCINDEXEDPOLYGONALFACE((34,16,14));
#816=IFCINDEXEDPOLYGONALFACE((15,17,33));
#817=IFCINDEXEDPOLYGONALFACE((34,18,16));
#818=IFCINDEXEDPOLYGONALFACE((17,19,33));
#819=IFCINDEXEDPOLYGONALFACE((34,20,18));
#820=IFCINDEXEDPOLYGONALFACE((19,21,33));
#821=IFCINDEXEDPOLYGONALFACE((34,22,20));
#822=IFCINDEXEDPOLYGONALFACE((21,23,33));
#823=IFCINDEXEDPOLYGONALFACE((34,24,22));
#824=IFCINDEXEDPOLYGONALFACE((23,25,33));
#825=IFCINDEXEDPOLYGONALFACE((34,26,24));
#826=IFCINDEXEDPOLYGONALFACE((25,27,33));
#827=IFCINDEXEDPOLYGONALFACE((34,28,26));
#828=IFCINDEXEDPOLYGONALFACE((27,29,33));
#829=IFCINDEXEDPOLYGONALFACE((34,30,28));
#830=IFCINDEXEDPOLYGONALFACE((29,31,33));
#831=IFCINDEXEDPOLYGONALFACE((34,32,30));
#832=IFCINDEXEDPOLYGONALFACE((31,1,33));
#833=IFCINDEXEDPOLYGONALFACE((34,2,32));
#834=IFCCARTESIANPOINTLIST3D(((2800.,151.25,125.),(2800.,151.25,-25.0000000000005),(2798.09698831278,160.817085809127,125.),(2798.09698831278,160.817085809127,-25.0000000000005),(2792.67766952966,168.927669529663,125.),(2792.67766952966,168.927669529663,-25.0000000000005),(2784.56708580913,174.346988312782,125.),(2784.56708580913,174.346988312782,-25.0000000000005),(2775.,176.25,125.),(2775.,176.25,-25.0000000000005),(2765.43291419087,174.346988312782,125.),(2765.43291419087,174.346988312782,-25.0000000000005),(2757.32233047034,168.927669529663,125.),(2757.32233047034,168.927669529663,-25.0000000000005),(2751.90301168722,160.817085809127,125.),(2751.90301168722,160.817085809127,-25.0000000000005),(2750.,151.25,125.),(2750.,151.25,-25.0000000000005),(2751.90301168722,141.682914190873,125.),(2751.90301168722,141.682914190873,-25.0000000000005),(2757.32233047034,133.572330470337,125.),(2757.32233047034,133.572330470337,-25.0000000000005),(2765.43291419087,128.153011687218,125.),(2765.43291419087,128.153011687218,-25.0000000000005),(2775.,126.25,125.),(2775.,126.25,-25.0000000000005),(2784.56708580913,128.153011687218,125.),(2784.56708580913,128.153011687218,-25.0000000000005),(2792.67766952966,133.572330470337,125.),(2792.67766952966,133.572330470337,-25.0000000000005),(2798.09698831278,141.682914190873,125.),(2798.09698831278,141.682914190873,-25.0000000000005),(2775.,151.25,125.),(2775.,151.25,-25.0000000000005)));
#835=IFCPOLYGONALFACESET(#834,.T.,(#786,#787,#788,#789,#790,#791,#792,#793,#794,#795,#796,#797,#798,#799,#800,#801,#802,#803,#804,#805,#806,#807,#808,#809,#810,#811,#812,#813,#814,#815,#816,#817,#818,#819,#820,#821,#822,#823,#824,#825,#826,#827,#828,#829,#830,#831,#832,#833),$);
#836=IFCSHAPEREPRESENTATION(#12,'Body','Tessellation',(#835));
#837=IFCPRODUCTDEFINITIONSHAPE($,$,(#836));
#838=IFCBUILDINGELEMENTPROXY('3JsLYtCLDB_hdPXFyU8DBW',$,'column_0_cutter_8',$,$,$,#891,$,$);
#839=IFCRELCONTAINEDINSPATIALSTRUCTURE('0SVXabrObCjQPNPncSt04w',$,$,$,(#838),#22);
#840=IFCINDEXEDPOLYGONALFACE((1,2,4,3));
#841=IFCINDEXEDPOLYGONALFACE((3,4,6,5));
#842=IFCINDEXEDPOLYGONALFACE((5,6,8,7));
#843=IFCINDEXEDPOLYGONALFACE((7,8,10,9));
#844=IFCINDEXEDPOLYGONALFACE((9,10,12,11));
#845=IFCINDEXEDPOLYGONALFACE((11,12,14,13));
#846=IFCINDEXEDPOLYGONALFACE((13,14,16,15));
#847=IFCINDEXEDPOLYGONALFACE((15,16,18,17));
#848=IFCINDEXEDPOLYGONALFACE((17,18,20,19));
#849=IFCINDEXEDPOLYGONALFACE((19,20,22,21));
#850=IFCINDEXEDPOLYGONALFACE((21,22,24,23));
#851=IFCINDEXEDPOLYGONALFACE((23,24,26,25));
#852=IFCINDEXEDPOLYGONALFACE((25,26,28,27));
#853=IFCINDEXEDPOLYGONALFACE((27,28,30,29));
#854=IFCINDEXEDPOLYGONALFACE((29,30,32,31));
#855=IFCINDEXEDPOLYGONALFACE((31,32,2,1));
#856=IFCINDEXEDPOLYGONALFACE((1,3,33));
#857=IFCINDEXEDPOLYGONALFACE((34,4,2));
#858=IFCINDEXEDPOLYGONALFACE((3,5,33));
#859=IFCINDEXEDPOLYGONALFACE((34,6,4));
#860=IFCINDEXEDPOLYGONALFACE((5,7,33));
#861=IFCINDEXEDPOLYGONALFACE((34,8,6));
#862=IFCINDEXEDPOLYGONALFACE((7,9,33));
#863=IFCINDEXEDPOLYGONALFACE((34,10,8));
#864=IFCINDEXEDPOLYGONALFACE((9,11,33));
#865=IFCINDEXEDPOLYGONALFACE((34,12,10));
#866=IFCINDEXEDPOLYGONALFACE((11,13,33));
#867=IFCINDEXEDPOLYGONALFACE((34,14,12));
#868=IFCINDEXEDPOLYGONALFACE((13,15,33));
#869=IFCINDEXEDPOLYGONALFACE((34,16,14));
#870=IFCINDEXEDPOLYGONALFACE((15,17,33));
#871=IFCINDEXEDPOLYGONALFACE((34,18,16));
#872=IFCINDEXEDPOLYGONALFACE((17,19,33));
#873=IFCINDEXEDPOLYGONALFACE((34,20,18));
#874=IFCINDEXEDPOLYGONALFACE((19,21,33));
#875=IFCINDEXEDPOLYGONALFACE((34,22,20));
#876=IFCINDEXEDPOLYGONALFACE((21,23,33));
#877=IFCINDEXEDPOLYGONALFACE((34,24,22));
#878=IFCINDEXEDPOLYGONALFACE((23,25,33));
#879=IFCINDEXEDPOLYGONALFACE((34,26,24));
#880=IFCINDEXEDPOLYGONALFACE((25,27,33));
#881=IFCINDEXEDPOLYGONALFACE((34,28,26));
#882=IFCINDEXEDPOLYGONALFACE((27,29,33));
#883=IFCINDEXEDPOLYGONALFACE((34,30,28));
#884=IFCINDEXEDPOLYGONALFACE((29,31,33));
#885=IFCINDEXEDPOLYGONALFACE((34,32,30));
#886=IFCINDEXEDPOLYGONALFACE((31,1,33));
#887=IFCINDEXEDPOLYGONALFACE((34,2,32));
#888=IFCCARTESIANPOINTLIST3D(((2700.,151.25,125.),(2700.,151.25,-25.0000000000005),(2698.09698831278,160.817085809127,125.),(2698.09698831278,160.817085809127,-25.0000000000005),(2692.67766952966,168.927669529663,125.),(2692.67766952966,168.927669529663,-25.0000000000005),(2684.56708580913,174.346988312782,125.),(2684.56708580913,174.346988312782,-25.0000000000005),(2675.,176.25,125.),(2675.,176.25,-25.0000000000005),(2665.43291419087,174.346988312782,125.),(2665.43291419087,174.346988312782,-25.0000000000005),(2657.32233047034,168.927669529663,125.),(2657.32233047034,168.927669529663,-25.0000000000005),(2651.90301168722,160.817085809127,125.),(2651.90301168722,160.817085809127,-25.0000000000005),(2650.,151.25,125.),(2650.,151.25,-25.0000000000005),(2651.90301168722,141.682914190873,125.),(2651.90301168722,141.682914190873,-25.0000000000005),(2657.32233047034,133.572330470337,125.),(2657.32233047034,133.572330470337,-25.0000000000005),(2665.43291419087,128.153011687218,125.),(2665.43291419087,128.153011687218,-25.0000000000005),(2675.,126.25,125.),(2675.,126.25,-25.0000000000005),(2684.56708580913,128.153011687218,125.),(2684.56708580913,128.153011687218,-25.0000000000005),(2692.67766952966,133.572330470337,125.),(2692.67766952966,133.572330470337,-25.0000000000005),(2698.09698831278,141.682914190873,125.),(2698.09698831278,141.682914190873,-25.0000000000005),(2675.,151.25,125.),(2675.,151.25,-25.0000000000005)));
#889=IFCPOLYGONALFACESET(#888,.T.,(#840,#841,#842,#843,#844,#845,#846,#847,#848,#849,#850,#851,#852,#853,#854,#855,#856,#857,#858,#859,#860,#861,#862,#863,#864,#865,#866,#867,#868,#869,#870,#871,#872,#873,#874,#875,#876,#877,#878,#879,#880,#881,#882,#883,#884,#885,#886,#887),$);
#890=IFCSHAPEREPRESENTATION(#12,'Body','Tessellation',(#889));
#891=IFCPRODUCTDEFINITIONSHAPE($,$,(#890));
#892=IFCBUILDINGELEMENTPROXY('13MRTmcnbC4eSFg4F6iW$W',$,'column_0_cutter_9',$,$,$,#903,$,$);
#893=IFCRELCONTAINEDINSPATIALSTRUCTURE('10JhjXeM19ehX0qSoSP22O',$,$,$,(#892),#22);
#894=IFCINDEXEDPOLYGONALFACE((1,2,3,4));
#895=IFCINDEXEDPOLYGONALFACE((1,4,6,5));
#896=IFCINDEXEDPOLYGONALFACE((4,3,7,6));
#897=IFCINDEXEDPOLYGONALFACE((3,2,8,7));
#898=IFCINDEXEDPOLYGONALFACE((2,1,5,8));
#899=IFCINDEXEDPOLYGONALFACE((5,6,7,8));
#900=IFCCARTESIANPOINTLIST3D(((2600.,65.,-4.54747350886464E-13),(2600.,35.,-4.54747350886464E-13),(2600.,35.,485.),(2600.,65.,485.),(2875.,65.,-4.54747350886464E-13),(2875.,65.,485.),(2875.,35.,485.),(2875.,35.,-4.54747350886464E-13)));
#901=IFCPOLYGONALFACESET(#900,.T.,(#894,#895,#896,#897,#898,#899),$);
#902=IFCSHAPEREPRESENTATION(#12,'Body','Tessellation',(#901));
#903=IFCPRODUCTDEFINITIONSHAPE($,$,(#902));
#904=IFCBUILDINGELEMENTPROXY('3F3mEb2lzCAeEGnQFZSEVM',$,'column_0_cutter_10',$,$,$,#957,$,$);
#905=IFCRELCONTAINEDINSPATIALSTRUCTURE('2FhBcIPiDAoP3bCtl90uPa',$,$,$,(#904),#22);
#906=IFCINDEXEDPOLYGONALFACE((1,2,4,3));
#907=IFCINDEXEDPOLYGONALFACE((3,4,6,5));
#908=IFCINDEXEDPOLYGONALFACE((5,6,8,7));
#909=IFCINDEXEDPOLYGONALFACE((7,8,10,9));
#910=IFCINDEXEDPOLYGONALFACE((9,10,12,11));
#911=IFCINDEXEDPOLYGONALFACE((11,12,14,13));
#912=IFCINDEXEDPOLYGONALFACE((13,14,16,15));
#913=IFCINDEXEDPOLYGONALFACE((15,16,18,17));
#914=IFCINDEXEDPOLYGONALFACE((17,18,20,19));
#915=IFCINDEXEDPOLYGONALFACE((19,20,22,21));
#916=IFCINDEXEDPOLYGONALFACE((21,22,24,23));
#917=IFCINDEXEDPOLYGONALFACE((23,24,26,25));
#918=IFCINDEXEDPOLYGONALFACE((25,26,28,27));
#919=IFCINDEXEDPOLYGONALFACE((27,28,30,29));
#920=IFCINDEXEDPOLYGONALFACE((29,30,32,31));
#921=IFCINDEXEDPOLYGONALFACE((31,32,2,1));
#922=IFCINDEXEDPOLYGONALFACE((1,3,33));
#923=IFCINDEXEDPOLYGONALFACE((34,4,2));
#924=IFCINDEXEDPOLYGONALFACE((3,5,33));
#925=IFCINDEXEDPOLYGONALFACE((34,6,4));
#926=IFCINDEXEDPOLYGONALFACE((5,7,33));
#927=IFCINDEXEDPOLYGONALFACE((34,8,6));
#928=IFCINDEXEDPOLYGONALFACE((7,9,33));
#929=IFCINDEXEDPOLYGONALFACE((34,10,8));
#930=IFCINDEXEDPOLYGONALFACE((9,11,33));
#931=IFCINDEXEDPOLYGONALFACE((34,12,10));
#932=IFCINDEXEDPOLYGONALFACE((11,13,33));
#933=IFCINDEXEDPOLYGONALFACE((34,14,12));
#934=IFCINDEXEDPOLYGONALFACE((13,15,33));
#935=IFCINDEXEDPOLYGONALFACE((34,16,14));
#936=IFCINDEXEDPOLYGONALFACE((15,17,33));
#937=IFCINDEXEDPOLYGONALFACE((34,18,16));
#938=IFCINDEXEDPOLYGONALFACE((17,19,33));
#939=IFCINDEXEDPOLYGONALFACE((34,20,18));
#940=IFCINDEXEDPOLYGONALFACE((19,21,33));
#941=IFCINDEXEDPOLYGONALFACE((34,22,20));
#942=IFCINDEXEDPOLYGONALFACE((21,23,33));
#943=IFCINDEXEDPOLYGONALFACE((34,24,22));
#944=IFCINDEXEDPOLYGONALFACE((23,25,33));
#945=IFCINDEXEDPOLYGONALFACE((34,26,24));
#946=IFCINDEXEDPOLYGONALFACE((25,27,33));
#947=IFCINDEXEDPOLYGONALFACE((34,28,26));
#948=IFCINDEXEDPOLYGONALFACE((27,29,33));
#949=IFCINDEXEDPOLYGONALFACE((34,30,28));
#950=IFCINDEXEDPOLYGONALFACE((29,31,33));
#951=IFCINDEXEDPOLYGONALFACE((34,32,30));
#952=IFCINDEXEDPOLYGONALFACE((31,1,33));
#953=IFCINDEXEDPOLYGONALFACE((34,2,32));
#954=IFCCARTESIANPOINTLIST3D(((2800.,-25.,151.25),(2800.,125.,151.25),(2798.09698831278,-25.,160.817085809127),(2798.09698831278,125.,160.817085809127),(2792.67766952966,-25.,168.927669529663),(2792.67766952966,125.,168.927669529663),(2784.56708580913,-25.,174.346988312782),(2784.56708580913,125.,174.346988312782),(2775.,-25.,176.25),(2775.,125.,176.25),(2765.43291419087,-25.,174.346988312782),(2765.43291419087,125.,174.346988312782),(2757.32233047034,-25.,168.927669529663),(2757.32233047034,125.,168.927669529663),(2751.90301168722,-25.,160.817085809127),(2751.90301168722,125.,160.817085809127),(2750.,-25.,151.25),(2750.,125.,151.25),(2751.90301168722,-25.,141.682914190872),(2751.90301168722,125.,141.682914190872),(2757.32233047034,-25.,133.572330470336),(2757.32233047034,125.,133.572330470336),(2765.43291419087,-25.,128.153011687217),(2765.43291419087,125.,128.153011687217),(2775.,-25.,126.25),(2775.,125.,126.25),(2784.56708580913,-25.,128.153011687217),(2784.56708580913,125.,128.153011687217),(2792.67766952966,-25.,133.572330470336),(2792.67766952966,125.,133.572330470336),(2798.09698831278,-25.,141.682914190872),(2798.09698831278,125.,141.682914190872),(2775.,-25.,151.25),(2775.,125.,151.25)));
#955=IFCPOLYGONALFACESET(#954,.T.,(#906,#907,#908,#909,#910,#911,#912,#913,#914,#915,#916,#917,#918,#919,#920,#921,#922,#923,#924,#925,#926,#927,#928,#929,#930,#931,#932,#933,#934,#935,#936,#937,#938,#939,#940,#941,#942,#943,#944,#945,#946,#947,#948,#949,#950,#951,#952,#953),$);
#956=IFCSHAPEREPRESENTATION(#12,'Body','Tessellation',(#955));
#957=IFCPRODUCTDEFINITIONSHAPE($,$,(#956));
#958=IFCBUILDINGELEMENTPROXY('3P8Wq4Z3rF8ghY02iLn5bX',$,'column_0_cutter_11',$,$,$,#1011,$,$);
#959=IFCRELCONTAINEDINSPATIALSTRUCTURE('0dKahpM297_RqWHnq26_cF',$,$,$,(#958),#22);
#960=IFCINDEXEDPOLYGONALFACE((1,2,4,3));
#961=IFCINDEXEDPOLYGONALFACE((3,4,6,5));
#962=IFCINDEXEDPOLYGONALFACE((5,6,8,7));
#963=IFCINDEXEDPOLYGONALFACE((7,8,10,9));
#964=IFCINDEXEDPOLYGONALFACE((9,10,12,11));
#965=IFCINDEXEDPOLYGONALFACE((11,12,14,13));
#966=IFCINDEXEDPOLYGONALFACE((13,14,16,15));
#967=IFCINDEXEDPOLYGONALFACE((15,16,18,17));
#968=IFCINDEXEDPOLYGONALFACE((17,18,20,19));
#969=IFCINDEXEDPOLYGONALFACE((19,20,22,21));
#970=IFCINDEXEDPOLYGONALFACE((21,22,24,23));
#971=IFCINDEXEDPOLYGONALFACE((23,24,26,25));
#972=IFCINDEXEDPOLYGONALFACE((25,26,28,27));
#973=IFCINDEXEDPOLYGONALFACE((27,28,30,29));
#974=IFCINDEXEDPOLYGONALFACE((29,30,32,31));
#975=IFCINDEXEDPOLYGONALFACE((31,32,2,1));
#976=IFCINDEXEDPOLYGONALFACE((1,3,33));
#977=IFCINDEXEDPOLYGONALFACE((34,4,2));
#978=IFCINDEXEDPOLYGONALFACE((3,5,33));
#979=IFCINDEXEDPOLYGONALFACE((34,6,4));
#980=IFCINDEXEDPOLYGONALFACE((5,7,33));
#981=IFCINDEXEDPOLYGONALFACE((34,8,6));
#982=IFCINDEXEDPOLYGONALFACE((7,9,33));
#983=IFCINDEXEDPOLYGONALFACE((34,10,8));
#984=IFCINDEXEDPOLYGONALFACE((9,11,33));
#985=IFCINDEXEDPOLYGONALFACE((34,12,10));
#986=IFCINDEXEDPOLYGONALFACE((11,13,33));
#987=IFCINDEXEDPOLYGONALFACE((34,14,12));
#988=IFCINDEXEDPOLYGONALFACE((13,15,33));
#989=IFCINDEXEDPOLYGONALFACE((34,16,14));
#990=IFCINDEXEDPOLYGONALFACE((15,17,33));
#991=IFCINDEXEDPOLYGONALFACE((34,18,16));
#992=IFCINDEXEDPOLYGONALFACE((17,19,33));
#993=IFCINDEXEDPOLYGONALFACE((34,20,18));
#994=IFCINDEXEDPOLYGONALFACE((19,21,33));
#995=IFCINDEXEDPOLYGONALFACE((34,22,20));
#996=IFCINDEXEDPOLYGONALFACE((21,23,33));
#997=IFCINDEXEDPOLYGONALFACE((34,24,22));
#998=IFCINDEXEDPOLYGONALFACE((23,25,33));
#999=IFCINDEXEDPOLYGONALFACE((34,26,24));
#1000=IFCINDEXEDPOLYGONALFACE((25,27,33));
#1001=IFCINDEXEDPOLYGONALFACE((34,28,26));
#1002=IFCINDEXEDPOLYGONALFACE((27,29,33));
#1003=IFCINDEXEDPOLYGONALFACE((34,30,28));
#1004=IFCINDEXEDPOLYGONALFACE((29,31,33));
#1005=IFCINDEXEDPOLYGONALFACE((34,32,30));
#1006=IFCINDEXEDPOLYGONALFACE((31,1,33));
#1007=IFCINDEXEDPOLYGONALFACE((34,2,32));
#1008=IFCCARTESIANPOINTLIST3D(((2700.,-25.,151.25),(2700.,125.,151.25),(2698.09698831278,-25.,160.817085809127),(2698.09698831278,125.,160.817085809127),(2692.67766952966,-25.,168.927669529663),(2692.67766952966,125.,168.927669529663),(2684.56708580913,-25.,174.346988312782),(2684.56708580913,125.,174.346988312782),(2675.,-25.,176.25),(2675.,125.,176.25),(2665.43291419087,-25.,174.346988312782),(2665.43291419087,125.,174.346988312782),(2657.32233047034,-25.,168.927669529663),(2657.32233047034,125.,168.927669529663),(2651.90301168722,-25.,160.817085809127),(2651.90301168722,125.,160.817085809127),(2650.,-25.,151.25),(2650.,125.,151.25),(2651.90301168722,-25.,141.682914190872),(2651.90301168722,125.,141.682914190872),(2657.32233047034,-25.,133.572330470336),(2657.32233047034,125.,133.572330470336),(2665.43291419087,-25.,128.153011687217),(2665.43291419087,125.,128.153011687217),(2675.,-25.,126.25),(2675.,125.,126.25),(2684.56708580913,-25.,128.153011687217),(2684.56708580913,125.,128.153011687217),(2692.67766952966,-25.,133.572330470336),(2692.67766952966,125.,133.572330470336),(2698.09698831278,-25.,141.682914190872),(2698.09698831278,125.,141.682914190872),(2675.,-25.,151.25),(2675.,125.,151.25)));
#1009=IFCPOLYGONALFACESET(#1008,.T.,(#960,#961,#962,#963,#964,#965,#966,#967,#968,#969,#970,#971,#972,#973,#974,#975,#976,#977,#978,#979,#980,#981,#982,#983,#984,#985,#986,#987,#988,#989,#990,#991,#992,#993,#994,#995,#996,#997,#998,#999,#1000,#1001,#1002,#1003,#1004,#1005,#1006,#1007),$);
#1010=IFCSHAPEREPRESENTATION(#12,'Body','Tessellation',(#1009));
#1011=IFCPRODUCTDEFINITIONSHAPE($,$,(#1010));
ENDSEC;
END-ISO-10303-21;
