# OBJ
# COMPAS
# version: 2.15.1
# precision: 3
# V F E: 522 904 1406

o column_0_uncut
v 0.000 0.000 0.000
v 2850.000 0.000 0.000
v 0.000 0.000 220.000
v 2120.000 0.000 220.000
v 2850.000 0.000 220.000
v 2120.000 0.000 340.000
v 2850.000 0.000 340.000
v 0.000 220.000 0.000
v 2120.000 220.000 0.000
v 2850.000 220.000 0.000
v 2120.000 340.000 0.000
v 2850.000 340.000 0.000
v 0.000 220.000 220.000
v 2120.000 220.000 220.000
v 2850.000 220.000 220.000
v 2120.000 340.000 220.000
v 2850.000 340.000 220.000
v 2120.000 340.000 340.000
v 2850.000 340.000 340.000
f 1 2 3
f 1 3 13
f 1 8 9
f 1 13 8
f 1 10 2
f 2 4 3
f 2 5 4
f 2 15 5
f 1 9 10
f 2 10 15
f 3 4 14
f 3 14 13
f 8 14 9
f 8 13 14
f 9 16 11
f 9 12 10
f 9 11 12
f 10 12 17
f 11 17 12
f 9 14 16
f 10 17 15
f 11 16 17
f 4 5 6
f 5 7 6
f 4 6 18
f 6 7 18
f 5 19 7
f 4 18 14
f 19 5 15
f 7 19 18
f 18 16 14
f 17 19 15
f 16 19 17
f 16 18 19
o column_0_cut
v 0.000 0.000 0.000
v 2850.000 0.000 0.000
v 2600.000 0.000 35.000
v 2850.000 0.000 35.000
v 2600.000 35.000 0.000
v 2850.000 35.000 0.000
v 2600.000 35.000 35.000
v 2850.000 35.000 35.000
v 2600.000 0.000 65.000
v 2850.000 0.000 65.000
v 2600.000 35.000 65.000
v 2850.000 35.000 65.000
v 2600.000 65.000 0.000
v 2850.000 65.000 0.000
v 2600.000 65.000 35.000
v 2850.000 65.000 35.000
v 2600.000 65.000 65.000
v 2850.000 65.000 65.000
v 2665.433 0.000 128.153
v 2657.322 0.000 133.572
v 2675.000 0.000 126.250
v 2684.567 0.000 128.153
v 2775.000 0.000 126.250
v 2765.433 0.000 128.153
v 2784.567 0.000 128.153
v 2692.678 0.000 133.572
v 2757.322 0.000 133.572
v 2792.678 0.000 133.572
v 2651.903 0.000 141.683
v 2650.000 0.000 151.250
v 2651.903 0.000 160.817
v 2698.097 0.000 141.683
v 2751.903 0.000 141.683
v 2700.000 0.000 151.250
v 2750.000 0.000 151.250
v 2798.097 0.000 141.683
v 2800.000 0.000 151.250
v 2698.097 0.000 160.817
v 2751.903 0.000 160.817
v 2798.097 0.000 160.817
v 2665.433 35.000 128.153
v 2657.322 35.000 133.572
v 2675.000 35.000 126.250
v 2684.567 35.000 128.153
v 2775.000 35.000 126.250
v 2765.433 35.000 128.153
v 2784.567 35.000 128.153
v 2692.678 35.000 133.572
v 2757.322 35.000 133.572
v 2792.678 35.000 133.572
v 2651.903 35.000 141.683
v 2650.000 35.000 151.250
v 2651.903 35.000 160.817
v 2698.097 35.000 141.683
v 2751.903 35.000 141.683
v 2700.000 35.000 151.250
v 2750.000 35.000 151.250
v 2798.097 35.000 141.683
v 2800.000 35.000 151.250
v 2698.097 35.000 160.817
v 2751.903 35.000 160.817
v 2798.097 35.000 160.817
v 2665.433 65.000 128.153
v 2657.322 65.000 133.572
v 2675.000 65.000 126.250
v 2684.567 65.000 128.153
v 2775.000 65.000 126.250
v 2765.433 65.000 128.153
v 2784.567 65.000 128.153
v 2692.678 65.000 133.572
v 2757.322 65.000 133.572
v 2792.678 65.000 133.572
v 2651.903 65.000 141.683
v 2650.000 65.000 151.250
v 2651.903 65.000 160.817
v 2698.097 65.000 141.683
v 2751.903 65.000 141.683
v 2700.000 65.000 151.250
v 2750.000 65.000 151.250
v 2798.097 65.000 141.683
v 2800.000 65.000 151.250
v 2698.097 65.000 160.817
v 2751.903 65.000 160.817
v 2798.097 65.000 160.817
v 2665.433 128.153 0.000
v 2657.322 133.572 0.000
v 2675.000 126.250 0.000
v 2684.567 128.153 0.000
v 2775.000 126.250 0.000
v 2765.433 128.153 0.000
v 2784.567 128.153 0.000
v 2692.678 133.572 0.000
v 2757.322 133.572 0.000
v 2792.678 133.572 0.000
v 2665.433 128.153 35.000
v 2657.322 133.572 35.000
v 2675.000 126.250 35.000
v 2684.567 128.153 35.000
v 2775.000 126.250 35.000
v 2765.433 128.153 35.000
v 2784.567 128.153 35.000
v 2692.678 133.572 35.000
v 2757.322 133.572 35.000
v 2792.678 133.572 35.000
v 2651.903 141.683 0.000
v 2650.000 151.250 0.000
v 2651.903 160.817 0.000
v 2698.097 141.683 0.000
v 2751.903 141.683 0.000
v 2700.000 151.250 0.000
v 2750.000 151.250 0.000
v 2798.097 141.683 0.000
v 2800.000 151.250 0.000
v 2698.097 160.817 0.000
v 2751.903 160.817 0.000
v 2798.097 160.817 0.000
v 2651.903 141.683 35.000
v 2650.000 151.250 35.000
v 2651.903 160.817 35.000
v 2698.097 141.683 35.000
v 2751.903 141.683 35.000
v 2700.000 151.250 35.000
v 2750.000 151.250 35.000
v 2798.097 141.683 35.000
v 2800.000 151.250 35.000
v 2698.097 160.817 35.000
v 2751.903 160.817 35.000
v 2798.097 160.817 35.000
v 2665.433 128.153 65.000
v 2657.322 133.572 65.000
v 2675.000 126.250 65.000
v 2684.567 128.153 65.000
v 2775.000 126.250 65.000
v 2765.433 128.153 65.000
v 2784.567 128.153 65.000
v 2692.678 133.572 65.000
v 2757.322 133.572 65.000
v 2792.678 133.572 65.000
v 2651.903 141.683 65.000
v 2650.000 151.250 65.000
v 2651.903 160.817 65.000
v 2698.097 141.683 65.000
v 2751.903 141.683 65.000
v 2700.000 151.250 65.000
v 2750.000 151.250 65.000
v 2798.097 141.683 65.000
v 2800.000 151.250 65.000
v 2698.097 160.817 65.000
v 2751.903 160.817 65.000
v 2798.097 160.817 65.000
v 2665.433 125.000 128.153
v 2665.433 128.153 125.000
v 2657.322 125.000 133.572
v 2657.322 133.572 125.000
v 2675.000 125.000 126.250
v 2684.567 125.000 128.153
v 2675.000 126.250 125.000
v 2684.567 128.153 125.000
v 2775.000 125.000 126.250
v 2765.433 125.000 128.153
v 2784.567 125.000 128.153
v 2775.000 126.250 125.000
v 2765.433 128.153 125.000
v 2784.567 128.153 125.000
v 2692.678 125.000 133.572
v 2757.322 125.000 133.572
v 2792.678 125.000 133.572
v 2692.678 133.572 125.000
v 2757.322 133.572 125.000
v 2792.678 133.572 125.000
v 2651.903 125.000 141.683
v 2650.000 125.000 151.250
v 2651.903 125.000 160.817
v 2698.097 125.000 141.683
v 2751.903 125.000 141.683
v 2675.000 125.000 151.250
v 2700.000 125.000 151.250
v 2750.000 125.000 151.250
v 2798.097 125.000 141.683
v 2775.000 125.000 151.250
v 2800.000 125.000 151.250
v 2698.097 125.000 160.817
v 2751.903 125.000 160.817
v 2798.097 125.000 160.817
v 2651.903 141.683 125.000
v 2650.000 151.250 125.000
v 2651.903 160.817 125.000
v 2698.097 141.683 125.000
v 2751.903 141.683 125.000
v 2675.000 151.250 125.000
v 2700.000 151.250 125.000
v 2750.000 151.250 125.000
v 2798.097 141.683 125.000
v 2775.000 151.250 125.000
v 2800.000 151.250 125.000
v 2698.097 160.817 125.000
v 2751.903 160.817 125.000
v 2798.097 160.817 125.000
v 0.000 0.000 220.000
v 2120.000 0.000 220.000
v 2657.322 0.000 168.928
v 2665.433 0.000 174.347
v 2692.678 0.000 168.928
v 2757.322 0.000 168.928
v 2792.678 0.000 168.928
v 2684.567 0.000 174.347
v 2675.000 0.000 176.250
v 2765.433 0.000 174.347
v 2775.000 0.000 176.250
v 2784.567 0.000 174.347
v 2657.322 35.000 168.928
v 2665.433 35.000 174.347
v 2692.678 35.000 168.928
v 2757.322 35.000 168.928
v 2792.678 35.000 168.928
v 2684.567 35.000 174.347
v 2675.000 35.000 176.250
v 2765.433 35.000 174.347
v 2775.000 35.000 176.250
v 2784.567 35.000 174.347
v 2850.000 0.000 220.000
v 2850.000 35.000 220.000
v 2657.322 65.000 168.928
v 2665.433 65.000 174.347
v 2692.678 65.000 168.928
v 2757.322 65.000 168.928
v 2792.678 65.000 168.928
v 2684.567 65.000 174.347
v 2675.000 65.000 176.250
v 2765.433 65.000 174.347
v 2775.000 65.000 176.250
v 2784.567 65.000 174.347
v 2850.000 65.000 220.000
v 2642.480 35.000 250.765
v 2600.000 35.000 257.063
v 2155.450 0.000 322.968
v 2600.000 65.000 257.063
v 2850.000 120.000 220.000
v 2657.322 125.000 168.928
v 2665.433 125.000 174.347
v 2692.678 125.000 168.928
v 2757.322 125.000 168.928
v 2792.678 125.000 168.928
v 2684.567 125.000 174.347
v 2675.000 125.000 176.250
v 2765.433 125.000 174.347
v 2775.000 125.000 176.250
v 2784.567 125.000 174.347
v 0.000 220.000 0.000
v 2120.000 220.000 0.000
v 2657.322 168.928 0.000
v 2665.433 174.347 0.000
v 2692.678 168.928 0.000
v 2757.322 168.928 0.000
v 2792.678 168.928 0.000
v 2684.567 174.347 0.000
v 2675.000 176.250 0.000
v 2765.433 174.347 0.000
v 2775.000 176.250 0.000
v 2784.567 174.347 0.000
v 2657.322 168.928 35.000
v 2665.433 174.347 35.000
v 2692.678 168.928 35.000
v 2757.322 168.928 35.000
v 2792.678 168.928 35.000
v 2684.567 174.347 35.000
v 2675.000 176.250 35.000
v 2765.433 174.347 35.000
v 2775.000 176.250 35.000
v 2784.567 174.347 35.000
v 2657.322 168.928 65.000
v 2665.433 174.347 65.000
v 2692.678 168.928 65.000
v 2757.322 168.928 65.000
v 2792.678 168.928 65.000
v 2684.567 174.347 65.000
v 2675.000 176.250 65.000
v 2765.433 174.347 65.000
v 2775.000 176.250 65.000
v 2784.567 174.347 65.000
v 2850.000 220.000 0.000
v 2850.000 220.000 35.000
v 2780.190 230.349 35.000
v 2850.000 220.000 65.000
v 2657.322 168.928 125.000
v 2665.433 174.347 125.000
v 2692.678 168.928 125.000
v 2757.322 168.928 125.000
v 2792.678 168.928 125.000
v 2684.567 174.347 125.000
v 2675.000 176.250 125.000
v 2765.433 174.347 125.000
v 2775.000 176.250 125.000
v 2784.567 174.347 125.000
v 2850.000 220.000 120.000
v 2600.000 257.063 35.000
v 2642.480 250.765 65.000
v 2600.000 257.063 65.000
v 2155.450 322.968 0.000
v 0.000 220.000 220.000
v 2120.000 220.000 220.000
v 2155.450 190.228 322.968
v 2155.450 322.968 190.228
f 20 21 218
f 20 218 319
f 20 268 269
f 20 319 268
f 20 32 24
f 20 25 21
f 20 24 25
f 20 105 32
f 21 23 22
f 21 27 23
f 22 23 26
f 21 25 27
f 23 27 26
f 22 30 28
f 28 31 29
f 22 26 30
f 28 30 31
f 21 22 218
f 22 219 218
f 22 28 219
f 28 29 219
f 29 42 40
f 29 44 42
f 29 47 44
f 29 55 47
f 29 31 241
f 219 40 38
f 219 38 39
f 29 40 219
f 40 43 41
f 40 42 43
f 41 43 46
f 41 46 45
f 45 52 51
f 45 46 52
f 51 52 54
f 51 54 53
f 29 240 55
f 53 54 58
f 53 58 57
f 20 124 105
f 20 125 124
f 20 126 125
f 20 270 126
f 20 271 270
f 20 269 300
f 20 300 271
f 112 33 32
f 116 34 35
f 104 106 32
f 106 107 32
f 104 32 105
f 107 111 32
f 111 112 32
f 108 33 109
f 108 110 33
f 109 33 112
f 110 113 33
f 113 131 33
f 114 34 116
f 114 115 34
f 115 136 34
f 136 137 34
f 116 35 118
f 118 35 120
f 120 35 123
f 301 35 33
f 123 35 143
f 143 35 144
f 154 37 36
f 148 150 36
f 150 151 36
f 148 36 149
f 151 155 36
f 149 36 158
f 158 36 159
f 152 36 153
f 155 156 36
f 153 36 156
f 152 154 36
f 154 157 37
f 157 165 37
f 104 114 106
f 104 105 115
f 105 124 136
f 106 116 107
f 107 117 111
f 108 118 110
f 108 109 119
f 110 120 113
f 111 127 112
f 112 127 128
f 109 112 122
f 111 121 127
f 112 128 140
f 113 123 131
f 106 114 116
f 104 115 114
f 137 138 34
f 105 136 115
f 107 116 117
f 108 119 118
f 110 118 120
f 109 122 119
f 116 119 117
f 116 118 119
f 117 119 122
f 144 35 147
f 111 117 121
f 121 139 127
f 112 140 122
f 113 120 123
f 123 143 131
f 117 122 121
f 121 140 139
f 121 122 140
f 124 125 137
f 125 126 138
f 127 129 128
f 128 129 130
f 131 300 33
f 127 139 129
f 128 130 142
f 131 143 132
f 129 133 130
f 130 133 134
f 129 141 133
f 130 134 146
f 132 144 135
f 124 137 136
f 125 138 137
f 138 315 34
f 128 142 140
f 129 139 141
f 132 143 144
f 139 140 142
f 139 142 141
f 147 35 301
f 130 146 142
f 133 141 145
f 135 144 147
f 141 142 146
f 141 146 145
f 317 36 34
f 159 36 160
f 155 161 156
f 156 161 162
f 160 36 317
f 161 163 162
f 162 163 164
f 165 303 37
f 163 167 164
f 164 167 168
f 148 171 150
f 148 149 173
f 149 158 204
f 150 176 151
f 151 177 155
f 152 181 154
f 152 153 182
f 154 183 157
f 153 156 188
f 155 187 161
f 156 162 208
f 157 189 165
f 150 171 176
f 148 173 171
f 149 204 173
f 151 176 177
f 152 182 181
f 154 181 183
f 153 188 182
f 155 177 187
f 161 187 207
f 156 208 188
f 157 183 189
f 165 189 212
f 257 37 303
f 158 159 205
f 159 160 206
f 161 207 163
f 162 164 211
f 165 212 166
f 163 210 167
f 164 168 216
f 166 214 169
f 158 205 204
f 159 206 205
f 162 211 208
f 163 207 210
f 166 212 214
f 164 216 211
f 167 210 215
f 169 214 217
f 171 209 176
f 171 173 209
f 176 209 177
f 177 209 187
f 181 182 213
f 181 213 183
f 182 188 213
f 183 213 189
f 173 204 209
f 204 205 209
f 205 206 209
f 206 304 209
f 187 209 207
f 207 209 210
f 208 211 213
f 188 208 213
f 189 213 212
f 212 213 214
f 209 215 210
f 211 216 213
f 209 306 215
f 213 217 214
f 213 216 307
f 213 308 217
f 218 219 320
f 218 320 319
f 219 39 48
f 219 48 49
f 219 49 50
f 219 50 220
f 219 220 221
f 219 221 226
f 57 223 222
f 57 58 223
f 222 223 227
f 240 56 55
f 222 227 225
f 225 227 226
f 240 59 56
f 29 241 240
f 219 226 227
f 219 227 228
f 240 224 59
f 240 228 229
f 240 229 224
f 219 228 240
f 219 240 255
f 255 253 254
f 255 254 256
f 240 241 255
f 255 241 253
f 255 256 257
f 219 255 321
f 257 252 37
f 257 256 252
f 219 321 320
f 255 257 321
f 268 320 269
f 268 319 320
f 126 270 280
f 270 271 281
f 271 276 286
f 133 272 134
f 134 272 273
f 272 275 273
f 131 132 300
f 133 145 272
f 134 273 283
f 272 282 275
f 135 147 274
f 274 284 279
f 300 301 33
f 275 276 277
f 273 275 277
f 276 278 277
f 132 135 300
f 275 285 276
f 273 277 287
f 278 279 289
f 277 278 288
f 126 280 138
f 270 281 280
f 271 286 281
f 145 282 272
f 134 283 146
f 273 287 283
f 147 284 274
f 275 282 285
f 276 285 286
f 279 284 289
f 277 288 287
f 278 289 288
f 271 300 276
f 135 274 300
f 276 300 278
f 278 300 279
f 274 279 300
f 138 280 315
f 280 281 315
f 282 315 285
f 145 146 302
f 145 302 282
f 146 283 302
f 147 301 284
f 283 287 302
f 287 288 301
f 288 289 301
f 284 301 289
f 165 166 303
f 166 169 303
f 315 317 34
f 160 317 290
f 290 316 291
f 291 316 296
f 295 296 316
f 167 316 168
f 169 294 303
f 298 303 299
f 294 299 303
f 167 292 316
f 168 316 293
f 292 295 316
f 293 316 297
f 297 316 298
f 281 286 315
f 285 315 286
f 287 301 302
f 282 302 315
f 300 302 301
f 300 315 302
f 298 316 303
f 290 317 316
f 160 290 304
f 290 291 305
f 291 296 310
f 167 215 292
f 168 293 307
f 292 306 295
f 169 217 294
f 294 308 299
f 295 309 296
f 293 297 311
f 298 299 313
f 297 298 312
f 160 304 206
f 290 305 304
f 291 310 305
f 215 306 292
f 168 307 216
f 293 311 307
f 217 308 294
f 295 306 309
f 296 309 310
f 299 308 313
f 297 312 311
f 298 313 312
f 209 304 305
f 209 305 310
f 209 309 306
f 209 310 309
f 213 307 311
f 213 313 308
f 213 311 312
f 213 312 313
f 257 303 314
f 303 316 314
f 269 320 318
f 269 318 300
f 315 318 317
f 300 318 315
f 316 317 322
f 314 316 322
f 317 318 322
f 318 320 322
f 257 314 321
f 314 322 321
f 320 321 322
f 25 24 26
f 25 26 27
f 34 24 32
f 36 24 34
f 35 32 33
f 35 34 32
f 60 31 30
f 61 60 30
f 61 30 70
f 71 70 30
f 60 62 31
f 62 64 31
f 64 66 31
f 66 69 31
f 69 77 31
f 62 38 40
f 60 39 38
f 61 48 39
f 63 40 41
f 64 43 42
f 66 42 44
f 65 46 43
f 67 41 45
f 73 45 51
f 68 52 46
f 69 44 47
f 77 47 55
f 70 49 48
f 71 50 49
f 74 54 52
f 75 51 53
f 78 55 56
f 76 58 54
f 79 53 57
f 81 56 59
f 60 38 62
f 61 39 60
f 61 70 48
f 71 30 72
f 62 40 63
f 63 41 67
f 64 42 66
f 65 43 64
f 66 44 69
f 68 46 65
f 67 45 73
f 74 52 68
f 69 47 77
f 62 63 64
f 63 67 65
f 63 65 64
f 67 68 65
f 67 73 68
f 73 74 68
f 71 49 70
f 71 72 50
f 72 30 254
f 73 51 75
f 74 76 54
f 77 55 78
f 75 53 79
f 76 80 58
f 78 56 81
f 73 75 74
f 75 76 74
f 77 241 31
f 75 79 76
f 79 80 76
f 24 256 26
f 26 256 30
f 24 36 256
f 86 36 37
f 82 36 84
f 83 36 82
f 83 92 36
f 93 36 92
f 84 36 86
f 86 37 88
f 88 37 91
f 91 37 99
f 99 37 100
f 93 94 36
f 84 87 85
f 84 86 87
f 85 87 90
f 100 37 103
f 85 90 89
f 89 96 95
f 89 90 96
f 94 256 36
f 95 96 98
f 95 98 97
f 103 37 252
f 97 98 102
f 97 102 101
f 82 84 174
f 83 82 170
f 83 172 92
f 84 85 175
f 87 86 178
f 86 88 180
f 90 87 179
f 85 89 184
f 89 95 193
f 96 90 185
f 88 91 186
f 91 99 198
f 93 92 190
f 93 191 94
f 96 194 98
f 95 97 196
f 99 100 200
f 98 197 102
f 97 101 201
f 100 103 203
f 82 174 170
f 83 170 172
f 92 172 190
f 84 175 174
f 85 184 175
f 86 180 178
f 87 178 179
f 88 186 180
f 90 179 185
f 89 193 184
f 96 185 194
f 91 198 186
f 93 190 191
f 94 191 192
f 95 196 193
f 98 194 197
f 99 200 198
f 97 201 196
f 102 197 202
f 100 203 200
f 170 174 195
f 172 170 195
f 174 175 195
f 175 184 195
f 179 178 199
f 178 180 199
f 185 179 199
f 180 186 199
f 172 195 190
f 191 190 195
f 191 195 192
f 192 195 258
f 195 184 193
f 195 193 196
f 194 199 197
f 194 185 199
f 199 186 198
f 199 198 200
f 195 196 201
f 197 199 202
f 195 201 260
f 199 200 203
f 202 199 261
f 199 203 262
f 72 220 50
f 230 221 220
f 231 226 221
f 232 57 222
f 80 223 58
f 233 227 223
f 234 59 224
f 235 222 225
f 236 225 226
f 239 224 229
f 237 228 227
f 238 229 228
f 72 230 220
f 230 231 221
f 231 236 226
f 79 57 232
f 80 233 223
f 235 232 222
f 81 59 234
f 239 234 224
f 236 235 225
f 233 237 227
f 238 239 229
f 237 238 228
f 77 78 241
f 78 81 241
f 72 254 230
f 230 253 231
f 231 253 236
f 236 253 235
f 79 253 80
f 81 234 241
f 238 241 239
f 239 241 234
f 79 232 253
f 80 253 233
f 235 253 232
f 233 253 237
f 237 253 238
f 238 253 241
f 230 254 253
f 256 254 30
f 101 102 245
f 101 245 249
f 94 242 256
f 242 243 256
f 101 252 244
f 247 244 252
f 248 247 252
f 101 249 252
f 103 252 246
f 249 250 252
f 250 251 252
f 251 246 252
f 243 248 256
f 248 252 256
f 94 192 242
f 242 258 243
f 243 259 248
f 101 244 260
f 102 202 245
f 245 261 249
f 103 246 262
f 247 263 244
f 248 264 247
f 251 267 246
f 249 265 250
f 250 266 251
f 242 192 258
f 243 258 259
f 248 259 264
f 101 260 201
f 245 202 261
f 244 263 260
f 103 262 203
f 246 267 262
f 247 264 263
f 249 261 265
f 251 266 267
f 250 265 266
f 258 195 259
f 259 195 264
f 195 260 263
f 195 263 264
f 261 199 265
f 199 262 267
f 265 199 266
f 199 267 266
o column_0_cutter_0
v 2963.093 304.327 -109.952
v 2963.093 304.327 210.048
v 2071.196 436.551 290.228
v 2071.196 436.551 -100.000
v 2948.428 205.408 -109.952
v 2948.428 205.408 210.048
v 2056.531 337.633 290.228
v 2056.531 337.633 -100.000
f 323 324 328 327
f 324 325 329 328
f 325 326 330 329
f 326 323 327 330
f 323 326 325
f 325 324 323
f 330 327 328
f 328 329 330
o column_0_cutter_1
v 2965.793 350.395 104.334
v 2965.793 108.973 345.755
v 2074.387 203.746 473.267
v 2074.387 477.907 199.106
v 2948.428 280.758 34.697
v 2948.428 39.337 276.119
v 2057.022 134.109 403.631
v 2057.022 408.270 129.470
f 331 332 336 335
f 332 333 337 336
f 333 334 338 337
f 334 331 335 338
f 331 334 333
f 333 332 331
f 338 335 336
f 336 337 338
o column_0_cutter_2
v 2963.584 220.000 304.254
v 2963.584 -100.000 304.254
v 2071.687 -90.048 436.479
v 2071.687 300.180 436.479
v 2948.919 220.000 205.335
v 2948.919 -100.000 205.335
v 2057.022 -90.048 337.560
v 2057.022 300.180 337.560
f 339 340 344 343
f 340 341 345 344
f 341 342 346 345
f 342 339 343 346
f 339 342 341
f 341 340 339
f 346 343 344
f 344 345 346
o column_0_cutter_3
v 2092.298 446.727 -126.371
v 2092.298 446.727 263.857
v 2025.447 252.553 320.000
v 2025.447 252.553 -100.000
v 2186.851 414.174 -126.371
v 2186.851 414.174 263.857
v 2120.000 220.000 320.000
v 2120.000 220.000 -100.000
f 347 348 352 351
f 348 349 353 352
f 349 350 354 353
f 350 347 351 354
f 347 350 349
f 349 348 347
f 354 351 352
f 352 353 354
o column_0_cutter_4
v 2127.686 472.591 233.543
v 2127.686 198.430 507.704
v 2037.497 134.247 385.668
v 2037.497 385.668 134.247
v 2210.189 432.634 193.586
v 2210.189 158.473 467.747
v 2120.000 94.289 345.711
v 2120.000 345.711 94.289
f 355 356 360 359
f 356 357 361 360
f 357 358 362 361
f 358 355 359 362
f 355 358 357
f 357 356 355
f 362 359 360
f 360 361 362
o column_0_cutter_5
v 2093.450 290.228 450.074
v 2093.450 -100.000 450.074
v 2025.447 -100.000 252.553
v 2025.447 320.000 252.553
v 2188.003 290.228 417.521
v 2188.003 -100.000 417.521
v 2120.000 -100.000 220.000
v 2120.000 320.000 220.000
f 363 364 368 367
f 364 365 369 368
f 365 366 370 369
f 366 363 367 370
f 363 366 365
f 365 364 363
f 370 367 368
f 368 369 370
o column_0_cutter_6
v 2600.000 0.000 35.000
v 2600.000 0.000 65.000
v 2600.000 485.000 65.000
v 2600.000 485.000 35.000
v 2875.000 0.000 35.000
v 2875.000 485.000 35.000
v 2875.000 485.000 65.000
v 2875.000 0.000 65.000
f 371 372 373 374
f 371 374 376 375
f 374 373 377 376
f 373 372 378 377
f 372 371 375 378
f 375 376 377 378
o column_0_cutter_7
v 2800.000 151.250 125.000
v 2800.000 151.250 -25.000
v 2798.097 160.817 125.000
v 2798.097 160.817 -25.000
v 2792.678 168.928 125.000
v 2792.678 168.928 -25.000
v 2784.567 174.347 125.000
v 2784.567 174.347 -25.000
v 2775.000 176.250 125.000
v 2775.000 176.250 -25.000
v 2765.433 174.347 125.000
v 2765.433 174.347 -25.000
v 2757.322 168.928 125.000
v 2757.322 168.928 -25.000
v 2751.903 160.817 125.000
v 2751.903 160.817 -25.000
v 2750.000 151.250 125.000
v 2750.000 151.250 -25.000
v 2751.903 141.683 125.000
v 2751.903 141.683 -25.000
v 2757.322 133.572 125.000
v 2757.322 133.572 -25.000
v 2765.433 128.153 125.000
v 2765.433 128.153 -25.000
v 2775.000 126.250 125.000
v 2775.000 126.250 -25.000
v 2784.567 128.153 125.000
v 2784.567 128.153 -25.000
v 2792.678 133.572 125.000
v 2792.678 133.572 -25.000
v 2798.097 141.683 125.000
v 2798.097 141.683 -25.000
v 2775.000 151.250 125.000
v 2775.000 151.250 -25.000
f 379 380 382 381
f 381 382 384 383
f 383 384 386 385
f 385 386 388 387
f 387 388 390 389
f 389 390 392 391
f 391 392 394 393
f 393 394 396 395
f 395 396 398 397
f 397 398 400 399
f 399 400 402 401
f 401 402 404 403
f 403 404 406 405
f 405 406 408 407
f 407 408 410 409
f 409 410 380 379
f 379 381 411
f 412 382 380
f 381 383 411
f 412 384 382
f 383 385 411
f 412 386 384
f 385 387 411
f 412 388 386
f 387 389 411
f 412 390 388
f 389 391 411
f 412 392 390
f 391 393 411
f 412 394 392
f 393 395 411
f 412 396 394
f 395 397 411
f 412 398 396
f 397 399 411
f 412 400 398
f 399 401 411
f 412 402 400
f 401 403 411
f 412 404 402
f 403 405 411
f 412 406 404
f 405 407 411
f 412 408 406
f 407 409 411
f 412 410 408
f 409 379 411
f 412 380 410
o column_0_cutter_8
v 2700.000 151.250 125.000
v 2700.000 151.250 -25.000
v 2698.097 160.817 125.000
v 2698.097 160.817 -25.000
v 2692.678 168.928 125.000
v 2692.678 168.928 -25.000
v 2684.567 174.347 125.000
v 2684.567 174.347 -25.000
v 2675.000 176.250 125.000
v 2675.000 176.250 -25.000
v 2665.433 174.347 125.000
v 2665.433 174.347 -25.000
v 2657.322 168.928 125.000
v 2657.322 168.928 -25.000
v 2651.903 160.817 125.000
v 2651.903 160.817 -25.000
v 2650.000 151.250 125.000
v 2650.000 151.250 -25.000
v 2651.903 141.683 125.000
v 2651.903 141.683 -25.000
v 2657.322 133.572 125.000
v 2657.322 133.572 -25.000
v 2665.433 128.153 125.000
v 2665.433 128.153 -25.000
v 2675.000 126.250 125.000
v 2675.000 126.250 -25.000
v 2684.567 128.153 125.000
v 2684.567 128.153 -25.000
v 2692.678 133.572 125.000
v 2692.678 133.572 -25.000
v 2698.097 141.683 125.000
v 2698.097 141.683 -25.000
v 2675.000 151.250 125.000
v 2675.000 151.250 -25.000
f 413 414 416 415
f 415 416 418 417
f 417 418 420 419
f 419 420 422 421
f 421 422 424 423
f 423 424 426 425
f 425 426 428 427
f 427 428 430 429
f 429 430 432 431
f 431 432 434 433
f 433 434 436 435
f 435 436 438 437
f 437 438 440 439
f 439 440 442 441
f 441 442 444 443
f 443 444 414 413
f 413 415 445
f 446 416 414
f 415 417 445
f 446 418 416
f 417 419 445
f 446 420 418
f 419 421 445
f 446 422 420
f 421 423 445
f 446 424 422
f 423 425 445
f 446 426 424
f 425 427 445
f 446 428 426
f 427 429 445
f 446 430 428
f 429 431 445
f 446 432 430
f 431 433 445
f 446 434 432
f 433 435 445
f 446 436 434
f 435 437 445
f 446 438 436
f 437 439 445
f 446 440 438
f 439 441 445
f 446 442 440
f 441 443 445
f 446 444 442
f 443 413 445
f 446 414 444
o column_0_cutter_9
v 2600.000 65.000 -0.000
v 2600.000 35.000 -0.000
v 2600.000 35.000 485.000
v 2600.000 65.000 485.000
v 2875.000 65.000 -0.000
v 2875.000 65.000 485.000
v 2875.000 35.000 485.000
v 2875.000 35.000 -0.000
f 447 448 449 450
f 447 450 452 451
f 450 449 453 452
f 449 448 454 453
f 448 447 451 454
f 451 452 453 454
o column_0_cutter_10
v 2800.000 -25.000 151.250
v 2800.000 125.000 151.250
v 2798.097 -25.000 160.817
v 2798.097 125.000 160.817
v 2792.678 -25.000 168.928
v 2792.678 125.000 168.928
v 2784.567 -25.000 174.347
v 2784.567 125.000 174.347
v 2775.000 -25.000 176.250
v 2775.000 125.000 176.250
v 2765.433 -25.000 174.347
v 2765.433 125.000 174.347
v 2757.322 -25.000 168.928
v 2757.322 125.000 168.928
v 2751.903 -25.000 160.817
v 2751.903 125.000 160.817
v 2750.000 -25.000 151.250
v 2750.000 125.000 151.250
v 2751.903 -25.000 141.683
v 2751.903 125.000 141.683
v 2757.322 -25.000 133.572
v 2757.322 125.000 133.572
v 2765.433 -25.000 128.153
v 2765.433 125.000 128.153
v 2775.000 -25.000 126.250
v 2775.000 125.000 126.250
v 2784.567 -25.000 128.153
v 2784.567 125.000 128.153
v 2792.678 -25.000 133.572
v 2792.678 125.000 133.572
v 2798.097 -25.000 141.683
v 2798.097 125.000 141.683
v 2775.000 -25.000 151.250
v 2775.000 125.000 151.250
f 455 456 458 457
f 457 458 460 459
f 459 460 462 461
f 461 462 464 463
f 463 464 466 465
f 465 466 468 467
f 467 468 470 469
f 469 470 472 471
f 471 472 474 473
f 473 474 476 475
f 475 476 478 477
f 477 478 480 479
f 479 480 482 481
f 481 482 484 483
f 483 484 486 485
f 485 486 456 455
f 455 457 487
f 488 458 456
f 457 459 487
f 488 460 458
f 459 461 487
f 488 462 460
f 461 463 487
f 488 464 462
f 463 465 487
f 488 466 464
f 465 467 487
f 488 468 466
f 467 469 487
f 488 470 468
f 469 471 487
f 488 472 470
f 471 473 487
f 488 474 472
f 473 475 487
f 488 476 474
f 475 477 487
f 488 478 476
f 477 479 487
f 488 480 478
f 479 481 487
f 488 482 480
f 481 483 487
f 488 484 482
f 483 485 487
f 488 486 484
f 485 455 487
f 488 456 486
o column_0_cutter_11
v 2700.000 -25.000 151.250
v 2700.000 125.000 151.250
v 2698.097 -25.000 160.817
v 2698.097 125.000 160.817
v 2692.678 -25.000 168.928
v 2692.678 125.000 168.928
v 2684.567 -25.000 174.347
v 2684.567 125.000 174.347
v 2675.000 -25.000 176.250
v 2675.000 125.000 176.250
v 2665.433 -25.000 174.347
v 2665.433 125.000 174.347
v 2657.322 -25.000 168.928
v 2657.322 125.000 168.928
v 2651.903 -25.000 160.817
v 2651.903 125.000 160.817
v 2650.000 -25.000 151.250
v 2650.000 125.000 151.250
v 2651.903 -25.000 141.683
v 2651.903 125.000 141.683
v 2657.322 -25.000 133.572
v 2657.322 125.000 133.572
v 2665.433 -25.000 128.153
v 2665.433 125.000 128.153
v 2675.000 -25.000 126.250
v 2675.000 125.000 126.250
v 2684.567 -25.000 128.153
v 2684.567 125.000 128.153
v 2692.678 -25.000 133.572
v 2692.678 125.000 133.572
v 2698.097 -25.000 141.683
v 2698.097 125.000 141.683
v 2675.000 -25.000 151.250
v 2675.000 125.000 151.250
f 489 490 492 491
f 491 492 494 493
f 493 494 496 495
f 495 496 498 497
f 497 498 500 499
f 499 500 502 501
f 501 502 504 503
f 503 504 506 505
f 505 506 508 507
f 507 508 510 509
f 509 510 512 511
f 511 512 514 513
f 513 514 516 515
f 515 516 518 517
f 517 518 520 519
f 519 520 490 489
f 489 491 521
f 522 492 490
f 491 493 521
f 522 494 492
f 493 495 521
f 522 496 494
f 495 497 521
f 522 498 496
f 497 499 521
f 522 500 498
f 499 501 521
f 522 502 500
f 501 503 521
f 522 504 502
f 503 505 521
f 522 506 504
f 505 507 521
f 522 508 506
f 507 509 521
f 522 510 508
f 509 511 521
f 522 512 510
f 511 513 521
f 522 514 512
f 513 515 521
f 522 516 514
f 515 517 521
f 522 518 516
f 517 519 521
f 522 520 518
f 519 489 521
f 522 490 520
