# OBJ
# COMPAS
# version: 2.15.1
# precision: 3
# V F E: 136 284 426

o connector_0_preview
v 242.500 125.000 30.000
v 108.928 67.678 30.000
v 100.817 73.097 30.000
v 91.250 75.000 30.000
v 81.683 73.097 30.000
v 73.572 67.678 30.000
v 114.347 59.567 30.000
v 116.250 50.000 30.000
v 114.347 40.433 30.000
v 108.928 32.322 30.000
v 68.153 59.567 30.000
v 66.250 50.000 30.000
v 68.153 40.433 30.000
v 73.572 32.322 30.000
v 100.817 26.903 30.000
v 91.250 25.000 30.000
v 81.683 26.903 30.000
v 242.500 -125.000 30.000
v 100.817 -26.903 30.000
v 91.250 -25.000 30.000
v 81.683 -26.903 30.000
v 108.928 -32.322 30.000
v 114.347 -40.433 30.000
v 116.250 -50.000 30.000
v 114.347 -59.567 30.000
v 73.572 -32.322 30.000
v 68.153 -40.433 30.000
v 66.250 -50.000 30.000
v 68.153 -59.567 30.000
v 108.928 -67.678 30.000
v 100.817 -73.097 30.000
v 91.250 -75.000 30.000
v 81.683 -73.097 30.000
v 73.572 -67.678 30.000
v 242.500 125.000 0.000
v 108.928 67.678 0.000
v 100.817 73.097 0.000
v 91.250 75.000 0.000
v 81.683 73.097 0.000
v 73.572 67.678 0.000
v 114.347 59.567 0.000
v 116.250 50.000 0.000
v 114.347 40.433 0.000
v 108.928 32.322 0.000
v 68.153 59.567 0.000
v 66.250 50.000 0.000
v 68.153 40.433 0.000
v 73.572 32.322 0.000
v 100.817 26.903 0.000
v 91.250 25.000 0.000
v 81.683 26.903 0.000
v 242.500 -125.000 0.000
v 100.817 -26.903 0.000
v 91.250 -25.000 0.000
v 81.683 -26.903 0.000
v 108.928 -32.322 0.000
v 114.347 -40.433 0.000
v 116.250 -50.000 0.000
v 114.347 -59.567 0.000
v 73.572 -32.322 0.000
v 68.153 -40.433 0.000
v 66.250 -50.000 0.000
v 68.153 -59.567 0.000
v 108.928 -67.678 0.000
v 100.817 -73.097 0.000
v 91.250 -75.000 0.000
v 81.683 -73.097 0.000
v 73.572 -67.678 0.000
v -73.572 67.678 30.000
v -81.683 73.097 30.000
v -91.250 75.000 30.000
v -100.817 73.097 30.000
v -108.928 67.678 30.000
v -68.153 59.567 30.000
v -66.250 50.000 30.000
v -68.153 40.433 30.000
v -73.572 32.322 30.000
v -114.347 59.567 30.000
v -116.250 50.000 30.000
v -114.347 40.433 30.000
v -108.928 32.322 30.000
v -81.683 26.903 30.000
v -91.250 25.000 30.000
v -100.817 26.903 30.000
v -242.500 125.000 30.000
v -81.683 -26.903 30.000
v -91.250 -25.000 30.000
v -100.817 -26.903 30.000
v -73.572 -32.322 30.000
v -68.153 -40.433 30.000
v -66.250 -50.000 30.000
v -68.153 -59.567 30.000
v -108.928 -32.322 30.000
v -114.347 -40.433 30.000
v -116.250 -50.000 30.000
v -114.347 -59.567 30.000
v -73.572 -67.678 30.000
v -81.683 -73.097 30.000
v -91.250 -75.000 30.000
v -100.817 -73.097 30.000
v -108.928 -67.678 30.000
v -242.500 -125.000 30.000
v -73.572 67.678 0.000
v -81.683 73.097 0.000
v -91.250 75.000 0.000
v -100.817 73.097 0.000
v -108.928 67.678 0.000
v -68.153 59.567 0.000
v -66.250 50.000 0.000
v -68.153 40.433 0.000
v -73.572 32.322 0.000
v -114.347 59.567 0.000
v -116.250 50.000 0.000
v -114.347 40.433 0.000
v -108.928 32.322 0.000
v -81.683 26.903 0.000
v -91.250 25.000 0.000
v -100.817 26.903 0.000
v -242.500 125.000 0.000
v -81.683 -26.903 0.000
v -91.250 -25.000 0.000
v -100.817 -26.903 0.000
v -73.572 -32.322 0.000
v -68.153 -40.433 0.000
v -66.250 -50.000 0.000
v -68.153 -59.567 0.000
v -108.928 -32.322 0.000
v -114.347 -40.433 0.000
v -116.250 -50.000 0.000
v -114.347 -59.567 0.000
v -73.572 -67.678 0.000
v -81.683 -73.097 0.000
v -91.250 -75.000 0.000
v -100.817 -73.097 0.000
v -108.928 -67.678 0.000
v -242.500 -125.000 0.000
f 1 2 7
f 1 7 8
f 1 4 3
f 1 3 2
f 1 8 18
f 1 18 35
f 1 71 4
f 4 70 5
f 5 69 6
f 15 22 10
f 16 19 15
f 17 20 16
f 6 74 11
f 11 86 12
f 12 89 13
f 13 90 14
f 14 91 17
f 18 8 9
f 18 9 10
f 18 10 22
f 18 22 23
f 18 23 24
f 18 24 25
f 18 25 30
f 18 30 31
f 18 31 32
f 15 19 22
f 16 20 19
f 17 21 20
f 17 91 21
f 21 91 26
f 26 91 27
f 27 91 28
f 28 92 29
f 18 32 99
f 29 97 34
f 34 98 33
f 33 99 32
f 35 41 36
f 35 42 41
f 35 43 42
f 35 44 43
f 35 37 38
f 35 36 37
f 35 56 44
f 35 57 56
f 35 58 57
f 1 35 119
f 35 38 105
f 39 105 38
f 40 104 39
f 45 103 40
f 44 53 49
f 49 54 50
f 50 55 51
f 46 108 45
f 48 109 47
f 47 109 46
f 51 109 48
f 51 55 109
f 18 52 35
f 35 52 58
f 52 59 58
f 52 64 59
f 52 65 64
f 52 66 65
f 18 136 52
f 44 56 53
f 49 53 54
f 50 54 55
f 60 109 55
f 61 110 60
f 62 111 61
f 63 116 62
f 68 126 63
f 52 133 66
f 66 132 67
f 67 131 68
f 1 85 71
f 4 71 70
f 5 70 69
f 6 69 74
f 11 74 75
f 11 75 76
f 11 76 77
f 11 77 82
f 11 82 86
f 83 86 82
f 79 94 80
f 84 87 83
f 81 88 84
f 80 93 81
f 1 119 85
f 85 72 71
f 85 73 72
f 85 78 73
f 85 79 78
f 85 102 79
f 12 86 89
f 90 13 89
f 14 90 91
f 28 91 92
f 29 92 97
f 83 87 86
f 84 88 87
f 81 93 88
f 80 94 93
f 79 95 94
f 34 97 98
f 33 98 99
f 18 99 102
f 18 102 136
f 102 95 79
f 102 100 101
f 102 99 100
f 102 96 95
f 102 101 96
f 85 136 102
f 35 105 119
f 40 103 104
f 39 104 105
f 45 108 103
f 46 109 108
f 60 110 109
f 110 61 111
f 62 116 111
f 116 121 117
f 117 122 118
f 118 127 115
f 115 128 114
f 114 129 113
f 85 119 136
f 119 105 106
f 119 106 107
f 119 107 112
f 119 112 113
f 119 113 129
f 63 120 116
f 63 123 120
f 63 124 123
f 63 125 124
f 63 126 125
f 116 120 121
f 117 121 122
f 118 122 127
f 115 127 128
f 114 128 129
f 68 131 126
f 67 132 131
f 66 133 132
f 52 136 133
f 119 129 136
f 136 135 134
f 136 134 133
f 136 129 130
f 136 130 135
f 36 7 2
f 37 2 3
f 38 3 4
f 39 4 5
f 40 5 6
f 8 7 41
f 9 8 42
f 10 9 43
f 45 6 11
f 46 11 12
f 47 12 13
f 13 14 48
f 15 10 44
f 16 15 49
f 17 16 50
f 14 17 51
f 22 19 53
f 19 20 54
f 20 21 55
f 21 26 60
f 23 22 56
f 24 23 57
f 25 24 58
f 30 25 59
f 26 27 61
f 27 28 62
f 28 29 63
f 31 30 64
f 32 31 65
f 33 32 66
f 34 33 67
f 29 34 68
f 37 36 2
f 38 37 3
f 39 38 4
f 40 39 5
f 45 40 6
f 36 41 7
f 8 41 42
f 9 42 43
f 10 43 44
f 46 45 11
f 47 46 12
f 48 47 13
f 15 44 49
f 16 49 50
f 17 50 51
f 14 51 48
f 22 53 56
f 19 54 53
f 20 55 54
f 21 60 55
f 23 56 57
f 24 57 58
f 58 59 25
f 61 60 26
f 27 62 61
f 28 63 62
f 29 68 63
f 30 59 64
f 31 64 65
f 32 65 66
f 34 67 68
f 33 66 67
f 103 74 69
f 104 69 70
f 105 70 71
f 106 71 72
f 107 72 73
f 108 75 74
f 109 76 75
f 110 77 76
f 112 73 78
f 78 79 113
f 79 80 114
f 80 81 115
f 82 77 111
f 83 82 116
f 84 83 117
f 81 84 118
f 89 86 120
f 86 87 121
f 87 88 122
f 88 93 127
f 90 89 123
f 91 90 124
f 92 91 125
f 97 92 126
f 93 94 128
f 94 95 129
f 95 96 130
f 98 97 131
f 99 98 132
f 100 99 133
f 101 100 134
f 96 101 135
f 105 104 70
f 104 103 69
f 106 105 71
f 107 106 72
f 112 107 73
f 103 108 74
f 108 109 75
f 109 110 76
f 110 111 77
f 113 112 78
f 79 114 113
f 80 115 114
f 82 111 116
f 83 116 117
f 84 117 118
f 81 118 115
f 89 120 123
f 86 121 120
f 87 122 121
f 88 127 122
f 90 123 124
f 91 124 125
f 92 125 126
f 93 128 127
f 94 129 128
f 95 130 129
f 96 135 130
f 97 126 131
f 98 131 132
f 99 132 133
f 100 133 134
f 101 134 135
