ISO-10303-21;
HEADER;
FILE_DESCRIPTION(('ViewDefinition [CoordinationView]'),'2;1');
FILE_NAME('','2026-08-20T16:49:43',(''),(''),'IfcOpenShell 0.8.4-e8eb5e4','IfcOpenShell 0.8.4-e8eb5e4','');
FILE_SCHEMA(('IFC4'));
ENDSEC;
DATA;
#1=IFCPROJECT('3rVLXfRTb13v0sA7zezkYU',$,'Default Project',$,$,$,$,(#11),#6);
#2=IFCSIUNIT(*,.LENGTHUNIT.,.MILLI.,.METRE.);
#3=IFCSIUNIT(*,.AREAUNIT.,.MILLI.,.SQUARE_METRE.);
#4=IFCSIUNIT(*,.VOLUMEUNIT.,.MILLI.,.CUBIC_METRE.);
#5=IFCSIUNIT(*,.PLANEANGLEUNIT.,$,.RADIAN.);
#6=IFCUNITASSIGNMENT((#2,#3,#4,#5));
#7=IFCCARTESIANPOINT((0.,0.,0.));
#8=IFCDIRECTION((0.,0.,1.));
#9=IFCDIRECTION((1.,0.,0.));
#10=IFCAXIS2PLACEMENT3D(#7,#8,#9);
#11=IFCGEOMETRICREPRESENTATIONCONTEXT($,'Model',3,1.E-05,#10,$);
#12=IFCGEOMETRICREPRESENTATIONSUBCONTEXT('Body','Model',*,*,*,*,#11,$,.MODEL_VIEW.,$);
#13=IFCPERSON($,'Unknown Author',$,$,$,$,$,$);
#14=IFCORGANIZATION($,'compas.dev',$,$,$);
#15=IFCPERSONANDORGANIZATION(#13,#14,$);
#16=IFCAPPLICATION(#14,'2.1.0','compas_ifc','compas_ifc v2.1.0');
#17=IFCOWNERHISTORY(#15,#16,$,$,$,$,$,1787237383);
#18=IFCSITE('00VAmM37PDCP2zwRB$TcAH',$,'Default Site',$,$,$,$,$,$,$,$,$,$,$);
#19=IFCRELAGGREGATES('3AJcf0wBH6VeijvFmPTLh1',$,$,$,#1,(#18));
#20=IFCBUILDING('0u4qPL7aTEZPpLSx_qDsmQ',$,'Default Building 1',$,$,$,$,$,$,$,$,$);
#21=IFCRELAGGREGATES('1375witaj5_w0DCnA8EQVT',$,$,$,#18,(#20));
#22=IFCBUILDINGSTOREY('1G0crDEu17zPum1GeN4qaS',$,'Default Storey 1',$,$,$,$,$,$,$);
#23=IFCRELAGGREGATES('0HXbruX6P33u5HwWql0C0s',$,$,$,#20,(#22));
#24=IFCBUILDINGELEMENTPROXY('1i46DOZeH9BhXF58JzrQaq',$,'connector_0_uncut',$,$,$,#35,$,$);
#25=IFCRELCONTAINEDINSPATIALSTRUCTURE('0h5Sl0H4XC4BfGXi6ER7QT',$,$,$,(#24),#22);
#26=IFCINDEXEDPOLYGONALFACE((1,2,3,4));
#27=IFCINDEXEDPOLYGONALFACE((1,4,6,5));
#28=IFCINDEXEDPOLYGONALFACE((4,3,7,6));
#29=IFCINDEXEDPOLYGONALFACE((3,2,8,7));
#30=IFCINDEXEDPOLYGONALFACE((2,1,5,8));
#31=IFCINDEXEDPOLYGONALFACE((5,6,7,8));
#32=IFCCARTESIANPOINTLIST3D(((242.5,125.,30.),(242.5,125.,0.),(-242.5,125.,0.),(-242.5,125.,30.),(242.5,-125.,30.),(-242.5,-125.,30.),(-242.5,-125.,0.),(242.5,-125.,0.)));
#33=IFCPOLYGONALFACESET(#32,.T.,(#26,#27,#28,#29,#30,#31),$);
#34=IFCSHAPEREPRESENTATION(#12,'Body','Tessellation',(#33));
#35=IFCPRODUCTDEFINITIONSHAPE($,$,(#34));
#36=IFCBUILDINGELEMENTPROXY('2K7eXIPAfCze8ipdboH4Gi',$,'connector_0',$,$,$,#325,$,$);
#37=IFCRELCONTAINEDINSPATIALSTRUCTURE('0z1wAoKg1AQQI_OG3N$d7D',$,$,$,(#36),#22);
#38=IFCINDEXEDPOLYGONALFACE((1,2,7));
#39=IFCINDEXEDPOLYGONALFACE((1,7,8));
#40=IFCINDEXEDPOLYGONALFACE((1,4,3));
#41=IFCINDEXEDPOLYGONALFACE((1,3,2));
#42=IFCINDEXEDPOLYGONALFACE((1,8,18));
#43=IFCINDEXEDPOLYGONALFACE((1,18,35));
#44=IFCINDEXEDPOLYGONALFACE((1,71,4));
#45=IFCINDEXEDPOLYGONALFACE((4,70,5));
#46=IFCINDEXEDPOLYGONALFACE((5,69,6));
#47=IFCINDEXEDPOLYGONALFACE((15,22,10));
#48=IFCINDEXEDPOLYGONALFACE((16,19,15));
#49=IFCINDEXEDPOLYGONALFACE((17,20,16));
#50=IFCINDEXEDPOLYGONALFACE((6,74,11));
#51=IFCINDEXEDPOLYGONALFACE((11,86,12));
#52=IFCINDEXEDPOLYGONALFACE((12,89,13));
#53=IFCINDEXEDPOLYGONALFACE((13,90,14));
#54=IFCINDEXEDPOLYGONALFACE((14,91,17));
#55=IFCINDEXEDPOLYGONALFACE((18,8,9));
#56=IFCINDEXEDPOLYGONALFACE((18,9,10));
#57=IFCINDEXEDPOLYGONALFACE((18,10,22));
#58=IFCINDEXEDPOLYGONALFACE((18,22,23));
#59=IFCINDEXEDPOLYGONALFACE((18,23,24));
#60=IFCINDEXEDPOLYGONALFACE((18,24,25));
#61=IFCINDEXEDPOLYGONALFACE((18,25,30));
#62=IFCINDEXEDPOLYGONALFACE((18,30,31));
#63=IFCINDEXEDPOLYGONALFACE((18,31,32));
#64=IFCINDEXEDPOLYGONALFACE((15,19,22));
#65=IFCINDEXEDPOLYGONALFACE((16,20,19));
#66=IFCINDEXEDPOLYGONALFACE((17,21,20));
#67=IFCINDEXEDPOLYGONALFACE((17,91,21));
#68=IFCINDEXEDPOLYGONALFACE((21,91,26));
#69=IFCINDEXEDPOLYGONALFACE((26,91,27));
#70=IFCINDEXEDPOLYGONALFACE((27,91,28));
#71=IFCINDEXEDPOLYGONALFACE((28,92,29));
#72=IFCINDEXEDPOLYGONALFACE((18,32,99));
#73=IFCINDEXEDPOLYGONALFACE((29,97,34));
#74=IFCINDEXEDPOLYGONALFACE((34,98,33));
#75=IFCINDEXEDPOLYGONALFACE((33,99,32));
#76=IFCINDEXEDPOLYGONALFACE((35,41,36));
#77=IFCINDEXEDPOLYGONALFACE((35,42,41));
#78=IFCINDEXEDPOLYGONALFACE((35,43,42));
#79=IFCINDEXEDPOLYGONALFACE((35,44,43));
#80=IFCINDEXEDPOLYGONALFACE((35,37,38));
#81=IFCINDEXEDPOLYGONALFACE((35,36,37));
#82=IFCINDEXEDPOLYGONALFACE((35,56,44));
#83=IFCINDEXEDPOLYGONALFACE((35,57,56));
#84=IFCINDEXEDPOLYGONALFACE((35,58,57));
#85=IFCINDEXEDPOLYGONALFACE((1,35,119));
#86=IFCINDEXEDPOLYGONALFACE((35,38,105));
#87=IFCINDEXEDPOLYGONALFACE((39,105,38));
#88=IFCINDEXEDPOLYGONALFACE((40,104,39));
#89=IFCINDEXEDPOLYGONALFACE((45,103,40));
#90=IFCINDEXEDPOLYGONALFACE((44,53,49));
#91=IFCINDEXEDPOLYGONALFACE((49,54,50));
#92=IFCINDEXEDPOLYGONALFACE((50,55,51));
#93=IFCINDEXEDPOLYGONALFACE((46,108,45));
#94=IFCINDEXEDPOLYGONALFACE((48,109,47));
#95=IFCINDEXEDPOLYGONALFACE((47,109,46));
#96=IFCINDEXEDPOLYGONALFACE((51,109,48));
#97=IFCINDEXEDPOLYGONALFACE((51,55,109));
#98=IFCINDEXEDPOLYGONALFACE((18,52,35));
#99=IFCINDEXEDPOLYGONALFACE((35,52,58));
#100=IFCINDEXEDPOLYGONALFACE((52,59,58));
#101=IFCINDEXEDPOLYGONALFACE((52,64,59));
#102=IFCINDEXEDPOLYGONALFACE((52,65,64));
#103=IFCINDEXEDPOLYGONALFACE((52,66,65));
#104=IFCINDEXEDPOLYGONALFACE((18,136,52));
#105=IFCINDEXEDPOLYGONALFACE((44,56,53));
#106=IFCINDEXEDPOLYGONALFACE((49,53,54));
#107=IFCINDEXEDPOLYGONALFACE((50,54,55));
#108=IFCINDEXEDPOLYGONALFACE((60,109,55));
#109=IFCINDEXEDPOLYGONALFACE((61,110,60));
#110=IFCINDEXEDPOLYGONALFACE((62,111,61));
#111=IFCINDEXEDPOLYGONALFACE((63,116,62));
#112=IFCINDEXEDPOLYGONALFACE((68,126,63));
#113=IFCINDEXEDPOLYGONALFACE((52,133,66));
#114=IFCINDEXEDPOLYGONALFACE((66,132,67));
#115=IFCINDEXEDPOLYGONALFACE((67,131,68));
#116=IFCINDEXEDPOLYGONALFACE((1,85,71));
#117=IFCINDEXEDPOLYGONALFACE((4,71,70));
#118=IFCINDEXEDPOLYGONALFACE((5,70,69));
#119=IFCINDEXEDPOLYGONALFACE((6,69,74));
#120=IFCINDEXEDPOLYGONALFACE((11,74,75));
#121=IFCINDEXEDPOLYGONALFACE((11,75,76));
#122=IFCINDEXEDPOLYGONALFACE((11,76,77));
#123=IFCINDEXEDPOLYGONALFACE((11,77,82));
#124=IFCINDEXEDPOLYGONALFACE((11,82,86));
#125=IFCINDEXEDPOLYGONALFACE((83,86,82));
#126=IFCINDEXEDPOLYGONALFACE((79,94,80));
#127=IFCINDEXEDPOLYGONALFACE((84,87,83));
#128=IFCINDEXEDPOLYGONALFACE((81,88,84));
#129=IFCINDEXEDPOLYGONALFACE((80,93,81));
#130=IFCINDEXEDPOLYGONALFACE((1,119,85));
#131=IFCINDEXEDPOLYGONALFACE((85,72,71));
#132=IFCINDEXEDPOLYGONALFACE((85,73,72));
#133=IFCINDEXEDPOLYGONALFACE((85,78,73));
#134=IFCINDEXEDPOLYGONALFACE((85,79,78));
#135=IFCINDEXEDPOLYGONALFACE((85,102,79));
#136=IFCINDEXEDPOLYGONALFACE((12,86,89));
#137=IFCINDEXEDPOLYGONALFACE((90,13,89));
#138=IFCINDEXEDPOLYGONALFACE((14,90,91));
#139=IFCINDEXEDPOLYGONALFACE((28,91,92));
#140=IFCINDEXEDPOLYGONALFACE((29,92,97));
#141=IFCINDEXEDPOLYGONALFACE((83,87,86));
#142=IFCINDEXEDPOLYGONALFACE((84,88,87));
#143=IFCINDEXEDPOLYGONALFACE((81,93,88));
#144=IFCINDEXEDPOLYGONALFACE((80,94,93));
#145=IFCINDEXEDPOLYGONALFACE((79,95,94));
#146=IFCINDEXEDPOLYGONALFACE((34,97,98));
#147=IFCINDEXEDPOLYGONALFACE((33,98,99));
#148=IFCINDEXEDPOLYGONALFACE((18,99,102));
#149=IFCINDEXEDPOLYGONALFACE((18,102,136));
#150=IFCINDEXEDPOLYGONALFACE((102,95,79));
#151=IFCINDEXEDPOLYGONALFACE((102,100,101));
#152=IFCINDEXEDPOLYGONALFACE((102,99,100));
#153=IFCINDEXEDPOLYGONALFACE((102,96,95));
#154=IFCINDEXEDPOLYGONALFACE((102,101,96));
#155=IFCINDEXEDPOLYGONALFACE((85,136,102));
#156=IFCINDEXEDPOLYGONALFACE((35,105,119));
#157=IFCINDEXEDPOLYGONALFACE((40,103,104));
#158=IFCINDEXEDPOLYGONALFACE((39,104,105));
#159=IFCINDEXEDPOLYGONALFACE((45,108,103));
#160=IFCINDEXEDPOLYGONALFACE((46,109,108));
#161=IFCINDEXEDPOLYGONALFACE((60,110,109));
#162=IFCINDEXEDPOLYGONALFACE((110,61,111));
#163=IFCINDEXEDPOLYGONALFACE((62,116,111));
#164=IFCINDEXEDPOLYGONALFACE((116,121,117));
#165=IFCINDEXEDPOLYGONALFACE((117,122,118));
#166=IFCINDEXEDPOLYGONALFACE((118,127,115));
#167=IFCINDEXEDPOLYGONALFACE((115,128,114));
#168=IFCINDEXEDPOLYGONALFACE((114,129,113));
#169=IFCINDEXEDPOLYGONALFACE((85,119,136));
#170=IFCINDEXEDPOLYGONALFACE((119,105,106));
#171=IFCINDEXEDPOLYGONALFACE((119,106,107));
#172=IFCINDEXEDPOLYGONALFACE((119,107,112));
#173=IFCINDEXEDPOLYGONALFACE((119,112,113));
#174=IFCINDEXEDPOLYGONALFACE((119,113,129));
#175=IFCINDEXEDPOLYGONALFACE((63,120,116));
#176=IFCINDEXEDPOLYGONALFACE((63,123,120));
#177=IFCINDEXEDPOLYGONALFACE((63,124,123));
#178=IFCINDEXEDPOLYGONALFACE((63,125,124));
#179=IFCINDEXEDPOLYGONALFACE((63,126,125));
#180=IFCINDEXEDPOLYGONALFACE((116,120,121));
#181=IFCINDEXEDPOLYGONALFACE((117,121,122));
#182=IFCINDEXEDPOLYGONALFACE((118,122,127));
#183=IFCINDEXEDPOLYGONALFACE((115,127,128));
#184=IFCINDEXEDPOLYGONALFACE((114,128,129));
#185=IFCINDEXEDPOLYGONALFACE((68,131,126));
#186=IFCINDEXEDPOLYGONALFACE((67,132,131));
#187=IFCINDEXEDPOLYGONALFACE((66,133,132));
#188=IFCINDEXEDPOLYGONALFACE((52,136,133));
#189=IFCINDEXEDPOLYGONALFACE((119,129,136));
#190=IFCINDEXEDPOLYGONALFACE((136,135,134));
#191=IFCINDEXEDPOLYGONALFACE((136,134,133));
#192=IFCINDEXEDPOLYGONALFACE((136,129,130));
#193=IFCINDEXEDPOLYGONALFACE((136,130,135));
#194=IFCINDEXEDPOLYGONALFACE((36,7,2));
#195=IFCINDEXEDPOLYGONALFACE((37,2,3));
#196=IFCINDEXEDPOLYGONALFACE((38,3,4));
#197=IFCINDEXEDPOLYGONALFACE((39,4,5));
#198=IFCINDEXEDPOLYGONALFACE((40,5,6));
#199=IFCINDEXEDPOLYGONALFACE((8,7,41));
#200=IFCINDEXEDPOLYGONALFACE((9,8,42));
#201=IFCINDEXEDPOLYGONALFACE((10,9,43));
#202=IFCINDEXEDPOLYGONALFACE((45,6,11));
#203=IFCINDEXEDPOLYGONALFACE((46,11,12));
#204=IFCINDEXEDPOLYGONALFACE((47,12,13));
#205=IFCINDEXEDPOLYGONALFACE((13,14,48));
#206=IFCINDEXEDPOLYGONALFACE((15,10,44));
#207=IFCINDEXEDPOLYGONALFACE((16,15,49));
#208=IFCINDEXEDPOLYGONALFACE((17,16,50));
#209=IFCINDEXEDPOLYGONALFACE((14,17,51));
#210=IFCINDEXEDPOLYGONALFACE((22,19,53));
#211=IFCINDEXEDPOLYGONALFACE((19,20,54));
#212=IFCINDEXEDPOLYGONALFACE((20,21,55));
#213=IFCINDEXEDPOLYGONALFACE((21,26,60));
#214=IFCINDEXEDPOLYGONALFACE((23,22,56));
#215=IFCINDEXEDPOLYGONALFACE((24,23,57));
#216=IFCINDEXEDPOLYGONALFACE((25,24,58));
#217=IFCINDEXEDPOLYGONALFACE((30,25,59));
#218=IFCINDEXEDPOLYGONALFACE((26,27,61));
#219=IFCINDEXEDPOLYGONALFACE((27,28,62));
#220=IFCINDEXEDPOLYGONALFACE((28,29,63));
#221=IFCINDEXEDPOLYGONALFACE((31,30,64));
#222=IFCINDEXEDPOLYGONALFACE((32,31,65));
#223=IFCINDEXEDPOLYGONALFACE((33,32,66));
#224=IFCINDEXEDPOLYGONALFACE((34,33,67));
#225=IFCINDEXEDPOLYGONALFACE((29,34,68));
#226=IFCINDEXEDPOLYGONALFACE((37,36,2));
#227=IFCINDEXEDPOLYGONALFACE((38,37,3));
#228=IFCINDEXEDPOLYGONALFACE((39,38,4));
#229=IFCINDEXEDPOLYGONALFACE((40,39,5));
#230=IFCINDEXEDPOLYGONALFACE((45,40,6));
#231=IFCINDEXEDPOLYGONALFACE((36,41,7));
#232=IFCINDEXEDPOLYGONALFACE((8,41,42));
#233=IFCINDEXEDPOLYGONALFACE((9,42,43));
#234=IFCINDEXEDPOLYGONALFACE((10,43,44));
#235=IFCINDEXEDPOLYGONALFACE((46,45,11));
#236=IFCINDEXEDPOLYGONALFACE((47,46,12));
#237=IFCINDEXEDPOLYGONALFACE((48,47,13));
#238=IFCINDEXEDPOLYGONALFACE((15,44,49));
#239=IFCINDEXEDPOLYGONALFACE((16,49,50));
#240=IFCINDEXEDPOLYGONALFACE((17,50,51));
#241=IFCINDEXEDPOLYGONALFACE((14,51,48));
#242=IFCINDEXEDPOLYGONALFACE((22,53,56));
#243=IFCINDEXEDPOLYGONALFACE((19,54,53));
#244=IFCINDEXEDPOLYGONALFACE((20,55,54));
#245=IFCINDEXEDPOLYGONALFACE((21,60,55));
#246=IFCINDEXEDPOLYGONALFACE((23,56,57));
#247=IFCINDEXEDPOLYGONALFACE((24,57,58));
#248=IFCINDEXEDPOLYGONALFACE((58,59,25));
#249=IFCINDEXEDPOLYGONALFACE((61,60,26));
#250=IFCINDEXEDPOLYGONALFACE((27,62,61));
#251=IFCINDEXEDPOLYGONALFACE((28,63,62));
#252=IFCINDEXEDPOLYGONALFACE((29,68,63));
#253=IFCINDEXEDPOLYGONALFACE((30,59,64));
#254=IFCINDEXEDPOLYGONALFACE((31,64,65));
#255=IFCINDEXEDPOLYGONALFACE((32,65,66));
#256=IFCINDEXEDPOLYGONALFACE((34,67,68));
#257=IFCINDEXEDPOLYGONALFACE((33,66,67));
#258=IFCINDEXEDPOLYGONALFACE((103,74,69));
#259=IFCINDEXEDPOLYGONALFACE((104,69,70));
#260=IFCINDEXEDPOLYGONALFACE((105,70,71));
#261=IFCINDEXEDPOLYGONALFACE((106,71,72));
#262=IFCINDEXEDPOLYGONALFACE((107,72,73));
#263=IFCINDEXEDPOLYGONALFACE((108,75,74));
#264=IFCINDEXEDPOLYGONALFACE((109,76,75));
#265=IFCINDEXEDPOLYGONALFACE((110,77,76));
#266=IFCINDEXEDPOLYGONALFACE((112,73,78));
#267=IFCINDEXEDPOLYGONALFACE((78,79,113));
#268=IFCINDEXEDPOLYGONALFACE((79,80,114));
#269=IFCINDEXEDPOLYGONALFACE((80,81,115));
#270=IFCINDEXEDPOLYGONALFACE((82,77,111));
#271=IFCINDEXEDPOLYGONALFACE((83,82,116));
#272=IFCINDEXEDPOLYGONALFACE((84,83,117));
#273=IFCINDEXEDPOLYGONALFACE((81,84,118));
#274=IFCINDEXEDPOLYGONALFACE((89,86,120));
#275=IFCINDEXEDPOLYGONALFACE((86,87,121));
#276=IFCINDEXEDPOLYGONALFACE((87,88,122));
#277=IFCINDEXEDPOLYGONALFACE((88,93,127));
#278=IFCINDEXEDPOLYGONALFACE((90,89,123));
#279=IFCINDEXEDPOLYGONALFACE((91,90,124));
#280=IFCINDEXEDPOLYGONALFACE((92,91,125));
#281=IFCINDEXEDPOLYGONALFACE((97,92,126));
#282=IFCINDEXEDPOLYGONALFACE((93,94,128));
#283=IFCINDEXEDPOLYGONALFACE((94,95,129));
#284=IFCINDEXEDPOLYGONALFACE((95,96,130));
#285=IFCINDEXEDPOLYGONALFACE((98,97,131));
#286=IFCINDEXEDPOLYGONALFACE((99,98,132));
#287=IFCINDEXEDPOLYGONALFACE((100,99,133));
#288=IFCINDEXEDPOLYGONALFACE((101,100,134));
#289=IFCINDEXEDPOLYGONALFACE((96,101,135));
#290=IFCINDEXEDPOLYGONALFACE((105,104,70));
#291=IFCINDEXEDPOLYGONALFACE((104,103,69));
#292=IFCINDEXEDPOLYGONALFACE((106,105,71));
#293=IFCINDEXEDPOLYGONALFACE((107,106,72));
#294=IFCINDEXEDPOLYGONALFACE((112,107,73));
#295=IFCINDEXEDPOLYGONALFACE((103,108,74));
#296=IFCINDEXEDPOLYGONALFACE((108,109,75));
#297=IFCINDEXEDPOLYGONALFACE((109,110,76));
#298=IFCINDEXEDPOLYGONALFACE((110,111,77));
#299=IFCINDEXEDPOLYGONALFACE((113,112,78));
#300=IFCINDEXEDPOLYGONALFACE((79,114,113));
#301=IFCINDEXEDPOLYGONALFACE((80,115,114));
#302=IFCINDEXEDPOLYGONALFACE((82,111,116));
#303=IFCINDEXEDPOLYGONALFACE((83,116,117));
#304=IFCINDEXEDPOLYGONALFACE((84,117,118));
#305=IFCINDEXEDPOLYGONALFACE((81,118,115));
#306=IFCINDEXEDPOLYGONALFACE((89,120,123));
#307=IFCINDEXEDPOLYGONALFACE((86,121,120));
#308=IFCINDEXEDPOLYGONALFACE((87,122,121));
#309=IFCINDEXEDPOLYGONALFACE((88,127,122));
#310=IFCINDEXEDPOLYGONALFACE((90,123,124));
#311=IFCINDEXEDPOLYGONALFACE((91,124,125));
#312=IFCINDEXEDPOLYGONALFACE((92,125,126));
#313=IFCINDEXEDPOLYGONALFACE((93,128,127));
#314=IFCINDEXEDPOLYGONALFACE((94,129,128));
#315=IFCINDEXEDPOLYGONALFACE((95,130,129));
#316=IFCINDEXEDPOLYGONALFACE((96,135,130));
#317=IFCINDEXEDPOLYGONALFACE((97,126,131));
#318=IFCINDEXEDPOLYGONALFACE((98,131,132));
#319=IFCINDEXEDPOLYGONALFACE((99,132,133));
#320=IFCINDEXEDPOLYGONALFACE((100,133,134));
#321=IFCINDEXEDPOLYGONALFACE((101,134,135));
#322=IFCCARTESIANPOINTLIST3D(((242.5,125.,30.),(108.927669529663,67.6776695296635,30.),(100.817085809127,73.0969883127823,30.),(91.25,75.,30.),(81.6829141908729,73.0969883127823,30.),(73.5723304703365,67.6776695296635,30.),(114.346988312782,59.5670858091271,30.),(116.25,50.,30.),(114.346988312782,40.4329141908729,30.),(108.927669529663,32.3223304703365,30.),(68.1530116872177,59.5670858091271,30.),(66.25,50.,30.),(68.1530116872177,40.4329141908729,30.),(73.5723304703365,32.3223304703365,30.),(100.817085809127,26.9030116872177,30.),(91.25,25.,30.),(81.6829141908729,26.9030116872177,30.),(242.5,-125.,30.),(100.817085809127,-26.9030116872177,30.),(91.25,-25.,30.),(81.6829141908729,-26.9030116872177,30.),(108.927669529663,-32.3223304703365,30.),(114.346988312782,-40.4329141908729,30.),(116.25,-50.,30.),(114.346988312782,-59.5670858091271,30.),(73.5723304703365,-32.3223304703365,30.),(68.1530116872177,-40.4329141908729,30.),(66.25,-50.,30.),(68.1530116872177,-59.5670858091271,30.),(108.927669529663,-67.6776695296635,30.),(100.817085809127,-73.0969883127823,30.),(91.25,-75.,30.),(81.6829141908729,-73.0969883127823,30.),(73.5723304703365,-67.6776695296635,30.),(242.5,125.,0.),(108.927669529663,67.6776695296635,0.),(100.817085809127,73.0969883127823,0.),(91.25,75.,0.),(81.6829141908729,73.0969883127823,0.),(73.5723304703365,67.6776695296635,0.),(114.346988312782,59.5670858091271,0.),(116.25,50.,0.),(114.346988312782,40.4329141908729,0.),(108.927669529663,32.3223304703365,0.),(68.1530116872177,59.5670858091271,0.),(66.25,50.,0.),(68.1530116872177,40.4329141908729,0.),(73.5723304703365,32.3223304703365,0.),(100.817085809127,26.9030116872177,0.),(91.25,25.,0.),(81.6829141908729,26.9030116872177,0.),(242.5,-125.,0.),(100.817085809127,-26.9030116872177,0.),(91.25,-25.,0.),(81.6829141908729,-26.9030116872177,0.),(108.927669529663,-32.3223304703365,0.),(114.346988312782,-40.4329141908729,0.),(116.25,-50.,0.),(114.346988312782,-59.5670858091271,0.),(73.5723304703365,-32.3223304703365,0.),(68.1530116872177,-40.4329141908729,0.),(66.25,-50.,0.),(68.1530116872177,-59.5670858091271,0.),(108.927669529663,-67.6776695296635,0.),(100.817085809127,-73.0969883127823,0.),(91.25,-75.,0.),(81.6829141908729,-73.0969883127823,0.),(73.5723304703365,-67.6776695296635,0.),(-73.5723304703365,67.6776695296635,30.),(-81.6829141908729,73.0969883127823,30.),(-91.25,75.,30.),(-100.817085809127,73.0969883127823,30.),(-108.927669529663,67.6776695296635,30.),(-68.1530116872177,59.5670858091271,30.),(-66.25,50.,30.),(-68.1530116872177,40.4329141908729,30.),(-73.5723304703365,32.3223304703365,30.),(-114.346988312782,59.5670858091271,30.),(-116.25,50.,30.),(-114.346988312782,40.4329141908729,30.),(-108.927669529663,32.3223304703365,30.),(-81.6829141908729,26.9030116872177,30.),(-91.25,25.,30.),(-100.817085809127,26.9030116872177,30.),(-242.5,125.,30.),(-81.6829141908729,-26.9030116872177,30.),(-91.25,-25.,30.),(-100.817085809127,-26.9030116872177,30.),(-73.5723304703365,-32.3223304703365,30.),(-68.1530116872177,-40.4329141908729,30.),(-66.25,-50.,30.),(-68.1530116872177,-59.5670858091271,30.),(-108.927669529663,-32.3223304703365,30.),(-114.346988312782,-40.4329141908729,30.),(-116.25,-50.,30.),(-114.346988312782,-59.5670858091271,30.),(-73.5723304703365,-67.6776695296635,30.),(-81.6829141908729,-73.0969883127823,30.),(-91.25,-75.,30.),(-100.817085809127,-73.0969883127823,30.),(-108.927669529663,-67.6776695296635,30.),(-242.5,-125.,30.),(-73.5723304703365,67.6776695296635,0.),(-81.6829141908729,73.0969883127823,0.),(-91.25,75.,0.),(-100.817085809127,73.0969883127823,0.),(-108.927669529663,67.6776695296635,0.),(-68.1530116872177,59.5670858091271,0.),(-66.25,50.,0.),(-68.1530116872177,40.4329141908729,0.),(-73.5723304703365,32.3223304703365,0.),(-114.346988312782,59.5670858091271,0.),(-116.25,50.,0.),(-114.346988312782,40.4329141908729,0.),(-108.927669529663,32.3223304703365,0.),(-81.6829141908729,26.9030116872177,0.),(-91.25,25.,0.),(-100.817085809127,26.9030116872177,0.),(-242.5,125.,0.),(-81.6829141908729,-26.9030116872177,0.),(-91.25,-25.,0.),(-100.817085809127,-26.9030116872177,0.),(-73.5723304703365,-32.3223304703365,0.),(-68.1530116872177,-40.4329141908729,0.),(-66.25,-50.,0.),(-68.1530116872177,-59.5670858091271,0.),(-108.927669529663,-32.3223304703365,0.),(-114.346988312782,-40.4329141908729,0.),(-116.25,-50.,0.),(-114.346988312782,-59.5670858091271,0.),(-73.5723304703365,-67.6776695296635,0.),(-81.6829141908729,-73.0969883127823,0.),(-91.25,-75.,0.),(-100.817085809127,-73.0969883127823,0.),(-108.927669529663,-67.6776695296635,0.),(-242.5,-125.,0.)));
#323=IFCPOLYGONALFACESET(#322,.T.,(#38,#39,#40,#41,#42,#43,#44,#45,#46,#47,#48,#49,#50,#51,#52,#53,#54,#55,#56,#57,#58,#59,#60,#61,#62,#63,#64,#65,#66,#67,#68,#69,#70,#71,#72,#73,#74,#75,#76,#77,#78,#79,#80,#81,#82,#83,#84,#85,#86,#87,#88,#89,#90,#91,#92,#93,#94,#95,#96,#97,#98,#99,#100,#101,#102,#103,#104,#105,#106,#107,#108,#109,#110,#111,#112,#113,#114,#115,#116,#117,#118,#119,#120,#121,#122,#123,#124,#125,#126,#127,#128,#129,#130,#131,#132,#133,#134,#135,#136,#137,#138,#139,#140,#141,#142,#143,#144,#145,#146,#147,#148,#149,#150,#151,#152,#153,#154,#155,#156,#157,#158,#159,#160,#161,#162,#163,#164,#165,#166,#167,#168,#169,#170,#171,#172,#173,#174,#175,#176,#177,#178,#179,#180,#181,#182,#183,#184,#185,#186,#187,#188,#189,#190,#191,#192,#193,#194,#195,#196,#197,#198,#199,#200,#201,#202,#203,#204,#205,#206,#207,#208,#209,#210,#211,#212,#213,#214,#215,#216,#217,#218,#219,#220,#221,#222,#223,#224,#225,#226,#227,#228,#229,#230,#231,#232,#233,#234,#235,#236,#237,#238,#239,#240,#241,#242,#243,#244,#245,#246,#247,#248,#249,#250,#251,#252,#253,#254,#255,#256,#257,#258,#259,#260,#261,#262,#263,#264,#265,#266,#267,#268,#269,#270,#271,#272,#273,#274,#275,#276,#277,#278,#279,#280,#281,#282,#283,#284,#285,#286,#287,#288,#289,#290,#291,#292,#293,#294,#295,#296,#297,#298,#299,#300,#301,#302,#303,#304,#305,#306,#307,#308,#309,#310,#311,#312,#313,#314,#315,#316,#317,#318,#319,#320,#321),$);
#324=IFCSHAPEREPRESENTATION(#12,'Body','Tessellation',(#323));
#325=IFCPRODUCTDEFINITIONSHAPE($,$,(#324));
#326=IFCBUILDINGELEMENTPROXY('37k_lq_qz7PfejtqPpJ_tD',$,'connector_0_cutter_0',$,$,$,#379,$,$);
#327=IFCRELCONTAINEDINSPATIALSTRUCTURE('1fd38vJa19VPURxi5DY9$J',$,$,$,(#326),#22);
#328=IFCINDEXEDPOLYGONALFACE((1,2,4,3));
#329=IFCINDEXEDPOLYGONALFACE((3,4,6,5));
#330=IFCINDEXEDPOLYGONALFACE((5,6,8,7));
#331=IFCINDEXEDPOLYGONALFACE((7,8,10,9));
#332=IFCINDEXEDPOLYGONALFACE((9,10,12,11));
#333=IFCINDEXEDPOLYGONALFACE((11,12,14,13));
#334=IFCINDEXEDPOLYGONALFACE((13,14,16,15));
#335=IFCINDEXEDPOLYGONALFACE((15,16,18,17));
#336=IFCINDEXEDPOLYGONALFACE((17,18,20,19));
#337=IFCINDEXEDPOLYGONALFACE((19,20,22,21));
#338=IFCINDEXEDPOLYGONALFACE((21,22,24,23));
#339=IFCINDEXEDPOLYGONALFACE((23,24,26,25));
#340=IFCINDEXEDPOLYGONALFACE((25,26,28,27));
#341=IFCINDEXEDPOLYGONALFACE((27,28,30,29));
#342=IFCINDEXEDPOLYGONALFACE((29,30,32,31));
#343=IFCINDEXEDPOLYGONALFACE((31,32,2,1));
#344=IFCINDEXEDPOLYGONALFACE((1,3,33));
#345=IFCINDEXEDPOLYGONALFACE((34,4,2));
#346=IFCINDEXEDPOLYGONALFACE((3,5,33));
#347=IFCINDEXEDPOLYGONALFACE((34,6,4));
#348=IFCINDEXEDPOLYGONALFACE((5,7,33));
#349=IFCINDEXEDPOLYGONALFACE((34,8,6));
#350=IFCINDEXEDPOLYGONALFACE((7,9,33));
#351=IFCINDEXEDPOLYGONALFACE((34,10,8));
#352=IFCINDEXEDPOLYGONALFACE((9,11,33));
#353=IFCINDEXEDPOLYGONALFACE((34,12,10));
#354=IFCINDEXEDPOLYGONALFACE((11,13,33));
#355=IFCINDEXEDPOLYGONALFACE((34,14,12));
#356=IFCINDEXEDPOLYGONALFACE((13,15,33));
#357=IFCINDEXEDPOLYGONALFACE((34,16,14));
#358=IFCINDEXEDPOLYGONALFACE((15,17,33));
#359=IFCINDEXEDPOLYGONALFACE((34,18,16));
#360=IFCINDEXEDPOLYGONALFACE((17,19,33));
#361=IFCINDEXEDPOLYGONALFACE((34,20,18));
#362=IFCINDEXEDPOLYGONALFACE((19,21,33));
#363=IFCINDEXEDPOLYGONALFACE((34,22,20));
#364=IFCINDEXEDPOLYGONALFACE((21,23,33));
#365=IFCINDEXEDPOLYGONALFACE((34,24,22));
#366=IFCINDEXEDPOLYGONALFACE((23,25,33));
#367=IFCINDEXEDPOLYGONALFACE((34,26,24));
#368=IFCINDEXEDPOLYGONALFACE((25,27,33));
#369=IFCINDEXEDPOLYGONALFACE((34,28,26));
#370=IFCINDEXEDPOLYGONALFACE((27,29,33));
#371=IFCINDEXEDPOLYGONALFACE((34,30,28));
#372=IFCINDEXEDPOLYGONALFACE((29,31,33));
#373=IFCINDEXEDPOLYGONALFACE((34,32,30));
#374=IFCINDEXEDPOLYGONALFACE((31,1,33));
#375=IFCINDEXEDPOLYGONALFACE((34,2,32));
#376=IFCCARTESIANPOINTLIST3D(((91.25,-75.,-60.0000000000005),(91.25,-75.,90.0000000000005),(81.6829141908729,-73.0969883127823,-60.0000000000005),(81.6829141908729,-73.0969883127823,90.0000000000005),(73.5723304703365,-67.6776695296635,-60.0000000000005),(73.5723304703365,-67.6776695296635,90.0000000000005),(68.1530116872177,-59.5670858091271,-60.0000000000005),(68.1530116872177,-59.5670858091271,90.0000000000005),(66.25,-50.,-60.0000000000005),(66.25,-50.,90.0000000000005),(68.1530116872177,-40.4329141908729,-60.0000000000005),(68.1530116872177,-40.4329141908729,90.0000000000005),(73.5723304703365,-32.3223304703365,-60.0000000000005),(73.5723304703365,-32.3223304703365,90.0000000000005),(81.6829141908729,-26.9030116872177,-60.0000000000005),(81.6829141908729,-26.9030116872177,90.0000000000005),(91.25,-25.,-60.0000000000005),(91.25,-25.,90.0000000000005),(100.817085809127,-26.9030116872177,-60.0000000000005),(100.817085809127,-26.9030116872177,90.0000000000005),(108.927669529663,-32.3223304703365,-60.0000000000005),(108.927669529663,-32.3223304703365,90.0000000000005),(114.346988312782,-40.4329141908729,-60.0000000000005),(114.346988312782,-40.4329141908729,90.0000000000005),(116.25,-50.,-60.0000000000005),(116.25,-50.,90.0000000000005),(114.346988312782,-59.5670858091271,-60.0000000000005),(114.346988312782,-59.5670858091271,90.0000000000005),(108.927669529663,-67.6776695296635,-60.0000000000005),(108.927669529663,-67.6776695296635,90.0000000000005),(100.817085809127,-73.0969883127823,-60.0000000000005),(100.817085809127,-73.0969883127823,90.0000000000005),(91.25,-50.,-60.0000000000005),(91.25,-50.,90.0000000000005)));
#377=IFCPOLYGONALFACESET(#376,.T.,(#328,#329,#330,#331,#332,#333,#334,#335,#336,#337,#338,#339,#340,#341,#342,#343,#344,#345,#346,#347,#348,#349,#350,#351,#352,#353,#354,#355,#356,#357,#358,#359,#360,#361,#362,#363,#364,#365,#366,#367,#368,#369,#370,#371,#372,#373,#374,#375),$);
#378=IFCSHAPEREPRESENTATION(#12,'Body','Tessellation',(#377));
#379=IFCPRODUCTDEFINITIONSHAPE($,$,(#378));
#380=IFCBUILDINGELEMENTPROXY('2LJZgIeQ5FdhDptuJubDJ3',$,'connector_0_cutter_1',$,$,$,#433,$,$);
#381=IFCRELCONTAINEDINSPATIALSTRUCTURE('0Vtq6ZKJf3BOwQrbmMZs25',$,$,$,(#380),#22);
#382=IFCINDEXEDPOLYGONALFACE((1,2,4,3));
#383=IFCINDEXEDPOLYGONALFACE((3,4,6,5));
#384=IFCINDEXEDPOLYGONALFACE((5,6,8,7));
#385=IFCINDEXEDPOLYGONALFACE((7,8,10,9));
#386=IFCINDEXEDPOLYGONALFACE((9,10,12,11));
#387=IFCINDEXEDPOLYGONALFACE((11,12,14,13));
#388=IFCINDEXEDPOLYGONALFACE((13,14,16,15));
#389=IFCINDEXEDPOLYGONALFACE((15,16,18,17));
#390=IFCINDEXEDPOLYGONALFACE((17,18,20,19));
#391=IFCINDEXEDPOLYGONALFACE((19,20,22,21));
#392=IFCINDEXEDPOLYGONALFACE((21,22,24,23));
#393=IFCINDEXEDPOLYGONALFACE((23,24,26,25));
#394=IFCINDEXEDPOLYGONALFACE((25,26,28,27));
#395=IFCINDEXEDPOLYGONALFACE((27,28,30,29));
#396=IFCINDEXEDPOLYGONALFACE((29,30,32,31));
#397=IFCINDEXEDPOLYGONALFACE((31,32,2,1));
#398=IFCINDEXEDPOLYGONALFACE((1,3,33));
#399=IFCINDEXEDPOLYGONALFACE((34,4,2));
#400=IFCINDEXEDPOLYGONALFACE((3,5,33));
#401=IFCINDEXEDPOLYGONALFACE((34,6,4));
#402=IFCINDEXEDPOLYGONALFACE((5,7,33));
#403=IFCINDEXEDPOLYGONALFACE((34,8,6));
#404=IFCINDEXEDPOLYGONALFACE((7,9,33));
#405=IFCINDEXEDPOLYGONALFACE((34,10,8));
#406=IFCINDEXEDPOLYGONALFACE((9,11,33));
#407=IFCINDEXEDPOLYGONALFACE((34,12,10));
#408=IFCINDEXEDPOLYGONALFACE((11,13,33));
#409=IFCINDEXEDPOLYGONALFACE((34,14,12));
#410=IFCINDEXEDPOLYGONALFACE((13,15,33));
#411=IFCINDEXEDPOLYGONALFACE((34,16,14));
#412=IFCINDEXEDPOLYGONALFACE((15,17,33));
#413=IFCINDEXEDPOLYGONALFACE((34,18,16));
#414=IFCINDEXEDPOLYGONALFACE((17,19,33));
#415=IFCINDEXEDPOLYGONALFACE((34,20,18));
#416=IFCINDEXEDPOLYGONALFACE((19,21,33));
#417=IFCINDEXEDPOLYGONALFACE((34,22,20));
#418=IFCINDEXEDPOLYGONALFACE((21,23,33));
#419=IFCINDEXEDPOLYGONALFACE((34,24,22));
#420=IFCINDEXEDPOLYGONALFACE((23,25,33));
#421=IFCINDEXEDPOLYGONALFACE((34,26,24));
#422=IFCINDEXEDPOLYGONALFACE((25,27,33));
#423=IFCINDEXEDPOLYGONALFACE((34,28,26));
#424=IFCINDEXEDPOLYGONALFACE((27,29,33));
#425=IFCINDEXEDPOLYGONALFACE((34,30,28));
#426=IFCINDEXEDPOLYGONALFACE((29,31,33));
#427=IFCINDEXEDPOLYGONALFACE((34,32,30));
#428=IFCINDEXEDPOLYGONALFACE((31,1,33));
#429=IFCINDEXEDPOLYGONALFACE((34,2,32));
#430=IFCCARTESIANPOINTLIST3D(((91.25,25.,-60.0000000000005),(91.25,25.,90.0000000000005),(81.6829141908729,26.9030116872177,-60.0000000000005),(81.6829141908729,26.9030116872177,90.0000000000005),(73.5723304703365,32.3223304703365,-60.0000000000005),(73.5723304703365,32.3223304703365,90.0000000000005),(68.1530116872177,40.4329141908729,-60.0000000000005),(68.1530116872177,40.4329141908729,90.0000000000005),(66.25,50.,-60.0000000000005),(66.25,50.,90.0000000000005),(68.1530116872177,59.5670858091271,-60.0000000000005),(68.1530116872177,59.5670858091271,90.0000000000005),(73.5723304703365,67.6776695296635,-60.0000000000005),(73.5723304703365,67.6776695296635,90.0000000000005),(81.6829141908729,73.0969883127823,-60.0000000000005),(81.6829141908729,73.0969883127823,90.0000000000005),(91.25,75.,-60.0000000000005),(91.25,75.,90.0000000000005),(100.817085809127,73.0969883127823,-60.0000000000005),(100.817085809127,73.0969883127823,90.0000000000005),(108.927669529663,67.6776695296635,-60.0000000000005),(108.927669529663,67.6776695296635,90.0000000000005),(114.346988312782,59.5670858091271,-60.0000000000005),(114.346988312782,59.5670858091271,90.0000000000005),(116.25,50.,-60.0000000000005),(116.25,50.,90.0000000000005),(114.346988312782,40.4329141908729,-60.0000000000005),(114.346988312782,40.4329141908729,90.0000000000005),(108.927669529663,32.3223304703365,-60.0000000000005),(108.927669529663,32.3223304703365,90.0000000000005),(100.817085809127,26.9030116872177,-60.0000000000005),(100.817085809127,26.9030116872177,90.0000000000005),(91.25,50.,-60.0000000000005),(91.25,50.,90.0000000000005)));
#431=IFCPOLYGONALFACESET(#430,.T.,(#382,#383,#384,#385,#386,#387,#388,#389,#390,#391,#392,#393,#394,#395,#396,#397,#398,#399,#400,#401,#402,#403,#404,#405,#406,#407,#408,#409,#410,#411,#412,#413,#414,#415,#416,#417,#418,#419,#420,#421,#422,#423,#424,#425,#426,#427,#428,#429),$);
#432=IFCSHAPEREPRESENTATION(#12,'Body','Tessellation',(#431));
#433=IFCPRODUCTDEFINITIONSHAPE($,$,(#432));
#434=IFCBUILDINGELEMENTPROXY('2yMqyJqWH7gBUFlMGF96m7',$,'connector_0_cutter_2',$,$,$,#487,$,$);
#435=IFCRELCONTAINEDINSPATIALSTRUCTURE('02Gyfr64zF7A303OxW1tDg',$,$,$,(#434),#22);
#436=IFCINDEXEDPOLYGONALFACE((1,2,4,3));
#437=IFCINDEXEDPOLYGONALFACE((3,4,6,5));
#438=IFCINDEXEDPOLYGONALFACE((5,6,8,7));
#439=IFCINDEXEDPOLYGONALFACE((7,8,10,9));
#440=IFCINDEXEDPOLYGONALFACE((9,10,12,11));
#441=IFCINDEXEDPOLYGONALFACE((11,12,14,13));
#442=IFCINDEXEDPOLYGONALFACE((13,14,16,15));
#443=IFCINDEXEDPOLYGONALFACE((15,16,18,17));
#444=IFCINDEXEDPOLYGONALFACE((17,18,20,19));
#445=IFCINDEXEDPOLYGONALFACE((19,20,22,21));
#446=IFCINDEXEDPOLYGONALFACE((21,22,24,23));
#447=IFCINDEXEDPOLYGONALFACE((23,24,26,25));
#448=IFCINDEXEDPOLYGONALFACE((25,26,28,27));
#449=IFCINDEXEDPOLYGONALFACE((27,28,30,29));
#450=IFCINDEXEDPOLYGONALFACE((29,30,32,31));
#451=IFCINDEXEDPOLYGONALFACE((31,32,2,1));
#452=IFCINDEXEDPOLYGONALFACE((1,3,33));
#453=IFCINDEXEDPOLYGONALFACE((34,4,2));
#454=IFCINDEXEDPOLYGONALFACE((3,5,33));
#455=IFCINDEXEDPOLYGONALFACE((34,6,4));
#456=IFCINDEXEDPOLYGONALFACE((5,7,33));
#457=IFCINDEXEDPOLYGONALFACE((34,8,6));
#458=IFCINDEXEDPOLYGONALFACE((7,9,33));
#459=IFCINDEXEDPOLYGONALFACE((34,10,8));
#460=IFCINDEXEDPOLYGONALFACE((9,11,33));
#461=IFCINDEXEDPOLYGONALFACE((34,12,10));
#462=IFCINDEXEDPOLYGONALFACE((11,13,33));
#463=IFCINDEXEDPOLYGONALFACE((34,14,12));
#464=IFCINDEXEDPOLYGONALFACE((13,15,33));
#465=IFCINDEXEDPOLYGONALFACE((34,16,14));
#466=IFCINDEXEDPOLYGONALFACE((15,17,33));
#467=IFCINDEXEDPOLYGONALFACE((34,18,16));
#468=IFCINDEXEDPOLYGONALFACE((17,19,33));
#469=IFCINDEXEDPOLYGONALFACE((34,20,18));
#470=IFCINDEXEDPOLYGONALFACE((19,21,33));
#471=IFCINDEXEDPOLYGONALFACE((34,22,20));
#472=IFCINDEXEDPOLYGONALFACE((21,23,33));
#473=IFCINDEXEDPOLYGONALFACE((34,24,22));
#474=IFCINDEXEDPOLYGONALFACE((23,25,33));
#475=IFCINDEXEDPOLYGONALFACE((34,26,24));
#476=IFCINDEXEDPOLYGONALFACE((25,27,33));
#477=IFCINDEXEDPOLYGONALFACE((34,28,26));
#478=IFCINDEXEDPOLYGONALFACE((27,29,33));
#479=IFCINDEXEDPOLYGONALFACE((34,30,28));
#480=IFCINDEXEDPOLYGONALFACE((29,31,33));
#481=IFCINDEXEDPOLYGONALFACE((34,32,30));
#482=IFCINDEXEDPOLYGONALFACE((31,1,33));
#483=IFCINDEXEDPOLYGONALFACE((34,2,32));
#484=IFCCARTESIANPOINTLIST3D(((-91.25,-75.,-60.0000000000005),(-91.25,-75.,90.0000000000005),(-100.817085809127,-73.0969883127823,-60.0000000000005),(-100.817085809127,-73.0969883127823,90.0000000000005),(-108.927669529663,-67.6776695296635,-60.0000000000005),(-108.927669529663,-67.6776695296635,90.0000000000005),(-114.346988312782,-59.5670858091271,-60.0000000000005),(-114.346988312782,-59.5670858091271,90.0000000000005),(-116.25,-50.,-60.0000000000005),(-116.25,-50.,90.0000000000005),(-114.346988312782,-40.4329141908729,-60.0000000000005),(-114.346988312782,-40.4329141908729,90.0000000000005),(-108.927669529663,-32.3223304703365,-60.0000000000005),(-108.927669529663,-32.3223304703365,90.0000000000005),(-100.817085809127,-26.9030116872177,-60.0000000000005),(-100.817085809127,-26.9030116872177,90.0000000000005),(-91.25,-25.,-60.0000000000005),(-91.25,-25.,90.0000000000005),(-81.6829141908729,-26.9030116872177,-60.0000000000005),(-81.6829141908729,-26.9030116872177,90.0000000000005),(-73.5723304703365,-32.3223304703365,-60.0000000000005),(-73.5723304703365,-32.3223304703365,90.0000000000005),(-68.1530116872177,-40.4329141908729,-60.0000000000005),(-68.1530116872177,-40.4329141908729,90.0000000000005),(-66.25,-50.,-60.0000000000005),(-66.25,-50.,90.0000000000005),(-68.1530116872177,-59.5670858091271,-60.0000000000005),(-68.1530116872177,-59.5670858091271,90.0000000000005),(-73.5723304703365,-67.6776695296635,-60.0000000000005),(-73.5723304703365,-67.6776695296635,90.0000000000005),(-81.6829141908729,-73.0969883127823,-60.0000000000005),(-81.6829141908729,-73.0969883127823,90.0000000000005),(-91.25,-50.,-60.0000000000005),(-91.25,-50.,90.0000000000005)));
#485=IFCPOLYGONALFACESET(#484,.T.,(#436,#437,#438,#439,#440,#441,#442,#443,#444,#445,#446,#447,#448,#449,#450,#451,#452,#453,#454,#455,#456,#457,#458,#459,#460,#461,#462,#463,#464,#465,#466,#467,#468,#469,#470,#471,#472,#473,#474,#475,#476,#477,#478,#479,#480,#481,#482,#483),$);
#486=IFCSHAPEREPRESENTATION(#12,'Body','Tessellation',(#485));
#487=IFCPRODUCTDEFINITIONSHAPE($,$,(#486));
#488=IFCBUILDINGELEMENTPROXY('2JrmtzS6PAGuLHhfWMTYsZ',$,'connector_0_cutter_3',$,$,$,#541,$,$);
#489=IFCRELCONTAINEDINSPATIALSTRUCTURE('2yImTUAujEzxbUomkr5tXK',$,$,$,(#488),#22);
#490=IFCINDEXEDPOLYGONALFACE((1,2,4,3));
#491=IFCINDEXEDPOLYGONALFACE((3,4,6,5));
#492=IFCINDEXEDPOLYGONALFACE((5,6,8,7));
#493=IFCINDEXEDPOLYGONALFACE((7,8,10,9));
#494=IFCINDEXEDPOLYGONALFACE((9,10,12,11));
#495=IFCINDEXEDPOLYGONALFACE((11,12,14,13));
#496=IFCINDEXEDPOLYGONALFACE((13,14,16,15));
#497=IFCINDEXEDPOLYGONALFACE((15,16,18,17));
#498=IFCINDEXEDPOLYGONALFACE((17,18,20,19));
#499=IFCINDEXEDPOLYGONALFACE((19,20,22,21));
#500=IFCINDEXEDPOLYGONALFACE((21,22,24,23));
#501=IFCINDEXEDPOLYGONALFACE((23,24,26,25));
#502=IFCINDEXEDPOLYGONALFACE((25,26,28,27));
#503=IFCINDEXEDPOLYGONALFACE((27,28,30,29));
#504=IFCINDEXEDPOLYGONALFACE((29,30,32,31));
#505=IFCINDEXEDPOLYGONALFACE((31,32,2,1));
#506=IFCINDEXEDPOLYGONALFACE((1,3,33));
#507=IFCINDEXEDPOLYGONALFACE((34,4,2));
#508=IFCINDEXEDPOLYGONALFACE((3,5,33));
#509=IFCINDEXEDPOLYGONALFACE((34,6,4));
#510=IFCINDEXEDPOLYGONALFACE((5,7,33));
#511=IFCINDEXEDPOLYGONALFACE((34,8,6));
#512=IFCINDEXEDPOLYGONALFACE((7,9,33));
#513=IFCINDEXEDPOLYGONALFACE((34,10,8));
#514=IFCINDEXEDPOLYGONALFACE((9,11,33));
#515=IFCINDEXEDPOLYGONALFACE((34,12,10));
#516=IFCINDEXEDPOLYGONALFACE((11,13,33));
#517=IFCINDEXEDPOLYGONALFACE((34,14,12));
#518=IFCINDEXEDPOLYGONALFACE((13,15,33));
#519=IFCINDEXEDPOLYGONALFACE((34,16,14));
#520=IFCINDEXEDPOLYGONALFACE((15,17,33));
#521=IFCINDEXEDPOLYGONALFACE((34,18,16));
#522=IFCINDEXEDPOLYGONALFACE((17,19,33));
#523=IFCINDEXEDPOLYGONALFACE((34,20,18));
#524=IFCINDEXEDPOLYGONALFACE((19,21,33));
#525=IFCINDEXEDPOLYGONALFACE((34,22,20));
#526=IFCINDEXEDPOLYGONALFACE((21,23,33));
#527=IFCINDEXEDPOLYGONALFACE((34,24,22));
#528=IFCINDEXEDPOLYGONALFACE((23,25,33));
#529=IFCINDEXEDPOLYGONALFACE((34,26,24));
#530=IFCINDEXEDPOLYGONALFACE((25,27,33));
#531=IFCINDEXEDPOLYGONALFACE((34,28,26));
#532=IFCINDEXEDPOLYGONALFACE((27,29,33));
#533=IFCINDEXEDPOLYGONALFACE((34,30,28));
#534=IFCINDEXEDPOLYGONALFACE((29,31,33));
#535=IFCINDEXEDPOLYGONALFACE((34,32,30));
#536=IFCINDEXEDPOLYGONALFACE((31,1,33));
#537=IFCINDEXEDPOLYGONALFACE((34,2,32));
#538=IFCCARTESIANPOINTLIST3D(((-91.25,25.,-60.0000000000005),(-91.25,25.,90.0000000000005),(-100.817085809127,26.9030116872177,-60.0000000000005),(-100.817085809127,26.9030116872177,90.0000000000005),(-108.927669529663,32.3223304703365,-60.0000000000005),(-108.927669529663,32.3223304703365,90.0000000000005),(-114.346988312782,40.4329141908729,-60.0000000000005),(-114.346988312782,40.4329141908729,90.0000000000005),(-116.25,50.,-60.0000000000005),(-116.25,50.,90.0000000000005),(-114.346988312782,59.5670858091271,-60.0000000000005),(-114.346988312782,59.5670858091271,90.0000000000005),(-108.927669529663,67.6776695296635,-60.0000000000005),(-108.927669529663,67.6776695296635,90.0000000000005),(-100.817085809127,73.0969883127823,-60.0000000000005),(-100.817085809127,73.0969883127823,90.0000000000005),(-91.25,75.,-60.0000000000005),(-91.25,75.,90.0000000000005),(-81.6829141908729,73.0969883127823,-60.0000000000005),(-81.6829141908729,73.0969883127823,90.0000000000005),(-73.5723304703365,67.6776695296635,-60.0000000000005),(-73.5723304703365,67.6776695296635,90.0000000000005),(-68.1530116872177,59.5670858091271,-60.0000000000005),(-68.1530116872177,59.5670858091271,90.0000000000005),(-66.25,50.,-60.0000000000005),(-66.25,50.,90.0000000000005),(-68.1530116872177,40.4329141908729,-60.0000000000005),(-68.1530116872177,40.4329141908729,90.0000000000005),(-73.5723304703365,32.3223304703365,-60.0000000000005),(-73.5723304703365,32.3223304703365,90.0000000000005),(-81.6829141908729,26.9030116872177,-60.0000000000005),(-81.6829141908729,26.9030116872177,90.0000000000005),(-91.25,50.,-60.0000000000005),(-91.25,50.,90.0000000000005)));
#539=IFCPOLYGONALFACESET(#538,.T.,(#490,#491,#492,#493,#494,#495,#496,#497,#498,#499,#500,#501,#502,#503,#504,#505,#506,#507,#508,#509,#510,#511,#512,#513,#514,#515,#516,#517,#518,#519,#520,#521,#522,#523,#524,#525,#526,#527,#528,#529,#530,#531,#532,#533,#534,#535,#536,#537),$);
#540=IFCSHAPEREPRESENTATION(#12,'Body','Tessellation',(#539));
#541=IFCPRODUCTDEFINITIONSHAPE($,$,(#540));
ENDSEC;
END-ISO-10303-21;
