# OBJ
# COMPAS
# version: 2.15.1
# precision: 3
# V F E: 280 482 758

o connector_0_uncut
v 242.500 125.000 30.000
v 242.500 125.000 0.000
v -242.500 125.000 0.000
v -242.500 125.000 30.000
v 242.500 -125.000 30.000
v -242.500 -125.000 30.000
v -242.500 -125.000 0.000
v 242.500 -125.000 0.000
f 1 2 3 4
f 1 4 6 5
f 4 3 7 6
f 3 2 8 7
f 2 1 5 8
f 5 6 7 8
o connector_0
v 242.500 125.000 30.000
v 108.928 67.678 30.000
v 100.817 73.097 30.000
v 91.250 75.000 30.000
v 81.683 73.097 30.000
v 73.572 67.678 30.000
v 114.347 59.567 30.000
v 116.250 50.000 30.000
v 114.347 40.433 30.000
v 108.928 32.322 30.000
v 68.153 59.567 30.000
v 66.250 50.000 30.000
v 68.153 40.433 30.000
v 73.572 32.322 30.000
v 100.817 26.903 30.000
v 91.250 25.000 30.000
v 81.683 26.903 30.000
v 242.500 -125.000 30.000
v 100.817 -26.903 30.000
v 91.250 -25.000 30.000
v 81.683 -26.903 30.000
v 108.928 -32.322 30.000
v 114.347 -40.433 30.000
v 116.250 -50.000 30.000
v 114.347 -59.567 30.000
v 73.572 -32.322 30.000
v 68.153 -40.433 30.000
v 66.250 -50.000 30.000
v 68.153 -59.567 30.000
v 108.928 -67.678 30.000
v 100.817 -73.097 30.000
v 91.250 -75.000 30.000
v 81.683 -73.097 30.000
v 73.572 -67.678 30.000
v 242.500 125.000 0.000
v 108.928 67.678 0.000
v 100.817 73.097 0.000
v 91.250 75.000 0.000
v 81.683 73.097 0.000
v 73.572 67.678 0.000
v 114.347 59.567 0.000
v 116.250 50.000 0.000
v 114.347 40.433 0.000
v 108.928 32.322 0.000
v 68.153 59.567 0.000
v 66.250 50.000 0.000
v 68.153 40.433 0.000
v 73.572 32.322 0.000
v 100.817 26.903 0.000
v 91.250 25.000 0.000
v 81.683 26.903 0.000
v 242.500 -125.000 0.000
v 100.817 -26.903 0.000
v 91.250 -25.000 0.000
v 81.683 -26.903 0.000
v 108.928 -32.322 0.000
v 114.347 -40.433 0.000
v 116.250 -50.000 0.000
v 114.347 -59.567 0.000
v 73.572 -32.322 0.000
v 68.153 -40.433 0.000
v 66.250 -50.000 0.000
v 68.153 -59.567 0.000
v 108.928 -67.678 0.000
v 100.817 -73.097 0.000
v 91.250 -75.000 0.000
v 81.683 -73.097 0.000
v 73.572 -67.678 0.000
v -73.572 67.678 30.000
v -81.683 73.097 30.000
v -91.250 75.000 30.000
v -100.817 73.097 30.000
v -108.928 67.678 30.000
v -68.153 59.567 30.000
v -66.250 50.000 30.000
v -68.153 40.433 30.000
v -73.572 32.322 30.000
v -114.347 59.567 30.000
v -116.250 50.000 30.000
v -114.347 40.433 30.000
v -108.928 32.322 30.000
v -81.683 26.903 30.000
v -91.250 25.000 30.000
v -100.817 26.903 30.000
v -242.500 125.000 30.000
v -81.683 -26.903 30.000
v -91.250 -25.000 30.000
v -100.817 -26.903 30.000
v -73.572 -32.322 30.000
v -68.153 -40.433 30.000
v -66.250 -50.000 30.000
v -68.153 -59.567 30.000
v -108.928 -32.322 30.000
v -114.347 -40.433 30.000
v -116.250 -50.000 30.000
v -114.347 -59.567 30.000
v -73.572 -67.678 30.000
v -81.683 -73.097 30.000
v -91.250 -75.000 30.000
v -100.817 -73.097 30.000
v -108.928 -67.678 30.000
v -242.500 -125.000 30.000
v -73.572 67.678 0.000
v -81.683 73.097 0.000
v -91.250 75.000 0.000
v -100.817 73.097 0.000
v -108.928 67.678 0.000
v -68.153 59.567 0.000
v -66.250 50.000 0.000
v -68.153 40.433 0.000
v -73.572 32.322 0.000
v -114.347 59.567 0.000
v -116.250 50.000 0.000
v -114.347 40.433 0.000
v -108.928 32.322 0.000
v -81.683 26.903 0.000
v -91.250 25.000 0.000
v -100.817 26.903 0.000
v -242.500 125.000 0.000
v -81.683 -26.903 0.000
v -91.250 -25.000 0.000
v -100.817 -26.903 0.000
v -73.572 -32.322 0.000
v -68.153 -40.433 0.000
v -66.250 -50.000 0.000
v -68.153 -59.567 0.000
v -108.928 -32.322 0.000
v -114.347 -40.433 0.000
v -116.250 -50.000 0.000
v -114.347 -59.567 0.000
v -73.572 -67.678 0.000
v -81.683 -73.097 0.000
v -91.250 -75.000 0.000
v -100.817 -73.097 0.000
v -108.928 -67.678 0.000
v -242.500 -125.000 0.000
f 9 10 15
f 9 15 16
f 9 12 11
f 9 11 10
f 9 16 26
f 9 26 43
f 9 79 12
f 12 78 13
f 13 77 14
f 23 30 18
f 24 27 23
f 25 28 24
f 14 82 19
f 19 94 20
f 20 97 21
f 21 98 22
f 22 99 25
f 26 16 17
f 26 17 18
f 26 18 30
f 26 30 31
f 26 31 32
f 26 32 33
f 26 33 38
f 26 38 39
f 26 39 40
f 23 27 30
f 24 28 27
f 25 29 28
f 25 99 29
f 29 99 34
f 34 99 35
f 35 99 36
f 36 100 37
f 26 40 107
f 37 105 42
f 42 106 41
f 41 107 40
f 43 49 44
f 43 50 49
f 43 51 50
f 43 52 51
f 43 45 46
f 43 44 45
f 43 64 52
f 43 65 64
f 43 66 65
f 9 43 127
f 43 46 113
f 47 113 46
f 48 112 47
f 53 111 48
f 52 61 57
f 57 62 58
f 58 63 59
f 54 116 53
f 56 117 55
f 55 117 54
f 59 117 56
f 59 63 117
f 26 60 43
f 43 60 66
f 60 67 66
f 60 72 67
f 60 73 72
f 60 74 73
f 26 144 60
f 52 64 61
f 57 61 62
f 58 62 63
f 68 117 63
f 69 118 68
f 70 119 69
f 71 124 70
f 76 134 71
f 60 141 74
f 74 140 75
f 75 139 76
f 9 93 79
f 12 79 78
f 13 78 77
f 14 77 82
f 19 82 83
f 19 83 84
f 19 84 85
f 19 85 90
f 19 90 94
f 91 94 90
f 87 102 88
f 92 95 91
f 89 96 92
f 88 101 89
f 9 127 93
f 93 80 79
f 93 81 80
f 93 86 81
f 93 87 86
f 93 110 87
f 20 94 97
f 98 21 97
f 22 98 99
f 36 99 100
f 37 100 105
f 91 95 94
f 92 96 95
f 89 101 96
f 88 102 101
f 87 103 102
f 42 105 106
f 41 106 107
f 26 107 110
f 26 110 144
f 110 103 87
f 110 108 109
f 110 107 108
f 110 104 103
f 110 109 104
f 93 144 110
f 43 113 127
f 48 111 112
f 47 112 113
f 53 116 111
f 54 117 116
f 68 118 117
f 118 69 119
f 70 124 119
f 124 129 125
f 125 130 126
f 126 135 123
f 123 136 122
f 122 137 121
f 93 127 144
f 127 113 114
f 127 114 115
f 127 115 120
f 127 120 121
f 127 121 137
f 71 128 124
f 71 131 128
f 71 132 131
f 71 133 132
f 71 134 133
f 124 128 129
f 125 129 130
f 126 130 135
f 123 135 136
f 122 136 137
f 76 139 134
f 75 140 139
f 74 141 140
f 60 144 141
f 127 137 144
f 144 143 142
f 144 142 141
f 144 137 138
f 144 138 143
f 44 15 10
f 45 10 11
f 46 11 12
f 47 12 13
f 48 13 14
f 16 15 49
f 17 16 50
f 18 17 51
f 53 14 19
f 54 19 20
f 55 20 21
f 21 22 56
f 23 18 52
f 24 23 57
f 25 24 58
f 22 25 59
f 30 27 61
f 27 28 62
f 28 29 63
f 29 34 68
f 31 30 64
f 32 31 65
f 33 32 66
f 38 33 67
f 34 35 69
f 35 36 70
f 36 37 71
f 39 38 72
f 40 39 73
f 41 40 74
f 42 41 75
f 37 42 76
f 45 44 10
f 46 45 11
f 47 46 12
f 48 47 13
f 53 48 14
f 44 49 15
f 16 49 50
f 17 50 51
f 18 51 52
f 54 53 19
f 55 54 20
f 56 55 21
f 23 52 57
f 24 57 58
f 25 58 59
f 22 59 56
f 30 61 64
f 27 62 61
f 28 63 62
f 29 68 63
f 31 64 65
f 32 65 66
f 66 67 33
f 69 68 34
f 35 70 69
f 36 71 70
f 37 76 71
f 38 67 72
f 39 72 73
f 40 73 74
f 42 75 76
f 41 74 75
f 111 82 77
f 112 77 78
f 113 78 79
f 114 79 80
f 115 80 81
f 116 83 82
f 117 84 83
f 118 85 84
f 120 81 86
f 86 87 121
f 87 88 122
f 88 89 123
f 90 85 119
f 91 90 124
f 92 91 125
f 89 92 126
f 97 94 128
f 94 95 129
f 95 96 130
f 96 101 135
f 98 97 131
f 99 98 132
f 100 99 133
f 105 100 134
f 101 102 136
f 102 103 137
f 103 104 138
f 106 105 139
f 107 106 140
f 108 107 141
f 109 108 142
f 104 109 143
f 113 112 78
f 112 111 77
f 114 113 79
f 115 114 80
f 120 115 81
f 111 116 82
f 116 117 83
f 117 118 84
f 118 119 85
f 121 120 86
f 87 122 121
f 88 123 122
f 90 119 124
f 91 124 125
f 92 125 126
f 89 126 123
f 97 128 131
f 94 129 128
f 95 130 129
f 96 135 130
f 98 131 132
f 99 132 133
f 100 133 134
f 101 136 135
f 102 137 136
f 103 138 137
f 104 143 138
f 105 134 139
f 106 139 140
f 107 140 141
f 108 141 142
f 109 142 143
o connector_0_cutter_0
v 91.250 -75.000 -60.000
v 91.250 -75.000 90.000
v 81.683 -73.097 -60.000
v 81.683 -73.097 90.000
v 73.572 -67.678 -60.000
v 73.572 -67.678 90.000
v 68.153 -59.567 -60.000
v 68.153 -59.567 90.000
v 66.250 -50.000 -60.000
v 66.250 -50.000 90.000
v 68.153 -40.433 -60.000
v 68.153 -40.433 90.000
v 73.572 -32.322 -60.000
v 73.572 -32.322 90.000
v 81.683 -26.903 -60.000
v 81.683 -26.903 90.000
v 91.250 -25.000 -60.000
v 91.250 -25.000 90.000
v 100.817 -26.903 -60.000
v 100.817 -26.903 90.000
v 108.928 -32.322 -60.000
v 108.928 -32.322 90.000
v 114.347 -40.433 -60.000
v 114.347 -40.433 90.000
v 116.250 -50.000 -60.000
v 116.250 -50.000 90.000
v 114.347 -59.567 -60.000
v 114.347 -59.567 90.000
v 108.928 -67.678 -60.000
v 108.928 -67.678 90.000
v 100.817 -73.097 -60.000
v 100.817 -73.097 90.000
v 91.250 -50.000 -60.000
v 91.250 -50.000 90.000
f 145 146 148 147
f 147 148 150 149
f 149 150 152 151
f 151 152 154 153
f 153 154 156 155
f 155 156 158 157
f 157 158 160 159
f 159 160 162 161
f 161 162 164 163
f 163 164 166 165
f 165 166 168 167
f 167 168 170 169
f 169 170 172 171
f 171 172 174 173
f 173 174 176 175
f 175 176 146 145
f 145 147 177
f 178 148 146
f 147 149 177
f 178 150 148
f 149 151 177
f 178 152 150
f 151 153 177
f 178 154 152
f 153 155 177
f 178 156 154
f 155 157 177
f 178 158 156
f 157 159 177
f 178 160 158
f 159 161 177
f 178 162 160
f 161 163 177
f 178 164 162
f 163 165 177
f 178 166 164
f 165 167 177
f 178 168 166
f 167 169 177
f 178 170 168
f 169 171 177
f 178 172 170
f 171 173 177
f 178 174 172
f 173 175 177
f 178 176 174
f 175 145 177
f 178 146 176
o connector_0_cutter_1
v 91.250 25.000 -60.000
v 91.250 25.000 90.000
v 81.683 26.903 -60.000
v 81.683 26.903 90.000
v 73.572 32.322 -60.000
v 73.572 32.322 90.000
v 68.153 40.433 -60.000
v 68.153 40.433 90.000
v 66.250 50.000 -60.000
v 66.250 50.000 90.000
v 68.153 59.567 -60.000
v 68.153 59.567 90.000
v 73.572 67.678 -60.000
v 73.572 67.678 90.000
v 81.683 73.097 -60.000
v 81.683 73.097 90.000
v 91.250 75.000 -60.000
v 91.250 75.000 90.000
v 100.817 73.097 -60.000
v 100.817 73.097 90.000
v 108.928 67.678 -60.000
v 108.928 67.678 90.000
v 114.347 59.567 -60.000
v 114.347 59.567 90.000
v 116.250 50.000 -60.000
v 116.250 50.000 90.000
v 114.347 40.433 -60.000
v 114.347 40.433 90.000
v 108.928 32.322 -60.000
v 108.928 32.322 90.000
v 100.817 26.903 -60.000
v 100.817 26.903 90.000
v 91.250 50.000 -60.000
v 91.250 50.000 90.000
f 179 180 182 181
f 181 182 184 183
f 183 184 186 185
f 185 186 188 187
f 187 188 190 189
f 189 190 192 191
f 191 192 194 193
f 193 194 196 195
f 195 196 198 197
f 197 198 200 199
f 199 200 202 201
f 201 202 204 203
f 203 204 206 205
f 205 206 208 207
f 207 208 210 209
f 209 210 180 179
f 179 181 211
f 212 182 180
f 181 183 211
f 212 184 182
f 183 185 211
f 212 186 184
f 185 187 211
f 212 188 186
f 187 189 211
f 212 190 188
f 189 191 211
f 212 192 190
f 191 193 211
f 212 194 192
f 193 195 211
f 212 196 194
f 195 197 211
f 212 198 196
f 197 199 211
f 212 200 198
f 199 201 211
f 212 202 200
f 201 203 211
f 212 204 202
f 203 205 211
f 212 206 204
f 205 207 211
f 212 208 206
f 207 209 211
f 212 210 208
f 209 179 211
f 212 180 210
o connector_0_cutter_2
v -91.250 -75.000 -60.000
v -91.250 -75.000 90.000
v -100.817 -73.097 -60.000
v -100.817 -73.097 90.000
v -108.928 -67.678 -60.000
v -108.928 -67.678 90.000
v -114.347 -59.567 -60.000
v -114.347 -59.567 90.000
v -116.250 -50.000 -60.000
v -116.250 -50.000 90.000
v -114.347 -40.433 -60.000
v -114.347 -40.433 90.000
v -108.928 -32.322 -60.000
v -108.928 -32.322 90.000
v -100.817 -26.903 -60.000
v -100.817 -26.903 90.000
v -91.250 -25.000 -60.000
v -91.250 -25.000 90.000
v -81.683 -26.903 -60.000
v -81.683 -26.903 90.000
v -73.572 -32.322 -60.000
v -73.572 -32.322 90.000
v -68.153 -40.433 -60.000
v -68.153 -40.433 90.000
v -66.250 -50.000 -60.000
v -66.250 -50.000 90.000
v -68.153 -59.567 -60.000
v -68.153 -59.567 90.000
v -73.572 -67.678 -60.000
v -73.572 -67.678 90.000
v -81.683 -73.097 -60.000
v -81.683 -73.097 90.000
v -91.250 -50.000 -60.000
v -91.250 -50.000 90.000
f 213 214 216 215
f 215 216 218 217
f 217 218 220 219
f 219 220 222 221
f 221 222 224 223
f 223 224 226 225
f 225 226 228 227
f 227 228 230 229
f 229 230 232 231
f 231 232 234 233
f 233 234 236 235
f 235 236 238 237
f 237 238 240 239
f 239 240 242 241
f 241 242 244 243
f 243 244 214 213
f 213 215 245
f 246 216 214
f 215 217 245
f 246 218 216
f 217 219 245
f 246 220 218
f 219 221 245
f 246 222 220
f 221 223 245
f 246 224 222
f 223 225 245
f 246 226 224
f 225 227 245
f 246 228 226
f 227 229 245
f 246 230 228
f 229 231 245
f 246 232 230
f 231 233 245
f 246 234 232
f 233 235 245
f 246 236 234
f 235 237 245
f 246 238 236
f 237 239 245
f 246 240 238
f 239 241 245
f 246 242 240
f 241 243 245
f 246 244 242
f 243 213 245
f 246 214 244
o connector_0_cutter_3
v -91.250 25.000 -60.000
v -91.250 25.000 90.000
v -100.817 26.903 -60.000
v -100.817 26.903 90.000
v -108.928 32.322 -60.000
v -108.928 32.322 90.000
v -114.347 40.433 -60.000
v -114.347 40.433 90.000
v -116.250 50.000 -60.000
v -116.250 50.000 90.000
v -114.347 59.567 -60.000
v -114.347 59.567 90.000
v -108.928 67.678 -60.000
v -108.928 67.678 90.000
v -100.817 73.097 -60.000
v -100.817 73.097 90.000
v -91.250 75.000 -60.000
v -91.250 75.000 90.000
v -81.683 73.097 -60.000
v -81.683 73.097 90.000
v -73.572 67.678 -60.000
v -73.572 67.678 90.000
v -68.153 59.567 -60.000
v -68.153 59.567 90.000
v -66.250 50.000 -60.000
v -66.250 50.000 90.000
v -68.153 40.433 -60.000
v -68.153 40.433 90.000
v -73.572 32.322 -60.000
v -73.572 32.322 90.000
v -81.683 26.903 -60.000
v -81.683 26.903 90.000
v -91.250 50.000 -60.000
v -91.250 50.000 90.000
f 247 248 250 249
f 249 250 252 251
f 251 252 254 253
f 253 254 256 255
f 255 256 258 257
f 257 258 260 259
f 259 260 262 261
f 261 262 264 263
f 263 264 266 265
f 265 266 268 267
f 267 268 270 269
f 269 270 272 271
f 271 272 274 273
f 273 274 276 275
f 275 276 278 277
f 277 278 248 247
f 247 249 279
f 280 250 248
f 249 251 279
f 280 252 250
f 251 253 279
f 280 254 252
f 253 255 279
f 280 256 254
f 255 257 279
f 280 258 256
f 257 259 279
f 280 260 258
f 259 261 279
f 280 262 260
f 261 263 279
f 280 264 262
f 263 265 279
f 280 266 264
f 265 267 279
f 280 268 266
f 267 269 279
f 280 270 268
f 269 271 279
f 280 272 270
f 271 273 279
f 280 274 272
f 273 275 279
f 280 276 274
f 275 277 279
f 280 278 276
f 277 247 279
f 280 248 278
