# OBJ
# COMPAS
# version: 2.15.1
# precision: 3
# V F E: 34 64 96

o dowel_0_preview
v 50.000 -20.787 38.409
v -50.000 -20.787 38.409
v 50.000 -24.520 29.397
v -50.000 -24.520 29.397
v 50.000 -24.520 19.642
v -50.000 -24.520 19.642
v 50.000 -20.787 10.630
v -50.000 -20.787 10.630
v 50.000 -13.889 3.733
v -50.000 -13.889 3.733
v 50.000 -4.877 0.000
v -50.000 -4.877 0.000
v 50.000 4.877 0.000
v -50.000 4.877 0.000
v 50.000 13.889 3.733
v -50.000 13.889 3.733
v 50.000 20.787 10.630
v -50.000 20.787 10.630
v 50.000 24.520 19.642
v -50.000 24.520 19.642
v 50.000 24.520 29.397
v -50.000 24.520 29.397
v 50.000 20.787 38.409
v -50.000 20.787 38.409
v 50.000 13.889 45.306
v -50.000 13.889 45.306
v 50.000 4.877 49.039
v -50.000 4.877 49.039
v 50.000 -4.877 49.039
v -50.000 -4.877 49.039
v 50.000 -13.889 45.306
v -50.000 -13.889 45.306
v 50.000 0.000 24.520
v -50.000 0.000 24.520
f 1 3 33
f 34 4 2
f 3 5 33
f 34 6 4
f 5 7 33
f 34 8 6
f 7 9 33
f 34 10 8
f 9 11 33
f 34 12 10
f 11 13 33
f 34 14 12
f 13 15 33
f 34 16 14
f 15 17 33
f 34 18 16
f 17 19 33
f 34 20 18
f 19 21 33
f 34 22 20
f 21 23 33
f 34 24 22
f 23 25 33
f 34 26 24
f 25 27 33
f 34 28 26
f 27 29 33
f 34 30 28
f 29 31 33
f 34 32 30
f 31 1 33
f 34 2 32
f 3 1 2
f 2 4 3
f 5 3 4
f 4 6 5
f 7 5 6
f 6 8 7
f 9 7 8
f 8 10 9
f 11 9 10
f 10 12 11
f 13 11 12
f 12 14 13
f 15 13 14
f 14 16 15
f 17 15 16
f 16 18 17
f 19 17 18
f 18 20 19
f 21 19 20
f 20 22 21
f 23 21 22
f 22 24 23
f 25 23 24
f 24 26 25
f 27 25 26
f 26 28 27
f 29 27 28
f 28 30 29
f 31 29 30
f 30 32 31
f 1 31 32
f 32 2 1
