# OBJ
# COMPAS
# version: 2.15.1
# precision: 3
# V F E: 191 269 454

o inner_beams_2_0_uncut
v -986.106 -98.703 60.000
v -986.106 98.297 60.000
v 938.268 98.297 60.000
v 913.894 -98.703 60.000
v -986.106 -98.703 0.000
v -986.106 98.297 0.000
v 998.268 98.297 0.000
v 973.894 -98.703 -0.000
f 1 2 6 5
f 2 3 7 6
f 3 4 8 7
f 4 1 5 8
f 1 4 3
f 3 2 1
f 8 5 6
f 6 7 8
o inner_beams_2_0_cut
v -986.106 98.297 0.000
v -715.608 11.297 0.000
v -722.679 8.368 0.000
v -708.537 8.368 0.000
v -725.608 1.297 0.000
v -705.608 1.297 0.000
v -375.857 11.297 -0.000
v -382.928 8.368 -0.000
v -368.786 8.368 -0.000
v -385.857 1.297 0.000
v -365.857 1.297 0.000
v -36.106 11.297 -0.000
v -43.177 8.368 -0.000
v -29.035 8.368 -0.000
v -46.106 1.297 -0.000
v -26.106 1.297 -0.000
v -722.679 -5.774 0.000
v -708.537 -5.774 0.000
v -715.608 -8.703 0.000
v -986.106 -98.703 0.000
v -885.483 -98.703 30.000
v -382.928 -5.774 0.000
v -368.786 -5.774 0.000
v -375.857 -8.703 0.000
v -43.177 -5.774 -0.000
v -29.035 -5.774 -0.000
v -36.106 -8.703 -0.000
v -986.106 98.297 60.000
v -885.483 98.297 60.000
v -715.608 11.297 46.751
v -722.679 8.368 46.305
v -708.537 8.368 46.305
v -725.608 1.297 45.228
v -705.608 1.297 45.228
v -375.857 11.297 46.751
v -382.928 8.368 46.305
v -368.786 8.368 46.305
v -385.857 1.297 45.228
v -365.857 1.297 45.228
v -36.106 11.297 46.751
v -43.177 8.368 46.305
v -29.035 8.368 46.305
v -46.106 1.297 45.228
v -26.106 1.297 45.228
v -722.679 -5.774 44.152
v -708.537 -5.774 44.152
v -715.608 -8.703 43.706
v -986.106 -98.703 60.000
v -885.483 -98.703 60.000
v -382.928 -5.774 44.152
v -368.786 -5.774 44.152
v -375.857 -8.703 43.706
v -43.177 -5.774 44.152
v -29.035 -5.774 44.152
v -36.106 -8.703 43.706
v 303.645 11.297 -0.000
v 296.574 8.368 -0.000
v 310.716 8.368 -0.000
v 293.645 1.297 -0.000
v 313.645 1.297 -0.000
v 998.268 98.297 0.000
v 643.396 11.297 -0.000
v 636.325 8.368 -0.000
v 650.467 8.368 -0.000
v 633.396 1.297 -0.000
v 653.396 1.297 -0.000
v 296.574 -5.774 -0.000
v 310.716 -5.774 -0.000
v 303.645 -8.703 -0.000
v 636.325 -5.774 -0.000
v 650.467 -5.774 -0.000
v 643.396 -8.703 -0.000
v 973.894 -98.703 -0.000
v 813.271 -98.703 30.000
v 388.582 98.297 60.000
v 303.645 11.297 46.751
v 296.574 8.368 46.305
v 310.716 8.368 46.305
v 293.645 1.297 45.228
v 313.645 1.297 45.228
v 813.271 98.297 60.000
v 938.268 98.297 60.000
v 643.396 11.297 46.751
v 636.325 8.368 46.305
v 650.467 8.368 46.305
v 633.396 1.297 45.228
v 653.396 1.297 45.228
v 296.574 -5.774 44.152
v 310.716 -5.774 44.152
v 303.645 -8.703 43.706
v 636.325 -5.774 44.152
v 650.467 -5.774 44.152
v 643.396 -8.703 43.706
v 813.271 -98.703 60.000
v 913.894 -98.703 60.000
f 9 10 11
f 9 11 13
f 9 13 28
f 9 15 10
f 10 16 12
f 12 18 14
f 10 15 16
f 12 16 18
f 9 23 15
f 9 20 21
f 9 21 23
f 23 17 15
f 23 19 17
f 9 64 65
f 9 75 20
f 9 65 67
f 9 67 75
f 28 13 25
f 28 25 27
f 14 30 26
f 27 26 32
f 14 18 30
f 28 27 32
f 26 30 32
f 19 33 31
f 32 31 33
f 28 32 33
f 28 33 35
f 23 33 19
f 28 35 81
f 9 69 64
f 20 75 22
f 64 71 66
f 66 73 68
f 69 70 64
f 64 70 71
f 66 71 73
f 69 72 70
f 69 74 72
f 69 81 74
f 22 75 77
f 68 78 76
f 77 76 80
f 81 24 22
f 81 34 24
f 81 35 34
f 81 22 77
f 68 73 78
f 76 78 80
f 81 77 80
f 81 79 74
f 81 80 79
f 9 36 37 83 89 90 69
f 9 28 56 36
f 82 29 57 56 28 81 103 102
f 36 56 57 37
f 90 103 81 69
f 103 90 89 102
f 38 10 12 40
f 11 10 38 39
f 11 39 41 13
f 14 42 40 12
f 45 43 15 17
f 44 16 15 43
f 46 18 16 44
f 47 45 17 19
f 50 48 20 22
f 20 48 49 21
f 49 51 23 21
f 24 52 50 22
f 53 25 13 41
f 54 42 14 26
f 53 55 27 25
f 54 26 27 55
f 30 18 46 58
f 31 59 47 19
f 58 60 32 30
f 60 59 31 32
f 61 33 23 51
f 52 24 34 62
f 63 35 33 61
f 62 34 35 63
f 38 37 39
f 39 37 29
f 38 43 37
f 38 40 43
f 40 42 44
f 42 46 44
f 43 83 37
f 40 44 43
f 59 49 48
f 59 51 49
f 39 29 41
f 53 41 29
f 53 29 55
f 54 46 42
f 54 55 58
f 54 58 46
f 55 60 58
f 55 29 60
f 59 60 61
f 60 29 61
f 61 29 63
f 59 61 51
f 63 29 98
f 43 89 83
f 43 45 89
f 45 47 89
f 59 89 47
f 48 50 89
f 59 48 89
f 50 52 89
f 62 89 52
f 62 85 84
f 62 87 85
f 62 84 89
f 84 86 91
f 86 88 92
f 84 91 89
f 91 93 89
f 93 95 89
f 86 92 91
f 88 94 92
f 95 82 89
f 62 63 96
f 62 96 87
f 63 98 96
f 98 29 101
f 97 94 88
f 98 99 97
f 101 29 82
f 97 99 94
f 98 101 99
f 100 82 95
f 100 101 82
f 37 57 29
f 64 66 86 84
f 85 65 64 84
f 67 65 85 87
f 86 66 68 88
f 92 71 70 91
f 72 93 91 70
f 73 71 92 94
f 93 72 74 95
f 75 67 87 96
f 76 97 88 68
f 98 77 75 96
f 98 97 76 77
f 99 78 73 94
f 95 74 79 100
f 101 80 78 99
f 79 80 101 100
f 102 89 82
o inner_beams_2_0_cutter_0
v 813.271 98.297 60.000
v -885.483 98.297 60.000
v -885.483 -110.234 28.244
v 813.271 -110.234 28.244
v 813.271 91.564 104.212
v -885.483 91.564 104.212
v -885.483 -116.966 72.456
v 813.271 -116.966 72.456
f 104 105 109 108
f 105 106 110 109
f 106 107 111 110
f 107 104 108 111
f 104 107 106
f 106 105 104
f 111 108 109
f 109 110 111
o inner_beams_2_0_cutter_1
v 643.396 -8.703 140.000
v 636.325 -5.774 140.000
v 633.396 1.297 140.000
v 636.325 8.368 140.000
v 643.396 11.297 140.000
v 650.467 8.368 140.000
v 653.396 1.297 140.000
v 650.467 -5.774 140.000
v 643.396 -8.703 -20.000
v 636.325 -5.774 -20.000
v 633.396 1.297 -20.000
v 636.325 8.368 -20.000
v 643.396 11.297 -20.000
v 650.467 8.368 -20.000
v 653.396 1.297 -20.000
v 650.467 -5.774 -20.000
f 112 113 121 120
f 113 114 122 121
f 114 115 123 122
f 115 116 124 123
f 116 117 125 124
f 117 118 126 125
f 118 119 127 126
f 119 112 120 127
f 112 119 118
f 118 117 116
f 116 115 114
f 114 113 112
f 112 118 116
f 116 114 112
f 127 120 121
f 121 122 123
f 123 124 125
f 125 126 127
f 127 121 123
f 123 125 127
o inner_beams_2_0_cutter_2
v 303.645 -8.703 140.000
v 296.574 -5.774 140.000
v 293.645 1.297 140.000
v 296.574 8.368 140.000
v 303.645 11.297 140.000
v 310.716 8.368 140.000
v 313.645 1.297 140.000
v 310.716 -5.774 140.000
v 303.645 -8.703 -20.000
v 296.574 -5.774 -20.000
v 293.645 1.297 -20.000
v 296.574 8.368 -20.000
v 303.645 11.297 -20.000
v 310.716 8.368 -20.000
v 313.645 1.297 -20.000
v 310.716 -5.774 -20.000
f 128 129 137 136
f 129 130 138 137
f 130 131 139 138
f 131 132 140 139
f 132 133 141 140
f 133 134 142 141
f 134 135 143 142
f 135 128 136 143
f 128 135 134
f 134 133 132
f 132 131 130
f 130 129 128
f 128 134 132
f 132 130 128
f 143 136 137
f 137 138 139
f 139 140 141
f 141 142 143
f 143 137 139
f 139 141 143
o inner_beams_2_0_cutter_3
v -36.106 -8.703 140.000
v -43.177 -5.774 140.000
v -46.106 1.297 140.000
v -43.177 8.368 140.000
v -36.106 11.297 140.000
v -29.035 8.368 140.000
v -26.106 1.297 140.000
v -29.035 -5.774 140.000
v -36.106 -8.703 -20.000
v -43.177 -5.774 -20.000
v -46.106 1.297 -20.000
v -43.177 8.368 -20.000
v -36.106 11.297 -20.000
v -29.035 8.368 -20.000
v -26.106 1.297 -20.000
v -29.035 -5.774 -20.000
f 144 145 153 152
f 145 146 154 153
f 146 147 155 154
f 147 148 156 155
f 148 149 157 156
f 149 150 158 157
f 150 151 159 158
f 151 144 152 159
f 144 151 150
f 150 149 148
f 148 147 146
f 146 145 144
f 144 150 148
f 148 146 144
f 159 152 153
f 153 154 155
f 155 156 157
f 157 158 159
f 159 153 155
f 155 157 159
o inner_beams_2_0_cutter_4
v -375.857 -8.703 140.000
v -382.928 -5.774 140.000
v -385.857 1.297 140.000
v -382.928 8.368 140.000
v -375.857 11.297 140.000
v -368.786 8.368 140.000
v -365.857 1.297 140.000
v -368.786 -5.774 140.000
v -375.857 -8.703 -20.000
v -382.928 -5.774 -20.000
v -385.857 1.297 -20.000
v -382.928 8.368 -20.000
v -375.857 11.297 -20.000
v -368.786 8.368 -20.000
v -365.857 1.297 -20.000
v -368.786 -5.774 -20.000
f 160 161 169 168
f 161 162 170 169
f 162 163 171 170
f 163 164 172 171
f 164 165 173 172
f 165 166 174 173
f 166 167 175 174
f 167 160 168 175
f 160 167 166
f 166 165 164
f 164 163 162
f 162 161 160
f 160 166 164
f 164 162 160
f 175 168 169
f 169 170 171
f 171 172 173
f 173 174 175
f 175 169 171
f 171 173 175
o inner_beams_2_0_cutter_5
v -715.608 -8.703 140.000
v -722.679 -5.774 140.000
v -725.608 1.297 140.000
v -722.679 8.368 140.000
v -715.608 11.297 140.000
v -708.537 8.368 140.000
v -705.608 1.297 140.000
v -708.537 -5.774 140.000
v -715.608 -8.703 -20.000
v -722.679 -5.774 -20.000
v -725.608 1.297 -20.000
v -722.679 8.368 -20.000
v -715.608 11.297 -20.000
v -708.537 8.368 -20.000
v -705.608 1.297 -20.000
v -708.537 -5.774 -20.000
f 176 177 185 184
f 177 178 186 185
f 178 179 187 186
f 179 180 188 187
f 180 181 189 188
f 181 182 190 189
f 182 183 191 190
f 183 176 184 191
f 176 183 182
f 182 181 180
f 180 179 178
f 178 177 176
f 176 182 180
f 180 178 176
f 191 184 185
f 185 186 187
f 187 188 189
f 189 190 191
f 191 185 187
f 187 189 191
