# OBJ
# COMPAS
# version: 2.15.1
# precision: 3
# V F E: 95 206 309

o inner_beams_2_0_preview
v -986.106 98.297 0.000
v -715.608 11.297 0.000
v -722.679 8.368 0.000
v -708.537 8.368 0.000
v -725.608 1.297 0.000
v -705.608 1.297 0.000
v -375.857 11.297 -0.000
v -382.928 8.368 -0.000
v -368.786 8.368 -0.000
v -385.857 1.297 0.000
v -365.857 1.297 0.000
v -36.106 11.297 -0.000
v -43.177 8.368 -0.000
v -29.035 8.368 -0.000
v -46.106 1.297 -0.000
v -26.106 1.297 -0.000
v -722.679 -5.774 0.000
v -708.537 -5.774 0.000
v -715.608 -8.703 0.000
v -986.106 -98.703 0.000
v -885.483 -98.703 30.000
v -382.928 -5.774 0.000
v -368.786 -5.774 0.000
v -375.857 -8.703 0.000
v -43.177 -5.774 -0.000
v -29.035 -5.774 -0.000
v -36.106 -8.703 -0.000
v -986.106 98.297 60.000
v -885.483 98.297 60.000
v -715.608 11.297 46.751
v -722.679 8.368 46.305
v -708.537 8.368 46.305
v -725.608 1.297 45.228
v -705.608 1.297 45.228
v -375.857 11.297 46.751
v -382.928 8.368 46.305
v -368.786 8.368 46.305
v -385.857 1.297 45.228
v -365.857 1.297 45.228
v -36.106 11.297 46.751
v -43.177 8.368 46.305
v -29.035 8.368 46.305
v -46.106 1.297 45.228
v -26.106 1.297 45.228
v -722.679 -5.774 44.152
v -708.537 -5.774 44.152
v -715.608 -8.703 43.706
v -986.106 -98.703 60.000
v -885.483 -98.703 60.000
v -382.928 -5.774 44.152
v -368.786 -5.774 44.152
v -375.857 -8.703 43.706
v -43.177 -5.774 44.152
v -29.035 -5.774 44.152
v -36.106 -8.703 43.706
v 303.645 11.297 -0.000
v 296.574 8.368 -0.000
v 310.716 8.368 -0.000
v 293.645 1.297 -0.000
v 313.645 1.297 -0.000
v 998.268 98.297 0.000
v 643.396 11.297 -0.000
v 636.325 8.368 -0.000
v 650.467 8.368 -0.000
v 633.396 1.297 -0.000
v 653.396 1.297 -0.000
v 296.574 -5.774 -0.000
v 310.716 -5.774 -0.000
v 303.645 -8.703 -0.000
v 636.325 -5.774 -0.000
v 650.467 -5.774 -0.000
v 643.396 -8.703 -0.000
v 973.894 -98.703 -0.000
v 813.271 -98.703 30.000
v 388.582 98.297 60.000
v 303.645 11.297 46.751
v 296.574 8.368 46.305
v 310.716 8.368 46.305
v 293.645 1.297 45.228
v 313.645 1.297 45.228
v 813.271 98.297 60.000
v 938.268 98.297 60.000
v 643.396 11.297 46.751
v 636.325 8.368 46.305
v 650.467 8.368 46.305
v 633.396 1.297 45.228
v 653.396 1.297 45.228
v 296.574 -5.774 44.152
v 310.716 -5.774 44.152
v 303.645 -8.703 43.706
v 636.325 -5.774 44.152
v 650.467 -5.774 44.152
v 643.396 -8.703 43.706
v 813.271 -98.703 60.000
v 913.894 -98.703 60.000
f 1 2 3
f 1 3 5
f 1 5 20
f 1 7 2
f 2 8 4
f 4 10 6
f 2 7 8
f 4 8 10
f 1 15 7
f 1 12 13
f 1 13 15
f 15 9 7
f 15 11 9
f 1 56 57
f 1 67 12
f 1 57 59
f 1 59 67
f 20 5 17
f 20 17 19
f 6 22 18
f 19 18 24
f 6 10 22
f 20 19 24
f 18 22 24
f 11 25 23
f 24 23 25
f 20 24 25
f 20 25 27
f 15 25 11
f 20 27 73
f 1 61 56
f 12 67 14
f 56 63 58
f 58 65 60
f 61 62 56
f 56 62 63
f 58 63 65
f 61 64 62
f 61 66 64
f 61 73 66
f 14 67 69
f 60 70 68
f 69 68 72
f 73 16 14
f 73 26 16
f 73 27 26
f 73 14 69
f 60 65 70
f 68 70 72
f 73 69 72
f 73 71 66
f 73 72 71
f 30 29 31
f 31 29 21
f 30 35 29
f 30 32 35
f 32 34 36
f 34 38 36
f 35 75 29
f 32 36 35
f 51 41 40
f 51 43 41
f 31 21 33
f 45 33 21
f 45 21 47
f 46 38 34
f 46 47 50
f 46 50 38
f 47 52 50
f 47 21 52
f 51 52 53
f 52 21 53
f 53 21 55
f 51 53 43
f 55 21 90
f 35 81 75
f 35 37 81
f 37 39 81
f 51 81 39
f 40 42 81
f 51 40 81
f 42 44 81
f 54 81 44
f 54 77 76
f 54 79 77
f 54 76 81
f 76 78 83
f 78 80 84
f 76 83 81
f 83 85 81
f 85 87 81
f 78 84 83
f 80 86 84
f 87 74 81
f 54 55 88
f 54 88 79
f 55 90 88
f 90 21 93
f 89 86 80
f 90 91 89
f 93 21 74
f 89 91 86
f 90 93 91
f 92 74 87
f 92 93 74
f 29 49 21
f 94 81 74
f 61 1 28
f 28 29 75
f 75 81 82
f 82 61 28
f 28 75 82
f 28 1 20
f 20 48 28
f 21 49 48
f 73 95 94
f 21 48 20
f 73 94 74
f 74 21 20
f 20 73 74
f 29 28 48
f 48 49 29
f 61 82 95
f 95 73 61
f 94 95 82
f 82 81 94
f 32 30 2
f 2 4 32
f 31 3 2
f 2 30 31
f 5 3 31
f 31 33 5
f 4 6 34
f 34 32 4
f 9 37 35
f 35 7 9
f 35 36 8
f 8 7 35
f 36 38 10
f 10 8 36
f 11 39 37
f 37 9 11
f 14 42 40
f 40 12 14
f 13 12 40
f 40 41 13
f 13 41 43
f 43 15 13
f 14 16 44
f 44 42 14
f 33 45 17
f 17 5 33
f 18 46 34
f 34 6 18
f 17 45 47
f 47 19 17
f 47 46 18
f 18 19 47
f 50 22 10
f 10 38 50
f 11 23 51
f 51 39 11
f 22 50 52
f 52 24 22
f 24 52 51
f 51 23 24
f 43 53 25
f 25 15 43
f 54 44 16
f 16 26 54
f 53 55 27
f 27 25 53
f 55 54 26
f 26 27 55
f 76 56 58
f 58 78 76
f 76 77 57
f 57 56 76
f 79 59 57
f 57 77 79
f 80 78 58
f 58 60 80
f 83 84 63
f 63 62 83
f 62 64 85
f 85 83 62
f 86 65 63
f 63 84 86
f 87 85 64
f 64 66 87
f 88 67 59
f 59 79 88
f 60 68 89
f 89 80 60
f 88 90 69
f 69 67 88
f 69 90 89
f 89 68 69
f 86 91 70
f 70 65 86
f 92 87 66
f 66 71 92
f 91 93 72
f 72 70 91
f 92 71 72
f 72 93 92
