ISO-10303-21;
HEADER;
FILE_DESCRIPTION(('ViewDefinition [CoordinationView]'),'2;1');
FILE_NAME('','2026-08-20T14:42:00',(''),(''),'IfcOpenShell 0.8.4-e8eb5e4','IfcOpenShell 0.8.4-e8eb5e4','');
FILE_SCHEMA(('IFC4'));
ENDSEC;
DATA;
#1=IFCPROJECT('1KHEgOFNP04xGoOYaTLY1G',$,'Default Project',$,$,$,$,(#11),#6);
#2=IFCSIUNIT(*,.LENGTHUNIT.,.MILLI.,.METRE.);
#3=IFCSIUNIT(*,.AREAUNIT.,.MILLI.,.SQUARE_METRE.);
#4=IFCSIUNIT(*,.VOLUMEUNIT.,.MILLI.,.CUBIC_METRE.);
#5=IFCSIUNIT(*,.PLANEANGLEUNIT.,$,.RADIAN.);
#6=IFCUNITASSIGNMENT((#2,#3,#4,#5));
#7=IFCCARTESIANPOINT((0.,0.,0.));
#8=IFCDIRECTION((0.,0.,1.));
#9=IFCDIRECTION((1.,0.,0.));
#10=IFCAXIS2PLACEMENT3D(#7,#8,#9);
#11=IFCGEOMETRICREPRESENTATIONCONTEXT($,'Model',3,1.E-05,#10,$);
#12=IFCGEOMETRICREPRESENTATIONSUBCONTEXT('Body','Model',*,*,*,*,#11,$,.MODEL_VIEW.,$);
#13=IFCPERSON($,'Unknown Author',$,$,$,$,$,$);
#14=IFCORGANIZATION($,'compas.dev',$,$,$);
#15=IFCPERSONANDORGANIZATION(#13,#14,$);
#16=IFCAPPLICATION(#14,'2.1.0','compas_ifc','compas_ifc v2.1.0');
#17=IFCOWNERHISTORY(#15,#16,$,$,$,$,$,1787229720);
#18=IFCSITE('00xtwnsXD9LhMtfUB1FVWb',$,'Default Site',$,$,$,$,$,$,$,$,$,$,$);
#19=IFCRELAGGREGATES('2MhcQ673n7Qh83p43bIgPp',$,$,$,#1,(#18));
#20=IFCBUILDING('3u8EqnYw92TAGkmNiO6vfK',$,'Default Building 1',$,$,$,$,$,$,$,$,$);
#21=IFCRELAGGREGATES('3sPrYBtBX0nP3v4ij9sicf',$,$,$,#18,(#20));
#22=IFCBUILDINGSTOREY('2wlV2E8Wb4GgUzPedfAXy1',$,'Default Storey 1',$,$,$,$,$,$,$);
#23=IFCRELAGGREGATES('37jsCOHUD7gurkXDqY_yhK',$,$,$,#20,(#22));
#24=IFCBUILDINGELEMENTPROXY('3TS9EGInnFugGrOmJZKlrg',$,'inner_ribs_0_0_uncut',$,$,$,#52,$,$);
#25=IFCRELCONTAINEDINSPATIALSTRUCTURE('0NMpDe41zCZAdIYqadGGCB',$,$,$,(#24),#22);
#26=IFCINDEXEDPOLYGONALFACE((1,2,11,10));
#27=IFCINDEXEDPOLYGONALFACE((2,3,12,11));
#28=IFCINDEXEDPOLYGONALFACE((3,4,13,12));
#29=IFCINDEXEDPOLYGONALFACE((4,5,14,13));
#30=IFCINDEXEDPOLYGONALFACE((5,6,15,14));
#31=IFCINDEXEDPOLYGONALFACE((6,7,16,15));
#32=IFCINDEXEDPOLYGONALFACE((7,8,17,16));
#33=IFCINDEXEDPOLYGONALFACE((8,9,18,17));
#34=IFCINDEXEDPOLYGONALFACE((9,1,10,18));
#35=IFCINDEXEDPOLYGONALFACE((1,9,8));
#36=IFCINDEXEDPOLYGONALFACE((4,3,2));
#37=IFCINDEXEDPOLYGONALFACE((2,1,8));
#38=IFCINDEXEDPOLYGONALFACE((5,4,2));
#39=IFCINDEXEDPOLYGONALFACE((2,8,7));
#40=IFCINDEXEDPOLYGONALFACE((6,5,2));
#41=IFCINDEXEDPOLYGONALFACE((2,7,6));
#42=IFCINDEXEDPOLYGONALFACE((18,10,11));
#43=IFCINDEXEDPOLYGONALFACE((11,12,13));
#44=IFCINDEXEDPOLYGONALFACE((17,18,11));
#45=IFCINDEXEDPOLYGONALFACE((11,13,14));
#46=IFCINDEXEDPOLYGONALFACE((16,17,11));
#47=IFCINDEXEDPOLYGONALFACE((11,14,15));
#48=IFCINDEXEDPOLYGONALFACE((15,16,11));
#49=IFCCARTESIANPOINTLIST3D(((1753.15521514738,934.529190065786,59.9999999999986),(-966.844784852618,-920.617996191829,59.9999999999998),(-1255.33037918512,-276.367109407984,59.9999999999996),(-591.769005761299,-45.5579081681277,59.9999999999991),(-104.623648284799,149.611495570236,59.9999999999993),(368.341259382108,365.57214636857,59.999999999999),(827.125717239422,602.324044226875,59.9999999999988),(1271.72972528714,859.867189145151,59.9999999999988),(1641.14836975924,1098.7526121816,59.9999999999986),(1762.52529355567,940.919952784225,-1.36142160439447E-12),(-957.474706444327,-914.22723347339,-6.22457159203965E-13),(-1245.96030077683,-269.976346689545,-6.5301187231183E-13),(-582.398927353008,-39.1671454496889,-7.04911070927776E-13),(-95.2535698765087,156.002258288675,-7.36992184935708E-13),(377.711337790398,371.962909087009,-7.61944162497433E-13),(836.495795647713,608.714806945314,-8.93453841334566E-13),(1281.09980369543,866.25795186359,-1.13152122144711E-12),(1650.51844816753,1105.14337490004,-1.32642711393161E-12)));
#50=IFCPOLYGONALFACESET(#49,.T.,(#26,#27,#28,#29,#30,#31,#32,#33,#34,#35,#36,#37,#38,#39,#40,#41,#42,#43,#44,#45,#46,#47,#48),$);
#51=IFCSHAPEREPRESENTATION(#12,'Body','Tessellation',(#50));
#52=IFCPRODUCTDEFINITIONSHAPE($,$,(#51));
#53=IFCBUILDINGELEMENTPROXY('1h7nj1HpfBwwkLPv$XOqvg',$,'inner_ribs_0_0_cut',$,$,$,#81,$,$);
#54=IFCRELCONTAINEDINSPATIALSTRUCTURE('1lWhKOGGTBWOJxEZWiQSsa',$,$,$,(#53),#22);
#55=IFCINDEXEDPOLYGONALFACE((1,2,11,10));
#56=IFCINDEXEDPOLYGONALFACE((2,3,12,11));
#57=IFCINDEXEDPOLYGONALFACE((3,4,13,12));
#58=IFCINDEXEDPOLYGONALFACE((4,5,14,13));
#59=IFCINDEXEDPOLYGONALFACE((5,6,15,14));
#60=IFCINDEXEDPOLYGONALFACE((6,7,16,15));
#61=IFCINDEXEDPOLYGONALFACE((7,8,17,16));
#62=IFCINDEXEDPOLYGONALFACE((8,9,18,17));
#63=IFCINDEXEDPOLYGONALFACE((9,1,10,18));
#64=IFCINDEXEDPOLYGONALFACE((1,9,8));
#65=IFCINDEXEDPOLYGONALFACE((4,3,2));
#66=IFCINDEXEDPOLYGONALFACE((2,1,8));
#67=IFCINDEXEDPOLYGONALFACE((5,4,2));
#68=IFCINDEXEDPOLYGONALFACE((2,8,7));
#69=IFCINDEXEDPOLYGONALFACE((6,5,2));
#70=IFCINDEXEDPOLYGONALFACE((2,7,6));
#71=IFCINDEXEDPOLYGONALFACE((18,10,11));
#72=IFCINDEXEDPOLYGONALFACE((11,12,13));
#73=IFCINDEXEDPOLYGONALFACE((17,18,11));
#74=IFCINDEXEDPOLYGONALFACE((11,13,14));
#75=IFCINDEXEDPOLYGONALFACE((16,17,11));
#76=IFCINDEXEDPOLYGONALFACE((11,14,15));
#77=IFCINDEXEDPOLYGONALFACE((15,16,11));
#78=IFCCARTESIANPOINTLIST3D(((1753.15521514738,934.529190065786,59.9999999999986),(-966.844784852618,-920.617996191829,59.9999999999998),(-1255.33037918512,-276.367109407984,59.9999999999996),(-591.769005761299,-45.5579081681277,59.9999999999991),(-104.623648284799,149.611495570236,59.9999999999993),(368.341259382108,365.57214636857,59.999999999999),(827.125717239422,602.324044226875,59.9999999999988),(1271.72972528714,859.867189145151,59.9999999999988),(1641.14836975924,1098.7526121816,59.9999999999986),(1762.52529355567,940.919952784225,-1.36142160439447E-12),(-957.474706444327,-914.22723347339,-6.22457159203965E-13),(-1245.96030077683,-269.976346689545,-6.5301187231183E-13),(-582.398927353008,-39.1671454496889,-7.04911070927776E-13),(-95.2535698765087,156.002258288675,-7.36992184935708E-13),(377.711337790398,371.962909087009,-7.61944162497433E-13),(836.495795647713,608.714806945314,-8.93453841334566E-13),(1281.09980369543,866.25795186359,-1.13152122144711E-12),(1650.51844816753,1105.14337490004,-1.32642711393161E-12)));
#79=IFCPOLYGONALFACESET(#78,.T.,(#55,#56,#57,#58,#59,#60,#61,#62,#63,#64,#65,#66,#67,#68,#69,#70,#71,#72,#73,#74,#75,#76,#77),$);
#80=IFCSHAPEREPRESENTATION(#12,'Body','Tessellation',(#79));
#81=IFCPRODUCTDEFINITIONSHAPE($,$,(#80));
ENDSEC;
END-ISO-10303-21;
