ISO-10303-21;
HEADER;
FILE_DESCRIPTION(('ViewDefinition [CoordinationView]'),'2;1');
FILE_NAME('','2026-08-20T14:42:05',(''),(''),'IfcOpenShell 0.8.4-e8eb5e4','IfcOpenShell 0.8.4-e8eb5e4','');
FILE_SCHEMA(('IFC4'));
ENDSEC;
DATA;
#1=IFCPROJECT('1Ruo9K4XHErg4NG5nu8DLS',$,'Default Project',$,$,$,$,(#11),#6);
#2=IFCSIUNIT(*,.LENGTHUNIT.,.MILLI.,.METRE.);
#3=IFCSIUNIT(*,.AREAUNIT.,.MILLI.,.SQUARE_METRE.);
#4=IFCSIUNIT(*,.VOLUMEUNIT.,.MILLI.,.CUBIC_METRE.);
#5=IFCSIUNIT(*,.PLANEANGLEUNIT.,$,.RADIAN.);
#6=IFCUNITASSIGNMENT((#2,#3,#4,#5));
#7=IFCCARTESIANPOINT((0.,0.,0.));
#8=IFCDIRECTION((0.,0.,1.));
#9=IFCDIRECTION((1.,0.,0.));
#10=IFCAXIS2PLACEMENT3D(#7,#8,#9);
#11=IFCGEOMETRICREPRESENTATIONCONTEXT($,'Model',3,1.E-05,#10,$);
#12=IFCGEOMETRICREPRESENTATIONSUBCONTEXT('Body','Model',*,*,*,*,#11,$,.MODEL_VIEW.,$);
#13=IFCPERSON($,'Unknown Author',$,$,$,$,$,$);
#14=IFCORGANIZATION($,'compas.dev',$,$,$);
#15=IFCPERSONANDORGANIZATION(#13,#14,$);
#16=IFCAPPLICATION(#14,'2.1.0','compas_ifc','compas_ifc v2.1.0');
#17=IFCOWNERHISTORY(#15,#16,$,$,$,$,$,1787229725);
#18=IFCSITE('2tQhGAn5P6XPDjLh3HHwfy',$,'Default Site',$,$,$,$,$,$,$,$,$,$,$);
#19=IFCRELAGGREGATES('0fBB2c4pX9HgOdcjjvlxU7',$,$,$,#1,(#18));
#20=IFCBUILDING('2_4$hYQLz0ghrqmVZ57Pmk',$,'Default Building 1',$,$,$,$,$,$,$,$,$);
#21=IFCRELAGGREGATES('14OxCuI2fBqfPaHx6ouUEU',$,$,$,#18,(#20));
#22=IFCBUILDINGSTOREY('0VfxFYzav89RpatAyVVKdy',$,'Default Storey 1',$,$,$,$,$,$,$);
#23=IFCRELAGGREGATES('1XSNU3zOr3iRIjF_LP8H$w',$,$,$,#20,(#22));
#24=IFCBUILDINGELEMENTPROXY('0IT$R$EVrChwnA3KKdUPKl',$,'inner_beams_2_0_uncut',$,$,$,#37,$,$);
#25=IFCRELCONTAINEDINSPATIALSTRUCTURE('3SQcGIkULFb9LOxd7kFT$w',$,$,$,(#24),#22);
#26=IFCINDEXEDPOLYGONALFACE((1,2,6,5));
#27=IFCINDEXEDPOLYGONALFACE((2,3,7,6));
#28=IFCINDEXEDPOLYGONALFACE((3,4,8,7));
#29=IFCINDEXEDPOLYGONALFACE((4,1,5,8));
#30=IFCINDEXEDPOLYGONALFACE((1,4,3));
#31=IFCINDEXEDPOLYGONALFACE((3,2,1));
#32=IFCINDEXEDPOLYGONALFACE((8,5,6));
#33=IFCINDEXEDPOLYGONALFACE((6,7,8));
#34=IFCCARTESIANPOINTLIST3D(((-986.106138802945,-98.7028943046645,60.),(-986.106138802945,98.2971056953355,60.),(938.268209135976,98.2971056953356,59.9999999999999),(913.893861197055,-98.7028943046644,59.9999999999999),(-986.106138802945,-98.7028943046645,3.260172739251E-14),(-986.106138802945,98.2971056953355,9.21711193880211E-16),(998.268209135976,98.2971056953356,9.21711193880208E-16),(973.893861197055,-98.7028943046644,-2.35434757960434E-14)));
#35=IFCPOLYGONALFACESET(#34,.T.,(#26,#27,#28,#29,#30,#31,#32,#33),$);
#36=IFCSHAPEREPRESENTATION(#12,'Body','Tessellation',(#35));
#37=IFCPRODUCTDEFINITIONSHAPE($,$,(#36));
#38=IFCBUILDINGELEMENTPROXY('2_PGvIb1z4Bf293DcLPOw4',$,'inner_beams_2_0_cut',$,$,$,#196,$,$);
#39=IFCRELCONTAINEDINSPATIALSTRUCTURE('0AE8qQtRr8nhqv7uQ_xzbR',$,$,$,(#38),#22);
#40=IFCINDEXEDPOLYGONALFACE((1,2,3));
#41=IFCINDEXEDPOLYGONALFACE((1,3,5));
#42=IFCINDEXEDPOLYGONALFACE((1,5,20));
#43=IFCINDEXEDPOLYGONALFACE((1,7,2));
#44=IFCINDEXEDPOLYGONALFACE((2,8,4));
#45=IFCINDEXEDPOLYGONALFACE((4,10,6));
#46=IFCINDEXEDPOLYGONALFACE((2,7,8));
#47=IFCINDEXEDPOLYGONALFACE((4,8,10));
#48=IFCINDEXEDPOLYGONALFACE((1,15,7));
#49=IFCINDEXEDPOLYGONALFACE((1,12,13));
#50=IFCINDEXEDPOLYGONALFACE((1,13,15));
#51=IFCINDEXEDPOLYGONALFACE((15,9,7));
#52=IFCINDEXEDPOLYGONALFACE((15,11,9));
#53=IFCINDEXEDPOLYGONALFACE((1,56,57));
#54=IFCINDEXEDPOLYGONALFACE((1,67,12));
#55=IFCINDEXEDPOLYGONALFACE((1,57,59));
#56=IFCINDEXEDPOLYGONALFACE((1,59,67));
#57=IFCINDEXEDPOLYGONALFACE((20,5,17));
#58=IFCINDEXEDPOLYGONALFACE((20,17,19));
#59=IFCINDEXEDPOLYGONALFACE((6,22,18));
#60=IFCINDEXEDPOLYGONALFACE((19,18,24));
#61=IFCINDEXEDPOLYGONALFACE((6,10,22));
#62=IFCINDEXEDPOLYGONALFACE((20,19,24));
#63=IFCINDEXEDPOLYGONALFACE((18,22,24));
#64=IFCINDEXEDPOLYGONALFACE((11,25,23));
#65=IFCINDEXEDPOLYGONALFACE((24,23,25));
#66=IFCINDEXEDPOLYGONALFACE((20,24,25));
#67=IFCINDEXEDPOLYGONALFACE((20,25,27));
#68=IFCINDEXEDPOLYGONALFACE((15,25,11));
#69=IFCINDEXEDPOLYGONALFACE((20,27,73));
#70=IFCINDEXEDPOLYGONALFACE((1,61,56));
#71=IFCINDEXEDPOLYGONALFACE((12,67,14));
#72=IFCINDEXEDPOLYGONALFACE((56,63,58));
#73=IFCINDEXEDPOLYGONALFACE((58,65,60));
#74=IFCINDEXEDPOLYGONALFACE((61,62,56));
#75=IFCINDEXEDPOLYGONALFACE((56,62,63));
#76=IFCINDEXEDPOLYGONALFACE((58,63,65));
#77=IFCINDEXEDPOLYGONALFACE((61,64,62));
#78=IFCINDEXEDPOLYGONALFACE((61,66,64));
#79=IFCINDEXEDPOLYGONALFACE((61,73,66));
#80=IFCINDEXEDPOLYGONALFACE((14,67,69));
#81=IFCINDEXEDPOLYGONALFACE((60,70,68));
#82=IFCINDEXEDPOLYGONALFACE((69,68,72));
#83=IFCINDEXEDPOLYGONALFACE((73,16,14));
#84=IFCINDEXEDPOLYGONALFACE((73,26,16));
#85=IFCINDEXEDPOLYGONALFACE((73,27,26));
#86=IFCINDEXEDPOLYGONALFACE((73,14,69));
#87=IFCINDEXEDPOLYGONALFACE((60,65,70));
#88=IFCINDEXEDPOLYGONALFACE((68,70,72));
#89=IFCINDEXEDPOLYGONALFACE((73,69,72));
#90=IFCINDEXEDPOLYGONALFACE((73,71,66));
#91=IFCINDEXEDPOLYGONALFACE((73,72,71));
#92=IFCINDEXEDPOLYGONALFACE((1,28,29,75,81,82,61));
#93=IFCINDEXEDPOLYGONALFACE((1,20,48,28));
#94=IFCINDEXEDPOLYGONALFACE((74,21,49,48,20,73,95,94));
#95=IFCINDEXEDPOLYGONALFACE((28,48,49,29));
#96=IFCINDEXEDPOLYGONALFACE((82,95,73,61));
#97=IFCINDEXEDPOLYGONALFACE((95,82,81,94));
#98=IFCINDEXEDPOLYGONALFACE((30,2,4,32));
#99=IFCINDEXEDPOLYGONALFACE((3,2,30,31));
#100=IFCINDEXEDPOLYGONALFACE((3,31,33,5));
#101=IFCINDEXEDPOLYGONALFACE((6,34,32,4));
#102=IFCINDEXEDPOLYGONALFACE((37,35,7,9));
#103=IFCINDEXEDPOLYGONALFACE((36,8,7,35));
#104=IFCINDEXEDPOLYGONALFACE((38,10,8,36));
#105=IFCINDEXEDPOLYGONALFACE((39,37,9,11));
#106=IFCINDEXEDPOLYGONALFACE((42,40,12,14));
#107=IFCINDEXEDPOLYGONALFACE((12,40,41,13));
#108=IFCINDEXEDPOLYGONALFACE((41,43,15,13));
#109=IFCINDEXEDPOLYGONALFACE((16,44,42,14));
#110=IFCINDEXEDPOLYGONALFACE((45,17,5,33));
#111=IFCINDEXEDPOLYGONALFACE((46,34,6,18));
#112=IFCINDEXEDPOLYGONALFACE((45,47,19,17));
#113=IFCINDEXEDPOLYGONALFACE((46,18,19,47));
#114=IFCINDEXEDPOLYGONALFACE((22,10,38,50));
#115=IFCINDEXEDPOLYGONALFACE((23,51,39,11));
#116=IFCINDEXEDPOLYGONALFACE((50,52,24,22));
#117=IFCINDEXEDPOLYGONALFACE((52,51,23,24));
#118=IFCINDEXEDPOLYGONALFACE((53,25,15,43));
#119=IFCINDEXEDPOLYGONALFACE((44,16,26,54));
#120=IFCINDEXEDPOLYGONALFACE((55,27,25,53));
#121=IFCINDEXEDPOLYGONALFACE((54,26,27,55));
#122=IFCINDEXEDPOLYGONALFACE((30,29,31));
#123=IFCINDEXEDPOLYGONALFACE((31,29,21));
#124=IFCINDEXEDPOLYGONALFACE((30,35,29));
#125=IFCINDEXEDPOLYGONALFACE((30,32,35));
#126=IFCINDEXEDPOLYGONALFACE((32,34,36));
#127=IFCINDEXEDPOLYGONALFACE((34,38,36));
#128=IFCINDEXEDPOLYGONALFACE((35,75,29));
#129=IFCINDEXEDPOLYGONALFACE((32,36,35));
#130=IFCINDEXEDPOLYGONALFACE((51,41,40));
#131=IFCINDEXEDPOLYGONALFACE((51,43,41));
#132=IFCINDEXEDPOLYGONALFACE((31,21,33));
#133=IFCINDEXEDPOLYGONALFACE((45,33,21));
#134=IFCINDEXEDPOLYGONALFACE((45,21,47));
#135=IFCINDEXEDPOLYGONALFACE((46,38,34));
#136=IFCINDEXEDPOLYGONALFACE((46,47,50));
#137=IFCINDEXEDPOLYGONALFACE((46,50,38));
#138=IFCINDEXEDPOLYGONALFACE((47,52,50));
#139=IFCINDEXEDPOLYGONALFACE((47,21,52));
#140=IFCINDEXEDPOLYGONALFACE((51,52,53));
#141=IFCINDEXEDPOLYGONALFACE((52,21,53));
#142=IFCINDEXEDPOLYGONALFACE((53,21,55));
#143=IFCINDEXEDPOLYGONALFACE((51,53,43));
#144=IFCINDEXEDPOLYGONALFACE((55,21,90));
#145=IFCINDEXEDPOLYGONALFACE((35,81,75));
#146=IFCINDEXEDPOLYGONALFACE((35,37,81));
#147=IFCINDEXEDPOLYGONALFACE((37,39,81));
#148=IFCINDEXEDPOLYGONALFACE((51,81,39));
#149=IFCINDEXEDPOLYGONALFACE((40,42,81));
#150=IFCINDEXEDPOLYGONALFACE((51,40,81));
#151=IFCINDEXEDPOLYGONALFACE((42,44,81));
#152=IFCINDEXEDPOLYGONALFACE((54,81,44));
#153=IFCINDEXEDPOLYGONALFACE((54,77,76));
#154=IFCINDEXEDPOLYGONALFACE((54,79,77));
#155=IFCINDEXEDPOLYGONALFACE((54,76,81));
#156=IFCINDEXEDPOLYGONALFACE((76,78,83));
#157=IFCINDEXEDPOLYGONALFACE((78,80,84));
#158=IFCINDEXEDPOLYGONALFACE((76,83,81));
#159=IFCINDEXEDPOLYGONALFACE((83,85,81));
#160=IFCINDEXEDPOLYGONALFACE((85,87,81));
#161=IFCINDEXEDPOLYGONALFACE((78,84,83));
#162=IFCINDEXEDPOLYGONALFACE((80,86,84));
#163=IFCINDEXEDPOLYGONALFACE((87,74,81));
#164=IFCINDEXEDPOLYGONALFACE((54,55,88));
#165=IFCINDEXEDPOLYGONALFACE((54,88,79));
#166=IFCINDEXEDPOLYGONALFACE((55,90,88));
#167=IFCINDEXEDPOLYGONALFACE((90,21,93));
#168=IFCINDEXEDPOLYGONALFACE((89,86,80));
#169=IFCINDEXEDPOLYGONALFACE((90,91,89));
#170=IFCINDEXEDPOLYGONALFACE((93,21,74));
#171=IFCINDEXEDPOLYGONALFACE((89,91,86));
#172=IFCINDEXEDPOLYGONALFACE((90,93,91));
#173=IFCINDEXEDPOLYGONALFACE((92,74,87));
#174=IFCINDEXEDPOLYGONALFACE((92,93,74));
#175=IFCINDEXEDPOLYGONALFACE((29,49,21));
#176=IFCINDEXEDPOLYGONALFACE((56,58,78,76));
#177=IFCINDEXEDPOLYGONALFACE((77,57,56,76));
#178=IFCINDEXEDPOLYGONALFACE((59,57,77,79));
#179=IFCINDEXEDPOLYGONALFACE((78,58,60,80));
#180=IFCINDEXEDPOLYGONALFACE((84,63,62,83));
#181=IFCINDEXEDPOLYGONALFACE((64,85,83,62));
#182=IFCINDEXEDPOLYGONALFACE((65,63,84,86));
#183=IFCINDEXEDPOLYGONALFACE((85,64,66,87));
#184=IFCINDEXEDPOLYGONALFACE((67,59,79,88));
#185=IFCINDEXEDPOLYGONALFACE((68,89,80,60));
#186=IFCINDEXEDPOLYGONALFACE((90,69,67,88));
#187=IFCINDEXEDPOLYGONALFACE((90,89,68,69));
#188=IFCINDEXEDPOLYGONALFACE((91,70,65,86));
#189=IFCINDEXEDPOLYGONALFACE((87,66,71,92));
#190=IFCINDEXEDPOLYGONALFACE((93,72,70,91));
#191=IFCINDEXEDPOLYGONALFACE((71,72,93,92));
#192=IFCINDEXEDPOLYGONALFACE((94,81,74));
#193=IFCCARTESIANPOINTLIST3D(((-986.106138802945,98.2971056953356,0.),(-715.60790260978,11.2971056953365,7.105427357601E-15),(-722.678970421646,8.36817350720185,7.105427357601E-15),(-708.536834797915,8.36817350720185,7.105427357601E-15),(-725.60790260978,1.29710569533654,1.4210854715202E-14),(-705.60790260978,1.29710569533654,1.4210854715202E-14),(-375.857020706363,11.2971056953365,-7.105427357601E-15),(-382.928088518228,8.36817350720185,-7.105427357601E-15),(-368.785952894497,8.36817350720185,-7.105427357601E-15),(-385.857020706363,1.29710569533654,0.),(-365.857020706363,1.29710569533654,0.),(-36.1061388029448,11.2971056953365,-1.4210854715202E-14),(-43.1772066148103,8.36817350720185,-1.4210854715202E-14),(-29.0350709910792,8.36817350720185,-1.4210854715202E-14),(-46.1061388029448,1.29710569533654,-7.105427357601E-15),(-26.1061388029448,1.29710569533654,-7.105427357601E-15),(-722.678970421646,-5.77396211652876,1.4210854715202E-14),(-708.536834797915,-5.77396211652876,1.4210854715202E-14),(-715.60790260978,-8.70289430466346,1.4210854715202E-14),(-986.106138802945,-98.7028943046644,3.5527136788005E-14),(-885.48334356149,-98.7028943046644,29.9999998561363),(-382.928088518228,-5.77396211652876,0.),(-368.785952894497,-5.77396211652876,0.),(-375.857020706363,-8.70289430466346,0.),(-43.1772066148103,-5.77396211652876,-7.105427357601E-15),(-29.0350709910792,-5.77396211652876,-7.105427357601E-15),(-36.1061388029448,-8.70289430466346,-7.105427357601E-15),(-986.106138802945,98.2971056953356,60.),(-885.48334356148,98.2971056953347,60.),(-715.60790260978,11.2971056953365,46.7512689719995),(-722.678970421646,8.36817350720185,46.3052386874035),(-708.536834797915,8.36817350720185,46.3052386874035),(-725.60790260978,1.29710569533654,45.2284263251028),(-705.60790260978,1.29710569533654,45.2284263251028),(-375.857020706363,11.2971056953365,46.7512689719994),(-382.928088518228,8.36817350720185,46.3052386874035),(-368.785952894497,8.36817350720185,46.3052386874035),(-385.857020706363,1.29710569533654,45.2284263251028),(-365.857020706363,1.29710569533654,45.2284263251028),(-36.1061388029448,11.2971056953365,46.7512689719994),(-43.1772066148103,8.36817350720185,46.3052386874034),(-29.0350709910792,8.36817350720185,46.3052386874034),(-46.1061388029448,1.29710569533654,45.2284263251028),(-26.1061388029448,1.29710569533654,45.2284263251028),(-722.678970421646,-5.77396211652876,44.1516139628022),(-708.536834797915,-5.77396211652876,44.1516139628022),(-715.60790260978,-8.70289430466346,43.7055836782062),(-986.106138802945,-98.7028943046644,60.),(-885.483343561489,-98.7028943046644,60.),(-382.928088518228,-5.77396211652876,44.1516139628021),(-368.785952894497,-5.77396211652876,44.1516139628021),(-375.857020706363,-8.70289430466346,43.7055836782062),(-43.1772066148103,-5.77396211652876,44.1516139628021),(-29.0350709910792,-5.77396211652876,44.1516139628021),(-36.1061388029448,-8.70289430466346,43.7055836782061),(303.644743100473,11.2971056953365,-1.4210854715202E-14),(296.573675288608,8.36817350720185,-7.105427357601E-15),(310.715810912339,8.36817350720185,-1.4210854715202E-14),(293.644743100473,1.29710569533654,-7.105427357601E-15),(313.644743100473,1.29710569533654,-1.4210854715202E-14),(998.268209135976,98.2971056953356,0.),(643.395625003891,11.2971056953365,-1.4210854715202E-14),(636.324557192025,8.36817350720185,-1.4210854715202E-14),(650.466692815756,8.36817350720185,-1.4210854715202E-14),(633.395625003891,1.29710569533654,-7.105427357601E-15),(653.395625003891,1.29710569533654,-7.105427357601E-15),(296.573675288608,-5.77396211652876,-7.105427357601E-15),(310.715810912339,-5.77396211652876,-1.4210854715202E-14),(303.644743100473,-8.70289430466346,-1.4210854715202E-14),(636.324557192025,-5.77396211652876,-7.105427357601E-15),(650.466692815756,-5.77396211652876,-7.105427357601E-15),(643.395625003891,-8.70289430466346,-1.4210854715202E-14),(973.893861197055,-98.7028943046644,-2.1316282072803E-14),(813.2710659556,-98.7028943046644,29.9999998561361),(388.582463576323,98.2971056953356,60.),(303.644743100473,11.2971056953365,46.7512689719994),(296.573675288608,8.36817350720185,46.3052386874034),(310.715810912339,8.36817350720185,46.3052386874034),(293.644743100473,1.29710569533654,45.2284263251027),(313.644743100473,1.29710569533654,45.2284263251027),(813.2710659556,98.2971056953356,60.),(938.268209135976,98.2971056953356,59.9999999999999),(643.395625003891,11.2971056953365,46.7512689719993),(636.324557192025,8.36817350720185,46.3052386874034),(650.466692815756,8.36817350720185,46.3052386874034),(633.395625003891,1.29710569533654,45.2284263251027),(653.395625003891,1.29710569533654,45.2284263251027),(296.573675288608,-5.77396211652876,44.151613962802),(310.715810912339,-5.77396211652876,44.151613962802),(303.644743100473,-8.70289430466346,43.7055836782061),(636.324557192025,-5.77396211652876,44.151613962802),(650.466692815756,-5.77396211652876,44.151613962802),(643.395625003891,-8.70289430466346,43.705583678206),(813.2710659556,-98.7028943046644,59.9999999999999),(913.893861197055,-98.7028943046644,59.9999999999999)));
#194=IFCPOLYGONALFACESET(#193,.T.,(#40,#41,#42,#43,#44,#45,#46,#47,#48,#49,#50,#51,#52,#53,#54,#55,#56,#57,#58,#59,#60,#61,#62,#63,#64,#65,#66,#67,#68,#69,#70,#71,#72,#73,#74,#75,#76,#77,#78,#79,#80,#81,#82,#83,#84,#85,#86,#87,#88,#89,#90,#91,#92,#93,#94,#95,#96,#97,#98,#99,#100,#101,#102,#103,#104,#105,#106,#107,#108,#109,#110,#111,#112,#113,#114,#115,#116,#117,#118,#119,#120,#121,#122,#123,#124,#125,#126,#127,#128,#129,#130,#131,#132,#133,#134,#135,#136,#137,#138,#139,#140,#141,#142,#143,#144,#145,#146,#147,#148,#149,#150,#151,#152,#153,#154,#155,#156,#157,#158,#159,#160,#161,#162,#163,#164,#165,#166,#167,#168,#169,#170,#171,#172,#173,#174,#175,#176,#177,#178,#179,#180,#181,#182,#183,#184,#185,#186,#187,#188,#189,#190,#191,#192),$);
#195=IFCSHAPEREPRESENTATION(#12,'Body','Tessellation',(#194));
#196=IFCPRODUCTDEFINITIONSHAPE($,$,(#195));
#197=IFCBUILDINGELEMENTPROXY('21gkUxzCL19foPggqJVmoD',$,'inner_beams_2_0_cutter_0',$,$,$,#210,$,$);
#198=IFCRELCONTAINEDINSPATIALSTRUCTURE('1r_6zi$Dz9NBh5IK12RH6Z',$,$,$,(#197),#22);
#199=IFCINDEXEDPOLYGONALFACE((1,2,6,5));
#200=IFCINDEXEDPOLYGONALFACE((2,3,7,6));
#201=IFCINDEXEDPOLYGONALFACE((3,4,8,7));
#202=IFCINDEXEDPOLYGONALFACE((4,1,5,8));
#203=IFCINDEXEDPOLYGONALFACE((1,4,3));
#204=IFCINDEXEDPOLYGONALFACE((3,2,1));
#205=IFCINDEXEDPOLYGONALFACE((8,5,6));
#206=IFCINDEXEDPOLYGONALFACE((6,7,8));
#207=IFCCARTESIANPOINTLIST3D(((813.2710659556,98.2971056953365,60.),(-885.48334356149,98.2971056953365,60.0000000000003),(-885.48334356149,-110.233500304663,28.2440700000003),(813.2710659556,-110.233500304663,28.2440700000001),(813.2710659556,91.5643843360753,104.211536713799),(-885.483343561489,91.5643843360753,104.211536713799),(-885.483343561489,-116.966221663925,72.4556067137993),(813.2710659556,-116.966221663924,72.4556067137991)));
#208=IFCPOLYGONALFACESET(#207,.T.,(#199,#200,#201,#202,#203,#204,#205,#206),$);
#209=IFCSHAPEREPRESENTATION(#12,'Body','Tessellation',(#208));
#210=IFCPRODUCTDEFINITIONSHAPE($,$,(#209));
#211=IFCBUILDINGELEMENTPROXY('2Or4vnFKb70PztU_wC74Ck',$,'inner_beams_2_0_cutter_1',$,$,$,#236,$,$);
#212=IFCRELCONTAINEDINSPATIALSTRUCTURE('3uHRSD$SfApuIRZoBP5MWZ',$,$,$,(#211),#22);
#213=IFCINDEXEDPOLYGONALFACE((1,2,10,9));
#214=IFCINDEXEDPOLYGONALFACE((2,3,11,10));
#215=IFCINDEXEDPOLYGONALFACE((3,4,12,11));
#216=IFCINDEXEDPOLYGONALFACE((4,5,13,12));
#217=IFCINDEXEDPOLYGONALFACE((5,6,14,13));
#218=IFCINDEXEDPOLYGONALFACE((6,7,15,14));
#219=IFCINDEXEDPOLYGONALFACE((7,8,16,15));
#220=IFCINDEXEDPOLYGONALFACE((8,1,9,16));
#221=IFCINDEXEDPOLYGONALFACE((1,8,7));
#222=IFCINDEXEDPOLYGONALFACE((7,6,5));
#223=IFCINDEXEDPOLYGONALFACE((5,4,3));
#224=IFCINDEXEDPOLYGONALFACE((3,2,1));
#225=IFCINDEXEDPOLYGONALFACE((1,7,5));
#226=IFCINDEXEDPOLYGONALFACE((5,3,1));
#227=IFCINDEXEDPOLYGONALFACE((16,9,10));
#228=IFCINDEXEDPOLYGONALFACE((10,11,12));
#229=IFCINDEXEDPOLYGONALFACE((12,13,14));
#230=IFCINDEXEDPOLYGONALFACE((14,15,16));
#231=IFCINDEXEDPOLYGONALFACE((16,10,12));
#232=IFCINDEXEDPOLYGONALFACE((12,14,16));
#233=IFCCARTESIANPOINTLIST3D(((643.395625003891,-8.70289430466348,140.),(636.324557192026,-5.77396211652879,140.),(633.395625003891,1.29710569533652,140.),(636.324557192026,8.36817350720182,140.),(643.395625003891,11.2971056953365,140.),(650.466692815757,8.36817350720182,140.),(653.395625003891,1.29710569533652,140.),(650.466692815757,-5.77396211652879,140.),(643.395625003891,-8.70289430466351,-19.9999999999999),(636.324557192026,-5.77396211652881,-19.9999999999999),(633.395625003891,1.29710569533649,-19.9999999999999),(636.324557192026,8.3681735072018,-19.9999999999999),(643.395625003891,11.2971056953365,-19.9999999999999),(650.466692815757,8.3681735072018,-19.9999999999999),(653.395625003891,1.29710569533649,-19.9999999999999),(650.466692815757,-5.77396211652881,-19.9999999999999)));
#234=IFCPOLYGONALFACESET(#233,.T.,(#213,#214,#215,#216,#217,#218,#219,#220,#221,#222,#223,#224,#225,#226,#227,#228,#229,#230,#231,#232),$);
#235=IFCSHAPEREPRESENTATION(#12,'Body','Tessellation',(#234));
#236=IFCPRODUCTDEFINITIONSHAPE($,$,(#235));
#237=IFCBUILDINGELEMENTPROXY('0P64acE4fESBh47egKju8D',$,'inner_beams_2_0_cutter_2',$,$,$,#262,$,$);
#238=IFCRELCONTAINEDINSPATIALSTRUCTURE('2yyMtiB5bDRujXCO1LA6Xi',$,$,$,(#237),#22);
#239=IFCINDEXEDPOLYGONALFACE((1,2,10,9));
#240=IFCINDEXEDPOLYGONALFACE((2,3,11,10));
#241=IFCINDEXEDPOLYGONALFACE((3,4,12,11));
#242=IFCINDEXEDPOLYGONALFACE((4,5,13,12));
#243=IFCINDEXEDPOLYGONALFACE((5,6,14,13));
#244=IFCINDEXEDPOLYGONALFACE((6,7,15,14));
#245=IFCINDEXEDPOLYGONALFACE((7,8,16,15));
#246=IFCINDEXEDPOLYGONALFACE((8,1,9,16));
#247=IFCINDEXEDPOLYGONALFACE((1,8,7));
#248=IFCINDEXEDPOLYGONALFACE((7,6,5));
#249=IFCINDEXEDPOLYGONALFACE((5,4,3));
#250=IFCINDEXEDPOLYGONALFACE((3,2,1));
#251=IFCINDEXEDPOLYGONALFACE((1,7,5));
#252=IFCINDEXEDPOLYGONALFACE((5,3,1));
#253=IFCINDEXEDPOLYGONALFACE((16,9,10));
#254=IFCINDEXEDPOLYGONALFACE((10,11,12));
#255=IFCINDEXEDPOLYGONALFACE((12,13,14));
#256=IFCINDEXEDPOLYGONALFACE((14,15,16));
#257=IFCINDEXEDPOLYGONALFACE((16,10,12));
#258=IFCINDEXEDPOLYGONALFACE((12,14,16));
#259=IFCCARTESIANPOINTLIST3D(((303.644743100473,-8.70289430466349,140.),(296.573675288608,-5.7739621165288,140.),(293.644743100473,1.29710569533651,140.),(296.573675288608,8.36817350720181,140.),(303.644743100473,11.2971056953365,140.),(310.715810912339,8.36817350720181,140.),(313.644743100473,1.29710569533651,140.),(310.715810912339,-5.7739621165288,140.),(303.644743100473,-8.70289430466352,-19.9999999999999),(296.573675288608,-5.77396211652882,-19.9999999999999),(293.644743100473,1.29710569533648,-19.9999999999999),(296.573675288608,8.36817350720179,-19.9999999999999),(303.644743100473,11.2971056953365,-19.9999999999999),(310.715810912339,8.36817350720179,-19.9999999999999),(313.644743100473,1.29710569533648,-19.9999999999999),(310.715810912339,-5.77396211652882,-19.9999999999999)));
#260=IFCPOLYGONALFACESET(#259,.T.,(#239,#240,#241,#242,#243,#244,#245,#246,#247,#248,#249,#250,#251,#252,#253,#254,#255,#256,#257,#258),$);
#261=IFCSHAPEREPRESENTATION(#12,'Body','Tessellation',(#260));
#262=IFCPRODUCTDEFINITIONSHAPE($,$,(#261));
#263=IFCBUILDINGELEMENTPROXY('2BjKtmmZTFLfNbjNIlz9ua',$,'inner_beams_2_0_cutter_3',$,$,$,#288,$,$);
#264=IFCRELCONTAINEDINSPATIALSTRUCTURE('2cnlHBkTLEnu3JZDm5sale',$,$,$,(#263),#22);
#265=IFCINDEXEDPOLYGONALFACE((1,2,10,9));
#266=IFCINDEXEDPOLYGONALFACE((2,3,11,10));
#267=IFCINDEXEDPOLYGONALFACE((3,4,12,11));
#268=IFCINDEXEDPOLYGONALFACE((4,5,13,12));
#269=IFCINDEXEDPOLYGONALFACE((5,6,14,13));
#270=IFCINDEXEDPOLYGONALFACE((6,7,15,14));
#271=IFCINDEXEDPOLYGONALFACE((7,8,16,15));
#272=IFCINDEXEDPOLYGONALFACE((8,1,9,16));
#273=IFCINDEXEDPOLYGONALFACE((1,8,7));
#274=IFCINDEXEDPOLYGONALFACE((7,6,5));
#275=IFCINDEXEDPOLYGONALFACE((5,4,3));
#276=IFCINDEXEDPOLYGONALFACE((3,2,1));
#277=IFCINDEXEDPOLYGONALFACE((1,7,5));
#278=IFCINDEXEDPOLYGONALFACE((5,3,1));
#279=IFCINDEXEDPOLYGONALFACE((16,9,10));
#280=IFCINDEXEDPOLYGONALFACE((10,11,12));
#281=IFCINDEXEDPOLYGONALFACE((12,13,14));
#282=IFCINDEXEDPOLYGONALFACE((14,15,16));
#283=IFCINDEXEDPOLYGONALFACE((16,10,12));
#284=IFCINDEXEDPOLYGONALFACE((12,14,16));
#285=IFCCARTESIANPOINTLIST3D(((-36.1061388029447,-8.7028943046635,140.),(-43.1772066148102,-5.77396211652881,140.),(-46.1061388029447,1.2971056953365,140.),(-43.1772066148102,8.3681735072018,140.),(-36.1061388029447,11.2971056953365,140.),(-29.0350709910792,8.3681735072018,140.),(-26.1061388029447,1.2971056953365,140.),(-29.0350709910792,-5.77396211652881,140.),(-36.1061388029447,-8.70289430466353,-19.9999999999998),(-43.1772066148102,-5.77396211652883,-19.9999999999998),(-46.1061388029447,1.29710569533647,-19.9999999999998),(-43.1772066148102,8.36817350720178,-19.9999999999998),(-36.1061388029447,11.2971056953365,-19.9999999999998),(-29.0350709910792,8.36817350720178,-19.9999999999998),(-26.1061388029447,1.29710569533647,-19.9999999999998),(-29.0350709910792,-5.77396211652883,-19.9999999999998)));
#286=IFCPOLYGONALFACESET(#285,.T.,(#265,#266,#267,#268,#269,#270,#271,#272,#273,#274,#275,#276,#277,#278,#279,#280,#281,#282,#283,#284),$);
#287=IFCSHAPEREPRESENTATION(#12,'Body','Tessellation',(#286));
#288=IFCPRODUCTDEFINITIONSHAPE($,$,(#287));
#289=IFCBUILDINGELEMENTPROXY('12lVWYfwj9ivRe4TX6b1Ji',$,'inner_beams_2_0_cutter_4',$,$,$,#314,$,$);
#290=IFCRELCONTAINEDINSPATIALSTRUCTURE('3X3bNwMzb61RcYD4N44ARP',$,$,$,(#289),#22);
#291=IFCINDEXEDPOLYGONALFACE((1,2,10,9));
#292=IFCINDEXEDPOLYGONALFACE((2,3,11,10));
#293=IFCINDEXEDPOLYGONALFACE((3,4,12,11));
#294=IFCINDEXEDPOLYGONALFACE((4,5,13,12));
#295=IFCINDEXEDPOLYGONALFACE((5,6,14,13));
#296=IFCINDEXEDPOLYGONALFACE((6,7,15,14));
#297=IFCINDEXEDPOLYGONALFACE((7,8,16,15));
#298=IFCINDEXEDPOLYGONALFACE((8,1,9,16));
#299=IFCINDEXEDPOLYGONALFACE((1,8,7));
#300=IFCINDEXEDPOLYGONALFACE((7,6,5));
#301=IFCINDEXEDPOLYGONALFACE((5,4,3));
#302=IFCINDEXEDPOLYGONALFACE((3,2,1));
#303=IFCINDEXEDPOLYGONALFACE((1,7,5));
#304=IFCINDEXEDPOLYGONALFACE((5,3,1));
#305=IFCINDEXEDPOLYGONALFACE((16,9,10));
#306=IFCINDEXEDPOLYGONALFACE((10,11,12));
#307=IFCINDEXEDPOLYGONALFACE((12,13,14));
#308=IFCINDEXEDPOLYGONALFACE((14,15,16));
#309=IFCINDEXEDPOLYGONALFACE((16,10,12));
#310=IFCINDEXEDPOLYGONALFACE((12,14,16));
#311=IFCCARTESIANPOINTLIST3D(((-375.857020706363,-8.70289430466351,140.),(-382.928088518228,-5.77396211652882,140.),(-385.857020706363,1.29710569533649,140.),(-382.928088518228,8.36817350720179,140.),(-375.857020706363,11.2971056953365,140.),(-368.785952894497,8.36817350720179,140.),(-365.857020706363,1.29710569533649,140.),(-368.785952894497,-5.77396211652882,140.),(-375.857020706363,-8.70289430466354,-19.9999999999998),(-382.928088518228,-5.77396211652884,-19.9999999999998),(-385.857020706363,1.29710569533646,-19.9999999999998),(-382.928088518228,8.36817350720177,-19.9999999999998),(-375.857020706363,11.2971056953365,-19.9999999999998),(-368.785952894497,8.36817350720177,-19.9999999999998),(-365.857020706363,1.29710569533646,-19.9999999999998),(-368.785952894497,-5.77396211652884,-19.9999999999998)));
#312=IFCPOLYGONALFACESET(#311,.T.,(#291,#292,#293,#294,#295,#296,#297,#298,#299,#300,#301,#302,#303,#304,#305,#306,#307,#308,#309,#310),$);
#313=IFCSHAPEREPRESENTATION(#12,'Body','Tessellation',(#312));
#314=IFCPRODUCTDEFINITIONSHAPE($,$,(#313));
#315=IFCBUILDINGELEMENTPROXY('21pa6AbCb83u2uL37c9MlV',$,'inner_beams_2_0_cutter_5',$,$,$,#340,$,$);
#316=IFCRELCONTAINEDINSPATIALSTRUCTURE('2qMsgJAz9568fvCzCxWXvH',$,$,$,(#315),#22);
#317=IFCINDEXEDPOLYGONALFACE((1,2,10,9));
#318=IFCINDEXEDPOLYGONALFACE((2,3,11,10));
#319=IFCINDEXEDPOLYGONALFACE((3,4,12,11));
#320=IFCINDEXEDPOLYGONALFACE((4,5,13,12));
#321=IFCINDEXEDPOLYGONALFACE((5,6,14,13));
#322=IFCINDEXEDPOLYGONALFACE((6,7,15,14));
#323=IFCINDEXEDPOLYGONALFACE((7,8,16,15));
#324=IFCINDEXEDPOLYGONALFACE((8,1,9,16));
#325=IFCINDEXEDPOLYGONALFACE((1,8,7));
#326=IFCINDEXEDPOLYGONALFACE((7,6,5));
#327=IFCINDEXEDPOLYGONALFACE((5,4,3));
#328=IFCINDEXEDPOLYGONALFACE((3,2,1));
#329=IFCINDEXEDPOLYGONALFACE((1,7,5));
#330=IFCINDEXEDPOLYGONALFACE((5,3,1));
#331=IFCINDEXEDPOLYGONALFACE((16,9,10));
#332=IFCINDEXEDPOLYGONALFACE((10,11,12));
#333=IFCINDEXEDPOLYGONALFACE((12,13,14));
#334=IFCINDEXEDPOLYGONALFACE((14,15,16));
#335=IFCINDEXEDPOLYGONALFACE((16,10,12));
#336=IFCINDEXEDPOLYGONALFACE((12,14,16));
#337=IFCCARTESIANPOINTLIST3D(((-715.60790260978,-8.70289430466352,140.),(-722.678970421646,-5.77396211652883,140.),(-725.60790260978,1.29710569533648,140.),(-722.678970421646,8.36817350720178,140.),(-715.60790260978,11.2971056953365,140.),(-708.536834797915,8.36817350720178,140.),(-705.60790260978,1.29710569533648,140.),(-708.536834797915,-5.77396211652883,140.),(-715.60790260978,-8.70289430466355,-19.9999999999997),(-722.678970421646,-5.77396211652885,-19.9999999999997),(-725.60790260978,1.29710569533645,-19.9999999999997),(-722.678970421646,8.36817350720176,-19.9999999999998),(-715.60790260978,11.2971056953365,-19.9999999999998),(-708.536834797915,8.36817350720176,-19.9999999999998),(-705.60790260978,1.29710569533645,-19.9999999999998),(-708.536834797915,-5.77396211652885,-19.9999999999997)));
#338=IFCPOLYGONALFACESET(#337,.T.,(#317,#318,#319,#320,#321,#322,#323,#324,#325,#326,#327,#328,#329,#330,#331,#332,#333,#334,#335,#336),$);
#339=IFCSHAPEREPRESENTATION(#12,'Body','Tessellation',(#338));
#340=IFCPRODUCTDEFINITIONSHAPE($,$,(#339));
ENDSEC;
END-ISO-10303-21;
