# OBJ
# COMPAS
# version: 2.15.1
# precision: 3
# V F E: 18 32 48

o inner_ribs_0_0_preview
v 1753.155 934.529 60.000
v -966.845 -920.618 60.000
v -1255.330 -276.367 60.000
v -591.769 -45.558 60.000
v -104.624 149.611 60.000
v 368.341 365.572 60.000
v 827.126 602.324 60.000
v 1271.730 859.867 60.000
v 1641.148 1098.753 60.000
v 1762.525 940.920 -0.000
v -957.475 -914.227 -0.000
v -1245.960 -269.976 -0.000
v -582.399 -39.167 -0.000
v -95.254 156.002 -0.000
v 377.711 371.963 -0.000
v 836.496 608.715 -0.000
v 1281.100 866.258 -0.000
v 1650.518 1105.143 -0.000
f 1 9 8
f 4 3 2
f 2 1 8
f 5 4 2
f 2 8 7
f 6 5 2
f 2 7 6
f 18 10 11
f 11 12 13
f 17 18 11
f 11 13 14
f 16 17 11
f 11 14 15
f 15 16 11
f 10 1 2
f 2 11 10
f 11 2 3
f 3 12 11
f 12 3 4
f 4 13 12
f 13 4 5
f 5 14 13
f 14 5 6
f 6 15 14
f 15 6 7
f 7 16 15
f 16 7 8
f 8 17 16
f 17 8 9
f 9 18 17
f 18 9 1
f 1 10 18
