ISO-10303-21;
HEADER;
FILE_DESCRIPTION(('ViewDefinition [CoordinationView]'),'2;1');
FILE_NAME('','2026-08-20T14:42:03',(''),(''),'IfcOpenShell 0.8.4-e8eb5e4','IfcOpenShell 0.8.4-e8eb5e4','');
FILE_SCHEMA(('IFC4'));
ENDSEC;
DATA;
#1=IFCPROJECT('3LsDplEf1AQfYqOHpHUyaL',$,'Default Project',$,$,$,$,(#11),#6);
#2=IFCSIUNIT(*,.LENGTHUNIT.,.MILLI.,.METRE.);
#3=IFCSIUNIT(*,.AREAUNIT.,.MILLI.,.SQUARE_METRE.);
#4=IFCSIUNIT(*,.VOLUMEUNIT.,.MILLI.,.CUBIC_METRE.);
#5=IFCSIUNIT(*,.PLANEANGLEUNIT.,$,.RADIAN.);
#6=IFCUNITASSIGNMENT((#2,#3,#4,#5));
#7=IFCCARTESIANPOINT((0.,0.,0.));
#8=IFCDIRECTION((0.,0.,1.));
#9=IFCDIRECTION((1.,0.,0.));
#10=IFCAXIS2PLACEMENT3D(#7,#8,#9);
#11=IFCGEOMETRICREPRESENTATIONCONTEXT($,'Model',3,1.E-05,#10,$);
#12=IFCGEOMETRICREPRESENTATIONSUBCONTEXT('Body','Model',*,*,*,*,#11,$,.MODEL_VIEW.,$);
#13=IFCPERSON($,'Unknown Author',$,$,$,$,$,$);
#14=IFCORGANIZATION($,'compas.dev',$,$,$);
#15=IFCPERSONANDORGANIZATION(#13,#14,$);
#16=IFCAPPLICATION(#14,'2.1.0','compas_ifc','compas_ifc v2.1.0');
#17=IFCOWNERHISTORY(#15,#16,$,$,$,$,$,1787229723);
#18=IFCSITE('22CbOAo2nCIRM8$16kmRyT',$,'Default Site',$,$,$,$,$,$,$,$,$,$,$);
#19=IFCRELAGGREGATES('2zGnf5mbr7$9GQmENepWmm',$,$,$,#1,(#18));
#20=IFCBUILDING('3J5AWanXrA8w0WkH1XXU$$',$,'Default Building 1',$,$,$,$,$,$,$,$,$);
#21=IFCRELAGGREGATES('1vGFE1EY93kvsIgZF3zZHs',$,$,$,#18,(#20));
#22=IFCBUILDINGSTOREY('34vj9aJ0LDLuIyOQiDx98F',$,'Default Storey 1',$,$,$,$,$,$,$);
#23=IFCRELAGGREGATES('1GXRKoXZH6kvndpcW8Q8cB',$,$,$,#20,(#22));
#24=IFCBUILDINGELEMENTPROXY('3ymC$S9WD6yx2pEc8D03mU',$,'inner_beams_1_0_uncut',$,$,$,#37,$,$);
#25=IFCRELCONTAINEDINSPATIALSTRUCTURE('3fDvJF0LnFJxEBxNba6kI5',$,$,$,(#24),#22);
#26=IFCINDEXEDPOLYGONALFACE((1,2,6,5));
#27=IFCINDEXEDPOLYGONALFACE((2,3,7,6));
#28=IFCINDEXEDPOLYGONALFACE((3,4,8,7));
#29=IFCINDEXEDPOLYGONALFACE((4,1,5,8));
#30=IFCINDEXEDPOLYGONALFACE((1,4,3));
#31=IFCINDEXEDPOLYGONALFACE((3,2,1));
#32=IFCINDEXEDPOLYGONALFACE((8,5,6));
#33=IFCINDEXEDPOLYGONALFACE((6,7,8));
#34=IFCCARTESIANPOINTLIST3D(((370.349982053125,-509.650017946875,59.9999999999999),(-509.650017946875,370.349982053125,60.),(-358.162808083668,497.462843977418,77.235266714607),(497.462843977417,-358.162808083667,77.2352667146071),(412.776388924318,-552.076424818067,5.96638671257313E-14),(-552.076424818068,412.776388924318,-1.606043809599E-13),(-412.776388924318,552.076424818068,8.8880149035489E-15),(552.076424818068,-412.776388924318,1.7825875459479E-15)));
#35=IFCPOLYGONALFACESET(#34,.T.,(#26,#27,#28,#29,#30,#31,#32,#33),$);
#36=IFCSHAPEREPRESENTATION(#12,'Body','Tessellation',(#35));
#37=IFCPRODUCTDEFINITIONSHAPE($,$,(#36));
#38=IFCBUILDINGELEMENTPROXY('2iytFu4WH0QP159qr46Qgo',$,'inner_beams_1_0_cut',$,$,$,#138,$,$);
#39=IFCRELCONTAINEDINSPATIALSTRUCTURE('3iQIxLqBz8Dev_Vz1DJqrb',$,$,$,(#38),#22);
#40=IFCINDEXEDPOLYGONALFACE((19,2,1,18));
#41=IFCINDEXEDPOLYGONALFACE((1,5,18));
#42=IFCINDEXEDPOLYGONALFACE((1,4,5));
#43=IFCINDEXEDPOLYGONALFACE((1,31,4));
#44=IFCINDEXEDPOLYGONALFACE((9,7,4));
#45=IFCINDEXEDPOLYGONALFACE((10,8,7));
#46=IFCINDEXEDPOLYGONALFACE((9,4,53));
#47=IFCINDEXEDPOLYGONALFACE((9,10,7));
#48=IFCINDEXEDPOLYGONALFACE((18,5,6));
#49=IFCINDEXEDPOLYGONALFACE((18,6,16));
#50=IFCINDEXEDPOLYGONALFACE((18,16,17));
#51=IFCINDEXEDPOLYGONALFACE((18,17,23));
#52=IFCINDEXEDPOLYGONALFACE((23,22,8));
#53=IFCINDEXEDPOLYGONALFACE((23,17,22));
#54=IFCINDEXEDPOLYGONALFACE((18,23,59));
#55=IFCINDEXEDPOLYGONALFACE((10,23,8));
#56=IFCINDEXEDPOLYGONALFACE((18,59,45));
#57=IFCINDEXEDPOLYGONALFACE((31,53,4));
#58=IFCINDEXEDPOLYGONALFACE((27,30,28));
#59=IFCINDEXEDPOLYGONALFACE((31,27,53));
#60=IFCINDEXEDPOLYGONALFACE((27,34,29));
#61=IFCINDEXEDPOLYGONALFACE((27,29,30));
#62=IFCINDEXEDPOLYGONALFACE((31,34,27));
#63=IFCINDEXEDPOLYGONALFACE((31,35,34));
#64=IFCINDEXEDPOLYGONALFACE((31,46,35));
#65=IFCINDEXEDPOLYGONALFACE((42,28,43));
#66=IFCINDEXEDPOLYGONALFACE((59,42,45));
#67=IFCINDEXEDPOLYGONALFACE((28,30,43));
#68=IFCINDEXEDPOLYGONALFACE((42,43,45));
#69=IFCINDEXEDPOLYGONALFACE((18,45,46));
#70=IFCINDEXEDPOLYGONALFACE((46,36,35));
#71=IFCINDEXEDPOLYGONALFACE((46,44,36));
#72=IFCINDEXEDPOLYGONALFACE((46,45,44));
#73=IFCINDEXEDPOLYGONALFACE((2,19,21,3,33,49,47,32));
#74=IFCINDEXEDPOLYGONALFACE((1,2,32,31));
#75=IFCINDEXEDPOLYGONALFACE((19,18,46,47,49,48,20,21));
#76=IFCINDEXEDPOLYGONALFACE((32,47,46,31));
#77=IFCINDEXEDPOLYGONALFACE((3,14,12));
#78=IFCINDEXEDPOLYGONALFACE((3,11,14));
#79=IFCINDEXEDPOLYGONALFACE((3,24,11));
#80=IFCINDEXEDPOLYGONALFACE((54,12,13));
#81=IFCINDEXEDPOLYGONALFACE((55,13,15));
#82=IFCINDEXEDPOLYGONALFACE((54,13,55));
#83=IFCINDEXEDPOLYGONALFACE((55,15,57));
#84=IFCINDEXEDPOLYGONALFACE((54,3,12));
#85=IFCINDEXEDPOLYGONALFACE((25,26,20));
#86=IFCINDEXEDPOLYGONALFACE((24,20,26));
#87=IFCINDEXEDPOLYGONALFACE((3,20,24));
#88=IFCINDEXEDPOLYGONALFACE((57,15,25));
#89=IFCINDEXEDPOLYGONALFACE((60,25,20));
#90=IFCINDEXEDPOLYGONALFACE((62,20,52));
#91=IFCINDEXEDPOLYGONALFACE((57,25,60));
#92=IFCINDEXEDPOLYGONALFACE((62,60,20));
#93=IFCINDEXEDPOLYGONALFACE((61,39,38));
#94=IFCINDEXEDPOLYGONALFACE((61,41,39));
#95=IFCINDEXEDPOLYGONALFACE((54,56,33));
#96=IFCINDEXEDPOLYGONALFACE((56,58,33));
#97=IFCINDEXEDPOLYGONALFACE((58,61,33));
#98=IFCINDEXEDPOLYGONALFACE((38,40,33));
#99=IFCINDEXEDPOLYGONALFACE((40,37,33));
#100=IFCINDEXEDPOLYGONALFACE((37,48,33));
#101=IFCINDEXEDPOLYGONALFACE((61,38,33));
#102=IFCINDEXEDPOLYGONALFACE((62,51,61));
#103=IFCINDEXEDPOLYGONALFACE((61,51,41));
#104=IFCINDEXEDPOLYGONALFACE((62,52,51));
#105=IFCINDEXEDPOLYGONALFACE((52,20,48));
#106=IFCINDEXEDPOLYGONALFACE((37,50,48));
#107=IFCINDEXEDPOLYGONALFACE((50,52,48));
#108=IFCINDEXEDPOLYGONALFACE((54,33,3));
#109=IFCINDEXEDPOLYGONALFACE((7,13,12,4));
#110=IFCINDEXEDPOLYGONALFACE((14,5,4,12));
#111=IFCINDEXEDPOLYGONALFACE((11,6,5,14));
#112=IFCINDEXEDPOLYGONALFACE((7,8,15,13));
#113=IFCINDEXEDPOLYGONALFACE((21,20,3));
#114=IFCINDEXEDPOLYGONALFACE((25,15,8,22));
#115=IFCINDEXEDPOLYGONALFACE((16,6,11,24));
#116=IFCINDEXEDPOLYGONALFACE((22,17,26,25));
#117=IFCINDEXEDPOLYGONALFACE((26,17,16,24));
#118=IFCINDEXEDPOLYGONALFACE((29,34,38,39));
#119=IFCINDEXEDPOLYGONALFACE((40,38,34,35));
#120=IFCINDEXEDPOLYGONALFACE((41,30,29,39));
#121=IFCINDEXEDPOLYGONALFACE((40,35,36,37));
#122=IFCINDEXEDPOLYGONALFACE((49,33,48));
#123=IFCINDEXEDPOLYGONALFACE((43,30,41,51));
#124=IFCINDEXEDPOLYGONALFACE((36,44,50,37));
#125=IFCINDEXEDPOLYGONALFACE((52,45,43,51));
#126=IFCINDEXEDPOLYGONALFACE((45,52,50,44));
#127=IFCINDEXEDPOLYGONALFACE((53,54,55,9));
#128=IFCINDEXEDPOLYGONALFACE((56,54,53,27));
#129=IFCINDEXEDPOLYGONALFACE((57,10,9,55));
#130=IFCINDEXEDPOLYGONALFACE((27,28,58,56));
#131=IFCINDEXEDPOLYGONALFACE((60,23,10,57));
#132=IFCINDEXEDPOLYGONALFACE((61,58,28,42));
#133=IFCINDEXEDPOLYGONALFACE((60,62,59,23));
#134=IFCINDEXEDPOLYGONALFACE((42,59,62,61));
#135=IFCCARTESIANPOINTLIST3D(((-412.776388924318,552.076424818068,0.),(-358.162808083668,497.462843977418,77.235266714607),(-298.14121359948,436.381092108417,77.1696813212886),(-236.978116064032,252.703421074566,-1.13686837721616E-13),(-244.049183875898,255.6323532627,-1.13686837721616E-13),(-251.120251687763,252.703421074566,-1.13686837721616E-13),(-234.049183875898,245.6323532627,0.),(-236.978116064032,238.561285450834,0.),(0.791584693401091,10.7915846934011,-1.13686837721616E-13),(-6.27948311846421,7.86265250526662,-1.13686837721616E-13),(-251.120251687763,252.703421074566,53.6873523818427),(-236.978116064032,252.703421074566,56.1174583221658),(-234.049183875898,245.6323532627,55.4056967712469),(-244.049183875898,255.6323532627,55.4056967712469),(-236.978116064032,238.561285450834,53.6873523818427),(-254.049183875898,245.6323532627,-1.13686837721616E-13),(-251.120251687763,238.561285450835,-1.13686837721616E-13),(-552.076424818068,412.776388924318,-1.13686837721616E-13),(-509.650017946875,370.349982053125,60.),(-436.911170800824,297.611134907074,29.4787658463312),(-436.911170800824,297.611134907074,60.),(-244.049183875898,235.6323532627,0.),(-9.20841530659891,0.791584693401546,-1.13686837721616E-13),(-254.049183875898,245.6323532627,51.9690079924386),(-244.049183875898,235.6323532627,51.9690079924386),(-251.120251687763,238.561285450835,51.2572464415197),(10.7915846934011,0.791584693401091,-1.13686837721616E-13),(7.86265250526685,-6.27948311846421,-1.13686837721616E-13),(245.6323532627,-234.049183875898,1.13686837721616E-13),(238.561285450835,-236.978116064032,0.),(552.076424818068,-412.776388924318,0.),(497.462843977417,-358.162808083667,77.2352667146071),(436.381092108416,-298.14121359948,77.1696813212886),(252.703421074566,-236.978116064032,0.),(255.6323532627,-244.049183875898,0.),(252.703421074566,-251.120251687763,0.),(252.703421074566,-251.120251687763,53.6873523818427),(252.703421074565,-236.978116064032,56.1174583221658),(245.6323532627,-234.049183875898,55.4056967712469),(255.6323532627,-244.049183875898,55.405696771247),(238.561285450834,-236.978116064032,53.6873523818427),(0.791584693401091,-9.20841530659845,-1.13686837721616E-13),(235.6323532627,-244.049183875897,1.13686837721616E-13),(245.6323532627,-254.049183875897,0.),(238.561285450834,-251.120251687763,0.),(412.776388924317,-552.076424818068,1.13686837721616E-13),(370.349982053125,-509.650017946875,60.),(297.611134907073,-436.911170800823,29.4787658463313),(297.611134907073,-436.911170800823,60.),(245.6323532627,-254.049183875897,51.9690079924386),(235.6323532627,-244.049183875897,51.9690079924386),(238.561285450834,-251.120251687763,51.2572464415198),(7.86265250526662,7.86265250526685,-1.13686837721616E-13),(7.86265250526662,7.86265250526685,56.1174583221658),(0.791584693401091,10.7915846934011,55.4056967712469),(10.7915846934011,0.791584693401091,55.4056967712469),(-6.27948311846421,7.86265250526662,53.6873523818427),(7.86265250526685,-6.27948311846421,53.6873523818427),(-6.27948311846467,-6.27948311846421,-1.13686837721616E-13),(-9.20841530659891,0.791584693401546,51.9690079924386),(0.791584693401091,-9.20841530659845,51.9690079924386),(-6.27948311846467,-6.27948311846421,51.2572464415197)));
#136=IFCPOLYGONALFACESET(#135,.T.,(#40,#41,#42,#43,#44,#45,#46,#47,#48,#49,#50,#51,#52,#53,#54,#55,#56,#57,#58,#59,#60,#61,#62,#63,#64,#65,#66,#67,#68,#69,#70,#71,#72,#73,#74,#75,#76,#77,#78,#79,#80,#81,#82,#83,#84,#85,#86,#87,#88,#89,#90,#91,#92,#93,#94,#95,#96,#97,#98,#99,#100,#101,#102,#103,#104,#105,#106,#107,#108,#109,#110,#111,#112,#113,#114,#115,#116,#117,#118,#119,#120,#121,#122,#123,#124,#125,#126,#127,#128,#129,#130,#131,#132,#133,#134),$);
#137=IFCSHAPEREPRESENTATION(#12,'Body','Tessellation',(#136));
#138=IFCPRODUCTDEFINITIONSHAPE($,$,(#137));
#139=IFCBUILDINGELEMENTPROXY('0x5h1nvNjFPR$huF_1Cz5v',$,'inner_beams_1_0_cutter_0',$,$,$,#152,$,$);
#140=IFCRELCONTAINEDINSPATIALSTRUCTURE('2dGaugoWv0IfF2YCLYHbTn',$,$,$,(#139),#22);
#141=IFCINDEXEDPOLYGONALFACE((1,2,6,5));
#142=IFCINDEXEDPOLYGONALFACE((2,3,7,6));
#143=IFCINDEXEDPOLYGONALFACE((3,4,8,7));
#144=IFCINDEXEDPOLYGONALFACE((4,1,5,8));
#145=IFCINDEXEDPOLYGONALFACE((1,4,3));
#146=IFCINDEXEDPOLYGONALFACE((3,2,1));
#147=IFCINDEXEDPOLYGONALFACE((8,5,6));
#148=IFCINDEXEDPOLYGONALFACE((6,7,8));
#149=IFCCARTESIANPOINTLIST3D(((436.381092108417,-298.14121359948,77.1696813212887),(-298.14121359948,436.381092108417,77.1696813212886),(-443.076446774108,291.445858933789,27.3599523707667),(291.445858933788,-443.076446774108,27.3599523707668),(428.747129656099,-305.775176051798,121.595947088452),(-305.775176051798,428.747129656099,121.595947088451),(-450.710409226427,283.811896481471,71.7862181379296),(283.81189648147,-450.710409226426,71.7862181379297)));
#150=IFCPOLYGONALFACESET(#149,.T.,(#141,#142,#143,#144,#145,#146,#147,#148),$);
#151=IFCSHAPEREPRESENTATION(#12,'Body','Tessellation',(#150));
#152=IFCPRODUCTDEFINITIONSHAPE($,$,(#151));
#153=IFCBUILDINGELEMENTPROXY('2Si5ZUz0P07u03UJlf$qvV',$,'inner_beams_1_0_cutter_1',$,$,$,#178,$,$);
#154=IFCRELCONTAINEDINSPATIALSTRUCTURE('19YSj7BvjALw1GGG8iPorj',$,$,$,(#153),#22);
#155=IFCINDEXEDPOLYGONALFACE((1,2,10,9));
#156=IFCINDEXEDPOLYGONALFACE((2,3,11,10));
#157=IFCINDEXEDPOLYGONALFACE((3,4,12,11));
#158=IFCINDEXEDPOLYGONALFACE((4,5,13,12));
#159=IFCINDEXEDPOLYGONALFACE((5,6,14,13));
#160=IFCINDEXEDPOLYGONALFACE((6,7,15,14));
#161=IFCINDEXEDPOLYGONALFACE((7,8,16,15));
#162=IFCINDEXEDPOLYGONALFACE((8,1,9,16));
#163=IFCINDEXEDPOLYGONALFACE((1,8,7));
#164=IFCINDEXEDPOLYGONALFACE((7,6,5));
#165=IFCINDEXEDPOLYGONALFACE((5,4,3));
#166=IFCINDEXEDPOLYGONALFACE((3,2,1));
#167=IFCINDEXEDPOLYGONALFACE((1,7,5));
#168=IFCINDEXEDPOLYGONALFACE((5,3,1));
#169=IFCINDEXEDPOLYGONALFACE((16,9,10));
#170=IFCINDEXEDPOLYGONALFACE((10,11,12));
#171=IFCINDEXEDPOLYGONALFACE((12,13,14));
#172=IFCINDEXEDPOLYGONALFACE((14,15,16));
#173=IFCINDEXEDPOLYGONALFACE((16,10,12));
#174=IFCINDEXEDPOLYGONALFACE((12,14,16));
#175=IFCCARTESIANPOINTLIST3D(((238.561285450834,-251.120251687763,148.715574274766),(235.6323532627,-244.049183875897,148.715574274766),(238.561285450835,-236.978116064032,148.715574274766),(245.6323532627,-234.049183875898,148.715574274766),(252.703421074565,-236.978116064032,148.715574274766),(255.6323532627,-244.049183875898,148.715574274766),(252.703421074566,-251.120251687763,148.715574274766),(245.6323532627,-254.049183875897,148.715574274766),(238.561285450834,-251.120251687763,-11.2844257252341),(235.6323532627,-244.049183875897,-11.2844257252341),(238.561285450835,-236.978116064032,-11.2844257252341),(245.6323532627,-234.049183875898,-11.2844257252341),(252.703421074565,-236.978116064032,-11.2844257252341),(255.6323532627,-244.049183875898,-11.2844257252341),(252.703421074566,-251.120251687763,-11.2844257252341),(245.6323532627,-254.049183875897,-11.2844257252341)));
#176=IFCPOLYGONALFACESET(#175,.T.,(#155,#156,#157,#158,#159,#160,#161,#162,#163,#164,#165,#166,#167,#168,#169,#170,#171,#172,#173,#174),$);
#177=IFCSHAPEREPRESENTATION(#12,'Body','Tessellation',(#176));
#178=IFCPRODUCTDEFINITIONSHAPE($,$,(#177));
#179=IFCBUILDINGELEMENTPROXY('3fCquzhvX9lO2Ga5MvyKTs',$,'inner_beams_1_0_cutter_2',$,$,$,#204,$,$);
#180=IFCRELCONTAINEDINSPATIALSTRUCTURE('2CtODJ27j8BBRlUCyuuQaO',$,$,$,(#179),#22);
#181=IFCINDEXEDPOLYGONALFACE((1,2,10,9));
#182=IFCINDEXEDPOLYGONALFACE((2,3,11,10));
#183=IFCINDEXEDPOLYGONALFACE((3,4,12,11));
#184=IFCINDEXEDPOLYGONALFACE((4,5,13,12));
#185=IFCINDEXEDPOLYGONALFACE((5,6,14,13));
#186=IFCINDEXEDPOLYGONALFACE((6,7,15,14));
#187=IFCINDEXEDPOLYGONALFACE((7,8,16,15));
#188=IFCINDEXEDPOLYGONALFACE((8,1,9,16));
#189=IFCINDEXEDPOLYGONALFACE((1,8,7));
#190=IFCINDEXEDPOLYGONALFACE((7,6,5));
#191=IFCINDEXEDPOLYGONALFACE((5,4,3));
#192=IFCINDEXEDPOLYGONALFACE((3,2,1));
#193=IFCINDEXEDPOLYGONALFACE((1,7,5));
#194=IFCINDEXEDPOLYGONALFACE((5,3,1));
#195=IFCINDEXEDPOLYGONALFACE((16,9,10));
#196=IFCINDEXEDPOLYGONALFACE((10,11,12));
#197=IFCINDEXEDPOLYGONALFACE((12,13,14));
#198=IFCINDEXEDPOLYGONALFACE((14,15,16));
#199=IFCINDEXEDPOLYGONALFACE((16,10,12));
#200=IFCINDEXEDPOLYGONALFACE((12,14,16));
#201=IFCCARTESIANPOINTLIST3D(((-6.2794831184645,-6.27948311846413,148.715574274766),(-9.20841530659874,0.791584693401632,148.715574274766),(-6.27948311846421,7.86265250526665,148.715574274766),(0.791584693401035,10.7915846934012,148.715574274766),(7.86265250526657,7.86265250526694,148.715574274766),(10.791584693401,0.791584693401177,148.715574274766),(7.86265250526674,-6.2794831184643,148.715574274766),(0.791584693401262,-9.20841530659837,148.715574274766),(-6.27948311846444,-6.2794831184641,-11.2844257252342),(-9.20841530659868,0.79158469340166,-11.2844257252342),(-6.2794831184641,7.86265250526662,-11.2844257252342),(0.791584693401091,10.7915846934012,-11.2844257252342),(7.86265250526662,7.86265250526696,-11.2844257252342),(10.7915846934011,0.791584693401205,-11.2844257252342),(7.86265250526674,-6.27948311846421,-11.2844257252342),(0.791584693401319,-9.20841530659834,-11.2844257252342)));
#202=IFCPOLYGONALFACESET(#201,.T.,(#181,#182,#183,#184,#185,#186,#187,#188,#189,#190,#191,#192,#193,#194,#195,#196,#197,#198,#199,#200),$);
#203=IFCSHAPEREPRESENTATION(#12,'Body','Tessellation',(#202));
#204=IFCPRODUCTDEFINITIONSHAPE($,$,(#203));
#205=IFCBUILDINGELEMENTPROXY('2PjgD05wbDOBktzYDgCF3O',$,'inner_beams_1_0_cutter_3',$,$,$,#230,$,$);
#206=IFCRELCONTAINEDINSPATIALSTRUCTURE('2YCGHWVjjAHOgNYp3LqcmA',$,$,$,(#205),#22);
#207=IFCINDEXEDPOLYGONALFACE((1,2,10,9));
#208=IFCINDEXEDPOLYGONALFACE((2,3,11,10));
#209=IFCINDEXEDPOLYGONALFACE((3,4,12,11));
#210=IFCINDEXEDPOLYGONALFACE((4,5,13,12));
#211=IFCINDEXEDPOLYGONALFACE((5,6,14,13));
#212=IFCINDEXEDPOLYGONALFACE((6,7,15,14));
#213=IFCINDEXEDPOLYGONALFACE((7,8,16,15));
#214=IFCINDEXEDPOLYGONALFACE((8,1,9,16));
#215=IFCINDEXEDPOLYGONALFACE((1,8,7));
#216=IFCINDEXEDPOLYGONALFACE((7,6,5));
#217=IFCINDEXEDPOLYGONALFACE((5,4,3));
#218=IFCINDEXEDPOLYGONALFACE((3,2,1));
#219=IFCINDEXEDPOLYGONALFACE((1,7,5));
#220=IFCINDEXEDPOLYGONALFACE((5,3,1));
#221=IFCINDEXEDPOLYGONALFACE((16,9,10));
#222=IFCINDEXEDPOLYGONALFACE((10,11,12));
#223=IFCINDEXEDPOLYGONALFACE((12,13,14));
#224=IFCINDEXEDPOLYGONALFACE((14,15,16));
#225=IFCINDEXEDPOLYGONALFACE((16,10,12));
#226=IFCINDEXEDPOLYGONALFACE((12,14,16));
#227=IFCCARTESIANPOINTLIST3D(((-251.120251687763,238.561285450835,148.715574274766),(-254.049183875898,245.6323532627,148.715574274766),(-251.120251687763,252.703421074566,148.715574274766),(-244.049183875898,255.6323532627,148.715574274766),(-236.978116064032,252.703421074566,148.715574274766),(-234.049183875898,245.6323532627,148.715574274766),(-236.978116064032,238.561285450835,148.715574274766),(-244.049183875898,235.6323532627,148.715574274766),(-251.120251687763,238.561285450835,-11.2844257252342),(-254.049183875898,245.632353262701,-11.2844257252342),(-251.120251687763,252.703421074566,-11.2844257252342),(-244.049183875898,255.6323532627,-11.2844257252342),(-236.978116064032,252.703421074566,-11.2844257252342),(-234.049183875898,245.6323532627,-11.2844257252341),(-236.978116064032,238.561285450835,-11.2844257252341),(-244.049183875898,235.632353262701,-11.2844257252341)));
#228=IFCPOLYGONALFACESET(#227,.T.,(#207,#208,#209,#210,#211,#212,#213,#214,#215,#216,#217,#218,#219,#220,#221,#222,#223,#224,#225,#226),$);
#229=IFCSHAPEREPRESENTATION(#12,'Body','Tessellation',(#228));
#230=IFCPRODUCTDEFINITIONSHAPE($,$,(#229));
ENDSEC;
END-ISO-10303-21;
