# OBJ
# COMPAS
# version: 2.15.1
# precision: 3
# V F E: 248 528 792

o oculus_side_plates_0_preview
v -0.000 0.000 42.765
v -0.000 0.000 0.000
v 127.721 0.750 42.830
v 300.850 87.381 37.291
v 307.921 90.309 37.104
v 293.779 90.309 37.104
v 290.850 97.381 36.651
v 310.850 97.381 36.651
v 290.850 97.381 0.000
v 637.107 97.381 36.651
v 654.178 90.309 37.104
v 647.107 87.381 37.291
v 640.036 90.309 37.104
v 657.107 97.381 36.651
v 640.036 90.309 0.000
v 637.107 97.381 0.000
v 310.850 97.381 0.000
v 300.850 87.381 0.000
v 293.779 90.309 0.000
v 307.921 90.309 0.000
v 293.779 104.452 36.199
v 307.921 104.452 36.199
v 300.850 107.381 36.012
v 127.721 197.000 60.000
v 0.000 197.000 60.000
v 0.000 197.000 0.000
v 127.721 197.000 30.281
v 654.178 104.452 36.199
v 640.036 104.452 36.199
v 647.107 107.381 36.012
v 640.036 104.452 0.000
v 293.779 104.452 0.000
v 307.921 104.452 0.000
v 300.850 107.381 0.000
v 993.364 87.381 37.291
v 986.293 90.309 37.104
v 983.364 97.381 36.651
v 1000.435 90.309 37.104
v 1003.364 97.381 36.651
v 1000.435 90.309 0.000
v 993.364 87.381 0.000
v 986.293 90.309 0.000
v 983.364 97.381 0.000
v 1166.492 0.750 42.830
v 1336.978 0.000 42.765
v 1336.978 0.000 0.000
v 1003.364 97.381 0.000
v 986.293 104.452 36.199
v 1000.435 104.452 36.199
v 993.364 107.381 36.012
v 1000.435 104.452 0.000
v 986.293 104.452 0.000
v 993.364 107.381 0.000
v 1166.492 197.000 60.000
v 1166.492 197.000 30.281
v 1354.214 197.000 60.000
v 1354.214 197.000 0.000
v 647.107 87.381 0.000
v 654.178 90.309 0.000
v 657.107 97.381 0.000
v 654.178 104.452 0.000
v 647.107 107.381 0.000
v 0.000 297.000 42.765
v 0.000 297.000 0.000
v 127.721 297.750 42.830
v 290.850 394.381 0.000
v 293.779 387.309 37.104
v 300.850 384.381 37.291
v 307.921 387.309 37.104
v 290.850 394.381 36.651
v 310.850 394.381 36.651
v 300.850 384.381 0.000
v 293.779 387.309 0.000
v 307.921 387.309 0.000
v 310.850 394.381 0.000
v 640.036 387.309 0.000
v 637.107 394.381 0.000
v 637.107 394.381 36.651
v 647.107 384.381 37.291
v 640.036 387.309 37.104
v 654.178 387.309 37.104
v 657.107 394.381 36.651
v 293.779 401.452 36.199
v 307.921 401.452 36.199
v 300.850 404.381 36.012
v 0.000 494.000 0.000
v 0.000 494.000 60.000
v 127.721 494.000 30.281
v 127.721 494.000 60.000
v 293.779 401.452 0.000
v 307.921 401.452 0.000
v 300.850 404.381 0.000
v 640.036 401.452 0.000
v 640.036 401.452 36.199
v 654.178 401.452 36.199
v 647.107 404.381 36.012
v 647.107 384.381 0.000
v 654.178 387.309 0.000
v 657.107 394.381 0.000
v 654.178 401.452 0.000
v 647.107 404.381 0.000
v 993.364 384.381 0.000
v 986.293 387.309 0.000
v 1000.435 387.309 0.000
v 983.364 394.381 0.000
v 993.364 384.381 37.291
v 986.293 387.309 37.104
v 983.364 394.381 36.651
v 1000.435 387.309 37.104
v 1003.364 394.381 36.651
v 1003.364 394.381 0.000
v 1166.492 297.750 42.830
v 1336.978 297.000 0.000
v 1336.978 297.000 42.765
v 986.293 401.452 0.000
v 1000.435 401.452 0.000
v 993.364 404.381 0.000
v 986.293 401.452 36.199
v 1000.435 401.452 36.199
v 993.364 404.381 36.012
v 1166.492 494.000 60.000
v 1166.492 494.000 30.281
v 1354.214 494.000 0.000
v 1354.214 494.000 60.000
v 700.036 700.691 0.000
v 697.107 693.619 0.000
v 700.036 686.548 0.000
v 350.850 693.619 0.000
v 17.235 791.000 0.000
v 17.235 791.000 42.765
v 187.721 790.250 42.830
v 360.850 703.619 0.000
v 367.921 700.691 0.000
v 353.779 700.691 0.000
v 370.850 693.619 0.000
v 353.779 700.691 37.104
v 350.850 693.619 36.651
v 360.850 703.619 37.291
v 367.921 700.691 37.104
v 370.850 693.619 36.651
v 0.000 594.000 0.000
v 0.000 594.000 60.000
v 187.721 594.000 30.281
v 187.721 594.000 60.000
v 367.921 686.548 0.000
v 353.779 686.548 0.000
v 360.850 683.619 0.000
v 353.779 686.548 36.199
v 360.850 683.619 36.012
v 367.921 686.548 36.199
v 1053.364 703.619 0.000
v 1046.293 700.691 0.000
v 1060.435 700.691 0.000
v 1043.364 693.619 0.000
v 714.178 700.691 0.000
v 707.107 703.619 0.000
v 717.107 693.619 0.000
v 707.107 703.619 37.291
v 714.178 700.691 37.104
v 700.036 700.691 37.104
v 697.107 693.619 36.651
v 717.107 693.619 36.651
v 1226.492 790.250 42.830
v 1354.214 791.000 0.000
v 1354.214 791.000 42.765
v 1063.364 693.619 0.000
v 1060.435 700.691 37.104
v 1053.364 703.619 37.291
v 1046.293 700.691 37.104
v 1043.364 693.619 36.651
v 1063.364 693.619 36.651
v 1046.293 686.548 0.000
v 1060.435 686.548 0.000
v 1053.364 683.619 0.000
v 714.178 686.548 0.000
v 707.107 683.619 0.000
v 714.178 686.548 36.199
v 700.036 686.548 36.199
v 707.107 683.619 36.012
v 1046.293 686.548 36.199
v 1060.435 686.548 36.199
v 1053.364 683.619 36.012
v 1226.492 594.000 30.281
v 1354.214 594.000 0.000
v 1354.214 594.000 60.000
v 1226.492 594.000 60.000
v 17.235 1088.000 42.765
v 17.235 1088.000 0.000
v 187.721 1087.250 42.830
v 350.850 990.619 0.000
v 353.779 997.691 37.104
v 350.850 990.619 36.651
v 360.850 1000.619 37.291
v 367.921 997.691 37.104
v 370.850 990.619 36.651
v 353.779 997.691 0.000
v 360.850 1000.619 0.000
v 367.921 997.691 0.000
v 370.850 990.619 0.000
v 0.000 891.000 60.000
v 0.000 891.000 0.000
v 187.721 891.000 30.281
v 187.721 891.000 60.000
v 353.779 983.548 36.199
v 360.850 980.619 36.012
v 367.921 983.548 36.199
v 353.779 983.548 0.000
v 367.921 983.548 0.000
v 360.850 980.619 0.000
v 707.107 1000.619 0.000
v 700.036 997.691 0.000
v 697.107 990.619 0.000
v 700.036 983.548 0.000
v 707.107 980.619 0.000
v 700.036 997.691 37.104
v 707.107 1000.619 37.291
v 714.178 997.691 37.104
v 697.107 990.619 36.651
v 717.107 990.619 36.651
v 714.178 997.691 0.000
v 717.107 990.619 0.000
v 1043.364 990.619 0.000
v 1053.364 1000.619 0.000
v 1046.293 997.691 0.000
v 1060.435 997.691 0.000
v 1226.492 1087.250 42.830
v 1354.214 1088.000 0.000
v 1354.214 1088.000 42.765
v 1053.364 1000.619 37.291
v 1046.293 997.691 37.104
v 1060.435 997.691 37.104
v 1043.364 990.619 36.651
v 1063.364 990.619 36.651
v 1063.364 990.619 0.000
v 700.036 983.548 36.199
v 714.178 983.548 36.199
v 707.107 980.619 36.012
v 714.178 983.548 0.000
v 1046.293 983.548 0.000
v 1060.435 983.548 0.000
v 1053.364 980.619 0.000
v 1046.293 983.548 36.199
v 1060.435 983.548 36.199
v 1053.364 980.619 36.012
v 1226.492 891.000 60.000
v 1226.492 891.000 30.281
v 1354.214 891.000 60.000
v 1354.214 891.000 0.000
f 2 26 9
f 2 19 18
f 2 9 19
f 2 18 46
f 18 20 58
f 17 15 20
f 20 15 58
f 17 16 15
f 26 32 9
f 26 34 32
f 17 33 16
f 16 33 34
f 26 31 16
f 26 62 31
f 26 53 62
f 26 16 34
f 46 18 58
f 46 61 41
f 46 58 59
f 46 59 60
f 46 60 61
f 61 42 41
f 61 43 42
f 46 41 40
f 46 40 57
f 52 61 62
f 52 43 61
f 52 62 53
f 26 57 53
f 57 40 47
f 57 47 51
f 57 51 53
f 3 4 6
f 3 6 7
f 3 7 27
f 3 44 12
f 3 30 4
f 3 12 13
f 3 13 10
f 3 10 29
f 3 29 30
f 4 30 5
f 5 30 8
f 21 27 7
f 21 23 27
f 8 30 22
f 23 22 30
f 23 55 27
f 36 11 12
f 37 14 11
f 44 35 12
f 35 36 12
f 36 37 11
f 44 38 35
f 44 39 38
f 44 49 39
f 48 28 14
f 23 30 55
f 28 55 30
f 37 48 14
f 48 55 28
f 44 55 49
f 48 50 55
f 49 55 50
f 24 3 27
f 44 54 55
f 64 73 72
f 64 66 73
f 64 90 66
f 64 72 113
f 74 97 72
f 74 75 76
f 75 77 76
f 74 76 97
f 64 86 90
f 86 92 90
f 86 77 92
f 91 77 75
f 77 91 92
f 86 93 77
f 86 101 93
f 86 117 101
f 113 72 97
f 113 97 98
f 113 98 99
f 113 99 100
f 100 103 102
f 100 105 103
f 113 100 102
f 113 102 104
f 113 104 111
f 113 111 116
f 101 115 100
f 100 115 105
f 101 117 115
f 86 123 117
f 123 116 117
f 113 116 123
f 65 68 67
f 65 67 70
f 65 70 88
f 65 112 79
f 65 96 68
f 65 79 80
f 65 80 78
f 65 78 94
f 65 94 96
f 68 96 69
f 69 96 71
f 70 83 88
f 83 85 88
f 71 96 84
f 85 84 96
f 85 122 88
f 79 107 81
f 81 107 82
f 79 112 106
f 79 106 107
f 82 107 108
f 112 109 106
f 112 110 109
f 112 119 110
f 82 108 95
f 85 96 122
f 96 95 122
f 95 108 118
f 95 118 122
f 112 122 119
f 118 120 122
f 120 119 122
f 65 88 89
f 112 121 122
f 129 134 141
f 129 132 134
f 129 156 125
f 129 125 126
f 129 126 127
f 127 133 132
f 127 135 133
f 129 127 132
f 129 151 156
f 141 134 128
f 141 128 146
f 141 146 147
f 127 145 135
f 176 147 145
f 127 176 145
f 141 147 184
f 129 164 151
f 155 154 157
f 156 152 155
f 156 151 152
f 155 152 154
f 164 153 151
f 164 166 153
f 164 184 166
f 184 157 174
f 184 147 176
f 157 154 172
f 157 172 174
f 184 175 157
f 184 176 175
f 184 173 166
f 184 174 173
f 131 136 138
f 131 137 136
f 131 148 137
f 158 131 138
f 158 138 139
f 160 139 140
f 158 139 160
f 160 140 161
f 131 143 148
f 149 148 143
f 149 143 150
f 161 140 150
f 178 150 143
f 161 150 178
f 179 178 143
f 179 143 182
f 158 163 131
f 158 159 163
f 159 162 163
f 162 177 163
f 179 163 177
f 179 168 163
f 179 170 169
f 179 169 168
f 163 168 167
f 163 167 171
f 163 171 183
f 179 180 170
f 179 182 180
f 182 143 183
f 182 183 181
f 171 181 183
f 131 144 143
f 163 183 186
f 188 196 201
f 188 197 196
f 188 213 197
f 188 210 211
f 188 211 212
f 188 212 213
f 213 198 197
f 213 199 198
f 188 223 210
f 201 196 190
f 201 190 207
f 201 207 209
f 199 213 208
f 208 214 209
f 208 213 214
f 201 209 248
f 188 227 223
f 210 224 220
f 221 220 222
f 210 223 224
f 220 224 222
f 227 225 223
f 227 248 225
f 248 209 214
f 221 222 239
f 221 239 241
f 248 238 221
f 248 214 238
f 248 221 241
f 248 234 225
f 248 240 234
f 248 241 240
f 189 191 193
f 189 192 191
f 189 204 192
f 189 193 216
f 193 194 216
f 194 195 218
f 194 215 216
f 194 218 215
f 189 202 204
f 204 202 205
f 205 202 206
f 195 206 235
f 206 202 235
f 195 235 218
f 235 202 237
f 237 202 244
f 189 216 226
f 216 217 226
f 217 219 226
f 219 236 226
f 237 226 236
f 237 229 226
f 237 232 230
f 237 230 229
f 229 231 226
f 231 233 226
f 233 246 226
f 237 242 232
f 237 244 242
f 244 202 246
f 244 246 243
f 243 246 233
f 189 203 202
f 245 226 246
f 1 25 26
f 26 2 1
f 3 24 25
f 45 56 54
f 3 25 1
f 45 54 44
f 44 3 1
f 1 45 44
f 45 1 2
f 2 46 45
f 26 25 24
f 55 54 56
f 26 24 27
f 55 56 57
f 57 26 27
f 27 55 57
f 56 45 46
f 46 57 56
f 18 19 6
f 6 4 18
f 18 4 5
f 5 20 18
f 9 7 6
f 6 19 9
f 17 20 5
f 5 8 17
f 12 58 15
f 15 13 12
f 58 12 11
f 11 59 58
f 16 10 13
f 13 15 16
f 11 14 60
f 60 59 11
f 9 32 21
f 21 7 9
f 33 17 8
f 8 22 33
f 34 33 22
f 22 23 34
f 21 32 34
f 34 23 21
f 10 16 31
f 31 29 10
f 14 28 61
f 61 60 14
f 31 62 30
f 30 29 31
f 62 61 28
f 28 30 62
f 35 38 40
f 40 41 35
f 38 39 47
f 47 40 38
f 41 42 36
f 36 35 41
f 36 42 43
f 43 37 36
f 39 49 51
f 51 47 39
f 49 50 53
f 53 51 49
f 43 52 48
f 48 37 43
f 52 53 50
f 50 48 52
f 87 86 64
f 64 63 87
f 65 89 87
f 114 124 121
f 65 87 63
f 114 121 112
f 112 65 63
f 63 114 112
f 114 63 64
f 64 113 114
f 88 89 87
f 123 124 121
f 88 87 86
f 123 121 122
f 122 88 86
f 86 123 122
f 124 114 113
f 113 123 124
f 68 72 73
f 73 67 68
f 70 67 73
f 73 66 70
f 68 69 74
f 74 72 68
f 74 69 71
f 71 75 74
f 98 97 79
f 79 81 98
f 97 76 80
f 80 79 97
f 80 76 77
f 77 78 80
f 81 82 99
f 99 98 81
f 70 66 90
f 90 83 70
f 75 71 84
f 84 91 75
f 85 83 90
f 90 92 85
f 92 91 84
f 84 85 92
f 78 77 93
f 93 94 78
f 96 94 93
f 93 101 96
f 82 95 100
f 100 99 82
f 101 100 95
f 95 96 101
f 106 102 103
f 103 107 106
f 102 106 109
f 109 104 102
f 103 105 108
f 108 107 103
f 111 104 109
f 109 110 111
f 118 108 105
f 105 115 118
f 111 110 119
f 119 116 111
f 117 120 118
f 118 115 117
f 117 116 119
f 119 120 117
f 130 129 141
f 141 142 130
f 131 144 142
f 165 185 186
f 131 142 130
f 165 186 163
f 163 131 130
f 130 165 163
f 129 130 165
f 165 164 129
f 186 185 184
f 141 142 144
f 183 186 184
f 141 144 143
f 143 183 184
f 184 141 143
f 185 184 164
f 164 165 185
f 138 136 134
f 134 132 138
f 132 133 139
f 139 138 132
f 136 137 128
f 128 134 136
f 133 135 140
f 140 139 133
f 128 137 148
f 148 146 128
f 145 150 140
f 140 135 145
f 145 147 149
f 149 150 145
f 149 147 146
f 146 148 149
f 170 154 152
f 152 169 170
f 125 156 158
f 158 160 125
f 155 159 158
f 158 156 155
f 155 157 162
f 162 159 155
f 125 160 161
f 161 126 125
f 151 153 167
f 167 168 151
f 153 166 171
f 171 167 153
f 152 151 168
f 168 169 152
f 170 180 172
f 172 154 170
f 162 157 175
f 175 177 162
f 175 176 179
f 179 177 175
f 126 161 178
f 178 127 126
f 179 176 127
f 127 178 179
f 166 173 181
f 181 171 166
f 172 180 182
f 182 174 172
f 181 173 174
f 174 182 181
f 200 187 188
f 188 201 200
f 187 200 203
f 226 245 247
f 187 203 189
f 226 247 228
f 228 187 189
f 189 226 228
f 187 228 227
f 227 188 187
f 203 200 201
f 248 247 245
f 202 203 201
f 248 245 246
f 246 202 201
f 201 248 246
f 228 247 248
f 248 227 228
f 191 196 197
f 197 193 191
f 196 191 192
f 192 190 196
f 197 198 194
f 194 193 197
f 199 195 194
f 194 198 199
f 192 204 207
f 207 190 192
f 209 207 204
f 204 205 209
f 208 206 195
f 195 199 208
f 208 209 205
f 205 206 208
f 215 211 210
f 210 216 215
f 216 210 220
f 220 217 216
f 218 212 211
f 211 215 218
f 219 217 220
f 220 221 219
f 230 232 222
f 222 224 230
f 225 231 229
f 229 223 225
f 229 230 224
f 224 223 229
f 225 234 233
f 233 231 225
f 213 212 218
f 218 235 213
f 236 219 221
f 221 238 236
f 235 237 214
f 214 213 235
f 214 237 236
f 236 238 214
f 222 232 242
f 242 239 222
f 234 240 243
f 243 233 234
f 239 242 244
f 244 241 239
f 241 244 243
f 243 240 241
