# OBJ
# COMPAS
# version: 2.15.1
# precision: 3
# V F E: 16 16 28

o oculus_8_uncut
v 0.000 1294.214 27.000
v 1294.214 1294.214 27.000
v 1294.214 0.000 27.000
v 0.000 0.000 27.000
v 0.000 1294.214 0.000
v 1294.214 1294.214 0.000
v 1294.214 0.000 0.000
v 0.000 0.000 0.000
f 1 2 6 5
f 2 3 7 6
f 3 4 8 7
f 4 1 5 8
f 1 4 3
f 3 2 1
f 8 5 6
f 6 7 8
o oculus_8
v 0.000 1294.214 27.000
v 1294.214 1294.214 27.000
v 1294.214 0.000 27.000
v 0.000 0.000 27.000
v 0.000 1294.214 0.000
v 1294.214 1294.214 0.000
v 1294.214 0.000 0.000
v 0.000 0.000 0.000
f 9 10 14 13
f 10 11 15 14
f 11 12 16 15
f 12 9 13 16
f 9 12 11
f 11 10 9
f 16 13 14
f 14 15 16
