# OBJ
# COMPAS
# version: 2.15.1
# precision: 3
# V F E: 32 48 72

o oculus_side_tsections_0_preview
v 1267.214 27.000 27.000
v 1267.214 0.000 27.000
v 0.000 0.000 27.000
v 0.000 27.000 27.000
v 1267.214 27.000 0.000
v 1267.214 0.000 0.000
v 0.000 0.000 0.000
v 0.000 27.000 0.000
v 1267.214 154.000 27.000
v 1267.214 127.000 27.000
v 0.000 127.000 27.000
v 0.000 154.000 27.000
v 1267.214 154.000 0.000
v 1267.214 127.000 0.000
v 0.000 127.000 0.000
v 0.000 154.000 0.000
v 0.000 254.000 27.000
v 0.000 281.000 27.000
v 1267.214 281.000 27.000
v 1267.214 254.000 27.000
v 0.000 254.000 0.000
v 0.000 281.000 0.000
v 1267.214 281.000 0.000
v 1267.214 254.000 0.000
v 0.000 381.000 27.000
v 0.000 408.000 27.000
v 1267.214 408.000 27.000
v 1267.214 381.000 27.000
v 0.000 381.000 0.000
v 0.000 408.000 0.000
v 1267.214 408.000 0.000
v 1267.214 381.000 0.000
f 1 4 3
f 3 2 1
f 8 5 6
f 6 7 8
f 9 12 11
f 11 10 9
f 16 13 14
f 14 15 16
f 17 20 19
f 19 18 17
f 24 21 22
f 22 23 24
f 25 28 27
f 27 26 25
f 32 29 30
f 30 31 32
f 5 1 2
f 2 6 5
f 6 2 3
f 3 7 6
f 7 3 4
f 4 8 7
f 8 4 1
f 1 5 8
f 13 9 10
f 10 14 13
f 14 10 11
f 11 15 14
f 15 11 12
f 12 16 15
f 16 12 9
f 9 13 16
f 21 17 18
f 18 22 21
f 22 18 19
f 19 23 22
f 23 19 20
f 20 24 23
f 24 20 17
f 17 21 24
f 29 25 26
f 26 30 29
f 30 26 27
f 27 31 30
f 31 27 28
f 28 32 31
f 32 28 25
f 25 29 32
