# OBJ
# COMPAS
# version: 2.15.1
# precision: 3
# V F E: 504 684 1164

o oculus_0_uncut
v 1336.978 0.000 0.000
v 1354.214 197.000 0.000
v 0.000 197.000 0.000
v 0.000 0.000 0.000
v 1336.978 0.000 42.765
v 1354.214 197.000 60.000
v 0.000 197.000 60.000
v 0.000 0.000 42.765
f 1 2 6 5
f 2 3 7 6
f 3 4 8 7
f 4 1 5 8
f 1 4 3
f 3 2 1
f 8 5 6
f 6 7 8
o oculus_0
v -0.000 0.000 42.765
v -0.000 0.000 0.000
v 127.721 0.750 42.830
v 300.850 87.381 37.291
v 307.921 90.309 37.104
v 293.779 90.309 37.104
v 290.850 97.381 36.651
v 310.850 97.381 36.651
v 290.850 97.381 0.000
v 637.107 97.381 36.651
v 654.178 90.309 37.104
v 647.107 87.381 37.291
v 640.036 90.309 37.104
v 657.107 97.381 36.651
v 640.036 90.309 0.000
v 637.107 97.381 0.000
v 310.850 97.381 0.000
v 300.850 87.381 0.000
v 293.779 90.309 0.000
v 307.921 90.309 0.000
v 293.779 104.452 36.199
v 307.921 104.452 36.199
v 300.850 107.381 36.012
v 127.721 197.000 60.000
v 0.000 197.000 60.000
v 0.000 197.000 0.000
v 127.721 197.000 30.281
v 654.178 104.452 36.199
v 640.036 104.452 36.199
v 647.107 107.381 36.012
v 640.036 104.452 0.000
v 293.779 104.452 0.000
v 307.921 104.452 0.000
v 300.850 107.381 0.000
v 993.364 87.381 37.291
v 986.293 90.309 37.104
v 983.364 97.381 36.651
v 1000.435 90.309 37.104
v 1003.364 97.381 36.651
v 1000.435 90.309 0.000
v 993.364 87.381 0.000
v 986.293 90.309 0.000
v 983.364 97.381 0.000
v 1166.492 0.750 42.830
v 1336.978 0.000 42.765
v 1336.978 0.000 0.000
v 1003.364 97.381 0.000
v 986.293 104.452 36.199
v 1000.435 104.452 36.199
v 993.364 107.381 36.012
v 1000.435 104.452 0.000
v 986.293 104.452 0.000
v 993.364 107.381 0.000
v 1166.492 197.000 60.000
v 1166.492 197.000 30.281
v 1354.214 197.000 60.000
v 1354.214 197.000 0.000
v 647.107 87.381 0.000
v 654.178 90.309 0.000
v 657.107 97.381 0.000
v 654.178 104.452 0.000
v 647.107 107.381 0.000
f 33 34 10 9
f 32 33 9 53 64 62 52 11
f 10 34 17
f 10 27 26
f 10 17 27
f 10 26 54
f 26 28 66
f 25 23 28
f 28 23 66
f 25 24 23
f 34 40 17
f 34 42 40
f 25 41 24
f 24 41 42
f 34 39 24
f 34 70 39
f 34 61 70
f 34 24 42
f 54 26 66
f 54 69 49
f 54 66 67
f 54 67 68
f 54 68 69
f 69 50 49
f 69 51 50
f 54 49 48
f 54 48 65
f 60 69 70
f 60 51 69
f 60 70 61
f 34 65 61
f 65 48 55
f 65 55 59
f 65 59 61
f 9 10 54 53
f 33 32 35 63 62 64 65 34
f 53 54 65 64
f 11 12 14
f 11 14 15
f 11 15 35
f 11 52 20
f 11 38 12
f 11 20 21
f 11 21 18
f 11 18 37
f 11 37 38
f 12 38 13
f 13 38 16
f 29 35 15
f 29 31 35
f 16 38 30
f 31 30 38
f 31 63 35
f 44 19 20
f 45 22 19
f 52 43 20
f 43 44 20
f 44 45 19
f 52 46 43
f 52 47 46
f 52 57 47
f 56 36 22
f 31 38 63
f 36 63 38
f 45 56 22
f 56 63 36
f 52 63 57
f 56 58 63
f 57 63 58
f 27 14 12 26
f 12 13 28 26
f 15 14 27 17
f 28 13 16 25
f 66 23 21 20
f 20 19 67 66
f 18 21 23 24
f 22 68 67 19
f 32 11 35
f 40 29 15 17
f 25 16 30 41
f 41 30 31 42
f 40 42 31 29
f 24 39 37 18
f 36 69 68 22
f 70 38 37 39
f 69 36 38 70
f 46 48 49 43
f 47 55 48 46
f 50 44 43 49
f 50 51 45 44
f 57 59 55 47
f 58 61 59 57
f 60 56 45 51
f 61 58 56 60
f 52 62 63
o oculus_0_cutter_0
v 1166.492 211.254 29.370
v 127.721 211.254 29.370
v 127.721 0.750 42.830
v 1166.492 0.750 42.830
v 1166.492 214.172 74.996
v 127.721 214.172 74.996
v 127.721 3.667 88.456
v 1166.492 3.667 88.456
f 71 72 76 75
f 72 73 77 76
f 73 74 78 77
f 74 71 75 78
f 71 74 73
f 73 72 71
f 78 75 76
f 76 77 78
o oculus_0_cutter_1
v 993.364 107.381 -28.716
v 986.293 104.452 -28.716
v 983.364 97.381 -28.716
v 986.293 90.309 -28.716
v 993.364 87.381 -28.716
v 1000.435 90.309 -28.716
v 1003.364 97.381 -28.716
v 1000.435 104.452 -28.716
v 993.364 107.381 131.284
v 986.293 104.452 131.284
v 983.364 97.381 131.284
v 986.293 90.309 131.284
v 993.364 87.381 131.284
v 1000.435 90.309 131.284
v 1003.364 97.381 131.284
v 1000.435 104.452 131.284
f 79 80 88 87
f 80 81 89 88
f 81 82 90 89
f 82 83 91 90
f 83 84 92 91
f 84 85 93 92
f 85 86 94 93
f 86 79 87 94
f 79 86 85
f 85 84 83
f 83 82 81
f 81 80 79
f 79 85 83
f 83 81 79
f 94 87 88
f 88 89 90
f 90 91 92
f 92 93 94
f 94 88 90
f 90 92 94
o oculus_0_cutter_2
v 647.107 107.381 -28.716
v 640.036 104.452 -28.716
v 637.107 97.381 -28.716
v 640.036 90.309 -28.716
v 647.107 87.381 -28.716
v 654.178 90.309 -28.716
v 657.107 97.381 -28.716
v 654.178 104.452 -28.716
v 647.107 107.381 131.284
v 640.036 104.452 131.284
v 637.107 97.381 131.284
v 640.036 90.309 131.284
v 647.107 87.381 131.284
v 654.178 90.309 131.284
v 657.107 97.381 131.284
v 654.178 104.452 131.284
f 95 96 104 103
f 96 97 105 104
f 97 98 106 105
f 98 99 107 106
f 99 100 108 107
f 100 101 109 108
f 101 102 110 109
f 102 95 103 110
f 95 102 101
f 101 100 99
f 99 98 97
f 97 96 95
f 95 101 99
f 99 97 95
f 110 103 104
f 104 105 106
f 106 107 108
f 108 109 110
f 110 104 106
f 106 108 110
o oculus_0_cutter_3
v 300.850 107.381 -28.716
v 293.779 104.452 -28.716
v 290.850 97.381 -28.716
v 293.779 90.309 -28.716
v 300.850 87.381 -28.716
v 307.921 90.309 -28.716
v 310.850 97.381 -28.716
v 307.921 104.452 -28.716
v 300.850 107.381 131.284
v 293.779 104.452 131.284
v 290.850 97.381 131.284
v 293.779 90.309 131.284
v 300.850 87.381 131.284
v 307.921 90.309 131.284
v 310.850 97.381 131.284
v 307.921 104.452 131.284
f 111 112 120 119
f 112 113 121 120
f 113 114 122 121
f 114 115 123 122
f 115 116 124 123
f 116 117 125 124
f 117 118 126 125
f 118 111 119 126
f 111 118 117
f 117 116 115
f 115 114 113
f 113 112 111
f 111 117 115
f 115 113 111
f 126 119 120
f 120 121 122
f 122 123 124
f 124 125 126
f 126 120 122
f 122 124 126
o oculus_1_uncut
v 1336.978 297.000 0.000
v 1354.214 494.000 0.000
v 0.000 494.000 0.000
v -0.000 297.000 0.000
v 1336.978 297.000 42.765
v 1354.214 494.000 60.000
v 0.000 494.000 60.000
v -0.000 297.000 42.765
f 127 128 132 131
f 128 129 133 132
f 129 130 134 133
f 130 127 131 134
f 127 130 129
f 129 128 127
f 134 131 132
f 132 133 134
o oculus_1
v 0.000 297.000 42.765
v 0.000 297.000 0.000
v 127.721 297.750 42.830
v 290.850 394.381 0.000
v 293.779 387.309 37.104
v 300.850 384.381 37.291
v 307.921 387.309 37.104
v 290.850 394.381 36.651
v 310.850 394.381 36.651
v 300.850 384.381 0.000
v 293.779 387.309 0.000
v 307.921 387.309 0.000
v 310.850 394.381 0.000
v 640.036 387.309 0.000
v 637.107 394.381 0.000
v 637.107 394.381 36.651
v 647.107 384.381 37.291
v 640.036 387.309 37.104
v 654.178 387.309 37.104
v 657.107 394.381 36.651
v 293.779 401.452 36.199
v 307.921 401.452 36.199
v 300.850 404.381 36.012
v 0.000 494.000 0.000
v 0.000 494.000 60.000
v 127.721 494.000 30.281
v 127.721 494.000 60.000
v 293.779 401.452 0.000
v 307.921 401.452 0.000
v 300.850 404.381 0.000
v 640.036 401.452 0.000
v 640.036 401.452 36.199
v 654.178 401.452 36.199
v 647.107 404.381 36.012
v 647.107 384.381 0.000
v 654.178 387.309 0.000
v 657.107 394.381 0.000
v 654.178 401.452 0.000
v 647.107 404.381 0.000
v 993.364 384.381 0.000
v 986.293 387.309 0.000
v 1000.435 387.309 0.000
v 983.364 394.381 0.000
v 993.364 384.381 37.291
v 986.293 387.309 37.104
v 983.364 394.381 36.651
v 1000.435 387.309 37.104
v 1003.364 394.381 36.651
v 1003.364 394.381 0.000
v 1166.492 297.750 42.830
v 1336.978 297.000 0.000
v 1336.978 297.000 42.765
v 986.293 401.452 0.000
v 1000.435 401.452 0.000
v 993.364 404.381 0.000
v 986.293 401.452 36.199
v 1000.435 401.452 36.199
v 993.364 404.381 36.012
v 1166.492 494.000 60.000
v 1166.492 494.000 30.281
v 1354.214 494.000 0.000
v 1354.214 494.000 60.000
f 158 136 135 159
f 161 159 135 186 196 193 184 137
f 136 145 144
f 136 138 145
f 136 162 138
f 136 144 185
f 146 169 144
f 146 147 148
f 147 149 148
f 146 148 169
f 136 158 162
f 158 164 162
f 158 149 164
f 163 149 147
f 149 163 164
f 158 165 149
f 158 173 165
f 158 189 173
f 185 144 169
f 185 169 170
f 185 170 171
f 185 171 172
f 172 175 174
f 172 177 175
f 185 172 174
f 185 174 176
f 185 176 183
f 185 183 188
f 173 187 172
f 172 187 177
f 173 189 187
f 158 195 189
f 195 188 189
f 185 188 195
f 135 136 185 186
f 194 193 196 195 158 159 161 160
f 186 185 195 196
f 137 140 139
f 137 139 142
f 137 142 160
f 137 184 151
f 137 168 140
f 137 151 152
f 137 152 150
f 137 150 166
f 137 166 168
f 140 168 141
f 141 168 143
f 142 155 160
f 155 157 160
f 143 168 156
f 157 156 168
f 157 194 160
f 151 179 153
f 153 179 154
f 151 184 178
f 151 178 179
f 154 179 180
f 184 181 178
f 184 182 181
f 184 191 182
f 154 180 167
f 157 168 194
f 168 167 194
f 167 180 190
f 167 190 194
f 184 194 191
f 190 192 194
f 192 191 194
f 144 145 139 140
f 139 145 138 142
f 141 146 144 140
f 141 143 147 146
f 169 151 153 170
f 148 152 151 169
f 148 149 150 152
f 154 171 170 153
f 137 160 161
f 138 162 155 142
f 143 156 163 147
f 155 162 164 157
f 163 156 157 164
f 149 165 166 150
f 166 165 173 168
f 167 172 171 154
f 172 167 168 173
f 174 175 179 178
f 178 181 176 174
f 177 180 179 175
f 176 181 182 183
f 180 177 187 190
f 182 191 188 183
f 192 190 187 189
f 188 191 192 189
f 184 193 194
o oculus_1_cutter_0
v 1166.492 508.254 29.370
v 127.721 508.254 29.370
v 127.721 297.750 42.830
v 1166.492 297.750 42.830
v 1166.492 511.172 74.996
v 127.721 511.172 74.996
v 127.721 300.667 88.456
v 1166.492 300.667 88.456
f 197 198 202 201
f 198 199 203 202
f 199 200 204 203
f 200 197 201 204
f 197 200 199
f 199 198 197
f 204 201 202
f 202 203 204
o oculus_1_cutter_1
v 993.364 404.381 -28.716
v 986.293 401.452 -28.716
v 983.364 394.381 -28.716
v 986.293 387.309 -28.716
v 993.364 384.381 -28.716
v 1000.435 387.309 -28.716
v 1003.364 394.381 -28.716
v 1000.435 401.452 -28.716
v 993.364 404.381 131.284
v 986.293 401.452 131.284
v 983.364 394.381 131.284
v 986.293 387.309 131.284
v 993.364 384.381 131.284
v 1000.435 387.309 131.284
v 1003.364 394.381 131.284
v 1000.435 401.452 131.284
f 205 206 214 213
f 206 207 215 214
f 207 208 216 215
f 208 209 217 216
f 209 210 218 217
f 210 211 219 218
f 211 212 220 219
f 212 205 213 220
f 205 212 211
f 211 210 209
f 209 208 207
f 207 206 205
f 205 211 209
f 209 207 205
f 220 213 214
f 214 215 216
f 216 217 218
f 218 219 220
f 220 214 216
f 216 218 220
o oculus_1_cutter_2
v 647.107 404.381 -28.716
v 640.036 401.452 -28.716
v 637.107 394.381 -28.716
v 640.036 387.309 -28.716
v 647.107 384.381 -28.716
v 654.178 387.309 -28.716
v 657.107 394.381 -28.716
v 654.178 401.452 -28.716
v 647.107 404.381 131.284
v 640.036 401.452 131.284
v 637.107 394.381 131.284
v 640.036 387.309 131.284
v 647.107 384.381 131.284
v 654.178 387.309 131.284
v 657.107 394.381 131.284
v 654.178 401.452 131.284
f 221 222 230 229
f 222 223 231 230
f 223 224 232 231
f 224 225 233 232
f 225 226 234 233
f 226 227 235 234
f 227 228 236 235
f 228 221 229 236
f 221 228 227
f 227 226 225
f 225 224 223
f 223 222 221
f 221 227 225
f 225 223 221
f 236 229 230
f 230 231 232
f 232 233 234
f 234 235 236
f 236 230 232
f 232 234 236
o oculus_1_cutter_3
v 300.850 404.381 -28.716
v 293.779 401.452 -28.716
v 290.850 394.381 -28.716
v 293.779 387.309 -28.716
v 300.850 384.381 -28.716
v 307.921 387.309 -28.716
v 310.850 394.381 -28.716
v 307.921 401.452 -28.716
v 300.850 404.381 131.284
v 293.779 401.452 131.284
v 290.850 394.381 131.284
v 293.779 387.309 131.284
v 300.850 384.381 131.284
v 307.921 387.309 131.284
v 310.850 394.381 131.284
v 307.921 401.452 131.284
f 237 238 246 245
f 238 239 247 246
f 239 240 248 247
f 240 241 249 248
f 241 242 250 249
f 242 243 251 250
f 243 244 252 251
f 244 237 245 252
f 237 244 243
f 243 242 241
f 241 240 239
f 239 238 237
f 237 243 241
f 241 239 237
f 252 245 246
f 246 247 248
f 248 249 250
f 250 251 252
f 252 246 248
f 248 250 252
o oculus_2_uncut
v 17.235 791.000 0.000
v -0.000 594.000 0.000
v 1354.214 594.000 -0.000
v 1354.214 791.000 -0.000
v 17.235 791.000 42.765
v -0.000 594.000 60.000
v 1354.214 594.000 60.000
v 1354.214 791.000 42.765
f 253 254 258 257
f 254 255 259 258
f 255 256 260 259
f 256 253 257 260
f 253 256 255
f 255 254 253
f 260 257 258
f 258 259 260
o oculus_2
v 700.036 700.691 0.000
v 697.107 693.619 0.000
v 700.036 686.548 0.000
v 350.850 693.619 0.000
v 17.235 791.000 0.000
v 17.235 791.000 42.765
v 187.721 790.250 42.830
v 360.850 703.619 0.000
v 367.921 700.691 0.000
v 353.779 700.691 0.000
v 370.850 693.619 0.000
v 353.779 700.691 37.104
v 350.850 693.619 36.651
v 360.850 703.619 37.291
v 367.921 700.691 37.104
v 370.850 693.619 36.651
v 0.000 594.000 0.000
v 0.000 594.000 60.000
v 187.721 594.000 30.281
v 187.721 594.000 60.000
v 367.921 686.548 0.000
v 353.779 686.548 0.000
v 360.850 683.619 0.000
v 353.779 686.548 36.199
v 360.850 683.619 36.012
v 367.921 686.548 36.199
v 1053.364 703.619 0.000
v 1046.293 700.691 0.000
v 1060.435 700.691 0.000
v 1043.364 693.619 0.000
v 714.178 700.691 0.000
v 707.107 703.619 0.000
v 717.107 693.619 0.000
v 707.107 703.619 37.291
v 714.178 700.691 37.104
v 700.036 700.691 37.104
v 697.107 693.619 36.651
v 717.107 693.619 36.651
v 1226.492 790.250 42.830
v 1354.214 791.000 0.000
v 1354.214 791.000 42.765
v 1063.364 693.619 0.000
v 1060.435 700.691 37.104
v 1053.364 703.619 37.291
v 1046.293 700.691 37.104
v 1043.364 693.619 36.651
v 1063.364 693.619 36.651
v 1046.293 686.548 0.000
v 1060.435 686.548 0.000
v 1053.364 683.619 0.000
v 714.178 686.548 0.000
v 707.107 683.619 0.000
v 714.178 686.548 36.199
v 700.036 686.548 36.199
v 707.107 683.619 36.012
v 1046.293 686.548 36.199
v 1060.435 686.548 36.199
v 1053.364 683.619 36.012
v 1226.492 594.000 30.281
v 1354.214 594.000 0.000
v 1354.214 594.000 60.000
v 1226.492 594.000 60.000
f 265 270 277
f 265 268 270
f 265 292 261
f 265 261 262
f 265 262 263
f 263 269 268
f 263 271 269
f 265 263 268
f 265 287 292
f 277 270 264
f 277 264 282
f 277 282 283
f 263 281 271
f 312 283 281
f 263 312 281
f 277 283 320
f 265 300 287
f 291 290 293
f 292 288 291
f 292 287 288
f 291 288 290
f 300 289 287
f 300 302 289
f 300 320 302
f 320 293 310
f 320 283 312
f 293 290 308
f 293 308 310
f 320 311 293
f 320 312 311
f 320 309 302
f 320 310 309
f 265 277 278 266
f 299 322 321 301 266 278 280 267
f 266 301 300 265
f 322 319 279 280 278 277 320 321
f 320 300 301 321
f 267 272 274
f 267 273 272
f 267 284 273
f 294 267 274
f 294 274 275
f 296 275 276
f 294 275 296
f 296 276 297
f 267 279 284
f 285 284 279
f 285 279 286
f 297 276 286
f 314 286 279
f 297 286 314
f 315 314 279
f 315 279 318
f 294 299 267
f 294 295 299
f 295 298 299
f 298 313 299
f 315 299 313
f 315 304 299
f 315 306 305
f 315 305 304
f 299 304 303
f 299 303 307
f 299 307 319
f 315 316 306
f 315 318 316
f 318 279 319
f 318 319 317
f 307 317 319
f 272 270 268 274
f 269 275 274 268
f 273 264 270 272
f 271 276 275 269
f 267 280 279
f 273 284 282 264
f 286 276 271 281
f 283 285 286 281
f 283 282 284 285
f 290 288 305 306
f 292 294 296 261
f 295 294 292 291
f 293 298 295 291
f 296 297 262 261
f 289 303 304 287
f 302 307 303 289
f 287 304 305 288
f 316 308 290 306
f 293 311 313 298
f 312 315 313 311
f 297 314 263 262
f 312 263 314 315
f 309 317 307 302
f 316 318 310 308
f 309 310 318 317
f 299 319 322
o oculus_2_cutter_0
v 187.721 579.746 29.370
v 1226.492 579.746 29.370
v 1226.492 790.250 42.830
v 187.721 790.250 42.830
v 187.721 576.828 74.996
v 1226.492 576.828 74.996
v 1226.492 787.333 88.456
v 187.721 787.333 88.456
f 323 324 328 327
f 324 325 329 328
f 325 326 330 329
f 326 323 327 330
f 323 326 325
f 325 324 323
f 330 327 328
f 328 329 330
o oculus_2_cutter_1
v 360.850 703.619 -28.716
v 353.779 700.691 -28.716
v 350.850 693.619 -28.716
v 353.779 686.548 -28.716
v 360.850 683.619 -28.716
v 367.921 686.548 -28.716
v 370.850 693.619 -28.716
v 367.921 700.691 -28.716
v 360.850 703.619 131.284
v 353.779 700.691 131.284
v 350.850 693.619 131.284
v 353.779 686.548 131.284
v 360.850 683.619 131.284
v 367.921 686.548 131.284
v 370.850 693.619 131.284
v 367.921 700.691 131.284
f 331 332 340 339
f 332 333 341 340
f 333 334 342 341
f 334 335 343 342
f 335 336 344 343
f 336 337 345 344
f 337 338 346 345
f 338 331 339 346
f 331 338 337
f 337 336 335
f 335 334 333
f 333 332 331
f 331 337 335
f 335 333 331
f 346 339 340
f 340 341 342
f 342 343 344
f 344 345 346
f 346 340 342
f 342 344 346
o oculus_2_cutter_2
v 707.107 703.619 -28.716
v 700.036 700.691 -28.716
v 697.107 693.619 -28.716
v 700.036 686.548 -28.716
v 707.107 683.619 -28.716
v 714.178 686.548 -28.716
v 717.107 693.619 -28.716
v 714.178 700.691 -28.716
v 707.107 703.619 131.284
v 700.036 700.691 131.284
v 697.107 693.619 131.284
v 700.036 686.548 131.284
v 707.107 683.619 131.284
v 714.178 686.548 131.284
v 717.107 693.619 131.284
v 714.178 700.691 131.284
f 347 348 356 355
f 348 349 357 356
f 349 350 358 357
f 350 351 359 358
f 351 352 360 359
f 352 353 361 360
f 353 354 362 361
f 354 347 355 362
f 347 354 353
f 353 352 351
f 351 350 349
f 349 348 347
f 347 353 351
f 351 349 347
f 362 355 356
f 356 357 358
f 358 359 360
f 360 361 362
f 362 356 358
f 358 360 362
o oculus_2_cutter_3
v 1053.364 703.619 -28.716
v 1046.293 700.691 -28.716
v 1043.364 693.619 -28.716
v 1046.293 686.548 -28.716
v 1053.364 683.619 -28.716
v 1060.435 686.548 -28.716
v 1063.364 693.619 -28.716
v 1060.435 700.691 -28.716
v 1053.364 703.619 131.284
v 1046.293 700.691 131.284
v 1043.364 693.619 131.284
v 1046.293 686.548 131.284
v 1053.364 683.619 131.284
v 1060.435 686.548 131.284
v 1063.364 693.619 131.284
v 1060.435 700.691 131.284
f 363 364 372 371
f 364 365 373 372
f 365 366 374 373
f 366 367 375 374
f 367 368 376 375
f 368 369 377 376
f 369 370 378 377
f 370 363 371 378
f 363 370 369
f 369 368 367
f 367 366 365
f 365 364 363
f 363 369 367
f 367 365 363
f 378 371 372
f 372 373 374
f 374 375 376
f 376 377 378
f 378 372 374
f 374 376 378
o oculus_3_uncut
v 17.235 1088.000 0.000
v -0.000 891.000 0.000
v 1354.214 891.000 0.000
v 1354.214 1088.000 0.000
v 17.235 1088.000 42.765
v -0.000 891.000 60.000
v 1354.214 891.000 60.000
v 1354.214 1088.000 42.765
f 379 380 384 383
f 380 381 385 384
f 381 382 386 385
f 382 379 383 386
f 379 382 381
f 381 380 379
f 386 383 384
f 384 385 386
o oculus_3
v 17.235 1088.000 42.765
v 17.235 1088.000 0.000
v 187.721 1087.250 42.830
v 350.850 990.619 0.000
v 353.779 997.691 37.104
v 350.850 990.619 36.651
v 360.850 1000.619 37.291
v 367.921 997.691 37.104
v 370.850 990.619 36.651
v 353.779 997.691 0.000
v 360.850 1000.619 0.000
v 367.921 997.691 0.000
v 370.850 990.619 0.000
v 0.000 891.000 60.000
v 0.000 891.000 0.000
v 187.721 891.000 30.281
v 187.721 891.000 60.000
v 353.779 983.548 36.199
v 360.850 980.619 36.012
v 367.921 983.548 36.199
v 353.779 983.548 0.000
v 367.921 983.548 0.000
v 360.850 980.619 0.000
v 707.107 1000.619 0.000
v 700.036 997.691 0.000
v 697.107 990.619 0.000
v 700.036 983.548 0.000
v 707.107 980.619 0.000
v 700.036 997.691 37.104
v 707.107 1000.619 37.291
v 714.178 997.691 37.104
v 697.107 990.619 36.651
v 717.107 990.619 36.651
v 714.178 997.691 0.000
v 717.107 990.619 0.000
v 1043.364 990.619 0.000
v 1053.364 1000.619 0.000
v 1046.293 997.691 0.000
v 1060.435 997.691 0.000
v 1226.492 1087.250 42.830
v 1354.214 1088.000 0.000
v 1354.214 1088.000 42.765
v 1053.364 1000.619 37.291
v 1046.293 997.691 37.104
v 1060.435 997.691 37.104
v 1043.364 990.619 36.651
v 1063.364 990.619 36.651
v 1063.364 990.619 0.000
v 700.036 983.548 36.199
v 714.178 983.548 36.199
v 707.107 980.619 36.012
v 714.178 983.548 0.000
v 1046.293 983.548 0.000
v 1060.435 983.548 0.000
v 1053.364 980.619 0.000
v 1046.293 983.548 36.199
v 1060.435 983.548 36.199
v 1053.364 980.619 36.012
v 1226.492 891.000 60.000
v 1226.492 891.000 30.281
v 1354.214 891.000 60.000
v 1354.214 891.000 0.000
f 387 388 401 400
f 387 400 403 389 426 445 447 428
f 388 396 401
f 388 397 396
f 388 413 397
f 388 410 411
f 388 411 412
f 388 412 413
f 413 398 397
f 413 399 398
f 388 423 410
f 401 396 390
f 401 390 407
f 401 407 409
f 399 413 408
f 408 414 409
f 408 413 414
f 401 409 448
f 388 427 423
f 410 424 420
f 421 420 422
f 410 423 424
f 420 424 422
f 427 425 423
f 427 448 425
f 448 409 414
f 421 422 439
f 421 439 441
f 448 438 421
f 448 414 438
f 448 421 441
f 448 434 425
f 448 440 434
f 448 441 440
f 428 427 388 387
f 400 401 448 447 445 446 402 403
f 447 448 427 428
f 389 391 393
f 389 392 391
f 389 404 392
f 389 393 416
f 393 394 416
f 394 395 418
f 394 415 416
f 394 418 415
f 389 402 404
f 404 402 405
f 405 402 406
f 395 406 435
f 406 402 435
f 395 435 418
f 435 402 437
f 437 402 444
f 389 416 426
f 416 417 426
f 417 419 426
f 419 436 426
f 437 426 436
f 437 429 426
f 437 432 430
f 437 430 429
f 429 431 426
f 431 433 426
f 433 446 426
f 437 442 432
f 437 444 442
f 444 402 446
f 444 446 443
f 443 446 433
f 396 397 393 391
f 391 392 390 396
f 398 394 393 397
f 395 394 398 399
f 389 403 402
f 404 407 390 392
f 407 404 405 409
f 406 395 399 408
f 409 405 406 408
f 411 410 416 415
f 410 420 417 416
f 412 411 415 418
f 417 420 421 419
f 432 422 424 430
f 431 429 423 425
f 430 424 423 429
f 434 433 431 425
f 412 418 435 413
f 419 421 438 436
f 437 414 413 435
f 437 436 438 414
f 432 442 439 422
f 440 443 433 434
f 442 444 441 439
f 444 443 440 441
f 445 426 446
o oculus_3_cutter_0
v 187.721 876.746 29.370
v 1226.492 876.746 29.370
v 1226.492 1087.250 42.830
v 187.721 1087.250 42.830
v 187.721 873.828 74.996
v 1226.492 873.828 74.996
v 1226.492 1084.333 88.456
v 187.721 1084.333 88.456
f 449 450 454 453
f 450 451 455 454
f 451 452 456 455
f 452 449 453 456
f 449 452 451
f 451 450 449
f 456 453 454
f 454 455 456
o oculus_3_cutter_1
v 360.850 1000.619 -28.716
v 353.779 997.691 -28.716
v 350.850 990.619 -28.716
v 353.779 983.548 -28.716
v 360.850 980.619 -28.716
v 367.921 983.548 -28.716
v 370.850 990.619 -28.716
v 367.921 997.691 -28.716
v 360.850 1000.619 131.284
v 353.779 997.691 131.284
v 350.850 990.619 131.284
v 353.779 983.548 131.284
v 360.850 980.619 131.284
v 367.921 983.548 131.284
v 370.850 990.619 131.284
v 367.921 997.691 131.284
f 457 458 466 465
f 458 459 467 466
f 459 460 468 467
f 460 461 469 468
f 461 462 470 469
f 462 463 471 470
f 463 464 472 471
f 464 457 465 472
f 457 464 463
f 463 462 461
f 461 460 459
f 459 458 457
f 457 463 461
f 461 459 457
f 472 465 466
f 466 467 468
f 468 469 470
f 470 471 472
f 472 466 468
f 468 470 472
o oculus_3_cutter_2
v 707.107 1000.619 -28.716
v 700.036 997.691 -28.716
v 697.107 990.619 -28.716
v 700.036 983.548 -28.716
v 707.107 980.619 -28.716
v 714.178 983.548 -28.716
v 717.107 990.619 -28.716
v 714.178 997.691 -28.716
v 707.107 1000.619 131.284
v 700.036 997.691 131.284
v 697.107 990.619 131.284
v 700.036 983.548 131.284
v 707.107 980.619 131.284
v 714.178 983.548 131.284
v 717.107 990.619 131.284
v 714.178 997.691 131.284
f 473 474 482 481
f 474 475 483 482
f 475 476 484 483
f 476 477 485 484
f 477 478 486 485
f 478 479 487 486
f 479 480 488 487
f 480 473 481 488
f 473 480 479
f 479 478 477
f 477 476 475
f 475 474 473
f 473 479 477
f 477 475 473
f 488 481 482
f 482 483 484
f 484 485 486
f 486 487 488
f 488 482 484
f 484 486 488
o oculus_3_cutter_3
v 1053.364 1000.619 -28.716
v 1046.293 997.691 -28.716
v 1043.364 990.619 -28.716
v 1046.293 983.548 -28.716
v 1053.364 980.619 -28.716
v 1060.435 983.548 -28.716
v 1063.364 990.619 -28.716
v 1060.435 997.691 -28.716
v 1053.364 1000.619 131.284
v 1046.293 997.691 131.284
v 1043.364 990.619 131.284
v 1046.293 983.548 131.284
v 1053.364 980.619 131.284
v 1060.435 983.548 131.284
v 1063.364 990.619 131.284
v 1060.435 997.691 131.284
f 489 490 498 497
f 490 491 499 498
f 491 492 500 499
f 492 493 501 500
f 493 494 502 501
f 494 495 503 502
f 495 496 504 503
f 496 489 497 504
f 489 496 495
f 495 494 493
f 493 492 491
f 491 490 489
f 489 495 493
f 493 491 489
f 504 497 498
f 498 499 500
f 500 501 502
f 502 503 504
f 504 498 500
f 500 502 504
