ISO-10303-21;
HEADER;
FILE_DESCRIPTION(('ViewDefinition [CoordinationView]'),'2;1');
FILE_NAME('','2026-08-20T14:42:11',(''),(''),'IfcOpenShell 0.8.4-e8eb5e4','IfcOpenShell 0.8.4-e8eb5e4','');
FILE_SCHEMA(('IFC4'));
ENDSEC;
DATA;
#1=IFCPROJECT('0eCXK6SJPEcxwwURx0pXbp',$,'Default Project',$,$,$,$,(#11),#6);
#2=IFCSIUNIT(*,.LENGTHUNIT.,.MILLI.,.METRE.);
#3=IFCSIUNIT(*,.AREAUNIT.,.MILLI.,.SQUARE_METRE.);
#4=IFCSIUNIT(*,.VOLUMEUNIT.,.MILLI.,.CUBIC_METRE.);
#5=IFCSIUNIT(*,.PLANEANGLEUNIT.,$,.RADIAN.);
#6=IFCUNITASSIGNMENT((#2,#3,#4,#5));
#7=IFCCARTESIANPOINT((0.,0.,0.));
#8=IFCDIRECTION((0.,0.,1.));
#9=IFCDIRECTION((1.,0.,0.));
#10=IFCAXIS2PLACEMENT3D(#7,#8,#9);
#11=IFCGEOMETRICREPRESENTATIONCONTEXT($,'Model',3,1.E-05,#10,$);
#12=IFCGEOMETRICREPRESENTATIONSUBCONTEXT('Body','Model',*,*,*,*,#11,$,.MODEL_VIEW.,$);
#13=IFCPERSON($,'Unknown Author',$,$,$,$,$,$);
#14=IFCORGANIZATION($,'compas.dev',$,$,$);
#15=IFCPERSONANDORGANIZATION(#13,#14,$);
#16=IFCAPPLICATION(#14,'2.1.0','compas_ifc','compas_ifc v2.1.0');
#17=IFCOWNERHISTORY(#15,#16,$,$,$,$,$,1787229731);
#18=IFCSITE('2DRREfm4H9F8OGbs0zqfEI',$,'Default Site',$,$,$,$,$,$,$,$,$,$,$);
#19=IFCRELAGGREGATES('1V$J$9ADvDmOSBZlHNC6nS',$,$,$,#1,(#18));
#20=IFCBUILDING('38MoIpsr5EdhyBAFbPXYdH',$,'Default Building 1',$,$,$,$,$,$,$,$,$);
#21=IFCRELAGGREGATES('1v35ilo$XAwP$Rzxd4HT1v',$,$,$,#18,(#20));
#22=IFCBUILDINGSTOREY('3Xs0UoGpb2IxzfbPRnXFyb',$,'Default Storey 1',$,$,$,$,$,$,$);
#23=IFCRELAGGREGATES('0dD29h8t9DpPFEWaJJPG40',$,$,$,#20,(#22));
#24=IFCBUILDINGELEMENTPROXY('3JwtiYlVHF7Akkzyp5$Lbb',$,'oculus_0_uncut',$,$,$,#37,$,$);
#25=IFCRELCONTAINEDINSPATIALSTRUCTURE('2SQKCfwL9CDQJk9YDQ5B4B',$,$,$,(#24),#22);
#26=IFCINDEXEDPOLYGONALFACE((1,2,6,5));
#27=IFCINDEXEDPOLYGONALFACE((2,3,7,6));
#28=IFCINDEXEDPOLYGONALFACE((3,4,8,7));
#29=IFCINDEXEDPOLYGONALFACE((4,1,5,8));
#30=IFCINDEXEDPOLYGONALFACE((1,4,3));
#31=IFCINDEXEDPOLYGONALFACE((3,2,1));
#32=IFCINDEXEDPOLYGONALFACE((8,5,6));
#33=IFCINDEXEDPOLYGONALFACE((6,7,8));
#34=IFCCARTESIANPOINTLIST3D(((1336.97829565849,5.6843418860808E-14,1.63862687728126E-13),(1354.2135623731,197.,8.24446800262887E-14),(0.,197.,1.19295497542096E-13),(0.,2.8421709430404E-13,3.72886760191097E-14),(1336.97829565849,1.13686837721616E-13,42.7647332853931),(1354.2135623731,197.,60.0000000000001),(0.,197.000000000001,60.0000000000003),(1.13686837721616E-13,3.41060513164848E-13,42.7647332853933)));
#35=IFCPOLYGONALFACESET(#34,.T.,(#26,#27,#28,#29,#30,#31,#32,#33),$);
#36=IFCSHAPEREPRESENTATION(#12,'Body','Tessellation',(#35));
#37=IFCPRODUCTDEFINITIONSHAPE($,$,(#36));
#38=IFCBUILDINGELEMENTPROXY('190k_HB4L3DwX_PLsnKmKG',$,'oculus_0',$,$,$,#138,$,$);
#39=IFCRELCONTAINEDINSPATIALSTRUCTURE('080EAhQiz4QudBCfgXotJQ',$,$,$,(#38),#22);
#40=IFCINDEXEDPOLYGONALFACE((25,26,2,1));
#41=IFCINDEXEDPOLYGONALFACE((24,25,1,45,56,54,44,3));
#42=IFCINDEXEDPOLYGONALFACE((2,26,9));
#43=IFCINDEXEDPOLYGONALFACE((2,19,18));
#44=IFCINDEXEDPOLYGONALFACE((2,9,19));
#45=IFCINDEXEDPOLYGONALFACE((2,18,46));
#46=IFCINDEXEDPOLYGONALFACE((18,20,58));
#47=IFCINDEXEDPOLYGONALFACE((17,15,20));
#48=IFCINDEXEDPOLYGONALFACE((20,15,58));
#49=IFCINDEXEDPOLYGONALFACE((17,16,15));
#50=IFCINDEXEDPOLYGONALFACE((26,32,9));
#51=IFCINDEXEDPOLYGONALFACE((26,34,32));
#52=IFCINDEXEDPOLYGONALFACE((17,33,16));
#53=IFCINDEXEDPOLYGONALFACE((16,33,34));
#54=IFCINDEXEDPOLYGONALFACE((26,31,16));
#55=IFCINDEXEDPOLYGONALFACE((26,62,31));
#56=IFCINDEXEDPOLYGONALFACE((26,53,62));
#57=IFCINDEXEDPOLYGONALFACE((26,16,34));
#58=IFCINDEXEDPOLYGONALFACE((46,18,58));
#59=IFCINDEXEDPOLYGONALFACE((46,61,41));
#60=IFCINDEXEDPOLYGONALFACE((46,58,59));
#61=IFCINDEXEDPOLYGONALFACE((46,59,60));
#62=IFCINDEXEDPOLYGONALFACE((46,60,61));
#63=IFCINDEXEDPOLYGONALFACE((61,42,41));
#64=IFCINDEXEDPOLYGONALFACE((61,43,42));
#65=IFCINDEXEDPOLYGONALFACE((46,41,40));
#66=IFCINDEXEDPOLYGONALFACE((46,40,57));
#67=IFCINDEXEDPOLYGONALFACE((52,61,62));
#68=IFCINDEXEDPOLYGONALFACE((52,43,61));
#69=IFCINDEXEDPOLYGONALFACE((52,62,53));
#70=IFCINDEXEDPOLYGONALFACE((26,57,53));
#71=IFCINDEXEDPOLYGONALFACE((57,40,47));
#72=IFCINDEXEDPOLYGONALFACE((57,47,51));
#73=IFCINDEXEDPOLYGONALFACE((57,51,53));
#74=IFCINDEXEDPOLYGONALFACE((1,2,46,45));
#75=IFCINDEXEDPOLYGONALFACE((25,24,27,55,54,56,57,26));
#76=IFCINDEXEDPOLYGONALFACE((45,46,57,56));
#77=IFCINDEXEDPOLYGONALFACE((3,4,6));
#78=IFCINDEXEDPOLYGONALFACE((3,6,7));
#79=IFCINDEXEDPOLYGONALFACE((3,7,27));
#80=IFCINDEXEDPOLYGONALFACE((3,44,12));
#81=IFCINDEXEDPOLYGONALFACE((3,30,4));
#82=IFCINDEXEDPOLYGONALFACE((3,12,13));
#83=IFCINDEXEDPOLYGONALFACE((3,13,10));
#84=IFCINDEXEDPOLYGONALFACE((3,10,29));
#85=IFCINDEXEDPOLYGONALFACE((3,29,30));
#86=IFCINDEXEDPOLYGONALFACE((4,30,5));
#87=IFCINDEXEDPOLYGONALFACE((5,30,8));
#88=IFCINDEXEDPOLYGONALFACE((21,27,7));
#89=IFCINDEXEDPOLYGONALFACE((21,23,27));
#90=IFCINDEXEDPOLYGONALFACE((8,30,22));
#91=IFCINDEXEDPOLYGONALFACE((23,22,30));
#92=IFCINDEXEDPOLYGONALFACE((23,55,27));
#93=IFCINDEXEDPOLYGONALFACE((36,11,12));
#94=IFCINDEXEDPOLYGONALFACE((37,14,11));
#95=IFCINDEXEDPOLYGONALFACE((44,35,12));
#96=IFCINDEXEDPOLYGONALFACE((35,36,12));
#97=IFCINDEXEDPOLYGONALFACE((36,37,11));
#98=IFCINDEXEDPOLYGONALFACE((44,38,35));
#99=IFCINDEXEDPOLYGONALFACE((44,39,38));
#100=IFCINDEXEDPOLYGONALFACE((44,49,39));
#101=IFCINDEXEDPOLYGONALFACE((48,28,14));
#102=IFCINDEXEDPOLYGONALFACE((23,30,55));
#103=IFCINDEXEDPOLYGONALFACE((28,55,30));
#104=IFCINDEXEDPOLYGONALFACE((37,48,14));
#105=IFCINDEXEDPOLYGONALFACE((48,55,28));
#106=IFCINDEXEDPOLYGONALFACE((44,55,49));
#107=IFCINDEXEDPOLYGONALFACE((48,50,55));
#108=IFCINDEXEDPOLYGONALFACE((49,55,50));
#109=IFCINDEXEDPOLYGONALFACE((19,6,4,18));
#110=IFCINDEXEDPOLYGONALFACE((4,5,20,18));
#111=IFCINDEXEDPOLYGONALFACE((7,6,19,9));
#112=IFCINDEXEDPOLYGONALFACE((20,5,8,17));
#113=IFCINDEXEDPOLYGONALFACE((58,15,13,12));
#114=IFCINDEXEDPOLYGONALFACE((12,11,59,58));
#115=IFCINDEXEDPOLYGONALFACE((10,13,15,16));
#116=IFCINDEXEDPOLYGONALFACE((14,60,59,11));
#117=IFCINDEXEDPOLYGONALFACE((24,3,27));
#118=IFCINDEXEDPOLYGONALFACE((32,21,7,9));
#119=IFCINDEXEDPOLYGONALFACE((17,8,22,33));
#120=IFCINDEXEDPOLYGONALFACE((33,22,23,34));
#121=IFCINDEXEDPOLYGONALFACE((32,34,23,21));
#122=IFCINDEXEDPOLYGONALFACE((16,31,29,10));
#123=IFCINDEXEDPOLYGONALFACE((28,61,60,14));
#124=IFCINDEXEDPOLYGONALFACE((62,30,29,31));
#125=IFCINDEXEDPOLYGONALFACE((61,28,30,62));
#126=IFCINDEXEDPOLYGONALFACE((38,40,41,35));
#127=IFCINDEXEDPOLYGONALFACE((39,47,40,38));
#128=IFCINDEXEDPOLYGONALFACE((42,36,35,41));
#129=IFCINDEXEDPOLYGONALFACE((42,43,37,36));
#130=IFCINDEXEDPOLYGONALFACE((49,51,47,39));
#131=IFCINDEXEDPOLYGONALFACE((50,53,51,49));
#132=IFCINDEXEDPOLYGONALFACE((52,48,37,43));
#133=IFCINDEXEDPOLYGONALFACE((53,50,48,52));
#134=IFCINDEXEDPOLYGONALFACE((44,54,55));
#135=IFCCARTESIANPOINTLIST3D(((-1.13686837721616E-13,4.54747350886464E-13,42.7647332853933),(-1.13686837721616E-13,4.54747350886464E-13,0.),(127.721077887716,0.749644475926374,42.8303186787115),(300.849645653993,87.3805301908251,37.2908218883683),(307.920713465858,90.3094623789603,37.1035352143214),(293.778577842127,90.3094623789603,37.1035352143213),(290.849645653993,97.3805301908254,36.6513851857849),(310.849645653993,97.3805301908254,36.6513851857849),(290.849645653993,97.3805301908254,2.27373675443232E-13),(637.106781186547,97.3805301908255,36.6513851857849),(654.177848998413,90.30946237896,37.1035352143213),(647.106781186548,87.3805301908253,37.2908218883684),(640.035713374682,90.30946237896,37.1035352143213),(657.106781186547,97.3805301908255,36.6513851857849),(640.035713374682,90.30946237896,2.27373675443232E-13),(637.106781186547,97.3805301908252,1.13686837721616E-13),(310.849645653993,97.3805301908254,1.13686837721616E-13),(300.849645653993,87.3805301908255,1.13686837721616E-13),(293.778577842127,90.3094623789603,1.13686837721616E-13),(307.920713465858,90.3094623789603,1.13686837721616E-13),(293.778577842128,104.45159800269,36.1992351572484),(307.920713465859,104.45159800269,36.1992351572485),(300.849645653993,107.380530190825,36.0119484832014),(127.721077887716,197.,60.0000000000002),(0.,197.,60.0000000000003),(0.,197.,1.13686837721616E-13),(127.721077887716,197.,30.2813506569945),(654.177848998413,104.45159800269,36.1992351572484),(640.035713374682,104.45159800269,36.1992351572484),(647.106781186548,107.380530190825,36.0119484832012),(640.035713374682,104.45159800269,2.27373675443232E-13),(293.778577842128,104.45159800269,1.13686837721616E-13),(307.920713465859,104.45159800269,1.13686837721616E-13),(300.849645653993,107.380530190825,1.13686837721616E-13),(993.363916719102,87.3805301908251,37.2908218883684),(986.292848907237,90.3094623789599,37.1035352143213),(983.363916719102,97.3805301908252,36.6513851857848),(1000.43498453097,90.3094623789599,37.1035352143213),(1003.3639167191,97.3805301908252,36.6513851857849),(1000.43498453097,90.3094623789599,2.27373675443232E-13),(993.363916719102,87.3805301908251,1.13686837721616E-13),(986.292848907236,90.30946237896,1.13686837721616E-13),(983.363916719102,97.3805301908252,2.27373675443232E-13),(1166.49248448538,0.749644475926289,42.8303186787114),(1336.97829565849,1.70530256582424E-13,42.764733285393),(1336.97829565849,0.,1.13686837721616E-13),(1003.3639167191,97.3805301908252,2.27373675443232E-13),(986.292848907237,104.451598002691,36.1992351572484),(1000.43498453097,104.451598002691,36.1992351572484),(993.363916719102,107.380530190825,36.0119484832012),(1000.43498453097,104.451598002691,1.13686837721616E-13),(986.292848907237,104.451598002691,1.13686837721616E-13),(993.363916719102,107.380530190826,1.13686837721616E-13),(1166.49248448538,197.,60.0000000000001),(1166.49248448538,197.,30.2813506569944),(1354.2135623731,197.,60.0000000000001),(1354.2135623731,197.,1.13686837721616E-13),(647.106781186548,87.3805301908253,2.27373675443232E-13),(654.177848998413,90.30946237896,2.27373675443232E-13),(657.106781186547,97.3805301908255,2.27373675443232E-13),(654.177848998413,104.45159800269,2.27373675443232E-13),(647.106781186548,107.380530190825,2.27373675443232E-13)));
#136=IFCPOLYGONALFACESET(#135,.T.,(#40,#41,#42,#43,#44,#45,#46,#47,#48,#49,#50,#51,#52,#53,#54,#55,#56,#57,#58,#59,#60,#61,#62,#63,#64,#65,#66,#67,#68,#69,#70,#71,#72,#73,#74,#75,#76,#77,#78,#79,#80,#81,#82,#83,#84,#85,#86,#87,#88,#89,#90,#91,#92,#93,#94,#95,#96,#97,#98,#99,#100,#101,#102,#103,#104,#105,#106,#107,#108,#109,#110,#111,#112,#113,#114,#115,#116,#117,#118,#119,#120,#121,#122,#123,#124,#125,#126,#127,#128,#129,#130,#131,#132,#133,#134),$);
#137=IFCSHAPEREPRESENTATION(#12,'Body','Tessellation',(#136));
#138=IFCPRODUCTDEFINITIONSHAPE($,$,(#137));
#139=IFCBUILDINGELEMENTPROXY('2rVCCt_dbFXBa4LBSatFyd',$,'oculus_0_cutter_0',$,$,$,#152,$,$);
#140=IFCRELCONTAINEDINSPATIALSTRUCTURE('3Gn2W3XqbCyOBs0w_W8LfB',$,$,$,(#139),#22);
#141=IFCINDEXEDPOLYGONALFACE((1,2,6,5));
#142=IFCINDEXEDPOLYGONALFACE((2,3,7,6));
#143=IFCINDEXEDPOLYGONALFACE((3,4,8,7));
#144=IFCINDEXEDPOLYGONALFACE((4,1,5,8));
#145=IFCINDEXEDPOLYGONALFACE((1,4,3));
#146=IFCINDEXEDPOLYGONALFACE((3,2,1));
#147=IFCINDEXEDPOLYGONALFACE((8,5,6));
#148=IFCINDEXEDPOLYGONALFACE((6,7,8));
#149=IFCCARTESIANPOINTLIST3D(((1166.49248448538,211.254440228778,29.3698694312879),(127.721077887716,211.254440228778,29.369869431288),(127.721077887716,0.749644475926601,42.8303186787115),(1166.49248448538,0.749644475926374,42.8303186787114),(1166.49248448538,214.171937065244,74.9959153663743),(127.721077887716,214.171937065244,74.9959153663744),(127.721077887716,3.66714131239212,88.4563646137979),(1166.49248448538,3.66714131239198,88.4563646137978)));
#150=IFCPOLYGONALFACESET(#149,.T.,(#141,#142,#143,#144,#145,#146,#147,#148),$);
#151=IFCSHAPEREPRESENTATION(#12,'Body','Tessellation',(#150));
#152=IFCPRODUCTDEFINITIONSHAPE($,$,(#151));
#153=IFCBUILDINGELEMENTPROXY('3Ud_0N_I94YxN0IEWaE2cu',$,'oculus_0_cutter_1',$,$,$,#178,$,$);
#154=IFCRELCONTAINEDINSPATIALSTRUCTURE('3s$gCnHor939dYQEUo07kT',$,$,$,(#153),#22);
#155=IFCINDEXEDPOLYGONALFACE((1,2,10,9));
#156=IFCINDEXEDPOLYGONALFACE((2,3,11,10));
#157=IFCINDEXEDPOLYGONALFACE((3,4,12,11));
#158=IFCINDEXEDPOLYGONALFACE((4,5,13,12));
#159=IFCINDEXEDPOLYGONALFACE((5,6,14,13));
#160=IFCINDEXEDPOLYGONALFACE((6,7,15,14));
#161=IFCINDEXEDPOLYGONALFACE((7,8,16,15));
#162=IFCINDEXEDPOLYGONALFACE((8,1,9,16));
#163=IFCINDEXEDPOLYGONALFACE((1,8,7));
#164=IFCINDEXEDPOLYGONALFACE((7,6,5));
#165=IFCINDEXEDPOLYGONALFACE((5,4,3));
#166=IFCINDEXEDPOLYGONALFACE((3,2,1));
#167=IFCINDEXEDPOLYGONALFACE((1,7,5));
#168=IFCINDEXEDPOLYGONALFACE((5,3,1));
#169=IFCINDEXEDPOLYGONALFACE((16,9,10));
#170=IFCINDEXEDPOLYGONALFACE((10,11,12));
#171=IFCINDEXEDPOLYGONALFACE((12,13,14));
#172=IFCINDEXEDPOLYGONALFACE((14,15,16));
#173=IFCINDEXEDPOLYGONALFACE((16,10,12));
#174=IFCINDEXEDPOLYGONALFACE((12,14,16));
#175=IFCCARTESIANPOINTLIST3D(((993.363916719102,107.380530190825,-28.7155742747658),(986.292848907237,104.45159800269,-28.7155742747658),(983.363916719102,97.3805301908253,-28.7155742747659),(986.292848907237,90.3094623789599,-28.7155742747658),(993.363916719102,87.3805301908252,-28.7155742747658),(1000.43498453097,90.3094623789599,-28.7155742747658),(1003.3639167191,97.3805301908253,-28.7155742747658),(1000.43498453097,104.45159800269,-28.7155742747658),(993.363916719102,107.380530190825,131.284425725234),(986.292848907237,104.45159800269,131.284425725234),(983.363916719102,97.3805301908253,131.284425725234),(986.292848907237,90.30946237896,131.284425725234),(993.363916719102,87.3805301908253,131.284425725234),(1000.43498453097,90.30946237896,131.284425725234),(1003.3639167191,97.3805301908253,131.284425725234),(1000.43498453097,104.45159800269,131.284425725234)));
#176=IFCPOLYGONALFACESET(#175,.T.,(#155,#156,#157,#158,#159,#160,#161,#162,#163,#164,#165,#166,#167,#168,#169,#170,#171,#172,#173,#174),$);
#177=IFCSHAPEREPRESENTATION(#12,'Body','Tessellation',(#176));
#178=IFCPRODUCTDEFINITIONSHAPE($,$,(#177));
#179=IFCBUILDINGELEMENTPROXY('3$9kWmR5nEUeQkFvLd9G_3',$,'oculus_0_cutter_2',$,$,$,#204,$,$);
#180=IFCRELCONTAINEDINSPATIALSTRUCTURE('3lr3eEJVjFpPpW_P1ugxdk',$,$,$,(#179),#22);
#181=IFCINDEXEDPOLYGONALFACE((1,2,10,9));
#182=IFCINDEXEDPOLYGONALFACE((2,3,11,10));
#183=IFCINDEXEDPOLYGONALFACE((3,4,12,11));
#184=IFCINDEXEDPOLYGONALFACE((4,5,13,12));
#185=IFCINDEXEDPOLYGONALFACE((5,6,14,13));
#186=IFCINDEXEDPOLYGONALFACE((6,7,15,14));
#187=IFCINDEXEDPOLYGONALFACE((7,8,16,15));
#188=IFCINDEXEDPOLYGONALFACE((8,1,9,16));
#189=IFCINDEXEDPOLYGONALFACE((1,8,7));
#190=IFCINDEXEDPOLYGONALFACE((7,6,5));
#191=IFCINDEXEDPOLYGONALFACE((5,4,3));
#192=IFCINDEXEDPOLYGONALFACE((3,2,1));
#193=IFCINDEXEDPOLYGONALFACE((1,7,5));
#194=IFCINDEXEDPOLYGONALFACE((5,3,1));
#195=IFCINDEXEDPOLYGONALFACE((16,9,10));
#196=IFCINDEXEDPOLYGONALFACE((10,11,12));
#197=IFCINDEXEDPOLYGONALFACE((12,13,14));
#198=IFCINDEXEDPOLYGONALFACE((14,15,16));
#199=IFCINDEXEDPOLYGONALFACE((16,10,12));
#200=IFCINDEXEDPOLYGONALFACE((12,14,16));
#201=IFCCARTESIANPOINTLIST3D(((647.106781186548,107.380530190825,-28.7155742747658),(640.035713374682,104.451598002691,-28.7155742747657),(637.106781186547,97.3805301908254,-28.7155742747658),(640.035713374682,90.30946237896,-28.7155742747657),(647.106781186548,87.3805301908253,-28.7155742747658),(654.177848998413,90.30946237896,-28.7155742747657),(657.106781186547,97.3805301908253,-28.7155742747658),(654.177848998413,104.451598002691,-28.7155742747657),(647.106781186548,107.380530190825,131.284425725234),(640.035713374682,104.451598002691,131.284425725234),(637.106781186547,97.3805301908254,131.284425725234),(640.035713374682,90.30946237896,131.284425725234),(647.106781186548,87.3805301908253,131.284425725234),(654.177848998413,90.30946237896,131.284425725234),(657.106781186547,97.3805301908254,131.284425725234),(654.177848998413,104.451598002691,131.284425725234)));
#202=IFCPOLYGONALFACESET(#201,.T.,(#181,#182,#183,#184,#185,#186,#187,#188,#189,#190,#191,#192,#193,#194,#195,#196,#197,#198,#199,#200),$);
#203=IFCSHAPEREPRESENTATION(#12,'Body','Tessellation',(#202));
#204=IFCPRODUCTDEFINITIONSHAPE($,$,(#203));
#205=IFCBUILDINGELEMENTPROXY('35mnO7rfbBSvu3lGSVgRwi',$,'oculus_0_cutter_3',$,$,$,#230,$,$);
#206=IFCRELCONTAINEDINSPATIALSTRUCTURE('0qKwXoPl5CA9YSgnLha5yD',$,$,$,(#205),#22);
#207=IFCINDEXEDPOLYGONALFACE((1,2,10,9));
#208=IFCINDEXEDPOLYGONALFACE((2,3,11,10));
#209=IFCINDEXEDPOLYGONALFACE((3,4,12,11));
#210=IFCINDEXEDPOLYGONALFACE((4,5,13,12));
#211=IFCINDEXEDPOLYGONALFACE((5,6,14,13));
#212=IFCINDEXEDPOLYGONALFACE((6,7,15,14));
#213=IFCINDEXEDPOLYGONALFACE((7,8,16,15));
#214=IFCINDEXEDPOLYGONALFACE((8,1,9,16));
#215=IFCINDEXEDPOLYGONALFACE((1,8,7));
#216=IFCINDEXEDPOLYGONALFACE((7,6,5));
#217=IFCINDEXEDPOLYGONALFACE((5,4,3));
#218=IFCINDEXEDPOLYGONALFACE((3,2,1));
#219=IFCINDEXEDPOLYGONALFACE((1,7,5));
#220=IFCINDEXEDPOLYGONALFACE((5,3,1));
#221=IFCINDEXEDPOLYGONALFACE((16,9,10));
#222=IFCINDEXEDPOLYGONALFACE((10,11,12));
#223=IFCINDEXEDPOLYGONALFACE((12,13,14));
#224=IFCINDEXEDPOLYGONALFACE((14,15,16));
#225=IFCINDEXEDPOLYGONALFACE((16,10,12));
#226=IFCINDEXEDPOLYGONALFACE((12,14,16));
#227=IFCCARTESIANPOINTLIST3D(((300.849645653993,107.380530190825,-28.7155742747658),(293.778577842127,104.451598002691,-28.7155742747658),(290.849645653993,97.3805301908254,-28.7155742747658),(293.778577842127,90.30946237896,-28.7155742747658),(300.849645653993,87.3805301908253,-28.7155742747658),(307.920713465858,90.3094623789601,-28.7155742747658),(310.849645653993,97.3805301908254,-28.7155742747658),(307.920713465858,104.451598002691,-28.7155742747658),(300.849645653993,107.380530190826,131.284425725234),(293.778577842127,104.451598002691,131.284425725234),(290.849645653993,97.3805301908254,131.284425725234),(293.778577842127,90.3094623789601,131.284425725234),(300.849645653993,87.3805301908253,131.284425725234),(307.920713465858,90.3094623789601,131.284425725234),(310.849645653993,97.3805301908254,131.284425725234),(307.920713465858,104.451598002691,131.284425725234)));
#228=IFCPOLYGONALFACESET(#227,.T.,(#207,#208,#209,#210,#211,#212,#213,#214,#215,#216,#217,#218,#219,#220,#221,#222,#223,#224,#225,#226),$);
#229=IFCSHAPEREPRESENTATION(#12,'Body','Tessellation',(#228));
#230=IFCPRODUCTDEFINITIONSHAPE($,$,(#229));
#231=IFCBUILDINGELEMENTPROXY('0iSQNRUv5EvwgQE7EpIco8',$,'oculus_1_uncut',$,$,$,#244,$,$);
#232=IFCRELCONTAINEDINSPATIALSTRUCTURE('2fgBB09JzE18qytrTYbF60',$,$,$,(#231),#22);
#233=IFCINDEXEDPOLYGONALFACE((1,2,6,5));
#234=IFCINDEXEDPOLYGONALFACE((2,3,7,6));
#235=IFCINDEXEDPOLYGONALFACE((3,4,8,7));
#236=IFCINDEXEDPOLYGONALFACE((4,1,5,8));
#237=IFCINDEXEDPOLYGONALFACE((1,4,3));
#238=IFCINDEXEDPOLYGONALFACE((3,2,1));
#239=IFCINDEXEDPOLYGONALFACE((8,5,6));
#240=IFCINDEXEDPOLYGONALFACE((6,7,8));
#241=IFCCARTESIANPOINTLIST3D(((1336.97829565849,297.000000000001,2.21372240403709E-13),(1354.2135623731,494.000000000001,1.83697019872103E-13),(0.,494.000000000001,7.00101821504869E-14),(-1.13686837721616E-13,297.,1.77530442365809E-14),(1336.97829565849,297.000000000001,42.7647332853931),(1354.2135623731,494.000000000001,60.0000000000001),(0.,494.000000000001,60.0000000000002),(-1.13686837721616E-13,297.,42.7647332853931)));
#242=IFCPOLYGONALFACESET(#241,.T.,(#233,#234,#235,#236,#237,#238,#239,#240),$);
#243=IFCSHAPEREPRESENTATION(#12,'Body','Tessellation',(#242));
#244=IFCPRODUCTDEFINITIONSHAPE($,$,(#243));
#245=IFCBUILDINGELEMENTPROXY('28eaHtGVP8WhDTtorCcFj2',$,'oculus_1',$,$,$,#345,$,$);
#246=IFCRELCONTAINEDINSPATIALSTRUCTURE('0mu5krWkn26P6gKlG5vkLi',$,$,$,(#245),#22);
#247=IFCINDEXEDPOLYGONALFACE((24,2,1,25));
#248=IFCINDEXEDPOLYGONALFACE((27,25,1,52,62,59,50,3));
#249=IFCINDEXEDPOLYGONALFACE((2,11,10));
#250=IFCINDEXEDPOLYGONALFACE((2,4,11));
#251=IFCINDEXEDPOLYGONALFACE((2,28,4));
#252=IFCINDEXEDPOLYGONALFACE((2,10,51));
#253=IFCINDEXEDPOLYGONALFACE((12,35,10));
#254=IFCINDEXEDPOLYGONALFACE((12,13,14));
#255=IFCINDEXEDPOLYGONALFACE((13,15,14));
#256=IFCINDEXEDPOLYGONALFACE((12,14,35));
#257=IFCINDEXEDPOLYGONALFACE((2,24,28));
#258=IFCINDEXEDPOLYGONALFACE((24,30,28));
#259=IFCINDEXEDPOLYGONALFACE((24,15,30));
#260=IFCINDEXEDPOLYGONALFACE((29,15,13));
#261=IFCINDEXEDPOLYGONALFACE((15,29,30));
#262=IFCINDEXEDPOLYGONALFACE((24,31,15));
#263=IFCINDEXEDPOLYGONALFACE((24,39,31));
#264=IFCINDEXEDPOLYGONALFACE((24,55,39));
#265=IFCINDEXEDPOLYGONALFACE((51,10,35));
#266=IFCINDEXEDPOLYGONALFACE((51,35,36));
#267=IFCINDEXEDPOLYGONALFACE((51,36,37));
#268=IFCINDEXEDPOLYGONALFACE((51,37,38));
#269=IFCINDEXEDPOLYGONALFACE((38,41,40));
#270=IFCINDEXEDPOLYGONALFACE((38,43,41));
#271=IFCINDEXEDPOLYGONALFACE((51,38,40));
#272=IFCINDEXEDPOLYGONALFACE((51,40,42));
#273=IFCINDEXEDPOLYGONALFACE((51,42,49));
#274=IFCINDEXEDPOLYGONALFACE((51,49,54));
#275=IFCINDEXEDPOLYGONALFACE((39,53,38));
#276=IFCINDEXEDPOLYGONALFACE((38,53,43));
#277=IFCINDEXEDPOLYGONALFACE((39,55,53));
#278=IFCINDEXEDPOLYGONALFACE((24,61,55));
#279=IFCINDEXEDPOLYGONALFACE((61,54,55));
#280=IFCINDEXEDPOLYGONALFACE((51,54,61));
#281=IFCINDEXEDPOLYGONALFACE((1,2,51,52));
#282=IFCINDEXEDPOLYGONALFACE((60,59,62,61,24,25,27,26));
#283=IFCINDEXEDPOLYGONALFACE((52,51,61,62));
#284=IFCINDEXEDPOLYGONALFACE((3,6,5));
#285=IFCINDEXEDPOLYGONALFACE((3,5,8));
#286=IFCINDEXEDPOLYGONALFACE((3,8,26));
#287=IFCINDEXEDPOLYGONALFACE((3,50,17));
#288=IFCINDEXEDPOLYGONALFACE((3,34,6));
#289=IFCINDEXEDPOLYGONALFACE((3,17,18));
#290=IFCINDEXEDPOLYGONALFACE((3,18,16));
#291=IFCINDEXEDPOLYGONALFACE((3,16,32));
#292=IFCINDEXEDPOLYGONALFACE((3,32,34));
#293=IFCINDEXEDPOLYGONALFACE((6,34,7));
#294=IFCINDEXEDPOLYGONALFACE((7,34,9));
#295=IFCINDEXEDPOLYGONALFACE((8,21,26));
#296=IFCINDEXEDPOLYGONALFACE((21,23,26));
#297=IFCINDEXEDPOLYGONALFACE((9,34,22));
#298=IFCINDEXEDPOLYGONALFACE((23,22,34));
#299=IFCINDEXEDPOLYGONALFACE((23,60,26));
#300=IFCINDEXEDPOLYGONALFACE((17,45,19));
#301=IFCINDEXEDPOLYGONALFACE((19,45,20));
#302=IFCINDEXEDPOLYGONALFACE((17,50,44));
#303=IFCINDEXEDPOLYGONALFACE((17,44,45));
#304=IFCINDEXEDPOLYGONALFACE((20,45,46));
#305=IFCINDEXEDPOLYGONALFACE((50,47,44));
#306=IFCINDEXEDPOLYGONALFACE((50,48,47));
#307=IFCINDEXEDPOLYGONALFACE((50,57,48));
#308=IFCINDEXEDPOLYGONALFACE((20,46,33));
#309=IFCINDEXEDPOLYGONALFACE((23,34,60));
#310=IFCINDEXEDPOLYGONALFACE((34,33,60));
#311=IFCINDEXEDPOLYGONALFACE((33,46,56));
#312=IFCINDEXEDPOLYGONALFACE((33,56,60));
#313=IFCINDEXEDPOLYGONALFACE((50,60,57));
#314=IFCINDEXEDPOLYGONALFACE((56,58,60));
#315=IFCINDEXEDPOLYGONALFACE((58,57,60));
#316=IFCINDEXEDPOLYGONALFACE((10,11,5,6));
#317=IFCINDEXEDPOLYGONALFACE((5,11,4,8));
#318=IFCINDEXEDPOLYGONALFACE((7,12,10,6));
#319=IFCINDEXEDPOLYGONALFACE((7,9,13,12));
#320=IFCINDEXEDPOLYGONALFACE((35,17,19,36));
#321=IFCINDEXEDPOLYGONALFACE((14,18,17,35));
#322=IFCINDEXEDPOLYGONALFACE((14,15,16,18));
#323=IFCINDEXEDPOLYGONALFACE((20,37,36,19));
#324=IFCINDEXEDPOLYGONALFACE((3,26,27));
#325=IFCINDEXEDPOLYGONALFACE((4,28,21,8));
#326=IFCINDEXEDPOLYGONALFACE((9,22,29,13));
#327=IFCINDEXEDPOLYGONALFACE((21,28,30,23));
#328=IFCINDEXEDPOLYGONALFACE((29,22,23,30));
#329=IFCINDEXEDPOLYGONALFACE((15,31,32,16));
#330=IFCINDEXEDPOLYGONALFACE((32,31,39,34));
#331=IFCINDEXEDPOLYGONALFACE((33,38,37,20));
#332=IFCINDEXEDPOLYGONALFACE((38,33,34,39));
#333=IFCINDEXEDPOLYGONALFACE((40,41,45,44));
#334=IFCINDEXEDPOLYGONALFACE((44,47,42,40));
#335=IFCINDEXEDPOLYGONALFACE((43,46,45,41));
#336=IFCINDEXEDPOLYGONALFACE((42,47,48,49));
#337=IFCINDEXEDPOLYGONALFACE((46,43,53,56));
#338=IFCINDEXEDPOLYGONALFACE((48,57,54,49));
#339=IFCINDEXEDPOLYGONALFACE((58,56,53,55));
#340=IFCINDEXEDPOLYGONALFACE((54,57,58,55));
#341=IFCINDEXEDPOLYGONALFACE((50,59,60));
#342=IFCCARTESIANPOINTLIST3D(((0.,297.,42.7647332853932),(0.,297.,1.13686837721616E-13),(127.721077887715,297.749644475927,42.8303186787115),(290.849645653993,394.380530190826,1.13686837721616E-13),(293.778577842128,387.309462378961,37.1035352143214),(300.849645653993,384.380530190826,37.2908218883686),(307.920713465858,387.309462378961,37.1035352143214),(290.849645653993,394.380530190826,36.6513851857851),(310.849645653993,394.380530190826,36.651385185785),(300.849645653993,384.380530190826,0.),(293.778577842128,387.309462378961,2.27373675443232E-13),(307.920713465858,387.309462378961,2.27373675443232E-13),(310.849645653993,394.380530190826,1.13686837721616E-13),(640.035713374682,387.309462378961,2.27373675443232E-13),(637.106781186548,394.380530190826,1.13686837721616E-13),(637.106781186548,394.380530190826,36.651385185785),(647.106781186548,384.380530190826,37.2908218883686),(640.035713374682,387.309462378961,37.1035352143214),(654.177848998413,387.309462378961,37.1035352143214),(657.106781186547,394.380530190826,36.651385185785),(293.778577842127,401.451598002691,36.1992351572485),(307.920713465858,401.451598002691,36.1992351572485),(300.849645653993,404.380530190826,36.0119484832014),(2.27373675443232E-13,494.,1.13686837721616E-13),(2.27373675443232E-13,494.,60.0000000000002),(127.721077887715,494.000000000001,30.2813506569946),(127.721077887715,494.000000000001,60.0000000000001),(293.778577842127,401.451598002691,2.27373675443232E-13),(307.920713465858,401.451598002691,2.27373675443232E-13),(300.849645653993,404.380530190826,0.),(640.035713374682,401.451598002692,2.27373675443232E-13),(640.035713374682,401.451598002692,36.1992351572485),(654.177848998413,401.451598002692,36.1992351572485),(647.106781186548,404.380530190826,36.0119484832013),(647.106781186548,384.380530190826,1.13686837721616E-13),(654.177848998413,387.309462378961,2.27373675443232E-13),(657.106781186547,394.380530190826,1.13686837721616E-13),(654.177848998413,401.451598002692,2.27373675443232E-13),(647.106781186548,404.380530190826,2.27373675443232E-13),(993.363916719102,384.380530190826,2.27373675443232E-13),(986.292848907237,387.309462378961,2.27373675443232E-13),(1000.43498453097,387.309462378961,2.27373675443232E-13),(983.363916719102,394.380530190826,2.27373675443232E-13),(993.363916719102,384.380530190826,37.2908218883684),(986.292848907237,387.309462378961,37.1035352143214),(983.363916719102,394.380530190826,36.6513851857849),(1000.43498453097,387.309462378961,37.1035352143214),(1003.3639167191,394.380530190826,36.6513851857849),(1003.3639167191,394.380530190826,2.27373675443232E-13),(1166.49248448538,297.749644475927,42.8303186787115),(1336.97829565849,297.000000000001,2.27373675443232E-13),(1336.97829565849,297.000000000001,42.7647332853932),(986.292848907236,401.451598002692,2.27373675443232E-13),(1000.43498453097,401.451598002692,2.27373675443232E-13),(993.363916719102,404.380530190826,2.27373675443232E-13),(986.292848907236,401.451598002692,36.1992351572485),(1000.43498453097,401.451598002692,36.1992351572485),(993.363916719102,404.380530190826,36.0119484832014),(1166.49248448538,494.000000000001,60.0000000000002),(1166.49248448538,494.000000000001,30.2813506569946),(1354.2135623731,494.000000000001,2.27373675443232E-13),(1354.2135623731,494.000000000001,60.0000000000002)));
#343=IFCPOLYGONALFACESET(#342,.T.,(#247,#248,#249,#250,#251,#252,#253,#254,#255,#256,#257,#258,#259,#260,#261,#262,#263,#264,#265,#266,#267,#268,#269,#270,#271,#272,#273,#274,#275,#276,#277,#278,#279,#280,#281,#282,#283,#284,#285,#286,#287,#288,#289,#290,#291,#292,#293,#294,#295,#296,#297,#298,#299,#300,#301,#302,#303,#304,#305,#306,#307,#308,#309,#310,#311,#312,#313,#314,#315,#316,#317,#318,#319,#320,#321,#322,#323,#324,#325,#326,#327,#328,#329,#330,#331,#332,#333,#334,#335,#336,#337,#338,#339,#340,#341),$);
#344=IFCSHAPEREPRESENTATION(#12,'Body','Tessellation',(#343));
#345=IFCPRODUCTDEFINITIONSHAPE($,$,(#344));
#346=IFCBUILDINGELEMENTPROXY('2KNNyEIAP6mutjwbkMtZOV',$,'oculus_1_cutter_0',$,$,$,#359,$,$);
#347=IFCRELCONTAINEDINSPATIALSTRUCTURE('1yIVFV9q9FLRsDD35P3$nk',$,$,$,(#346),#22);
#348=IFCINDEXEDPOLYGONALFACE((1,2,6,5));
#349=IFCINDEXEDPOLYGONALFACE((2,3,7,6));
#350=IFCINDEXEDPOLYGONALFACE((3,4,8,7));
#351=IFCINDEXEDPOLYGONALFACE((4,1,5,8));
#352=IFCINDEXEDPOLYGONALFACE((1,4,3));
#353=IFCINDEXEDPOLYGONALFACE((3,2,1));
#354=IFCINDEXEDPOLYGONALFACE((8,5,6));
#355=IFCINDEXEDPOLYGONALFACE((6,7,8));
#356=IFCCARTESIANPOINTLIST3D(((1166.49248448538,508.254440228779,29.3698694312881),(127.721077887715,508.254440228779,29.3698694312882),(127.721077887716,297.749644475927,42.8303186787115),(1166.49248448538,297.749644475927,42.8303186787114),(1166.49248448538,511.171937065245,74.9959153663745),(127.721077887715,511.171937065245,74.9959153663746),(127.721077887716,300.667141312393,88.4563646137979),(1166.49248448538,300.667141312393,88.4563646137978)));
#357=IFCPOLYGONALFACESET(#356,.T.,(#348,#349,#350,#351,#352,#353,#354,#355),$);
#358=IFCSHAPEREPRESENTATION(#12,'Body','Tessellation',(#357));
#359=IFCPRODUCTDEFINITIONSHAPE($,$,(#358));
#360=IFCBUILDINGELEMENTPROXY('0afnAWIN99w8VKvo6ND1$T',$,'oculus_1_cutter_1',$,$,$,#385,$,$);
#361=IFCRELCONTAINEDINSPATIALSTRUCTURE('1jor7X3f16vxaHA_SpDwXg',$,$,$,(#360),#22);
#362=IFCINDEXEDPOLYGONALFACE((1,2,10,9));
#363=IFCINDEXEDPOLYGONALFACE((2,3,11,10));
#364=IFCINDEXEDPOLYGONALFACE((3,4,12,11));
#365=IFCINDEXEDPOLYGONALFACE((4,5,13,12));
#366=IFCINDEXEDPOLYGONALFACE((5,6,14,13));
#367=IFCINDEXEDPOLYGONALFACE((6,7,15,14));
#368=IFCINDEXEDPOLYGONALFACE((7,8,16,15));
#369=IFCINDEXEDPOLYGONALFACE((8,1,9,16));
#370=IFCINDEXEDPOLYGONALFACE((1,8,7));
#371=IFCINDEXEDPOLYGONALFACE((7,6,5));
#372=IFCINDEXEDPOLYGONALFACE((5,4,3));
#373=IFCINDEXEDPOLYGONALFACE((3,2,1));
#374=IFCINDEXEDPOLYGONALFACE((1,7,5));
#375=IFCINDEXEDPOLYGONALFACE((5,3,1));
#376=IFCINDEXEDPOLYGONALFACE((16,9,10));
#377=IFCINDEXEDPOLYGONALFACE((10,11,12));
#378=IFCINDEXEDPOLYGONALFACE((12,13,14));
#379=IFCINDEXEDPOLYGONALFACE((14,15,16));
#380=IFCINDEXEDPOLYGONALFACE((16,10,12));
#381=IFCINDEXEDPOLYGONALFACE((12,14,16));
#382=IFCCARTESIANPOINTLIST3D(((993.363916719102,404.380530190826,-28.7155742747658),(986.292848907236,401.451598002692,-28.7155742747658),(983.363916719102,394.380530190826,-28.7155742747658),(986.292848907237,387.309462378961,-28.7155742747658),(993.363916719102,384.380530190826,-28.7155742747658),(1000.43498453097,387.309462378961,-28.7155742747658),(1003.3639167191,394.380530190826,-28.7155742747658),(1000.43498453097,401.451598002692,-28.7155742747658),(993.363916719102,404.380530190826,131.284425725234),(986.292848907236,401.451598002692,131.284425725234),(983.363916719102,394.380530190826,131.284425725234),(986.292848907237,387.309462378961,131.284425725234),(993.363916719102,384.380530190826,131.284425725234),(1000.43498453097,387.309462378961,131.284425725234),(1003.3639167191,394.380530190826,131.284425725234),(1000.43498453097,401.451598002692,131.284425725234)));
#383=IFCPOLYGONALFACESET(#382,.T.,(#362,#363,#364,#365,#366,#367,#368,#369,#370,#371,#372,#373,#374,#375,#376,#377,#378,#379,#380,#381),$);
#384=IFCSHAPEREPRESENTATION(#12,'Body','Tessellation',(#383));
#385=IFCPRODUCTDEFINITIONSHAPE($,$,(#384));
#386=IFCBUILDINGELEMENTPROXY('39DgWoKDj4TPFe6SiBOXkq',$,'oculus_1_cutter_2',$,$,$,#411,$,$);
#387=IFCRELCONTAINEDINSPATIALSTRUCTURE('11P$s6avXDwgWRW$NRLVS$',$,$,$,(#386),#22);
#388=IFCINDEXEDPOLYGONALFACE((1,2,10,9));
#389=IFCINDEXEDPOLYGONALFACE((2,3,11,10));
#390=IFCINDEXEDPOLYGONALFACE((3,4,12,11));
#391=IFCINDEXEDPOLYGONALFACE((4,5,13,12));
#392=IFCINDEXEDPOLYGONALFACE((5,6,14,13));
#393=IFCINDEXEDPOLYGONALFACE((6,7,15,14));
#394=IFCINDEXEDPOLYGONALFACE((7,8,16,15));
#395=IFCINDEXEDPOLYGONALFACE((8,1,9,16));
#396=IFCINDEXEDPOLYGONALFACE((1,8,7));
#397=IFCINDEXEDPOLYGONALFACE((7,6,5));
#398=IFCINDEXEDPOLYGONALFACE((5,4,3));
#399=IFCINDEXEDPOLYGONALFACE((3,2,1));
#400=IFCINDEXEDPOLYGONALFACE((1,7,5));
#401=IFCINDEXEDPOLYGONALFACE((5,3,1));
#402=IFCINDEXEDPOLYGONALFACE((16,9,10));
#403=IFCINDEXEDPOLYGONALFACE((10,11,12));
#404=IFCINDEXEDPOLYGONALFACE((12,13,14));
#405=IFCINDEXEDPOLYGONALFACE((14,15,16));
#406=IFCINDEXEDPOLYGONALFACE((16,10,12));
#407=IFCINDEXEDPOLYGONALFACE((12,14,16));
#408=IFCCARTESIANPOINTLIST3D(((647.106781186548,404.380530190826,-28.7155742747656),(640.035713374682,401.451598002691,-28.7155742747657),(637.106781186547,394.380530190826,-28.7155742747656),(640.035713374682,387.309462378961,-28.7155742747657),(647.106781186548,384.380530190826,-28.7155742747656),(654.177848998413,387.309462378961,-28.7155742747657),(657.106781186547,394.380530190826,-28.7155742747656),(654.177848998413,401.451598002691,-28.7155742747657),(647.106781186548,404.380530190826,131.284425725234),(640.035713374682,401.451598002691,131.284425725234),(637.106781186547,394.380530190826,131.284425725234),(640.035713374682,387.309462378961,131.284425725234),(647.106781186548,384.380530190826,131.284425725234),(654.177848998413,387.309462378961,131.284425725234),(657.106781186547,394.380530190826,131.284425725234),(654.177848998413,401.451598002691,131.284425725234)));
#409=IFCPOLYGONALFACESET(#408,.T.,(#388,#389,#390,#391,#392,#393,#394,#395,#396,#397,#398,#399,#400,#401,#402,#403,#404,#405,#406,#407),$);
#410=IFCSHAPEREPRESENTATION(#12,'Body','Tessellation',(#409));
#411=IFCPRODUCTDEFINITIONSHAPE($,$,(#410));
#412=IFCBUILDINGELEMENTPROXY('0s8ULVTCD1CfTdj2qBYgAz',$,'oculus_1_cutter_3',$,$,$,#437,$,$);
#413=IFCRELCONTAINEDINSPATIALSTRUCTURE('2y7pNRUCf2UxGbAD_ysGyt',$,$,$,(#412),#22);
#414=IFCINDEXEDPOLYGONALFACE((1,2,10,9));
#415=IFCINDEXEDPOLYGONALFACE((2,3,11,10));
#416=IFCINDEXEDPOLYGONALFACE((3,4,12,11));
#417=IFCINDEXEDPOLYGONALFACE((4,5,13,12));
#418=IFCINDEXEDPOLYGONALFACE((5,6,14,13));
#419=IFCINDEXEDPOLYGONALFACE((6,7,15,14));
#420=IFCINDEXEDPOLYGONALFACE((7,8,16,15));
#421=IFCINDEXEDPOLYGONALFACE((8,1,9,16));
#422=IFCINDEXEDPOLYGONALFACE((1,8,7));
#423=IFCINDEXEDPOLYGONALFACE((7,6,5));
#424=IFCINDEXEDPOLYGONALFACE((5,4,3));
#425=IFCINDEXEDPOLYGONALFACE((3,2,1));
#426=IFCINDEXEDPOLYGONALFACE((1,7,5));
#427=IFCINDEXEDPOLYGONALFACE((5,3,1));
#428=IFCINDEXEDPOLYGONALFACE((16,9,10));
#429=IFCINDEXEDPOLYGONALFACE((10,11,12));
#430=IFCINDEXEDPOLYGONALFACE((12,13,14));
#431=IFCINDEXEDPOLYGONALFACE((14,15,16));
#432=IFCINDEXEDPOLYGONALFACE((16,10,12));
#433=IFCINDEXEDPOLYGONALFACE((12,14,16));
#434=IFCCARTESIANPOINTLIST3D(((300.849645653993,404.380530190826,-28.7155742747656),(293.778577842127,401.451598002691,-28.7155742747657),(290.849645653993,394.380530190826,-28.7155742747656),(293.778577842127,387.309462378961,-28.7155742747657),(300.849645653993,384.380530190826,-28.7155742747656),(307.920713465858,387.309462378961,-28.7155742747657),(310.849645653993,394.380530190826,-28.7155742747657),(307.920713465858,401.451598002691,-28.7155742747657),(300.849645653993,404.380530190826,131.284425725234),(293.778577842127,401.451598002691,131.284425725234),(290.849645653993,394.380530190826,131.284425725234),(293.778577842127,387.309462378961,131.284425725234),(300.849645653993,384.380530190826,131.284425725234),(307.920713465858,387.309462378961,131.284425725234),(310.849645653993,394.380530190826,131.284425725234),(307.920713465858,401.451598002691,131.284425725234)));
#435=IFCPOLYGONALFACESET(#434,.T.,(#414,#415,#416,#417,#418,#419,#420,#421,#422,#423,#424,#425,#426,#427,#428,#429,#430,#431,#432,#433),$);
#436=IFCSHAPEREPRESENTATION(#12,'Body','Tessellation',(#435));
#437=IFCPRODUCTDEFINITIONSHAPE($,$,(#436));
#438=IFCBUILDINGELEMENTPROXY('1QWwpvrgPDEgHZtqnWL7qQ',$,'oculus_2_uncut',$,$,$,#451,$,$);
#439=IFCRELCONTAINEDINSPATIALSTRUCTURE('0g2rFicJ94SxUTzOvgDTfS',$,$,$,(#438),#22);
#440=IFCINDEXEDPOLYGONALFACE((1,2,6,5));
#441=IFCINDEXEDPOLYGONALFACE((2,3,7,6));
#442=IFCINDEXEDPOLYGONALFACE((3,4,8,7));
#443=IFCINDEXEDPOLYGONALFACE((4,1,5,8));
#444=IFCINDEXEDPOLYGONALFACE((1,4,3));
#445=IFCINDEXEDPOLYGONALFACE((3,2,1));
#446=IFCINDEXEDPOLYGONALFACE((8,5,6));
#447=IFCINDEXEDPOLYGONALFACE((6,7,8));
#448=IFCCARTESIANPOINTLIST3D(((17.235266714607,791.000000000001,1.52538412876949E-13),(-2.27373675443232E-13,594.000000000001,1.44617169405298E-13),(1354.21356237309,594.000000000001,-4.80596935662662E-15),(1354.21356237309,791.000000000001,-4.99662668146796E-14),(17.2352667146068,791.000000000001,42.7647332853932),(-1.13686837721616E-13,594.000000000001,60.),(1354.21356237309,594.000000000001,59.9999999999999),(1354.21356237309,791.000000000001,42.7647332853928)));
#449=IFCPOLYGONALFACESET(#448,.T.,(#440,#441,#442,#443,#444,#445,#446,#447),$);
#450=IFCSHAPEREPRESENTATION(#12,'Body','Tessellation',(#449));
#451=IFCPRODUCTDEFINITIONSHAPE($,$,(#450));
#452=IFCBUILDINGELEMENTPROXY('0SF1n$95b5m96bIVUeGftp',$,'oculus_2',$,$,$,#552,$,$);
#453=IFCRELCONTAINEDINSPATIALSTRUCTURE('2P42mhfPj8pvL85CqudAuZ',$,$,$,(#452),#22);
#454=IFCINDEXEDPOLYGONALFACE((5,10,17));
#455=IFCINDEXEDPOLYGONALFACE((5,8,10));
#456=IFCINDEXEDPOLYGONALFACE((5,32,1));
#457=IFCINDEXEDPOLYGONALFACE((5,1,2));
#458=IFCINDEXEDPOLYGONALFACE((5,2,3));
#459=IFCINDEXEDPOLYGONALFACE((3,9,8));
#460=IFCINDEXEDPOLYGONALFACE((3,11,9));
#461=IFCINDEXEDPOLYGONALFACE((5,3,8));
#462=IFCINDEXEDPOLYGONALFACE((5,27,32));
#463=IFCINDEXEDPOLYGONALFACE((17,10,4));
#464=IFCINDEXEDPOLYGONALFACE((17,4,22));
#465=IFCINDEXEDPOLYGONALFACE((17,22,23));
#466=IFCINDEXEDPOLYGONALFACE((3,21,11));
#467=IFCINDEXEDPOLYGONALFACE((52,23,21));
#468=IFCINDEXEDPOLYGONALFACE((3,52,21));
#469=IFCINDEXEDPOLYGONALFACE((17,23,60));
#470=IFCINDEXEDPOLYGONALFACE((5,40,27));
#471=IFCINDEXEDPOLYGONALFACE((31,30,33));
#472=IFCINDEXEDPOLYGONALFACE((32,28,31));
#473=IFCINDEXEDPOLYGONALFACE((32,27,28));
#474=IFCINDEXEDPOLYGONALFACE((31,28,30));
#475=IFCINDEXEDPOLYGONALFACE((40,29,27));
#476=IFCINDEXEDPOLYGONALFACE((40,42,29));
#477=IFCINDEXEDPOLYGONALFACE((40,60,42));
#478=IFCINDEXEDPOLYGONALFACE((60,33,50));
#479=IFCINDEXEDPOLYGONALFACE((60,23,52));
#480=IFCINDEXEDPOLYGONALFACE((33,30,48));
#481=IFCINDEXEDPOLYGONALFACE((33,48,50));
#482=IFCINDEXEDPOLYGONALFACE((60,51,33));
#483=IFCINDEXEDPOLYGONALFACE((60,52,51));
#484=IFCINDEXEDPOLYGONALFACE((60,49,42));
#485=IFCINDEXEDPOLYGONALFACE((60,50,49));
#486=IFCINDEXEDPOLYGONALFACE((5,17,18,6));
#487=IFCINDEXEDPOLYGONALFACE((39,62,61,41,6,18,20,7));
#488=IFCINDEXEDPOLYGONALFACE((6,41,40,5));
#489=IFCINDEXEDPOLYGONALFACE((62,59,19,20,18,17,60,61));
#490=IFCINDEXEDPOLYGONALFACE((60,40,41,61));
#491=IFCINDEXEDPOLYGONALFACE((7,12,14));
#492=IFCINDEXEDPOLYGONALFACE((7,13,12));
#493=IFCINDEXEDPOLYGONALFACE((7,24,13));
#494=IFCINDEXEDPOLYGONALFACE((34,7,14));
#495=IFCINDEXEDPOLYGONALFACE((34,14,15));
#496=IFCINDEXEDPOLYGONALFACE((36,15,16));
#497=IFCINDEXEDPOLYGONALFACE((34,15,36));
#498=IFCINDEXEDPOLYGONALFACE((36,16,37));
#499=IFCINDEXEDPOLYGONALFACE((7,19,24));
#500=IFCINDEXEDPOLYGONALFACE((25,24,19));
#501=IFCINDEXEDPOLYGONALFACE((25,19,26));
#502=IFCINDEXEDPOLYGONALFACE((37,16,26));
#503=IFCINDEXEDPOLYGONALFACE((54,26,19));
#504=IFCINDEXEDPOLYGONALFACE((37,26,54));
#505=IFCINDEXEDPOLYGONALFACE((55,54,19));
#506=IFCINDEXEDPOLYGONALFACE((55,19,58));
#507=IFCINDEXEDPOLYGONALFACE((34,39,7));
#508=IFCINDEXEDPOLYGONALFACE((34,35,39));
#509=IFCINDEXEDPOLYGONALFACE((35,38,39));
#510=IFCINDEXEDPOLYGONALFACE((38,53,39));
#511=IFCINDEXEDPOLYGONALFACE((55,39,53));
#512=IFCINDEXEDPOLYGONALFACE((55,44,39));
#513=IFCINDEXEDPOLYGONALFACE((55,46,45));
#514=IFCINDEXEDPOLYGONALFACE((55,45,44));
#515=IFCINDEXEDPOLYGONALFACE((39,44,43));
#516=IFCINDEXEDPOLYGONALFACE((39,43,47));
#517=IFCINDEXEDPOLYGONALFACE((39,47,59));
#518=IFCINDEXEDPOLYGONALFACE((55,56,46));
#519=IFCINDEXEDPOLYGONALFACE((55,58,56));
#520=IFCINDEXEDPOLYGONALFACE((58,19,59));
#521=IFCINDEXEDPOLYGONALFACE((58,59,57));
#522=IFCINDEXEDPOLYGONALFACE((47,57,59));
#523=IFCINDEXEDPOLYGONALFACE((12,10,8,14));
#524=IFCINDEXEDPOLYGONALFACE((9,15,14,8));
#525=IFCINDEXEDPOLYGONALFACE((13,4,10,12));
#526=IFCINDEXEDPOLYGONALFACE((11,16,15,9));
#527=IFCINDEXEDPOLYGONALFACE((7,20,19));
#528=IFCINDEXEDPOLYGONALFACE((13,24,22,4));
#529=IFCINDEXEDPOLYGONALFACE((26,16,11,21));
#530=IFCINDEXEDPOLYGONALFACE((23,25,26,21));
#531=IFCINDEXEDPOLYGONALFACE((23,22,24,25));
#532=IFCINDEXEDPOLYGONALFACE((30,28,45,46));
#533=IFCINDEXEDPOLYGONALFACE((32,34,36,1));
#534=IFCINDEXEDPOLYGONALFACE((35,34,32,31));
#535=IFCINDEXEDPOLYGONALFACE((33,38,35,31));
#536=IFCINDEXEDPOLYGONALFACE((36,37,2,1));
#537=IFCINDEXEDPOLYGONALFACE((29,43,44,27));
#538=IFCINDEXEDPOLYGONALFACE((42,47,43,29));
#539=IFCINDEXEDPOLYGONALFACE((27,44,45,28));
#540=IFCINDEXEDPOLYGONALFACE((56,48,30,46));
#541=IFCINDEXEDPOLYGONALFACE((33,51,53,38));
#542=IFCINDEXEDPOLYGONALFACE((52,55,53,51));
#543=IFCINDEXEDPOLYGONALFACE((37,54,3,2));
#544=IFCINDEXEDPOLYGONALFACE((52,3,54,55));
#545=IFCINDEXEDPOLYGONALFACE((49,57,47,42));
#546=IFCINDEXEDPOLYGONALFACE((56,58,50,48));
#547=IFCINDEXEDPOLYGONALFACE((49,50,58,57));
#548=IFCINDEXEDPOLYGONALFACE((39,59,62));
#549=IFCCARTESIANPOINTLIST3D(((700.035713374682,700.690537621041,0.),(697.106781186547,693.619469809175,0.),(700.035713374682,686.54840199731,0.),(350.849645653993,693.619469809176,1.13686837721616E-13),(17.235266714607,791.000000000001,2.27373675443232E-13),(17.235266714607,791.000000000001,42.7647332853932),(187.721077887715,790.250355524074,42.8303186787115),(360.849645653992,703.619469809176,1.13686837721616E-13),(367.920713465858,700.690537621041,1.13686837721616E-13),(353.778577842127,700.690537621041,1.13686837721616E-13),(370.849645653992,693.619469809176,0.),(353.778577842127,700.690537621041,37.1035352143213),(350.849645653993,693.619469809176,36.6513851857848),(360.849645653992,703.619469809176,37.2908218883684),(367.920713465858,700.690537621041,37.1035352143213),(370.849645653993,693.619469809175,36.6513851857849),(0.,594.000000000001,1.13686837721616E-13),(1.13686837721616E-13,594.000000000001,60.),(187.721077887715,594.000000000001,30.2813506569946),(187.721077887715,594.000000000001,60.),(367.920713465858,686.54840199731,1.13686837721616E-13),(353.778577842127,686.54840199731,1.13686837721616E-13),(360.849645653992,683.619469809176,1.13686837721616E-13),(353.778577842127,686.54840199731,36.1992351572484),(360.849645653992,683.619469809176,36.0119484832013),(367.920713465858,686.54840199731,36.1992351572484),(1053.3639167191,703.619469809176,0.),(1046.29284890724,700.690537621041,0.),(1060.43498453097,700.690537621041,0.),(1043.3639167191,693.619469809176,0.),(714.177848998413,700.690537621041,0.),(707.106781186547,703.619469809176,0.),(717.106781186547,693.619469809176,0.),(707.106781186547,703.619469809176,37.2908218883683),(714.177848998413,700.690537621041,37.1035352143213),(700.035713374682,700.690537621041,37.1035352143213),(697.106781186547,693.619469809175,36.6513851857848),(717.106781186547,693.619469809176,36.6513851857848),(1226.49248448538,790.250355524075,42.8303186787113),(1354.2135623731,791.000000000001,0.),(1354.2135623731,791.000000000001,42.7647332853928),(1063.3639167191,693.619469809176,0.),(1060.43498453097,700.690537621041,37.103535214321),(1053.3639167191,703.619469809175,37.2908218883683),(1046.29284890724,700.690537621041,37.103535214321),(1043.3639167191,693.619469809176,36.6513851857846),(1063.3639167191,693.619469809176,36.6513851857846),(1046.29284890724,686.54840199731,0.),(1060.43498453097,686.54840199731,0.),(1053.3639167191,683.619469809175,0.),(714.177848998413,686.54840199731,0.),(707.106781186547,683.619469809176,0.),(714.177848998413,686.54840199731,36.1992351572484),(700.035713374682,686.54840199731,36.1992351572484),(707.106781186547,683.619469809176,36.0119484832012),(1046.29284890724,686.54840199731,36.1992351572483),(1060.43498453097,686.54840199731,36.1992351572483),(1053.3639167191,683.619469809175,36.0119484832012),(1226.49248448538,594.000000000001,30.2813506569942),(1354.21356237309,594.000000000001,0.),(1354.21356237309,594.000000000001,59.9999999999999),(1226.49248448538,594.000000000001,59.9999999999998)));
#550=IFCPOLYGONALFACESET(#549,.T.,(#454,#455,#456,#457,#458,#459,#460,#461,#462,#463,#464,#465,#466,#467,#468,#469,#470,#471,#472,#473,#474,#475,#476,#477,#478,#479,#480,#481,#482,#483,#484,#485,#486,#487,#488,#489,#490,#491,#492,#493,#494,#495,#496,#497,#498,#499,#500,#501,#502,#503,#504,#505,#506,#507,#508,#509,#510,#511,#512,#513,#514,#515,#516,#517,#518,#519,#520,#521,#522,#523,#524,#525,#526,#527,#528,#529,#530,#531,#532,#533,#534,#535,#536,#537,#538,#539,#540,#541,#542,#543,#544,#545,#546,#547,#548),$);
#551=IFCSHAPEREPRESENTATION(#12,'Body','Tessellation',(#550));
#552=IFCPRODUCTDEFINITIONSHAPE($,$,(#551));
#553=IFCBUILDINGELEMENTPROXY('3yNfsxQnbAMAhgLWl6414J',$,'oculus_2_cutter_0',$,$,$,#566,$,$);
#554=IFCRELCONTAINEDINSPATIALSTRUCTURE('2C_8MbYqz84hNcO1I_3HkW',$,$,$,(#553),#22);
#555=IFCINDEXEDPOLYGONALFACE((1,2,6,5));
#556=IFCINDEXEDPOLYGONALFACE((2,3,7,6));
#557=IFCINDEXEDPOLYGONALFACE((3,4,8,7));
#558=IFCINDEXEDPOLYGONALFACE((4,1,5,8));
#559=IFCINDEXEDPOLYGONALFACE((1,4,3));
#560=IFCINDEXEDPOLYGONALFACE((3,2,1));
#561=IFCINDEXEDPOLYGONALFACE((8,5,6));
#562=IFCINDEXEDPOLYGONALFACE((6,7,8));
#563=IFCCARTESIANPOINTLIST3D(((187.721077887715,579.745559771223,29.3698694312881),(1226.49248448538,579.745559771223,29.3698694312879),(1226.49248448538,790.250355524074,42.8303186787112),(187.721077887715,790.250355524074,42.8303186787114),(187.721077887715,576.828062934757,74.9959153663744),(1226.49248448538,576.828062934757,74.9959153663742),(1226.49248448538,787.332858687609,88.4563646137976),(187.721077887715,787.332858687609,88.4563646137978)));
#564=IFCPOLYGONALFACESET(#563,.T.,(#555,#556,#557,#558,#559,#560,#561,#562),$);
#565=IFCSHAPEREPRESENTATION(#12,'Body','Tessellation',(#564));
#566=IFCPRODUCTDEFINITIONSHAPE($,$,(#565));
#567=IFCBUILDINGELEMENTPROXY('0N0TaMOk5DxQ4LBdeYX7i7',$,'oculus_2_cutter_1',$,$,$,#592,$,$);
#568=IFCRELCONTAINEDINSPATIALSTRUCTURE('2nlCUi0cn8VBsy0eCPnAiW',$,$,$,(#567),#22);
#569=IFCINDEXEDPOLYGONALFACE((1,2,10,9));
#570=IFCINDEXEDPOLYGONALFACE((2,3,11,10));
#571=IFCINDEXEDPOLYGONALFACE((3,4,12,11));
#572=IFCINDEXEDPOLYGONALFACE((4,5,13,12));
#573=IFCINDEXEDPOLYGONALFACE((5,6,14,13));
#574=IFCINDEXEDPOLYGONALFACE((6,7,15,14));
#575=IFCINDEXEDPOLYGONALFACE((7,8,16,15));
#576=IFCINDEXEDPOLYGONALFACE((8,1,9,16));
#577=IFCINDEXEDPOLYGONALFACE((1,8,7));
#578=IFCINDEXEDPOLYGONALFACE((7,6,5));
#579=IFCINDEXEDPOLYGONALFACE((5,4,3));
#580=IFCINDEXEDPOLYGONALFACE((3,2,1));
#581=IFCINDEXEDPOLYGONALFACE((1,7,5));
#582=IFCINDEXEDPOLYGONALFACE((5,3,1));
#583=IFCINDEXEDPOLYGONALFACE((16,9,10));
#584=IFCINDEXEDPOLYGONALFACE((10,11,12));
#585=IFCINDEXEDPOLYGONALFACE((12,13,14));
#586=IFCINDEXEDPOLYGONALFACE((14,15,16));
#587=IFCINDEXEDPOLYGONALFACE((16,10,12));
#588=IFCINDEXEDPOLYGONALFACE((12,14,16));
#589=IFCCARTESIANPOINTLIST3D(((360.849645653992,703.619469809176,-28.7155742747658),(353.778577842127,700.690537621041,-28.7155742747657),(350.849645653993,693.619469809176,-28.7155742747658),(353.778577842127,686.54840199731,-28.7155742747657),(360.849645653992,683.619469809176,-28.7155742747658),(367.920713465858,686.54840199731,-28.7155742747657),(370.849645653993,693.619469809176,-28.7155742747657),(367.920713465858,700.690537621041,-28.7155742747657),(360.849645653992,703.619469809176,131.284425725234),(353.778577842127,700.690537621041,131.284425725234),(350.849645653993,693.619469809176,131.284425725234),(353.778577842127,686.54840199731,131.284425725234),(360.849645653992,683.619469809176,131.284425725234),(367.920713465858,686.54840199731,131.284425725234),(370.849645653993,693.619469809176,131.284425725234),(367.920713465858,700.690537621041,131.284425725234)));
#590=IFCPOLYGONALFACESET(#589,.T.,(#569,#570,#571,#572,#573,#574,#575,#576,#577,#578,#579,#580,#581,#582,#583,#584,#585,#586,#587,#588),$);
#591=IFCSHAPEREPRESENTATION(#12,'Body','Tessellation',(#590));
#592=IFCPRODUCTDEFINITIONSHAPE($,$,(#591));
#593=IFCBUILDINGELEMENTPROXY('3nkV920RDBff0O$afaTrHw',$,'oculus_2_cutter_2',$,$,$,#618,$,$);
#594=IFCRELCONTAINEDINSPATIALSTRUCTURE('0yilMR$VH7Aeroa9ysqejJ',$,$,$,(#593),#22);
#595=IFCINDEXEDPOLYGONALFACE((1,2,10,9));
#596=IFCINDEXEDPOLYGONALFACE((2,3,11,10));
#597=IFCINDEXEDPOLYGONALFACE((3,4,12,11));
#598=IFCINDEXEDPOLYGONALFACE((4,5,13,12));
#599=IFCINDEXEDPOLYGONALFACE((5,6,14,13));
#600=IFCINDEXEDPOLYGONALFACE((6,7,15,14));
#601=IFCINDEXEDPOLYGONALFACE((7,8,16,15));
#602=IFCINDEXEDPOLYGONALFACE((8,1,9,16));
#603=IFCINDEXEDPOLYGONALFACE((1,8,7));
#604=IFCINDEXEDPOLYGONALFACE((7,6,5));
#605=IFCINDEXEDPOLYGONALFACE((5,4,3));
#606=IFCINDEXEDPOLYGONALFACE((3,2,1));
#607=IFCINDEXEDPOLYGONALFACE((1,7,5));
#608=IFCINDEXEDPOLYGONALFACE((5,3,1));
#609=IFCINDEXEDPOLYGONALFACE((16,9,10));
#610=IFCINDEXEDPOLYGONALFACE((10,11,12));
#611=IFCINDEXEDPOLYGONALFACE((12,13,14));
#612=IFCINDEXEDPOLYGONALFACE((14,15,16));
#613=IFCINDEXEDPOLYGONALFACE((16,10,12));
#614=IFCINDEXEDPOLYGONALFACE((12,14,16));
#615=IFCCARTESIANPOINTLIST3D(((707.106781186547,703.619469809176,-28.7155742747658),(700.035713374682,700.690537621041,-28.7155742747658),(697.106781186548,693.619469809176,-28.7155742747658),(700.035713374682,686.54840199731,-28.7155742747658),(707.106781186547,683.619469809176,-28.7155742747658),(714.177848998413,686.54840199731,-28.7155742747658),(717.106781186548,693.619469809176,-28.7155742747658),(714.177848998413,700.690537621041,-28.7155742747658),(707.106781186547,703.619469809176,131.284425725234),(700.035713374682,700.690537621041,131.284425725234),(697.106781186548,693.619469809176,131.284425725234),(700.035713374682,686.54840199731,131.284425725234),(707.106781186547,683.619469809176,131.284425725234),(714.177848998413,686.54840199731,131.284425725234),(717.106781186548,693.619469809176,131.284425725234),(714.177848998413,700.690537621041,131.284425725234)));
#616=IFCPOLYGONALFACESET(#615,.T.,(#595,#596,#597,#598,#599,#600,#601,#602,#603,#604,#605,#606,#607,#608,#609,#610,#611,#612,#613,#614),$);
#617=IFCSHAPEREPRESENTATION(#12,'Body','Tessellation',(#616));
#618=IFCPRODUCTDEFINITIONSHAPE($,$,(#617));
#619=IFCBUILDINGELEMENTPROXY('2GQJ8JIMX7rBvg$MqOe0Dz',$,'oculus_2_cutter_3',$,$,$,#644,$,$);
#620=IFCRELCONTAINEDINSPATIALSTRUCTURE('3XkC9LG_LDyudsb067SvY3',$,$,$,(#619),#22);
#621=IFCINDEXEDPOLYGONALFACE((1,2,10,9));
#622=IFCINDEXEDPOLYGONALFACE((2,3,11,10));
#623=IFCINDEXEDPOLYGONALFACE((3,4,12,11));
#624=IFCINDEXEDPOLYGONALFACE((4,5,13,12));
#625=IFCINDEXEDPOLYGONALFACE((5,6,14,13));
#626=IFCINDEXEDPOLYGONALFACE((6,7,15,14));
#627=IFCINDEXEDPOLYGONALFACE((7,8,16,15));
#628=IFCINDEXEDPOLYGONALFACE((8,1,9,16));
#629=IFCINDEXEDPOLYGONALFACE((1,8,7));
#630=IFCINDEXEDPOLYGONALFACE((7,6,5));
#631=IFCINDEXEDPOLYGONALFACE((5,4,3));
#632=IFCINDEXEDPOLYGONALFACE((3,2,1));
#633=IFCINDEXEDPOLYGONALFACE((1,7,5));
#634=IFCINDEXEDPOLYGONALFACE((5,3,1));
#635=IFCINDEXEDPOLYGONALFACE((16,9,10));
#636=IFCINDEXEDPOLYGONALFACE((10,11,12));
#637=IFCINDEXEDPOLYGONALFACE((12,13,14));
#638=IFCINDEXEDPOLYGONALFACE((14,15,16));
#639=IFCINDEXEDPOLYGONALFACE((16,10,12));
#640=IFCINDEXEDPOLYGONALFACE((12,14,16));
#641=IFCCARTESIANPOINTLIST3D(((1053.3639167191,703.619469809176,-28.715574274766),(1046.29284890724,700.690537621041,-28.7155742747659),(1043.3639167191,693.619469809176,-28.7155742747659),(1046.29284890724,686.54840199731,-28.7155742747659),(1053.3639167191,683.619469809176,-28.715574274766),(1060.43498453097,686.54840199731,-28.7155742747659),(1063.3639167191,693.619469809176,-28.715574274766),(1060.43498453097,700.690537621041,-28.7155742747659),(1053.3639167191,703.619469809176,131.284425725234),(1046.29284890724,700.690537621041,131.284425725234),(1043.3639167191,693.619469809176,131.284425725234),(1046.29284890724,686.54840199731,131.284425725234),(1053.3639167191,683.619469809176,131.284425725234),(1060.43498453097,686.54840199731,131.284425725234),(1063.3639167191,693.619469809176,131.284425725234),(1060.43498453097,700.690537621041,131.284425725234)));
#642=IFCPOLYGONALFACESET(#641,.T.,(#621,#622,#623,#624,#625,#626,#627,#628,#629,#630,#631,#632,#633,#634,#635,#636,#637,#638,#639,#640),$);
#643=IFCSHAPEREPRESENTATION(#12,'Body','Tessellation',(#642));
#644=IFCPRODUCTDEFINITIONSHAPE($,$,(#643));
#645=IFCBUILDINGELEMENTPROXY('2JowfOGFH7ZRVG6rMqfnQp',$,'oculus_3_uncut',$,$,$,#658,$,$);
#646=IFCRELCONTAINEDINSPATIALSTRUCTURE('310kQY0zT90vaJjk$eicy1',$,$,$,(#645),#22);
#647=IFCINDEXEDPOLYGONALFACE((1,2,6,5));
#648=IFCINDEXEDPOLYGONALFACE((2,3,7,6));
#649=IFCINDEXEDPOLYGONALFACE((3,4,8,7));
#650=IFCINDEXEDPOLYGONALFACE((4,1,5,8));
#651=IFCINDEXEDPOLYGONALFACE((1,4,3));
#652=IFCINDEXEDPOLYGONALFACE((3,2,1));
#653=IFCINDEXEDPOLYGONALFACE((8,5,6));
#654=IFCINDEXEDPOLYGONALFACE((6,7,8));
#655=IFCCARTESIANPOINTLIST3D(((17.2352667146067,1088.,1.2611510489087E-13),(-2.27373675443232E-13,891.000000000001,2.84949359717917E-13),(1354.21356237309,891.000000000002,8.73210744328915E-14),(1354.21356237309,1088.,1.52098617117973E-13),(17.2352667146067,1088.,42.7647332853931),(-2.27373675443232E-13,891.000000000001,60.0000000000001),(1354.21356237309,891.000000000002,60.0000000000002),(1354.21356237309,1088.,42.764733285393)));
#656=IFCPOLYGONALFACESET(#655,.T.,(#647,#648,#649,#650,#651,#652,#653,#654),$);
#657=IFCSHAPEREPRESENTATION(#12,'Body','Tessellation',(#656));
#658=IFCPRODUCTDEFINITIONSHAPE($,$,(#657));
#659=IFCBUILDINGELEMENTPROXY('0EV1wDazz3sQkSeyeBdFcV',$,'oculus_3',$,$,$,#759,$,$);
#660=IFCRELCONTAINEDINSPATIALSTRUCTURE('1GNUgu62P4QhRmkZN11rEc',$,$,$,(#659),#22);
#661=IFCINDEXEDPOLYGONALFACE((1,2,15,14));
#662=IFCINDEXEDPOLYGONALFACE((1,14,17,3,40,59,61,42));
#663=IFCINDEXEDPOLYGONALFACE((2,10,15));
#664=IFCINDEXEDPOLYGONALFACE((2,11,10));
#665=IFCINDEXEDPOLYGONALFACE((2,27,11));
#666=IFCINDEXEDPOLYGONALFACE((2,24,25));
#667=IFCINDEXEDPOLYGONALFACE((2,25,26));
#668=IFCINDEXEDPOLYGONALFACE((2,26,27));
#669=IFCINDEXEDPOLYGONALFACE((27,12,11));
#670=IFCINDEXEDPOLYGONALFACE((27,13,12));
#671=IFCINDEXEDPOLYGONALFACE((2,37,24));
#672=IFCINDEXEDPOLYGONALFACE((15,10,4));
#673=IFCINDEXEDPOLYGONALFACE((15,4,21));
#674=IFCINDEXEDPOLYGONALFACE((15,21,23));
#675=IFCINDEXEDPOLYGONALFACE((13,27,22));
#676=IFCINDEXEDPOLYGONALFACE((22,28,23));
#677=IFCINDEXEDPOLYGONALFACE((22,27,28));
#678=IFCINDEXEDPOLYGONALFACE((15,23,62));
#679=IFCINDEXEDPOLYGONALFACE((2,41,37));
#680=IFCINDEXEDPOLYGONALFACE((24,38,34));
#681=IFCINDEXEDPOLYGONALFACE((35,34,36));
#682=IFCINDEXEDPOLYGONALFACE((24,37,38));
#683=IFCINDEXEDPOLYGONALFACE((34,38,36));
#684=IFCINDEXEDPOLYGONALFACE((41,39,37));
#685=IFCINDEXEDPOLYGONALFACE((41,62,39));
#686=IFCINDEXEDPOLYGONALFACE((62,23,28));
#687=IFCINDEXEDPOLYGONALFACE((35,36,53));
#688=IFCINDEXEDPOLYGONALFACE((35,53,55));
#689=IFCINDEXEDPOLYGONALFACE((62,52,35));
#690=IFCINDEXEDPOLYGONALFACE((62,28,52));
#691=IFCINDEXEDPOLYGONALFACE((62,35,55));
#692=IFCINDEXEDPOLYGONALFACE((62,48,39));
#693=IFCINDEXEDPOLYGONALFACE((62,54,48));
#694=IFCINDEXEDPOLYGONALFACE((62,55,54));
#695=IFCINDEXEDPOLYGONALFACE((42,41,2,1));
#696=IFCINDEXEDPOLYGONALFACE((14,15,62,61,59,60,16,17));
#697=IFCINDEXEDPOLYGONALFACE((61,62,41,42));
#698=IFCINDEXEDPOLYGONALFACE((3,5,7));
#699=IFCINDEXEDPOLYGONALFACE((3,6,5));
#700=IFCINDEXEDPOLYGONALFACE((3,18,6));
#701=IFCINDEXEDPOLYGONALFACE((3,7,30));
#702=IFCINDEXEDPOLYGONALFACE((7,8,30));
#703=IFCINDEXEDPOLYGONALFACE((8,9,32));
#704=IFCINDEXEDPOLYGONALFACE((8,29,30));
#705=IFCINDEXEDPOLYGONALFACE((8,32,29));
#706=IFCINDEXEDPOLYGONALFACE((3,16,18));
#707=IFCINDEXEDPOLYGONALFACE((18,16,19));
#708=IFCINDEXEDPOLYGONALFACE((19,16,20));
#709=IFCINDEXEDPOLYGONALFACE((9,20,49));
#710=IFCINDEXEDPOLYGONALFACE((20,16,49));
#711=IFCINDEXEDPOLYGONALFACE((9,49,32));
#712=IFCINDEXEDPOLYGONALFACE((49,16,51));
#713=IFCINDEXEDPOLYGONALFACE((51,16,58));
#714=IFCINDEXEDPOLYGONALFACE((3,30,40));
#715=IFCINDEXEDPOLYGONALFACE((30,31,40));
#716=IFCINDEXEDPOLYGONALFACE((31,33,40));
#717=IFCINDEXEDPOLYGONALFACE((33,50,40));
#718=IFCINDEXEDPOLYGONALFACE((51,40,50));
#719=IFCINDEXEDPOLYGONALFACE((51,43,40));
#720=IFCINDEXEDPOLYGONALFACE((51,46,44));
#721=IFCINDEXEDPOLYGONALFACE((51,44,43));
#722=IFCINDEXEDPOLYGONALFACE((43,45,40));
#723=IFCINDEXEDPOLYGONALFACE((45,47,40));
#724=IFCINDEXEDPOLYGONALFACE((47,60,40));
#725=IFCINDEXEDPOLYGONALFACE((51,56,46));
#726=IFCINDEXEDPOLYGONALFACE((51,58,56));
#727=IFCINDEXEDPOLYGONALFACE((58,16,60));
#728=IFCINDEXEDPOLYGONALFACE((58,60,57));
#729=IFCINDEXEDPOLYGONALFACE((57,60,47));
#730=IFCINDEXEDPOLYGONALFACE((10,11,7,5));
#731=IFCINDEXEDPOLYGONALFACE((5,6,4,10));
#732=IFCINDEXEDPOLYGONALFACE((12,8,7,11));
#733=IFCINDEXEDPOLYGONALFACE((9,8,12,13));
#734=IFCINDEXEDPOLYGONALFACE((3,17,16));
#735=IFCINDEXEDPOLYGONALFACE((18,21,4,6));
#736=IFCINDEXEDPOLYGONALFACE((21,18,19,23));
#737=IFCINDEXEDPOLYGONALFACE((20,9,13,22));
#738=IFCINDEXEDPOLYGONALFACE((23,19,20,22));
#739=IFCINDEXEDPOLYGONALFACE((25,24,30,29));
#740=IFCINDEXEDPOLYGONALFACE((24,34,31,30));
#741=IFCINDEXEDPOLYGONALFACE((26,25,29,32));
#742=IFCINDEXEDPOLYGONALFACE((31,34,35,33));
#743=IFCINDEXEDPOLYGONALFACE((46,36,38,44));
#744=IFCINDEXEDPOLYGONALFACE((45,43,37,39));
#745=IFCINDEXEDPOLYGONALFACE((44,38,37,43));
#746=IFCINDEXEDPOLYGONALFACE((48,47,45,39));
#747=IFCINDEXEDPOLYGONALFACE((26,32,49,27));
#748=IFCINDEXEDPOLYGONALFACE((33,35,52,50));
#749=IFCINDEXEDPOLYGONALFACE((51,28,27,49));
#750=IFCINDEXEDPOLYGONALFACE((51,50,52,28));
#751=IFCINDEXEDPOLYGONALFACE((46,56,53,36));
#752=IFCINDEXEDPOLYGONALFACE((54,57,47,48));
#753=IFCINDEXEDPOLYGONALFACE((56,58,55,53));
#754=IFCINDEXEDPOLYGONALFACE((58,57,54,55));
#755=IFCINDEXEDPOLYGONALFACE((59,40,60));
#756=IFCCARTESIANPOINTLIST3D(((17.2352667146068,1088.,42.7647332853932),(17.2352667146068,1088.,1.13686837721616E-13),(187.721077887716,1087.25035552407,42.8303186787114),(350.849645653993,990.619469809176,1.13686837721616E-13),(353.778577842127,997.690537621041,37.1035352143211),(350.849645653993,990.619469809176,36.6513851857848),(360.849645653993,1000.61946980918,37.2908218883683),(367.920713465858,997.690537621041,37.1035352143211),(370.849645653993,990.619469809176,36.6513851857848),(353.778577842127,997.690537621041,1.13686837721616E-13),(360.849645653993,1000.61946980918,1.13686837721616E-13),(367.920713465858,997.690537621041,1.13686837721616E-13),(370.849645653993,990.619469809176,1.13686837721616E-13),(0.,891.000000000002,60.),(0.,891.000000000002,2.27373675443232E-13),(187.721077887715,891.000000000001,30.2813506569944),(187.721077887716,891.000000000001,60.0000000000001),(353.778577842127,983.548401997311,36.1992351572484),(360.849645653993,980.619469809176,36.0119484832011),(367.920713465858,983.548401997311,36.1992351572484),(353.778577842127,983.548401997311,1.13686837721616E-13),(367.920713465858,983.548401997311,1.13686837721616E-13),(360.849645653993,980.619469809176,1.13686837721616E-13),(707.106781186548,1000.61946980918,1.13686837721616E-13),(700.035713374682,997.690537621042,1.13686837721616E-13),(697.106781186547,990.619469809176,1.13686837721616E-13),(700.035713374682,983.548401997311,1.13686837721616E-13),(707.106781186548,980.619469809176,1.13686837721616E-13),(700.035713374682,997.690537621042,37.1035352143213),(707.106781186548,1000.61946980918,37.2908218883684),(714.177848998413,997.690537621042,37.1035352143213),(697.106781186547,990.619469809176,36.6513851857848),(717.106781186547,990.619469809176,36.6513851857848),(714.177848998413,997.690537621042,1.13686837721616E-13),(717.106781186547,990.619469809176,1.13686837721616E-13),(1043.3639167191,990.619469809176,1.13686837721616E-13),(1053.3639167191,1000.61946980918,1.13686837721616E-13),(1046.29284890724,997.690537621042,1.13686837721616E-13),(1060.43498453097,997.690537621041,1.13686837721616E-13),(1226.49248448538,1087.25035552407,42.8303186787115),(1354.21356237309,1088.,1.13686837721616E-13),(1354.21356237309,1088.,42.7647332853929),(1053.3639167191,1000.61946980918,37.2908218883684),(1046.29284890724,997.690537621042,37.1035352143214),(1060.43498453097,997.690537621041,37.1035352143213),(1043.3639167191,990.619469809176,36.6513851857848),(1063.3639167191,990.619469809176,36.6513851857849),(1063.3639167191,990.619469809176,1.13686837721616E-13),(700.035713374682,983.548401997311,36.1992351572484),(714.177848998413,983.548401997311,36.1992351572484),(707.106781186548,980.619469809176,36.0119484832013),(714.177848998413,983.548401997311,1.13686837721616E-13),(1046.29284890724,983.548401997311,1.13686837721616E-13),(1060.43498453097,983.548401997311,1.13686837721616E-13),(1053.3639167191,980.619469809176,1.13686837721616E-13),(1046.29284890724,983.548401997311,36.1992351572484),(1060.43498453097,983.548401997311,36.1992351572485),(1053.3639167191,980.619469809176,36.0119484832013),(1226.49248448538,891.000000000002,60.0000000000001),(1226.49248448538,891.000000000002,30.2813506569945),(1354.2135623731,891.000000000002,60.0000000000002),(1354.2135623731,891.000000000002,0.)));
#757=IFCPOLYGONALFACESET(#756,.T.,(#661,#662,#663,#664,#665,#666,#667,#668,#669,#670,#671,#672,#673,#674,#675,#676,#677,#678,#679,#680,#681,#682,#683,#684,#685,#686,#687,#688,#689,#690,#691,#692,#693,#694,#695,#696,#697,#698,#699,#700,#701,#702,#703,#704,#705,#706,#707,#708,#709,#710,#711,#712,#713,#714,#715,#716,#717,#718,#719,#720,#721,#722,#723,#724,#725,#726,#727,#728,#729,#730,#731,#732,#733,#734,#735,#736,#737,#738,#739,#740,#741,#742,#743,#744,#745,#746,#747,#748,#749,#750,#751,#752,#753,#754,#755),$);
#758=IFCSHAPEREPRESENTATION(#12,'Body','Tessellation',(#757));
#759=IFCPRODUCTDEFINITIONSHAPE($,$,(#758));
#760=IFCBUILDINGELEMENTPROXY('0S9Q4GTs99PuQ2we9hSqmY',$,'oculus_3_cutter_0',$,$,$,#773,$,$);
#761=IFCRELCONTAINEDINSPATIALSTRUCTURE('1vUl9uaUvExeQJdDnzEHeG',$,$,$,(#760),#22);
#762=IFCINDEXEDPOLYGONALFACE((1,2,6,5));
#763=IFCINDEXEDPOLYGONALFACE((2,3,7,6));
#764=IFCINDEXEDPOLYGONALFACE((3,4,8,7));
#765=IFCINDEXEDPOLYGONALFACE((4,1,5,8));
#766=IFCINDEXEDPOLYGONALFACE((1,4,3));
#767=IFCINDEXEDPOLYGONALFACE((3,2,1));
#768=IFCINDEXEDPOLYGONALFACE((8,5,6));
#769=IFCINDEXEDPOLYGONALFACE((6,7,8));
#770=IFCCARTESIANPOINTLIST3D(((187.721077887715,876.745559771223,29.369869431288),(1226.49248448538,876.745559771224,29.3698694312881),(1226.49248448538,1087.25035552408,42.8303186787115),(187.721077887716,1087.25035552407,42.8303186787114),(187.721077887715,873.828062934758,74.9959153663743),(1226.49248448538,873.828062934758,74.9959153663746),(1226.49248448538,1084.33285868761,88.4563646137979),(187.721077887716,1084.33285868761,88.4563646137977)));
#771=IFCPOLYGONALFACESET(#770,.T.,(#762,#763,#764,#765,#766,#767,#768,#769),$);
#772=IFCSHAPEREPRESENTATION(#12,'Body','Tessellation',(#771));
#773=IFCPRODUCTDEFINITIONSHAPE($,$,(#772));
#774=IFCBUILDINGELEMENTPROXY('2lbdr4SlDBlhlkT2zxwAZX',$,'oculus_3_cutter_1',$,$,$,#799,$,$);
#775=IFCRELCONTAINEDINSPATIALSTRUCTURE('1M9o7cnBr59u$2m9kE897g',$,$,$,(#774),#22);
#776=IFCINDEXEDPOLYGONALFACE((1,2,10,9));
#777=IFCINDEXEDPOLYGONALFACE((2,3,11,10));
#778=IFCINDEXEDPOLYGONALFACE((3,4,12,11));
#779=IFCINDEXEDPOLYGONALFACE((4,5,13,12));
#780=IFCINDEXEDPOLYGONALFACE((5,6,14,13));
#781=IFCINDEXEDPOLYGONALFACE((6,7,15,14));
#782=IFCINDEXEDPOLYGONALFACE((7,8,16,15));
#783=IFCINDEXEDPOLYGONALFACE((8,1,9,16));
#784=IFCINDEXEDPOLYGONALFACE((1,8,7));
#785=IFCINDEXEDPOLYGONALFACE((7,6,5));
#786=IFCINDEXEDPOLYGONALFACE((5,4,3));
#787=IFCINDEXEDPOLYGONALFACE((3,2,1));
#788=IFCINDEXEDPOLYGONALFACE((1,7,5));
#789=IFCINDEXEDPOLYGONALFACE((5,3,1));
#790=IFCINDEXEDPOLYGONALFACE((16,9,10));
#791=IFCINDEXEDPOLYGONALFACE((10,11,12));
#792=IFCINDEXEDPOLYGONALFACE((12,13,14));
#793=IFCINDEXEDPOLYGONALFACE((14,15,16));
#794=IFCINDEXEDPOLYGONALFACE((16,10,12));
#795=IFCINDEXEDPOLYGONALFACE((12,14,16));
#796=IFCCARTESIANPOINTLIST3D(((360.849645653993,1000.61946980918,-28.7155742747658),(353.778577842127,997.690537621041,-28.7155742747658),(350.849645653993,990.619469809176,-28.7155742747657),(353.778577842127,983.548401997311,-28.7155742747658),(360.849645653993,980.619469809176,-28.7155742747658),(367.920713465858,983.548401997311,-28.7155742747658),(370.849645653993,990.619469809176,-28.7155742747659),(367.920713465858,997.690537621041,-28.7155742747658),(360.849645653993,1000.61946980918,131.284425725234),(353.778577842127,997.690537621041,131.284425725234),(350.849645653993,990.619469809176,131.284425725234),(353.778577842127,983.548401997311,131.284425725234),(360.849645653993,980.619469809176,131.284425725234),(367.920713465858,983.548401997311,131.284425725234),(370.849645653993,990.619469809176,131.284425725234),(367.920713465858,997.690537621041,131.284425725234)));
#797=IFCPOLYGONALFACESET(#796,.T.,(#776,#777,#778,#779,#780,#781,#782,#783,#784,#785,#786,#787,#788,#789,#790,#791,#792,#793,#794,#795),$);
#798=IFCSHAPEREPRESENTATION(#12,'Body','Tessellation',(#797));
#799=IFCPRODUCTDEFINITIONSHAPE($,$,(#798));
#800=IFCBUILDINGELEMENTPROXY('1JSazCEJr8f8tO8i8lMfq_',$,'oculus_3_cutter_2',$,$,$,#825,$,$);
#801=IFCRELCONTAINEDINSPATIALSTRUCTURE('2iEpxR4BXBvf8_hNzauRMn',$,$,$,(#800),#22);
#802=IFCINDEXEDPOLYGONALFACE((1,2,10,9));
#803=IFCINDEXEDPOLYGONALFACE((2,3,11,10));
#804=IFCINDEXEDPOLYGONALFACE((3,4,12,11));
#805=IFCINDEXEDPOLYGONALFACE((4,5,13,12));
#806=IFCINDEXEDPOLYGONALFACE((5,6,14,13));
#807=IFCINDEXEDPOLYGONALFACE((6,7,15,14));
#808=IFCINDEXEDPOLYGONALFACE((7,8,16,15));
#809=IFCINDEXEDPOLYGONALFACE((8,1,9,16));
#810=IFCINDEXEDPOLYGONALFACE((1,8,7));
#811=IFCINDEXEDPOLYGONALFACE((7,6,5));
#812=IFCINDEXEDPOLYGONALFACE((5,4,3));
#813=IFCINDEXEDPOLYGONALFACE((3,2,1));
#814=IFCINDEXEDPOLYGONALFACE((1,7,5));
#815=IFCINDEXEDPOLYGONALFACE((5,3,1));
#816=IFCINDEXEDPOLYGONALFACE((16,9,10));
#817=IFCINDEXEDPOLYGONALFACE((10,11,12));
#818=IFCINDEXEDPOLYGONALFACE((12,13,14));
#819=IFCINDEXEDPOLYGONALFACE((14,15,16));
#820=IFCINDEXEDPOLYGONALFACE((16,10,12));
#821=IFCINDEXEDPOLYGONALFACE((12,14,16));
#822=IFCCARTESIANPOINTLIST3D(((707.106781186547,1000.61946980918,-28.7155742747657),(700.035713374682,997.690537621042,-28.7155742747657),(697.106781186547,990.619469809176,-28.7155742747657),(700.035713374682,983.548401997311,-28.7155742747657),(707.106781186548,980.619469809176,-28.7155742747657),(714.177848998413,983.548401997311,-28.7155742747657),(717.106781186547,990.619469809176,-28.7155742747657),(714.177848998413,997.690537621042,-28.7155742747657),(707.106781186548,1000.61946980918,131.284425725234),(700.035713374682,997.690537621042,131.284425725234),(697.106781186547,990.619469809176,131.284425725234),(700.035713374682,983.548401997311,131.284425725234),(707.106781186548,980.619469809176,131.284425725234),(714.177848998413,983.548401997311,131.284425725234),(717.106781186547,990.619469809176,131.284425725234),(714.177848998413,997.690537621042,131.284425725234)));
#823=IFCPOLYGONALFACESET(#822,.T.,(#802,#803,#804,#805,#806,#807,#808,#809,#810,#811,#812,#813,#814,#815,#816,#817,#818,#819,#820,#821),$);
#824=IFCSHAPEREPRESENTATION(#12,'Body','Tessellation',(#823));
#825=IFCPRODUCTDEFINITIONSHAPE($,$,(#824));
#826=IFCBUILDINGELEMENTPROXY('3ujPwML5P81eRtLpOFtMOz',$,'oculus_3_cutter_3',$,$,$,#851,$,$);
#827=IFCRELCONTAINEDINSPATIALSTRUCTURE('0B780nssT6duyBcCGl7zy3',$,$,$,(#826),#22);
#828=IFCINDEXEDPOLYGONALFACE((1,2,10,9));
#829=IFCINDEXEDPOLYGONALFACE((2,3,11,10));
#830=IFCINDEXEDPOLYGONALFACE((3,4,12,11));
#831=IFCINDEXEDPOLYGONALFACE((4,5,13,12));
#832=IFCINDEXEDPOLYGONALFACE((5,6,14,13));
#833=IFCINDEXEDPOLYGONALFACE((6,7,15,14));
#834=IFCINDEXEDPOLYGONALFACE((7,8,16,15));
#835=IFCINDEXEDPOLYGONALFACE((8,1,9,16));
#836=IFCINDEXEDPOLYGONALFACE((1,8,7));
#837=IFCINDEXEDPOLYGONALFACE((7,6,5));
#838=IFCINDEXEDPOLYGONALFACE((5,4,3));
#839=IFCINDEXEDPOLYGONALFACE((3,2,1));
#840=IFCINDEXEDPOLYGONALFACE((1,7,5));
#841=IFCINDEXEDPOLYGONALFACE((5,3,1));
#842=IFCINDEXEDPOLYGONALFACE((16,9,10));
#843=IFCINDEXEDPOLYGONALFACE((10,11,12));
#844=IFCINDEXEDPOLYGONALFACE((12,13,14));
#845=IFCINDEXEDPOLYGONALFACE((14,15,16));
#846=IFCINDEXEDPOLYGONALFACE((16,10,12));
#847=IFCINDEXEDPOLYGONALFACE((12,14,16));
#848=IFCCARTESIANPOINTLIST3D(((1053.3639167191,1000.61946980918,-28.7155742747657),(1046.29284890724,997.690537621042,-28.7155742747657),(1043.3639167191,990.619469809176,-28.7155742747656),(1046.29284890724,983.548401997311,-28.7155742747657),(1053.3639167191,980.619469809176,-28.7155742747657),(1060.43498453097,983.548401997311,-28.7155742747657),(1063.3639167191,990.619469809176,-28.7155742747657),(1060.43498453097,997.690537621042,-28.7155742747657),(1053.3639167191,1000.61946980918,131.284425725234),(1046.29284890724,997.690537621042,131.284425725234),(1043.3639167191,990.619469809176,131.284425725234),(1046.29284890724,983.548401997311,131.284425725234),(1053.3639167191,980.619469809176,131.284425725234),(1060.43498453097,983.548401997311,131.284425725234),(1063.3639167191,990.619469809176,131.284425725234),(1060.43498453097,997.690537621042,131.284425725234)));
#849=IFCPOLYGONALFACESET(#848,.T.,(#828,#829,#830,#831,#832,#833,#834,#835,#836,#837,#838,#839,#840,#841,#842,#843,#844,#845,#846,#847),$);
#850=IFCSHAPEREPRESENTATION(#12,'Body','Tessellation',(#849));
#851=IFCPRODUCTDEFINITIONSHAPE($,$,(#850));
ENDSEC;
END-ISO-10303-21;
