# OBJ
# COMPAS
# version: 2.15.1
# precision: 3
# V F E: 28 30 56

o outer_rib_connector_0
v 200.000 29.250 30.000
v 0.000 23.305 30.000
v 0.000 -35.195 30.000
v 400.000 35.195 0.000
v 400.000 -35.195 0.000
v 400.000 35.195 40.000
v 400.000 -35.195 40.000
v 200.000 29.250 10.000
v 200.000 -35.195 10.000
v 200.000 -35.195 0.000
v 200.000 29.250 0.000
v 200.000 -35.195 30.000
v 200.000 -35.195 40.000
v 200.000 29.250 40.000
v -200.000 29.250 30.000
v 0.000 23.305 10.000
v 0.000 -35.195 10.000
v -400.000 35.195 0.000
v -400.000 -35.195 0.000
v -400.000 35.195 40.000
v -400.000 -35.195 40.000
v -200.000 29.250 10.000
v -200.000 -35.195 10.000
v -200.000 -35.195 0.000
v -200.000 29.250 0.000
v -200.000 -35.195 30.000
v -200.000 -35.195 40.000
v -200.000 29.250 40.000
f 4 8 1 6
f 8 4 11
f 1 14 6
f 2 1 8 16
f 9 17 16 8
f 3 12 1 2
f 17 9 12 3
f 5 10 11 4
f 6 7 5 4
f 6 14 13 7
f 9 5 7 12
f 9 10 5
f 13 12 7
f 8 11 10 9
f 1 12 13 14
f 18 20 15 22
f 22 25 18
f 15 20 28
f 2 16 22 15
f 23 22 16 17
f 3 2 15 26
f 17 3 26 23
f 19 18 25 24
f 20 18 19 21
f 20 21 27 28
f 23 26 21 19
f 23 19 24
f 27 21 26
f 22 23 24 25
f 15 28 27 26
