ISO-10303-21;
HEADER;
FILE_DESCRIPTION(('ViewDefinition [CoordinationView]'),'2;1');
FILE_NAME('','2026-08-20T14:41:57',(''),(''),'IfcOpenShell 0.8.4-e8eb5e4','IfcOpenShell 0.8.4-e8eb5e4','');
FILE_SCHEMA(('IFC4'));
ENDSEC;
DATA;
#1=IFCPROJECT('1W2m_JsnD78OOdLpYHyr6k',$,'Default Project',$,$,$,$,(#11),#6);
#2=IFCSIUNIT(*,.LENGTHUNIT.,.MILLI.,.METRE.);
#3=IFCSIUNIT(*,.AREAUNIT.,.MILLI.,.SQUARE_METRE.);
#4=IFCSIUNIT(*,.VOLUMEUNIT.,.MILLI.,.CUBIC_METRE.);
#5=IFCSIUNIT(*,.PLANEANGLEUNIT.,$,.RADIAN.);
#6=IFCUNITASSIGNMENT((#2,#3,#4,#5));
#7=IFCCARTESIANPOINT((0.,0.,0.));
#8=IFCDIRECTION((0.,0.,1.));
#9=IFCDIRECTION((1.,0.,0.));
#10=IFCAXIS2PLACEMENT3D(#7,#8,#9);
#11=IFCGEOMETRICREPRESENTATIONCONTEXT($,'Model',3,1.E-05,#10,$);
#12=IFCGEOMETRICREPRESENTATIONSUBCONTEXT('Body','Model',*,*,*,*,#11,$,.MODEL_VIEW.,$);
#13=IFCPERSON($,'Unknown Author',$,$,$,$,$,$);
#14=IFCORGANIZATION($,'compas.dev',$,$,$);
#15=IFCPERSONANDORGANIZATION(#13,#14,$);
#16=IFCAPPLICATION(#14,'2.1.0','compas_ifc','compas_ifc v2.1.0');
#17=IFCOWNERHISTORY(#15,#16,$,$,$,$,$,1787229717);
#18=IFCSITE('3TDV3edHL0aQ9gTYgJwzIe',$,'Default Site',$,$,$,$,$,$,$,$,$,$,$);
#19=IFCRELAGGREGATES('0wTUel4jb3oAaOVzMqkAfM',$,$,$,#1,(#18));
#20=IFCBUILDING('13WYvwUAL9nwNgHKw5oMTE',$,'Default Building 1',$,$,$,$,$,$,$,$,$);
#21=IFCRELAGGREGATES('1J4nsFrFf5QvqtEzJRVz3K',$,$,$,#18,(#20));
#22=IFCBUILDINGSTOREY('1TTCQfwsX6ZuBC_208$LJT',$,'Default Storey 1',$,$,$,$,$,$,$);
#23=IFCRELAGGREGATES('3NBMx7pUvDMfL$bmHIDci9',$,$,$,#20,(#22));
#24=IFCBUILDINGELEMENTPROXY('0VyLb81uvAJRLE0QFRKaUD',$,'support_0',$,$,$,#249,$,$);
#25=IFCRELCONTAINEDINSPATIALSTRUCTURE('3HJUcjq0zC7fguxGOnn$7e',$,$,$,(#24),#22);
#26=IFCINDEXEDPOLYGONALFACE((6,5,7));
#27=IFCINDEXEDPOLYGONALFACE((1,7,8));
#28=IFCINDEXEDPOLYGONALFACE((2,8,3));
#29=IFCINDEXEDPOLYGONALFACE((4,3,5));
#30=IFCINDEXEDPOLYGONALFACE((24,26,5));
#31=IFCINDEXEDPOLYGONALFACE((27,5,26));
#32=IFCINDEXEDPOLYGONALFACE((3,14,24));
#33=IFCINDEXEDPOLYGONALFACE((25,24,14));
#34=IFCINDEXEDPOLYGONALFACE((23,99,18));
#35=IFCINDEXEDPOLYGONALFACE((30,57,25));
#36=IFCINDEXEDPOLYGONALFACE((23,57,99));
#37=IFCINDEXEDPOLYGONALFACE((27,23,17));
#38=IFCINDEXEDPOLYGONALFACE((5,27,17));
#39=IFCINDEXEDPOLYGONALFACE((99,57,30));
#40=IFCINDEXEDPOLYGONALFACE((12,15,3));
#41=IFCINDEXEDPOLYGONALFACE((14,3,15));
#42=IFCINDEXEDPOLYGONALFACE((16,96,30));
#43=IFCINDEXEDPOLYGONALFACE((96,16,13));
#44=IFCINDEXEDPOLYGONALFACE((13,12,11));
#45=IFCINDEXEDPOLYGONALFACE((44,96,13));
#46=IFCINDEXEDPOLYGONALFACE((50,16,30));
#47=IFCINDEXEDPOLYGONALFACE((30,25,50));
#48=IFCINDEXEDPOLYGONALFACE((12,3,11));
#49=IFCINDEXEDPOLYGONALFACE((22,31,29));
#50=IFCINDEXEDPOLYGONALFACE((18,31,22));
#51=IFCINDEXEDPOLYGONALFACE((19,7,20));
#52=IFCINDEXEDPOLYGONALFACE((17,20,7));
#53=IFCINDEXEDPOLYGONALFACE((19,21,48));
#54=IFCINDEXEDPOLYGONALFACE((7,19,9));
#55=IFCINDEXEDPOLYGONALFACE((21,22,29));
#56=IFCINDEXEDPOLYGONALFACE((46,28,44));
#57=IFCINDEXEDPOLYGONALFACE((29,28,46));
#58=IFCINDEXEDPOLYGONALFACE((28,96,44));
#59=IFCINDEXEDPOLYGONALFACE((29,46,48));
#60=IFCINDEXEDPOLYGONALFACE((8,9,10));
#61=IFCINDEXEDPOLYGONALFACE((11,8,10));
#62=IFCINDEXEDPOLYGONALFACE((48,21,29));
#63=IFCINDEXEDPOLYGONALFACE((4,6,41));
#64=IFCINDEXEDPOLYGONALFACE((42,41,6));
#65=IFCINDEXEDPOLYGONALFACE((59,51,36));
#66=IFCINDEXEDPOLYGONALFACE((6,43,42));
#67=IFCINDEXEDPOLYGONALFACE((52,58,56));
#68=IFCINDEXEDPOLYGONALFACE((43,38,60));
#69=IFCINDEXEDPOLYGONALFACE((6,1,38));
#70=IFCINDEXEDPOLYGONALFACE((58,52,51));
#71=IFCINDEXEDPOLYGONALFACE((37,4,36));
#72=IFCINDEXEDPOLYGONALFACE((52,47,53));
#73=IFCINDEXEDPOLYGONALFACE((4,37,35));
#74=IFCINDEXEDPOLYGONALFACE((53,45,34));
#75=IFCINDEXEDPOLYGONALFACE((35,34,4));
#76=IFCINDEXEDPOLYGONALFACE((60,54,56));
#77=IFCINDEXEDPOLYGONALFACE((39,40,1));
#78=IFCINDEXEDPOLYGONALFACE((38,1,40));
#79=IFCINDEXEDPOLYGONALFACE((39,32,49));
#80=IFCINDEXEDPOLYGONALFACE((1,2,32));
#81=IFCINDEXEDPOLYGONALFACE((55,49,47));
#82=IFCINDEXEDPOLYGONALFACE((34,33,2));
#83=IFCINDEXEDPOLYGONALFACE((32,2,33));
#84=IFCINDEXEDPOLYGONALFACE((45,47,46));
#85=IFCINDEXEDPOLYGONALFACE((47,49,48));
#86=IFCINDEXEDPOLYGONALFACE((49,32,9));
#87=IFCINDEXEDPOLYGONALFACE((32,33,10));
#88=IFCINDEXEDPOLYGONALFACE((33,34,11));
#89=IFCINDEXEDPOLYGONALFACE((34,45,44));
#90=IFCINDEXEDPOLYGONALFACE((53,35,12));
#91=IFCINDEXEDPOLYGONALFACE((35,37,15));
#92=IFCINDEXEDPOLYGONALFACE((37,36,14));
#93=IFCINDEXEDPOLYGONALFACE((36,51,50));
#94=IFCINDEXEDPOLYGONALFACE((51,52,16));
#95=IFCINDEXEDPOLYGONALFACE((52,53,13));
#96=IFCINDEXEDPOLYGONALFACE((54,38,17));
#97=IFCINDEXEDPOLYGONALFACE((38,40,20));
#98=IFCINDEXEDPOLYGONALFACE((40,39,19));
#99=IFCINDEXEDPOLYGONALFACE((39,55,21));
#100=IFCINDEXEDPOLYGONALFACE((55,56,22));
#101=IFCINDEXEDPOLYGONALFACE((56,54,18));
#102=IFCINDEXEDPOLYGONALFACE((60,58,57));
#103=IFCINDEXEDPOLYGONALFACE((58,59,25));
#104=IFCINDEXEDPOLYGONALFACE((59,41,24));
#105=IFCINDEXEDPOLYGONALFACE((41,42,26));
#106=IFCINDEXEDPOLYGONALFACE((42,43,27));
#107=IFCINDEXEDPOLYGONALFACE((43,60,23));
#108=IFCINDEXEDPOLYGONALFACE((61,67,68));
#109=IFCINDEXEDPOLYGONALFACE((62,68,69));
#110=IFCINDEXEDPOLYGONALFACE((63,69,70));
#111=IFCINDEXEDPOLYGONALFACE((64,70,71));
#112=IFCINDEXEDPOLYGONALFACE((65,71,72));
#113=IFCINDEXEDPOLYGONALFACE((66,72,67));
#114=IFCINDEXEDPOLYGONALFACE((62,78,61));
#115=IFCINDEXEDPOLYGONALFACE((73,61,78));
#116=IFCINDEXEDPOLYGONALFACE((63,78,62));
#117=IFCINDEXEDPOLYGONALFACE((66,61,74));
#118=IFCINDEXEDPOLYGONALFACE((73,74,61));
#119=IFCINDEXEDPOLYGONALFACE((65,66,74));
#120=IFCINDEXEDPOLYGONALFACE((64,76,77));
#121=IFCINDEXEDPOLYGONALFACE((78,63,77));
#122=IFCINDEXEDPOLYGONALFACE((63,64,77));
#123=IFCINDEXEDPOLYGONALFACE((65,75,64));
#124=IFCINDEXEDPOLYGONALFACE((76,64,75));
#125=IFCINDEXEDPOLYGONALFACE((74,75,65));
#126=IFCINDEXEDPOLYGONALFACE((73,84,79));
#127=IFCINDEXEDPOLYGONALFACE((74,79,80));
#128=IFCINDEXEDPOLYGONALFACE((75,80,81));
#129=IFCINDEXEDPOLYGONALFACE((76,81,82));
#130=IFCINDEXEDPOLYGONALFACE((77,82,83));
#131=IFCINDEXEDPOLYGONALFACE((78,83,84));
#132=IFCINDEXEDPOLYGONALFACE((87,82,81));
#133=IFCINDEXEDPOLYGONALFACE((86,82,87));
#134=IFCINDEXEDPOLYGONALFACE((88,87,81));
#135=IFCINDEXEDPOLYGONALFACE((80,89,81));
#136=IFCINDEXEDPOLYGONALFACE((88,81,89));
#137=IFCINDEXEDPOLYGONALFACE((79,89,80));
#138=IFCINDEXEDPOLYGONALFACE((84,86,85));
#139=IFCINDEXEDPOLYGONALFACE((82,86,83));
#140=IFCINDEXEDPOLYGONALFACE((83,86,84));
#141=IFCINDEXEDPOLYGONALFACE((79,84,90));
#142=IFCINDEXEDPOLYGONALFACE((85,90,84));
#143=IFCINDEXEDPOLYGONALFACE((89,79,90));
#144=IFCINDEXEDPOLYGONALFACE((91,85,86));
#145=IFCINDEXEDPOLYGONALFACE((102,87,88));
#146=IFCINDEXEDPOLYGONALFACE((92,88,89));
#147=IFCINDEXEDPOLYGONALFACE((93,90,85));
#148=IFCINDEXEDPOLYGONALFACE((29,101,94));
#149=IFCINDEXEDPOLYGONALFACE((28,94,95));
#150=IFCINDEXEDPOLYGONALFACE((96,95,97));
#151=IFCINDEXEDPOLYGONALFACE((30,97,98));
#152=IFCINDEXEDPOLYGONALFACE((99,98,100));
#153=IFCINDEXEDPOLYGONALFACE((31,100,101));
#154=IFCINDEXEDPOLYGONALFACE((103,94,101));
#155=IFCINDEXEDPOLYGONALFACE((102,94,103));
#156=IFCINDEXEDPOLYGONALFACE((91,103,101));
#157=IFCINDEXEDPOLYGONALFACE((101,100,93));
#158=IFCINDEXEDPOLYGONALFACE((98,93,100));
#159=IFCINDEXEDPOLYGONALFACE((91,101,93));
#160=IFCINDEXEDPOLYGONALFACE((97,102,92));
#161=IFCINDEXEDPOLYGONALFACE((94,102,95));
#162=IFCINDEXEDPOLYGONALFACE((95,102,97));
#163=IFCINDEXEDPOLYGONALFACE((98,97,104));
#164=IFCINDEXEDPOLYGONALFACE((92,104,97));
#165=IFCINDEXEDPOLYGONALFACE((93,98,104));
#166=IFCINDEXEDPOLYGONALFACE((102,86,87));
#167=IFCINDEXEDPOLYGONALFACE((86,102,103));
#168=IFCINDEXEDPOLYGONALFACE((90,104,89));
#169=IFCINDEXEDPOLYGONALFACE((104,90,93));
#170=IFCINDEXEDPOLYGONALFACE((6,7,1));
#171=IFCINDEXEDPOLYGONALFACE((1,8,2));
#172=IFCINDEXEDPOLYGONALFACE((2,3,4));
#173=IFCINDEXEDPOLYGONALFACE((4,5,6));
#174=IFCINDEXEDPOLYGONALFACE((3,24,5));
#175=IFCINDEXEDPOLYGONALFACE((25,14,50));
#176=IFCINDEXEDPOLYGONALFACE((99,31,18));
#177=IFCINDEXEDPOLYGONALFACE((23,18,17));
#178=IFCINDEXEDPOLYGONALFACE((5,17,7));
#179=IFCINDEXEDPOLYGONALFACE((13,11,44));
#180=IFCINDEXEDPOLYGONALFACE((3,8,11));
#181=IFCINDEXEDPOLYGONALFACE((19,48,9));
#182=IFCINDEXEDPOLYGONALFACE((7,9,8));
#183=IFCINDEXEDPOLYGONALFACE((4,41,36));
#184=IFCINDEXEDPOLYGONALFACE((59,36,41));
#185=IFCINDEXEDPOLYGONALFACE((52,56,47));
#186=IFCINDEXEDPOLYGONALFACE((38,54,60));
#187=IFCINDEXEDPOLYGONALFACE((6,38,43));
#188=IFCINDEXEDPOLYGONALFACE((58,51,59));
#189=IFCINDEXEDPOLYGONALFACE((47,45,53));
#190=IFCINDEXEDPOLYGONALFACE((53,34,35));
#191=IFCINDEXEDPOLYGONALFACE((34,2,4));
#192=IFCINDEXEDPOLYGONALFACE((60,56,58));
#193=IFCINDEXEDPOLYGONALFACE((39,49,55));
#194=IFCINDEXEDPOLYGONALFACE((1,32,39));
#195=IFCINDEXEDPOLYGONALFACE((55,47,56));
#196=IFCINDEXEDPOLYGONALFACE((45,46,44));
#197=IFCINDEXEDPOLYGONALFACE((47,48,46));
#198=IFCINDEXEDPOLYGONALFACE((49,9,48));
#199=IFCINDEXEDPOLYGONALFACE((32,10,9));
#200=IFCINDEXEDPOLYGONALFACE((33,11,10));
#201=IFCINDEXEDPOLYGONALFACE((34,44,11));
#202=IFCINDEXEDPOLYGONALFACE((53,12,13));
#203=IFCINDEXEDPOLYGONALFACE((35,15,12));
#204=IFCINDEXEDPOLYGONALFACE((37,14,15));
#205=IFCINDEXEDPOLYGONALFACE((36,50,14));
#206=IFCINDEXEDPOLYGONALFACE((51,16,50));
#207=IFCINDEXEDPOLYGONALFACE((52,13,16));
#208=IFCINDEXEDPOLYGONALFACE((54,17,18));
#209=IFCINDEXEDPOLYGONALFACE((38,20,17));
#210=IFCINDEXEDPOLYGONALFACE((40,19,20));
#211=IFCINDEXEDPOLYGONALFACE((39,21,19));
#212=IFCINDEXEDPOLYGONALFACE((55,22,21));
#213=IFCINDEXEDPOLYGONALFACE((56,18,22));
#214=IFCINDEXEDPOLYGONALFACE((60,57,23));
#215=IFCINDEXEDPOLYGONALFACE((58,25,57));
#216=IFCINDEXEDPOLYGONALFACE((59,24,25));
#217=IFCINDEXEDPOLYGONALFACE((41,26,24));
#218=IFCINDEXEDPOLYGONALFACE((42,27,26));
#219=IFCINDEXEDPOLYGONALFACE((43,23,27));
#220=IFCINDEXEDPOLYGONALFACE((61,68,62));
#221=IFCINDEXEDPOLYGONALFACE((62,69,63));
#222=IFCINDEXEDPOLYGONALFACE((63,70,64));
#223=IFCINDEXEDPOLYGONALFACE((64,71,65));
#224=IFCINDEXEDPOLYGONALFACE((65,72,66));
#225=IFCINDEXEDPOLYGONALFACE((66,67,61));
#226=IFCINDEXEDPOLYGONALFACE((73,79,74));
#227=IFCINDEXEDPOLYGONALFACE((74,80,75));
#228=IFCINDEXEDPOLYGONALFACE((75,81,76));
#229=IFCINDEXEDPOLYGONALFACE((76,82,77));
#230=IFCINDEXEDPOLYGONALFACE((77,83,78));
#231=IFCINDEXEDPOLYGONALFACE((78,84,73));
#232=IFCINDEXEDPOLYGONALFACE((91,86,103));
#233=IFCINDEXEDPOLYGONALFACE((102,88,92));
#234=IFCINDEXEDPOLYGONALFACE((92,89,104));
#235=IFCINDEXEDPOLYGONALFACE((93,85,91));
#236=IFCINDEXEDPOLYGONALFACE((29,94,28));
#237=IFCINDEXEDPOLYGONALFACE((28,95,96));
#238=IFCINDEXEDPOLYGONALFACE((96,97,30));
#239=IFCINDEXEDPOLYGONALFACE((30,98,99));
#240=IFCINDEXEDPOLYGONALFACE((99,100,31));
#241=IFCINDEXEDPOLYGONALFACE((31,101,29));
#242=IFCINDEXEDPOLYGONALFACE((71,67,72));
#243=IFCINDEXEDPOLYGONALFACE((70,67,71));
#244=IFCINDEXEDPOLYGONALFACE((70,69,67));
#245=IFCINDEXEDPOLYGONALFACE((68,67,69));
#246=IFCCARTESIANPOINTLIST3D(((70.,70.,0.),(70.,-70.,0.),(-70.,-70.,11.9999847412109),(-70.,-70.,0.),(-70.,70.,11.9999847412109),(-70.,70.,0.),(70.,70.,11.9999847412109),(70.,-70.,11.9999847412109),(59.5,-52.,11.9999847412109),(55.75,-58.4951782226562,11.9999847412109),(48.25,-58.4951782226562,11.9999847412109),(-48.25,-58.4951782226562,11.9999847412109),(-44.5,-52.,11.9999847412109),(-59.5,-52.,11.9999847412109),(-55.75,-58.4951782226562,11.9999847412109),(-48.25,-45.5047912597656,11.9999847412109),(48.25,58.4952087402344,11.9999847412109),(44.5,52.,11.9999847412109),(59.5,52.,11.9999847412109),(55.75,58.4952087402344,11.9999847412109),(55.75,45.5048217773438,11.9999847412109),(48.25,45.5048217773438,11.9999847412109),(-44.5,52.,11.9999847412109),(-59.5,52.,11.9999847412109),(-55.75,45.5048217773438,11.9999847412109),(-55.75,58.4952087402344,11.9999847412109),(-48.25,58.4952087402344,11.9999847412109),(10.4999990463257,-18.1865234375,11.9999847412109),(21.,0.,11.9999847412109),(-21.,0.,11.9999847412109),(10.4999990463257,18.1865234375,11.9999847412109),(59.5,-52.,0.),(55.75,-58.4951782226562,0.),(48.25,-58.4951782226562,0.),(-48.25,-58.4951782226562,0.),(-59.5,-52.,0.),(-55.75,-58.4951782226562,0.),(48.25,58.4952087402344,0.),(59.5,52.,0.),(55.75,58.4952087402344,0.),(-59.5,52.,0.),(-55.75,58.4952087402344,0.),(-48.25,58.4952087402344,0.),(44.5,-52.,11.9999847412109),(44.5,-52.,0.),(48.25,-45.5047912597656,11.9999847412109),(48.25,-45.5047912597656,0.),(55.75,-45.5047912597656,11.9999847412109),(55.75,-45.5047912597656,0.),(-55.75,-45.5047912597656,11.9999847412109),(-55.75,-45.5047912597656,0.),(-48.25,-45.5047912597656,0.),(-44.5,-52.,0.),(44.5,52.,0.),(55.75,45.5048217773438,0.),(48.25,45.5048217773438,0.),(-48.25,45.5048217773438,11.9999847412109),(-48.25,45.5048217773438,0.),(-55.75,45.5048217773438,0.),(-44.5,52.,0.),(53.,0.,137.999984741211),(26.5000076293945,-45.8993225097656,137.999984741211),(-26.4999809265137,-45.8993225097656,137.999984741211),(-52.9999771118164,0.,137.999984741211),(-26.4999809265137,45.8993530273438,137.999984741211),(26.5000076293945,45.8993530273438,137.999984741211),(53.,0.,149.999984741211),(26.5000076293945,-45.8993225097656,149.999984741211),(-26.4999809265137,-45.8993225097656,149.999984741211),(-52.9999771118164,0.,149.999984741211),(-26.4999809265137,45.8993530273438,149.999984741211),(26.5000076293945,45.8993530273438,149.999984741211),(31.75,0.,137.999984741211),(15.8749990463257,27.4963073730469,137.999984741211),(-15.8749971389771,27.4963073730469,137.999984741211),(-31.7499961853027,0.,137.999984741211),(-15.8749971389771,-27.4963073730469,137.999984741211),(15.8749990463257,-27.4963073730469,137.999984741211),(15.8749990463257,27.4963073730469,107.999984741211),(-15.8749971389771,27.4963073730469,107.999984741211),(-31.7499961853027,0.,107.999984741211),(-15.8749971389771,-27.4963073730469,107.999984741211),(15.8749990463257,-27.4963073730469,107.999984741211),(31.75,0.,107.999984741211),(14.9999990463257,0.,107.999984741211),(7.49999904632568,-12.9903869628906,107.999984741211),(-7.49999713897705,-12.9903869628906,107.999984741211),(-14.9999971389771,0.,107.999984741211),(-7.49999713897705,12.9903869628906,107.999984741211),(7.49999904632568,12.9903869628906,107.999984741211),(14.9999990463257,0.,63.9999771118164),(-14.9999971389771,0.,63.9999771118164),(7.49999904632568,12.9903869628906,63.9999771118164),(10.4999990463257,-18.1865234375,63.9999771118164),(-10.4999971389771,-18.1865234375,63.9999771118164),(-10.4999971389771,-18.1865234375,11.9999847412109),(-21.,0.,63.9999771118164),(-10.4999971389771,18.1865234375,63.9999771118164),(-10.4999971389771,18.1865234375,11.9999847412109),(10.4999990463257,18.1865234375,63.9999771118164),(21.,0.,63.9999771118164),(-7.49999713897705,-12.9903869628906,63.9999771118164),(7.49999904632568,-12.9903869628906,63.9999771118164),(-7.49999713897705,12.9903869628906,63.9999771118164)));
#247=IFCPOLYGONALFACESET(#246,.T.,(#26,#27,#28,#29,#30,#31,#32,#33,#34,#35,#36,#37,#38,#39,#40,#41,#42,#43,#44,#45,#46,#47,#48,#49,#50,#51,#52,#53,#54,#55,#56,#57,#58,#59,#60,#61,#62,#63,#64,#65,#66,#67,#68,#69,#70,#71,#72,#73,#74,#75,#76,#77,#78,#79,#80,#81,#82,#83,#84,#85,#86,#87,#88,#89,#90,#91,#92,#93,#94,#95,#96,#97,#98,#99,#100,#101,#102,#103,#104,#105,#106,#107,#108,#109,#110,#111,#112,#113,#114,#115,#116,#117,#118,#119,#120,#121,#122,#123,#124,#125,#126,#127,#128,#129,#130,#131,#132,#133,#134,#135,#136,#137,#138,#139,#140,#141,#142,#143,#144,#145,#146,#147,#148,#149,#150,#151,#152,#153,#154,#155,#156,#157,#158,#159,#160,#161,#162,#163,#164,#165,#166,#167,#168,#169,#170,#171,#172,#173,#174,#175,#176,#177,#178,#179,#180,#181,#182,#183,#184,#185,#186,#187,#188,#189,#190,#191,#192,#193,#194,#195,#196,#197,#198,#199,#200,#201,#202,#203,#204,#205,#206,#207,#208,#209,#210,#211,#212,#213,#214,#215,#216,#217,#218,#219,#220,#221,#222,#223,#224,#225,#226,#227,#228,#229,#230,#231,#232,#233,#234,#235,#236,#237,#238,#239,#240,#241,#242,#243,#244,#245),$);
#248=IFCSHAPEREPRESENTATION(#12,'Body','Tessellation',(#247));
#249=IFCPRODUCTDEFINITIONSHAPE($,$,(#248));
ENDSEC;
END-ISO-10303-21;
