# OBJ
# COMPAS
# version: 2.15.1
# precision: 3
# V F E: 168 312 468

o tsections_0_preview
v -1335.955 144.180 27.000
v -751.380 67.971 27.000
v -314.393 35.125 27.000
v 117.931 27.010 27.000
v 545.591 43.626 27.000
v 968.588 84.972 27.000
v 1327.631 141.684 27.000
v 1332.636 115.140 27.000
v 972.011 58.178 27.000
v 547.430 16.677 27.000
v 118.202 0.000 27.000
v -315.659 8.144 27.000
v -754.139 41.102 27.000
v -1334.881 116.812 27.000
v -1335.955 144.180 0.000
v -751.380 67.971 0.000
v -314.393 35.125 0.000
v 117.931 27.010 0.000
v 545.591 43.626 0.000
v 968.588 84.972 0.000
v 1327.631 141.684 0.000
v 1332.636 115.140 0.000
v 972.011 58.178 0.000
v 547.430 16.677 0.000
v 118.202 0.000 0.000
v -315.659 8.144 0.000
v -754.139 41.102 0.000
v -1334.881 116.812 0.000
v -1608.572 194.180 27.000
v -1609.342 227.854 27.000
v -915.541 303.854 27.000
v -389.998 336.898 27.000
v 131.725 344.992 27.000
v 649.613 328.130 27.000
v 1163.649 286.307 27.000
v 1601.778 228.953 27.000
v 1597.526 201.693 27.000
v 1184.647 255.742 27.000
v 672.529 297.409 27.000
v 156.532 314.209 27.000
v -363.342 306.144 27.000
v -887.095 273.212 27.000
v -1590.518 197.497 -0.000
v -1591.147 225.016 -0.000
v -897.345 301.016 -0.000
v -371.803 334.060 -0.000
v 149.920 342.154 -0.000
v 667.809 325.292 -0.000
v 1181.844 283.470 -0.000
v 1619.973 226.115 -0.000
v 1615.810 199.426 -0.000
v 1179.604 256.529 -0.000
v 667.486 298.195 -0.000
v 151.489 314.996 -0.000
v -368.385 306.930 -0.000
v -892.138 273.999 -0.000
v -1616.297 540.209 27.000
v -917.942 463.483 27.000
v -394.199 430.383 27.000
v 125.673 422.150 27.000
v 641.675 438.785 27.000
v 1153.806 480.287 27.000
v 1590.031 537.249 27.000
v 1594.185 510.559 27.000
v 1156.037 453.345 27.000
v 641.989 411.688 27.000
v 124.095 394.992 27.000
v -397.626 403.254 27.000
v -923.158 436.467 27.000
v -1616.934 512.690 27.000
v -1611.254 540.994 -0.000
v -912.899 464.268 -0.000
v -389.156 431.168 -0.000
v 130.716 422.935 -0.000
v 646.718 439.570 0.000
v 1158.849 481.072 0.000
v 1595.074 538.034 0.000
v 1599.228 511.343 0.000
v 1161.081 454.130 0.000
v 647.032 412.473 0.000
v 129.138 395.777 -0.000
v -392.583 404.039 -0.000
v -918.114 437.252 -0.000
v -1611.891 513.475 -0.000
v -1592.192 591.779 27.000
v -1592.830 619.298 27.000
v -899.053 695.521 27.000
v -373.521 728.734 27.000
v 148.199 736.996 27.000
v 666.093 720.300 27.000
v 1180.142 678.643 27.000
v 1618.289 621.429 27.000
v 1614.135 594.739 27.000
v 1177.911 651.701 27.000
v 665.779 693.203 27.000
v 149.777 709.838 27.000
v -370.095 701.605 27.000
v -893.837 668.505 27.000
v -1587.149 590.994 -0.000
v -1587.786 618.513 -0.000
v -894.010 694.736 -0.000
v -368.478 727.949 -0.000
v 153.243 736.211 -0.000
v 671.136 719.515 -0.000
v 1185.185 677.858 0.000
v 1623.332 620.644 0.000
v 1619.178 593.954 0.000
v 1182.954 650.916 0.000
v 670.822 692.418 -0.000
v 154.821 709.053 -0.000
v -365.052 700.820 -0.000
v -888.794 667.720 -0.000
v -1631.105 937.808 27.000
v -909.628 858.776 27.000
v -385.875 825.844 27.000
v 134.000 817.779 27.000
v 649.997 834.579 27.000
v 1162.115 876.246 27.000
v 1574.994 930.295 27.000
v 1579.245 903.035 27.000
v 1141.117 845.681 27.000
v 627.081 803.858 27.000
v 109.193 786.996 27.000
v -412.530 795.090 27.000
v -938.073 828.134 27.000
v -1631.874 904.134 27.000
v -1613.050 934.491 -0.000
v -914.671 857.989 -0.000
v -390.918 825.058 -0.000
v 128.957 816.992 -0.000
v 644.954 833.793 0.000
v 1157.072 875.459 0.000
v 1593.278 932.562 0.000
v 1597.441 905.873 0.000
v 1159.312 848.518 0.000
v 645.276 806.696 0.000
v 127.388 789.834 -0.000
v -394.335 797.928 -0.000
v -919.878 830.972 -0.000
v -1613.679 906.972 -0.000
v -1317.411 987.808 27.000
v -1316.312 1015.175 27.000
v -735.499 1090.340 27.000
v -296.988 1122.888 27.000
v 136.880 1130.625 27.000
v 566.093 1113.546 27.000
v 990.635 1071.647 27.000
v 1351.206 1014.347 27.000
v 1346.176 987.808 27.000
v 987.187 1044.856 27.000
v 564.229 1086.599 27.000
v 136.584 1103.616 27.000
v -295.747 1095.906 27.000
v -732.765 1063.469 27.000
v -1317.411 987.808 -0.000
v -1316.312 1015.175 -0.000
v -735.499 1090.340 -0.000
v -296.988 1122.888 -0.000
v 136.880 1130.625 -0.000
v 566.093 1113.546 -0.000
v 990.635 1071.647 -0.000
v 1351.206 1014.347 -0.000
v 1346.176 987.808 -0.000
v 987.187 1044.856 -0.000
v 564.229 1086.599 -0.000
v 136.584 1103.616 -0.000
v -295.747 1095.906 -0.000
v -732.765 1063.469 -0.000
f 1 14 13
f 13 12 11
f 11 10 9
f 9 8 7
f 2 1 13
f 9 7 6
f 3 2 13
f 11 9 6
f 4 3 13
f 11 6 5
f 4 13 11
f 11 5 4
f 27 28 15
f 25 26 27
f 23 24 25
f 21 22 23
f 27 15 16
f 20 21 23
f 27 16 17
f 20 23 25
f 27 17 18
f 19 20 25
f 25 27 18
f 18 19 25
f 30 29 42
f 32 31 30
f 34 33 32
f 36 35 34
f 38 37 36
f 30 42 41
f 38 36 34
f 32 30 41
f 39 38 34
f 32 41 40
f 39 34 32
f 32 40 39
f 56 43 44
f 44 45 46
f 46 47 48
f 48 49 50
f 50 51 52
f 56 44 46
f 48 50 52
f 55 56 46
f 48 52 53
f 54 55 46
f 46 48 53
f 53 54 46
f 57 70 69
f 69 68 67
f 67 66 65
f 65 64 63
f 58 57 69
f 65 63 62
f 59 58 69
f 67 65 62
f 60 59 69
f 67 62 61
f 60 69 67
f 67 61 60
f 83 84 71
f 81 82 83
f 79 80 81
f 77 78 79
f 83 71 72
f 76 77 79
f 83 72 73
f 76 79 81
f 83 73 74
f 75 76 81
f 81 83 74
f 74 75 81
f 86 85 98
f 88 87 86
f 90 89 88
f 92 91 90
f 94 93 92
f 88 86 98
f 94 92 90
f 88 98 97
f 95 94 90
f 88 97 96
f 95 90 88
f 88 96 95
f 112 99 100
f 100 101 102
f 102 103 104
f 104 105 106
f 106 107 108
f 112 100 102
f 104 106 108
f 111 112 102
f 104 108 109
f 110 111 102
f 102 104 109
f 109 110 102
f 113 126 125
f 125 124 123
f 123 122 121
f 121 120 119
f 114 113 125
f 121 119 118
f 115 114 125
f 123 121 118
f 116 115 125
f 123 118 117
f 116 125 123
f 123 117 116
f 139 140 127
f 137 138 139
f 135 136 137
f 133 134 135
f 139 127 128
f 132 133 135
f 139 128 129
f 132 135 137
f 139 129 130
f 131 132 137
f 137 139 130
f 130 131 137
f 142 141 154
f 144 143 142
f 146 145 144
f 148 147 146
f 150 149 148
f 144 142 154
f 150 148 146
f 144 154 153
f 151 150 146
f 144 153 152
f 151 146 144
f 144 152 151
f 168 155 156
f 156 157 158
f 158 159 160
f 160 161 162
f 162 163 164
f 168 156 158
f 160 162 164
f 167 168 158
f 160 164 165
f 166 167 158
f 158 160 165
f 165 166 158
f 15 1 2
f 2 16 15
f 16 2 3
f 3 17 16
f 17 3 4
f 4 18 17
f 18 4 5
f 5 19 18
f 19 5 6
f 6 20 19
f 20 6 7
f 7 21 20
f 21 7 8
f 8 22 21
f 22 8 9
f 9 23 22
f 23 9 10
f 10 24 23
f 24 10 11
f 11 25 24
f 25 11 12
f 12 26 25
f 26 12 13
f 13 27 26
f 27 13 14
f 14 28 27
f 28 14 1
f 1 15 28
f 43 29 30
f 30 44 43
f 44 30 31
f 31 45 44
f 45 31 32
f 32 46 45
f 46 32 33
f 33 47 46
f 47 33 34
f 34 48 47
f 48 34 35
f 35 49 48
f 49 35 36
f 36 50 49
f 50 36 37
f 37 51 50
f 51 37 38
f 38 52 51
f 52 38 39
f 39 53 52
f 53 39 40
f 40 54 53
f 54 40 41
f 41 55 54
f 55 41 42
f 42 56 55
f 56 42 29
f 29 43 56
f 71 57 58
f 58 72 71
f 72 58 59
f 59 73 72
f 73 59 60
f 60 74 73
f 74 60 61
f 61 75 74
f 75 61 62
f 62 76 75
f 76 62 63
f 63 77 76
f 77 63 64
f 64 78 77
f 78 64 65
f 65 79 78
f 79 65 66
f 66 80 79
f 80 66 67
f 67 81 80
f 81 67 68
f 68 82 81
f 82 68 69
f 69 83 82
f 83 69 70
f 70 84 83
f 84 70 57
f 57 71 84
f 99 85 86
f 86 100 99
f 100 86 87
f 87 101 100
f 101 87 88
f 88 102 101
f 102 88 89
f 89 103 102
f 103 89 90
f 90 104 103
f 104 90 91
f 91 105 104
f 105 91 92
f 92 106 105
f 106 92 93
f 93 107 106
f 107 93 94
f 94 108 107
f 108 94 95
f 95 109 108
f 109 95 96
f 96 110 109
f 110 96 97
f 97 111 110
f 111 97 98
f 98 112 111
f 112 98 85
f 85 99 112
f 127 113 114
f 114 128 127
f 128 114 115
f 115 129 128
f 129 115 116
f 116 130 129
f 130 116 117
f 117 131 130
f 131 117 118
f 118 132 131
f 132 118 119
f 119 133 132
f 133 119 120
f 120 134 133
f 134 120 121
f 121 135 134
f 135 121 122
f 122 136 135
f 136 122 123
f 123 137 136
f 137 123 124
f 124 138 137
f 138 124 125
f 125 139 138
f 139 125 126
f 126 140 139
f 140 126 113
f 113 127 140
f 155 141 142
f 142 156 155
f 156 142 143
f 143 157 156
f 157 143 144
f 144 158 157
f 158 144 145
f 145 159 158
f 159 145 146
f 146 160 159
f 160 146 147
f 147 161 160
f 161 147 148
f 148 162 161
f 162 148 149
f 149 163 162
f 163 149 150
f 150 164 163
f 164 150 151
f 151 165 164
f 165 151 152
f 152 166 165
f 166 152 153
f 153 167 166
f 167 153 154
f 154 168 167
f 168 154 141
f 141 155 168
