# OBJ
# COMPAS
# version: 2.15.1
# precision: 3
# V F E: 24 36 54

o wedges_inner_beams_0_preview
v 496.044 535.533 240.000
v 550.544 470.600 240.000
v 12.858 103.876 240.000
v 0.000 119.196 240.000
v 464.709 509.233 0.000
v 620.674 323.409 0.000
v 146.494 -0.000 0.000
v 27.253 142.070 0.000
v 350.928 1206.455 300.000
v 403.268 1173.219 300.000
v 36.545 635.533 300.000
v 20.256 645.877 300.000
v 289.443 1212.085 0.000
v 434.513 1119.966 0.000
v 113.514 649.320 0.000
v 0.000 721.401 0.000
v 470.600 1862.629 240.000
v 535.533 1808.129 240.000
v 119.196 1312.085 240.000
v 103.876 1324.943 240.000
v 323.409 1932.759 0.000
v 509.233 1776.794 0.000
v 142.070 1339.338 0.000
v 0.000 1458.579 0.000
f 1 4 3
f 3 2 1
f 8 5 6
f 6 7 8
f 9 12 11
f 11 10 9
f 16 13 14
f 14 15 16
f 17 20 19
f 19 18 17
f 24 21 22
f 22 23 24
f 5 1 2
f 2 6 5
f 6 2 3
f 3 7 6
f 7 3 4
f 4 8 7
f 8 4 1
f 1 5 8
f 13 9 10
f 10 14 13
f 14 10 11
f 11 15 14
f 15 11 12
f 12 16 15
f 16 12 9
f 9 13 16
f 21 17 18
f 18 22 21
f 22 18 19
f 19 23 22
f 23 19 20
f 20 24 23
f 24 20 17
f 17 21 24
