# Rhino

mtllib OuterRibConnector_Result.mtl
usemtl Default
v -200 -2960 2797.0551181103929
v 0 -2960 2803
v 0 -2960.0000000000005 2861.5000000029886
v -400 -2935 2791.1102362207866
v -400 -2935.0000000000005 2861.5000000055174
v -400 -2965 2791.1102362207866
v -400 -2965.0000000000005 2861.5000000055174
v -200 -2940 2797.0551181103929
v -200 -2940.0000000000005 2861.5000000032187
v -200 -2935.0000000000005 2861.5000000055174
v -200 -2935 2797.0551181103938
v -200 -2960.0000000000005 2861.5000000032187
v -200 -2965.0000000000005 2861.5000000055174
v -200 -2965 2797.0551181103938
v 200 -2960 2797.0551181103929
v 0 -2940 2803
v 0 -2940.0000000000005 2861.5000000029886
v 400 -2935 2791.1102362207866
v 400 -2935.0000000000005 2861.5000000055174
v 400 -2965 2791.1102362207866
v 400 -2965.0000000000005 2861.5000000055174
v 200 -2940 2797.0551181103929
v 200 -2940.0000000000005 2861.5000000032187
v 200 -2935.0000000000005 2861.5000000055174
v 200 -2935 2797.0551181103938
v 200 -2960.0000000000005 2861.5000000032187
v 200 -2965.0000000000005 2861.5000000055174
v 200 -2965 2797.0551181103938
f 4 8 1 6
f 8 4 11
f 1 14 6
f 2 1 8 16
f 9 17 16 8
f 3 12 1 2
f 17 9 12 3
f 5 10 11 4
f 6 7 5 4
f 6 14 13 7
f 9 5 7 12
f 9 10 5
f 13 12 7
f 8 11 10 9
f 1 12 13 14
f 18 20 15 22
f 22 25 18
f 15 20 28
f 2 16 22 15
f 23 22 16 17
f 3 2 15 26
f 17 3 26 23
f 19 18 25 24
f 20 18 19 21
f 20 21 27 28
f 23 26 21 19
f 23 19 24
f 27 21 26
f 22 23 24 25
f 15 28 27 26
usemtl Default
v -2960 200 2797.0551181103929
v -2960 0 2803
v -2960.0000000000005 0 2861.5000000029886
v -2935 400 2791.1102362207866
v -2935.0000000000005 400 2861.5000000055174
v -2965 400 2791.1102362207866
v -2965.0000000000005 400 2861.5000000055174
v -2940 200 2797.0551181103929
v -2940.0000000000005 200 2861.5000000032187
v -2935.0000000000005 200 2861.5000000055174
v -2935 200 2797.0551181103938
v -2960.0000000000005 200 2861.5000000032187
v -2965.0000000000005 200 2861.5000000055174
v -2965 200 2797.0551181103938
v -2960 -200 2797.0551181103929
v -2940 0 2803
v -2940.0000000000005 0 2861.5000000029886
v -2935 -400 2791.1102362207866
v -2935.0000000000005 -400 2861.5000000055174
v -2965 -400 2791.1102362207866
v -2965.0000000000005 -400 2861.5000000055174
v -2940 -200 2797.0551181103929
v -2940.0000000000005 -200 2861.5000000032187
v -2935.0000000000005 -200 2861.5000000055174
v -2935 -200 2797.0551181103938
v -2960.0000000000005 -200 2861.5000000032187
v -2965.0000000000005 -200 2861.5000000055174
v -2965 -200 2797.0551181103938
f 32 36 29 34
f 36 32 39
f 29 42 34
f 30 29 36 44
f 37 45 44 36
f 31 40 29 30
f 45 37 40 31
f 33 38 39 32
f 34 35 33 32
f 34 42 41 35
f 37 33 35 40
f 37 38 33
f 41 40 35
f 36 39 38 37
f 29 40 41 42
f 46 48 43 50
f 50 53 46
f 43 48 56
f 30 44 50 43
f 51 50 44 45
f 31 30 43 54
f 45 31 54 51
f 47 46 53 52
f 48 46 47 49
f 48 49 55 56
f 51 54 49 47
f 51 47 52
f 55 49 54
f 50 51 52 53
f 43 56 55 54
usemtl Default
v 200 2960 2797.0551181103929
v 0 2960 2803
v 0 2960.0000000000005 2861.5000000029886
v 400 2935 2791.1102362207866
v 400 2935.0000000000005 2861.5000000055174
v 400 2965 2791.1102362207866
v 400 2965.0000000000005 2861.5000000055174
v 200 2940 2797.0551181103929
v 200 2940.0000000000005 2861.5000000032187
v 200 2935.0000000000005 2861.5000000055174
v 200 2935 2797.0551181103938
v 200 2960.0000000000005 2861.5000000032187
v 200 2965.0000000000005 2861.5000000055174
v 200 2965 2797.0551181103938
v -200 2960 2797.0551181103929
v 0 2940 2803
v 0 2940.0000000000005 2861.5000000029886
v -400 2935 2791.1102362207866
v -400 2935.0000000000005 2861.5000000055174
v -400 2965 2791.1102362207866
v -400 2965.0000000000005 2861.5000000055174
v -200 2940 2797.0551181103929
v -200 2940.0000000000005 2861.5000000032187
v -200 2935.0000000000005 2861.5000000055174
v -200 2935 2797.0551181103938
v -200 2960.0000000000005 2861.5000000032187
v -200 2965.0000000000005 2861.5000000055174
v -200 2965 2797.0551181103938
f 60 64 57 62
f 64 60 67
f 57 70 62
f 58 57 64 72
f 65 73 72 64
f 59 68 57 58
f 73 65 68 59
f 61 66 67 60
f 62 63 61 60
f 62 70 69 63
f 65 61 63 68
f 65 66 61
f 69 68 63
f 64 67 66 65
f 57 68 69 70
f 74 76 71 78
f 78 81 74
f 71 76 84
f 58 72 78 71
f 79 78 72 73
f 59 58 71 82
f 73 59 82 79
f 75 74 81 80
f 76 74 75 77
f 76 77 83 84
f 79 82 77 75
f 79 75 80
f 83 77 82
f 78 79 80 81
f 71 84 83 82
usemtl Default
v 2960 -200 2797.0551181103929
v 2960 0 2803
v 2960.0000000000005 0 2861.5000000029886
v 2935 -400 2791.1102362207866
v 2935.0000000000005 -400 2861.5000000055174
v 2965 -400 2791.1102362207866
v 2965.0000000000005 -400 2861.5000000055174
v 2940 -200 2797.0551181103929
v 2940.0000000000005 -200 2861.5000000032187
v 2935.0000000000005 -200 2861.5000000055174
v 2935 -200 2797.0551181103938
v 2960.0000000000005 -200 2861.5000000032187
v 2965.0000000000005 -200 2861.5000000055174
v 2965 -200 2797.0551181103938
v 2960 200 2797.0551181103929
v 2940 0 2803
v 2940.0000000000005 0 2861.5000000029886
v 2935 400 2791.1102362207866
v 2935.0000000000005 400 2861.5000000055174
v 2965 400 2791.1102362207866
v 2965.0000000000005 400 2861.5000000055174
v 2940 200 2797.0551181103929
v 2940.0000000000005 200 2861.5000000032187
v 2935.0000000000005 200 2861.5000000055174
v 2935 200 2797.0551181103938
v 2960.0000000000005 200 2861.5000000032187
v 2965.0000000000005 200 2861.5000000055174
v 2965 200 2797.0551181103938
f 88 92 85 90
f 92 88 95
f 85 98 90
f 86 85 92 100
f 93 101 100 92
f 87 96 85 86
f 101 93 96 87
f 89 94 95 88
f 90 91 89 88
f 90 98 97 91
f 93 89 91 96
f 93 94 89
f 97 96 91
f 92 95 94 93
f 85 96 97 98
f 102 104 99 106
f 106 109 102
f 99 104 112
f 86 100 106 99
f 107 106 100 101
f 87 86 99 110
f 101 87 110 107
f 103 102 109 108
f 104 102 103 105
f 104 105 111 112
f 107 110 105 103
f 107 103 108
f 111 105 110
f 106 107 108 109
f 99 112 111 110
