# Rhino

mtllib OuterRibConnector_cut1.mtl
usemtl Default
v 138.4999999919537 200 15.000000000000455
v 218.4999999919537 200 15.000000000000455
v 218.4999999919537 400 15.000000000000455
v 138.4999999919537 200 -14.999999999999922
v 151.83333332528684 200 10.000000000000455
v 214.86363635570666 200 10.000000000000455
v 138.49999999466598 200 10.000000000000455
v 205.16666665862078 200 -10
v 142.13636363076512 200 -9.9999999999999964
v 138.49999999451802 -10.000000000000028 10.000000000000455
v 218.4999999919537 -10.000000000000028 -10
v 138.4999999919537 400 15.000000000000455
v 138.4999999919537 400 -14.999999999999922
v 138.4999999954797 200 -10.000000000000002
v 138.49999999451802 -10.000000000000028 -10
v 218.4999999919537 200 -14.999999999999922
v 218.4999999919537 400 -14.999999999999922
v 218.4999999919537 200 10.000000000000455
v 218.4999999919537 -10.000000000000028 10.000000000000455
v 218.4999999919537 200 -10
f 12 1 2 3
f 4 13 17 16
f 3 17 13 12
f 2 5 6
f 2 1 5
f 6 18 2
f 8 16 20
f 5 1 7
f 4 8 9
f 9 14 4
f 16 8 4
f 19 10 15 11
f 5 7 10
f 6 5 10
f 6 10 19
f 19 18 6
f 11 15 9
f 14 9 15
f 20 11 8
f 9 8 11
f 14 13 4
f 7 12 14
f 13 14 12
f 10 7 15
f 14 15 7
f 12 7 1
f 20 16 17
f 20 17 18
f 3 18 17
f 19 11 18
f 20 18 11
f 3 2 18
