# Rhino

mtllib OuterRibConnector.mtl
usemtl Default
v 202.94488188707828 -200 10
v 196.99999999747115 0 10
v 138.49999999448255 0 10.000000000000455
v 208.8897637766845 -400 -20
v 138.4999999919537 -400 -19.999999999999545
v 208.8897637766845 -400 20
v 138.4999999919537 -400 20.000000000000455
v 202.94488188707828 -200 -10
v 138.49999999425245 -200 -9.9999999999995453
v 138.4999999919537 -200 -19.999999999999545
v 202.94488188707737 -200 -20
v 138.49999999425245 -200 10.000000000000455
v 138.4999999919537 -200 20.000000000000455
v 202.94488188707737 -200 20
v 202.94488188707828 200 10
v 196.99999999747115 0 -10
v 138.49999999448255 0 -9.9999999999995453
v 208.8897637766845 400 -20
v 138.4999999919537 400 -19.999999999999545
v 208.8897637766845 400 20
v 138.4999999919537 400 20.000000000000455
v 202.94488188707828 200 -10
v 138.49999999425245 200 -9.9999999999995453
v 138.4999999919537 200 -19.999999999999545
v 202.94488188707737 200 -20
v 138.49999999425245 200 10.000000000000455
v 138.4999999919537 200 20.000000000000455
v 202.94488188707737 200 20
vn 0.89689630270004272 0.32575714588165283 0.29909747838973999
vn 0.70695066452026367 0 0.70726287364959717
vn -0.70710676908493042 0 0.70710676908493042
vn 0.82434099912643433 -0.38784950971603394 -0.41235256195068359
vn -0.81649661064147949 -0.40824830532073975 -0.40824830532073975
vn 0.82434099912643433 -0.38784950971603394 0.41235256195068359
vn -0.81649661064147949 -0.40824830532073975 0.40824830532073975
vn 0.89689630270004272 0.32575714588165283 -0.29909747838973999
vn -0.90453404188156128 0.30151134729385376 -0.30151134729385376
vn -0.57735025882720947 0.57735025882720947 -0.57735025882720947
vn 0.57146352529525757 0.58870232105255127 -0.57171589136123657
vn -0.90453404188156128 0.30151134729385376 0.30151134729385376
vn -0.57735025882720947 0.57735025882720947 0.57735025882720947
vn 0.57146352529525757 0.58870232105255127 0.57171589136123657
vn 0.89689630270004272 -0.32575714588165283 0.29909747838973999
vn 0.70695066452026367 0 -0.70726287364959717
vn -0.70710676908493042 0 -0.70710676908493042
vn 0.82434099912643433 0.38784950971603394 -0.41235256195068359
vn -0.81649661064147949 0.40824830532073975 -0.40824830532073975
vn 0.82434099912643433 0.38784950971603394 0.41235256195068359
vn -0.81649661064147949 0.40824830532073975 0.40824830532073975
vn 0.89689630270004272 -0.32575714588165283 -0.29909747838973999
vn -0.90453404188156128 -0.30151134729385376 -0.30151134729385376
vn -0.57735025882720947 -0.57735025882720947 -0.57735025882720947
vn 0.57146352529525757 -0.58870232105255127 -0.57171589136123657
vn -0.90453404188156128 -0.30151134729385376 0.30151134729385376
vn -0.57735025882720947 -0.57735025882720947 0.57735025882720947
vn 0.57146352529525757 -0.58870232105255127 0.57171589136123657
f 4//4 8//8 1//1 6//6
f 8//8 4//4 11//11
f 1//1 14//14 6//6
f 2//2 1//1 8//8 16//16
f 9//9 17//17 16//16 8//8
f 3//3 12//12 1//1 2//2
f 17//17 9//9 12//12 3//3
f 5//5 10//10 11//11 4//4
f 6//6 7//7 5//5 4//4
f 6//6 14//14 13//13 7//7
f 9//9 5//5 7//7 12//12
f 9//9 10//10 5//5
f 13//13 12//12 7//7
f 8//8 11//11 10//10 9//9
f 1//1 12//12 13//13 14//14
f 18//18 20//20 15//15 22//22
f 22//22 25//25 18//18
f 15//15 20//20 28//28
f 2//2 16//16 22//22 15//15
f 23//23 22//22 16//16 17//17
f 3//3 2//2 15//15 26//26
f 17//17 3//3 26//26 23//23
f 19//19 18//18 25//25 24//24
f 20//20 18//18 19//19 21//21
f 20//20 21//21 27//27 28//28
f 23//23 26//26 21//21 19//19
f 23//23 19//19 24//24
f 27//27 21//21 26//26
f 22//22 23//23 24//24 25//25
f 15//15 28//28 27//27 26//26
