# Rhino

mtllib OuterRibConnector_cut0.mtl
usemtl Default
v 138.4999999919537 -200 15.000000000000455
v 218.4999999919537 -200 15.000000000000455
v 218.4999999919537 -400 15.000000000000455
v 138.4999999919537 -200 -14.999999999999922
v 151.83333332528684 -200 10.000000000000455
v 214.86363635570666 -200 10.000000000000455
v 138.49999999466598 -200 10.000000000000455
v 205.16666665862078 -200 -10
v 142.13636363076512 -200 -9.9999999999999964
v 138.49999999451802 10.000000000000028 10.000000000000455
v 218.4999999919537 10.000000000000028 -10
v 138.4999999919537 -400 15.000000000000455
v 138.4999999919537 -400 -14.999999999999922
v 138.4999999954797 -200 -10.000000000000002
v 138.49999999451802 10.000000000000028 -10
v 218.4999999919537 -200 -14.999999999999922
v 218.4999999919537 -400 -14.999999999999922
v 218.4999999919537 -200 10.000000000000455
v 218.4999999919537 10.000000000000028 10.000000000000455
v 218.4999999919537 -200 -10
f 12 3 2 1
f 4 16 17 13
f 3 12 13 17
f 2 6 5
f 2 5 1
f 6 2 18
f 8 20 16
f 5 7 1
f 4 9 8
f 9 4 14
f 16 4 8
f 19 11 15 10
f 5 10 7
f 6 10 5
f 6 19 10
f 19 6 18
f 11 9 15
f 14 15 9
f 20 8 11
f 9 11 8
f 14 4 13
f 7 14 12
f 13 12 14
f 10 15 7
f 14 7 15
f 12 1 7
f 20 17 16
f 20 18 17
f 3 17 18
f 19 18 11
f 20 11 18
f 3 18 2
