# Rhino

mtllib floor_tower_0.mtl
usemtl Default
v 787.68896484375 710.14227294921875 1746.4559326171875
v 772.929931640625 710.14227294921875 1759.9549560546875
v -787.81219482421875 710.14227294921875 53.543575286865234
v -773.05322265625 710.14227294921875 40.044502258300781
v 772.929931640625 710.14227294921875 1759.9549560546875
v 772.929931640625 730.14239501953125 1759.9549560546875
v -787.81219482421875 730.14239501953125 53.543575286865234
v -787.81219482421875 710.14227294921875 53.543575286865234
v 772.929931640625 730.14239501953125 1759.9549560546875
v 787.68896484375 730.14239501953125 1746.4559326171875
v -773.05322265625 730.14239501953125 40.044502258300781
v -787.81219482421875 730.14239501953125 53.543575286865234
v 787.68896484375 730.14239501953125 1746.4559326171875
v 787.68896484375 710.14227294921875 1746.4559326171875
v -773.05322265625 710.14227294921875 40.044502258300781
v -773.05322265625 730.14239501953125 40.044502258300781
v 787.68896484375 710.14227294921875 1746.4559326171875
v 787.68896484375 730.14239501953125 1746.4559326171875
v 772.929931640625 730.14239501953125 1759.9549560546875
v 772.929931640625 710.14227294921875 1759.9549560546875
v -773.05322265625 710.14227294921875 40.044502258300781
v -787.81219482421875 710.14227294921875 53.543575286865234
v -787.81219482421875 730.14239501953125 53.543575286865234
v -773.05322265625 730.14239501953125 40.044502258300781
v -773.05322265625 724.05096435546875 1759.9554443359375
v -787.812255859375 724.05096435546875 1746.456298828125
v 772.92987060546875 724.05096435546875 40.044918060302734
v 787.68896484375 724.05096435546875 53.544059753417969
v -787.812255859375 724.05096435546875 1746.456298828125
v -787.812255859375 750.05108642578125 1746.456298828125
v 772.92987060546875 750.05108642578125 40.044918060302734
v 772.92987060546875 724.05096435546875 40.044918060302734
v -787.812255859375 750.05108642578125 1746.456298828125
v -773.05322265625 750.05108642578125 1759.9554443359375
v 787.68896484375 750.05108642578125 53.544059753417969
v 772.92987060546875 750.05108642578125 40.044918060302734
v -773.05322265625 750.05108642578125 1759.9554443359375
v -773.05322265625 724.05096435546875 1759.9554443359375
v 787.68896484375 724.05096435546875 53.544059753417969
v 787.68896484375 750.05108642578125 53.544059753417969
v -773.05322265625 724.05096435546875 1759.9554443359375
v -773.05322265625 750.05108642578125 1759.9554443359375
v -787.812255859375 750.05108642578125 1746.456298828125
v -787.812255859375 724.05096435546875 1746.456298828125
v 787.68896484375 724.05096435546875 53.544059753417969
v 772.92987060546875 724.05096435546875 40.044918060302734
v 772.92987060546875 750.05108642578125 40.044918060302734
v 787.68896484375 750.05108642578125 53.544059753417969
v 787.68896484375 -749.76641845703125 1746.4559326171875
v 772.92987060546875 -749.76641845703125 1759.955078125
v -787.81231689453125 -749.76641845703125 53.543666839599609
v -773.05322265625 -749.76641845703125 40.044502258300781
v 772.92987060546875 -749.76641845703125 1759.955078125
v 772.92987060546875 -723.76629638671875 1759.955078125
v -787.81231689453125 -723.76629638671875 53.543666839599609
v -787.81231689453125 -749.76641845703125 53.543666839599609
v 772.92987060546875 -723.76629638671875 1759.955078125
v 787.68896484375 -723.76629638671875 1746.4559326171875
v -773.05322265625 -723.76629638671875 40.044502258300781
v -787.81231689453125 -723.76629638671875 53.543666839599609
v 787.68896484375 -723.76629638671875 1746.4559326171875
v 787.68896484375 -749.76641845703125 1746.4559326171875
v -773.05322265625 -749.76641845703125 40.044502258300781
v -773.05322265625 -723.76629638671875 40.044502258300781
v 787.68896484375 -749.76641845703125 1746.4559326171875
v 787.68896484375 -723.76629638671875 1746.4559326171875
v 772.92987060546875 -723.76629638671875 1759.955078125
v 772.92987060546875 -749.76641845703125 1759.955078125
v -773.05322265625 -749.76641845703125 40.044502258300781
v -787.81231689453125 -749.76641845703125 53.543666839599609
v -787.81231689453125 -723.76629638671875 53.543666839599609
v -773.05322265625 -723.76629638671875 40.044502258300781
v -773.05322265625 -729.85772705078125 1759.9554443359375
v -787.81219482421875 -729.85772705078125 1746.4564208984375
v 772.929931640625 -729.85772705078125 40.04498291015625
v 787.68896484375 -729.85772705078125 53.544059753417969
v -787.81219482421875 -729.85772705078125 1746.4564208984375
v -787.81219482421875 -709.85760498046875 1746.4564208984375
v 772.929931640625 -709.85760498046875 40.04498291015625
v 772.929931640625 -729.85772705078125 40.04498291015625
v -787.81219482421875 -709.85760498046875 1746.4564208984375
v -773.05322265625 -709.85760498046875 1759.9554443359375
v 787.68896484375 -709.85760498046875 53.544059753417969
v 772.929931640625 -709.85760498046875 40.04498291015625
v -773.05322265625 -709.85760498046875 1759.9554443359375
v -773.05322265625 -729.85772705078125 1759.9554443359375
v 787.68896484375 -729.85772705078125 53.544059753417969
v 787.68896484375 -709.85760498046875 53.544059753417969
v -773.05322265625 -729.85772705078125 1759.9554443359375
v -773.05322265625 -709.85760498046875 1759.9554443359375
v -787.81219482421875 -709.85760498046875 1746.4564208984375
v -787.81219482421875 -729.85772705078125 1746.4564208984375
v 787.68896484375 -729.85772705078125 53.544059753417969
v 772.929931640625 -729.85772705078125 40.04498291015625
v 772.929931640625 -709.85760498046875 40.04498291015625
v 787.68896484375 -709.85760498046875 53.544059753417969
v 734.93780517578125 -731.52728271484375 156.88337707519531
v 734.93780517578125 -752.599609375 178.23670959472656
v 734.93780517578125 731.8118896484375 1643.116455078125
v 734.93780517578125 752.88421630859375 1621.76318359375
v 734.93780517578125 -752.599609375 178.23670959472656
v 764.9384765625 -752.599609375 178.23670959472656
v 764.9384765625 731.8118896484375 1643.116455078125
v 734.93780517578125 731.8118896484375 1643.116455078125
v 764.9384765625 -752.599609375 178.23670959472656
v 764.9384765625 -731.52728271484375 156.88337707519531
v 764.9384765625 752.88421630859375 1621.76318359375
v 764.9384765625 731.8118896484375 1643.116455078125
v 764.9384765625 -731.52728271484375 156.88337707519531
v 734.93780517578125 -731.52728271484375 156.88337707519531
v 734.93780517578125 752.88421630859375 1621.76318359375
v 764.9384765625 752.88421630859375 1621.76318359375
v 734.93780517578125 -731.52728271484375 156.88337707519531
v 764.9384765625 -731.52728271484375 156.88337707519531
v 764.9384765625 -752.599609375 178.23670959472656
v 734.93780517578125 -752.599609375 178.23670959472656
v 734.93780517578125 752.88421630859375 1621.76318359375
v 734.93780517578125 731.8118896484375 1643.116455078125
v 764.9384765625 731.8118896484375 1643.116455078125
v 764.9384765625 752.88421630859375 1621.76318359375
v -765.06219482421875 752.88427734375 178.23687744140625
v -765.06219482421875 731.8118896484375 156.88351440429688
v -765.06219482421875 -752.5994873046875 1621.76318359375
v -765.06219482421875 -731.527099609375 1643.1165771484375
v -765.06219482421875 731.8118896484375 156.88351440429688
v -735.0615234375 731.8118896484375 156.88351440429688
v -735.0615234375 -752.5994873046875 1621.76318359375
v -765.06219482421875 -752.5994873046875 1621.76318359375
v -735.0615234375 731.8118896484375 156.88351440429688
v -735.0615234375 752.88427734375 178.23687744140625
v -735.0615234375 -731.527099609375 1643.1165771484375
v -735.0615234375 -752.5994873046875 1621.76318359375
v -735.0615234375 752.88427734375 178.23687744140625
v -765.06219482421875 752.88427734375 178.23687744140625
v -765.06219482421875 -731.527099609375 1643.1165771484375
v -735.0615234375 -731.527099609375 1643.1165771484375
v -765.06219482421875 752.88427734375 178.23687744140625
v -735.0615234375 752.88427734375 178.23687744140625
v -735.0615234375 731.8118896484375 156.88351440429688
v -765.06219482421875 731.8118896484375 156.88351440429688
v -765.06219482421875 -731.527099609375 1643.1165771484375
v -765.06219482421875 -752.5994873046875 1621.76318359375
v -735.0615234375 -752.5994873046875 1621.76318359375
v -735.0615234375 -731.527099609375 1643.1165771484375
v 729.93780517578125 -739.85772705078125 1670
v 769.9384765625 -739.85772705078125 1670
v 769.9384765625 740.14239501953125 1670
v 729.93780517578125 740.14239501953125 1670
v 769.9384765625 -739.85772705078125 1670
v 769.9384765625 -739.85772705078125 1630
v 769.9384765625 740.14239501953125 1630
v 769.9384765625 740.14239501953125 1670
v 769.9384765625 -739.85772705078125 1630
v 729.93780517578125 -739.85772705078125 1630
v 729.93780517578125 740.14239501953125 1630
v 769.9384765625 740.14239501953125 1630
v 729.93780517578125 -739.85772705078125 1630
v 729.93780517578125 -739.85772705078125 1670
v 729.93780517578125 740.14239501953125 1670
v 729.93780517578125 740.14239501953125 1630
v 729.93780517578125 -739.85772705078125 1670
v 729.93780517578125 -739.85772705078125 1630
v 769.9384765625 -739.85772705078125 1630
v 769.9384765625 -739.85772705078125 1670
v 729.93780517578125 740.14239501953125 1670
v 769.9384765625 740.14239501953125 1670
v 769.9384765625 740.14239501953125 1630
v 729.93780517578125 740.14239501953125 1630
v -770.06219482421875 -739.85772705078125 1670
v -730.0615234375 -739.85772705078125 1670
v -730.0615234375 740.14239501953125 1670
v -770.06219482421875 740.14239501953125 1670
v -730.0615234375 -739.85772705078125 1670
v -730.0615234375 -739.85772705078125 1630
v -730.0615234375 740.14239501953125 1630
v -730.0615234375 740.14239501953125 1670
v -730.0615234375 -739.85772705078125 1630
v -770.06219482421875 -739.85772705078125 1630
v -770.06219482421875 740.14239501953125 1630
v -730.0615234375 740.14239501953125 1630
v -770.06219482421875 -739.85772705078125 1630
v -770.06219482421875 -739.85772705078125 1670
v -770.06219482421875 740.14239501953125 1670
v -770.06219482421875 740.14239501953125 1630
v -770.06219482421875 -739.85772705078125 1670
v -770.06219482421875 -739.85772705078125 1630
v -730.0615234375 -739.85772705078125 1630
v -730.0615234375 -739.85772705078125 1670
v -770.06219482421875 740.14239501953125 1670
v -730.0615234375 740.14239501953125 1670
v -730.0615234375 740.14239501953125 1630
v -770.06219482421875 740.14239501953125 1630
v 729.93780517578125 -739.85772705078125 170
v 769.9384765625 -739.85772705078125 170
v 769.9384765625 740.14239501953125 170
v 729.93780517578125 740.14239501953125 170
v 769.9384765625 -739.85772705078125 170
v 769.9384765625 -739.85772705078125 130
v 769.9384765625 740.14239501953125 130
v 769.9384765625 740.14239501953125 170
v 769.9384765625 -739.85772705078125 130
v 729.93780517578125 -739.85772705078125 130
v 729.93780517578125 740.14239501953125 130
v 769.9384765625 740.14239501953125 130
v 729.93780517578125 -739.85772705078125 130
v 729.93780517578125 -739.85772705078125 170
v 729.93780517578125 740.14239501953125 170
v 729.93780517578125 740.14239501953125 130
v 729.93780517578125 -739.85772705078125 170
v 729.93780517578125 -739.85772705078125 130
v 769.9384765625 -739.85772705078125 130
v 769.9384765625 -739.85772705078125 170
v 729.93780517578125 740.14239501953125 170
v 769.9384765625 740.14239501953125 170
v 769.9384765625 740.14239501953125 130
v 729.93780517578125 740.14239501953125 130
v -770.06219482421875 -739.85772705078125 170
v -730.0615234375 -739.85772705078125 170
v -730.0615234375 740.14239501953125 170
v -770.06219482421875 740.14239501953125 170
v -730.0615234375 -739.85772705078125 170
v -730.0615234375 -739.85772705078125 130
v -730.0615234375 740.14239501953125 130
v -730.0615234375 740.14239501953125 170
v -730.0615234375 -739.85772705078125 130
v -770.06219482421875 -739.85772705078125 130
v -770.06219482421875 740.14239501953125 130
v -730.0615234375 740.14239501953125 130
v -770.06219482421875 -739.85772705078125 130
v -770.06219482421875 -739.85772705078125 170
v -770.06219482421875 740.14239501953125 170
v -770.06219482421875 740.14239501953125 130
v -770.06219482421875 -739.85772705078125 170
v -770.06219482421875 -739.85772705078125 130
v -730.0615234375 -739.85772705078125 130
v -730.0615234375 -739.85772705078125 170
v -770.06219482421875 740.14239501953125 170
v -730.0615234375 740.14239501953125 170
v -730.0615234375 740.14239501953125 130
v -770.06219482421875 740.14239501953125 130
v -780.06219482421875 730.14227294921875 0
v -720.0615234375 730.14227294921875 0
v -720.0615234375 730.14227294921875 1800
v -780.06219482421875 730.14227294921875 1800
v -720.0615234375 730.14227294921875 0
v -720.0615234375 790.14239501953125 0
v -720.0615234375 790.14239501953125 1800
v -720.0615234375 730.14227294921875 1800
v -720.0615234375 790.14239501953125 0
v -780.06219482421875 790.14239501953125 0
v -780.06219482421875 790.14239501953125 1800
v -720.0615234375 790.14239501953125 1800
v -780.06219482421875 790.14239501953125 0
v -780.06219482421875 730.14227294921875 0
v -780.06219482421875 730.14227294921875 1800
v -780.06219482421875 790.14239501953125 1800
v -780.06219482421875 730.14227294921875 0
v -780.06219482421875 790.14239501953125 0
v -720.0615234375 790.14239501953125 0
v -720.0615234375 730.14227294921875 0
v -780.06219482421875 730.14227294921875 1800
v -720.0615234375 730.14227294921875 1800
v -720.0615234375 790.14239501953125 1800
v -780.06219482421875 790.14239501953125 1800
v 719.93780517578125 730.14227294921875 0
v 779.9384765625 730.14227294921875 0
v 779.9384765625 730.14227294921875 1800
v 719.93780517578125 730.14227294921875 1800
v 779.9384765625 730.14227294921875 0
v 779.9384765625 790.14239501953125 0
v 779.9384765625 790.14239501953125 1800
v 779.9384765625 730.14227294921875 1800
v 779.9384765625 790.14239501953125 0
v 719.93780517578125 790.14239501953125 0
v 719.93780517578125 790.14239501953125 1800
v 779.9384765625 790.14239501953125 1800
v 719.93780517578125 790.14239501953125 0
v 719.93780517578125 730.14227294921875 0
v 719.93780517578125 730.14227294921875 1800
v 719.93780517578125 790.14239501953125 1800
v 719.93780517578125 730.14227294921875 0
v 719.93780517578125 790.14239501953125 0
v 779.9384765625 790.14239501953125 0
v 779.9384765625 730.14227294921875 0
v 719.93780517578125 730.14227294921875 1800
v 779.9384765625 730.14227294921875 1800
v 779.9384765625 790.14239501953125 1800
v 719.93780517578125 790.14239501953125 1800
v 719.93780517578125 -789.85772705078125 0
v 779.9384765625 -789.85772705078125 0
v 779.9384765625 -789.85772705078125 1800
v 719.93780517578125 -789.85772705078125 1800
v 779.9384765625 -789.85772705078125 0
v 779.9384765625 -729.85760498046875 0
v 779.9384765625 -729.85760498046875 1800
v 779.9384765625 -789.85772705078125 1800
v 779.9384765625 -729.85760498046875 0
v 719.93780517578125 -729.85760498046875 0
v 719.93780517578125 -729.85760498046875 1800
v 779.9384765625 -729.85760498046875 1800
v 719.93780517578125 -729.85760498046875 0
v 719.93780517578125 -789.85772705078125 0
v 719.93780517578125 -789.85772705078125 1800
v 719.93780517578125 -729.85760498046875 1800
v 719.93780517578125 -789.85772705078125 0
v 719.93780517578125 -729.85760498046875 0
v 779.9384765625 -729.85760498046875 0
v 779.9384765625 -789.85772705078125 0
v 719.93780517578125 -789.85772705078125 1800
v 779.9384765625 -789.85772705078125 1800
v 779.9384765625 -729.85760498046875 1800
v 719.93780517578125 -729.85760498046875 1800
v -780.06219482421875 -789.85772705078125 0
v -720.0615234375 -789.85772705078125 0
v -720.0615234375 -789.85772705078125 1800
v -780.06219482421875 -789.85772705078125 1800
v -720.0615234375 -789.85772705078125 0
v -720.0615234375 -729.85760498046875 0
v -720.0615234375 -729.85760498046875 1800
v -720.0615234375 -789.85772705078125 1800
v -720.0615234375 -729.85760498046875 0
v -780.06219482421875 -729.85760498046875 0
v -780.06219482421875 -729.85760498046875 1800
v -720.0615234375 -729.85760498046875 1800
v -780.06219482421875 -729.85760498046875 0
v -780.06219482421875 -789.85772705078125 0
v -780.06219482421875 -789.85772705078125 1800
v -780.06219482421875 -729.85760498046875 1800
v -780.06219482421875 -789.85772705078125 0
v -780.06219482421875 -729.85760498046875 0
v -720.0615234375 -729.85760498046875 0
v -720.0615234375 -789.85772705078125 0
v -780.06219482421875 -789.85772705078125 1800
v -720.0615234375 -789.85772705078125 1800
v -720.0615234375 -729.85760498046875 1800
v -780.06219482421875 -729.85760498046875 1800
v -780.06219482421875 -789.85772705078125 1800
v -720.0615234375 -789.85772705078125 1800
v -720.0615234375 -789.85772705078125 3000
v -780.06219482421875 -789.85772705078125 3000
v -720.0615234375 -789.85772705078125 1800
v -720.0615234375 -729.85760498046875 1800
v -720.0615234375 -729.85760498046875 3000
v -720.0615234375 -789.85772705078125 3000
v -720.0615234375 -729.85760498046875 1800
v -780.06219482421875 -729.85760498046875 1800
v -780.06219482421875 -729.85760498046875 3000
v -720.0615234375 -729.85760498046875 3000
v -780.06219482421875 -729.85760498046875 1800
v -780.06219482421875 -789.85772705078125 1800
v -780.06219482421875 -789.85772705078125 3000
v -780.06219482421875 -729.85760498046875 3000
v -780.06219482421875 -789.85772705078125 1800
v -780.06219482421875 -729.85760498046875 1800
v -720.0615234375 -729.85760498046875 1800
v -720.0615234375 -789.85772705078125 1800
v -780.06219482421875 -789.85772705078125 3000
v -720.0615234375 -789.85772705078125 3000
v -720.0615234375 -729.85760498046875 3000
v -780.06219482421875 -729.85760498046875 3000
v 719.93780517578125 -789.85772705078125 1800
v 779.9384765625 -789.85772705078125 1800
v 779.9384765625 -789.85772705078125 3000
v 719.93780517578125 -789.85772705078125 3000
v 779.9384765625 -789.85772705078125 1800
v 779.9384765625 -729.85760498046875 1800
v 779.9384765625 -729.85760498046875 3000
v 779.9384765625 -789.85772705078125 3000
v 779.9384765625 -729.85760498046875 1800
v 719.93780517578125 -729.85760498046875 1800
v 719.93780517578125 -729.85760498046875 3000
v 779.9384765625 -729.85760498046875 3000
v 719.93780517578125 -729.85760498046875 1800
v 719.93780517578125 -789.85772705078125 1800
v 719.93780517578125 -789.85772705078125 3000
v 719.93780517578125 -729.85760498046875 3000
v 719.93780517578125 -789.85772705078125 1800
v 719.93780517578125 -729.85760498046875 1800
v 779.9384765625 -729.85760498046875 1800
v 779.9384765625 -789.85772705078125 1800
v 719.93780517578125 -789.85772705078125 3000
v 779.9384765625 -789.85772705078125 3000
v 779.9384765625 -729.85760498046875 3000
v 719.93780517578125 -729.85760498046875 3000
v 719.93780517578125 730.14227294921875 1800
v 779.9384765625 730.14227294921875 1800
v 779.9384765625 730.14227294921875 3000
v 719.93780517578125 730.14227294921875 3000
v 779.9384765625 730.14227294921875 1800
v 779.9384765625 790.14239501953125 1800
v 779.9384765625 790.14239501953125 3000
v 779.9384765625 730.14227294921875 3000
v 779.9384765625 790.14239501953125 1800
v 719.93780517578125 790.14239501953125 1800
v 719.93780517578125 790.14239501953125 3000
v 779.9384765625 790.14239501953125 3000
v 719.93780517578125 790.14239501953125 1800
v 719.93780517578125 730.14227294921875 1800
v 719.93780517578125 730.14227294921875 3000
v 719.93780517578125 790.14239501953125 3000
v 719.93780517578125 730.14227294921875 1800
v 719.93780517578125 790.14239501953125 1800
v 779.9384765625 790.14239501953125 1800
v 779.9384765625 730.14227294921875 1800
v 719.93780517578125 730.14227294921875 3000
v 779.9384765625 730.14227294921875 3000
v 779.9384765625 790.14239501953125 3000
v 719.93780517578125 790.14239501953125 3000
v -780.06219482421875 730.14227294921875 1800
v -720.0615234375 730.14227294921875 1800
v -720.0615234375 730.14227294921875 3000
v -780.06219482421875 730.14227294921875 3000
v -720.0615234375 730.14227294921875 1800
v -720.0615234375 790.14239501953125 1800
v -720.0615234375 790.14239501953125 3000
v -720.0615234375 730.14227294921875 3000
v -720.0615234375 790.14239501953125 1800
v -780.06219482421875 790.14239501953125 1800
v -780.06219482421875 790.14239501953125 3000
v -720.0615234375 790.14239501953125 3000
v -780.06219482421875 790.14239501953125 1800
v -780.06219482421875 730.14227294921875 1800
v -780.06219482421875 730.14227294921875 3000
v -780.06219482421875 790.14239501953125 3000
v -780.06219482421875 730.14227294921875 1800
v -780.06219482421875 790.14239501953125 1800
v -720.0615234375 790.14239501953125 1800
v -720.0615234375 730.14227294921875 1800
v -780.06219482421875 730.14227294921875 3000
v -720.0615234375 730.14227294921875 3000
v -720.0615234375 790.14239501953125 3000
v -780.06219482421875 790.14239501953125 3000
v -770.06219482421875 -739.85772705078125 1970
v -730.0615234375 -739.85772705078125 1970
v -730.0615234375 740.14239501953125 1970
v -770.06219482421875 740.14239501953125 1970
v -730.0615234375 -739.85772705078125 1970
v -730.0615234375 -739.85772705078125 1930
v -730.0615234375 740.14239501953125 1930
v -730.0615234375 740.14239501953125 1970
v -730.0615234375 -739.85772705078125 1930
v -770.06219482421875 -739.85772705078125 1930
v -770.06219482421875 740.14239501953125 1930
v -730.0615234375 740.14239501953125 1930
v -770.06219482421875 -739.85772705078125 1930
v -770.06219482421875 -739.85772705078125 1970
v -770.06219482421875 740.14239501953125 1970
v -770.06219482421875 740.14239501953125 1930
v -770.06219482421875 -739.85772705078125 1970
v -770.06219482421875 -739.85772705078125 1930
v -730.0615234375 -739.85772705078125 1930
v -730.0615234375 -739.85772705078125 1970
v -770.06219482421875 740.14239501953125 1970
v -730.0615234375 740.14239501953125 1970
v -730.0615234375 740.14239501953125 1930
v -770.06219482421875 740.14239501953125 1930
v 729.93780517578125 -739.85772705078125 1970
v 769.9384765625 -739.85772705078125 1970
v 769.9384765625 740.14239501953125 1970
v 729.93780517578125 740.14239501953125 1970
v 769.9384765625 -739.85772705078125 1970
v 769.9384765625 -739.85772705078125 1930
v 769.9384765625 740.14239501953125 1930
v 769.9384765625 740.14239501953125 1970
v 769.9384765625 -739.85772705078125 1930
v 729.93780517578125 -739.85772705078125 1930
v 729.93780517578125 740.14239501953125 1930
v 769.9384765625 740.14239501953125 1930
v 729.93780517578125 -739.85772705078125 1930
v 729.93780517578125 -739.85772705078125 1970
v 729.93780517578125 740.14239501953125 1970
v 729.93780517578125 740.14239501953125 1930
v 729.93780517578125 -739.85772705078125 1970
v 729.93780517578125 -739.85772705078125 1930
v 769.9384765625 -739.85772705078125 1930
v 769.9384765625 -739.85772705078125 1970
v 729.93780517578125 740.14239501953125 1970
v 769.9384765625 740.14239501953125 1970
v 769.9384765625 740.14239501953125 1930
v 729.93780517578125 740.14239501953125 1930
v -770.06219482421875 -739.85772705078125 2830
v -770.06219482421875 -739.85772705078125 2870
v -770.06219482421875 740.14239501953125 2870
v -770.06219482421875 740.14239501953125 2830
v -770.06219482421875 -739.85772705078125 2870
v -730.0615234375 -739.85772705078125 2870
v -730.0615234375 740.14239501953125 2870
v -770.06219482421875 740.14239501953125 2870
v -730.0615234375 -739.85772705078125 2870
v -730.0615234375 -739.85772705078125 2830
v -730.0615234375 740.14239501953125 2830
v -730.0615234375 740.14239501953125 2870
v -730.0615234375 -739.85772705078125 2830
v -770.06219482421875 -739.85772705078125 2830
v -770.06219482421875 740.14239501953125 2830
v -730.0615234375 740.14239501953125 2830
v -770.06219482421875 -739.85772705078125 2830
v -730.0615234375 -739.85772705078125 2830
v -730.0615234375 -739.85772705078125 2870
v -770.06219482421875 -739.85772705078125 2870
v -770.06219482421875 740.14239501953125 2830
v -770.06219482421875 740.14239501953125 2870
v -730.0615234375 740.14239501953125 2870
v -730.0615234375 740.14239501953125 2830
v 729.93780517578125 -739.85772705078125 2830
v 729.93780517578125 -739.85772705078125 2870
v 729.93780517578125 740.14239501953125 2870
v 729.93780517578125 740.14239501953125 2830
v 729.93780517578125 -739.85772705078125 2870
v 769.9384765625 -739.85772705078125 2870
v 769.9384765625 740.14239501953125 2870
v 729.93780517578125 740.14239501953125 2870
v 769.9384765625 -739.85772705078125 2870
v 769.9384765625 -739.85772705078125 2830
v 769.9384765625 740.14239501953125 2830
v 769.9384765625 740.14239501953125 2870
v 769.9384765625 -739.85772705078125 2830
v 729.93780517578125 -739.85772705078125 2830
v 729.93780517578125 740.14239501953125 2830
v 769.9384765625 740.14239501953125 2830
v 729.93780517578125 -739.85772705078125 2830
v 769.9384765625 -739.85772705078125 2830
v 769.9384765625 -739.85772705078125 2870
v 729.93780517578125 -739.85772705078125 2870
v 729.93780517578125 740.14239501953125 2830
v 729.93780517578125 740.14239501953125 2870
v 769.9384765625 740.14239501953125 2870
v 769.9384765625 740.14239501953125 2830
v -765.06219482421875 746.2730712890625 1975.6444091796875
v -765.06219482421875 730.98822021484375 1949.830078125
v -765.06219482421875 -745.98834228515625 2824.355712890625
v -765.06219482421875 -730.7034912109375 2850.169921875
v -765.06219482421875 730.98822021484375 1949.830078125
v -735.0615234375 730.98822021484375 1949.830078125
v -735.0615234375 -745.98834228515625 2824.355712890625
v -765.06219482421875 -745.98834228515625 2824.355712890625
v -735.0615234375 730.98822021484375 1949.830078125
v -735.0615234375 746.2730712890625 1975.6444091796875
v -735.0615234375 -730.7034912109375 2850.169921875
v -735.0615234375 -745.98834228515625 2824.355712890625
v -735.0615234375 746.2730712890625 1975.6444091796875
v -765.06219482421875 746.2730712890625 1975.6444091796875
v -765.06219482421875 -730.7034912109375 2850.169921875
v -735.0615234375 -730.7034912109375 2850.169921875
v -765.06219482421875 746.2730712890625 1975.6444091796875
v -735.0615234375 746.2730712890625 1975.6444091796875
v -735.0615234375 730.98822021484375 1949.830078125
v -765.06219482421875 730.98822021484375 1949.830078125
v -765.06219482421875 -730.7034912109375 2850.169921875
v -765.06219482421875 -745.98834228515625 2824.355712890625
v -735.0615234375 -745.98834228515625 2824.355712890625
v -735.0615234375 -730.7034912109375 2850.169921875
v 734.93780517578125 -730.70355224609375 1949.8299560546875
v 734.93780517578125 -745.9884033203125 1975.6444091796875
v 734.93780517578125 730.98822021484375 2850.169921875
v 734.93780517578125 746.27301025390625 2824.355712890625
v 734.93780517578125 -745.9884033203125 1975.6444091796875
v 764.9384765625 -745.9884033203125 1975.6444091796875
v 764.9384765625 730.98822021484375 2850.169921875
v 734.93780517578125 730.98822021484375 2850.169921875
v 764.9384765625 -745.9884033203125 1975.6444091796875
v 764.9384765625 -730.70355224609375 1949.8299560546875
v 764.9384765625 746.27301025390625 2824.355712890625
v 764.9384765625 730.98822021484375 2850.169921875
v 764.9384765625 -730.70355224609375 1949.8299560546875
v 734.93780517578125 -730.70355224609375 1949.8299560546875
v 734.93780517578125 746.27301025390625 2824.355712890625
v 764.9384765625 746.27301025390625 2824.355712890625
v 734.93780517578125 -730.70355224609375 1949.8299560546875
v 764.9384765625 -730.70355224609375 1949.8299560546875
v 764.9384765625 -745.9884033203125 1975.6444091796875
v 734.93780517578125 -745.9884033203125 1975.6444091796875
v 734.93780517578125 746.27301025390625 2824.355712890625
v 734.93780517578125 730.98822021484375 2850.169921875
v 764.9384765625 730.98822021484375 2850.169921875
v 764.9384765625 746.27301025390625 2824.355712890625
v -781.3448486328125 -723.85760498046875 1846.1412353515625
v -792.74102783203125 -723.85760498046875 1862.577880859375
v 707.26007080078125 -723.85760498046875 2902.57861328125
v 718.65625 -723.85760498046875 2886.141845703125
v -792.74102783203125 -723.85760498046875 1862.577880859375
v -792.74102783203125 -749.85772705078125 1862.577880859375
v 707.26007080078125 -749.85772705078125 2902.57861328125
v 707.26007080078125 -723.85760498046875 2902.57861328125
v -792.74102783203125 -749.85772705078125 1862.577880859375
v -781.3448486328125 -749.85772705078125 1846.1412353515625
v 718.65625 -749.85772705078125 2886.141845703125
v 707.26007080078125 -749.85772705078125 2902.57861328125
v -781.3448486328125 -749.85772705078125 1846.1412353515625
v -781.3448486328125 -723.85760498046875 1846.1412353515625
v 718.65625 -723.85760498046875 2886.141845703125
v 718.65625 -749.85772705078125 2886.141845703125
v -781.3448486328125 -723.85760498046875 1846.1412353515625
v -781.3448486328125 -749.85772705078125 1846.1412353515625
v -792.74102783203125 -749.85772705078125 1862.577880859375
v -792.74102783203125 -723.85760498046875 1862.577880859375
v 718.65625 -723.85760498046875 2886.141845703125
v 707.26007080078125 -723.85760498046875 2902.57861328125
v 707.26007080078125 -749.85772705078125 2902.57861328125
v 718.65625 -749.85772705078125 2886.141845703125
v -718.7794189453125 750.14239501953125 2886.14208984375
v -707.38323974609375 750.14239501953125 2902.578857421875
v 792.61767578125 750.14239501953125 1862.578125
v 781.22149658203125 750.14239501953125 1846.141357421875
v -707.38323974609375 750.14239501953125 2902.578857421875
v -707.38323974609375 724.14227294921875 2902.578857421875
v 792.61767578125 724.14227294921875 1862.578125
v 792.61767578125 750.14239501953125 1862.578125
v -707.38323974609375 724.14227294921875 2902.578857421875
v -718.7794189453125 724.14227294921875 2886.14208984375
v 781.22149658203125 724.14227294921875 1846.141357421875
v 792.61767578125 724.14227294921875 1862.578125
v -718.7794189453125 724.14227294921875 2886.14208984375
v -718.7794189453125 750.14239501953125 2886.14208984375
v 781.22149658203125 750.14239501953125 1846.141357421875
v 781.22149658203125 724.14227294921875 1846.141357421875
v -718.7794189453125 750.14239501953125 2886.14208984375
v -718.7794189453125 724.14227294921875 2886.14208984375
v -707.38323974609375 724.14227294921875 2902.578857421875
v -707.38323974609375 750.14239501953125 2902.578857421875
v 781.22149658203125 750.14239501953125 1846.141357421875
v 792.61767578125 750.14239501953125 1862.578125
v 792.61767578125 724.14227294921875 1862.578125
v 781.22149658203125 724.14227294921875 1846.141357421875
v -792.740966796875 -709.85760498046875 2937.422119140625
v -781.34478759765625 -709.85760498046875 2953.85888671875
v 792.61767578125 -709.85760498046875 1862.578125
v 781.22149658203125 -709.85760498046875 1846.141357421875
v -781.34478759765625 -709.85760498046875 2953.85888671875
v -781.34478759765625 -729.85772705078125 2953.85888671875
v 792.61767578125 -729.85772705078125 1862.578125
v 792.61767578125 -709.85760498046875 1862.578125
v -781.34478759765625 -729.85772705078125 2953.85888671875
v -792.740966796875 -729.85772705078125 2937.422119140625
v 781.22149658203125 -729.85772705078125 1846.141357421875
v 792.61767578125 -729.85772705078125 1862.578125
v -792.740966796875 -729.85772705078125 2937.422119140625
v -792.740966796875 -709.85760498046875 2937.422119140625
v 781.22149658203125 -709.85760498046875 1846.141357421875
v 781.22149658203125 -729.85772705078125 1846.141357421875
v -792.740966796875 -709.85760498046875 2937.422119140625
v -792.740966796875 -729.85772705078125 2937.422119140625
v -781.34478759765625 -729.85772705078125 2953.85888671875
v -781.34478759765625 -709.85760498046875 2953.85888671875
v 781.22149658203125 -709.85760498046875 1846.141357421875
v 792.61767578125 -709.85760498046875 1862.578125
v 792.61767578125 -729.85772705078125 1862.578125
v 781.22149658203125 -729.85772705078125 1846.141357421875
v 781.22149658203125 730.14239501953125 2953.858642578125
v 792.61767578125 730.14239501953125 2937.421875
v -781.3448486328125 730.14239501953125 1846.1412353515625
v -792.74102783203125 730.14239501953125 1862.577880859375
v 792.61767578125 730.14239501953125 2937.421875
v 792.61767578125 710.14227294921875 2937.421875
v -781.3448486328125 710.14227294921875 1846.1412353515625
v -781.3448486328125 730.14239501953125 1846.1412353515625
v 792.61767578125 710.14227294921875 2937.421875
v 781.22149658203125 710.14227294921875 2953.858642578125
v -792.74102783203125 710.14227294921875 1862.577880859375
v -781.3448486328125 710.14227294921875 1846.1412353515625
v 781.22149658203125 710.14227294921875 2953.858642578125
v 781.22149658203125 730.14239501953125 2953.858642578125
v -792.74102783203125 730.14239501953125 1862.577880859375
v -792.74102783203125 710.14227294921875 1862.577880859375
v 781.22149658203125 730.14239501953125 2953.858642578125
v 781.22149658203125 710.14227294921875 2953.858642578125
v 792.61767578125 710.14227294921875 2937.421875
v 792.61767578125 730.14239501953125 2937.421875
v -792.74102783203125 730.14239501953125 1862.577880859375
v -781.3448486328125 730.14239501953125 1846.1412353515625
v -781.3448486328125 710.14227294921875 1846.1412353515625
v -792.74102783203125 710.14227294921875 1862.577880859375
v -747.16864013671875 -746.9573974609375 3303
v -747.16864013671875 -746.9573974609375 3040
v -747.16864013671875 747.24212646484375 3303
v -747.16864013671875 747.24212646484375 3040
v -747.16864013671875 747.24212646484375 3303
v -747.16864013671875 747.24212646484375 3040
v -707.16864013671875 747.24212646484375 3303
v -707.16864013671875 747.24212646484375 3040
v -707.16864013671875 747.24212646484375 3303
v -707.16864013671875 747.24212646484375 3040
v -707.16864013671875 -746.9573974609375 3303
v -707.16864013671875 -746.9573974609375 3040
v -707.16864013671875 -746.9573974609375 3303
v -707.16864013671875 -746.9573974609375 3040
v -747.16864013671875 -746.9573974609375 3303
v -747.16864013671875 -746.9573974609375 3040
v -747.16864013671875 -746.9573974609375 3303
v -707.16864013671875 -746.9573974609375 3303
v -747.16864013671875 747.24212646484375 3303
v -707.16864013671875 747.24212646484375 3303
v -747.16864013671875 -746.9573974609375 3040
v -707.16864013671875 -746.9573974609375 3040
v -747.16864013671875 747.24212646484375 3040
v -707.16864013671875 747.24212646484375 3040
v 747.0447998046875 -746.9573974609375 3303
v 747.0447998046875 -746.9573974609375 3040
v 707.0447998046875 -746.9573974609375 3303
v 707.0447998046875 -746.9573974609375 3040
v 707.0447998046875 -746.9573974609375 3303
v 707.0447998046875 -746.9573974609375 3040
v 707.0447998046875 747.24212646484375 3303
v 707.0447998046875 747.24212646484375 3040
v 707.0447998046875 747.24212646484375 3303
v 707.0447998046875 747.24212646484375 3040
v 747.0447998046875 747.24212646484375 3303
v 747.0447998046875 747.24212646484375 3040
v 747.0447998046875 747.24212646484375 3303
v 747.0447998046875 747.24212646484375 3040
v 747.0447998046875 -746.9573974609375 3303
v 747.0447998046875 -746.9573974609375 3040
v 747.0447998046875 747.24212646484375 3303
v 707.0447998046875 747.24212646484375 3303
v 747.0447998046875 -746.9573974609375 3303
v 707.0447998046875 -746.9573974609375 3303
v 747.0447998046875 747.24212646484375 3040
v 707.0447998046875 747.24212646484375 3040
v 747.0447998046875 -746.9573974609375 3040
v 707.0447998046875 -746.9573974609375 3040
v -707.16864013671875 -746.96435546875 3303
v -707.16864013671875 -746.96435546875 3040
v -707.16864013671875 -706.96435546875 3303
v -707.16864013671875 -706.96435546875 3040
v -707.16864013671875 -706.96435546875 3303
v -707.16864013671875 -706.96435546875 3040
v 707.0447998046875 -706.96435546875 3303
v 707.0447998046875 -706.96435546875 3040
v 707.0447998046875 -706.96435546875 3303
v 707.0447998046875 -706.96435546875 3040
v 707.0447998046875 -746.96435546875 3303
v 707.0447998046875 -746.96435546875 3040
v 707.0447998046875 -746.96435546875 3303
v 707.0447998046875 -746.96435546875 3040
v -707.16864013671875 -746.96435546875 3303
v -707.16864013671875 -746.96435546875 3040
v 707.0447998046875 -746.96435546875 3303
v 707.0447998046875 -706.96435546875 3303
v -707.16864013671875 -746.96435546875 3303
v -707.16864013671875 -706.96435546875 3303
v 707.0447998046875 -746.96435546875 3040
v 707.0447998046875 -706.96435546875 3040
v -707.16864013671875 -746.96435546875 3040
v -707.16864013671875 -706.96435546875 3040
v -707.16864013671875 747.24908447265625 3303
v -707.16864013671875 747.24908447265625 3040
v 707.0447998046875 747.24908447265625 3303
v 707.0447998046875 747.24908447265625 3040
v 707.0447998046875 747.24908447265625 3303
v 707.0447998046875 747.24908447265625 3040
v 707.0447998046875 707.24908447265625 3303
v 707.0447998046875 707.24908447265625 3040
v 707.0447998046875 707.24908447265625 3303
v 707.0447998046875 707.24908447265625 3040
v -707.16864013671875 707.24908447265625 3303
v -707.16864013671875 707.24908447265625 3040
v -707.16864013671875 707.24908447265625 3303
v -707.16864013671875 707.24908447265625 3040
v -707.16864013671875 747.24908447265625 3303
v -707.16864013671875 747.24908447265625 3040
v -707.16864013671875 747.24908447265625 3303
v -707.16864013671875 707.24908447265625 3303
v 707.0447998046875 747.24908447265625 3303
v 707.0447998046875 707.24908447265625 3303
v -707.16864013671875 747.24908447265625 3040
v -707.16864013671875 707.24908447265625 3040
v 707.0447998046875 747.24908447265625 3040
v 707.0447998046875 707.24908447265625 3040
v 627.0438232421875 -866.965087890625 3040
v 627.0438232421875 -866.965087890625 3000
v 627.0439453125 -626.9639892578125 3040
v 627.0439453125 -626.9639892578125 3000
v 627.0439453125 -626.9639892578125 3040
v 627.0439453125 -626.9639892578125 3000
v 867.046630859375 -626.964111328125 3040
v 867.046630859375 -626.964111328125 3000
v 867.046630859375 -626.964111328125 3040
v 867.046630859375 -626.964111328125 3000
v 867.0465087890625 -866.9652099609375 3040
v 867.0465087890625 -866.9652099609375 3000
v 867.0465087890625 -866.9652099609375 3040
v 867.0465087890625 -866.9652099609375 3000
v 627.0438232421875 -866.965087890625 3040
v 627.0438232421875 -866.965087890625 3000
v 867.046630859375 -626.964111328125 3040
v 867.0465087890625 -866.9652099609375 3040
v 627.0438232421875 -866.965087890625 3040
v 627.0439453125 -626.9639892578125 3040
v 867.046630859375 -626.964111328125 3000
v 867.0465087890625 -866.9652099609375 3000
v 627.0438232421875 -866.965087890625 3000
v 627.0439453125 -626.9639892578125 3000
v -627.16754150390625 -866.965087890625 3040
v -627.16754150390625 -866.965087890625 3000
v -627.16766357421875 -626.9639892578125 3040
v -627.16766357421875 -626.9639892578125 3000
v -627.16766357421875 -626.9639892578125 3040
v -627.16766357421875 -626.9639892578125 3000
v -867.17034912109375 -626.964111328125 3040
v -867.17034912109375 -626.964111328125 3000
v -867.17034912109375 -626.964111328125 3040
v -867.17034912109375 -626.964111328125 3000
v -867.17022705078125 -866.9652099609375 3040
v -867.17022705078125 -866.9652099609375 3000
v -867.17022705078125 -866.9652099609375 3040
v -867.17022705078125 -866.9652099609375 3000
v -627.16754150390625 -866.965087890625 3040
v -627.16754150390625 -866.965087890625 3000
v -867.17034912109375 -626.964111328125 3040
v -867.17022705078125 -866.9652099609375 3040
v -627.16754150390625 -866.965087890625 3040
v -627.16766357421875 -626.9639892578125 3040
v -867.17034912109375 -626.964111328125 3000
v -867.17022705078125 -866.9652099609375 3000
v -627.16754150390625 -866.965087890625 3000
v -627.16766357421875 -626.9639892578125 3000
v 627.0438232421875 867.249755859375 3040
v 627.0438232421875 867.249755859375 3000
v 627.0439453125 627.2486572265625 3040
v 627.0439453125 627.2486572265625 3000
v 627.0439453125 627.2486572265625 3040
v 627.0439453125 627.2486572265625 3000
v 867.046630859375 627.248779296875 3040
v 867.046630859375 627.248779296875 3000
v 867.046630859375 627.248779296875 3040
v 867.046630859375 627.248779296875 3000
v 867.0465087890625 867.2498779296875 3040
v 867.0465087890625 867.2498779296875 3000
v 867.0465087890625 867.2498779296875 3040
v 867.0465087890625 867.2498779296875 3000
v 627.0438232421875 867.249755859375 3040
v 627.0438232421875 867.249755859375 3000
v 867.046630859375 627.248779296875 3040
v 867.0465087890625 867.2498779296875 3040
v 627.0438232421875 867.249755859375 3040
v 627.0439453125 627.2486572265625 3040
v 867.046630859375 627.248779296875 3000
v 867.0465087890625 867.2498779296875 3000
v 627.0438232421875 867.249755859375 3000
v 627.0439453125 627.2486572265625 3000
v -627.16754150390625 867.249755859375 3040
v -627.16754150390625 867.249755859375 3000
v -627.16766357421875 627.2486572265625 3040
v -627.16766357421875 627.2486572265625 3000
v -627.16766357421875 627.2486572265625 3040
v -627.16766357421875 627.2486572265625 3000
v -867.17034912109375 627.248779296875 3040
v -867.17034912109375 627.248779296875 3000
v -867.17034912109375 627.248779296875 3040
v -867.17034912109375 627.248779296875 3000
v -867.17022705078125 867.2498779296875 3040
v -867.17022705078125 867.2498779296875 3000
v -867.17022705078125 867.2498779296875 3040
v -867.17022705078125 867.2498779296875 3000
v -627.16754150390625 867.249755859375 3040
v -627.16754150390625 867.249755859375 3000
v -867.17034912109375 627.248779296875 3040
v -867.17022705078125 867.2498779296875 3040
v -627.16754150390625 867.249755859375 3040
v -627.16766357421875 627.2486572265625 3040
v -867.17034912109375 627.248779296875 3000
v -867.17022705078125 867.2498779296875 3000
v -627.16754150390625 867.249755859375 3000
v -627.16766357421875 627.2486572265625 3000
v 787.044921875 640.14276123046875 3271.5
v 747.044921875 640.14276123046875 3342.36865234375
v 747.044921875 640.14276123046875 3271.5
v 787.044921875 640.14276123046875 3341.51513671875
v 747.04571533203125 -639.85723876953125 3342.36865234375
v 747.04571533203125 -639.85723876953125 3271.5
v 787.04571533203125 -639.85723876953125 3271.5
v 787.04571533203125 -639.85723876953125 3341.51513671875
v 787.044921875 640.14276123046875 3341.51513671875
v 747.044921875 640.14276123046875 3342.36865234375
v 747.04571533203125 -639.85723876953125 3342.36865234375
v 787.04571533203125 -639.85723876953125 3341.51513671875
v 787.0447998046875 787.24945068359375 3271.5
v 787.0447998046875 787.24945068359375 3040
v 747.0447998046875 787.24945068359375 3271.5
v 747.0447998046875 787.24945068359375 3040
v 747.045654296875 -786.96392822265625 3271.5
v 747.045654296875 -786.96392822265625 3040
v 787.045654296875 -786.96392822265625 3271.5
v 787.045654296875 -786.96392822265625 3040
v 787.045654296875 -786.96392822265625 3040
v 747.0447998046875 787.24945068359375 3040
v 787.0447998046875 787.24945068359375 3040
v 747.045654296875 -786.96392822265625 3040
v 747.045654296875 -786.96392822265625 3271.5
v 787.04571533203125 -639.85723876953125 3271.5
v 747.04571533203125 -639.85723876953125 3271.5
v 787.045654296875 -786.96392822265625 3271.5
v 787.044921875 640.14276123046875 3271.5
v 747.0447998046875 787.24945068359375 3271.5
v 747.044921875 640.14276123046875 3271.5
v 787.0447998046875 787.24945068359375 3271.5
v 747.0447998046875 787.24945068359375 3040
v 747.045654296875 -786.96392822265625 3040
v 747.044921875 640.14276123046875 3342.36865234375
v 747.04571533203125 -639.85723876953125 3342.36865234375
v 747.044921875 640.14276123046875 3271.5
v 747.04571533203125 -639.85723876953125 3271.5
v 747.0447998046875 787.24945068359375 3271.5
v 747.045654296875 -786.96392822265625 3271.5
v 787.045654296875 -786.96392822265625 3040
v 787.0447998046875 787.24945068359375 3040
v 787.04571533203125 -639.85723876953125 3341.51513671875
v 787.044921875 640.14276123046875 3341.51513671875
v 787.044921875 640.14276123046875 3271.5
v 787.04571533203125 -639.85723876953125 3271.5
v 787.0447998046875 787.24945068359375 3271.5
v 787.045654296875 -786.96392822265625 3271.5
v -640.0618896484375 -786.96405029296875 3271.5
v -640.0618896484375 -746.96405029296875 3342.36865234375
v -640.0618896484375 -746.96405029296875 3271.5
v -640.0618896484375 -786.96405029296875 3341.51513671875
v 639.9381103515625 -746.96484375 3342.36865234375
v 639.9381103515625 -746.96484375 3271.5
v 639.9381103515625 -786.96484375 3271.5
v 639.9381103515625 -786.96484375 3341.51513671875
v -640.0618896484375 -786.96405029296875 3341.51513671875
v -640.0618896484375 -746.96405029296875 3342.36865234375
v 639.9381103515625 -746.96484375 3342.36865234375
v 639.9381103515625 -786.96484375 3341.51513671875
v -747.16864013671875 -786.9639892578125 3271.5
v -747.16864013671875 -786.9639892578125 3040
v -747.16864013671875 -746.9639892578125 3271.5
v -747.16864013671875 -746.9639892578125 3040
v 747.0447998046875 -746.96478271484375 3271.5
v 747.0447998046875 -746.96478271484375 3040
v 747.0447998046875 -786.96478271484375 3271.5
v 747.0447998046875 -786.96478271484375 3040
v 747.0447998046875 -786.96478271484375 3040
v -747.16864013671875 -746.9639892578125 3040
v -747.16864013671875 -786.9639892578125 3040
v 747.0447998046875 -746.96478271484375 3040
v 747.0447998046875 -786.96478271484375 3271.5
v 639.9381103515625 -746.96484375 3271.5
v 639.9381103515625 -786.96484375 3271.5
v 747.0447998046875 -746.96478271484375 3271.5
v -640.0618896484375 -786.96405029296875 3271.5
v -747.16864013671875 -746.9639892578125 3271.5
v -640.0618896484375 -746.96405029296875 3271.5
v -747.16864013671875 -786.9639892578125 3271.5
v -747.16864013671875 -746.9639892578125 3040
v 747.0447998046875 -746.96478271484375 3040
v -640.0618896484375 -746.96405029296875 3342.36865234375
v 639.9381103515625 -746.96484375 3342.36865234375
v -640.0618896484375 -746.96405029296875 3271.5
v 639.9381103515625 -746.96484375 3271.5
v -747.16864013671875 -746.9639892578125 3271.5
v 747.0447998046875 -746.96478271484375 3271.5
v 747.0447998046875 -786.96478271484375 3040
v -747.16864013671875 -786.9639892578125 3040
v 639.9381103515625 -786.96484375 3341.51513671875
v -640.0618896484375 -786.96405029296875 3341.51513671875
v -640.0618896484375 -786.96405029296875 3271.5
v 639.9381103515625 -786.96484375 3271.5
v -747.16864013671875 -786.9639892578125 3271.5
v 747.0447998046875 -786.96478271484375 3271.5
v -640.0618896484375 787.24871826171875 3271.5
v -640.0618896484375 747.24871826171875 3342.36865234375
v -640.0618896484375 747.24871826171875 3271.5
v -640.0618896484375 787.24871826171875 3341.51513671875
v 639.9381103515625 747.24951171875 3342.36865234375
v 639.9381103515625 747.24951171875 3271.5
v 639.9381103515625 787.24951171875 3271.5
v 639.9381103515625 787.24951171875 3341.51513671875
v -640.0618896484375 787.24871826171875 3341.51513671875
v -640.0618896484375 747.24871826171875 3342.36865234375
v 639.9381103515625 747.24951171875 3342.36865234375
v 639.9381103515625 787.24951171875 3341.51513671875
v -787.16864013671875 787.2486572265625 3271.5
v -787.16864013671875 787.2486572265625 3040
v -787.16864013671875 747.2486572265625 3271.5
v -787.16864013671875 747.2486572265625 3040
v 747.0447998046875 747.24945068359375 3271.5
v 747.0447998046875 747.24945068359375 3040
v 747.0447998046875 787.24945068359375 3271.5
v 747.0447998046875 787.24945068359375 3040
v 747.0447998046875 787.24945068359375 3040
v -787.16864013671875 747.2486572265625 3040
v -787.16864013671875 787.2486572265625 3040
v 747.0447998046875 747.24945068359375 3040
v 747.0447998046875 787.24945068359375 3271.5
v 639.9381103515625 747.24951171875 3271.5
v 639.9381103515625 787.24951171875 3271.5
v 747.0447998046875 747.24945068359375 3271.5
v -640.0618896484375 787.24871826171875 3271.5
v -787.16864013671875 747.2486572265625 3271.5
v -640.0618896484375 747.24871826171875 3271.5
v -787.16864013671875 787.2486572265625 3271.5
v -787.16864013671875 747.2486572265625 3040
v 747.0447998046875 747.24945068359375 3040
v -640.0618896484375 747.24871826171875 3342.36865234375
v 639.9381103515625 747.24951171875 3342.36865234375
v -640.0618896484375 747.24871826171875 3271.5
v 639.9381103515625 747.24951171875 3271.5
v -787.16864013671875 747.2486572265625 3271.5
v 747.0447998046875 747.24945068359375 3271.5
v 747.0447998046875 787.24945068359375 3040
v -787.16864013671875 787.2486572265625 3040
v 639.9381103515625 787.24951171875 3341.51513671875
v -640.0618896484375 787.24871826171875 3341.51513671875
v -640.0618896484375 787.24871826171875 3271.5
v 639.9381103515625 787.24951171875 3271.5
v -787.16864013671875 787.2486572265625 3271.5
v 747.0447998046875 787.24945068359375 3271.5
v -787.1678466796875 640.14276123046875 3271.5
v -747.1678466796875 640.14276123046875 3342.36865234375
v -747.1678466796875 640.14276123046875 3271.5
v -787.1678466796875 640.14276123046875 3341.51513671875
v -747.16864013671875 -639.85723876953125 3342.36865234375
v -747.16864013671875 -639.85723876953125 3271.5
v -787.16864013671875 -639.85723876953125 3271.5
v -787.16864013671875 -639.85723876953125 3341.51513671875
v -787.1678466796875 640.14276123046875 3341.51513671875
v -747.1678466796875 640.14276123046875 3342.36865234375
v -747.16864013671875 -639.85723876953125 3342.36865234375
v -787.16864013671875 -639.85723876953125 3341.51513671875
v -787.16778564453125 747.24951171875 3271.5
v -787.16778564453125 747.24951171875 3040
v -747.16778564453125 747.24951171875 3271.5
v -747.16778564453125 747.24951171875 3040
v -747.1685791015625 -786.96392822265625 3271.5
v -747.1685791015625 -786.96392822265625 3040
v -787.1685791015625 -786.96392822265625 3271.5
v -787.1685791015625 -786.96392822265625 3040
v -787.1685791015625 -786.96392822265625 3040
v -747.16778564453125 747.24951171875 3040
v -787.16778564453125 747.24951171875 3040
v -747.1685791015625 -786.96392822265625 3040
v -747.1685791015625 -786.96392822265625 3271.5
v -787.16864013671875 -639.85723876953125 3271.5
v -747.16864013671875 -639.85723876953125 3271.5
v -787.1685791015625 -786.96392822265625 3271.5
v -787.1678466796875 640.14276123046875 3271.5
v -747.16778564453125 747.24951171875 3271.5
v -747.1678466796875 640.14276123046875 3271.5
v -787.16778564453125 747.24951171875 3271.5
v -747.16778564453125 747.24951171875 3040
v -747.1685791015625 -786.96392822265625 3040
v -747.1678466796875 640.14276123046875 3342.36865234375
v -747.16864013671875 -639.85723876953125 3342.36865234375
v -747.1678466796875 640.14276123046875 3271.5
v -747.16864013671875 -639.85723876953125 3271.5
v -747.16778564453125 747.24951171875 3271.5
v -747.1685791015625 -786.96392822265625 3271.5
v -787.1685791015625 -786.96392822265625 3040
v -787.16778564453125 747.24951171875 3040
v -787.16864013671875 -639.85723876953125 3341.51513671875
v -787.1678466796875 640.14276123046875 3341.51513671875
v -787.1678466796875 640.14276123046875 3271.5
v -787.16864013671875 -639.85723876953125 3271.5
v -787.16778564453125 747.24951171875 3271.5
v -787.1685791015625 -786.96392822265625 3271.5
f 1 2 3 4
f 5 6 7 8
f 9 10 11 12
f 13 14 15 16
f 17 18 19 20
f 21 22 23 24
f 25 26 27 28
f 29 30 31 32
f 33 34 35 36
f 37 38 39 40
f 41 42 43 44
f 45 46 47 48
f 49 50 51 52
f 53 54 55 56
f 57 58 59 60
f 61 62 63 64
f 65 66 67 68
f 69 70 71 72
f 73 74 75 76
f 77 78 79 80
f 81 82 83 84
f 85 86 87 88
f 89 90 91 92
f 93 94 95 96
f 97 98 99 100
f 101 102 103 104
f 105 106 107 108
f 109 110 111 112
f 113 114 115 116
f 117 118 119 120
f 121 122 123 124
f 125 126 127 128
f 129 130 131 132
f 133 134 135 136
f 137 138 139 140
f 141 142 143 144
f 145 146 147 148
f 149 150 151 152
f 153 154 155 156
f 157 158 159 160
f 161 162 163 164
f 165 166 167 168
f 169 170 171 172
f 173 174 175 176
f 177 178 179 180
f 181 182 183 184
f 185 186 187 188
f 189 190 191 192
f 193 194 195 196
f 197 198 199 200
f 201 202 203 204
f 205 206 207 208
f 209 210 211 212
f 213 214 215 216
f 217 218 219 220
f 221 222 223 224
f 225 226 227 228
f 229 230 231 232
f 233 234 235 236
f 237 238 239 240
f 241 242 243 244
f 245 246 247 248
f 249 250 251 252
f 253 254 255 256
f 257 258 259 260
f 261 262 263 264
f 265 266 267 268
f 269 270 271 272
f 273 274 275 276
f 277 278 279 280
f 281 282 283 284
f 285 286 287 288
f 289 290 291 292
f 293 294 295 296
f 297 298 299 300
f 301 302 303 304
f 305 306 307 308
f 309 310 311 312
f 313 314 315 316
f 317 318 319 320
f 321 322 323 324
f 325 326 327 328
f 329 330 331 332
f 333 334 335 336
f 337 338 339 340
f 341 342 343 344
f 345 346 347 348
f 349 350 351 352
f 353 354 355 356
f 357 358 359 360
f 361 362 363 364
f 365 366 367 368
f 369 370 371 372
f 373 374 375 376
f 377 378 379 380
f 381 382 383 384
f 385 386 387 388
f 389 390 391 392
f 393 394 395 396
f 397 398 399 400
f 401 402 403 404
f 405 406 407 408
f 409 410 411 412
f 413 414 415 416
f 417 418 419 420
f 421 422 423 424
f 425 426 427 428
f 429 430 431 432
f 433 434 435 436
f 437 438 439 440
f 441 442 443 444
f 445 446 447 448
f 449 450 451 452
f 453 454 455 456
f 457 458 459 460
f 461 462 463 464
f 465 466 467 468
f 469 470 471 472
f 473 474 475 476
f 477 478 479 480
f 481 482 483 484
f 485 486 487 488
f 489 490 491 492
f 493 494 495 496
f 497 498 499 500
f 501 502 503 504
f 505 506 507 508
f 509 510 511 512
f 513 514 515 516
f 517 518 519 520
f 521 522 523 524
f 525 526 527 528
f 529 530 531 532
f 533 534 535 536
f 537 538 539 540
f 541 542 543 544
f 545 546 547 548
f 549 550 551 552
f 553 554 555 556
f 557 558 559 560
f 561 562 563 564
f 565 566 567 568
f 569 570 571 572
f 573 574 575 576
f 577 578 579 580
f 581 582 583 584
f 585 586 587 588
f 589 590 591 592
f 593 594 595 596
f 597 598 599 600
f 601 602 603 604
f 605 606 607 608
f 609 610 611 612
f 613 614 615 616
f 617 618 619 620
f 621 622 623 624
f 625 626 627 628
f 629 630 631 632
f 633 634 635 636
f 637 638 639 640
f 641 642 643 644
f 645 646 647 648
f 649 650 651 652
f 653 654 655 656
f 657 658 659 660
f 661 662 663 664
f 665 666 667 668
f 669 670 671 672
f 674 673 675 676
f 678 677 679 680
f 682 681 683 684
f 686 685 687 688
f 690 692 691 689
f 694 693 695 696
f 698 697 699 700
f 702 701 703 704
f 706 705 707 708
f 710 709 711 712
f 714 716 715 713
f 718 717 719 720
f 722 721 723 724
f 726 725 727 728
f 730 729 731 732
f 734 733 735 736
f 738 740 739 737
f 742 741 743 744
f 746 745 747 748
f 750 749 751 752
f 754 753 755 756
f 758 757 759 760
f 762 764 763 761
f 766 765 767 768
f 770 769 771 772
f 774 773 775 776
f 778 777 779 780
f 782 781 783 784
f 788 787 786 785
f 792 789 790 791
f 794 796 795 793
f 798 800 799 797
f 802 804 803 801
f 806 808 807 805
f 812 809 810 811
f 816 815 814 813
f 818 820 819 817
f 822 824 823 821
f 826 828 827 825
f 830 832 831 829
f 836 833 834 835
f 840 839 838 837
f 842 841 843 844
f 846 845 847 848
f 850 849 851 852
f 854 853 855 856
f 860 859 858 857
f 864 861 862 863
f 865 867 866 868
f 870 871 872 869
f 874 875 876
f 876 873 874
f 878 880 879 877
f 882 884 883 881
f 888 886 887 885
f 889 892 890 891
f 895 893 896 894
f 901 897 898 902
f 903 897 901
f 902 900 899 901
f 904 902 898
f 906 909 910 905
f 912 905 910
f 907 910 909 908
f 911 909 906
f 913 916 914 915
f 918 917 920 919
f 922 924 923
f 924 922 921
f 926 925 927 928
f 930 929 931 932
f 936 933 935 934
f 940 938 939 937
f 943 942 944 941
f 946 945 949 950
f 951 949 945
f 947 948 950 949
f 952 946 950
f 958 957 954 953
f 960 958 953
f 957 958 955 956
f 959 954 957
f 961 963 962 964
f 966 967 968 965
f 970 971 972
f 972 969 970
f 974 976 975 973
f 978 980 979 977
f 984 982 983 981
f 988 985 987 986
f 991 989 992 990
f 994 998 997 993
f 999 993 997
f 995 997 998 996
f 1000 998 994
f 1006 1001 1002 1005
f 1008 1001 1006
f 1003 1006 1005 1004
f 1007 1005 1002
f 1009 1012 1010 1011
f 1014 1013 1016 1015
f 1018 1020 1019
f 1020 1018 1017
f 1022 1021 1023 1024
f 1026 1025 1027 1028
f 1032 1029 1031 1030
f 1033 1035 1034 1036
f 1039 1038 1040 1037
f 1045 1046 1042 1041
f 1047 1045 1041
f 1046 1045 1043 1044
f 1048 1042 1046
f 1050 1049 1054 1053
f 1056 1054 1049
f 1051 1052 1053 1054
f 1055 1050 1053
