# OBJ
# COMPAS
# version: 2.15.0
# precision: 3
# V F E: 120 108 220

o Mesh 0
v -3220.000 -3220.000 -428.788
v -2484.298 -3220.000 -428.788
v -2484.298 -2673.003 -428.788
v -2673.003 -2484.298 -428.788
v -3220.000 -2484.298 -428.788
v -3220.000 -3220.000 -428.788
v -3220.000 -3220.000 -504.099
v -2466.954 -3220.000 -504.099
v -2466.954 -2661.421 -504.099
v -2661.421 -2466.954 -504.099
v -3220.000 -2466.954 -504.099
v -3220.000 -3220.000 -504.099
v -3220.000 -3220.000 -650.000
v -3000.000 -3220.000 -650.000
v -3000.000 -3002.200 -650.000
v -3002.200 -3000.000 -650.000
v -3220.000 -3000.000 -650.000
v -3220.000 -3220.000 -650.000
f 1 2 8 7
f 2 3 9 8
f 3 4 10 9
f 4 5 11 10
f 5 6 12 11
f 7 8 14 13
f 8 9 15 14
f 9 10 16 15
f 10 11 17 16
f 11 12 18 17
f 2 1 5
f 4 3 2
f 2 5 4
f 17 13 14
f 14 15 16
f 16 17 14
o Mesh 1
v -2871.589 -3220.000 0.000
v -2871.589 -3000.000 0.000
v -3000.000 -2871.589 0.000
v -3220.000 -2871.589 0.000
v -3220.000 -3220.000 0.000
v -2871.589 -3220.000 0.000
v -2871.589 -3220.000 -428.788
v -2871.589 -3000.000 -428.788
v -3000.000 -2871.589 -428.788
v -3220.000 -2871.589 -428.788
v -3220.000 -3220.000 -428.788
v -2871.589 -3220.000 -428.788
f 19 20 26 25
f 20 21 27 26
f 21 22 28 27
f 22 23 29 28
f 23 24 30 29
f 20 19 23
f 22 21 20
f 20 23 22
f 29 25 26
f 26 27 28
f 28 29 26
o Mesh 2
v 3220.000 -3220.000 -428.788
v 3220.000 -2484.298 -428.788
v 2673.003 -2484.298 -428.788
v 2484.298 -2673.003 -428.788
v 2484.298 -3220.000 -428.788
v 3220.000 -3220.000 -428.788
v 3220.000 -3220.000 -504.099
v 3220.000 -2466.954 -504.099
v 2661.421 -2466.954 -504.099
v 2466.954 -2661.421 -504.099
v 2466.954 -3220.000 -504.099
v 3220.000 -3220.000 -504.099
v 3220.000 -3220.000 -650.000
v 3220.000 -3000.000 -650.000
v 3002.200 -3000.000 -650.000
v 3000.000 -3002.200 -650.000
v 3000.000 -3220.000 -650.000
v 3220.000 -3220.000 -650.000
f 31 32 38 37
f 32 33 39 38
f 33 34 40 39
f 34 35 41 40
f 35 36 42 41
f 37 38 44 43
f 38 39 45 44
f 39 40 46 45
f 40 41 47 46
f 41 42 48 47
f 32 31 35
f 34 33 32
f 32 35 34
f 47 43 44
f 44 45 46
f 46 47 44
o Mesh 3
v 3220.000 -2871.589 0.000
v 3000.000 -2871.589 0.000
v 2871.589 -3000.000 0.000
v 2871.589 -3220.000 0.000
v 3220.000 -3220.000 0.000
v 3220.000 -2871.589 0.000
v 3220.000 -2871.589 -428.788
v 3000.000 -2871.589 -428.788
v 2871.589 -3000.000 -428.788
v 2871.589 -3220.000 -428.788
v 3220.000 -3220.000 -428.788
v 3220.000 -2871.589 -428.788
f 49 50 56 55
f 50 51 57 56
f 51 52 58 57
f 52 53 59 58
f 53 54 60 59
f 50 49 53
f 52 51 50
f 50 53 52
f 59 55 56
f 56 57 58
f 58 59 56
o Mesh 4
v 3220.000 3220.000 -428.788
v 2484.298 3220.000 -428.788
v 2484.298 2673.003 -428.788
v 2673.003 2484.298 -428.788
v 3220.000 2484.298 -428.788
v 3220.000 3220.000 -428.788
v 3220.000 3220.000 -504.099
v 2466.954 3220.000 -504.099
v 2466.954 2661.421 -504.099
v 2661.421 2466.954 -504.099
v 3220.000 2466.954 -504.099
v 3220.000 3220.000 -504.099
v 3220.000 3220.000 -650.000
v 3000.000 3220.000 -650.000
v 3000.000 3002.200 -650.000
v 3002.200 3000.000 -650.000
v 3220.000 3000.000 -650.000
v 3220.000 3220.000 -650.000
f 61 62 68 67
f 62 63 69 68
f 63 64 70 69
f 64 65 71 70
f 65 66 72 71
f 67 68 74 73
f 68 69 75 74
f 69 70 76 75
f 70 71 77 76
f 71 72 78 77
f 62 61 65
f 64 63 62
f 62 65 64
f 77 73 74
f 74 75 76
f 76 77 74
o Mesh 5
v 2871.589 3220.000 0.000
v 2871.589 3000.000 0.000
v 3000.000 2871.589 0.000
v 3220.000 2871.589 0.000
v 3220.000 3220.000 0.000
v 2871.589 3220.000 0.000
v 2871.589 3220.000 -428.788
v 2871.589 3000.000 -428.788
v 3000.000 2871.589 -428.788
v 3220.000 2871.589 -428.788
v 3220.000 3220.000 -428.788
v 2871.589 3220.000 -428.788
f 79 80 86 85
f 80 81 87 86
f 81 82 88 87
f 82 83 89 88
f 83 84 90 89
f 80 79 83
f 82 81 80
f 80 83 82
f 89 85 86
f 86 87 88
f 88 89 86
o Mesh 6
v -3220.000 3220.000 -428.788
v -3220.000 2484.298 -428.788
v -2673.003 2484.298 -428.788
v -2484.298 2673.003 -428.788
v -2484.298 3220.000 -428.788
v -3220.000 3220.000 -428.788
v -3220.000 3220.000 -504.099
v -3220.000 2466.954 -504.099
v -2661.421 2466.954 -504.099
v -2466.954 2661.421 -504.099
v -2466.954 3220.000 -504.099
v -3220.000 3220.000 -504.099
v -3220.000 3220.000 -650.000
v -3220.000 3000.000 -650.000
v -3002.200 3000.000 -650.000
v -3000.000 3002.200 -650.000
v -3000.000 3220.000 -650.000
v -3220.000 3220.000 -650.000
f 91 92 98 97
f 92 93 99 98
f 93 94 100 99
f 94 95 101 100
f 95 96 102 101
f 97 98 104 103
f 98 99 105 104
f 99 100 106 105
f 100 101 107 106
f 101 102 108 107
f 92 91 95
f 94 93 92
f 92 95 94
f 107 103 104
f 104 105 106
f 106 107 104
o Mesh 7
v -3220.000 2871.589 0.000
v -3000.000 2871.589 0.000
v -2871.589 3000.000 0.000
v -2871.589 3220.000 0.000
v -3220.000 3220.000 0.000
v -3220.000 2871.589 0.000
v -3220.000 2871.589 -428.788
v -3000.000 2871.589 -428.788
v -2871.589 3000.000 -428.788
v -2871.589 3220.000 -428.788
v -3220.000 3220.000 -428.788
v -3220.000 2871.589 -428.788
f 109 110 116 115
f 110 111 117 116
f 111 112 118 117
f 112 113 119 118
f 113 114 120 119
f 110 109 113
f 112 111 110
f 110 113 112
f 119 115 116
f 116 117 118
f 118 119 116
