# OBJ
# COMPAS
# version: 2.15.0
# precision: 3
# V F E: 32 24 48

o Mesh 0
v -3220.000 -3220.000 -3500.000
v -3220.000 -3000.000 -3500.000
v -3000.000 -3000.000 -3500.000
v -3000.000 -3220.000 -3500.000
v -3220.000 -3220.000 -650.000
v -3000.000 -3220.000 -650.000
v -3000.000 -3000.000 -650.000
v -3220.000 -3000.000 -650.000
f 1 2 3 4
f 1 4 6 5
f 4 3 7 6
f 3 2 8 7
f 2 1 5 8
f 5 6 7 8
o Mesh 1
v -3220.000 3000.000 -3500.000
v -3220.000 3220.000 -3500.000
v -3000.000 3220.000 -3500.000
v -3000.000 3000.000 -3500.000
v -3220.000 3000.000 -650.000
v -3000.000 3000.000 -650.000
v -3000.000 3220.000 -650.000
v -3220.000 3220.000 -650.000
f 9 10 11 12
f 9 12 14 13
f 12 11 15 14
f 11 10 16 15
f 10 9 13 16
f 13 14 15 16
o Mesh 2
v 3000.000 3000.000 -3500.000
v 3000.000 3220.000 -3500.000
v 3220.000 3220.000 -3500.000
v 3220.000 3000.000 -3500.000
v 3000.000 3000.000 -650.000
v 3220.000 3000.000 -650.000
v 3220.000 3220.000 -650.000
v 3000.000 3220.000 -650.000
f 17 18 19 20
f 17 20 22 21
f 20 19 23 22
f 19 18 24 23
f 18 17 21 24
f 21 22 23 24
o Mesh 3
v 3000.000 -3220.000 -3500.000
v 3000.000 -3000.000 -3500.000
v 3220.000 -3000.000 -3500.000
v 3220.000 -3220.000 -3500.000
v 3000.000 -3220.000 -650.000
v 3220.000 -3220.000 -650.000
v 3220.000 -3000.000 -650.000
v 3000.000 -3000.000 -650.000
f 25 26 27 28
f 25 28 30 29
f 28 27 31 30
f 27 26 32 31
f 26 25 29 32
f 29 30 31 32
