# OBJ
# COMPAS
# version: 2.15.1
# precision: 3
# V F E: 21 38 57

o Mesh 0
v -2780.000 2950.746 2750.000
v -2780.000 3000.000 2750.000
v -2780.000 2780.000 2750.000
v -2780.000 3000.000 3500.000
v -2780.000 2780.000 3500.000
v -2780.000 2660.000 2750.000
v -2780.000 2660.000 3500.000
v -3000.000 3000.000 150.000
v -3000.000 2780.000 150.000
v -2780.000 2780.000 150.000
v -2829.254 2780.000 2750.000
v -3000.000 2660.000 2750.000
v -3000.000 2780.000 2750.000
v -3000.000 2780.000 3500.000
v -3000.000 2660.000 3500.000
v -2780.000 3000.000 150.000
v -3000.000 3000.000 3500.000
v -2660.000 3000.000 2750.000
v -2660.000 3000.000 3500.000
v -2660.000 2660.000 3500.000
v -2660.000 2660.000 2750.000
f 8 16 10
f 8 10 9
f 13 8 9
f 8 14 17
f 16 8 17
f 2 17 4
f 17 14 5
f 17 5 4
f 8 13 14
f 11 13 9
f 10 3 11
f 10 11 9
f 1 3 10
f 11 6 13
f 13 6 12
f 13 12 15
f 13 15 14
f 12 6 7
f 12 7 15
f 14 15 7
f 14 7 5
f 6 11 3
f 16 2 1
f 16 1 10
f 17 2 16
f 2 18 21
f 3 21 6
f 6 21 20
f 6 20 7
f 21 18 19
f 21 19 20
f 18 2 4
f 18 4 19
f 5 20 4
f 4 20 19
f 20 5 7
f 21 3 1
f 21 1 2
