# OBJ
# COMPAS
# version: 2.15.0
# precision: 3
# V F E: 152 200 348

o Mesh 0
v -2871.589 -3000.000 0.000
v -2871.589 -3000.000 -428.788
v -2484.298 -3000.000 -428.788
v -2466.954 -3000.000 -504.099
v -2000.000 -3000.000 -398.333
v -1500.000 -3000.000 -310.250
v -1000.000 -3000.000 -247.333
v -500.000 -3000.000 -209.583
v -40.000 -3000.000 -198.007
v 40.000 -3000.000 -198.007
v 500.000 -3000.000 -209.583
v 1000.000 -3000.000 -247.333
v 1500.000 -3000.000 -310.250
v 2000.000 -3000.000 -398.333
v 2466.954 -3000.000 -504.099
v 2484.298 -3000.000 -428.788
v 2871.589 -3000.000 -428.788
v 2871.589 -3000.000 0.000
v -2871.589 -3000.000 0.000
v -2871.589 -3220.000 0.000
v -2871.589 -3220.000 -428.788
v -2484.298 -3220.000 -428.788
v -2466.954 -3220.000 -504.099
v -2000.000 -3220.000 -398.333
v -1500.000 -3220.000 -310.250
v -1000.000 -3220.000 -247.333
v -500.000 -3220.000 -209.583
v -40.000 -3220.000 -198.007
v 40.000 -3220.000 -198.007
v 500.000 -3220.000 -209.583
v 1000.000 -3220.000 -247.333
v 1500.000 -3220.000 -310.250
v 2000.000 -3220.000 -398.333
v 2466.954 -3220.000 -504.099
v 2484.298 -3220.000 -428.788
v 2871.589 -3220.000 -428.788
v 2871.589 -3220.000 0.000
v -2871.589 -3220.000 0.000
f 1 2 21 20
f 2 3 22 21
f 3 4 23 22
f 4 5 24 23
f 5 6 25 24
f 6 7 26 25
f 7 8 27 26
f 8 9 28 27
f 9 10 29 28
f 10 11 30 29
f 11 12 31 30
f 12 13 32 31
f 13 14 33 32
f 14 15 34 33
f 15 16 35 34
f 16 17 36 35
f 17 18 37 36
f 18 19 38 37
f 3 2 1
f 5 4 3
f 16 15 14
f 18 17 16
f 5 3 1
f 16 14 13
f 6 5 1
f 16 13 12
f 7 6 1
f 18 16 12
f 8 7 1
f 18 12 11
f 8 1 18
f 18 11 10
f 9 8 18
f 18 10 9
f 20 21 22
f 22 23 24
f 33 34 35
f 35 36 37
f 20 22 24
f 32 33 35
f 20 24 25
f 31 32 35
f 20 25 26
f 31 35 37
f 20 26 27
f 30 31 37
f 37 20 27
f 29 30 37
f 37 27 28
f 28 29 37
o Mesh 1
v 3000.000 -2871.589 0.000
v 3000.000 -2871.589 -428.788
v 3000.000 -2484.298 -428.788
v 3000.000 -2466.954 -504.099
v 3000.000 -2000.000 -398.333
v 3000.000 -1500.000 -310.250
v 3000.000 -1000.000 -247.333
v 3000.000 -500.000 -209.583
v 3000.000 -40.000 -198.007
v 3000.000 40.000 -198.007
v 3000.000 500.000 -209.583
v 3000.000 1000.000 -247.333
v 3000.000 1500.000 -310.250
v 3000.000 2000.000 -398.333
v 3000.000 2466.954 -504.099
v 3000.000 2484.298 -428.788
v 3000.000 2871.589 -428.788
v 3000.000 2871.589 0.000
v 3000.000 -2871.589 0.000
v 3220.000 -2871.589 0.000
v 3220.000 -2871.589 -428.788
v 3220.000 -2484.298 -428.788
v 3220.000 -2466.954 -504.099
v 3220.000 -2000.000 -398.333
v 3220.000 -1500.000 -310.250
v 3220.000 -1000.000 -247.333
v 3220.000 -500.000 -209.583
v 3220.000 -40.000 -198.007
v 3220.000 40.000 -198.007
v 3220.000 500.000 -209.583
v 3220.000 1000.000 -247.333
v 3220.000 1500.000 -310.250
v 3220.000 2000.000 -398.333
v 3220.000 2466.954 -504.099
v 3220.000 2484.298 -428.788
v 3220.000 2871.589 -428.788
v 3220.000 2871.589 0.000
v 3220.000 -2871.589 0.000
f 39 40 59 58
f 40 41 60 59
f 41 42 61 60
f 42 43 62 61
f 43 44 63 62
f 44 45 64 63
f 45 46 65 64
f 46 47 66 65
f 47 48 67 66
f 48 49 68 67
f 49 50 69 68
f 50 51 70 69
f 51 52 71 70
f 52 53 72 71
f 53 54 73 72
f 54 55 74 73
f 55 56 75 74
f 56 57 76 75
f 41 40 39
f 43 42 41
f 54 53 52
f 56 55 54
f 43 41 39
f 54 52 51
f 44 43 39
f 54 51 50
f 45 44 39
f 56 54 50
f 46 45 39
f 56 50 49
f 46 39 56
f 56 49 48
f 47 46 56
f 56 48 47
f 58 59 60
f 60 61 62
f 71 72 73
f 73 74 75
f 58 60 62
f 70 71 73
f 58 62 63
f 69 70 73
f 58 63 64
f 69 73 75
f 58 64 65
f 68 69 75
f 75 58 65
f 67 68 75
f 75 65 66
f 66 67 75
o Mesh 2
v 2871.589 3000.000 0.000
v 2871.589 3000.000 -428.788
v 2484.298 3000.000 -428.788
v 2466.954 3000.000 -504.099
v 2000.000 3000.000 -398.333
v 1500.000 3000.000 -310.250
v 1000.000 3000.000 -247.333
v 500.000 3000.000 -209.583
v 40.000 3000.000 -198.007
v -40.000 3000.000 -198.007
v -500.000 3000.000 -209.583
v -1000.000 3000.000 -247.333
v -1500.000 3000.000 -310.250
v -2000.000 3000.000 -398.333
v -2466.954 3000.000 -504.099
v -2484.298 3000.000 -428.788
v -2871.589 3000.000 -428.788
v -2871.589 3000.000 0.000
v 2871.589 3000.000 0.000
v 2871.589 3220.000 0.000
v 2871.589 3220.000 -428.788
v 2484.298 3220.000 -428.788
v 2466.954 3220.000 -504.099
v 2000.000 3220.000 -398.333
v 1500.000 3220.000 -310.250
v 1000.000 3220.000 -247.333
v 500.000 3220.000 -209.583
v 40.000 3220.000 -198.007
v -40.000 3220.000 -198.007
v -500.000 3220.000 -209.583
v -1000.000 3220.000 -247.333
v -1500.000 3220.000 -310.250
v -2000.000 3220.000 -398.333
v -2466.954 3220.000 -504.099
v -2484.298 3220.000 -428.788
v -2871.589 3220.000 -428.788
v -2871.589 3220.000 0.000
v 2871.589 3220.000 0.000
f 77 78 97 96
f 78 79 98 97
f 79 80 99 98
f 80 81 100 99
f 81 82 101 100
f 82 83 102 101
f 83 84 103 102
f 84 85 104 103
f 85 86 105 104
f 86 87 106 105
f 87 88 107 106
f 88 89 108 107
f 89 90 109 108
f 90 91 110 109
f 91 92 111 110
f 92 93 112 111
f 93 94 113 112
f 94 95 114 113
f 79 78 77
f 81 80 79
f 92 91 90
f 94 93 92
f 81 79 77
f 92 90 89
f 82 81 77
f 92 89 88
f 83 82 77
f 94 92 88
f 84 83 77
f 94 88 87
f 84 77 94
f 94 87 86
f 85 84 94
f 94 86 85
f 96 97 98
f 98 99 100
f 109 110 111
f 111 112 113
f 96 98 100
f 108 109 111
f 96 100 101
f 107 108 111
f 96 101 102
f 107 111 113
f 96 102 103
f 106 107 113
f 113 96 103
f 105 106 113
f 113 103 104
f 104 105 113
o Mesh 3
v -3000.000 2871.589 0.000
v -3000.000 2871.589 -428.788
v -3000.000 2484.298 -428.788
v -3000.000 2466.954 -504.099
v -3000.000 2000.000 -398.333
v -3000.000 1500.000 -310.250
v -3000.000 1000.000 -247.333
v -3000.000 500.000 -209.583
v -3000.000 40.000 -198.007
v -3000.000 -40.000 -198.007
v -3000.000 -500.000 -209.583
v -3000.000 -1000.000 -247.333
v -3000.000 -1500.000 -310.250
v -3000.000 -2000.000 -398.333
v -3000.000 -2466.954 -504.099
v -3000.000 -2484.298 -428.788
v -3000.000 -2871.589 -428.788
v -3000.000 -2871.589 0.000
v -3000.000 2871.589 0.000
v -3220.000 2871.589 0.000
v -3220.000 2871.589 -428.788
v -3220.000 2484.298 -428.788
v -3220.000 2466.954 -504.099
v -3220.000 2000.000 -398.333
v -3220.000 1500.000 -310.250
v -3220.000 1000.000 -247.333
v -3220.000 500.000 -209.583
v -3220.000 40.000 -198.007
v -3220.000 -40.000 -198.007
v -3220.000 -500.000 -209.583
v -3220.000 -1000.000 -247.333
v -3220.000 -1500.000 -310.250
v -3220.000 -2000.000 -398.333
v -3220.000 -2466.954 -504.099
v -3220.000 -2484.298 -428.788
v -3220.000 -2871.589 -428.788
v -3220.000 -2871.589 0.000
v -3220.000 2871.589 0.000
f 115 116 135 134
f 116 117 136 135
f 117 118 137 136
f 118 119 138 137
f 119 120 139 138
f 120 121 140 139
f 121 122 141 140
f 122 123 142 141
f 123 124 143 142
f 124 125 144 143
f 125 126 145 144
f 126 127 146 145
f 127 128 147 146
f 128 129 148 147
f 129 130 149 148
f 130 131 150 149
f 131 132 151 150
f 132 133 152 151
f 117 116 115
f 119 118 117
f 130 129 128
f 132 131 130
f 119 117 115
f 130 128 127
f 120 119 115
f 130 127 126
f 121 120 115
f 132 130 126
f 122 121 115
f 132 126 125
f 122 115 132
f 132 125 124
f 123 122 132
f 132 124 123
f 134 135 136
f 136 137 138
f 147 148 149
f 149 150 151
f 134 136 138
f 146 147 149
f 134 138 139
f 145 146 149
f 134 139 140
f 145 149 151
f 134 140 141
f 144 145 151
f 151 134 141
f 143 144 151
f 151 141 142
f 142 143 151
