# OBJ
# COMPAS
# version: 2.15.0
# precision: 3
# V F E: 392 448 820

o Mesh 0
v -40.000 -2960.000 0.000
v -2855.021 -2960.000 0.000
v -2855.021 -2960.000 -428.788
v -2484.298 -2960.000 -428.788
v -2466.954 -2960.000 -504.099
v -2000.000 -2960.000 -398.333
v -1500.000 -2960.000 -310.250
v -1000.000 -2960.000 -247.333
v -500.000 -2960.000 -209.583
v -40.000 -2960.000 -198.007
v -40.000 -2960.000 0.000
v -40.000 -3000.000 0.000
v -2815.021 -3000.000 0.000
v -2815.021 -3000.000 -428.788
v -2484.298 -3000.000 -428.788
v -2466.954 -3000.000 -504.099
v -2000.000 -3000.000 -398.333
v -1500.000 -3000.000 -310.250
v -1000.000 -3000.000 -247.333
v -500.000 -3000.000 -209.583
v -40.000 -3000.000 -198.007
v -40.000 -3000.000 0.000
f 1 2 13 12
f 2 3 14 13
f 3 4 15 14
f 4 5 16 15
f 5 6 17 16
f 6 7 18 17
f 7 8 19 18
f 8 9 20 19
f 9 10 21 20
f 10 11 22 21
f 2 1 10
f 4 3 2
f 6 5 4
f 2 10 9
f 6 4 2
f 2 9 8
f 7 6 2
f 2 8 7
f 21 12 13
f 13 14 15
f 15 16 17
f 20 21 13
f 13 15 17
f 19 20 13
f 13 17 18
f 18 19 13
o Mesh 1
v -54.420 -1002.149 0.000
v -2907.493 -2907.528 0.000
v -2907.493 -2907.528 -428.788
v -2513.137 -2644.163 -428.788
v -2494.915 -2631.994 -507.916
v -2011.107 -2308.891 -398.333
v -1511.107 -1974.974 -310.250
v -1011.107 -1641.057 -247.333
v -511.107 -1307.140 -209.583
v -54.420 -1002.149 -198.090
v -54.420 -1002.149 0.000
v -25.580 -1030.988 0.000
v -2878.654 -2936.367 0.000
v -2878.654 -2936.367 -428.788
v -2484.298 -2673.003 -428.788
v -2466.404 -2661.053 -506.490
v -1988.893 -2342.155 -398.333
v -1488.893 -2008.238 -310.250
v -988.893 -1674.321 -247.333
v -488.893 -1340.404 -209.583
v -25.580 -1030.988 -197.923
v -25.580 -1030.988 0.000
f 23 24 35 34
f 24 25 36 35
f 25 26 37 36
f 26 27 38 37
f 27 28 39 38
f 28 29 40 39
f 29 30 41 40
f 30 31 42 41
f 31 32 43 42
f 32 33 44 43
f 24 23 32
f 26 25 24
f 28 27 26
f 24 32 31
f 28 26 24
f 24 31 30
f 29 28 24
f 24 30 29
f 43 34 35
f 35 36 37
f 37 38 39
f 42 43 35
f 35 37 39
f 41 42 35
f 35 39 40
f 40 41 35
o Mesh 2
v -1030.988 -25.580 0.000
v -2936.367 -2878.654 0.000
v -2936.367 -2878.654 -428.788
v -2673.003 -2484.298 -428.788
v -2661.053 -2466.404 -506.490
v -2342.155 -1988.893 -398.333
v -2008.238 -1488.893 -310.250
v -1674.321 -988.893 -247.333
v -1340.404 -488.893 -209.583
v -1030.988 -25.580 -197.923
v -1030.988 -25.580 0.000
v -1002.149 -54.420 0.000
v -2907.528 -2907.493 0.000
v -2907.528 -2907.493 -428.788
v -2644.163 -2513.137 -428.788
v -2631.994 -2494.915 -507.916
v -2308.891 -2011.107 -398.333
v -1974.974 -1511.107 -310.250
v -1641.057 -1011.107 -247.333
v -1307.140 -511.107 -209.583
v -1002.149 -54.420 -198.090
v -1002.149 -54.420 0.000
f 45 46 57 56
f 46 47 58 57
f 47 48 59 58
f 48 49 60 59
f 49 50 61 60
f 50 51 62 61
f 51 52 63 62
f 52 53 64 63
f 53 54 65 64
f 54 55 66 65
f 46 45 54
f 48 47 46
f 50 49 48
f 46 54 53
f 50 48 46
f 46 53 52
f 51 50 46
f 46 52 51
f 65 56 57
f 57 58 59
f 59 60 61
f 64 65 57
f 57 59 61
f 63 64 57
f 57 61 62
f 62 63 57
o Mesh 3
v -3000.000 -40.000 0.000
v -3000.000 -2815.021 0.000
v -3000.000 -2815.021 -428.788
v -3000.000 -2484.298 -428.788
v -3000.000 -2466.954 -504.099
v -3000.000 -2000.000 -398.333
v -3000.000 -1500.000 -310.250
v -3000.000 -1000.000 -247.333
v -3000.000 -500.000 -209.583
v -3000.000 -40.000 -198.007
v -3000.000 -40.000 0.000
v -2960.000 -40.000 0.000
v -2960.000 -2855.021 0.000
v -2960.000 -2855.021 -428.788
v -2960.000 -2484.298 -428.788
v -2960.000 -2466.954 -504.099
v -2960.000 -2000.000 -398.333
v -2960.000 -1500.000 -310.250
v -2960.000 -1000.000 -247.333
v -2960.000 -500.000 -209.583
v -2960.000 -40.000 -198.007
v -2960.000 -40.000 0.000
f 67 68 79 78
f 68 69 80 79
f 69 70 81 80
f 70 71 82 81
f 71 72 83 82
f 72 73 84 83
f 73 74 85 84
f 74 75 86 85
f 75 76 87 86
f 76 77 88 87
f 68 67 76
f 70 69 68
f 72 71 70
f 68 76 75
f 72 70 68
f 68 75 74
f 73 72 68
f 68 74 73
f 87 78 79
f 79 80 81
f 81 82 83
f 86 87 79
f 79 81 83
f 85 86 79
f 79 83 84
f 84 85 79
o Mesh 4
v -2466.954 -2960.000 -504.099
v -2000.000 -2960.000 -398.333
v -1500.000 -2960.000 -310.250
v -1000.000 -2960.000 -247.333
v -500.000 -2960.000 -209.583
v -40.000 -2960.000 -198.007
v -40.000 -2960.000 -157.994
v -502.010 -2960.000 -169.621
v -1004.005 -2960.000 -207.522
v -1505.970 -2960.000 -270.686
v -2007.893 -2960.000 -359.108
v -2475.931 -2960.000 -465.119
v -2466.954 -2960.000 -504.099
v -2466.954 -2920.000 -504.099
v -2000.000 -2920.000 -398.333
v -1500.000 -2920.000 -310.250
v -1000.000 -2920.000 -247.333
v -500.000 -2920.000 -209.583
v -40.000 -2920.000 -198.007
v -40.000 -2920.000 -157.994
v -502.010 -2920.000 -169.621
v -1004.005 -2920.000 -207.522
v -1505.970 -2920.000 -270.686
v -2007.893 -2920.000 -359.108
v -2475.931 -2920.000 -465.119
v -2466.954 -2920.000 -504.099
f 89 90 103 102
f 90 91 104 103
f 91 92 105 104
f 92 93 106 105
f 93 94 107 106
f 94 95 108 107
f 95 96 109 108
f 96 97 110 109
f 97 98 111 110
f 98 99 112 111
f 99 100 113 112
f 100 101 114 113
f 99 100 89
f 97 98 99
f 95 96 97
f 93 94 95
f 99 89 90
f 93 95 97
f 99 90 91
f 92 93 97
f 99 91 92
f 92 97 99
f 102 113 112
f 112 111 110
f 110 109 108
f 108 107 106
f 103 102 112
f 110 108 106
f 104 103 112
f 110 106 105
f 105 104 112
f 112 110 105
o Mesh 5
v -2466.404 -2661.053 -506.490
v -1988.893 -2342.155 -398.333
v -1488.893 -2008.238 -310.250
v -988.893 -1674.321 -247.333
v -488.893 -1340.404 -209.583
v -40.000 -1040.619 -198.286
v -40.000 -1040.619 -157.994
v -502.010 -1349.165 -169.621
v -1004.005 -1684.414 -207.522
v -1505.970 -2019.643 -270.686
v -2007.893 -2354.844 -359.108
v -2475.931 -2667.416 -465.119
v -2466.404 -2661.053 -506.490
v -2465.302 -2708.417 -511.272
v -1966.678 -2375.419 -398.333
v -1466.678 -2041.502 -310.250
v -966.678 -1707.585 -247.333
v -466.678 -1373.668 -209.583
v -40.000 -1088.718 -198.845
v -40.000 -1088.718 -157.994
v -502.010 -1397.264 -169.621
v -1004.005 -1732.514 -207.522
v -1505.970 -2067.743 -270.686
v -2007.893 -2402.944 -359.108
v -2475.931 -2715.516 -465.119
v -2465.302 -2708.417 -511.272
f 115 116 129 128
f 116 117 130 129
f 117 118 131 130
f 118 119 132 131
f 119 120 133 132
f 120 121 134 133
f 121 122 135 134
f 122 123 136 135
f 123 124 137 136
f 124 125 138 137
f 125 126 139 138
f 126 127 140 139
f 125 126 115
f 123 124 125
f 121 122 123
f 119 120 121
f 125 115 116
f 119 121 123
f 125 116 117
f 118 119 123
f 125 117 118
f 118 123 125
f 128 139 138
f 138 137 136
f 136 135 134
f 134 133 132
f 129 128 138
f 136 134 132
f 130 129 138
f 136 132 131
f 131 130 138
f 138 136 131
o Mesh 6
v -2494.915 -2631.994 -507.916
v -2011.107 -2308.891 -398.333
v -1511.107 -1974.974 -310.250
v -1011.107 -1641.057 -247.333
v -511.107 -1307.140 -209.583
v -54.420 -1002.149 -198.090
v -54.420 -1002.149 -157.994
v -516.430 -1310.695 -169.621
v -1018.425 -1645.944 -207.522
v -1520.390 -1981.173 -270.686
v -2022.312 -2316.374 -359.108
v -2504.056 -2638.099 -468.223
v -2494.915 -2631.994 -507.916
v -2523.426 -2602.935 -509.342
v -2033.322 -2275.627 -398.333
v -1533.322 -1941.710 -310.250
v -1033.322 -1607.793 -247.333
v -533.322 -1273.876 -209.583
v -83.260 -973.309 -198.257
v -83.260 -973.309 -157.994
v -545.270 -1281.855 -169.621
v -1047.265 -1617.104 -207.522
v -1549.230 -1952.334 -270.686
v -2051.152 -2287.534 -359.108
v -2532.896 -2609.259 -468.223
v -2523.426 -2602.935 -509.342
f 141 142 155 154
f 142 143 156 155
f 143 144 157 156
f 144 145 158 157
f 145 146 159 158
f 146 147 160 159
f 147 148 161 160
f 148 149 162 161
f 149 150 163 162
f 150 151 164 163
f 151 152 165 164
f 152 153 166 165
f 151 152 141
f 149 150 151
f 147 148 149
f 145 146 147
f 151 141 142
f 145 147 149
f 151 142 143
f 144 145 149
f 151 143 144
f 144 149 151
f 154 165 164
f 164 163 162
f 162 161 160
f 160 159 158
f 155 154 164
f 162 160 158
f 156 155 164
f 162 158 157
f 157 156 164
f 164 162 157
o Mesh 7
v -2631.994 -2494.915 -507.916
v -2308.891 -2011.107 -398.333
v -1974.974 -1511.107 -310.250
v -1641.057 -1011.107 -247.333
v -1307.140 -511.107 -209.583
v -1002.149 -54.420 -198.090
v -1002.149 -54.420 -157.994
v -1310.695 -516.430 -169.621
v -1645.944 -1018.425 -207.522
v -1981.173 -1520.390 -270.686
v -2316.374 -2022.312 -359.108
v -2638.099 -2504.056 -468.223
v -2631.994 -2494.915 -507.916
v -2602.935 -2523.426 -509.342
v -2275.627 -2033.322 -398.333
v -1941.710 -1533.322 -310.250
v -1607.793 -1033.322 -247.333
v -1273.876 -533.322 -209.583
v -973.309 -83.260 -198.257
v -973.309 -83.260 -157.994
v -1281.855 -545.270 -169.621
v -1617.104 -1047.265 -207.522
v -1952.334 -1549.230 -270.686
v -2287.534 -2051.152 -359.108
v -2609.259 -2532.896 -468.223
v -2602.935 -2523.426 -509.342
f 167 168 181 180
f 168 169 182 181
f 169 170 183 182
f 170 171 184 183
f 171 172 185 184
f 172 173 186 185
f 173 174 187 186
f 174 175 188 187
f 175 176 189 188
f 176 177 190 189
f 177 178 191 190
f 178 179 192 191
f 177 178 167
f 175 176 177
f 173 174 175
f 171 172 173
f 177 167 168
f 171 173 175
f 177 168 169
f 170 171 175
f 177 169 170
f 170 175 177
f 180 191 190
f 190 189 188
f 188 187 186
f 186 185 184
f 181 180 190
f 188 186 184
f 182 181 190
f 188 184 183
f 183 182 190
f 190 188 183
o Mesh 8
v -2661.053 -2466.404 -506.490
v -2342.155 -1988.893 -398.333
v -2008.238 -1488.893 -310.250
v -1674.321 -988.893 -247.333
v -1340.404 -488.893 -209.583
v -1040.619 -40.000 -198.286
v -1040.619 -40.000 -157.994
v -1349.165 -502.010 -169.621
v -1684.414 -1004.005 -207.522
v -2019.643 -1505.970 -270.686
v -2354.844 -2007.893 -359.108
v -2667.416 -2475.931 -465.119
v -2661.053 -2466.404 -506.490
v -2708.417 -2465.302 -511.272
v -2375.419 -1966.678 -398.333
v -2041.502 -1466.678 -310.250
v -1707.585 -966.678 -247.333
v -1373.668 -466.678 -209.583
v -1088.718 -40.000 -198.845
v -1088.718 -40.000 -157.994
v -1397.264 -502.010 -169.621
v -1732.514 -1004.005 -207.522
v -2067.743 -1505.970 -270.686
v -2402.944 -2007.893 -359.108
v -2715.516 -2475.931 -465.119
v -2708.417 -2465.302 -511.272
f 193 194 207 206
f 194 195 208 207
f 195 196 209 208
f 196 197 210 209
f 197 198 211 210
f 198 199 212 211
f 199 200 213 212
f 200 201 214 213
f 201 202 215 214
f 202 203 216 215
f 203 204 217 216
f 204 205 218 217
f 203 204 193
f 201 202 203
f 199 200 201
f 197 198 199
f 203 193 194
f 197 199 201
f 203 194 195
f 196 197 201
f 203 195 196
f 196 201 203
f 206 217 216
f 216 215 214
f 214 213 212
f 212 211 210
f 207 206 216
f 214 212 210
f 208 207 216
f 214 210 209
f 209 208 216
f 216 214 209
o Mesh 9
v -2960.000 -2466.954 -504.099
v -2960.000 -2000.000 -398.333
v -2960.000 -1500.000 -310.250
v -2960.000 -1000.000 -247.333
v -2960.000 -500.000 -209.583
v -2960.000 -40.000 -198.007
v -2960.000 -40.000 -157.994
v -2960.000 -502.010 -169.621
v -2960.000 -1004.005 -207.522
v -2960.000 -1505.970 -270.686
v -2960.000 -2007.893 -359.108
v -2960.000 -2475.931 -465.119
v -2960.000 -2466.954 -504.099
v -2920.000 -2466.954 -504.099
v -2920.000 -2000.000 -398.333
v -2920.000 -1500.000 -310.250
v -2920.000 -1000.000 -247.333
v -2920.000 -500.000 -209.583
v -2920.000 -40.000 -198.007
v -2920.000 -40.000 -157.994
v -2920.000 -502.010 -169.621
v -2920.000 -1004.005 -207.522
v -2920.000 -1505.970 -270.686
v -2920.000 -2007.893 -359.108
v -2920.000 -2475.931 -465.119
v -2920.000 -2466.954 -504.099
f 219 220 233 232
f 220 221 234 233
f 221 222 235 234
f 222 223 236 235
f 223 224 237 236
f 224 225 238 237
f 225 226 239 238
f 226 227 240 239
f 227 228 241 240
f 228 229 242 241
f 229 230 243 242
f 230 231 244 243
f 229 230 219
f 227 228 229
f 225 226 227
f 223 224 225
f 229 219 220
f 223 225 227
f 229 220 221
f 222 223 227
f 229 221 222
f 222 227 229
f 232 243 242
f 242 241 240
f 240 239 238
f 238 237 236
f 233 232 242
f 240 238 236
f 234 233 242
f 240 236 235
f 235 234 242
f 242 240 235
o Mesh 10
v -2475.931 -2960.000 -465.119
v -2007.893 -2960.000 -359.108
v -1505.970 -2960.000 -270.686
v -1004.005 -2960.000 -207.522
v -502.010 -2960.000 -169.621
v -40.000 -2960.000 -157.994
v -40.000 -2960.000 -117.981
v -504.020 -2960.000 -129.659
v -1008.010 -2960.000 -167.710
v -1511.941 -2960.000 -231.122
v -2015.785 -2960.000 -319.882
v -2484.908 -2960.000 -426.139
v -2475.931 -2960.000 -465.119
v -2475.931 -2667.416 -465.119
v -2007.893 -2354.844 -359.108
v -1505.970 -2019.643 -270.686
v -1004.005 -1684.414 -207.522
v -502.010 -1349.165 -169.621
v -40.000 -1040.619 -157.994
v -40.000 -1040.619 -117.981
v -504.020 -1350.507 -129.659
v -1008.010 -1687.089 -167.710
v -1511.941 -2023.630 -231.122
v -2015.785 -2360.115 -319.882
v -2484.908 -2673.411 -426.139
v -2475.931 -2667.416 -465.119
f 245 246 259 258
f 246 247 260 259
f 247 248 261 260
f 248 249 262 261
f 249 250 263 262
f 250 251 264 263
f 251 252 265 264
f 252 253 266 265
f 253 254 267 266
f 254 255 268 267
f 255 256 269 268
f 256 257 270 269
f 255 256 245
f 253 254 255
f 251 252 253
f 249 250 251
f 255 245 246
f 249 251 253
f 255 246 247
f 248 249 253
f 255 247 248
f 248 253 255
f 258 269 268
f 268 267 266
f 266 265 264
f 264 263 262
f 259 258 268
f 266 264 262
f 260 259 268
f 266 262 261
f 261 260 268
f 268 266 261
o Mesh 11
v -2504.056 -2638.099 -468.223
v -2022.312 -2316.374 -359.108
v -1520.390 -1981.173 -270.686
v -1018.425 -1645.944 -207.522
v -516.430 -1310.695 -169.621
v -54.420 -1002.149 -157.994
v -54.420 -1002.149 -117.981
v -518.440 -1312.037 -129.659
v -1022.430 -1648.619 -167.710
v -1526.361 -1985.161 -231.122
v -2030.205 -2321.645 -319.882
v -2513.033 -2644.093 -429.243
v -2504.056 -2638.099 -468.223
v -2638.099 -2504.056 -468.223
v -2316.374 -2022.312 -359.108
v -1981.173 -1520.390 -270.686
v -1645.944 -1018.425 -207.522
v -1310.695 -516.430 -169.621
v -1002.149 -54.420 -157.994
v -1002.149 -54.420 -117.981
v -1312.037 -518.440 -129.659
v -1648.619 -1022.430 -167.710
v -1985.161 -1526.361 -231.122
v -2321.645 -2030.205 -319.882
v -2644.093 -2513.033 -429.243
v -2638.099 -2504.056 -468.223
f 271 272 285 284
f 272 273 286 285
f 273 274 287 286
f 274 275 288 287
f 275 276 289 288
f 276 277 290 289
f 277 278 291 290
f 278 279 292 291
f 279 280 293 292
f 280 281 294 293
f 281 282 295 294
f 282 283 296 295
f 281 282 271
f 279 280 281
f 277 278 279
f 275 276 277
f 281 271 272
f 275 277 279
f 281 272 273
f 274 275 279
f 281 273 274
f 274 279 281
f 284 295 294
f 294 293 292
f 292 291 290
f 290 289 288
f 285 284 294
f 292 290 288
f 286 285 294
f 292 288 287
f 287 286 294
f 294 292 287
o Mesh 12
v -2667.416 -2475.931 -465.119
v -2354.844 -2007.893 -359.108
v -2019.643 -1505.970 -270.686
v -1684.414 -1004.005 -207.522
v -1349.165 -502.010 -169.621
v -1040.619 -40.000 -157.994
v -1040.619 -40.000 -117.981
v -1350.507 -504.020 -129.659
v -1687.089 -1008.010 -167.710
v -2023.630 -1511.941 -231.122
v -2360.115 -2015.785 -319.882
v -2673.411 -2484.908 -426.139
v -2667.416 -2475.931 -465.119
v -2960.000 -2475.931 -465.119
v -2960.000 -2007.893 -359.108
v -2960.000 -1505.970 -270.686
v -2960.000 -1004.005 -207.522
v -2960.000 -502.010 -169.621
v -2960.000 -40.000 -157.994
v -2960.000 -40.000 -117.981
v -2960.000 -504.020 -129.659
v -2960.000 -1008.010 -167.710
v -2960.000 -1511.941 -231.122
v -2960.000 -2015.785 -319.882
v -2960.000 -2484.908 -426.139
v -2960.000 -2475.931 -465.119
f 297 298 311 310
f 298 299 312 311
f 299 300 313 312
f 300 301 314 313
f 301 302 315 314
f 302 303 316 315
f 303 304 317 316
f 304 305 318 317
f 305 306 319 318
f 306 307 320 319
f 307 308 321 320
f 308 309 322 321
f 307 308 297
f 305 306 307
f 303 304 305
f 301 302 303
f 307 297 298
f 301 303 305
f 307 298 299
f 300 301 305
f 307 299 300
f 300 305 307
f 310 321 320
f 320 319 318
f 318 317 316
f 316 315 314
f 311 310 320
f 318 316 314
f 312 311 320
f 318 314 313
f 313 312 320
f 320 318 313
o Mesh 13
v 0.000 -3000.000 0.000
v 0.000 -1000.000 0.000
v 0.000 -1000.000 -197.000
v 0.000 -3000.000 -197.000
v 0.000 -3000.000 0.000
v -40.000 -3000.000 0.000
v -40.000 -1016.569 0.000
v -40.000 -1016.569 -197.000
v -40.000 -3000.000 -197.000
v -40.000 -3000.000 0.000
f 323 324 329 328
f 324 325 330 329
f 325 326 331 330
f 326 327 332 331
f 324 323 326
f 326 325 324
f 331 328 329
f 329 330 331
o Mesh 14
v -60.000 -1102.075 -158.497
v -60.000 -2920.000 -158.497
v -60.000 -2920.000 -197.000
v -60.000 -1102.075 -197.000
v -60.000 -1102.075 -158.497
v -40.000 -1088.718 -157.994
v -40.000 -2920.000 -157.994
v -40.000 -2920.000 -197.000
v -40.000 -1088.718 -197.000
v -40.000 -1088.718 -157.994
f 333 334 339 338
f 334 335 340 339
f 335 336 341 340
f 336 337 342 341
f 334 333 336
f 336 335 334
f 341 338 339
f 339 340 341
o Mesh 15
v 0.000 -1000.000 0.000
v -1000.000 0.000 0.000
v -1000.000 0.000 -197.000
v 0.000 -1000.000 -197.000
v 0.000 -1000.000 0.000
v -40.000 -1016.569 0.000
v -1016.569 -40.000 0.000
v -1016.569 -40.000 -197.000
v -40.000 -1016.569 -197.000
v -40.000 -1016.569 0.000
f 343 344 349 348
f 344 345 350 349
f 345 346 351 350
f 346 347 352 351
f 344 343 346
f 346 345 344
f 351 348 349
f 349 350 351
o Mesh 16
v -984.634 -100.218 -158.421
v -100.218 -984.634 -158.421
v -100.218 -984.634 -197.000
v -984.634 -100.218 -197.000
v -984.634 -100.218 -158.421
v -973.309 -83.260 -157.994
v -83.260 -973.309 -157.994
v -83.260 -973.309 -197.000
v -973.309 -83.260 -197.000
v -973.309 -83.260 -157.994
f 353 354 359 358
f 354 355 360 359
f 355 356 361 360
f 356 357 362 361
f 354 353 356
f 356 355 354
f 361 358 359
f 359 360 361
o Mesh 17
v -1000.000 0.000 0.000
v -3000.000 0.000 0.000
v -3000.000 0.000 -197.000
v -1000.000 0.000 -197.000
v -1000.000 0.000 0.000
v -1016.569 -40.000 0.000
v -3000.000 -40.000 0.000
v -3000.000 -40.000 -197.000
v -1016.569 -40.000 -197.000
v -1016.569 -40.000 0.000
f 363 364 369 368
f 364 365 370 369
f 365 366 371 370
f 366 367 372 371
f 364 363 366
f 366 365 364
f 371 368 369
f 369 370 371
o Mesh 18
v -2920.000 -60.000 -158.497
v -1102.075 -60.000 -158.497
v -1102.075 -60.000 -197.000
v -2920.000 -60.000 -197.000
v -2920.000 -60.000 -158.497
v -2920.000 -40.000 -157.994
v -1088.718 -40.000 -157.994
v -1088.718 -40.000 -197.000
v -2920.000 -40.000 -197.000
v -2920.000 -40.000 -157.994
f 373 374 379 378
f 374 375 380 379
f 375 376 381 380
f 376 377 382 381
f 374 373 376
f 376 375 374
f 381 378 379
f 379 380 381
o Mesh 19
v -2871.589 -3000.000 0.000
v -2871.589 -3000.000 -428.788
v -3000.000 -2871.589 -428.788
v -3000.000 -2871.589 0.000
v -2871.589 -3000.000 0.000
v -2815.021 -3000.000 0.000
v -2815.021 -3000.000 -428.788
v -3000.000 -2815.021 -428.788
v -3000.000 -2815.021 0.000
v -2815.021 -3000.000 0.000
f 383 384 389 388
f 384 385 390 389
f 385 386 391 390
f 386 387 392 391
f 384 383 386
f 386 385 384
f 391 388 389
f 389 390 391
