# OBJ
# COMPAS
# version: 2.15.0
# precision: 3
# V F E: 416 880 1320

o Mesh 0
v -3040.000 -3040.000 -3650.000
v -3040.000 -3180.000 -3650.000
v -3180.000 -3180.000 -3638.000
v -3180.000 -3180.000 -3650.000
v -3180.000 -3040.000 -3638.000
v -3180.000 -3040.000 -3650.000
v -3040.000 -3040.000 -3638.000
v -3040.000 -3180.000 -3638.000
v -3050.500 -3162.000 -3638.000
v -3054.250 -3168.495 -3638.000
v -3061.750 -3168.495 -3638.000
v -3158.250 -3168.495 -3638.000
v -3154.500 -3162.000 -3638.000
v -3169.500 -3162.000 -3638.000
v -3165.750 -3168.495 -3638.000
v -3158.250 -3155.505 -3638.000
v -3061.750 -3051.505 -3638.000
v -3065.500 -3058.000 -3638.000
v -3050.500 -3058.000 -3638.000
v -3054.250 -3051.505 -3638.000
v -3054.250 -3064.495 -3638.000
v -3061.750 -3064.495 -3638.000
v -3154.500 -3058.000 -3638.000
v -3169.500 -3058.000 -3638.000
v -3165.750 -3064.495 -3638.000
v -3165.750 -3051.505 -3638.000
v -3158.250 -3051.505 -3638.000
v -3099.500 -3128.187 -3638.000
v -3089.000 -3110.000 -3638.000
v -3131.000 -3110.000 -3638.000
v -3099.500 -3091.813 -3638.000
v -3050.500 -3162.000 -3650.000
v -3054.250 -3168.495 -3650.000
v -3061.750 -3168.495 -3650.000
v -3158.250 -3168.495 -3650.000
v -3169.500 -3162.000 -3650.000
v -3165.750 -3168.495 -3650.000
v -3061.750 -3051.505 -3650.000
v -3050.500 -3058.000 -3650.000
v -3054.250 -3051.505 -3650.000
v -3169.500 -3058.000 -3650.000
v -3165.750 -3051.505 -3650.000
v -3158.250 -3051.505 -3650.000
v -3065.500 -3162.000 -3638.000
v -3065.500 -3162.000 -3650.000
v -3061.750 -3155.505 -3638.000
v -3061.750 -3155.505 -3650.000
v -3054.250 -3155.505 -3638.000
v -3054.250 -3155.505 -3650.000
v -3165.750 -3155.505 -3638.000
v -3165.750 -3155.505 -3650.000
v -3158.250 -3155.505 -3650.000
v -3154.500 -3162.000 -3650.000
v -3065.500 -3058.000 -3650.000
v -3054.250 -3064.495 -3650.000
v -3061.750 -3064.495 -3650.000
v -3158.250 -3064.495 -3638.000
v -3158.250 -3064.495 -3650.000
v -3165.750 -3064.495 -3650.000
v -3154.500 -3058.000 -3650.000
v -3057.000 -3110.000 -3512.000
v -3083.500 -3155.899 -3512.000
v -3136.500 -3155.899 -3512.000
v -3163.000 -3110.000 -3512.000
v -3136.500 -3064.101 -3512.000
v -3083.500 -3064.101 -3512.000
v -3057.000 -3110.000 -3500.000
v -3083.500 -3155.899 -3500.000
v -3136.500 -3155.899 -3500.000
v -3163.000 -3110.000 -3500.000
v -3136.500 -3064.101 -3500.000
v -3083.500 -3064.101 -3500.000
v -3078.250 -3110.000 -3512.000
v -3094.125 -3082.504 -3512.000
v -3125.875 -3082.504 -3512.000
v -3141.750 -3110.000 -3512.000
v -3125.875 -3137.496 -3512.000
v -3094.125 -3137.496 -3512.000
v -3094.125 -3082.504 -3542.000
v -3125.875 -3082.504 -3542.000
v -3141.750 -3110.000 -3542.000
v -3125.875 -3137.496 -3542.000
v -3094.125 -3137.496 -3542.000
v -3078.250 -3110.000 -3542.000
v -3095.000 -3110.000 -3542.000
v -3102.500 -3122.990 -3542.000
v -3117.500 -3122.990 -3542.000
v -3125.000 -3110.000 -3542.000
v -3117.500 -3097.010 -3542.000
v -3102.500 -3097.010 -3542.000
v -3095.000 -3110.000 -3586.000
v -3125.000 -3110.000 -3586.000
v -3102.500 -3097.010 -3586.000
v -3099.500 -3128.187 -3586.000
v -3120.500 -3128.187 -3586.000
v -3120.500 -3128.187 -3638.000
v -3131.000 -3110.000 -3586.000
v -3120.500 -3091.813 -3586.000
v -3120.500 -3091.813 -3638.000
v -3099.500 -3091.813 -3586.000
v -3089.000 -3110.000 -3586.000
v -3117.500 -3122.990 -3586.000
v -3102.500 -3122.990 -3586.000
v -3117.500 -3097.010 -3586.000
f 6 5 7
f 1 7 8
f 2 8 3
f 4 3 5
f 24 26 5
f 27 5 26
f 3 14 24
f 25 24 14
f 23 99 18
f 30 57 25
f 23 57 99
f 27 23 17
f 5 27 17
f 99 57 30
f 12 15 3
f 14 3 15
f 16 96 30
f 96 16 13
f 13 12 11
f 44 96 13
f 50 16 30
f 30 25 50
f 12 3 11
f 22 31 29
f 18 31 22
f 19 7 20
f 17 20 7
f 19 21 48
f 7 19 9
f 21 22 29
f 46 28 44
f 29 28 46
f 28 96 44
f 29 46 48
f 8 9 10
f 11 8 10
f 48 21 29
f 4 6 41
f 42 41 6
f 59 51 36
f 6 43 42
f 52 58 56
f 43 38 60
f 6 1 38
f 58 52 51
f 37 4 36
f 52 47 53
f 4 37 35
f 53 45 34
f 35 34 4
f 60 54 56
f 39 40 1
f 38 1 40
f 39 32 49
f 1 2 32
f 55 49 47
f 34 33 2
f 32 2 33
f 45 47 46
f 47 49 48
f 49 32 9
f 32 33 10
f 33 34 11
f 34 45 44
f 53 35 12
f 35 37 15
f 37 36 14
f 36 51 50
f 51 52 16
f 52 53 13
f 54 38 17
f 38 40 20
f 40 39 19
f 39 55 21
f 55 56 22
f 56 54 18
f 60 58 57
f 58 59 25
f 59 41 24
f 41 42 26
f 42 43 27
f 43 60 23
f 61 67 68
f 62 68 69
f 63 69 70
f 64 70 71
f 65 71 72
f 66 72 67
f 62 78 61
f 73 61 78
f 63 78 62
f 66 61 74
f 73 74 61
f 65 66 74
f 64 76 77
f 78 63 77
f 63 64 77
f 65 75 64
f 76 64 75
f 74 75 65
f 73 84 79
f 74 79 80
f 75 80 81
f 76 81 82
f 77 82 83
f 78 83 84
f 87 82 81
f 86 82 87
f 88 87 81
f 80 89 81
f 88 81 89
f 79 89 80
f 84 86 85
f 82 86 83
f 83 86 84
f 79 84 90
f 85 90 84
f 89 79 90
f 91 85 86
f 102 87 88
f 92 88 89
f 93 90 85
f 29 101 94
f 28 94 95
f 96 95 97
f 30 97 98
f 99 98 100
f 31 100 101
f 103 94 101
f 102 94 103
f 91 103 101
f 101 100 93
f 98 93 100
f 91 101 93
f 97 102 92
f 94 102 95
f 95 102 97
f 98 97 104
f 92 104 97
f 93 98 104
f 102 86 87
f 86 102 103
f 90 104 89
f 104 90 93
f 6 7 1
f 1 8 2
f 2 3 4
f 4 5 6
f 3 24 5
f 25 14 50
f 99 31 18
f 23 18 17
f 5 17 7
f 13 11 44
f 3 8 11
f 19 48 9
f 7 9 8
f 4 41 36
f 59 36 41
f 52 56 47
f 38 54 60
f 6 38 43
f 58 51 59
f 47 45 53
f 53 34 35
f 34 2 4
f 60 56 58
f 39 49 55
f 1 32 39
f 55 47 56
f 45 46 44
f 47 48 46
f 49 9 48
f 32 10 9
f 33 11 10
f 34 44 11
f 53 12 13
f 35 15 12
f 37 14 15
f 36 50 14
f 51 16 50
f 52 13 16
f 54 17 18
f 38 20 17
f 40 19 20
f 39 21 19
f 55 22 21
f 56 18 22
f 60 57 23
f 58 25 57
f 59 24 25
f 41 26 24
f 42 27 26
f 43 23 27
f 61 68 62
f 62 69 63
f 63 70 64
f 64 71 65
f 65 72 66
f 66 67 61
f 73 79 74
f 74 80 75
f 75 81 76
f 76 82 77
f 77 83 78
f 78 84 73
f 91 86 103
f 102 88 92
f 92 89 104
f 93 85 91
f 29 94 28
f 28 95 96
f 96 97 30
f 30 98 99
f 99 100 31
f 31 101 29
f 71 67 72
f 70 67 71
f 70 69 67
f 68 67 69
o Mesh 1
v -3040.000 3180.000 -3650.000
v -3040.000 3040.000 -3650.000
v -3180.000 3040.000 -3638.000
v -3180.000 3040.000 -3650.000
v -3180.000 3180.000 -3638.000
v -3180.000 3180.000 -3650.000
v -3040.000 3180.000 -3638.000
v -3040.000 3040.000 -3638.000
v -3050.500 3058.000 -3638.000
v -3054.250 3051.505 -3638.000
v -3061.750 3051.505 -3638.000
v -3158.250 3051.505 -3638.000
v -3154.500 3058.000 -3638.000
v -3169.500 3058.000 -3638.000
v -3165.750 3051.505 -3638.000
v -3158.250 3064.495 -3638.000
v -3061.750 3168.495 -3638.000
v -3065.500 3162.000 -3638.000
v -3050.500 3162.000 -3638.000
v -3054.250 3168.495 -3638.000
v -3054.250 3155.505 -3638.000
v -3061.750 3155.505 -3638.000
v -3154.500 3162.000 -3638.000
v -3169.500 3162.000 -3638.000
v -3165.750 3155.505 -3638.000
v -3165.750 3168.495 -3638.000
v -3158.250 3168.495 -3638.000
v -3099.500 3091.813 -3638.000
v -3089.000 3110.000 -3638.000
v -3131.000 3110.000 -3638.000
v -3099.500 3128.187 -3638.000
v -3050.500 3058.000 -3650.000
v -3054.250 3051.505 -3650.000
v -3061.750 3051.505 -3650.000
v -3158.250 3051.505 -3650.000
v -3169.500 3058.000 -3650.000
v -3165.750 3051.505 -3650.000
v -3061.750 3168.495 -3650.000
v -3050.500 3162.000 -3650.000
v -3054.250 3168.495 -3650.000
v -3169.500 3162.000 -3650.000
v -3165.750 3168.495 -3650.000
v -3158.250 3168.495 -3650.000
v -3065.500 3058.000 -3638.000
v -3065.500 3058.000 -3650.000
v -3061.750 3064.495 -3638.000
v -3061.750 3064.495 -3650.000
v -3054.250 3064.495 -3638.000
v -3054.250 3064.495 -3650.000
v -3165.750 3064.495 -3638.000
v -3165.750 3064.495 -3650.000
v -3158.250 3064.495 -3650.000
v -3154.500 3058.000 -3650.000
v -3065.500 3162.000 -3650.000
v -3054.250 3155.505 -3650.000
v -3061.750 3155.505 -3650.000
v -3158.250 3155.505 -3638.000
v -3158.250 3155.505 -3650.000
v -3165.750 3155.505 -3650.000
v -3154.500 3162.000 -3650.000
v -3057.000 3110.000 -3512.000
v -3083.500 3064.101 -3512.000
v -3136.500 3064.101 -3512.000
v -3163.000 3110.000 -3512.000
v -3136.500 3155.899 -3512.000
v -3083.500 3155.899 -3512.000
v -3057.000 3110.000 -3500.000
v -3083.500 3064.101 -3500.000
v -3136.500 3064.101 -3500.000
v -3163.000 3110.000 -3500.000
v -3136.500 3155.899 -3500.000
v -3083.500 3155.899 -3500.000
v -3078.250 3110.000 -3512.000
v -3094.125 3137.496 -3512.000
v -3125.875 3137.496 -3512.000
v -3141.750 3110.000 -3512.000
v -3125.875 3082.504 -3512.000
v -3094.125 3082.504 -3512.000
v -3094.125 3137.496 -3542.000
v -3125.875 3137.496 -3542.000
v -3141.750 3110.000 -3542.000
v -3125.875 3082.504 -3542.000
v -3094.125 3082.504 -3542.000
v -3078.250 3110.000 -3542.000
v -3095.000 3110.000 -3542.000
v -3102.500 3097.010 -3542.000
v -3117.500 3097.010 -3542.000
v -3125.000 3110.000 -3542.000
v -3117.500 3122.990 -3542.000
v -3102.500 3122.990 -3542.000
v -3095.000 3110.000 -3586.000
v -3125.000 3110.000 -3586.000
v -3102.500 3122.990 -3586.000
v -3099.500 3091.813 -3586.000
v -3120.500 3091.813 -3586.000
v -3120.500 3091.813 -3638.000
v -3131.000 3110.000 -3586.000
v -3120.500 3128.187 -3586.000
v -3120.500 3128.187 -3638.000
v -3099.500 3128.187 -3586.000
v -3089.000 3110.000 -3586.000
v -3117.500 3097.010 -3586.000
v -3102.500 3097.010 -3586.000
v -3117.500 3122.990 -3586.000
f 110 109 111
f 105 111 112
f 106 112 107
f 108 107 109
f 128 130 109
f 131 109 130
f 107 118 128
f 129 128 118
f 127 203 122
f 134 161 129
f 127 161 203
f 131 127 121
f 109 131 121
f 203 161 134
f 116 119 107
f 118 107 119
f 120 200 134
f 200 120 117
f 117 116 115
f 148 200 117
f 154 120 134
f 134 129 154
f 116 107 115
f 126 135 133
f 122 135 126
f 123 111 124
f 121 124 111
f 123 125 152
f 111 123 113
f 125 126 133
f 150 132 148
f 133 132 150
f 132 200 148
f 133 150 152
f 112 113 114
f 115 112 114
f 152 125 133
f 108 110 145
f 146 145 110
f 163 155 140
f 110 147 146
f 156 162 160
f 147 142 164
f 110 105 142
f 162 156 155
f 141 108 140
f 156 151 157
f 108 141 139
f 157 149 138
f 139 138 108
f 164 158 160
f 143 144 105
f 142 105 144
f 143 136 153
f 105 106 136
f 159 153 151
f 138 137 106
f 136 106 137
f 149 151 150
f 151 153 152
f 153 136 113
f 136 137 114
f 137 138 115
f 138 149 148
f 157 139 116
f 139 141 119
f 141 140 118
f 140 155 154
f 155 156 120
f 156 157 117
f 158 142 121
f 142 144 124
f 144 143 123
f 143 159 125
f 159 160 126
f 160 158 122
f 164 162 161
f 162 163 129
f 163 145 128
f 145 146 130
f 146 147 131
f 147 164 127
f 165 171 172
f 166 172 173
f 167 173 174
f 168 174 175
f 169 175 176
f 170 176 171
f 166 182 165
f 177 165 182
f 167 182 166
f 170 165 178
f 177 178 165
f 169 170 178
f 168 180 181
f 182 167 181
f 167 168 181
f 169 179 168
f 180 168 179
f 178 179 169
f 177 188 183
f 178 183 184
f 179 184 185
f 180 185 186
f 181 186 187
f 182 187 188
f 191 186 185
f 190 186 191
f 192 191 185
f 184 193 185
f 192 185 193
f 183 193 184
f 188 190 189
f 186 190 187
f 187 190 188
f 183 188 194
f 189 194 188
f 193 183 194
f 195 189 190
f 206 191 192
f 196 192 193
f 197 194 189
f 133 205 198
f 132 198 199
f 200 199 201
f 134 201 202
f 203 202 204
f 135 204 205
f 207 198 205
f 206 198 207
f 195 207 205
f 205 204 197
f 202 197 204
f 195 205 197
f 201 206 196
f 198 206 199
f 199 206 201
f 202 201 208
f 196 208 201
f 197 202 208
f 206 190 191
f 190 206 207
f 194 208 193
f 208 194 197
f 110 111 105
f 105 112 106
f 106 107 108
f 108 109 110
f 107 128 109
f 129 118 154
f 203 135 122
f 127 122 121
f 109 121 111
f 117 115 148
f 107 112 115
f 123 152 113
f 111 113 112
f 108 145 140
f 163 140 145
f 156 160 151
f 142 158 164
f 110 142 147
f 162 155 163
f 151 149 157
f 157 138 139
f 138 106 108
f 164 160 162
f 143 153 159
f 105 136 143
f 159 151 160
f 149 150 148
f 151 152 150
f 153 113 152
f 136 114 113
f 137 115 114
f 138 148 115
f 157 116 117
f 139 119 116
f 141 118 119
f 140 154 118
f 155 120 154
f 156 117 120
f 158 121 122
f 142 124 121
f 144 123 124
f 143 125 123
f 159 126 125
f 160 122 126
f 164 161 127
f 162 129 161
f 163 128 129
f 145 130 128
f 146 131 130
f 147 127 131
f 165 172 166
f 166 173 167
f 167 174 168
f 168 175 169
f 169 176 170
f 170 171 165
f 177 183 178
f 178 184 179
f 179 185 180
f 180 186 181
f 181 187 182
f 182 188 177
f 195 190 207
f 206 192 196
f 196 193 208
f 197 189 195
f 133 198 132
f 132 199 200
f 200 201 134
f 134 202 203
f 203 204 135
f 135 205 133
f 175 171 176
f 174 171 175
f 174 173 171
f 172 171 173
o Mesh 2
v 3180.000 3180.000 -3650.000
v 3180.000 3040.000 -3650.000
v 3040.000 3040.000 -3638.000
v 3040.000 3040.000 -3650.000
v 3040.000 3180.000 -3638.000
v 3040.000 3180.000 -3650.000
v 3180.000 3180.000 -3638.000
v 3180.000 3040.000 -3638.000
v 3169.500 3058.000 -3638.000
v 3165.750 3051.505 -3638.000
v 3158.250 3051.505 -3638.000
v 3061.750 3051.505 -3638.000
v 3065.500 3058.000 -3638.000
v 3050.500 3058.000 -3638.000
v 3054.250 3051.505 -3638.000
v 3061.750 3064.495 -3638.000
v 3158.250 3168.495 -3638.000
v 3154.500 3162.000 -3638.000
v 3169.500 3162.000 -3638.000
v 3165.750 3168.495 -3638.000
v 3165.750 3155.505 -3638.000
v 3158.250 3155.505 -3638.000
v 3065.500 3162.000 -3638.000
v 3050.500 3162.000 -3638.000
v 3054.250 3155.505 -3638.000
v 3054.250 3168.495 -3638.000
v 3061.750 3168.495 -3638.000
v 3120.500 3091.813 -3638.000
v 3131.000 3110.000 -3638.000
v 3089.000 3110.000 -3638.000
v 3120.500 3128.187 -3638.000
v 3169.500 3058.000 -3650.000
v 3165.750 3051.505 -3650.000
v 3158.250 3051.505 -3650.000
v 3061.750 3051.505 -3650.000
v 3050.500 3058.000 -3650.000
v 3054.250 3051.505 -3650.000
v 3158.250 3168.495 -3650.000
v 3169.500 3162.000 -3650.000
v 3165.750 3168.495 -3650.000
v 3050.500 3162.000 -3650.000
v 3054.250 3168.495 -3650.000
v 3061.750 3168.495 -3650.000
v 3154.500 3058.000 -3638.000
v 3154.500 3058.000 -3650.000
v 3158.250 3064.495 -3638.000
v 3158.250 3064.495 -3650.000
v 3165.750 3064.495 -3638.000
v 3165.750 3064.495 -3650.000
v 3054.250 3064.495 -3638.000
v 3054.250 3064.495 -3650.000
v 3061.750 3064.495 -3650.000
v 3065.500 3058.000 -3650.000
v 3154.500 3162.000 -3650.000
v 3165.750 3155.505 -3650.000
v 3158.250 3155.505 -3650.000
v 3061.750 3155.505 -3638.000
v 3061.750 3155.505 -3650.000
v 3054.250 3155.505 -3650.000
v 3065.500 3162.000 -3650.000
v 3163.000 3110.000 -3512.000
v 3136.500 3064.101 -3512.000
v 3083.500 3064.101 -3512.000
v 3057.000 3110.000 -3512.000
v 3083.500 3155.899 -3512.000
v 3136.500 3155.899 -3512.000
v 3163.000 3110.000 -3500.000
v 3136.500 3064.101 -3500.000
v 3083.500 3064.101 -3500.000
v 3057.000 3110.000 -3500.000
v 3083.500 3155.899 -3500.000
v 3136.500 3155.899 -3500.000
v 3141.750 3110.000 -3512.000
v 3125.875 3137.496 -3512.000
v 3094.125 3137.496 -3512.000
v 3078.250 3110.000 -3512.000
v 3094.125 3082.504 -3512.000
v 3125.875 3082.504 -3512.000
v 3125.875 3137.496 -3542.000
v 3094.125 3137.496 -3542.000
v 3078.250 3110.000 -3542.000
v 3094.125 3082.504 -3542.000
v 3125.875 3082.504 -3542.000
v 3141.750 3110.000 -3542.000
v 3125.000 3110.000 -3542.000
v 3117.500 3097.010 -3542.000
v 3102.500 3097.010 -3542.000
v 3095.000 3110.000 -3542.000
v 3102.500 3122.990 -3542.000
v 3117.500 3122.990 -3542.000
v 3125.000 3110.000 -3586.000
v 3095.000 3110.000 -3586.000
v 3117.500 3122.990 -3586.000
v 3120.500 3091.813 -3586.000
v 3099.500 3091.813 -3586.000
v 3099.500 3091.813 -3638.000
v 3089.000 3110.000 -3586.000
v 3099.500 3128.187 -3586.000
v 3099.500 3128.187 -3638.000
v 3120.500 3128.187 -3586.000
v 3131.000 3110.000 -3586.000
v 3102.500 3097.010 -3586.000
v 3117.500 3097.010 -3586.000
v 3102.500 3122.990 -3586.000
f 214 213 215
f 209 215 216
f 210 216 211
f 212 211 213
f 232 234 213
f 235 213 234
f 211 222 232
f 233 232 222
f 231 307 226
f 238 265 233
f 231 265 307
f 235 231 225
f 213 235 225
f 307 265 238
f 220 223 211
f 222 211 223
f 224 304 238
f 304 224 221
f 221 220 219
f 252 304 221
f 258 224 238
f 238 233 258
f 220 211 219
f 230 239 237
f 226 239 230
f 227 215 228
f 225 228 215
f 227 229 256
f 215 227 217
f 229 230 237
f 254 236 252
f 237 236 254
f 236 304 252
f 237 254 256
f 216 217 218
f 219 216 218
f 256 229 237
f 212 214 249
f 250 249 214
f 267 259 244
f 214 251 250
f 260 266 264
f 251 246 268
f 214 209 246
f 266 260 259
f 245 212 244
f 260 255 261
f 212 245 243
f 261 253 242
f 243 242 212
f 268 262 264
f 247 248 209
f 246 209 248
f 247 240 257
f 209 210 240
f 263 257 255
f 242 241 210
f 240 210 241
f 253 255 254
f 255 257 256
f 257 240 217
f 240 241 218
f 241 242 219
f 242 253 252
f 261 243 220
f 243 245 223
f 245 244 222
f 244 259 258
f 259 260 224
f 260 261 221
f 262 246 225
f 246 248 228
f 248 247 227
f 247 263 229
f 263 264 230
f 264 262 226
f 268 266 265
f 266 267 233
f 267 249 232
f 249 250 234
f 250 251 235
f 251 268 231
f 269 275 276
f 270 276 277
f 271 277 278
f 272 278 279
f 273 279 280
f 274 280 275
f 270 286 269
f 281 269 286
f 271 286 270
f 274 269 282
f 281 282 269
f 273 274 282
f 272 284 285
f 286 271 285
f 271 272 285
f 273 283 272
f 284 272 283
f 282 283 273
f 281 292 287
f 282 287 288
f 283 288 289
f 284 289 290
f 285 290 291
f 286 291 292
f 295 290 289
f 294 290 295
f 296 295 289
f 288 297 289
f 296 289 297
f 287 297 288
f 292 294 293
f 290 294 291
f 291 294 292
f 287 292 298
f 293 298 292
f 297 287 298
f 299 293 294
f 310 295 296
f 300 296 297
f 301 298 293
f 237 309 302
f 236 302 303
f 304 303 305
f 238 305 306
f 307 306 308
f 239 308 309
f 311 302 309
f 310 302 311
f 299 311 309
f 309 308 301
f 306 301 308
f 299 309 301
f 305 310 300
f 302 310 303
f 303 310 305
f 306 305 312
f 300 312 305
f 301 306 312
f 310 294 295
f 294 310 311
f 298 312 297
f 312 298 301
f 214 215 209
f 209 216 210
f 210 211 212
f 212 213 214
f 211 232 213
f 233 222 258
f 307 239 226
f 231 226 225
f 213 225 215
f 221 219 252
f 211 216 219
f 227 256 217
f 215 217 216
f 212 249 244
f 267 244 249
f 260 264 255
f 246 262 268
f 214 246 251
f 266 259 267
f 255 253 261
f 261 242 243
f 242 210 212
f 268 264 266
f 247 257 263
f 209 240 247
f 263 255 264
f 253 254 252
f 255 256 254
f 257 217 256
f 240 218 217
f 241 219 218
f 242 252 219
f 261 220 221
f 243 223 220
f 245 222 223
f 244 258 222
f 259 224 258
f 260 221 224
f 262 225 226
f 246 228 225
f 248 227 228
f 247 229 227
f 263 230 229
f 264 226 230
f 268 265 231
f 266 233 265
f 267 232 233
f 249 234 232
f 250 235 234
f 251 231 235
f 269 276 270
f 270 277 271
f 271 278 272
f 272 279 273
f 273 280 274
f 274 275 269
f 281 287 282
f 282 288 283
f 283 289 284
f 284 290 285
f 285 291 286
f 286 292 281
f 299 294 311
f 310 296 300
f 300 297 312
f 301 293 299
f 237 302 236
f 236 303 304
f 304 305 238
f 238 306 307
f 307 308 239
f 239 309 237
f 279 275 280
f 278 275 279
f 278 277 275
f 276 275 277
o Mesh 3
v 3180.000 -3040.000 -3650.000
v 3180.000 -3180.000 -3650.000
v 3040.000 -3180.000 -3638.000
v 3040.000 -3180.000 -3650.000
v 3040.000 -3040.000 -3638.000
v 3040.000 -3040.000 -3650.000
v 3180.000 -3040.000 -3638.000
v 3180.000 -3180.000 -3638.000
v 3169.500 -3162.000 -3638.000
v 3165.750 -3168.495 -3638.000
v 3158.250 -3168.495 -3638.000
v 3061.750 -3168.495 -3638.000
v 3065.500 -3162.000 -3638.000
v 3050.500 -3162.000 -3638.000
v 3054.250 -3168.495 -3638.000
v 3061.750 -3155.505 -3638.000
v 3158.250 -3051.505 -3638.000
v 3154.500 -3058.000 -3638.000
v 3169.500 -3058.000 -3638.000
v 3165.750 -3051.505 -3638.000
v 3165.750 -3064.495 -3638.000
v 3158.250 -3064.495 -3638.000
v 3065.500 -3058.000 -3638.000
v 3050.500 -3058.000 -3638.000
v 3054.250 -3064.495 -3638.000
v 3054.250 -3051.505 -3638.000
v 3061.750 -3051.505 -3638.000
v 3120.500 -3128.187 -3638.000
v 3131.000 -3110.000 -3638.000
v 3089.000 -3110.000 -3638.000
v 3120.500 -3091.813 -3638.000
v 3169.500 -3162.000 -3650.000
v 3165.750 -3168.495 -3650.000
v 3158.250 -3168.495 -3650.000
v 3061.750 -3168.495 -3650.000
v 3050.500 -3162.000 -3650.000
v 3054.250 -3168.495 -3650.000
v 3158.250 -3051.505 -3650.000
v 3169.500 -3058.000 -3650.000
v 3165.750 -3051.505 -3650.000
v 3050.500 -3058.000 -3650.000
v 3054.250 -3051.505 -3650.000
v 3061.750 -3051.505 -3650.000
v 3154.500 -3162.000 -3638.000
v 3154.500 -3162.000 -3650.000
v 3158.250 -3155.505 -3638.000
v 3158.250 -3155.505 -3650.000
v 3165.750 -3155.505 -3638.000
v 3165.750 -3155.505 -3650.000
v 3054.250 -3155.505 -3638.000
v 3054.250 -3155.505 -3650.000
v 3061.750 -3155.505 -3650.000
v 3065.500 -3162.000 -3650.000
v 3154.500 -3058.000 -3650.000
v 3165.750 -3064.495 -3650.000
v 3158.250 -3064.495 -3650.000
v 3061.750 -3064.495 -3638.000
v 3061.750 -3064.495 -3650.000
v 3054.250 -3064.495 -3650.000
v 3065.500 -3058.000 -3650.000
v 3163.000 -3110.000 -3512.000
v 3136.500 -3155.899 -3512.000
v 3083.500 -3155.899 -3512.000
v 3057.000 -3110.000 -3512.000
v 3083.500 -3064.101 -3512.000
v 3136.500 -3064.101 -3512.000
v 3163.000 -3110.000 -3500.000
v 3136.500 -3155.899 -3500.000
v 3083.500 -3155.899 -3500.000
v 3057.000 -3110.000 -3500.000
v 3083.500 -3064.101 -3500.000
v 3136.500 -3064.101 -3500.000
v 3141.750 -3110.000 -3512.000
v 3125.875 -3082.504 -3512.000
v 3094.125 -3082.504 -3512.000
v 3078.250 -3110.000 -3512.000
v 3094.125 -3137.496 -3512.000
v 3125.875 -3137.496 -3512.000
v 3125.875 -3082.504 -3542.000
v 3094.125 -3082.504 -3542.000
v 3078.250 -3110.000 -3542.000
v 3094.125 -3137.496 -3542.000
v 3125.875 -3137.496 -3542.000
v 3141.750 -3110.000 -3542.000
v 3125.000 -3110.000 -3542.000
v 3117.500 -3122.990 -3542.000
v 3102.500 -3122.990 -3542.000
v 3095.000 -3110.000 -3542.000
v 3102.500 -3097.010 -3542.000
v 3117.500 -3097.010 -3542.000
v 3125.000 -3110.000 -3586.000
v 3095.000 -3110.000 -3586.000
v 3117.500 -3097.010 -3586.000
v 3120.500 -3128.187 -3586.000
v 3099.500 -3128.187 -3586.000
v 3099.500 -3128.187 -3638.000
v 3089.000 -3110.000 -3586.000
v 3099.500 -3091.813 -3586.000
v 3099.500 -3091.813 -3638.000
v 3120.500 -3091.813 -3586.000
v 3131.000 -3110.000 -3586.000
v 3102.500 -3122.990 -3586.000
v 3117.500 -3122.990 -3586.000
v 3102.500 -3097.010 -3586.000
f 318 317 319
f 313 319 320
f 314 320 315
f 316 315 317
f 336 338 317
f 339 317 338
f 315 326 336
f 337 336 326
f 335 411 330
f 342 369 337
f 335 369 411
f 339 335 329
f 317 339 329
f 411 369 342
f 324 327 315
f 326 315 327
f 328 408 342
f 408 328 325
f 325 324 323
f 356 408 325
f 362 328 342
f 342 337 362
f 324 315 323
f 334 343 341
f 330 343 334
f 331 319 332
f 329 332 319
f 331 333 360
f 319 331 321
f 333 334 341
f 358 340 356
f 341 340 358
f 340 408 356
f 341 358 360
f 320 321 322
f 323 320 322
f 360 333 341
f 316 318 353
f 354 353 318
f 371 363 348
f 318 355 354
f 364 370 368
f 355 350 372
f 318 313 350
f 370 364 363
f 349 316 348
f 364 359 365
f 316 349 347
f 365 357 346
f 347 346 316
f 372 366 368
f 351 352 313
f 350 313 352
f 351 344 361
f 313 314 344
f 367 361 359
f 346 345 314
f 344 314 345
f 357 359 358
f 359 361 360
f 361 344 321
f 344 345 322
f 345 346 323
f 346 357 356
f 365 347 324
f 347 349 327
f 349 348 326
f 348 363 362
f 363 364 328
f 364 365 325
f 366 350 329
f 350 352 332
f 352 351 331
f 351 367 333
f 367 368 334
f 368 366 330
f 372 370 369
f 370 371 337
f 371 353 336
f 353 354 338
f 354 355 339
f 355 372 335
f 373 379 380
f 374 380 381
f 375 381 382
f 376 382 383
f 377 383 384
f 378 384 379
f 374 390 373
f 385 373 390
f 375 390 374
f 378 373 386
f 385 386 373
f 377 378 386
f 376 388 389
f 390 375 389
f 375 376 389
f 377 387 376
f 388 376 387
f 386 387 377
f 385 396 391
f 386 391 392
f 387 392 393
f 388 393 394
f 389 394 395
f 390 395 396
f 399 394 393
f 398 394 399
f 400 399 393
f 392 401 393
f 400 393 401
f 391 401 392
f 396 398 397
f 394 398 395
f 395 398 396
f 391 396 402
f 397 402 396
f 401 391 402
f 403 397 398
f 414 399 400
f 404 400 401
f 405 402 397
f 341 413 406
f 340 406 407
f 408 407 409
f 342 409 410
f 411 410 412
f 343 412 413
f 415 406 413
f 414 406 415
f 403 415 413
f 413 412 405
f 410 405 412
f 403 413 405
f 409 414 404
f 406 414 407
f 407 414 409
f 410 409 416
f 404 416 409
f 405 410 416
f 414 398 399
f 398 414 415
f 402 416 401
f 416 402 405
f 318 319 313
f 313 320 314
f 314 315 316
f 316 317 318
f 315 336 317
f 337 326 362
f 411 343 330
f 335 330 329
f 317 329 319
f 325 323 356
f 315 320 323
f 331 360 321
f 319 321 320
f 316 353 348
f 371 348 353
f 364 368 359
f 350 366 372
f 318 350 355
f 370 363 371
f 359 357 365
f 365 346 347
f 346 314 316
f 372 368 370
f 351 361 367
f 313 344 351
f 367 359 368
f 357 358 356
f 359 360 358
f 361 321 360
f 344 322 321
f 345 323 322
f 346 356 323
f 365 324 325
f 347 327 324
f 349 326 327
f 348 362 326
f 363 328 362
f 364 325 328
f 366 329 330
f 350 332 329
f 352 331 332
f 351 333 331
f 367 334 333
f 368 330 334
f 372 369 335
f 370 337 369
f 371 336 337
f 353 338 336
f 354 339 338
f 355 335 339
f 373 380 374
f 374 381 375
f 375 382 376
f 376 383 377
f 377 384 378
f 378 379 373
f 385 391 386
f 386 392 387
f 387 393 388
f 388 394 389
f 389 395 390
f 390 396 385
f 403 398 415
f 414 400 404
f 404 401 416
f 405 397 403
f 341 406 340
f 340 407 408
f 408 409 342
f 342 410 411
f 411 412 343
f 343 413 341
f 383 379 384
f 382 379 383
f 382 381 379
f 380 379 381
