# compas_tf assembly step
mtllib assembly_step1_preview.mtl

o tsections_0_0
usemtl mat_b8bdc2ff
v -2676.9962 -127.0000 694.7934
v -2116.6667 -127.0000 511.5833
v -1693.3333 -127.0000 398.3333
v -1270.0000 -127.0000 310.2500
v -846.6667 -127.0000 247.3333
v -423.3333 -127.0000 209.5833
v -60.0000 -127.0000 198.7835
v -60.0000 -127.0000 171.7715
v -424.9349 -127.0000 182.6190
v -849.8531 -127.0000 220.5103
v -1274.7386 -127.0000 283.6577
v -1699.5772 -127.0000 372.0542
v -2124.3567 -127.0000 485.6911
v -2681.0128 -127.0000 667.7001
v -2681.0128 -127.0000 667.7001
v -2676.9962 -127.0000 694.7934
v -2681.0128 -100.0000 667.7001
v -2676.9962 -100.0000 694.7934
v -2681.0128 -100.0000 667.7001
v -2124.3567 -100.0000 485.6911
v -1699.5772 -100.0000 372.0542
v -1274.7386 -100.0000 283.6577
v -849.8531 -100.0000 220.5103
v -424.9349 -100.0000 182.6190
v -60.0000 -100.0000 171.7715
v -60.0000 -100.0000 198.7835
v -423.3333 -100.0000 209.5833
v -846.6667 -100.0000 247.3333
v -1270.0000 -100.0000 310.2500
v -1693.3333 -100.0000 398.3333
v -2116.6667 -100.0000 511.5833
v -2676.9962 -100.0000 694.7934
v -2124.3567 -127.0000 485.6911
v -2681.0128 -127.0000 667.7001
v -2124.3567 -100.0000 485.6911
v -2681.0128 -100.0000 667.7001
v -1699.5772 -127.0000 372.0542
v -2124.3567 -127.0000 485.6911
v -1699.5772 -100.0000 372.0542
v -2124.3567 -100.0000 485.6911
v -1274.7386 -127.0000 283.6577
v -1699.5772 -127.0000 372.0542
v -1274.7386 -100.0000 283.6577
v -1699.5772 -100.0000 372.0542
v -849.8531 -127.0000 220.5103
v -1274.7386 -127.0000 283.6577
v -849.8531 -100.0000 220.5103
v -1274.7386 -100.0000 283.6577
v -424.9349 -127.0000 182.6190
v -849.8531 -127.0000 220.5103
v -424.9349 -100.0000 182.6190
v -849.8531 -100.0000 220.5103
v -60.0000 -127.0000 171.7715
v -424.9349 -127.0000 182.6190
v -60.0000 -100.0000 171.7715
v -424.9349 -100.0000 182.6190
v -60.0000 -127.0000 198.7835
v -60.0000 -127.0000 171.7715
v -60.0000 -100.0000 198.7835
v -60.0000 -100.0000 171.7715
v -423.3333 -127.0000 209.5833
v -60.0000 -127.0000 198.7835
v -423.3333 -100.0000 209.5833
v -60.0000 -100.0000 198.7835
v -846.6667 -127.0000 247.3333
v -423.3333 -127.0000 209.5833
v -846.6667 -100.0000 247.3333
v -423.3333 -100.0000 209.5833
v -1270.0000 -127.0000 310.2500
v -846.6667 -127.0000 247.3333
v -1270.0000 -100.0000 310.2500
v -846.6667 -100.0000 247.3333
v -1693.3333 -127.0000 398.3333
v -1270.0000 -127.0000 310.2500
v -1693.3333 -100.0000 398.3333
v -1270.0000 -100.0000 310.2500
v -2116.6667 -127.0000 511.5833
v -1693.3333 -127.0000 398.3333
v -2116.6667 -100.0000 511.5833
v -1693.3333 -100.0000 398.3333
v -2676.9962 -127.0000 694.7934
v -2116.6667 -127.0000 511.5833
v -2676.9962 -100.0000 694.7934
v -2116.6667 -100.0000 511.5833
f 2 14 13
f 2 1 14
f 3 13 12
f 3 2 13
f 4 12 11
f 4 3 12
f 5 11 10
f 5 4 11
f 6 10 9
f 6 5 10
f 7 9 8
f 7 6 9
f 16 17 15
f 16 18 17
f 31 19 32
f 20 19 31
f 30 20 31
f 21 20 30
f 29 21 30
f 22 21 29
f 28 22 29
f 23 22 28
f 27 23 28
f 24 23 27
f 26 24 27
f 25 24 26
f 35 33 34
f 35 34 36
f 39 37 38
f 39 38 40
f 43 41 42
f 43 42 44
f 47 45 46
f 47 46 48
f 51 49 50
f 51 50 52
f 55 53 54
f 55 54 56
f 60 59 57
f 58 60 57
f 63 61 62
f 63 62 64
f 67 65 66
f 67 66 68
f 69 70 72
f 71 69 72
f 75 73 74
f 75 74 76
f 79 77 78
f 79 78 80
f 83 81 82
f 83 82 84

o tsections_1_0
usemtl mat_b8bdc2ff
v -2097.2367 -552.9895 511.5833
v -1673.9033 -841.7195 398.3333
v -1250.5700 -1130.4495 310.2500
v -827.2367 -1419.1795 247.3333
v -403.9033 -1707.9095 209.5833
v -60.0000 -1942.4652 199.3610
v -60.0000 -1942.4652 171.7715
v -424.9349 -1693.5652 182.6190
v -849.8531 -1403.7542 220.5103
v -1274.7386 -1113.9656 283.6577
v -1699.5772 -824.2089 372.0542
v -2124.3567 -534.4925 485.6911
v -2681.0128 -154.8312 667.7001
v -2676.0979 -158.1833 700.8527
v -2676.0979 -158.1833 700.8527
v -2097.2367 -552.9895 511.5833
v -2676.9962 -190.2527 694.7934
v -2116.6667 -572.4195 511.5833
v -2676.9962 -190.2527 694.7934
v -2681.0128 -187.5132 667.7001
v -2124.3567 -567.1745 485.6911
v -1699.5772 -856.8910 372.0542
v -1274.7386 -1146.6476 283.6577
v -849.8531 -1436.4363 220.5103
v -424.9349 -1726.2472 182.6190
v -60.0000 -1975.1472 171.7715
v -60.0000 -1975.1472 198.7835
v -423.3333 -1727.3395 209.5833
v -846.6667 -1438.6095 247.3333
v -1270.0000 -1149.8795 310.2500
v -1693.3333 -861.1495 398.3333
v -2116.6667 -572.4195 511.5833
v -2681.0128 -154.8312 667.7001
v -2676.0979 -158.1833 700.8527
v -2681.0128 -187.5132 667.7001
v -2676.9962 -190.2527 694.7934
v -2124.3567 -534.4925 485.6911
v -2681.0128 -154.8312 667.7001
v -2124.3567 -567.1745 485.6911
v -2681.0128 -187.5132 667.7001
v -1699.5772 -824.2089 372.0542
v -2124.3567 -534.4925 485.6911
v -1699.5772 -856.8910 372.0542
v -2124.3567 -567.1745 485.6911
v -1274.7386 -1113.9656 283.6577
v -1699.5772 -824.2089 372.0542
v -1274.7386 -1146.6476 283.6577
v -1699.5772 -856.8910 372.0542
v -849.8531 -1403.7542 220.5103
v -1274.7386 -1113.9656 283.6577
v -849.8531 -1436.4363 220.5103
v -1274.7386 -1146.6476 283.6577
v -424.9349 -1693.5652 182.6190
v -849.8531 -1403.7542 220.5103
v -424.9349 -1726.2472 182.6190
v -849.8531 -1436.4363 220.5103
v -60.0000 -1942.4652 171.7715
v -424.9349 -1693.5652 182.6190
v -60.0000 -1975.1472 171.7715
v -424.9349 -1726.2472 182.6190
v -60.0000 -1942.4652 199.3610
v -60.0000 -1942.4652 171.7715
v -60.0000 -1975.1472 198.7835
v -60.0000 -1975.1472 171.7715
v -403.9033 -1707.9095 209.5833
v -60.0000 -1942.4652 199.3610
v -423.3333 -1727.3395 209.5833
v -60.0000 -1975.1472 198.7835
v -827.2367 -1419.1795 247.3333
v -403.9033 -1707.9095 209.5833
v -846.6667 -1438.6095 247.3333
v -423.3333 -1727.3395 209.5833
v -1250.5700 -1130.4495 310.2500
v -827.2367 -1419.1795 247.3333
v -1270.0000 -1149.8795 310.2500
v -846.6667 -1438.6095 247.3333
v -1673.9033 -841.7195 398.3333
v -1250.5700 -1130.4495 310.2500
v -1693.3333 -861.1495 398.3333
v -1270.0000 -1149.8795 310.2500
v -2097.2367 -552.9895 511.5833
v -1673.9033 -841.7195 398.3333
v -2116.6667 -572.4195 511.5833
v -1693.3333 -861.1495 398.3333
f 96 97 98
f 85 96 98
f 95 96 85
f 86 95 85
f 94 95 86
f 87 94 86
f 93 94 87
f 88 93 87
f 92 88 89
f 92 93 88
f 91 89 90
f 91 92 89
f 100 99 101
f 100 101 102
f 112 110 111
f 109 110 112
f 113 109 112
f 108 109 113
f 114 108 113
f 107 108 114
f 115 107 114
f 106 107 115
f 116 106 115
f 105 106 116
f 104 116 103
f 104 105 116
f 119 118 117
f 119 120 118
f 124 121 123
f 122 121 124
f 128 125 127
f 126 125 128
f 132 129 131
f 130 129 132
f 136 133 135
f 134 133 136
f 140 137 139
f 138 137 140
f 144 141 143
f 142 141 144
f 147 146 145
f 147 148 146
f 150 149 151
f 150 151 152
f 153 156 154
f 155 156 153
f 157 160 158
f 159 160 157
f 161 164 162
f 163 164 161
f 165 168 166
f 167 168 165

o tsections_2_0
usemtl mat_b8bdc2ff
v -2739.6040 -252.8604 694.7934
v -2179.2744 -635.0272 511.5833
v -1755.9411 -923.7573 398.3333
v -1332.6078 -1212.4873 310.2500
v -909.2744 -1501.2173 247.3333
v -485.9411 -1789.9473 209.5833
v -122.6078 -2037.7550 198.7835
v -122.6078 -2037.7550 171.7715
v -487.5427 -1788.8550 182.6190
v -912.4609 -1499.0440 220.5103
v -1337.3464 -1209.2554 283.6577
v -1762.1849 -919.4987 372.0542
v -2186.9645 -629.7823 485.6911
v -2743.6206 -250.1209 667.7001
v -2743.6206 -250.1209 667.7001
v -2739.6040 -252.8604 694.7934
v -2724.1906 -230.6909 667.7001
v -2720.1740 -233.4304 694.7934
v -2724.1906 -230.6909 667.7001
v -2167.5345 -610.3523 485.6911
v -1742.7549 -900.0687 372.0542
v -1317.9164 -1189.8254 283.6577
v -893.0309 -1479.6140 220.5103
v -468.1127 -1769.4250 182.6190
v -103.1778 -2018.3250 171.7715
v -103.1778 -2018.3250 198.7835
v -466.5111 -1770.5173 209.5833
v -889.8444 -1481.7873 247.3333
v -1313.1778 -1193.0573 310.2500
v -1736.5111 -904.3273 398.3333
v -2159.8444 -615.5972 511.5833
v -2720.1740 -233.4304 694.7934
v -2186.9645 -629.7823 485.6911
v -2743.6206 -250.1209 667.7001
v -2167.5345 -610.3523 485.6911
v -2724.1906 -230.6909 667.7001
v -1762.1849 -919.4987 372.0542
v -2186.9645 -629.7823 485.6911
v -1742.7549 -900.0687 372.0542
v -2167.5345 -610.3523 485.6911
v -1337.3464 -1209.2554 283.6577
v -1762.1849 -919.4987 372.0542
v -1317.9164 -1189.8254 283.6577
v -1742.7549 -900.0687 372.0542
v -912.4609 -1499.0440 220.5103
v -1337.3464 -1209.2554 283.6577
v -893.0309 -1479.6140 220.5103
v -1317.9164 -1189.8254 283.6577
v -487.5427 -1788.8550 182.6190
v -912.4609 -1499.0440 220.5103
v -468.1127 -1769.4250 182.6190
v -893.0309 -1479.6140 220.5103
v -122.6078 -2037.7550 171.7715
v -487.5427 -1788.8550 182.6190
v -103.1778 -2018.3250 171.7715
v -468.1127 -1769.4250 182.6190
v -122.6078 -2037.7550 198.7835
v -122.6078 -2037.7550 171.7715
v -103.1778 -2018.3250 198.7835
v -103.1778 -2018.3250 171.7715
v -485.9411 -1789.9473 209.5833
v -122.6078 -2037.7550 198.7835
v -466.5111 -1770.5173 209.5833
v -103.1778 -2018.3250 198.7835
v -909.2744 -1501.2173 247.3333
v -485.9411 -1789.9473 209.5833
v -889.8444 -1481.7873 247.3333
v -466.5111 -1770.5173 209.5833
v -1332.6078 -1212.4873 310.2500
v -909.2744 -1501.2173 247.3333
v -1313.1778 -1193.0573 310.2500
v -889.8444 -1481.7873 247.3333
v -1755.9411 -923.7573 398.3333
v -1332.6078 -1212.4873 310.2500
v -1736.5111 -904.3273 398.3333
v -1313.1778 -1193.0573 310.2500
v -2179.2744 -635.0272 511.5833
v -1755.9411 -923.7573 398.3333
v -2159.8444 -615.5972 511.5833
v -1736.5111 -904.3273 398.3333
v -2739.6040 -252.8604 694.7934
v -2179.2744 -635.0272 511.5833
v -2720.1740 -233.4304 694.7934
v -2159.8444 -615.5972 511.5833
f 170 169 182
f 181 170 182
f 180 171 170
f 180 170 181
f 179 172 171
f 179 171 180
f 178 173 172
f 178 172 179
f 177 174 173
f 177 173 178
f 176 175 174
f 176 174 177
f 185 184 186
f 183 184 185
f 195 194 193
f 192 195 193
f 196 195 192
f 191 196 192
f 197 196 191
f 190 197 191
f 198 197 190
f 189 198 190
f 199 198 189
f 188 199 189
f 187 200 199
f 187 199 188
f 204 203 201
f 202 204 201
f 208 207 205
f 206 208 205
f 212 211 209
f 210 212 209
f 216 215 213
f 214 216 213
f 220 219 217
f 218 220 217
f 224 223 221
f 222 224 221
f 227 225 226
f 228 227 226
f 231 230 232
f 229 230 231
f 235 233 234
f 235 234 236
f 239 237 238
f 239 238 240
f 243 242 244
f 241 242 243
f 247 246 248
f 245 246 247
f 251 249 250
f 251 250 252

o tsections_3_0
usemtl mat_b8bdc2ff
v -2364.9728 -820.7256 511.5833
v -2076.2427 -1244.0589 398.3333
v -1787.5127 -1667.3922 310.2500
v -1498.7827 -2090.7256 247.3333
v -1210.0527 -2514.0589 209.5833
v -962.2450 -2877.3922 198.7835
v -962.2450 -2877.3922 171.7715
v -1211.1450 -2512.4573 182.6190
v -1500.9560 -2087.5391 220.5103
v -1790.7446 -1662.6536 283.6577
v -2080.5013 -1237.8151 372.0542
v -2370.2177 -813.0355 485.6911
v -2749.8791 -256.3794 667.7001
v -2747.1396 -260.3960 694.7934
v -2747.1396 -260.3960 694.7934
v -2364.9728 -820.7256 511.5833
v -2766.5696 -279.8260 694.7934
v -2384.4028 -840.1556 511.5833
v -2766.5696 -279.8260 694.7934
v -2769.3091 -275.8094 667.7001
v -2389.6477 -832.4655 485.6911
v -2099.9313 -1257.2451 372.0542
v -1810.1746 -1682.0836 283.6577
v -1520.3860 -2106.9691 220.5103
v -1230.5750 -2531.8873 182.6190
v -981.6750 -2896.8222 171.7715
v -981.6750 -2896.8222 198.7835
v -1229.4827 -2533.4889 209.5833
v -1518.2127 -2110.1556 247.3333
v -1806.9427 -1686.8222 310.2500
v -2095.6727 -1263.4889 398.3333
v -2384.4028 -840.1556 511.5833
v -2749.8791 -256.3794 667.7001
v -2747.1396 -260.3960 694.7934
v -2769.3091 -275.8094 667.7001
v -2766.5696 -279.8260 694.7934
v -2370.2177 -813.0355 485.6911
v -2749.8791 -256.3794 667.7001
v -2389.6477 -832.4655 485.6911
v -2769.3091 -275.8094 667.7001
v -2080.5013 -1237.8151 372.0542
v -2370.2177 -813.0355 485.6911
v -2099.9313 -1257.2451 372.0542
v -2389.6477 -832.4655 485.6911
v -1790.7446 -1662.6536 283.6577
v -2080.5013 -1237.8151 372.0542
v -1810.1746 -1682.0836 283.6577
v -2099.9313 -1257.2451 372.0542
v -1500.9560 -2087.5391 220.5103
v -1790.7446 -1662.6536 283.6577
v -1520.3860 -2106.9691 220.5103
v -1810.1746 -1682.0836 283.6577
v -1211.1450 -2512.4573 182.6190
v -1500.9560 -2087.5391 220.5103
v -1230.5750 -2531.8873 182.6190
v -1520.3860 -2106.9691 220.5103
v -962.2450 -2877.3922 171.7715
v -1211.1450 -2512.4573 182.6190
v -981.6750 -2896.8222 171.7715
v -1230.5750 -2531.8873 182.6190
v -962.2450 -2877.3922 198.7835
v -962.2450 -2877.3922 171.7715
v -981.6750 -2896.8222 198.7835
v -981.6750 -2896.8222 171.7715
v -1210.0527 -2514.0589 209.5833
v -962.2450 -2877.3922 198.7835
v -1229.4827 -2533.4889 209.5833
v -981.6750 -2896.8222 198.7835
v -1498.7827 -2090.7256 247.3333
v -1210.0527 -2514.0589 209.5833
v -1518.2127 -2110.1556 247.3333
v -1229.4827 -2533.4889 209.5833
v -1787.5127 -1667.3922 310.2500
v -1498.7827 -2090.7256 247.3333
v -1806.9427 -1686.8222 310.2500
v -1518.2127 -2110.1556 247.3333
v -2076.2427 -1244.0589 398.3333
v -1787.5127 -1667.3922 310.2500
v -2095.6727 -1263.4889 398.3333
v -1806.9427 -1686.8222 310.2500
v -2364.9728 -820.7256 511.5833
v -2076.2427 -1244.0589 398.3333
v -2384.4028 -840.1556 511.5833
v -2095.6727 -1263.4889 398.3333
f 257 258 259
f 257 259 260
f 256 260 261
f 256 257 260
f 255 261 262
f 255 256 261
f 254 262 263
f 254 255 262
f 253 263 264
f 253 254 263
f 265 253 264
f 266 253 265
f 269 268 267
f 269 270 268
f 284 271 272
f 284 272 273
f 274 284 273
f 283 284 274
f 275 283 274
f 282 283 275
f 276 282 275
f 281 282 276
f 277 281 276
f 280 281 277
f 278 280 277
f 279 280 278
f 286 285 287
f 288 286 287
f 289 292 290
f 291 292 289
f 293 296 294
f 295 296 293
f 300 297 299
f 298 297 300
f 304 301 303
f 302 301 304
f 305 308 306
f 307 308 305
f 312 309 311
f 310 309 312
f 314 315 316
f 313 315 314
f 319 320 318
f 317 319 318
f 323 324 322
f 321 323 322
f 327 328 326
f 325 327 326
f 331 332 330
f 329 331 330
f 335 334 333
f 335 336 334

o tsections_4_0
usemtl mat_b8bdc2ff
v -2841.8167 -323.9021 700.8527
v -2447.0105 -902.7633 511.5833
v -2158.2805 -1326.0967 398.3333
v -1869.5505 -1749.4300 310.2500
v -1580.8205 -2172.7633 247.3333
v -1292.0905 -2596.0967 209.5833
v -1057.5348 -2940.0000 199.3610
v -1057.5348 -2940.0000 171.7715
v -1306.4348 -2575.0651 182.6190
v -1596.2458 -2150.1469 220.5103
v -1886.0344 -1725.2614 283.6577
v -2175.7911 -1300.4228 372.0542
v -2465.5075 -875.6433 485.6911
v -2845.1688 -318.9872 667.7001
v -2845.1688 -318.9872 667.7001
v -2841.8167 -323.9021 700.8527
v -2812.4868 -318.9872 667.7001
v -2809.7473 -323.0038 694.7934
v -2812.4868 -318.9872 667.7001
v -2432.8255 -875.6433 485.6911
v -2143.1090 -1300.4228 372.0542
v -1853.3524 -1725.2614 283.6577
v -1563.5637 -2150.1469 220.5103
v -1273.7528 -2575.0651 182.6190
v -1024.8528 -2940.0000 171.7715
v -1024.8528 -2940.0000 198.7835
v -1272.6605 -2576.6667 209.5833
v -1561.3905 -2153.3333 247.3333
v -1850.1205 -1730.0000 310.2500
v -2138.8505 -1306.6667 398.3333
v -2427.5805 -883.3333 511.5833
v -2809.7473 -323.0038 694.7934
v -2465.5075 -875.6433 485.6911
v -2845.1688 -318.9872 667.7001
v -2432.8255 -875.6433 485.6911
v -2812.4868 -318.9872 667.7001
v -2175.7911 -1300.4228 372.0542
v -2465.5075 -875.6433 485.6911
v -2143.1090 -1300.4228 372.0542
v -2432.8255 -875.6433 485.6911
v -1886.0344 -1725.2614 283.6577
v -2175.7911 -1300.4228 372.0542
v -1853.3524 -1725.2614 283.6577
v -2143.1090 -1300.4228 372.0542
v -1596.2458 -2150.1469 220.5103
v -1886.0344 -1725.2614 283.6577
v -1563.5637 -2150.1469 220.5103
v -1853.3524 -1725.2614 283.6577
v -1306.4348 -2575.0651 182.6190
v -1596.2458 -2150.1469 220.5103
v -1273.7528 -2575.0651 182.6190
v -1563.5637 -2150.1469 220.5103
v -1057.5348 -2940.0000 171.7715
v -1306.4348 -2575.0651 182.6190
v -1024.8528 -2940.0000 171.7715
v -1273.7528 -2575.0651 182.6190
v -1057.5348 -2940.0000 199.3610
v -1057.5348 -2940.0000 171.7715
v -1024.8528 -2940.0000 198.7835
v -1024.8528 -2940.0000 171.7715
v -1292.0905 -2596.0967 209.5833
v -1057.5348 -2940.0000 199.3610
v -1272.6605 -2576.6667 209.5833
v -1024.8528 -2940.0000 198.7835
v -1580.8205 -2172.7633 247.3333
v -1292.0905 -2596.0967 209.5833
v -1561.3905 -2153.3333 247.3333
v -1272.6605 -2576.6667 209.5833
v -1869.5505 -1749.4300 310.2500
v -1580.8205 -2172.7633 247.3333
v -1850.1205 -1730.0000 310.2500
v -1561.3905 -2153.3333 247.3333
v -2158.2805 -1326.0967 398.3333
v -1869.5505 -1749.4300 310.2500
v -2138.8505 -1306.6667 398.3333
v -1850.1205 -1730.0000 310.2500
v -2447.0105 -902.7633 511.5833
v -2158.2805 -1326.0967 398.3333
v -2427.5805 -883.3333 511.5833
v -2138.8505 -1306.6667 398.3333
v -2841.8167 -323.9021 700.8527
v -2447.0105 -902.7633 511.5833
v -2809.7473 -323.0038 694.7934
v -2427.5805 -883.3333 511.5833
f 342 344 343
f 342 345 344
f 341 345 342
f 346 345 341
f 340 346 341
f 347 346 340
f 339 347 340
f 348 347 339
f 338 348 339
f 349 348 338
f 337 350 349
f 337 349 338
f 353 351 352
f 353 352 354
f 367 356 355
f 367 355 368
f 357 356 367
f 366 357 367
f 358 357 366
f 365 358 366
f 359 358 365
f 364 359 365
f 360 359 364
f 363 360 364
f 361 360 363
f 362 361 363
f 372 371 369
f 370 372 369
f 376 375 373
f 374 376 373
f 380 379 377
f 378 380 377
f 384 383 381
f 382 384 381
f 388 387 385
f 386 388 385
f 392 391 389
f 390 392 389
f 395 393 394
f 395 394 396
f 398 399 397
f 398 400 399
f 404 403 401
f 402 404 401
f 408 407 405
f 406 408 405
f 409 410 412
f 411 409 412
f 413 414 416
f 415 413 416
f 419 418 420
f 417 418 419

o tsections_5_0
usemtl mat_b8bdc2ff
v -2873.0000 -883.3333 511.5833
v -2873.0000 -1306.6667 398.3333
v -2873.0000 -1730.0000 310.2500
v -2873.0000 -2153.3333 247.3333
v -2873.0000 -2576.6667 209.5833
v -2873.0000 -2940.0000 198.7835
v -2873.0000 -2940.0000 171.7715
v -2873.0000 -2575.0651 182.6190
v -2873.0000 -2150.1469 220.5103
v -2873.0000 -1725.2614 283.6577
v -2873.0000 -1300.4228 372.0542
v -2873.0000 -875.6433 485.6911
v -2873.0000 -318.9872 667.7001
v -2873.0000 -323.0038 694.7934
v -2873.0000 -323.0038 694.7934
v -2873.0000 -883.3333 511.5833
v -2900.0000 -323.0038 694.7934
v -2900.0000 -883.3333 511.5833
v -2900.0000 -323.0038 694.7934
v -2900.0000 -318.9872 667.7001
v -2900.0000 -875.6433 485.6911
v -2900.0000 -1300.4228 372.0542
v -2900.0000 -1725.2614 283.6577
v -2900.0000 -2150.1469 220.5103
v -2900.0000 -2575.0651 182.6190
v -2900.0000 -2940.0000 171.7715
v -2900.0000 -2940.0000 198.7835
v -2900.0000 -2576.6667 209.5833
v -2900.0000 -2153.3333 247.3333
v -2900.0000 -1730.0000 310.2500
v -2900.0000 -1306.6667 398.3333
v -2900.0000 -883.3333 511.5833
v -2873.0000 -318.9872 667.7001
v -2873.0000 -323.0038 694.7934
v -2900.0000 -318.9872 667.7001
v -2900.0000 -323.0038 694.7934
v -2873.0000 -875.6433 485.6911
v -2873.0000 -318.9872 667.7001
v -2900.0000 -875.6433 485.6911
v -2900.0000 -318.9872 667.7001
v -2873.0000 -1300.4228 372.0542
v -2873.0000 -875.6433 485.6911
v -2900.0000 -1300.4228 372.0542
v -2900.0000 -875.6433 485.6911
v -2873.0000 -1725.2614 283.6577
v -2873.0000 -1300.4228 372.0542
v -2900.0000 -1725.2614 283.6577
v -2900.0000 -1300.4228 372.0542
v -2873.0000 -2150.1469 220.5103
v -2873.0000 -1725.2614 283.6577
v -2900.0000 -2150.1469 220.5103
v -2900.0000 -1725.2614 283.6577
v -2873.0000 -2575.0651 182.6190
v -2873.0000 -2150.1469 220.5103
v -2900.0000 -2575.0651 182.6190
v -2900.0000 -2150.1469 220.5103
v -2873.0000 -2940.0000 171.7715
v -2873.0000 -2575.0651 182.6190
v -2900.0000 -2940.0000 171.7715
v -2900.0000 -2575.0651 182.6190
v -2873.0000 -2940.0000 198.7835
v -2873.0000 -2940.0000 171.7715
v -2900.0000 -2940.0000 198.7835
v -2900.0000 -2940.0000 171.7715
v -2873.0000 -2576.6667 209.5833
v -2873.0000 -2940.0000 198.7835
v -2900.0000 -2576.6667 209.5833
v -2900.0000 -2940.0000 198.7835
v -2873.0000 -2153.3333 247.3333
v -2873.0000 -2576.6667 209.5833
v -2900.0000 -2153.3333 247.3333
v -2900.0000 -2576.6667 209.5833
v -2873.0000 -1730.0000 310.2500
v -2873.0000 -2153.3333 247.3333
v -2900.0000 -1730.0000 310.2500
v -2900.0000 -2153.3333 247.3333
v -2873.0000 -1306.6667 398.3333
v -2873.0000 -1730.0000 310.2500
v -2900.0000 -1306.6667 398.3333
v -2900.0000 -1730.0000 310.2500
v -2873.0000 -883.3333 511.5833
v -2873.0000 -1306.6667 398.3333
v -2900.0000 -883.3333 511.5833
v -2900.0000 -1306.6667 398.3333
f 421 432 433
f 421 433 434
f 422 431 432
f 422 432 421
f 423 430 431
f 423 431 422
f 424 429 430
f 424 430 423
f 425 428 429
f 425 429 424
f 426 427 428
f 426 428 425
f 437 436 435
f 437 438 436
f 452 439 440
f 441 452 440
f 451 452 441
f 442 451 441
f 450 451 442
f 443 450 442
f 449 450 443
f 444 449 443
f 448 449 444
f 445 448 444
f 447 448 445
f 446 447 445
f 454 453 455
f 454 455 456
f 459 458 457
f 459 460 458
f 463 462 461
f 463 464 462
f 467 466 465
f 467 468 466
f 471 470 469
f 471 472 470
f 473 476 474
f 475 476 473
f 479 478 477
f 479 480 478
f 484 481 483
f 482 481 484
f 487 486 485
f 487 488 486
f 491 490 489
f 491 492 490
f 495 494 493
f 495 496 494
f 499 498 497
f 499 500 498
f 503 502 501
f 503 504 502

o outer_ribs_0_0
usemtl mat_b8bdc2ff
v 0.0000 -100.0000 197.0000
v -423.3333 -100.0000 209.5833
v -846.6667 -100.0000 247.3333
v -1270.0000 -100.0000 310.2500
v -1693.3333 -100.0000 398.3333
v -2116.6667 -100.0000 511.5833
v -2676.9962 -100.0000 694.7934
v -2780.0000 -100.0000 -0.0000
v 0.0000 -100.0000 -0.0000
v 0.0000 -100.0000 -0.0000
v 0.0000 -100.0000 197.0000
v 0.0000 -0.0000 -0.0000
v 0.0000 -0.0000 197.0000
v 0.0000 -0.0000 -0.0000
v -2780.0000 -0.0000 -0.0000
v -2676.9962 -0.0000 694.7934
v -2116.6667 -0.0000 511.5833
v -1693.3333 -0.0000 398.3333
v -1270.0000 -0.0000 310.2500
v -846.6667 -0.0000 247.3333
v -423.3333 -0.0000 209.5833
v 0.0000 -0.0000 197.0000
v -2780.0000 -100.0000 -0.0000
v 0.0000 -100.0000 -0.0000
v -2780.0000 -0.0000 -0.0000
v 0.0000 -0.0000 -0.0000
v -2676.9962 -100.0000 694.7934
v -2780.0000 -100.0000 -0.0000
v -2676.9962 -0.0000 694.7934
v -2780.0000 -0.0000 -0.0000
v -2116.6667 -100.0000 511.5833
v -2676.9962 -100.0000 694.7934
v -2116.6667 -0.0000 511.5833
v -2676.9962 -0.0000 694.7934
v -1693.3333 -100.0000 398.3333
v -2116.6667 -100.0000 511.5833
v -1693.3333 -0.0000 398.3333
v -2116.6667 -0.0000 511.5833
v -1270.0000 -100.0000 310.2500
v -1693.3333 -100.0000 398.3333
v -1270.0000 -0.0000 310.2500
v -1693.3333 -0.0000 398.3333
v -846.6667 -100.0000 247.3333
v -1270.0000 -100.0000 310.2500
v -846.6667 -0.0000 247.3333
v -1270.0000 -0.0000 310.2500
v -423.3333 -100.0000 209.5833
v -846.6667 -100.0000 247.3333
v -423.3333 -0.0000 209.5833
v -846.6667 -0.0000 247.3333
v 0.0000 -100.0000 197.0000
v -423.3333 -100.0000 209.5833
v 0.0000 -0.0000 197.0000
v -423.3333 -0.0000 209.5833
f 510 511 512
f 509 510 512
f 508 509 512
f 513 505 506
f 513 506 507
f 512 513 507
f 512 507 508
f 517 514 516
f 515 514 517
f 521 519 520
f 522 519 521
f 523 519 522
f 518 524 525
f 526 518 525
f 518 519 524
f 524 519 523
f 527 530 528
f 529 530 527
f 532 531 533
f 532 533 534
f 535 538 536
f 537 538 535
f 541 540 539
f 541 542 540
f 545 544 543
f 545 546 544
f 549 548 547
f 549 550 548
f 553 552 551
f 553 554 552
f 557 556 555
f 557 558 556

o outer_ribs_1_0
usemtl mat_b8bdc2ff
v -2900.0000 -220.0000 -0.0000
v -2900.0000 -323.0038 694.7934
v -2900.0000 -883.3333 511.5833
v -2900.0000 -1306.6667 398.3333
v -2900.0000 -1730.0000 310.2500
v -2900.0000 -2153.3333 247.3333
v -2900.0000 -2576.6667 209.5833
v -2900.0000 -3000.0000 197.0000
v -2900.0000 -3000.0000 0.0000
v -2900.0000 -3000.0000 0.0000
v -2900.0000 -220.0000 -0.0000
v -3000.0000 -3000.0000 0.0000
v -3000.0000 -220.0000 -0.0000
v -3000.0000 -3000.0000 0.0000
v -3000.0000 -3000.0000 197.0000
v -3000.0000 -2576.6667 209.5833
v -3000.0000 -2153.3333 247.3333
v -3000.0000 -1730.0000 310.2500
v -3000.0000 -1306.6667 398.3333
v -3000.0000 -883.3333 511.5833
v -3000.0000 -323.0038 694.7934
v -3000.0000 -220.0000 -0.0000
v -2900.0000 -3000.0000 197.0000
v -2900.0000 -3000.0000 0.0000
v -3000.0000 -3000.0000 197.0000
v -3000.0000 -3000.0000 0.0000
v -2900.0000 -2576.6667 209.5833
v -2900.0000 -3000.0000 197.0000
v -3000.0000 -2576.6667 209.5833
v -3000.0000 -3000.0000 197.0000
v -2900.0000 -2153.3333 247.3333
v -2900.0000 -2576.6667 209.5833
v -3000.0000 -2153.3333 247.3333
v -3000.0000 -2576.6667 209.5833
v -2900.0000 -1730.0000 310.2500
v -2900.0000 -2153.3333 247.3333
v -3000.0000 -1730.0000 310.2500
v -3000.0000 -2153.3333 247.3333
v -2900.0000 -1306.6667 398.3333
v -2900.0000 -1730.0000 310.2500
v -3000.0000 -1306.6667 398.3333
v -3000.0000 -1730.0000 310.2500
v -2900.0000 -883.3333 511.5833
v -2900.0000 -1306.6667 398.3333
v -3000.0000 -883.3333 511.5833
v -3000.0000 -1306.6667 398.3333
v -2900.0000 -323.0038 694.7934
v -2900.0000 -883.3333 511.5833
v -3000.0000 -323.0038 694.7934
v -3000.0000 -883.3333 511.5833
v -2900.0000 -220.0000 -0.0000
v -2900.0000 -323.0038 694.7934
v -3000.0000 -220.0000 -0.0000
v -3000.0000 -323.0038 694.7934
f 561 559 560
f 562 559 561
f 563 559 562
f 567 564 565
f 566 567 565
f 567 559 564
f 564 559 563
f 569 568 570
f 571 569 570
f 578 579 580
f 577 578 580
f 576 577 580
f 572 573 574
f 572 574 575
f 580 572 575
f 580 575 576
f 582 581 583
f 582 583 584
f 587 586 585
f 587 588 586
f 591 590 589
f 591 592 590
f 595 594 593
f 595 596 594
f 597 600 598
f 599 600 597
f 603 602 601
f 603 604 602
f 607 606 605
f 607 608 606
f 610 609 611
f 610 611 612

o inner_ribs_0_0
usemtl mat_b8bdc2ff
v -103.1778 -2018.3250 198.7835
v -466.5111 -1770.5173 209.5833
v -889.8444 -1481.7873 247.3333
v -1313.1778 -1193.0573 310.2500
v -1736.5111 -904.3273 398.3333
v -2159.8444 -615.5972 511.5833
v -2720.1740 -233.4304 694.7934
v -2823.1778 -163.1778 -0.0000
v -103.1778 -2018.3250 -0.0000
v -103.1778 -2018.3250 -0.0000
v -103.1778 -2018.3250 198.7835
v -60.0000 -1975.1472 -0.0000
v -60.0000 -1975.1472 198.7835
v -60.0000 -1975.1472 -0.0000
v -2780.0000 -120.0000 -0.0000
v -2676.9962 -190.2527 694.7934
v -2116.6667 -572.4195 511.5833
v -1693.3333 -861.1495 398.3333
v -1270.0000 -1149.8795 310.2500
v -846.6667 -1438.6095 247.3333
v -423.3333 -1727.3395 209.5833
v -60.0000 -1975.1472 198.7835
v -2823.1778 -163.1778 -0.0000
v -103.1778 -2018.3250 -0.0000
v -2780.0000 -120.0000 -0.0000
v -60.0000 -1975.1472 -0.0000
v -2720.1740 -233.4304 694.7934
v -2823.1778 -163.1778 -0.0000
v -2676.9962 -190.2527 694.7934
v -2780.0000 -120.0000 -0.0000
v -2159.8444 -615.5972 511.5833
v -2720.1740 -233.4304 694.7934
v -2116.6667 -572.4195 511.5833
v -2676.9962 -190.2527 694.7934
v -1736.5111 -904.3273 398.3333
v -2159.8444 -615.5972 511.5833
v -1693.3333 -861.1495 398.3333
v -2116.6667 -572.4195 511.5833
v -1313.1778 -1193.0573 310.2500
v -1736.5111 -904.3273 398.3333
v -1270.0000 -1149.8795 310.2500
v -1693.3333 -861.1495 398.3333
v -889.8444 -1481.7873 247.3333
v -1313.1778 -1193.0573 310.2500
v -846.6667 -1438.6095 247.3333
v -1270.0000 -1149.8795 310.2500
v -466.5111 -1770.5173 209.5833
v -889.8444 -1481.7873 247.3333
v -423.3333 -1727.3395 209.5833
v -846.6667 -1438.6095 247.3333
v -103.1778 -2018.3250 198.7835
v -466.5111 -1770.5173 209.5833
v -60.0000 -1975.1472 198.7835
v -423.3333 -1727.3395 209.5833
f 614 621 613
f 615 621 614
f 620 617 618
f 620 618 619
f 620 621 615
f 620 615 616
f 620 616 617
f 624 625 623
f 622 624 623
f 629 627 628
f 630 627 629
f 626 632 633
f 626 633 634
f 626 627 632
f 632 627 631
f 631 627 630
f 637 636 635
f 637 638 636
f 639 641 642
f 639 642 640
f 643 646 644
f 645 646 643
f 647 650 648
f 649 650 647
f 654 651 653
f 652 651 654
f 655 658 656
f 657 658 655
f 659 662 660
f 661 662 659
f 666 663 665
f 664 663 666

o inner_ribs_1_0
usemtl mat_b8bdc2ff
v -2836.8222 -176.8222 -0.0000
v -2766.5696 -279.8260 694.7934
v -2384.4028 -840.1556 511.5833
v -2095.6727 -1263.4889 398.3333
v -1806.9427 -1686.8222 310.2500
v -1518.2127 -2110.1556 247.3333
v -1229.4827 -2533.4889 209.5833
v -981.6750 -2896.8222 198.7835
v -981.6750 -2896.8222 -0.0000
v -981.6750 -2896.8222 -0.0000
v -2836.8222 -176.8222 -0.0000
v -1024.8528 -2940.0000 -0.0000
v -2880.0000 -220.0000 -0.0000
v -1024.8528 -2940.0000 -0.0000
v -1024.8528 -2940.0000 198.7835
v -1272.6605 -2576.6667 209.5833
v -1561.3905 -2153.3333 247.3333
v -1850.1205 -1730.0000 310.2500
v -2138.8505 -1306.6667 398.3333
v -2427.5805 -883.3333 511.5833
v -2809.7473 -323.0038 694.7934
v -2880.0000 -220.0000 -0.0000
v -981.6750 -2896.8222 198.7835
v -981.6750 -2896.8222 -0.0000
v -1024.8528 -2940.0000 198.7835
v -1024.8528 -2940.0000 -0.0000
v -1229.4827 -2533.4889 209.5833
v -981.6750 -2896.8222 198.7835
v -1272.6605 -2576.6667 209.5833
v -1024.8528 -2940.0000 198.7835
v -1518.2127 -2110.1556 247.3333
v -1229.4827 -2533.4889 209.5833
v -1561.3905 -2153.3333 247.3333
v -1272.6605 -2576.6667 209.5833
v -1806.9427 -1686.8222 310.2500
v -1518.2127 -2110.1556 247.3333
v -1850.1205 -1730.0000 310.2500
v -1561.3905 -2153.3333 247.3333
v -2095.6727 -1263.4889 398.3333
v -1806.9427 -1686.8222 310.2500
v -2138.8505 -1306.6667 398.3333
v -1850.1205 -1730.0000 310.2500
v -2384.4028 -840.1556 511.5833
v -2095.6727 -1263.4889 398.3333
v -2427.5805 -883.3333 511.5833
v -2138.8505 -1306.6667 398.3333
v -2766.5696 -279.8260 694.7934
v -2384.4028 -840.1556 511.5833
v -2809.7473 -323.0038 694.7934
v -2427.5805 -883.3333 511.5833
v -2836.8222 -176.8222 -0.0000
v -2766.5696 -279.8260 694.7934
v -2880.0000 -220.0000 -0.0000
v -2809.7473 -323.0038 694.7934
f 673 674 675
f 672 673 675
f 667 669 670
f 667 670 671
f 667 671 672
f 667 672 675
f 668 669 667
f 679 677 676
f 679 676 678
f 686 687 688
f 685 686 688
f 684 685 688
f 683 684 688
f 680 682 683
f 680 683 688
f 681 682 680
f 691 692 690
f 689 691 690
f 695 696 694
f 693 695 694
f 699 700 698
f 697 699 698
f 703 704 702
f 701 703 702
f 707 706 705
f 707 708 706
f 711 710 709
f 711 712 710
f 715 716 714
f 713 715 714
f 718 717 719
f 720 718 719

o wedges_inner_beams_0_0
usemtl mat_b8bdc2ff
v -2780.0000 -100.0000 -0.0000
v -2780.0000 -120.0000 -0.0000
v -2685.0294 -184.7737 640.6068
v -2685.0294 -100.0000 640.6068
v -2685.0294 -100.0000 640.6068
v -2780.0000 -100.0000 -0.0000
v -2453.6234 -100.0000 564.9443
v -2537.3769 -100.0000 -0.0000
v -2453.6234 -100.0000 564.9443
v -2453.6234 -342.6017 564.9443
v -2537.3769 -285.4785 -0.0000
v -2537.3769 -100.0000 -0.0000
v -2685.0294 -184.7737 640.6068
v -2685.0294 -100.0000 640.6068
v -2453.6234 -342.6017 564.9443
v -2453.6234 -100.0000 564.9443
v -2780.0000 -120.0000 -0.0000
v -2685.0294 -184.7737 640.6068
v -2537.3769 -285.4785 -0.0000
v -2453.6234 -342.6017 564.9443
v -2780.0000 -100.0000 -0.0000
v -2780.0000 -120.0000 -0.0000
v -2537.3769 -100.0000 -0.0000
v -2537.3769 -285.4785 -0.0000
f 722 723 724
f 722 724 721
f 727 726 725
f 727 728 726
f 729 731 732
f 730 731 729
f 736 734 733
f 736 733 735
f 739 740 738
f 737 739 738
f 742 743 744
f 741 743 742

o wedges_inner_beams_1_0
usemtl mat_b8bdc2ff
v -2823.1778 -163.1778 -0.0000
v -2836.8222 -176.8222 -0.0000
v -2772.0485 -271.7928 640.6068
v -2728.2072 -227.9515 640.6068
v -2728.2072 -227.9515 640.6068
v -2823.1778 -163.1778 -0.0000
v -2483.9253 -394.5613 560.7343
v -2567.0547 -337.8638 -0.0000
v -2483.9253 -394.5613 560.7343
v -2605.4387 -516.0747 560.7343
v -2662.1362 -432.9453 -0.0000
v -2567.0547 -337.8638 -0.0000
v -2772.0485 -271.7928 640.6068
v -2728.2072 -227.9515 640.6068
v -2605.4387 -516.0747 560.7343
v -2483.9253 -394.5613 560.7343
v -2836.8222 -176.8222 -0.0000
v -2772.0485 -271.7928 640.6068
v -2662.1362 -432.9453 -0.0000
v -2605.4387 -516.0747 560.7343
v -2823.1778 -163.1778 -0.0000
v -2836.8222 -176.8222 -0.0000
v -2567.0547 -337.8638 -0.0000
v -2662.1362 -432.9453 -0.0000
f 745 746 747
f 745 747 748
f 752 750 749
f 752 749 751
f 754 755 756
f 753 754 756
f 758 759 760
f 757 759 758
f 762 761 763
f 764 762 763
f 765 767 768
f 766 765 768

o wedges_inner_beams_2_0
usemtl mat_b8bdc2ff
v -2880.0000 -220.0000 -0.0000
v -2900.0000 -220.0000 -0.0000
v -2900.0000 -314.9706 640.6068
v -2815.2263 -314.9706 640.6068
v -2815.2263 -314.9706 640.6068
v -2880.0000 -220.0000 -0.0000
v -2657.3983 -546.3766 564.9443
v -2714.5215 -462.6231 -0.0000
v -2657.3983 -546.3766 564.9443
v -2900.0000 -546.3766 564.9443
v -2900.0000 -462.6231 -0.0000
v -2714.5215 -462.6231 -0.0000
v -2900.0000 -314.9706 640.6068
v -2815.2263 -314.9706 640.6068
v -2900.0000 -546.3766 564.9443
v -2657.3983 -546.3766 564.9443
v -2900.0000 -220.0000 -0.0000
v -2900.0000 -314.9706 640.6068
v -2900.0000 -462.6231 -0.0000
v -2900.0000 -546.3766 564.9443
v -2880.0000 -220.0000 -0.0000
v -2900.0000 -220.0000 -0.0000
v -2714.5215 -462.6231 -0.0000
v -2900.0000 -462.6231 -0.0000
f 771 769 770
f 772 769 771
f 773 775 776
f 773 776 774
f 780 777 778
f 780 778 779
f 782 783 784
f 781 783 782
f 785 788 786
f 787 788 785
f 789 791 792
f 790 789 792

o inner_beams_0_0
usemtl mat_b8bdc2ff
v 0.0000 -100.0000 197.0000
v 0.0000 -2024.3743 197.0000
v -0.0000 -2000.0000 -0.0000
v 0.0000 -100.0000 -0.0000
v 0.0000 -100.0000 -0.0000
v 0.0000 -100.0000 197.0000
v -60.0000 -100.0000 -0.0000
v -60.0000 -100.0000 197.0000
v -60.0000 -100.0000 -0.0000
v -60.0000 -2060.0000 -0.0000
v -60.0000 -2084.3743 197.0000
v -60.0000 -100.0000 197.0000
v -0.0000 -2000.0000 -0.0000
v 0.0000 -100.0000 -0.0000
v -60.0000 -2060.0000 -0.0000
v -60.0000 -100.0000 -0.0000
v 0.0000 -2024.3743 197.0000
v -0.0000 -2000.0000 -0.0000
v -60.0000 -2084.3743 197.0000
v -60.0000 -2060.0000 -0.0000
v 0.0000 -100.0000 197.0000
v 0.0000 -2024.3743 197.0000
v -60.0000 -100.0000 197.0000
v -60.0000 -2084.3743 197.0000
f 795 796 793
f 794 795 793
f 798 797 799
f 798 799 800
f 802 803 804
f 802 804 801
f 808 806 805
f 808 805 807
f 809 811 812
f 809 812 810
f 815 816 814
f 813 815 814

o inner_beams_1_0
usemtl mat_b8bdc2ff
v -60.0000 -2084.3743 197.0000
v -915.6257 -2940.0000 197.0000
v -940.0000 -2940.0000 -0.0000
v -60.0000 -2060.0000 -0.0000
v -60.0000 -2060.0000 -0.0000
v -60.0000 -2084.3743 197.0000
v -60.0000 -1975.1472 -0.0000
v -60.0000 -1975.1472 197.0000
v -60.0000 -1975.1472 -0.0000
v -1024.8528 -2940.0000 -0.0000
v -1024.8528 -2940.0000 197.0000
v -60.0000 -1975.1472 197.0000
v -940.0000 -2940.0000 -0.0000
v -60.0000 -2060.0000 -0.0000
v -1024.8528 -2940.0000 -0.0000
v -60.0000 -1975.1472 -0.0000
v -915.6257 -2940.0000 197.0000
v -940.0000 -2940.0000 -0.0000
v -1024.8528 -2940.0000 197.0000
v -1024.8528 -2940.0000 -0.0000
v -60.0000 -2084.3743 197.0000
v -915.6257 -2940.0000 197.0000
v -60.0000 -1975.1472 197.0000
v -1024.8528 -2940.0000 197.0000
f 817 818 819
f 817 819 820
f 824 821 823
f 822 821 824
f 827 825 826
f 827 828 825
f 832 830 829
f 831 832 829
f 834 833 835
f 834 835 836
f 837 840 838
f 839 840 837

o inner_beams_2_0
usemtl mat_b8bdc2ff
v -1000.0000 -3000.0000 -0.0000
v -975.6257 -3000.0000 197.0000
v -2900.0000 -3000.0000 197.0000
v -2900.0000 -3000.0000 0.0000
v -2900.0000 -3000.0000 0.0000
v -1000.0000 -3000.0000 -0.0000
v -2900.0000 -2940.0000 -0.0000
v -940.0000 -2940.0000 -0.0000
v -2900.0000 -2940.0000 -0.0000
v -2900.0000 -2940.0000 197.0000
v -915.6257 -2940.0000 197.0000
v -940.0000 -2940.0000 -0.0000
v -2900.0000 -3000.0000 197.0000
v -2900.0000 -3000.0000 0.0000
v -2900.0000 -2940.0000 197.0000
v -2900.0000 -2940.0000 -0.0000
v -975.6257 -3000.0000 197.0000
v -2900.0000 -3000.0000 197.0000
v -915.6257 -2940.0000 197.0000
v -2900.0000 -2940.0000 197.0000
v -1000.0000 -3000.0000 -0.0000
v -975.6257 -3000.0000 197.0000
v -940.0000 -2940.0000 -0.0000
v -915.6257 -2940.0000 197.0000
f 841 842 843
f 841 843 844
f 847 846 845
f 847 848 846
f 852 849 850
f 851 852 850
f 854 853 855
f 854 855 856
f 857 860 858
f 859 860 857
f 862 861 863
f 864 862 863

o oculus_0
usemtl mat_b8bdc2ff
v 1260.0000 -2147.1068 0.0000
v 1260.0000 -2147.1068 197.0000
v 2614.2136 -2147.1068 197.0000
v 2596.9783 -2147.1068 0.0000
v 2596.9783 -2147.1068 0.0000
v 1260.0000 -2147.1068 0.0000
v 2596.9783 -2189.8715 0.0000
v 1260.0000 -2189.8715 0.0000
v 2596.9783 -2189.8715 0.0000
v 2614.2136 -2207.1068 197.0000
v 1260.0000 -2207.1068 197.0000
v 1260.0000 -2189.8715 0.0000
v 2614.2136 -2147.1068 197.0000
v 2596.9783 -2147.1068 0.0000
v 2614.2136 -2207.1068 197.0000
v 2596.9783 -2189.8715 0.0000
v 1260.0000 -2147.1068 197.0000
v 2614.2136 -2147.1068 197.0000
v 1260.0000 -2207.1068 197.0000
v 2614.2136 -2207.1068 197.0000
v 1260.0000 -2147.1068 0.0000
v 1260.0000 -2147.1068 197.0000
v 1260.0000 -2189.8715 0.0000
v 1260.0000 -2207.1068 197.0000
f 868 865 866
f 867 868 866
f 870 869 871
f 870 871 872
f 873 874 875
f 873 875 876
f 877 880 878
f 879 880 877
f 884 881 883
f 882 881 884
f 886 885 887
f 888 886 887

o oculus_1
usemtl mat_b8bdc2ff
v 2554.2136 -2147.1068 0.0000
v 2554.2136 -2147.1068 197.0000
v 2554.2136 -792.8932 197.0000
v 2554.2136 -810.1285 0.0000
v 2554.2136 -810.1285 0.0000
v 2554.2136 -2147.1068 0.0000
v 2596.9783 -810.1285 0.0000
v 2596.9783 -2147.1068 0.0000
v 2596.9783 -810.1285 0.0000
v 2614.2136 -792.8932 197.0000
v 2614.2136 -2147.1068 197.0000
v 2596.9783 -2147.1068 0.0000
v 2554.2136 -792.8932 197.0000
v 2554.2136 -810.1285 0.0000
v 2614.2136 -792.8932 197.0000
v 2596.9783 -810.1285 0.0000
v 2554.2136 -2147.1068 197.0000
v 2554.2136 -792.8932 197.0000
v 2614.2136 -2147.1068 197.0000
v 2614.2136 -792.8932 197.0000
v 2554.2136 -2147.1068 0.0000
v 2554.2136 -2147.1068 197.0000
v 2596.9783 -2147.1068 0.0000
v 2614.2136 -2147.1068 197.0000
f 890 891 892
f 889 890 892
f 895 896 894
f 893 895 894
f 899 897 898
f 899 900 897
f 901 904 902
f 903 904 901
f 908 906 905
f 908 905 907
f 911 910 909
f 911 912 910

o oculus_2
usemtl mat_b8bdc2ff
v 2554.2136 -852.8932 0.0000
v 2554.2136 -852.8932 197.0000
v 1200.0000 -852.8932 197.0000
v 1217.2353 -852.8932 0.0000
v 1217.2353 -852.8932 0.0000
v 2554.2136 -852.8932 0.0000
v 1217.2353 -810.1285 0.0000
v 2554.2136 -810.1285 0.0000
v 1217.2353 -810.1285 0.0000
v 1200.0000 -792.8932 197.0000
v 2554.2136 -792.8932 197.0000
v 2554.2136 -810.1285 0.0000
v 1200.0000 -852.8932 197.0000
v 1217.2353 -852.8932 0.0000
v 1200.0000 -792.8932 197.0000
v 1217.2353 -810.1285 0.0000
v 2554.2136 -852.8932 197.0000
v 1200.0000 -852.8932 197.0000
v 2554.2136 -792.8932 197.0000
v 1200.0000 -792.8932 197.0000
v 2554.2136 -852.8932 0.0000
v 2554.2136 -852.8932 197.0000
v 2554.2136 -810.1285 0.0000
v 2554.2136 -792.8932 197.0000
f 914 915 916
f 913 914 916
f 919 918 917
f 919 920 918
f 923 921 922
f 923 924 921
f 928 925 927
f 926 925 928
f 929 932 930
f 931 932 929
f 934 933 935
f 934 935 936

o oculus_3
usemtl mat_b8bdc2ff
v 1260.0000 -852.8932 0.0000
v 1260.0000 -852.8932 197.0000
v 1260.0000 -2207.1068 197.0000
v 1260.0000 -2189.8715 0.0000
v 1260.0000 -2189.8715 0.0000
v 1260.0000 -852.8932 0.0000
v 1217.2353 -2189.8715 0.0000
v 1217.2353 -852.8932 0.0000
v 1217.2353 -2189.8715 0.0000
v 1200.0000 -2207.1068 197.0000
v 1200.0000 -852.8932 197.0000
v 1217.2353 -852.8932 0.0000
v 1260.0000 -2207.1068 197.0000
v 1260.0000 -2189.8715 0.0000
v 1200.0000 -2207.1068 197.0000
v 1217.2353 -2189.8715 0.0000
v 1260.0000 -852.8932 197.0000
v 1260.0000 -2207.1068 197.0000
v 1200.0000 -852.8932 197.0000
v 1200.0000 -2207.1068 197.0000
v 1260.0000 -852.8932 0.0000
v 1260.0000 -852.8932 197.0000
v 1217.2353 -852.8932 0.0000
v 1200.0000 -852.8932 197.0000
f 940 937 938
f 939 940 938
f 944 942 941
f 944 941 943
f 945 946 947
f 945 947 948
f 952 949 951
f 950 949 952
f 953 955 956
f 953 956 954
f 958 957 959
f 958 959 960

o oculus_4
usemtl mat_b8bdc2ff
v 1287.0000 -2147.1068 0.0000
v 1287.0000 -2120.1068 0.0000
v 2554.2136 -2120.1068 0.0000
v 2554.2136 -2147.1068 0.0000
v 2554.2136 -2147.1068 0.0000
v 1287.0000 -2147.1068 0.0000
v 2554.2136 -2147.1068 27.0000
v 1287.0000 -2147.1068 27.0000
v 2554.2136 -2147.1068 27.0000
v 2554.2136 -2120.1068 27.0000
v 1287.0000 -2120.1068 27.0000
v 1287.0000 -2147.1068 27.0000
v 2554.2136 -2120.1068 0.0000
v 2554.2136 -2147.1068 0.0000
v 2554.2136 -2120.1068 27.0000
v 2554.2136 -2147.1068 27.0000
v 1287.0000 -2120.1068 0.0000
v 2554.2136 -2120.1068 0.0000
v 1287.0000 -2120.1068 27.0000
v 2554.2136 -2120.1068 27.0000
v 1287.0000 -2147.1068 0.0000
v 1287.0000 -2120.1068 0.0000
v 1287.0000 -2147.1068 27.0000
v 1287.0000 -2120.1068 27.0000
f 961 963 964
f 962 963 961
f 965 967 968
f 965 968 966
f 970 971 972
f 970 972 969
f 976 974 973
f 976 973 975
f 980 978 977
f 980 977 979
f 983 982 981
f 983 984 982

o oculus_5
usemtl mat_b8bdc2ff
v 2554.2136 -2120.1068 0.0000
v 2527.2136 -2120.1068 0.0000
v 2527.2136 -852.8932 0.0000
v 2554.2136 -852.8932 0.0000
v 2554.2136 -852.8932 0.0000
v 2554.2136 -2120.1068 0.0000
v 2554.2136 -852.8932 27.0000
v 2554.2136 -2120.1068 27.0000
v 2554.2136 -852.8932 27.0000
v 2527.2136 -852.8932 27.0000
v 2527.2136 -2120.1068 27.0000
v 2554.2136 -2120.1068 27.0000
v 2527.2136 -852.8932 0.0000
v 2554.2136 -852.8932 0.0000
v 2527.2136 -852.8932 27.0000
v 2554.2136 -852.8932 27.0000
v 2527.2136 -2120.1068 0.0000
v 2527.2136 -852.8932 0.0000
v 2527.2136 -2120.1068 27.0000
v 2527.2136 -852.8932 27.0000
v 2554.2136 -2120.1068 0.0000
v 2527.2136 -2120.1068 0.0000
v 2554.2136 -2120.1068 27.0000
v 2527.2136 -2120.1068 27.0000
f 988 985 986
f 987 988 986
f 992 990 989
f 992 989 991
f 993 994 995
f 993 995 996
f 1000 998 997
f 1000 997 999
f 1001 1003 1004
f 1001 1004 1002
f 1005 1007 1008
f 1005 1008 1006

o oculus_6
usemtl mat_b8bdc2ff
v 2527.2136 -852.8932 0.0000
v 2527.2136 -879.8932 0.0000
v 1260.0000 -879.8932 0.0000
v 1260.0000 -852.8932 0.0000
v 1260.0000 -852.8932 0.0000
v 2527.2136 -852.8932 0.0000
v 1260.0000 -852.8932 27.0000
v 2527.2136 -852.8932 27.0000
v 1260.0000 -852.8932 27.0000
v 1260.0000 -879.8932 27.0000
v 2527.2136 -879.8932 27.0000
v 2527.2136 -852.8932 27.0000
v 1260.0000 -879.8932 0.0000
v 1260.0000 -852.8932 0.0000
v 1260.0000 -879.8932 27.0000
v 1260.0000 -852.8932 27.0000
v 2527.2136 -879.8932 0.0000
v 1260.0000 -879.8932 0.0000
v 2527.2136 -879.8932 27.0000
v 1260.0000 -879.8932 27.0000
v 2527.2136 -852.8932 0.0000
v 2527.2136 -879.8932 0.0000
v 2527.2136 -852.8932 27.0000
v 2527.2136 -879.8932 27.0000
f 1012 1009 1010
f 1012 1010 1011
f 1016 1014 1013
f 1016 1013 1015
f 1020 1017 1018
f 1020 1018 1019
f 1021 1023 1024
f 1021 1024 1022
f 1025 1027 1028
f 1025 1028 1026
f 1032 1030 1029
f 1032 1029 1031

o oculus_7
usemtl mat_b8bdc2ff
v 1260.0000 -879.8932 0.0000
v 1287.0000 -879.8932 0.0000
v 1287.0000 -2147.1068 0.0000
v 1260.0000 -2147.1068 0.0000
v 1260.0000 -2147.1068 0.0000
v 1260.0000 -879.8932 0.0000
v 1260.0000 -2147.1068 27.0000
v 1260.0000 -879.8932 27.0000
v 1260.0000 -2147.1068 27.0000
v 1287.0000 -2147.1068 27.0000
v 1287.0000 -879.8932 27.0000
v 1260.0000 -879.8932 27.0000
v 1287.0000 -2147.1068 0.0000
v 1260.0000 -2147.1068 0.0000
v 1287.0000 -2147.1068 27.0000
v 1260.0000 -2147.1068 27.0000
v 1287.0000 -879.8932 0.0000
v 1287.0000 -2147.1068 0.0000
v 1287.0000 -879.8932 27.0000
v 1287.0000 -2147.1068 27.0000
v 1260.0000 -879.8932 0.0000
v 1287.0000 -879.8932 0.0000
v 1260.0000 -879.8932 27.0000
v 1287.0000 -879.8932 27.0000
f 1033 1034 1035
f 1033 1035 1036
f 1037 1039 1040
f 1037 1040 1038
f 1043 1041 1042
f 1043 1044 1041
f 1045 1047 1048
f 1045 1048 1046
f 1052 1050 1049
f 1052 1049 1051
f 1056 1054 1053
f 1056 1053 1055

o oculus_8
usemtl mat_b8bdc2ff
v 1260.0000 -2147.1068 27.0000
v 1260.0000 -852.8932 27.0000
v 2554.2136 -852.8932 27.0000
v 2554.2136 -2147.1068 27.0000
v 2554.2136 -2147.1068 27.0000
v 1260.0000 -2147.1068 27.0000
v 2554.2136 -2147.1068 54.0000
v 1260.0000 -2147.1068 54.0000
v 2554.2136 -2147.1068 54.0000
v 2554.2136 -852.8932 54.0000
v 1260.0000 -852.8932 54.0000
v 1260.0000 -2147.1068 54.0000
v 2554.2136 -852.8932 27.0000
v 2554.2136 -2147.1068 27.0000
v 2554.2136 -852.8932 54.0000
v 2554.2136 -2147.1068 54.0000
v 1260.0000 -852.8932 27.0000
v 2554.2136 -852.8932 27.0000
v 1260.0000 -852.8932 54.0000
v 2554.2136 -852.8932 54.0000
v 1260.0000 -2147.1068 27.0000
v 1260.0000 -852.8932 27.0000
v 1260.0000 -2147.1068 54.0000
v 1260.0000 -852.8932 54.0000
f 1058 1059 1060
f 1058 1060 1057
f 1063 1064 1062
f 1061 1063 1062
f 1066 1067 1068
f 1066 1068 1065
f 1070 1069 1071
f 1072 1070 1071
f 1074 1073 1075
f 1076 1074 1075
f 1079 1080 1078
f 1077 1079 1078

o jig_quarter_0
usemtl mat_b8bdc266
v -3100.0000 -3100.0000 -25.0000
v -3100.0000 -3100.0000 25.0000
v -3100.0000 100.0000 -25.0000
v -3100.0000 100.0000 25.0000
v -3100.0000 -3100.0000 -25.0000
v 100.0000 -3100.0000 -25.0000
v -3100.0000 -3100.0000 25.0000
v 100.0000 -3100.0000 25.0000
v -3100.0000 -3100.0000 25.0000
v -3100.0000 100.0000 25.0000
v 100.0000 -3100.0000 25.0000
v 100.0000 100.0000 25.0000
v -2780.0000 -120.0000 25.0000
v -2780.0000 -100.0000 25.0000
v -2780.0000 -0.0000 25.0000
v -2776.2937 -0.0000 25.0000
v 0.0000 -0.0000 25.0000
v 0.0000 -100.0000 25.0000
v -0.0000 -2003.0932 25.0000
v -60.0000 -2063.0932 25.0000
v -936.9068 -2940.0000 25.0000
v -996.9068 -3000.0000 25.0000
v -1000.0000 -3000.0000 25.0000
v -2900.0000 -3000.0000 25.0000
v -3000.0000 -3000.0000 25.0000
v -3000.0000 -223.7063 25.0000
v -3000.0000 -220.0000 25.0000
v -2900.0000 -220.0000 25.0000
v -2880.0000 -220.0000 25.0000
v -2836.8222 -176.8222 25.0000
v -2823.1778 -163.1778 25.0000
v -3100.0000 100.0000 -25.0000
v 100.0000 100.0000 -25.0000
v -3100.0000 100.0000 25.0000
v 100.0000 100.0000 25.0000
v -3100.0000 -3100.0000 -25.0000
v -3100.0000 100.0000 -25.0000
v 100.0000 -3100.0000 -25.0000
v 100.0000 100.0000 -25.0000
v -2780.0000 -120.0000 -25.0000
v -2780.0000 -100.0000 -25.0000
v -2780.0000 -0.0000 -25.0000
v -2776.2937 -0.0000 -25.0000
v 0.0000 -0.0000 -25.0000
v 0.0000 -100.0000 -25.0000
v -0.0000 -2003.0932 -25.0000
v -60.0000 -2063.0932 -25.0000
v -936.9068 -2940.0000 -25.0000
v -996.9068 -3000.0000 -25.0000
v -1000.0000 -3000.0000 -25.0000
v -2900.0000 -3000.0000 -25.0000
v -3000.0000 -3000.0000 -25.0000
v -3000.0000 -223.7063 -25.0000
v -3000.0000 -220.0000 -25.0000
v -2900.0000 -220.0000 -25.0000
v -2880.0000 -220.0000 -25.0000
v -2836.8222 -176.8222 -25.0000
v -2823.1778 -163.1778 -25.0000
v 100.0000 -3100.0000 -25.0000
v 100.0000 -3100.0000 25.0000
v 100.0000 100.0000 -25.0000
v 100.0000 100.0000 25.0000
v -2780.0000 -120.0000 25.0000
v -2780.0000 -100.0000 25.0000
v -2780.0000 -120.0000 -25.0000
v -2780.0000 -100.0000 -25.0000
v -2823.1778 -163.1778 25.0000
v -2780.0000 -120.0000 25.0000
v -2823.1778 -163.1778 -25.0000
v -2780.0000 -120.0000 -25.0000
v -2836.8222 -176.8222 25.0000
v -2823.1778 -163.1778 25.0000
v -2836.8222 -176.8222 -25.0000
v -2823.1778 -163.1778 -25.0000
v -2880.0000 -220.0000 25.0000
v -2836.8222 -176.8222 25.0000
v -2880.0000 -220.0000 -25.0000
v -2836.8222 -176.8222 -25.0000
v -2900.0000 -220.0000 25.0000
v -2880.0000 -220.0000 25.0000
v -2900.0000 -220.0000 -25.0000
v -2880.0000 -220.0000 -25.0000
v -3000.0000 -220.0000 25.0000
v -2900.0000 -220.0000 25.0000
v -3000.0000 -220.0000 -25.0000
v -2900.0000 -220.0000 -25.0000
v -3000.0000 -223.7063 25.0000
v -3000.0000 -220.0000 25.0000
v -3000.0000 -223.7063 -25.0000
v -3000.0000 -220.0000 -25.0000
v -3000.0000 -3000.0000 25.0000
v -3000.0000 -223.7063 25.0000
v -3000.0000 -3000.0000 -25.0000
v -3000.0000 -223.7063 -25.0000
v -2900.0000 -3000.0000 25.0000
v -3000.0000 -3000.0000 25.0000
v -2900.0000 -3000.0000 -25.0000
v -3000.0000 -3000.0000 -25.0000
v -1000.0000 -3000.0000 25.0000
v -2900.0000 -3000.0000 25.0000
v -1000.0000 -3000.0000 -25.0000
v -2900.0000 -3000.0000 -25.0000
v -996.9068 -3000.0000 25.0000
v -1000.0000 -3000.0000 25.0000
v -996.9068 -3000.0000 -25.0000
v -1000.0000 -3000.0000 -25.0000
v -936.9068 -2940.0000 25.0000
v -996.9068 -3000.0000 25.0000
v -936.9068 -2940.0000 -25.0000
v -996.9068 -3000.0000 -25.0000
v -60.0000 -2063.0932 25.0000
v -936.9068 -2940.0000 25.0000
v -60.0000 -2063.0932 -25.0000
v -936.9068 -2940.0000 -25.0000
v -0.0000 -2003.0932 25.0000
v -60.0000 -2063.0932 25.0000
v -0.0000 -2003.0932 -25.0000
v -60.0000 -2063.0932 -25.0000
v 0.0000 -100.0000 25.0000
v -0.0000 -2003.0932 25.0000
v 0.0000 -100.0000 -25.0000
v -0.0000 -2003.0932 -25.0000
v 0.0000 -0.0000 25.0000
v 0.0000 -100.0000 25.0000
v 0.0000 -0.0000 -25.0000
v 0.0000 -100.0000 -25.0000
v -2776.2937 -0.0000 25.0000
v 0.0000 -0.0000 25.0000
v -2776.2937 -0.0000 -25.0000
v 0.0000 -0.0000 -25.0000
v -2780.0000 -0.0000 25.0000
v -2776.2937 -0.0000 25.0000
v -2780.0000 -0.0000 -25.0000
v -2776.2937 -0.0000 -25.0000
v -2780.0000 -100.0000 25.0000
v -2780.0000 -0.0000 25.0000
v -2780.0000 -100.0000 -25.0000
v -2780.0000 -0.0000 -25.0000
v -60.0000 -100.0000 25.0000
v -2533.6707 -100.0000 25.0000
v -2533.6707 -288.0063 25.0000
v -60.0000 -1975.1472 25.0000
v -60.0000 -100.0000 25.0000
v -2533.6707 -100.0000 25.0000
v -60.0000 -100.0000 -25.0000
v -2533.6707 -100.0000 -25.0000
v -60.0000 -1975.1472 25.0000
v -60.0000 -100.0000 25.0000
v -60.0000 -1975.1472 -25.0000
v -60.0000 -100.0000 -25.0000
v -2533.6707 -288.0063 25.0000
v -60.0000 -1975.1472 25.0000
v -2533.6707 -288.0063 -25.0000
v -60.0000 -1975.1472 -25.0000
v -2533.6707 -100.0000 25.0000
v -2533.6707 -288.0063 25.0000
v -2533.6707 -100.0000 -25.0000
v -2533.6707 -288.0063 -25.0000
v -60.0000 -100.0000 -25.0000
v -2533.6707 -100.0000 -25.0000
v -2533.6707 -288.0063 -25.0000
v -60.0000 -1975.1472 -25.0000
v -103.1778 -2018.3250 25.0000
v -2563.3485 -340.3916 25.0000
v -2659.6084 -436.6515 25.0000
v -981.6750 -2896.8222 25.0000
v -103.1778 -2018.3250 25.0000
v -2563.3485 -340.3916 25.0000
v -103.1778 -2018.3250 -25.0000
v -2563.3485 -340.3916 -25.0000
v -981.6750 -2896.8222 25.0000
v -103.1778 -2018.3250 25.0000
v -981.6750 -2896.8222 -25.0000
v -103.1778 -2018.3250 -25.0000
v -2659.6084 -436.6515 25.0000
v -981.6750 -2896.8222 25.0000
v -2659.6084 -436.6515 -25.0000
v -981.6750 -2896.8222 -25.0000
v -2563.3485 -340.3916 25.0000
v -2659.6084 -436.6515 25.0000
v -2563.3485 -340.3916 -25.0000
v -2659.6084 -436.6515 -25.0000
v -103.1778 -2018.3250 -25.0000
v -2563.3485 -340.3916 -25.0000
v -2659.6084 -436.6515 -25.0000
v -981.6750 -2896.8222 -25.0000
v -2900.0000 -2940.0000 25.0000
v -1024.8528 -2940.0000 25.0000
v -2711.9937 -466.3293 25.0000
v -2900.0000 -466.3293 25.0000
v -2900.0000 -2940.0000 25.0000
v -1024.8528 -2940.0000 25.0000
v -2900.0000 -2940.0000 -25.0000
v -1024.8528 -2940.0000 -25.0000
v -2900.0000 -466.3293 25.0000
v -2900.0000 -2940.0000 25.0000
v -2900.0000 -466.3293 -25.0000
v -2900.0000 -2940.0000 -25.0000
v -2711.9937 -466.3293 25.0000
v -2900.0000 -466.3293 25.0000
v -2711.9937 -466.3293 -25.0000
v -2900.0000 -466.3293 -25.0000
v -1024.8528 -2940.0000 25.0000
v -2711.9937 -466.3293 25.0000
v -1024.8528 -2940.0000 -25.0000
v -2711.9937 -466.3293 -25.0000
v -2900.0000 -2940.0000 -25.0000
v -1024.8528 -2940.0000 -25.0000
v -2711.9937 -466.3293 -25.0000
v -2900.0000 -466.3293 -25.0000
f 1082 1083 1081
f 1082 1084 1083
f 1088 1085 1086
f 1088 1087 1085
f 1104 1105 1089
f 1103 1104 1089
f 1106 1089 1105
f 1110 1107 1108
f 1110 1108 1109
f 1090 1106 1107
f 1090 1089 1106
f 1091 1101 1102
f 1091 1102 1103
f 1094 1111 1093
f 1095 1110 1111
f 1095 1090 1107
f 1095 1107 1110
f 1095 1111 1094
f 1096 1090 1095
f 1100 1101 1091
f 1099 1100 1091
f 1092 1097 1098
f 1092 1098 1099
f 1089 1091 1103
f 1091 1092 1099
f 1092 1090 1096
f 1092 1096 1097
f 1115 1113 1112
f 1115 1112 1114
f 1131 1116 1132
f 1130 1116 1131
f 1133 1132 1116
f 1137 1135 1134
f 1137 1136 1135
f 1117 1134 1133
f 1117 1133 1116
f 1118 1129 1128
f 1118 1130 1129
f 1121 1120 1138
f 1122 1138 1137
f 1122 1134 1117
f 1122 1137 1134
f 1122 1121 1138
f 1123 1122 1117
f 1127 1118 1128
f 1126 1118 1127
f 1119 1125 1124
f 1119 1126 1125
f 1116 1130 1118
f 1118 1126 1119
f 1119 1123 1117
f 1119 1124 1123
f 1140 1139 1141
f 1140 1141 1142
f 1143 1145 1146
f 1144 1143 1146
f 1148 1147 1149
f 1148 1149 1150
f 1152 1151 1153
f 1152 1153 1154
f 1156 1155 1157
f 1156 1157 1158
f 1160 1159 1161
f 1160 1161 1162
f 1164 1163 1165
f 1164 1165 1166
f 1168 1167 1169
f 1168 1169 1170
f 1174 1171 1173
f 1172 1171 1174
f 1176 1175 1177
f 1176 1177 1178
f 1180 1179 1181
f 1180 1181 1182
f 1184 1183 1185
f 1184 1185 1186
f 1190 1187 1189
f 1188 1187 1190
f 1194 1191 1193
f 1192 1191 1194
f 1196 1195 1197
f 1196 1197 1198
f 1200 1199 1201
f 1200 1201 1202
f 1204 1203 1205
f 1204 1205 1206
f 1210 1207 1209
f 1208 1207 1210
f 1212 1211 1213
f 1212 1213 1214
f 1216 1215 1217
f 1216 1217 1218
f 1219 1220 1221
f 1219 1221 1222
f 1224 1223 1225
f 1224 1225 1226
f 1228 1227 1229
f 1228 1229 1230
f 1232 1231 1233
f 1232 1233 1234
f 1236 1235 1237
f 1236 1237 1238
f 1239 1241 1240
f 1239 1242 1241
f 1244 1245 1246
f 1243 1244 1246
f 1248 1247 1249
f 1248 1249 1250
f 1254 1251 1253
f 1252 1251 1254
f 1256 1255 1257
f 1256 1257 1258
f 1260 1259 1261
f 1260 1261 1262
f 1264 1266 1265
f 1263 1266 1264
f 1269 1267 1268
f 1269 1270 1267
f 1272 1271 1273
f 1272 1273 1274
f 1276 1275 1277
f 1276 1277 1278
f 1280 1279 1281
f 1280 1281 1282
f 1286 1283 1285
f 1284 1283 1286
f 1289 1288 1287
f 1289 1287 1290

o jig_oculus
usemtl mat_b8bdc266
v 1100.0000 -2307.1068 -25.0000
v 1100.0000 -2307.1068 25.0000
v 1100.0000 -692.8932 -25.0000
v 1100.0000 -692.8932 25.0000
v 1100.0000 -2307.1068 -25.0000
v 2714.2136 -2307.1068 -25.0000
v 1100.0000 -2307.1068 25.0000
v 2714.2136 -2307.1068 25.0000
v 1100.0000 -2307.1068 25.0000
v 1100.0000 -692.8932 25.0000
v 2714.2136 -2307.1068 25.0000
v 2714.2136 -692.8932 25.0000
v 2599.1655 -2192.0587 25.0000
v 1260.0000 -2192.0587 25.0000
v 1215.0481 -2192.0587 25.0000
v 1215.0481 -852.8932 25.0000
v 1215.0481 -807.9413 25.0000
v 2554.2136 -807.9413 25.0000
v 2599.1655 -807.9413 25.0000
v 2599.1655 -2147.1068 25.0000
v 1100.0000 -692.8932 -25.0000
v 2714.2136 -692.8932 -25.0000
v 1100.0000 -692.8932 25.0000
v 2714.2136 -692.8932 25.0000
v 1100.0000 -2307.1068 -25.0000
v 1100.0000 -692.8932 -25.0000
v 2714.2136 -2307.1068 -25.0000
v 2714.2136 -692.8932 -25.0000
v 2599.1655 -2192.0587 -25.0000
v 1260.0000 -2192.0587 -25.0000
v 1215.0481 -2192.0587 -25.0000
v 1215.0481 -852.8932 -25.0000
v 1215.0481 -807.9413 -25.0000
v 2554.2136 -807.9413 -25.0000
v 2599.1655 -807.9413 -25.0000
v 2599.1655 -2147.1068 -25.0000
v 2714.2136 -2307.1068 -25.0000
v 2714.2136 -2307.1068 25.0000
v 2714.2136 -692.8932 -25.0000
v 2714.2136 -692.8932 25.0000
v 2599.1655 -2192.0587 25.0000
v 1260.0000 -2192.0587 25.0000
v 2599.1655 -2192.0587 -25.0000
v 1260.0000 -2192.0587 -25.0000
v 2599.1655 -2147.1068 25.0000
v 2599.1655 -2192.0587 25.0000
v 2599.1655 -2147.1068 -25.0000
v 2599.1655 -2192.0587 -25.0000
v 2599.1655 -807.9413 25.0000
v 2599.1655 -2147.1068 25.0000
v 2599.1655 -807.9413 -25.0000
v 2599.1655 -2147.1068 -25.0000
v 2554.2136 -807.9413 25.0000
v 2599.1655 -807.9413 25.0000
v 2554.2136 -807.9413 -25.0000
v 2599.1655 -807.9413 -25.0000
v 1215.0481 -807.9413 25.0000
v 2554.2136 -807.9413 25.0000
v 1215.0481 -807.9413 -25.0000
v 2554.2136 -807.9413 -25.0000
v 1215.0481 -852.8932 25.0000
v 1215.0481 -807.9413 25.0000
v 1215.0481 -852.8932 -25.0000
v 1215.0481 -807.9413 -25.0000
v 1215.0481 -2192.0587 25.0000
v 1215.0481 -852.8932 25.0000
v 1215.0481 -2192.0587 -25.0000
v 1215.0481 -852.8932 -25.0000
v 1260.0000 -2192.0587 25.0000
v 1215.0481 -2192.0587 25.0000
v 1260.0000 -2192.0587 -25.0000
v 1215.0481 -2192.0587 -25.0000
v 1287.0000 -879.8932 25.0000
v 1287.0000 -2120.1068 25.0000
v 2527.2136 -2120.1068 25.0000
v 2527.2136 -879.8932 25.0000
v 1287.0000 -879.8932 25.0000
v 1287.0000 -2120.1068 25.0000
v 1287.0000 -879.8932 -25.0000
v 1287.0000 -2120.1068 -25.0000
v 2527.2136 -879.8932 25.0000
v 1287.0000 -879.8932 25.0000
v 2527.2136 -879.8932 -25.0000
v 1287.0000 -879.8932 -25.0000
v 2527.2136 -2120.1068 25.0000
v 2527.2136 -879.8932 25.0000
v 2527.2136 -2120.1068 -25.0000
v 2527.2136 -879.8932 -25.0000
v 1287.0000 -2120.1068 25.0000
v 2527.2136 -2120.1068 25.0000
v 1287.0000 -2120.1068 -25.0000
v 2527.2136 -2120.1068 -25.0000
v 1287.0000 -879.8932 -25.0000
v 1287.0000 -2120.1068 -25.0000
v 2527.2136 -2120.1068 -25.0000
v 2527.2136 -879.8932 -25.0000
f 1292 1293 1291
f 1292 1294 1293
f 1298 1295 1296
f 1298 1297 1295
f 1304 1305 1299
f 1306 1299 1305
f 1300 1299 1306
f 1307 1300 1306
f 1301 1303 1304
f 1301 1304 1299
f 1310 1303 1301
f 1302 1308 1309
f 1302 1309 1310
f 1302 1310 1301
f 1302 1300 1308
f 1308 1300 1307
f 1314 1312 1311
f 1314 1311 1313
f 1320 1315 1321
f 1322 1321 1315
f 1316 1322 1315
f 1323 1322 1316
f 1317 1320 1319
f 1317 1315 1320
f 1326 1317 1319
f 1318 1325 1324
f 1318 1326 1325
f 1318 1317 1326
f 1318 1324 1316
f 1324 1323 1316
f 1328 1327 1329
f 1328 1329 1330
f 1334 1331 1333
f 1332 1331 1334
f 1336 1335 1337
f 1336 1337 1338
f 1342 1339 1341
f 1340 1339 1342
f 1344 1343 1345
f 1344 1345 1346
f 1350 1347 1349
f 1348 1347 1350
f 1352 1351 1353
f 1352 1353 1354
f 1356 1355 1357
f 1356 1357 1358
f 1360 1359 1361
f 1360 1361 1362
f 1365 1363 1364
f 1366 1363 1365
f 1370 1367 1369
f 1368 1367 1370
f 1372 1371 1373
f 1372 1373 1374
f 1376 1375 1377
f 1376 1377 1378
f 1380 1379 1381
f 1380 1381 1382
f 1385 1384 1383
f 1386 1385 1383

o outer_ribs_0_0_pocket
usemtl mat_e63333ff
v -2780.0000 -100.0000 25.0000
v -2780.0000 -0.0000 25.0000
v -2776.2937 -100.0000 25.0000
v 0.0000 -100.0000 25.0000
v 0.0000 -0.0000 25.0000
v -2776.2937 -0.0000 25.0000
v -2780.0000 -100.0000 25.0000
v -2780.0000 -0.0000 25.0000
v -2780.0000 -100.0000 -25.0000
v -2780.0000 -0.0000 -25.0000
v -2780.0000 -0.0000 25.0000
v -2776.2937 -0.0000 25.0000
v -2780.0000 -0.0000 -25.0000
v -2776.2937 -0.0000 -25.0000
v -2776.2937 -0.0000 25.0000
v 0.0000 -0.0000 25.0000
v -2776.2937 -0.0000 -25.0000
v 0.0000 -0.0000 -25.0000
v 0.0000 -0.0000 25.0000
v 0.0000 -100.0000 25.0000
v 0.0000 -0.0000 -25.0000
v 0.0000 -100.0000 -25.0000
v 0.0000 -100.0000 25.0000
v -2776.2937 -100.0000 25.0000
v 0.0000 -100.0000 -25.0000
v -2776.2937 -100.0000 -25.0000
v -2776.2937 -100.0000 25.0000
v -2780.0000 -100.0000 25.0000
v -2776.2937 -100.0000 -25.0000
v -2780.0000 -100.0000 -25.0000
v -2780.0000 -100.0000 -25.0000
v -2780.0000 -0.0000 -25.0000
v -2776.2937 -100.0000 -25.0000
v 0.0000 -100.0000 -25.0000
v 0.0000 -0.0000 -25.0000
v -2776.2937 -0.0000 -25.0000
f 1392 1388 1387
f 1392 1387 1389
f 1391 1389 1390
f 1391 1392 1389
f 1394 1395 1393
f 1394 1396 1395
f 1398 1399 1397
f 1398 1400 1399
f 1404 1403 1401
f 1402 1404 1401
f 1406 1407 1405
f 1406 1408 1407
f 1412 1411 1409
f 1410 1412 1409
f 1414 1415 1413
f 1414 1416 1415
f 1422 1417 1418
f 1422 1419 1417
f 1421 1420 1419
f 1421 1419 1422

o outer_ribs_1_0_pocket
usemtl mat_e63333ff
v -3000.0000 -3000.0000 25.0000
v -3000.0000 -223.7063 25.0000
v -2900.0000 -3000.0000 25.0000
v -2900.0000 -223.7063 25.0000
v -2900.0000 -220.0000 25.0000
v -3000.0000 -220.0000 25.0000
v -3000.0000 -3000.0000 25.0000
v -3000.0000 -223.7063 25.0000
v -3000.0000 -3000.0000 -25.0000
v -3000.0000 -223.7063 -25.0000
v -3000.0000 -223.7063 25.0000
v -3000.0000 -220.0000 25.0000
v -3000.0000 -223.7063 -25.0000
v -3000.0000 -220.0000 -25.0000
v -3000.0000 -220.0000 25.0000
v -2900.0000 -220.0000 25.0000
v -3000.0000 -220.0000 -25.0000
v -2900.0000 -220.0000 -25.0000
v -2900.0000 -220.0000 25.0000
v -2900.0000 -223.7063 25.0000
v -2900.0000 -220.0000 -25.0000
v -2900.0000 -223.7063 -25.0000
v -2900.0000 -223.7063 25.0000
v -2900.0000 -3000.0000 25.0000
v -2900.0000 -223.7063 -25.0000
v -2900.0000 -3000.0000 -25.0000
v -2900.0000 -3000.0000 25.0000
v -3000.0000 -3000.0000 25.0000
v -2900.0000 -3000.0000 -25.0000
v -3000.0000 -3000.0000 -25.0000
v -3000.0000 -3000.0000 -25.0000
v -3000.0000 -223.7063 -25.0000
v -2900.0000 -3000.0000 -25.0000
v -2900.0000 -223.7063 -25.0000
v -2900.0000 -220.0000 -25.0000
v -3000.0000 -220.0000 -25.0000
f 1426 1424 1423
f 1426 1423 1425
f 1426 1428 1424
f 1427 1428 1426
f 1432 1431 1429
f 1430 1432 1429
f 1434 1435 1433
f 1434 1436 1435
f 1438 1439 1437
f 1438 1440 1439
f 1442 1443 1441
f 1442 1444 1443
f 1446 1447 1445
f 1446 1448 1447
f 1450 1451 1449
f 1450 1452 1451
f 1456 1453 1454
f 1456 1455 1453
f 1456 1454 1458
f 1457 1456 1458

o inner_ribs_0_0_pocket
usemtl mat_e63333ff
v -103.1778 -2018.3250 25.0000
v -2819.4715 -165.7056 25.0000
v -60.0000 -1975.1472 25.0000
v -2780.0000 -120.0000 25.0000
v -2823.1778 -163.1778 25.0000
v -103.1778 -2018.3250 25.0000
v -2819.4715 -165.7056 25.0000
v -103.1778 -2018.3250 -25.0000
v -2819.4715 -165.7056 -25.0000
v -2819.4715 -165.7056 25.0000
v -2823.1778 -163.1778 25.0000
v -2819.4715 -165.7056 -25.0000
v -2823.1778 -163.1778 -25.0000
v -2823.1778 -163.1778 25.0000
v -2780.0000 -120.0000 25.0000
v -2823.1778 -163.1778 -25.0000
v -2780.0000 -120.0000 -25.0000
v -2780.0000 -120.0000 25.0000
v -60.0000 -1975.1472 25.0000
v -2780.0000 -120.0000 -25.0000
v -60.0000 -1975.1472 -25.0000
v -60.0000 -1975.1472 25.0000
v -103.1778 -2018.3250 25.0000
v -60.0000 -1975.1472 -25.0000
v -103.1778 -2018.3250 -25.0000
v -103.1778 -2018.3250 -25.0000
v -2819.4715 -165.7056 -25.0000
v -60.0000 -1975.1472 -25.0000
v -2780.0000 -120.0000 -25.0000
v -2823.1778 -163.1778 -25.0000
f 1462 1463 1460
f 1459 1462 1460
f 1461 1462 1459
f 1465 1466 1464
f 1465 1467 1466
f 1469 1470 1468
f 1469 1471 1470
f 1473 1474 1472
f 1473 1475 1474
f 1477 1478 1476
f 1477 1479 1478
f 1483 1482 1480
f 1481 1483 1480
f 1487 1485 1488
f 1484 1485 1487
f 1486 1484 1487

o inner_ribs_1_0_pocket
usemtl mat_e63333ff
v -1024.8528 -2940.0000 25.0000
v -2877.4722 -223.7063 25.0000
v -981.6750 -2896.8222 25.0000
v -2834.2944 -180.5285 25.0000
v -2836.8222 -176.8222 25.0000
v -2880.0000 -220.0000 25.0000
v -1024.8528 -2940.0000 25.0000
v -2877.4722 -223.7063 25.0000
v -1024.8528 -2940.0000 -25.0000
v -2877.4722 -223.7063 -25.0000
v -2877.4722 -223.7063 25.0000
v -2880.0000 -220.0000 25.0000
v -2877.4722 -223.7063 -25.0000
v -2880.0000 -220.0000 -25.0000
v -2880.0000 -220.0000 25.0000
v -2836.8222 -176.8222 25.0000
v -2880.0000 -220.0000 -25.0000
v -2836.8222 -176.8222 -25.0000
v -2836.8222 -176.8222 25.0000
v -2834.2944 -180.5285 25.0000
v -2836.8222 -176.8222 -25.0000
v -2834.2944 -180.5285 -25.0000
v -2834.2944 -180.5285 25.0000
v -981.6750 -2896.8222 25.0000
v -2834.2944 -180.5285 -25.0000
v -981.6750 -2896.8222 -25.0000
v -981.6750 -2896.8222 25.0000
v -1024.8528 -2940.0000 25.0000
v -981.6750 -2896.8222 -25.0000
v -1024.8528 -2940.0000 -25.0000
v -1024.8528 -2940.0000 -25.0000
v -2877.4722 -223.7063 -25.0000
v -981.6750 -2896.8222 -25.0000
v -2834.2944 -180.5285 -25.0000
v -2836.8222 -176.8222 -25.0000
v -2880.0000 -220.0000 -25.0000
f 1490 1489 1491
f 1492 1494 1490
f 1492 1490 1491
f 1493 1494 1492
f 1496 1497 1495
f 1496 1498 1497
f 1500 1501 1499
f 1500 1502 1501
f 1504 1505 1503
f 1504 1506 1505
f 1508 1509 1507
f 1508 1510 1509
f 1512 1513 1511
f 1512 1514 1513
f 1516 1517 1515
f 1516 1518 1517
f 1520 1521 1519
f 1522 1520 1524
f 1522 1521 1520
f 1523 1522 1524

o wedges_inner_beams_0_0_pocket
usemtl mat_e63333ff
v -2533.6707 -288.0063 25.0000
v -2537.3769 -285.4785 25.0000
v -2533.6707 -100.0000 25.0000
v -2537.3769 -100.0000 25.0000
v -2776.2937 -100.0000 25.0000
v -2780.0000 -100.0000 25.0000
v -2780.0000 -120.0000 25.0000
v -2776.2937 -122.5278 25.0000
v -2683.0579 -186.1183 25.0000
v -2533.6707 -288.0063 25.0000
v -2537.3769 -285.4785 25.0000
v -2533.6707 -288.0063 -25.0000
v -2537.3769 -285.4785 -25.0000
v -2537.3769 -285.4785 25.0000
v -2683.0579 -186.1183 25.0000
v -2537.3769 -285.4785 -25.0000
v -2683.0579 -186.1183 -25.0000
v -2683.0579 -186.1183 25.0000
v -2776.2937 -122.5278 25.0000
v -2683.0579 -186.1183 -25.0000
v -2776.2937 -122.5278 -25.0000
v -2776.2937 -122.5278 25.0000
v -2780.0000 -120.0000 25.0000
v -2776.2937 -122.5278 -25.0000
v -2780.0000 -120.0000 -25.0000
v -2780.0000 -120.0000 25.0000
v -2780.0000 -100.0000 25.0000
v -2780.0000 -120.0000 -25.0000
v -2780.0000 -100.0000 -25.0000
v -2780.0000 -100.0000 25.0000
v -2776.2937 -100.0000 25.0000
v -2780.0000 -100.0000 -25.0000
v -2776.2937 -100.0000 -25.0000
v -2776.2937 -100.0000 25.0000
v -2537.3769 -100.0000 25.0000
v -2776.2937 -100.0000 -25.0000
v -2537.3769 -100.0000 -25.0000
v -2537.3769 -100.0000 25.0000
v -2533.6707 -100.0000 25.0000
v -2537.3769 -100.0000 -25.0000
v -2533.6707 -100.0000 -25.0000
v -2533.6707 -100.0000 25.0000
v -2533.6707 -288.0063 25.0000
v -2533.6707 -100.0000 -25.0000
v -2533.6707 -288.0063 -25.0000
v -2533.6707 -288.0063 -25.0000
v -2537.3769 -285.4785 -25.0000
v -2533.6707 -100.0000 -25.0000
v -2537.3769 -100.0000 -25.0000
v -2776.2937 -100.0000 -25.0000
v -2780.0000 -100.0000 -25.0000
v -2780.0000 -120.0000 -25.0000
v -2776.2937 -122.5278 -25.0000
v -2683.0579 -186.1183 -25.0000
f 1529 1530 1531
f 1529 1531 1532
f 1533 1529 1532
f 1528 1533 1526
f 1528 1529 1533
f 1527 1526 1525
f 1527 1528 1526
f 1535 1536 1534
f 1535 1537 1536
f 1539 1540 1538
f 1539 1541 1540
f 1543 1544 1542
f 1543 1545 1544
f 1547 1548 1546
f 1547 1549 1548
f 1551 1552 1550
f 1551 1553 1552
f 1555 1556 1554
f 1555 1557 1556
f 1561 1560 1558
f 1559 1561 1558
f 1563 1564 1562
f 1563 1565 1564
f 1567 1568 1566
f 1567 1569 1568
f 1574 1576 1575
f 1574 1577 1576
f 1578 1577 1574
f 1573 1571 1578
f 1573 1578 1574
f 1572 1570 1571
f 1572 1571 1573

o wedges_inner_beams_1_0_pocket
usemtl mat_e63333ff
v -2834.2944 -180.5285 25.0000
v -2836.8222 -176.8222 25.0000
v -2659.6084 -436.6515 25.0000
v -2563.3485 -340.3916 25.0000
v -2819.4715 -165.7056 25.0000
v -2823.1778 -163.1778 25.0000
v -2834.2944 -180.5285 25.0000
v -2836.8222 -176.8222 25.0000
v -2834.2944 -180.5285 -25.0000
v -2836.8222 -176.8222 -25.0000
v -2836.8222 -176.8222 25.0000
v -2823.1778 -163.1778 25.0000
v -2836.8222 -176.8222 -25.0000
v -2823.1778 -163.1778 -25.0000
v -2823.1778 -163.1778 25.0000
v -2819.4715 -165.7056 25.0000
v -2823.1778 -163.1778 -25.0000
v -2819.4715 -165.7056 -25.0000
v -2819.4715 -165.7056 25.0000
v -2563.3485 -340.3916 25.0000
v -2819.4715 -165.7056 -25.0000
v -2563.3485 -340.3916 -25.0000
v -2563.3485 -340.3916 25.0000
v -2659.6084 -436.6515 25.0000
v -2563.3485 -340.3916 -25.0000
v -2659.6084 -436.6515 -25.0000
v -2659.6084 -436.6515 25.0000
v -2834.2944 -180.5285 25.0000
v -2659.6084 -436.6515 -25.0000
v -2834.2944 -180.5285 -25.0000
v -2834.2944 -180.5285 -25.0000
v -2836.8222 -176.8222 -25.0000
v -2659.6084 -436.6515 -25.0000
v -2563.3485 -340.3916 -25.0000
v -2819.4715 -165.7056 -25.0000
v -2823.1778 -163.1778 -25.0000
f 1583 1580 1579
f 1583 1579 1581
f 1583 1584 1580
f 1582 1583 1581
f 1586 1587 1585
f 1586 1588 1587
f 1589 1592 1591
f 1590 1592 1589
f 1594 1595 1593
f 1594 1596 1595
f 1598 1599 1597
f 1598 1600 1599
f 1602 1603 1601
f 1602 1604 1603
f 1608 1607 1605
f 1606 1608 1605
f 1613 1609 1610
f 1613 1611 1609
f 1613 1610 1614
f 1612 1611 1613

o wedges_inner_beams_2_0_pocket
usemtl mat_e63333ff
v -2900.0000 -466.3293 25.0000
v -2900.0000 -462.6231 25.0000
v -2711.9937 -466.3293 25.0000
v -2714.5215 -462.6231 25.0000
v -2880.0000 -220.0000 25.0000
v -2900.0000 -220.0000 25.0000
v -2900.0000 -223.7063 25.0000
v -2900.0000 -466.3293 25.0000
v -2900.0000 -462.6231 25.0000
v -2900.0000 -466.3293 -25.0000
v -2900.0000 -462.6231 -25.0000
v -2900.0000 -462.6231 25.0000
v -2900.0000 -223.7063 25.0000
v -2900.0000 -462.6231 -25.0000
v -2900.0000 -223.7063 -25.0000
v -2900.0000 -223.7063 25.0000
v -2900.0000 -220.0000 25.0000
v -2900.0000 -223.7063 -25.0000
v -2900.0000 -220.0000 -25.0000
v -2900.0000 -220.0000 25.0000
v -2880.0000 -220.0000 25.0000
v -2900.0000 -220.0000 -25.0000
v -2880.0000 -220.0000 -25.0000
v -2880.0000 -220.0000 25.0000
v -2714.5215 -462.6231 25.0000
v -2880.0000 -220.0000 -25.0000
v -2714.5215 -462.6231 -25.0000
v -2714.5215 -462.6231 25.0000
v -2711.9937 -466.3293 25.0000
v -2714.5215 -462.6231 -25.0000
v -2711.9937 -466.3293 -25.0000
v -2711.9937 -466.3293 25.0000
v -2900.0000 -466.3293 25.0000
v -2711.9937 -466.3293 -25.0000
v -2900.0000 -466.3293 -25.0000
v -2900.0000 -466.3293 -25.0000
v -2900.0000 -462.6231 -25.0000
v -2711.9937 -466.3293 -25.0000
v -2714.5215 -462.6231 -25.0000
v -2880.0000 -220.0000 -25.0000
v -2900.0000 -220.0000 -25.0000
v -2900.0000 -223.7063 -25.0000
f 1618 1616 1615
f 1618 1615 1617
f 1619 1620 1621
f 1619 1621 1616
f 1619 1616 1618
f 1623 1624 1622
f 1623 1625 1624
f 1627 1628 1626
f 1627 1629 1628
f 1631 1632 1630
f 1631 1633 1632
f 1635 1636 1634
f 1635 1637 1636
f 1641 1640 1638
f 1639 1641 1638
f 1642 1645 1644
f 1643 1645 1642
f 1647 1648 1646
f 1647 1649 1648
f 1653 1650 1651
f 1653 1652 1650
f 1654 1656 1655
f 1654 1651 1656
f 1654 1653 1651

o inner_beams_0_0_pocket
usemtl mat_e63333ff
v -60.0000 -2063.0932 25.0000
v -60.0000 -2060.0000 25.0000
v -0.0000 -2003.0932 25.0000
v 0.0000 -100.0000 25.0000
v -60.0000 -100.0000 25.0000
v -60.0000 -2063.0932 25.0000
v -60.0000 -2060.0000 25.0000
v -60.0000 -2063.0932 -25.0000
v -60.0000 -2060.0000 -25.0000
v -60.0000 -2060.0000 25.0000
v -60.0000 -100.0000 25.0000
v -60.0000 -2060.0000 -25.0000
v -60.0000 -100.0000 -25.0000
v -60.0000 -100.0000 25.0000
v 0.0000 -100.0000 25.0000
v -60.0000 -100.0000 -25.0000
v 0.0000 -100.0000 -25.0000
v 0.0000 -100.0000 25.0000
v -0.0000 -2003.0932 25.0000
v 0.0000 -100.0000 -25.0000
v -0.0000 -2003.0932 -25.0000
v -0.0000 -2003.0932 25.0000
v -60.0000 -2063.0932 25.0000
v -0.0000 -2003.0932 -25.0000
v -60.0000 -2063.0932 -25.0000
v -60.0000 -2063.0932 -25.0000
v -60.0000 -2060.0000 -25.0000
v -0.0000 -2003.0932 -25.0000
v 0.0000 -100.0000 -25.0000
v -60.0000 -100.0000 -25.0000
f 1659 1658 1657
f 1661 1658 1659
f 1660 1661 1659
f 1663 1664 1662
f 1663 1665 1664
f 1667 1668 1666
f 1667 1669 1668
f 1673 1672 1670
f 1671 1673 1670
f 1675 1676 1674
f 1675 1677 1676
f 1679 1680 1678
f 1679 1681 1680
f 1684 1682 1683
f 1686 1684 1683
f 1685 1684 1686

o inner_beams_1_0_pocket
usemtl mat_e63333ff
v -60.0000 -2063.0932 25.0000
v -936.9068 -2940.0000 25.0000
v -60.0000 -2060.0000 25.0000
v -60.0000 -1975.1472 25.0000
v -1024.8528 -2940.0000 25.0000
v -940.0000 -2940.0000 25.0000
v -60.0000 -2063.0932 25.0000
v -936.9068 -2940.0000 25.0000
v -60.0000 -2063.0932 -25.0000
v -936.9068 -2940.0000 -25.0000
v -936.9068 -2940.0000 25.0000
v -940.0000 -2940.0000 25.0000
v -936.9068 -2940.0000 -25.0000
v -940.0000 -2940.0000 -25.0000
v -940.0000 -2940.0000 25.0000
v -1024.8528 -2940.0000 25.0000
v -940.0000 -2940.0000 -25.0000
v -1024.8528 -2940.0000 -25.0000
v -1024.8528 -2940.0000 25.0000
v -60.0000 -1975.1472 25.0000
v -1024.8528 -2940.0000 -25.0000
v -60.0000 -1975.1472 -25.0000
v -60.0000 -1975.1472 25.0000
v -60.0000 -2060.0000 25.0000
v -60.0000 -1975.1472 -25.0000
v -60.0000 -2060.0000 -25.0000
v -60.0000 -2060.0000 25.0000
v -60.0000 -2063.0932 25.0000
v -60.0000 -2060.0000 -25.0000
v -60.0000 -2063.0932 -25.0000
v -60.0000 -2063.0932 -25.0000
v -936.9068 -2940.0000 -25.0000
v -60.0000 -2060.0000 -25.0000
v -60.0000 -1975.1472 -25.0000
v -1024.8528 -2940.0000 -25.0000
v -940.0000 -2940.0000 -25.0000
f 1689 1688 1687
f 1689 1691 1692
f 1689 1692 1688
f 1690 1691 1689
f 1694 1695 1693
f 1694 1696 1695
f 1698 1699 1697
f 1698 1700 1699
f 1702 1703 1701
f 1702 1704 1703
f 1708 1707 1705
f 1706 1708 1705
f 1712 1711 1709
f 1710 1712 1709
f 1714 1715 1713
f 1714 1716 1715
f 1719 1717 1718
f 1719 1722 1721
f 1719 1718 1722
f 1720 1719 1721

o inner_beams_2_0_pocket
usemtl mat_e63333ff
v -2900.0000 -3000.0000 25.0000
v -2900.0000 -2940.0000 25.0000
v -1000.0000 -3000.0000 25.0000
v -996.9068 -3000.0000 25.0000
v -936.9068 -2940.0000 25.0000
v -940.0000 -2940.0000 25.0000
v -2900.0000 -3000.0000 25.0000
v -2900.0000 -2940.0000 25.0000
v -2900.0000 -3000.0000 -25.0000
v -2900.0000 -2940.0000 -25.0000
v -2900.0000 -2940.0000 25.0000
v -940.0000 -2940.0000 25.0000
v -2900.0000 -2940.0000 -25.0000
v -940.0000 -2940.0000 -25.0000
v -940.0000 -2940.0000 25.0000
v -936.9068 -2940.0000 25.0000
v -940.0000 -2940.0000 -25.0000
v -936.9068 -2940.0000 -25.0000
v -936.9068 -2940.0000 25.0000
v -996.9068 -3000.0000 25.0000
v -936.9068 -2940.0000 -25.0000
v -996.9068 -3000.0000 -25.0000
v -996.9068 -3000.0000 25.0000
v -1000.0000 -3000.0000 25.0000
v -996.9068 -3000.0000 -25.0000
v -1000.0000 -3000.0000 -25.0000
v -1000.0000 -3000.0000 25.0000
v -2900.0000 -3000.0000 25.0000
v -1000.0000 -3000.0000 -25.0000
v -2900.0000 -3000.0000 -25.0000
v -2900.0000 -3000.0000 -25.0000
v -2900.0000 -2940.0000 -25.0000
v -1000.0000 -3000.0000 -25.0000
v -996.9068 -3000.0000 -25.0000
v -936.9068 -2940.0000 -25.0000
v -940.0000 -2940.0000 -25.0000
f 1725 1724 1723
f 1728 1725 1726
f 1727 1728 1726
f 1728 1724 1725
f 1732 1731 1729
f 1730 1732 1729
f 1734 1735 1733
f 1734 1736 1735
f 1738 1739 1737
f 1738 1740 1739
f 1742 1743 1741
f 1742 1744 1743
f 1746 1747 1745
f 1746 1748 1747
f 1750 1751 1749
f 1750 1752 1751
f 1755 1753 1754
f 1758 1756 1755
f 1757 1756 1758
f 1758 1755 1754

o oculus_0_pocket
usemtl mat_e63333ff
v 1260.0000 -2189.8715 25.0000
v 1260.0000 -2147.1068 25.0000
v 1260.0000 -2192.0587 25.0000
v 2599.1655 -2192.0587 25.0000
v 2599.1655 -2147.1068 25.0000
v 2596.9783 -2147.1068 25.0000
v 1260.0000 -2189.8715 25.0000
v 1260.0000 -2147.1068 25.0000
v 1260.0000 -2189.8715 -25.0000
v 1260.0000 -2147.1068 -25.0000
v 1260.0000 -2147.1068 25.0000
v 2596.9783 -2147.1068 25.0000
v 1260.0000 -2147.1068 -25.0000
v 2596.9783 -2147.1068 -25.0000
v 2596.9783 -2147.1068 25.0000
v 2599.1655 -2147.1068 25.0000
v 2596.9783 -2147.1068 -25.0000
v 2599.1655 -2147.1068 -25.0000
v 2599.1655 -2147.1068 25.0000
v 2599.1655 -2192.0587 25.0000
v 2599.1655 -2147.1068 -25.0000
v 2599.1655 -2192.0587 -25.0000
v 2599.1655 -2192.0587 25.0000
v 1260.0000 -2192.0587 25.0000
v 2599.1655 -2192.0587 -25.0000
v 1260.0000 -2192.0587 -25.0000
v 1260.0000 -2192.0587 25.0000
v 1260.0000 -2189.8715 25.0000
v 1260.0000 -2192.0587 -25.0000
v 1260.0000 -2189.8715 -25.0000
v 1260.0000 -2189.8715 -25.0000
v 1260.0000 -2147.1068 -25.0000
v 1260.0000 -2192.0587 -25.0000
v 2599.1655 -2192.0587 -25.0000
v 2599.1655 -2147.1068 -25.0000
v 2596.9783 -2147.1068 -25.0000
f 1764 1760 1759
f 1764 1759 1761
f 1764 1761 1762
f 1763 1764 1762
f 1766 1767 1765
f 1766 1768 1767
f 1772 1771 1769
f 1770 1772 1769
f 1774 1775 1773
f 1774 1776 1775
f 1778 1779 1777
f 1778 1780 1779
f 1784 1783 1781
f 1782 1784 1781
f 1786 1787 1785
f 1786 1788 1787
f 1794 1789 1790
f 1794 1791 1789
f 1794 1792 1791
f 1793 1792 1794

o oculus_1_pocket
usemtl mat_e63333ff
v 2599.1655 -2147.1068 25.0000
v 2596.9783 -2147.1068 25.0000
v 2599.1655 -807.9413 25.0000
v 2554.2136 -807.9413 25.0000
v 2554.2136 -810.1285 25.0000
v 2554.2136 -2147.1068 25.0000
v 2599.1655 -2147.1068 25.0000
v 2596.9783 -2147.1068 25.0000
v 2599.1655 -2147.1068 -25.0000
v 2596.9783 -2147.1068 -25.0000
v 2596.9783 -2147.1068 25.0000
v 2554.2136 -2147.1068 25.0000
v 2596.9783 -2147.1068 -25.0000
v 2554.2136 -2147.1068 -25.0000
v 2554.2136 -2147.1068 25.0000
v 2554.2136 -810.1285 25.0000
v 2554.2136 -2147.1068 -25.0000
v 2554.2136 -810.1285 -25.0000
v 2554.2136 -810.1285 25.0000
v 2554.2136 -807.9413 25.0000
v 2554.2136 -810.1285 -25.0000
v 2554.2136 -807.9413 -25.0000
v 2554.2136 -807.9413 25.0000
v 2599.1655 -807.9413 25.0000
v 2554.2136 -807.9413 -25.0000
v 2599.1655 -807.9413 -25.0000
v 2599.1655 -807.9413 25.0000
v 2599.1655 -2147.1068 25.0000
v 2599.1655 -807.9413 -25.0000
v 2599.1655 -2147.1068 -25.0000
v 2599.1655 -2147.1068 -25.0000
v 2596.9783 -2147.1068 -25.0000
v 2599.1655 -807.9413 -25.0000
v 2554.2136 -807.9413 -25.0000
v 2554.2136 -810.1285 -25.0000
v 2554.2136 -2147.1068 -25.0000
f 1799 1796 1795
f 1799 1800 1796
f 1797 1798 1799
f 1797 1799 1795
f 1802 1803 1801
f 1802 1804 1803
f 1806 1807 1805
f 1806 1808 1807
f 1810 1811 1809
f 1810 1812 1811
f 1814 1815 1813
f 1814 1816 1815
f 1818 1819 1817
f 1818 1820 1819
f 1824 1823 1821
f 1822 1824 1821
f 1829 1825 1826
f 1829 1826 1830
f 1827 1829 1828
f 1827 1825 1829

o oculus_2_pocket
usemtl mat_e63333ff
v 1215.0481 -852.8932 25.0000
v 1215.0481 -807.9413 25.0000
v 2554.2136 -852.8932 25.0000
v 2554.2136 -810.1285 25.0000
v 2554.2136 -807.9413 25.0000
v 1215.0481 -852.8932 25.0000
v 1215.0481 -807.9413 25.0000
v 1215.0481 -852.8932 -25.0000
v 1215.0481 -807.9413 -25.0000
v 1215.0481 -807.9413 25.0000
v 2554.2136 -807.9413 25.0000
v 1215.0481 -807.9413 -25.0000
v 2554.2136 -807.9413 -25.0000
v 2554.2136 -807.9413 25.0000
v 2554.2136 -810.1285 25.0000
v 2554.2136 -807.9413 -25.0000
v 2554.2136 -810.1285 -25.0000
v 2554.2136 -810.1285 25.0000
v 2554.2136 -852.8932 25.0000
v 2554.2136 -810.1285 -25.0000
v 2554.2136 -852.8932 -25.0000
v 2554.2136 -852.8932 25.0000
v 1215.0481 -852.8932 25.0000
v 2554.2136 -852.8932 -25.0000
v 1215.0481 -852.8932 -25.0000
v 1215.0481 -852.8932 -25.0000
v 1215.0481 -807.9413 -25.0000
v 2554.2136 -852.8932 -25.0000
v 2554.2136 -810.1285 -25.0000
v 2554.2136 -807.9413 -25.0000
f 1834 1832 1831
f 1834 1831 1833
f 1835 1832 1834
f 1837 1838 1836
f 1837 1839 1838
f 1843 1842 1840
f 1841 1843 1840
f 1845 1846 1844
f 1845 1847 1846
f 1849 1850 1848
f 1849 1851 1850
f 1855 1854 1852
f 1853 1855 1852
f 1859 1856 1857
f 1859 1858 1856
f 1860 1859 1857

o oculus_3_pocket
usemtl mat_e63333ff
v 1215.0481 -2192.0587 25.0000
v 1215.0481 -852.8932 25.0000
v 1260.0000 -2192.0587 25.0000
v 1260.0000 -852.8932 25.0000
v 1217.2353 -852.8932 25.0000
v 1215.0481 -2192.0587 25.0000
v 1215.0481 -852.8932 25.0000
v 1215.0481 -2192.0587 -25.0000
v 1215.0481 -852.8932 -25.0000
v 1215.0481 -852.8932 25.0000
v 1217.2353 -852.8932 25.0000
v 1215.0481 -852.8932 -25.0000
v 1217.2353 -852.8932 -25.0000
v 1217.2353 -852.8932 25.0000
v 1260.0000 -852.8932 25.0000
v 1217.2353 -852.8932 -25.0000
v 1260.0000 -852.8932 -25.0000
v 1260.0000 -852.8932 25.0000
v 1260.0000 -2192.0587 25.0000
v 1260.0000 -852.8932 -25.0000
v 1260.0000 -2192.0587 -25.0000
v 1260.0000 -2192.0587 25.0000
v 1215.0481 -2192.0587 25.0000
v 1260.0000 -2192.0587 -25.0000
v 1215.0481 -2192.0587 -25.0000
v 1215.0481 -2192.0587 -25.0000
v 1215.0481 -852.8932 -25.0000
v 1260.0000 -2192.0587 -25.0000
v 1260.0000 -852.8932 -25.0000
v 1217.2353 -852.8932 -25.0000
f 1865 1862 1861
f 1865 1861 1863
f 1864 1865 1863
f 1867 1868 1866
f 1867 1869 1868
f 1871 1872 1870
f 1871 1873 1872
f 1875 1876 1874
f 1875 1877 1876
f 1879 1880 1878
f 1879 1881 1880
f 1883 1884 1882
f 1883 1885 1884
f 1890 1886 1887
f 1890 1888 1886
f 1889 1888 1890

o oculus_4_pocket
usemtl mat_e63333ff
v 1287.0000 -2120.1068 25.0000
v 2554.2136 -2120.1068 25.0000
v 1287.0000 -2147.1068 25.0000
v 2554.2136 -2147.1068 25.0000
v 1287.0000 -2120.1068 25.0000
v 2554.2136 -2120.1068 25.0000
v 1287.0000 -2120.1068 -25.0000
v 2554.2136 -2120.1068 -25.0000
v 2554.2136 -2120.1068 25.0000
v 2554.2136 -2147.1068 25.0000
v 2554.2136 -2120.1068 -25.0000
v 2554.2136 -2147.1068 -25.0000
v 2554.2136 -2147.1068 25.0000
v 1287.0000 -2147.1068 25.0000
v 2554.2136 -2147.1068 -25.0000
v 1287.0000 -2147.1068 -25.0000
v 1287.0000 -2147.1068 25.0000
v 1287.0000 -2120.1068 25.0000
v 1287.0000 -2147.1068 -25.0000
v 1287.0000 -2120.1068 -25.0000
v 1287.0000 -2120.1068 -25.0000
v 2554.2136 -2120.1068 -25.0000
v 1287.0000 -2147.1068 -25.0000
v 2554.2136 -2147.1068 -25.0000
f 1892 1891 1893
f 1892 1893 1894
f 1896 1897 1895
f 1896 1898 1897
f 1899 1902 1901
f 1900 1902 1899
f 1904 1905 1903
f 1904 1906 1905
f 1907 1910 1909
f 1908 1910 1907
f 1912 1913 1911
f 1912 1914 1913

o oculus_5_pocket
usemtl mat_e63333ff
v 2527.2136 -2120.1068 25.0000
v 2527.2136 -852.8932 25.0000
v 2554.2136 -2120.1068 25.0000
v 2554.2136 -852.8932 25.0000
v 2527.2136 -2120.1068 25.0000
v 2527.2136 -852.8932 25.0000
v 2527.2136 -2120.1068 -25.0000
v 2527.2136 -852.8932 -25.0000
v 2527.2136 -852.8932 25.0000
v 2554.2136 -852.8932 25.0000
v 2527.2136 -852.8932 -25.0000
v 2554.2136 -852.8932 -25.0000
v 2554.2136 -852.8932 25.0000
v 2554.2136 -2120.1068 25.0000
v 2554.2136 -852.8932 -25.0000
v 2554.2136 -2120.1068 -25.0000
v 2554.2136 -2120.1068 25.0000
v 2527.2136 -2120.1068 25.0000
v 2554.2136 -2120.1068 -25.0000
v 2527.2136 -2120.1068 -25.0000
v 2527.2136 -2120.1068 -25.0000
v 2527.2136 -852.8932 -25.0000
v 2554.2136 -2120.1068 -25.0000
v 2554.2136 -852.8932 -25.0000
f 1918 1916 1915
f 1918 1915 1917
f 1920 1921 1919
f 1920 1922 1921
f 1923 1926 1925
f 1924 1926 1923
f 1928 1929 1927
f 1928 1930 1929
f 1931 1934 1933
f 1932 1934 1931
f 1938 1935 1936
f 1938 1937 1935

o oculus_6_pocket
usemtl mat_e63333ff
v 2527.2136 -879.8932 25.0000
v 1260.0000 -879.8932 25.0000
v 2527.2136 -852.8932 25.0000
v 1260.0000 -852.8932 25.0000
v 2527.2136 -879.8932 25.0000
v 1260.0000 -879.8932 25.0000
v 2527.2136 -879.8932 -25.0000
v 1260.0000 -879.8932 -25.0000
v 1260.0000 -879.8932 25.0000
v 1260.0000 -852.8932 25.0000
v 1260.0000 -879.8932 -25.0000
v 1260.0000 -852.8932 -25.0000
v 1260.0000 -852.8932 25.0000
v 2527.2136 -852.8932 25.0000
v 1260.0000 -852.8932 -25.0000
v 2527.2136 -852.8932 -25.0000
v 2527.2136 -852.8932 25.0000
v 2527.2136 -879.8932 25.0000
v 2527.2136 -852.8932 -25.0000
v 2527.2136 -879.8932 -25.0000
v 2527.2136 -879.8932 -25.0000
v 1260.0000 -879.8932 -25.0000
v 2527.2136 -852.8932 -25.0000
v 1260.0000 -852.8932 -25.0000
f 1941 1940 1939
f 1941 1942 1940
f 1944 1945 1943
f 1944 1946 1945
f 1948 1949 1947
f 1948 1950 1949
f 1952 1953 1951
f 1952 1954 1953
f 1955 1958 1957
f 1956 1958 1955
f 1961 1959 1960
f 1961 1960 1962

o oculus_7_pocket
usemtl mat_e63333ff
v 1287.0000 -879.8932 25.0000
v 1287.0000 -2147.1068 25.0000
v 1260.0000 -879.8932 25.0000
v 1260.0000 -2147.1068 25.0000
v 1287.0000 -879.8932 25.0000
v 1287.0000 -2147.1068 25.0000
v 1287.0000 -879.8932 -25.0000
v 1287.0000 -2147.1068 -25.0000
v 1287.0000 -2147.1068 25.0000
v 1260.0000 -2147.1068 25.0000
v 1287.0000 -2147.1068 -25.0000
v 1260.0000 -2147.1068 -25.0000
v 1260.0000 -2147.1068 25.0000
v 1260.0000 -879.8932 25.0000
v 1260.0000 -2147.1068 -25.0000
v 1260.0000 -879.8932 -25.0000
v 1260.0000 -879.8932 25.0000
v 1287.0000 -879.8932 25.0000
v 1260.0000 -879.8932 -25.0000
v 1287.0000 -879.8932 -25.0000
v 1287.0000 -879.8932 -25.0000
v 1287.0000 -2147.1068 -25.0000
v 1260.0000 -879.8932 -25.0000
v 1260.0000 -2147.1068 -25.0000
f 1963 1965 1966
f 1963 1966 1964
f 1968 1969 1967
f 1968 1970 1969
f 1972 1973 1971
f 1972 1974 1973
f 1976 1977 1975
f 1976 1978 1977
f 1979 1982 1981
f 1980 1982 1979
f 1983 1986 1985
f 1983 1984 1986
