# Rhino

mtllib custom_head0.mtl
usemtl Default
v -30 -502.01016235351562 0
v -30 -502.01016235351562 105
v 30 -502.01016235351562 0
v 30 -502.01016235351562 105
v 30 502.01016235351562 0
v 30 -502.01016235351562 0
v -30 502.01016235351562 0
v -30 -502.01016235351562 0
v -30 -502.01016235351562 105
v -30 -40 116.62725830078125
v 30 -502.01016235351562 105
v 30 -40 116.62725830078125
v 30 -40 77.621253967285156
v -30 -40 77.621253967285156
v 30 -40 116.62725830078125
v -30 -40 116.62725830078125
v 30 40 116.62725830078125
v -30 40 77.621253967285156
v 30 40 77.621253967285156
v -30 40 116.62725830078125
v 30 502.01016235351562 105
v -30 502.01016235351562 105
v -30 40 116.62725830078125
v 30 40 116.62725830078125
v 30 502.01016235351562 0
v 30 502.01016235351562 105
v -30 502.01016235351562 0
v -30 502.01016235351562 105
v -30 502.01016235351562 0
v -30 -502.01016235351562 0
v -30 502.01016235351562 105
v -30 -502.01016235351562 105
v -30 -40 116.62725830078125
v -30 -40 77.621253967285156
v -30 40 77.621253967285156
v -30 40 116.62725830078125
v 30 -502.01016235351562 0
v 30 502.01016235351562 0
v 30 502.01016235351562 105
v 30 -502.01016235351562 105
v 30 -40 116.62725830078125
v 30 -40 77.621253967285156
v 30 40 116.62725830078125
v 30 40 77.621253967285156
v -30 -40 77.621253967285156
v 30 40 77.621253967285156
v 30 -40 77.621253967285156
v -30 40 77.621253967285156
f 2 1 3 4
f 6 8 7 5
f 10 9 11 12
f 13 14 16 15
f 19 17 20 18
f 24 21 22 23
f 26 25 27 28
f 31 29 35
f 29 30 34 35
f 35 36 31
f 32 34 30
f 34 32 33
f 40 37 42
f 44 42 37
f 42 41 40
f 39 44 38
f 37 38 44
f 44 39 43
f 45 47 46 48
