# Rhino

mtllib schoring_vertical_body_end_4.mtl
usemtl Default
v -70.000877380371094 -69.999999999999915 -8.0000000000009095
v -70.000877380371094 70.000000000000085 -8.0000000000009095
v 70 70.000000000000085 -8.0000000000009095
v 70 -69.999999999999915 -8.0000000000009095
v -70.000877380371094 70.000000000000085 -8.0000000000009095
v -70.000877380371094 70.000000000000085 0
v 70 70.000000000000085 0
v 70 70.000000000000085 -8.0000000000009095
v -70.000877380371094 70.000000000000085 0
v -70.000877380371094 -69.999999999999915 0
v 70 -69.999999999999915 0
v 70 70.000000000000085 0
v -70.000877380371094 -69.999999999999915 0
v -70.000877380371094 -69.999999999999915 -8.0000000000009095
v 70 -69.999999999999915 -8.0000000000009095
v 70 -69.999999999999915 0
v -70.000877380371094 -69.999999999999915 -8.0000000000009095
v -70.000877380371094 -69.999999999999915 0
v -70.000877380371094 70.000000000000085 0
v -70.000877380371094 70.000000000000085 -8.0000000000009095
v 70 -69.999999999999915 -8.0000000000009095
v 70 70.000000000000085 -8.0000000000009095
v 70 70.000000000000085 0
v 70 -69.999999999999915 0
v -32.250000000000014 -32.249999999999922 -2215.0000000000014
v 32.250000000000014 -32.249999999999922 -2215.0000000000014
v 32.250000000000014 -32.249999999999922 -7.9999999999990905
v -32.250000000000014 -32.249999999999922 -7.9999999999990905
v 32.250000000000014 -32.249999999999922 -2215.0000000000014
v 32.250000000000014 32.250000000000107 -2215.0000000000014
v 32.250000000000014 32.250000000000107 -7.9999999999990905
v 32.250000000000014 -32.249999999999922 -7.9999999999990905
v 32.250000000000014 32.250000000000107 -2215.0000000000014
v -32.250000000000014 32.250000000000107 -2215.0000000000014
v -32.250000000000014 32.250000000000107 -7.9999999999990905
v 32.250000000000014 32.250000000000107 -7.9999999999990905
v -32.250000000000014 32.250000000000107 -2215.0000000000014
v -32.250000000000014 -32.249999999999922 -2215.0000000000014
v -32.250000000000014 -32.249999999999922 -7.9999999999990905
v -32.250000000000014 32.250000000000107 -7.9999999999990905
v -32.250000000000014 -32.249999999999922 -2215.0000000000014
v -32.250000000000014 32.250000000000107 -2215.0000000000014
v 32.250000000000014 32.250000000000107 -2215.0000000000014
v 32.250000000000014 -32.249999999999922 -2215.0000000000014
v -32.250000000000014 -32.249999999999922 -7.9999999999990905
v 32.250000000000014 -32.249999999999922 -7.9999999999990905
v 32.250000000000014 32.250000000000107 -7.9999999999990905
v -32.250000000000014 32.250000000000107 -7.9999999999990905
f 1 2 3 4
f 5 6 7 8
f 9 10 11 12
f 13 14 15 16
f 17 18 19 20
f 21 22 23 24
f 25 26 27 28
f 29 30 31 32
f 33 34 35 36
f 37 38 39 40
f 41 42 43 44
f 45 46 47 48
