# Rhino

mtllib schoring_vertical_body_start_1.mtl
usemtl Default
v -60.000881195068359 -60.000000000000121 0
v -60.000881195068359 60.000000000000021 0
v 60.000000000000043 60.000000000000021 0
v 60.000000000000043 -60.000000000000121 0
v -60.000881195068359 60.000000000000021 0
v -60.000881195068359 60.000000000000021 8
v 60.000000000000043 60.000000000000021 8
v 60.000000000000043 60.000000000000021 0
v -60.000881195068359 60.000000000000021 8
v -60.000881195068359 -60.000000000000121 8
v 60.000000000000043 -60.000000000000121 8
v 60.000000000000043 60.000000000000021 8
v -60.000881195068359 -60.000000000000121 8
v -60.000881195068359 -60.000000000000121 0
v 60.000000000000043 -60.000000000000121 0
v 60.000000000000043 -60.000000000000121 8
v -60.000881195068359 -60.000000000000121 0
v -60.000881195068359 -60.000000000000121 8
v -60.000881195068359 60.000000000000021 8
v -60.000881195068359 60.000000000000021 0
v 60.000000000000043 -60.000000000000121 0
v 60.000000000000043 60.000000000000021 0
v 60.000000000000043 60.000000000000021 8
v 60.000000000000043 -60.000000000000121 8
v -33.000881195068359 -33.000000000000014 7.9999999999997726
v 33.000000000000014 -33.000000000000014 7.9999999999997726
v 33.000000000000014 -33.000000000000014 1364
v -33.000881195068359 -33.000000000000014 1364
v 33.000000000000014 -33.000000000000014 7.9999999999997726
v 33.000000000000014 33.000000000000014 7.9999999999997726
v 33.000000000000014 33.000000000000014 1364
v 33.000000000000014 -33.000000000000014 1364
v 33.000000000000014 33.000000000000014 7.9999999999997726
v -33.000881195068359 33.000000000000014 7.9999999999997726
v -33.000881195068359 33.000000000000014 1364
v 33.000000000000014 33.000000000000014 1364
v -33.000881195068359 33.000000000000014 7.9999999999997726
v -33.000881195068359 -33.000000000000014 7.9999999999997726
v -33.000881195068359 -33.000000000000014 1364
v -33.000881195068359 33.000000000000014 1364
v -33.000881195068359 -33.000000000000014 7.9999999999997726
v -33.000881195068359 33.000000000000014 7.9999999999997726
v 33.000000000000014 33.000000000000014 7.9999999999997726
v 33.000000000000014 -33.000000000000014 7.9999999999997726
v -33.000881195068359 -33.000000000000014 1364
v 33.000000000000014 -33.000000000000014 1364
v 33.000000000000014 33.000000000000014 1364
v -33.000881195068359 33.000000000000014 1364
f 1 2 3 4
f 5 6 7 8
f 9 10 11 12
f 13 14 15 16
f 17 18 19 20
f 21 22 23 24
f 25 26 27 28
f 29 30 31 32
f 33 34 35 36
f 37 38 39 40
f 41 42 43 44
f 45 46 47 48
