# Rhino

mtllib schoring_vertical_body_end_2.mtl
usemtl Default
v -60.000881195068359 -60.000000000558913 -8.0000000000006821
v -60.000881195068359 60.000000000000227 -8.0000000000006821
v 60 60.000000000000227 -8.0000000000006821
v 60 -60.000000000558913 -8.0000000000006821
v -60.000881195068359 60.000000000000227 -8.0000000000006821
v -60.000881195068359 60.000000000000227 0
v 60 60.000000000000227 0
v 60 60.000000000000227 -8.0000000000006821
v -60.000881195068359 60.000000000000227 0
v -60.000881195068359 -60.000000000558913 0
v 60 -60.000000000558913 0
v 60 60.000000000000227 0
v -60.000881195068359 -60.000000000558913 0
v -60.000881195068359 -60.000000000558913 -8.0000000000006821
v 60 -60.000000000558913 -8.0000000000006821
v 60 -60.000000000558913 0
v -60.000881195068359 -60.000000000558913 -8.0000000000006821
v -60.000881195068359 -60.000000000558913 0
v -60.000881195068359 60.000000000000227 0
v -60.000881195068359 60.000000000000227 -8.0000000000006821
v 60 -60.000000000558913 -8.0000000000006821
v 60 60.000000000000227 -8.0000000000006821
v 60 60.000000000000227 0
v 60 -60.000000000558913 0
v -27.000000000560263 -27.000000000558899 -1715.0000000000005
v 27 -27.000000000558899 -1715.0000000000005
v 27 -27.000000000558899 -7.9999999999993179
v -27.000000000560263 -27.000000000558899 -7.9999999999993179
v 27 -27.000000000558899 -1715.0000000000005
v 27 27.000000000000227 -1715.0000000000005
v 27 27.000000000000227 -7.9999999999993179
v 27 -27.000000000558899 -7.9999999999993179
v 27 27.000000000000227 -1715.0000000000005
v -27.000000000560263 27.000000000000227 -1715.0000000000005
v -27.000000000560263 27.000000000000227 -7.9999999999993179
v 27 27.000000000000227 -7.9999999999993179
v -27.000000000560263 27.000000000000227 -1715.0000000000005
v -27.000000000560263 -27.000000000558899 -1715.0000000000005
v -27.000000000560263 -27.000000000558899 -7.9999999999993179
v -27.000000000560263 27.000000000000227 -7.9999999999993179
v -27.000000000560263 -27.000000000558899 -1715.0000000000005
v -27.000000000560263 27.000000000000227 -1715.0000000000005
v 27 27.000000000000227 -1715.0000000000005
v 27 -27.000000000558899 -1715.0000000000005
v -27.000000000560263 -27.000000000558899 -7.9999999999993179
v 27 -27.000000000558899 -7.9999999999993179
v 27 27.000000000000227 -7.9999999999993179
v -27.000000000560263 27.000000000000227 -7.9999999999993179
f 1 2 3 4
f 5 6 7 8
f 9 10 11 12
f 13 14 15 16
f 17 18 19 20
f 21 22 23 24
f 25 26 27 28
f 29 30 31 32
f 33 34 35 36
f 37 38 39 40
f 41 42 43 44
f 45 46 47 48
