ISO-10303-21;
HEADER;
FILE_DESCRIPTION(('Open CASCADE Model'),'2;1');
FILE_NAME('Open CASCADE Shape Model','2026-04-21T11:03:41',('Author'),(
    'Open CASCADE'),'Open CASCADE STEP processor 7.9','Open CASCADE 7.9'
  ,'Unknown');
FILE_SCHEMA(('AUTOMOTIVE_DESIGN { 1 0 10303 214 1 1 1 1 }'));
ENDSEC;
DATA;
#1 = APPLICATION_PROTOCOL_DEFINITION('international standard',
  'automotive_design',2000,#2);
#2 = APPLICATION_CONTEXT(
  'core data for automotive mechanical design processes');
#3 = SHAPE_DEFINITION_REPRESENTATION(#4,#10);
#4 = PRODUCT_DEFINITION_SHAPE('','',#5);
#5 = PRODUCT_DEFINITION('design','',#6,#9);
#6 = PRODUCT_DEFINITION_FORMATION('','',#7);
#7 = PRODUCT('OCCBrep 10','OCCBrep 10','',(#8));
#8 = PRODUCT_CONTEXT('',#2,'mechanical');
#9 = PRODUCT_DEFINITION_CONTEXT('part definition',#2,'design');
#10 = ADVANCED_BREP_SHAPE_REPRESENTATION('',(#11,#15),#1249);
#11 = AXIS2_PLACEMENT_3D('',#12,#13,#14);
#12 = CARTESIAN_POINT('',(0.,0.,0.));
#13 = DIRECTION('',(0.,0.,1.));
#14 = DIRECTION('',(1.,0.,-0.));
#15 = MANIFOLD_SOLID_BREP('',#16);
#16 = CLOSED_SHELL('',(#17,#465,#532,#575,#618,#661,#704,#747,#790,#814,
    #864,#914,#964,#1014,#1064,#1114,#1164,#1214));
#17 = ADVANCED_FACE('',(#18,#225,#255,#285,#315,#345,#375,#405,#435),#31
  ,.T.);
#18 = FACE_BOUND('',#19,.T.);
#19 = EDGE_LOOP('',(#20,#52,#77,#102,#127,#152,#177,#202));
#20 = ORIENTED_EDGE('',*,*,#21,.F.);
#21 = EDGE_CURVE('',#22,#24,#26,.T.);
#22 = VERTEX_POINT('',#23);
#23 = CARTESIAN_POINT('',(-61.77669565898,-115.0000009863,
    10.000000530484));
#24 = VERTEX_POINT('',#25);
#25 = CARTESIAN_POINT('',(-115.0000009863,-61.77669565898,
    10.000000530484));
#26 = SURFACE_CURVE('',#27,(#30,#41),.PCURVE_S1.);
#27 = B_SPLINE_CURVE_WITH_KNOTS('',1,(#28,#29),.UNSPECIFIED.,.F.,.F.,(2,
    2),(0.720020925957,0.795473542035),.PIECEWISE_BEZIER_KNOTS.);
#28 = CARTESIAN_POINT('',(-61.77669565898,-115.0000009863,
    10.000000530484));
#29 = CARTESIAN_POINT('',(-115.0000009863,-61.77669565898,
    10.000000530484));
#30 = PCURVE('',#31,#36);
#31 = PLANE('',#32);
#32 = AXIS2_PLACEMENT_3D('',#33,#34,#35);
#33 = CARTESIAN_POINT('',(-125.0000009863,125.00000098635,
    10.000000530484));
#34 = DIRECTION('',(0.,0.,1.));
#35 = DIRECTION('',(1.,0.,0.));
#36 = DEFINITIONAL_REPRESENTATION('',(#37),#40);
#37 = B_SPLINE_CURVE_WITH_KNOTS('',1,(#38,#39),.UNSPECIFIED.,.F.,.F.,(2,
    2),(0.720020925957,0.795473542035),.PIECEWISE_BEZIER_KNOTS.);
#38 = CARTESIAN_POINT('',(63.223305327371,-240.0000019727));
#39 = CARTESIAN_POINT('',(10.000000000001,-186.7766966453));
#40 = ( GEOMETRIC_REPRESENTATION_CONTEXT(2) 
PARAMETRIC_REPRESENTATION_CONTEXT() REPRESENTATION_CONTEXT('2D SPACE',''
  ) );
#41 = PCURVE('',#42,#47);
#42 = PLANE('',#43);
#43 = AXIS2_PLACEMENT_3D('',#44,#45,#46);
#44 = CARTESIAN_POINT('',(-115.0000009863,-61.77669565898,
    10.000000530484));
#45 = DIRECTION('',(-0.707106781187,-0.707106781187,-9.860761315263E-32)
  );
#46 = DIRECTION('',(-0.707106781187,0.707106781187,0.));
#47 = DEFINITIONAL_REPRESENTATION('',(#48),#51);
#48 = B_SPLINE_CURVE_WITH_KNOTS('',1,(#49,#50),.UNSPECIFIED.,.F.,.F.,(2,
    2),(0.720020925957,0.795473542035),.PIECEWISE_BEZIER_KNOTS.);
#49 = CARTESIAN_POINT('',(-75.26912022828,0.));
#50 = CARTESIAN_POINT('',(1.271871497011E-12,0.));
#51 = ( GEOMETRIC_REPRESENTATION_CONTEXT(2) 
PARAMETRIC_REPRESENTATION_CONTEXT() REPRESENTATION_CONTEXT('2D SPACE',''
  ) );
#52 = ORIENTED_EDGE('',*,*,#53,.F.);
#53 = EDGE_CURVE('',#54,#22,#56,.T.);
#54 = VERTEX_POINT('',#55);
#55 = CARTESIAN_POINT('',(61.776695658984,-115.0000009863,
    10.000000530484));
#56 = SURFACE_CURVE('',#57,(#60,#66),.PCURVE_S1.);
#57 = B_SPLINE_CURVE_WITH_KNOTS('',1,(#58,#59),.UNSPECIFIED.,.F.,.F.,(2,
    2),(0.596467534639,0.720020925957),.PIECEWISE_BEZIER_KNOTS.);
#58 = CARTESIAN_POINT('',(61.776695658984,-115.0000009863,
    10.000000530484));
#59 = CARTESIAN_POINT('',(-61.77669565898,-115.0000009863,
    10.000000530484));
#60 = PCURVE('',#31,#61);
#61 = DEFINITIONAL_REPRESENTATION('',(#62),#65);
#62 = B_SPLINE_CURVE_WITH_KNOTS('',1,(#63,#64),.UNSPECIFIED.,.F.,.F.,(2,
    2),(0.596467534639,0.720020925957),.PIECEWISE_BEZIER_KNOTS.);
#63 = CARTESIAN_POINT('',(186.77669664533,-240.0000019727));
#64 = CARTESIAN_POINT('',(63.223305327371,-240.0000019727));
#65 = ( GEOMETRIC_REPRESENTATION_CONTEXT(2) 
PARAMETRIC_REPRESENTATION_CONTEXT() REPRESENTATION_CONTEXT('2D SPACE',''
  ) );
#66 = PCURVE('',#67,#72);
#67 = PLANE('',#68);
#68 = AXIS2_PLACEMENT_3D('',#69,#70,#71);
#69 = CARTESIAN_POINT('',(-61.77669565898,-115.0000009863,
    10.000000530484));
#70 = DIRECTION('',(0.,-1.,0.));
#71 = DIRECTION('',(0.,0.,-1.));
#72 = DEFINITIONAL_REPRESENTATION('',(#73),#76);
#73 = B_SPLINE_CURVE_WITH_KNOTS('',1,(#74,#75),.UNSPECIFIED.,.F.,.F.,(2,
    2),(0.596467534639,0.720020925957),.PIECEWISE_BEZIER_KNOTS.);
#74 = CARTESIAN_POINT('',(0.,123.55339131796));
#75 = CARTESIAN_POINT('',(0.,0.));
#76 = ( GEOMETRIC_REPRESENTATION_CONTEXT(2) 
PARAMETRIC_REPRESENTATION_CONTEXT() REPRESENTATION_CONTEXT('2D SPACE',''
  ) );
#77 = ORIENTED_EDGE('',*,*,#78,.F.);
#78 = EDGE_CURVE('',#79,#54,#81,.T.);
#79 = VERTEX_POINT('',#80);
#80 = CARTESIAN_POINT('',(115.00000098635,-61.77669565898,
    10.000000530484));
#81 = SURFACE_CURVE('',#82,(#85,#91),.PCURVE_S1.);
#82 = B_SPLINE_CURVE_WITH_KNOTS('',1,(#83,#84),.UNSPECIFIED.,.F.,.F.,(2,
    2),(0.52119841441,0.596467534639),.PIECEWISE_BEZIER_KNOTS.);
#83 = CARTESIAN_POINT('',(115.00000098635,-61.77669565898,
    10.000000530484));
#84 = CARTESIAN_POINT('',(61.776695658984,-115.0000009863,
    10.000000530484));
#85 = PCURVE('',#31,#86);
#86 = DEFINITIONAL_REPRESENTATION('',(#87),#90);
#87 = B_SPLINE_CURVE_WITH_KNOTS('',1,(#88,#89),.UNSPECIFIED.,.F.,.F.,(2,
    2),(0.52119841441,0.596467534639),.PIECEWISE_BEZIER_KNOTS.);
#88 = CARTESIAN_POINT('',(240.0000019727,-186.7766966453));
#89 = CARTESIAN_POINT('',(186.77669664533,-240.0000019727));
#90 = ( GEOMETRIC_REPRESENTATION_CONTEXT(2) 
PARAMETRIC_REPRESENTATION_CONTEXT() REPRESENTATION_CONTEXT('2D SPACE',''
  ) );
#91 = PCURVE('',#92,#97);
#92 = PLANE('',#93);
#93 = AXIS2_PLACEMENT_3D('',#94,#95,#96);
#94 = CARTESIAN_POINT('',(61.776695658984,-115.0000009863,
    10.000000530484));
#95 = DIRECTION('',(0.707106781187,-0.707106781187,3.140184917367E-16));
#96 = DIRECTION('',(-0.707106781187,-0.707106781187,0.));
#97 = DEFINITIONAL_REPRESENTATION('',(#98),#101);
#98 = B_SPLINE_CURVE_WITH_KNOTS('',1,(#99,#100),.UNSPECIFIED.,.F.,.F.,(2
    ,2),(0.52119841441,0.596467534639),.PIECEWISE_BEZIER_KNOTS.);
#99 = CARTESIAN_POINT('',(-75.26912022829,0.));
#100 = CARTESIAN_POINT('',(0.,0.));
#101 = ( GEOMETRIC_REPRESENTATION_CONTEXT(2) 
PARAMETRIC_REPRESENTATION_CONTEXT() REPRESENTATION_CONTEXT('2D SPACE',''
  ) );
#102 = ORIENTED_EDGE('',*,*,#103,.F.);
#103 = EDGE_CURVE('',#104,#79,#106,.T.);
#104 = VERTEX_POINT('',#105);
#105 = CARTESIAN_POINT('',(115.00000098635,61.776695658983,
    10.000000530484));
#106 = SURFACE_CURVE('',#107,(#110,#116),.PCURVE_S1.);
#107 = B_SPLINE_CURVE_WITH_KNOTS('',1,(#108,#109),.UNSPECIFIED.,.F.,.F.,
  (2,2),(0.397645023093,0.52119841441),.PIECEWISE_BEZIER_KNOTS.);
#108 = CARTESIAN_POINT('',(115.00000098635,61.776695658983,
    10.000000530484));
#109 = CARTESIAN_POINT('',(115.00000098635,-61.77669565898,
    10.000000530484));
#110 = PCURVE('',#31,#111);
#111 = DEFINITIONAL_REPRESENTATION('',(#112),#115);
#112 = B_SPLINE_CURVE_WITH_KNOTS('',1,(#113,#114),.UNSPECIFIED.,.F.,.F.,
  (2,2),(0.397645023093,0.52119841441),.PIECEWISE_BEZIER_KNOTS.);
#113 = CARTESIAN_POINT('',(240.0000019727,-63.22330532737));
#114 = CARTESIAN_POINT('',(240.0000019727,-186.7766966453));
#115 = ( GEOMETRIC_REPRESENTATION_CONTEXT(2) 
PARAMETRIC_REPRESENTATION_CONTEXT() REPRESENTATION_CONTEXT('2D SPACE',''
  ) );
#116 = PCURVE('',#117,#122);
#117 = PLANE('',#118);
#118 = AXIS2_PLACEMENT_3D('',#119,#120,#121);
#119 = CARTESIAN_POINT('',(115.00000098635,-61.77669565898,
    10.000000530484));
#120 = DIRECTION('',(1.,0.,0.));
#121 = DIRECTION('',(0.,0.,1.));
#122 = DEFINITIONAL_REPRESENTATION('',(#123),#126);
#123 = B_SPLINE_CURVE_WITH_KNOTS('',1,(#124,#125),.UNSPECIFIED.,.F.,.F.,
  (2,2),(0.397645023093,0.52119841441),.PIECEWISE_BEZIER_KNOTS.);
#124 = CARTESIAN_POINT('',(0.,-123.5533913179));
#125 = CARTESIAN_POINT('',(0.,-1.797673121473E-12));
#126 = ( GEOMETRIC_REPRESENTATION_CONTEXT(2) 
PARAMETRIC_REPRESENTATION_CONTEXT() REPRESENTATION_CONTEXT('2D SPACE',''
  ) );
#127 = ORIENTED_EDGE('',*,*,#128,.F.);
#128 = EDGE_CURVE('',#129,#104,#131,.T.);
#129 = VERTEX_POINT('',#130);
#130 = CARTESIAN_POINT('',(61.776695658984,115.00000098635,
    10.000000530484));
#131 = SURFACE_CURVE('',#132,(#135,#141),.PCURVE_S1.);
#132 = B_SPLINE_CURVE_WITH_KNOTS('',1,(#133,#134),.UNSPECIFIED.,.F.,.F.,
  (2,2),(0.322375902864,0.397645023093),.PIECEWISE_BEZIER_KNOTS.);
#133 = CARTESIAN_POINT('',(61.776695658984,115.00000098635,
    10.000000530484));
#134 = CARTESIAN_POINT('',(115.00000098635,61.776695658983,
    10.000000530484));
#135 = PCURVE('',#31,#136);
#136 = DEFINITIONAL_REPRESENTATION('',(#137),#140);
#137 = B_SPLINE_CURVE_WITH_KNOTS('',1,(#138,#139),.UNSPECIFIED.,.F.,.F.,
  (2,2),(0.322375902864,0.397645023093),.PIECEWISE_BEZIER_KNOTS.);
#138 = CARTESIAN_POINT('',(186.77669664533,-10.));
#139 = CARTESIAN_POINT('',(240.0000019727,-63.22330532737));
#140 = ( GEOMETRIC_REPRESENTATION_CONTEXT(2) 
PARAMETRIC_REPRESENTATION_CONTEXT() REPRESENTATION_CONTEXT('2D SPACE',''
  ) );
#141 = PCURVE('',#142,#147);
#142 = PLANE('',#143);
#143 = AXIS2_PLACEMENT_3D('',#144,#145,#146);
#144 = CARTESIAN_POINT('',(115.00000098635,61.776695658986,
    10.000000530484));
#145 = DIRECTION('',(0.707106781187,0.707106781187,6.280369834735E-16));
#146 = DIRECTION('',(0.707106781187,-0.707106781187,0.));
#147 = DEFINITIONAL_REPRESENTATION('',(#148),#151);
#148 = B_SPLINE_CURVE_WITH_KNOTS('',1,(#149,#150),.UNSPECIFIED.,.F.,.F.,
  (2,2),(0.322375902864,0.397645023093),.PIECEWISE_BEZIER_KNOTS.);
#149 = CARTESIAN_POINT('',(-75.26912022828,0.));
#150 = CARTESIAN_POINT('',(2.536637566664E-12,0.));
#151 = ( GEOMETRIC_REPRESENTATION_CONTEXT(2) 
PARAMETRIC_REPRESENTATION_CONTEXT() REPRESENTATION_CONTEXT('2D SPACE',''
  ) );
#152 = ORIENTED_EDGE('',*,*,#153,.F.);
#153 = EDGE_CURVE('',#154,#129,#156,.T.);
#154 = VERTEX_POINT('',#155);
#155 = CARTESIAN_POINT('',(-61.77669565898,115.00000098635,
    10.000000530484));
#156 = SURFACE_CURVE('',#157,(#160,#166),.PCURVE_S1.);
#157 = B_SPLINE_CURVE_WITH_KNOTS('',1,(#158,#159),.UNSPECIFIED.,.F.,.F.,
  (2,2),(0.198822511546,0.322375902864),.PIECEWISE_BEZIER_KNOTS.);
#158 = CARTESIAN_POINT('',(-61.77669565898,115.00000098635,
    10.000000530484));
#159 = CARTESIAN_POINT('',(61.776695658984,115.00000098635,
    10.000000530484));
#160 = PCURVE('',#31,#161);
#161 = DEFINITIONAL_REPRESENTATION('',(#162),#165);
#162 = B_SPLINE_CURVE_WITH_KNOTS('',1,(#163,#164),.UNSPECIFIED.,.F.,.F.,
  (2,2),(0.198822511546,0.322375902864),.PIECEWISE_BEZIER_KNOTS.);
#163 = CARTESIAN_POINT('',(63.223305327371,-10.));
#164 = CARTESIAN_POINT('',(186.77669664533,-10.));
#165 = ( GEOMETRIC_REPRESENTATION_CONTEXT(2) 
PARAMETRIC_REPRESENTATION_CONTEXT() REPRESENTATION_CONTEXT('2D SPACE',''
  ) );
#166 = PCURVE('',#167,#172);
#167 = PLANE('',#168);
#168 = AXIS2_PLACEMENT_3D('',#169,#170,#171);
#169 = CARTESIAN_POINT('',(61.776695658984,115.00000098635,
    10.000000530484));
#170 = DIRECTION('',(0.,1.,0.));
#171 = DIRECTION('',(0.,0.,1.));
#172 = DEFINITIONAL_REPRESENTATION('',(#173),#176);
#173 = B_SPLINE_CURVE_WITH_KNOTS('',1,(#174,#175),.UNSPECIFIED.,.F.,.F.,
  (2,2),(0.198822511546,0.322375902864),.PIECEWISE_BEZIER_KNOTS.);
#174 = CARTESIAN_POINT('',(0.,-123.5533913179));
#175 = CARTESIAN_POINT('',(0.,0.));
#176 = ( GEOMETRIC_REPRESENTATION_CONTEXT(2) 
PARAMETRIC_REPRESENTATION_CONTEXT() REPRESENTATION_CONTEXT('2D SPACE',''
  ) );
#177 = ORIENTED_EDGE('',*,*,#178,.F.);
#178 = EDGE_CURVE('',#179,#154,#181,.T.);
#179 = VERTEX_POINT('',#180);
#180 = CARTESIAN_POINT('',(-115.0000009863,61.776695658983,
    10.000000530484));
#181 = SURFACE_CURVE('',#182,(#185,#191),.PCURVE_S1.);
#182 = B_SPLINE_CURVE_WITH_KNOTS('',1,(#183,#184),.UNSPECIFIED.,.F.,.F.,
  (2,2),(0.123553391318,0.198822511546),.PIECEWISE_BEZIER_KNOTS.);
#183 = CARTESIAN_POINT('',(-115.0000009863,61.776695658983,
    10.000000530484));
#184 = CARTESIAN_POINT('',(-61.77669565898,115.00000098635,
    10.000000530484));
#185 = PCURVE('',#31,#186);
#186 = DEFINITIONAL_REPRESENTATION('',(#187),#190);
#187 = B_SPLINE_CURVE_WITH_KNOTS('',1,(#188,#189),.UNSPECIFIED.,.F.,.F.,
  (2,2),(0.123553391318,0.198822511546),.PIECEWISE_BEZIER_KNOTS.);
#188 = CARTESIAN_POINT('',(10.,-63.22330532737));
#189 = CARTESIAN_POINT('',(63.223305327371,-10.));
#190 = ( GEOMETRIC_REPRESENTATION_CONTEXT(2) 
PARAMETRIC_REPRESENTATION_CONTEXT() REPRESENTATION_CONTEXT('2D SPACE',''
  ) );
#191 = PCURVE('',#192,#197);
#192 = PLANE('',#193);
#193 = AXIS2_PLACEMENT_3D('',#194,#195,#196);
#194 = CARTESIAN_POINT('',(-61.77669565898,115.00000098635,
    10.000000530484));
#195 = DIRECTION('',(-0.707106781187,0.707106781187,-3.140184917367E-16)
  );
#196 = DIRECTION('',(0.707106781187,0.707106781187,0.));
#197 = DEFINITIONAL_REPRESENTATION('',(#198),#201);
#198 = B_SPLINE_CURVE_WITH_KNOTS('',1,(#199,#200),.UNSPECIFIED.,.F.,.F.,
  (2,2),(0.123553391318,0.198822511546),.PIECEWISE_BEZIER_KNOTS.);
#199 = CARTESIAN_POINT('',(-75.26912022829,0.));
#200 = CARTESIAN_POINT('',(0.,0.));
#201 = ( GEOMETRIC_REPRESENTATION_CONTEXT(2) 
PARAMETRIC_REPRESENTATION_CONTEXT() REPRESENTATION_CONTEXT('2D SPACE',''
  ) );
#202 = ORIENTED_EDGE('',*,*,#203,.F.);
#203 = EDGE_CURVE('',#24,#179,#204,.T.);
#204 = SURFACE_CURVE('',#205,(#208,#214),.PCURVE_S1.);
#205 = B_SPLINE_CURVE_WITH_KNOTS('',1,(#206,#207),.UNSPECIFIED.,.F.,.F.,
  (2,2),(0.,0.123553391318),.PIECEWISE_BEZIER_KNOTS.);
#206 = CARTESIAN_POINT('',(-115.0000009863,-61.77669565898,
    10.000000530484));
#207 = CARTESIAN_POINT('',(-115.0000009863,61.776695658983,
    10.000000530484));
#208 = PCURVE('',#31,#209);
#209 = DEFINITIONAL_REPRESENTATION('',(#210),#213);
#210 = B_SPLINE_CURVE_WITH_KNOTS('',1,(#211,#212),.UNSPECIFIED.,.F.,.F.,
  (2,2),(0.,0.123553391318),.PIECEWISE_BEZIER_KNOTS.);
#211 = CARTESIAN_POINT('',(10.000000000001,-186.7766966453));
#212 = CARTESIAN_POINT('',(10.,-63.22330532737));
#213 = ( GEOMETRIC_REPRESENTATION_CONTEXT(2) 
PARAMETRIC_REPRESENTATION_CONTEXT() REPRESENTATION_CONTEXT('2D SPACE',''
  ) );
#214 = PCURVE('',#215,#220);
#215 = PLANE('',#216);
#216 = AXIS2_PLACEMENT_3D('',#217,#218,#219);
#217 = CARTESIAN_POINT('',(-115.0000009863,61.776695658983,
    10.000000530484));
#218 = DIRECTION('',(-1.,0.,0.));
#219 = DIRECTION('',(0.,0.,-1.));
#220 = DEFINITIONAL_REPRESENTATION('',(#221),#224);
#221 = B_SPLINE_CURVE_WITH_KNOTS('',1,(#222,#223),.UNSPECIFIED.,.F.,.F.,
  (2,2),(0.,0.123553391318),.PIECEWISE_BEZIER_KNOTS.);
#222 = CARTESIAN_POINT('',(0.,123.55339131796));
#223 = CARTESIAN_POINT('',(0.,0.));
#224 = ( GEOMETRIC_REPRESENTATION_CONTEXT(2) 
PARAMETRIC_REPRESENTATION_CONTEXT() REPRESENTATION_CONTEXT('2D SPACE',''
  ) );
#225 = FACE_BOUND('',#226,.T.);
#226 = EDGE_LOOP('',(#227));
#227 = ORIENTED_EDGE('',*,*,#228,.F.);
#228 = EDGE_CURVE('',#229,#229,#231,.T.);
#229 = VERTEX_POINT('',#230);
#230 = CARTESIAN_POINT('',(98.923881554252,0.,10.000000530484));
#231 = SURFACE_CURVE('',#232,(#237,#244),.PCURVE_S1.);
#232 = CIRCLE('',#233,7.);
#233 = AXIS2_PLACEMENT_3D('',#234,#235,#236);
#234 = CARTESIAN_POINT('',(91.923881554252,-4.514015818716E-13,
    10.000000530484));
#235 = DIRECTION('',(0.,-0.,1.));
#236 = DIRECTION('',(1.,6.448594026737E-14,0.));
#237 = PCURVE('',#31,#238);
#238 = DEFINITIONAL_REPRESENTATION('',(#239),#243);
#239 = CIRCLE('',#240,7.);
#240 = AXIS2_PLACEMENT_2D('',#241,#242);
#241 = CARTESIAN_POINT('',(216.9238825406,-125.0000009863));
#242 = DIRECTION('',(1.,6.448594026737E-14));
#243 = ( GEOMETRIC_REPRESENTATION_CONTEXT(2) 
PARAMETRIC_REPRESENTATION_CONTEXT() REPRESENTATION_CONTEXT('2D SPACE',''
  ) );
#244 = PCURVE('',#245,#250);
#245 = CYLINDRICAL_SURFACE('',#246,7.);
#246 = AXIS2_PLACEMENT_3D('',#247,#248,#249);
#247 = CARTESIAN_POINT('',(91.923881554252,4.514015818716E-13,
    5.000000265242));
#248 = DIRECTION('',(0.,0.,-1.));
#249 = DIRECTION('',(-1.,0.,0.));
#250 = DEFINITIONAL_REPRESENTATION('',(#251),#254);
#251 = B_SPLINE_CURVE_WITH_KNOTS('',1,(#252,#253),.UNSPECIFIED.,.F.,.F.,
  (2,2),(0.,6.28318530718),.PIECEWISE_BEZIER_KNOTS.);
#252 = CARTESIAN_POINT('',(3.14159265359,-5.000000265242));
#253 = CARTESIAN_POINT('',(-3.14159265359,-5.000000265242));
#254 = ( GEOMETRIC_REPRESENTATION_CONTEXT(2) 
PARAMETRIC_REPRESENTATION_CONTEXT() REPRESENTATION_CONTEXT('2D SPACE',''
  ) );
#255 = FACE_BOUND('',#256,.T.);
#256 = EDGE_LOOP('',(#257));
#257 = ORIENTED_EDGE('',*,*,#258,.F.);
#258 = EDGE_CURVE('',#259,#259,#261,.T.);
#259 = VERTEX_POINT('',#260);
#260 = CARTESIAN_POINT('',(-84.92388155425,0.,10.000000530484));
#261 = SURFACE_CURVE('',#262,(#267,#274),.PCURVE_S1.);
#262 = CIRCLE('',#263,7.);
#263 = AXIS2_PLACEMENT_3D('',#264,#265,#266);
#264 = CARTESIAN_POINT('',(-91.92388155425,-4.514015818716E-13,
    10.000000530484));
#265 = DIRECTION('',(0.,-0.,1.));
#266 = DIRECTION('',(1.,6.448594026737E-14,0.));
#267 = PCURVE('',#31,#268);
#268 = DEFINITIONAL_REPRESENTATION('',(#269),#273);
#269 = CIRCLE('',#270,7.);
#270 = AXIS2_PLACEMENT_2D('',#271,#272);
#271 = CARTESIAN_POINT('',(33.076119432103,-125.0000009863));
#272 = DIRECTION('',(1.,6.448594026737E-14));
#273 = ( GEOMETRIC_REPRESENTATION_CONTEXT(2) 
PARAMETRIC_REPRESENTATION_CONTEXT() REPRESENTATION_CONTEXT('2D SPACE',''
  ) );
#274 = PCURVE('',#275,#280);
#275 = CYLINDRICAL_SURFACE('',#276,7.);
#276 = AXIS2_PLACEMENT_3D('',#277,#278,#279);
#277 = CARTESIAN_POINT('',(-91.92388155424,-1.33226762955E-12,
    5.000000265242));
#278 = DIRECTION('',(0.,0.,-1.));
#279 = DIRECTION('',(-1.,0.,0.));
#280 = DEFINITIONAL_REPRESENTATION('',(#281),#284);
#281 = B_SPLINE_CURVE_WITH_KNOTS('',1,(#282,#283),.UNSPECIFIED.,.F.,.F.,
  (2,2),(0.,6.28318530718),.PIECEWISE_BEZIER_KNOTS.);
#282 = CARTESIAN_POINT('',(9.424777960769,-5.000000265242));
#283 = CARTESIAN_POINT('',(3.14159265359,-5.000000265242));
#284 = ( GEOMETRIC_REPRESENTATION_CONTEXT(2) 
PARAMETRIC_REPRESENTATION_CONTEXT() REPRESENTATION_CONTEXT('2D SPACE',''
  ) );
#285 = FACE_BOUND('',#286,.T.);
#286 = EDGE_LOOP('',(#287));
#287 = ORIENTED_EDGE('',*,*,#288,.F.);
#288 = EDGE_CURVE('',#289,#289,#291,.T.);
#289 = VERTEX_POINT('',#290);
#290 = CARTESIAN_POINT('',(7.,91.923881554251,10.000000530484));
#291 = SURFACE_CURVE('',#292,(#297,#304),.PCURVE_S1.);
#292 = CIRCLE('',#293,7.);
#293 = AXIS2_PLACEMENT_3D('',#294,#295,#296);
#294 = CARTESIAN_POINT('',(2.914335439641E-13,91.923881554251,
    10.000000530484));
#295 = DIRECTION('',(0.,-0.,1.));
#296 = DIRECTION('',(1.,6.542385680827E-14,0.));
#297 = PCURVE('',#31,#298);
#298 = DEFINITIONAL_REPRESENTATION('',(#299),#303);
#299 = CIRCLE('',#300,7.);
#300 = AXIS2_PLACEMENT_2D('',#301,#302);
#301 = CARTESIAN_POINT('',(125.00000098635,-33.0761194321));
#302 = DIRECTION('',(1.,6.542385680827E-14));
#303 = ( GEOMETRIC_REPRESENTATION_CONTEXT(2) 
PARAMETRIC_REPRESENTATION_CONTEXT() REPRESENTATION_CONTEXT('2D SPACE',''
  ) );
#304 = PCURVE('',#305,#310);
#305 = CYLINDRICAL_SURFACE('',#306,7.);
#306 = AXIS2_PLACEMENT_3D('',#307,#308,#309);
#307 = CARTESIAN_POINT('',(2.775557561563E-13,91.923881554252,
    5.000000265242));
#308 = DIRECTION('',(0.,0.,-1.));
#309 = DIRECTION('',(-1.,0.,0.));
#310 = DEFINITIONAL_REPRESENTATION('',(#311),#314);
#311 = B_SPLINE_CURVE_WITH_KNOTS('',1,(#312,#313),.UNSPECIFIED.,.F.,.F.,
  (2,2),(0.,6.28318530718),.PIECEWISE_BEZIER_KNOTS.);
#312 = CARTESIAN_POINT('',(3.14159265359,-5.000000265242));
#313 = CARTESIAN_POINT('',(-3.14159265359,-5.000000265242));
#314 = ( GEOMETRIC_REPRESENTATION_CONTEXT(2) 
PARAMETRIC_REPRESENTATION_CONTEXT() REPRESENTATION_CONTEXT('2D SPACE',''
  ) );
#315 = FACE_BOUND('',#316,.T.);
#316 = EDGE_LOOP('',(#317));
#317 = ORIENTED_EDGE('',*,*,#318,.F.);
#318 = EDGE_CURVE('',#319,#319,#321,.T.);
#319 = VERTEX_POINT('',#320);
#320 = CARTESIAN_POINT('',(7.,-91.92388155425,10.000000530484));
#321 = SURFACE_CURVE('',#322,(#327,#334),.PCURVE_S1.);
#322 = CIRCLE('',#323,7.);
#323 = AXIS2_PLACEMENT_3D('',#324,#325,#326);
#324 = CARTESIAN_POINT('',(7.163546842745E-13,-91.92388155425,
    10.000000530484));
#325 = DIRECTION('',(0.,0.,1.));
#326 = DIRECTION('',(1.,0.,0.));
#327 = PCURVE('',#31,#328);
#328 = DEFINITIONAL_REPRESENTATION('',(#329),#333);
#329 = CIRCLE('',#330,7.);
#330 = AXIS2_PLACEMENT_2D('',#331,#332);
#331 = CARTESIAN_POINT('',(125.00000098635,-216.9238825406));
#332 = DIRECTION('',(1.,0.));
#333 = ( GEOMETRIC_REPRESENTATION_CONTEXT(2) 
PARAMETRIC_REPRESENTATION_CONTEXT() REPRESENTATION_CONTEXT('2D SPACE',''
  ) );
#334 = PCURVE('',#335,#340);
#335 = CYLINDRICAL_SURFACE('',#336,7.);
#336 = AXIS2_PLACEMENT_3D('',#337,#338,#339);
#337 = CARTESIAN_POINT('',(7.163546842745E-13,-91.92388155425,
    5.000000265242));
#338 = DIRECTION('',(0.,0.,-1.));
#339 = DIRECTION('',(-1.,0.,0.));
#340 = DEFINITIONAL_REPRESENTATION('',(#341),#344);
#341 = B_SPLINE_CURVE_WITH_KNOTS('',1,(#342,#343),.UNSPECIFIED.,.F.,.F.,
  (2,2),(0.,6.28318530718),.PIECEWISE_BEZIER_KNOTS.);
#342 = CARTESIAN_POINT('',(9.424777960769,-5.000000265242));
#343 = CARTESIAN_POINT('',(3.14159265359,-5.000000265242));
#344 = ( GEOMETRIC_REPRESENTATION_CONTEXT(2) 
PARAMETRIC_REPRESENTATION_CONTEXT() REPRESENTATION_CONTEXT('2D SPACE',''
  ) );
#345 = FACE_BOUND('',#346,.T.);
#346 = EDGE_LOOP('',(#347));
#347 = ORIENTED_EDGE('',*,*,#348,.F.);
#348 = EDGE_CURVE('',#349,#349,#351,.T.);
#349 = VERTEX_POINT('',#350);
#350 = CARTESIAN_POINT('',(82.000000000001,-74.99999999999,
    10.000000530484));
#351 = SURFACE_CURVE('',#352,(#357,#364),.PCURVE_S1.);
#352 = CIRCLE('',#353,7.);
#353 = AXIS2_PLACEMENT_3D('',#354,#355,#356);
#354 = CARTESIAN_POINT('',(75.,-75.,10.000000530484));
#355 = DIRECTION('',(0.,-0.,1.));
#356 = DIRECTION('',(1.,6.344131569287E-14,0.));
#357 = PCURVE('',#31,#358);
#358 = DEFINITIONAL_REPRESENTATION('',(#359),#363);
#359 = CIRCLE('',#360,7.);
#360 = AXIS2_PLACEMENT_2D('',#361,#362);
#361 = CARTESIAN_POINT('',(200.00000098635,-200.0000009863));
#362 = DIRECTION('',(1.,6.344131569287E-14));
#363 = ( GEOMETRIC_REPRESENTATION_CONTEXT(2) 
PARAMETRIC_REPRESENTATION_CONTEXT() REPRESENTATION_CONTEXT('2D SPACE',''
  ) );
#364 = PCURVE('',#365,#370);
#365 = CYLINDRICAL_SURFACE('',#366,7.);
#366 = AXIS2_PLACEMENT_3D('',#367,#368,#369);
#367 = CARTESIAN_POINT('',(75.000000000001,-74.99999999999,
    5.000000265242));
#368 = DIRECTION('',(0.,0.,-1.));
#369 = DIRECTION('',(-1.,0.,0.));
#370 = DEFINITIONAL_REPRESENTATION('',(#371),#374);
#371 = B_SPLINE_CURVE_WITH_KNOTS('',1,(#372,#373),.UNSPECIFIED.,.F.,.F.,
  (2,2),(0.,6.28318530718),.PIECEWISE_BEZIER_KNOTS.);
#372 = CARTESIAN_POINT('',(3.14159265359,-5.000000265242));
#373 = CARTESIAN_POINT('',(-3.14159265359,-5.000000265242));
#374 = ( GEOMETRIC_REPRESENTATION_CONTEXT(2) 
PARAMETRIC_REPRESENTATION_CONTEXT() REPRESENTATION_CONTEXT('2D SPACE',''
  ) );
#375 = FACE_BOUND('',#376,.T.);
#376 = EDGE_LOOP('',(#377));
#377 = ORIENTED_EDGE('',*,*,#378,.F.);
#378 = EDGE_CURVE('',#379,#379,#381,.T.);
#379 = VERTEX_POINT('',#380);
#380 = CARTESIAN_POINT('',(82.,75.000000000001,10.000000530484));
#381 = SURFACE_CURVE('',#382,(#387,#394),.PCURVE_S1.);
#382 = CIRCLE('',#383,7.);
#383 = AXIS2_PLACEMENT_3D('',#384,#385,#386);
#384 = CARTESIAN_POINT('',(75.,75.000000000001,10.000000530484));
#385 = DIRECTION('',(0.,-0.,1.));
#386 = DIRECTION('',(1.,6.344131569287E-14,0.));
#387 = PCURVE('',#31,#388);
#388 = DEFINITIONAL_REPRESENTATION('',(#389),#393);
#389 = CIRCLE('',#390,7.);
#390 = AXIS2_PLACEMENT_2D('',#391,#392);
#391 = CARTESIAN_POINT('',(200.00000098635,-50.00000098635));
#392 = DIRECTION('',(1.,6.344131569287E-14));
#393 = ( GEOMETRIC_REPRESENTATION_CONTEXT(2) 
PARAMETRIC_REPRESENTATION_CONTEXT() REPRESENTATION_CONTEXT('2D SPACE',''
  ) );
#394 = PCURVE('',#395,#400);
#395 = CYLINDRICAL_SURFACE('',#396,7.);
#396 = AXIS2_PLACEMENT_3D('',#397,#398,#399);
#397 = CARTESIAN_POINT('',(75.,75.000000000001,5.000000265242));
#398 = DIRECTION('',(0.,0.,-1.));
#399 = DIRECTION('',(-1.,0.,0.));
#400 = DEFINITIONAL_REPRESENTATION('',(#401),#404);
#401 = B_SPLINE_CURVE_WITH_KNOTS('',1,(#402,#403),.UNSPECIFIED.,.F.,.F.,
  (2,2),(0.,6.28318530718),.PIECEWISE_BEZIER_KNOTS.);
#402 = CARTESIAN_POINT('',(3.14159265359,-5.000000265242));
#403 = CARTESIAN_POINT('',(-3.14159265359,-5.000000265242));
#404 = ( GEOMETRIC_REPRESENTATION_CONTEXT(2) 
PARAMETRIC_REPRESENTATION_CONTEXT() REPRESENTATION_CONTEXT('2D SPACE',''
  ) );
#405 = FACE_BOUND('',#406,.T.);
#406 = EDGE_LOOP('',(#407));
#407 = ORIENTED_EDGE('',*,*,#408,.F.);
#408 = EDGE_CURVE('',#409,#409,#411,.T.);
#409 = VERTEX_POINT('',#410);
#410 = CARTESIAN_POINT('',(-68.,74.999999999999,10.000000530484));
#411 = SURFACE_CURVE('',#412,(#417,#424),.PCURVE_S1.);
#412 = CIRCLE('',#413,7.);
#413 = AXIS2_PLACEMENT_3D('',#414,#415,#416);
#414 = CARTESIAN_POINT('',(-75.,74.999999999999,10.000000530484));
#415 = DIRECTION('',(0.,-0.,1.));
#416 = DIRECTION('',(1.,6.542385680827E-14,0.));
#417 = PCURVE('',#31,#418);
#418 = DEFINITIONAL_REPRESENTATION('',(#419),#423);
#419 = CIRCLE('',#420,7.);
#420 = AXIS2_PLACEMENT_2D('',#421,#422);
#421 = CARTESIAN_POINT('',(50.000000986353,-50.00000098635));
#422 = DIRECTION('',(1.,6.542385680827E-14));
#423 = ( GEOMETRIC_REPRESENTATION_CONTEXT(2) 
PARAMETRIC_REPRESENTATION_CONTEXT() REPRESENTATION_CONTEXT('2D SPACE',''
  ) );
#424 = PCURVE('',#425,#430);
#425 = CYLINDRICAL_SURFACE('',#426,7.);
#426 = AXIS2_PLACEMENT_3D('',#427,#428,#429);
#427 = CARTESIAN_POINT('',(-75.,75.,5.000000265242));
#428 = DIRECTION('',(0.,0.,-1.));
#429 = DIRECTION('',(-1.,0.,0.));
#430 = DEFINITIONAL_REPRESENTATION('',(#431),#434);
#431 = B_SPLINE_CURVE_WITH_KNOTS('',1,(#432,#433),.UNSPECIFIED.,.F.,.F.,
  (2,2),(0.,6.28318530718),.PIECEWISE_BEZIER_KNOTS.);
#432 = CARTESIAN_POINT('',(3.14159265359,-5.000000265242));
#433 = CARTESIAN_POINT('',(-3.14159265359,-5.000000265242));
#434 = ( GEOMETRIC_REPRESENTATION_CONTEXT(2) 
PARAMETRIC_REPRESENTATION_CONTEXT() REPRESENTATION_CONTEXT('2D SPACE',''
  ) );
#435 = FACE_BOUND('',#436,.T.);
#436 = EDGE_LOOP('',(#437));
#437 = ORIENTED_EDGE('',*,*,#438,.F.);
#438 = EDGE_CURVE('',#439,#439,#441,.T.);
#439 = VERTEX_POINT('',#440);
#440 = CARTESIAN_POINT('',(-67.99999999999,-75.,10.000000530484));
#441 = SURFACE_CURVE('',#442,(#447,#454),.PCURVE_S1.);
#442 = CIRCLE('',#443,7.);
#443 = AXIS2_PLACEMENT_3D('',#444,#445,#446);
#444 = CARTESIAN_POINT('',(-74.99999999999,-75.,10.000000530484));
#445 = DIRECTION('',(-0.,0.,1.));
#446 = DIRECTION('',(1.,-1.903239470786E-13,0.));
#447 = PCURVE('',#31,#448);
#448 = DEFINITIONAL_REPRESENTATION('',(#449),#453);
#449 = CIRCLE('',#450,7.);
#450 = AXIS2_PLACEMENT_2D('',#451,#452);
#451 = CARTESIAN_POINT('',(50.000000986354,-200.0000009863));
#452 = DIRECTION('',(1.,-1.903239470786E-13));
#453 = ( GEOMETRIC_REPRESENTATION_CONTEXT(2) 
PARAMETRIC_REPRESENTATION_CONTEXT() REPRESENTATION_CONTEXT('2D SPACE',''
  ) );
#454 = PCURVE('',#455,#460);
#455 = CYLINDRICAL_SURFACE('',#456,7.);
#456 = AXIS2_PLACEMENT_3D('',#457,#458,#459);
#457 = CARTESIAN_POINT('',(-74.99999999999,-75.,5.000000265242));
#458 = DIRECTION('',(0.,0.,-1.));
#459 = DIRECTION('',(-1.,0.,0.));
#460 = DEFINITIONAL_REPRESENTATION('',(#461),#464);
#461 = B_SPLINE_CURVE_WITH_KNOTS('',1,(#462,#463),.UNSPECIFIED.,.F.,.F.,
  (2,2),(0.,6.28318530718),.PIECEWISE_BEZIER_KNOTS.);
#462 = CARTESIAN_POINT('',(9.424777960769,-5.000000265242));
#463 = CARTESIAN_POINT('',(3.14159265359,-5.000000265242));
#464 = ( GEOMETRIC_REPRESENTATION_CONTEXT(2) 
PARAMETRIC_REPRESENTATION_CONTEXT() REPRESENTATION_CONTEXT('2D SPACE',''
  ) );
#465 = ADVANCED_FACE('',(#466),#215,.T.);
#466 = FACE_BOUND('',#467,.T.);
#467 = EDGE_LOOP('',(#468,#488,#513,#531));
#468 = ORIENTED_EDGE('',*,*,#469,.F.);
#469 = EDGE_CURVE('',#470,#179,#472,.T.);
#470 = VERTEX_POINT('',#471);
#471 = CARTESIAN_POINT('',(-115.0000009863,61.776695658983,0.));
#472 = SURFACE_CURVE('',#473,(#476,#482),.PCURVE_S1.);
#473 = B_SPLINE_CURVE_WITH_KNOTS('',1,(#474,#475),.UNSPECIFIED.,.F.,.F.,
  (2,2),(-1.000000053048E-02,0.),.PIECEWISE_BEZIER_KNOTS.);
#474 = CARTESIAN_POINT('',(-115.0000009863,61.776695658983,0.));
#475 = CARTESIAN_POINT('',(-115.0000009863,61.776695658983,
    10.000000530484));
#476 = PCURVE('',#215,#477);
#477 = DEFINITIONAL_REPRESENTATION('',(#478),#481);
#478 = B_SPLINE_CURVE_WITH_KNOTS('',1,(#479,#480),.UNSPECIFIED.,.F.,.F.,
  (2,2),(-1.000000053048E-02,0.),.PIECEWISE_BEZIER_KNOTS.);
#479 = CARTESIAN_POINT('',(10.000000530484,0.));
#480 = CARTESIAN_POINT('',(0.,0.));
#481 = ( GEOMETRIC_REPRESENTATION_CONTEXT(2) 
PARAMETRIC_REPRESENTATION_CONTEXT() REPRESENTATION_CONTEXT('2D SPACE',''
  ) );
#482 = PCURVE('',#192,#483);
#483 = DEFINITIONAL_REPRESENTATION('',(#484),#487);
#484 = B_SPLINE_CURVE_WITH_KNOTS('',1,(#485,#486),.UNSPECIFIED.,.F.,.F.,
  (2,2),(-1.000000053048E-02,0.),.PIECEWISE_BEZIER_KNOTS.);
#485 = CARTESIAN_POINT('',(-75.26912022829,10.000000530484));
#486 = CARTESIAN_POINT('',(-75.26912022829,0.));
#487 = ( GEOMETRIC_REPRESENTATION_CONTEXT(2) 
PARAMETRIC_REPRESENTATION_CONTEXT() REPRESENTATION_CONTEXT('2D SPACE',''
  ) );
#488 = ORIENTED_EDGE('',*,*,#489,.F.);
#489 = EDGE_CURVE('',#490,#470,#492,.T.);
#490 = VERTEX_POINT('',#491);
#491 = CARTESIAN_POINT('',(-115.0000009863,-61.77669565898,0.));
#492 = SURFACE_CURVE('',#493,(#496,#502),.PCURVE_S1.);
#493 = B_SPLINE_CURVE_WITH_KNOTS('',1,(#494,#495),.UNSPECIFIED.,.F.,.F.,
  (2,2),(0.,0.123553391318),.PIECEWISE_BEZIER_KNOTS.);
#494 = CARTESIAN_POINT('',(-115.0000009863,-61.77669565898,0.));
#495 = CARTESIAN_POINT('',(-115.0000009863,61.776695658983,0.));
#496 = PCURVE('',#215,#497);
#497 = DEFINITIONAL_REPRESENTATION('',(#498),#501);
#498 = B_SPLINE_CURVE_WITH_KNOTS('',1,(#499,#500),.UNSPECIFIED.,.F.,.F.,
  (2,2),(0.,0.123553391318),.PIECEWISE_BEZIER_KNOTS.);
#499 = CARTESIAN_POINT('',(10.000000530484,123.55339131796));
#500 = CARTESIAN_POINT('',(10.000000530484,0.));
#501 = ( GEOMETRIC_REPRESENTATION_CONTEXT(2) 
PARAMETRIC_REPRESENTATION_CONTEXT() REPRESENTATION_CONTEXT('2D SPACE',''
  ) );
#502 = PCURVE('',#503,#508);
#503 = PLANE('',#504);
#504 = AXIS2_PLACEMENT_3D('',#505,#506,#507);
#505 = CARTESIAN_POINT('',(-125.0000009863,125.00000098635,0.));
#506 = DIRECTION('',(0.,0.,-1.));
#507 = DIRECTION('',(-1.,0.,0.));
#508 = DEFINITIONAL_REPRESENTATION('',(#509),#512);
#509 = B_SPLINE_CURVE_WITH_KNOTS('',1,(#510,#511),.UNSPECIFIED.,.F.,.F.,
  (2,2),(0.,0.123553391318),.PIECEWISE_BEZIER_KNOTS.);
#510 = CARTESIAN_POINT('',(-10.,-186.7766966453));
#511 = CARTESIAN_POINT('',(-10.,-63.22330532737));
#512 = ( GEOMETRIC_REPRESENTATION_CONTEXT(2) 
PARAMETRIC_REPRESENTATION_CONTEXT() REPRESENTATION_CONTEXT('2D SPACE',''
  ) );
#513 = ORIENTED_EDGE('',*,*,#514,.F.);
#514 = EDGE_CURVE('',#24,#490,#515,.T.);
#515 = SURFACE_CURVE('',#516,(#519,#525),.PCURVE_S1.);
#516 = B_SPLINE_CURVE_WITH_KNOTS('',1,(#517,#518),.UNSPECIFIED.,.F.,.F.,
  (2,2),(0.,1.000000053048E-02),.PIECEWISE_BEZIER_KNOTS.);
#517 = CARTESIAN_POINT('',(-115.0000009863,-61.77669565898,
    10.000000530484));
#518 = CARTESIAN_POINT('',(-115.0000009863,-61.77669565898,0.));
#519 = PCURVE('',#215,#520);
#520 = DEFINITIONAL_REPRESENTATION('',(#521),#524);
#521 = B_SPLINE_CURVE_WITH_KNOTS('',1,(#522,#523),.UNSPECIFIED.,.F.,.F.,
  (2,2),(0.,1.000000053048E-02),.PIECEWISE_BEZIER_KNOTS.);
#522 = CARTESIAN_POINT('',(0.,123.55339131796));
#523 = CARTESIAN_POINT('',(10.000000530484,123.55339131796));
#524 = ( GEOMETRIC_REPRESENTATION_CONTEXT(2) 
PARAMETRIC_REPRESENTATION_CONTEXT() REPRESENTATION_CONTEXT('2D SPACE',''
  ) );
#525 = PCURVE('',#42,#526);
#526 = DEFINITIONAL_REPRESENTATION('',(#527),#530);
#527 = B_SPLINE_CURVE_WITH_KNOTS('',1,(#528,#529),.UNSPECIFIED.,.F.,.F.,
  (2,2),(0.,1.000000053048E-02),.PIECEWISE_BEZIER_KNOTS.);
#528 = CARTESIAN_POINT('',(1.271871497011E-12,0.));
#529 = CARTESIAN_POINT('',(1.271871497011E-12,10.000000530484));
#530 = ( GEOMETRIC_REPRESENTATION_CONTEXT(2) 
PARAMETRIC_REPRESENTATION_CONTEXT() REPRESENTATION_CONTEXT('2D SPACE',''
  ) );
#531 = ORIENTED_EDGE('',*,*,#203,.T.);
#532 = ADVANCED_FACE('',(#533),#192,.T.);
#533 = FACE_BOUND('',#534,.T.);
#534 = EDGE_LOOP('',(#535,#555,#573,#574));
#535 = ORIENTED_EDGE('',*,*,#536,.F.);
#536 = EDGE_CURVE('',#537,#154,#539,.T.);
#537 = VERTEX_POINT('',#538);
#538 = CARTESIAN_POINT('',(-61.77669565898,115.00000098635,0.));
#539 = SURFACE_CURVE('',#540,(#543,#549),.PCURVE_S1.);
#540 = B_SPLINE_CURVE_WITH_KNOTS('',1,(#541,#542),.UNSPECIFIED.,.F.,.F.,
  (2,2),(-1.000000053048E-02,0.),.PIECEWISE_BEZIER_KNOTS.);
#541 = CARTESIAN_POINT('',(-61.77669565898,115.00000098635,0.));
#542 = CARTESIAN_POINT('',(-61.77669565898,115.00000098635,
    10.000000530484));
#543 = PCURVE('',#192,#544);
#544 = DEFINITIONAL_REPRESENTATION('',(#545),#548);
#545 = B_SPLINE_CURVE_WITH_KNOTS('',1,(#546,#547),.UNSPECIFIED.,.F.,.F.,
  (2,2),(-1.000000053048E-02,0.),.PIECEWISE_BEZIER_KNOTS.);
#546 = CARTESIAN_POINT('',(0.,10.000000530484));
#547 = CARTESIAN_POINT('',(0.,0.));
#548 = ( GEOMETRIC_REPRESENTATION_CONTEXT(2) 
PARAMETRIC_REPRESENTATION_CONTEXT() REPRESENTATION_CONTEXT('2D SPACE',''
  ) );
#549 = PCURVE('',#167,#550);
#550 = DEFINITIONAL_REPRESENTATION('',(#551),#554);
#551 = B_SPLINE_CURVE_WITH_KNOTS('',1,(#552,#553),.UNSPECIFIED.,.F.,.F.,
  (2,2),(-1.000000053048E-02,0.),.PIECEWISE_BEZIER_KNOTS.);
#552 = CARTESIAN_POINT('',(-10.00000053048,-123.5533913179));
#553 = CARTESIAN_POINT('',(0.,-123.5533913179));
#554 = ( GEOMETRIC_REPRESENTATION_CONTEXT(2) 
PARAMETRIC_REPRESENTATION_CONTEXT() REPRESENTATION_CONTEXT('2D SPACE',''
  ) );
#555 = ORIENTED_EDGE('',*,*,#556,.F.);
#556 = EDGE_CURVE('',#470,#537,#557,.T.);
#557 = SURFACE_CURVE('',#558,(#561,#567),.PCURVE_S1.);
#558 = B_SPLINE_CURVE_WITH_KNOTS('',1,(#559,#560),.UNSPECIFIED.,.F.,.F.,
  (2,2),(0.123553391318,0.198822511546),.PIECEWISE_BEZIER_KNOTS.);
#559 = CARTESIAN_POINT('',(-115.0000009863,61.776695658983,0.));
#560 = CARTESIAN_POINT('',(-61.77669565898,115.00000098635,0.));
#561 = PCURVE('',#192,#562);
#562 = DEFINITIONAL_REPRESENTATION('',(#563),#566);
#563 = B_SPLINE_CURVE_WITH_KNOTS('',1,(#564,#565),.UNSPECIFIED.,.F.,.F.,
  (2,2),(0.123553391318,0.198822511546),.PIECEWISE_BEZIER_KNOTS.);
#564 = CARTESIAN_POINT('',(-75.26912022829,10.000000530484));
#565 = CARTESIAN_POINT('',(0.,10.000000530484));
#566 = ( GEOMETRIC_REPRESENTATION_CONTEXT(2) 
PARAMETRIC_REPRESENTATION_CONTEXT() REPRESENTATION_CONTEXT('2D SPACE',''
  ) );
#567 = PCURVE('',#503,#568);
#568 = DEFINITIONAL_REPRESENTATION('',(#569),#572);
#569 = B_SPLINE_CURVE_WITH_KNOTS('',1,(#570,#571),.UNSPECIFIED.,.F.,.F.,
  (2,2),(0.123553391318,0.198822511546),.PIECEWISE_BEZIER_KNOTS.);
#570 = CARTESIAN_POINT('',(-10.,-63.22330532737));
#571 = CARTESIAN_POINT('',(-63.22330532737,-10.));
#572 = ( GEOMETRIC_REPRESENTATION_CONTEXT(2) 
PARAMETRIC_REPRESENTATION_CONTEXT() REPRESENTATION_CONTEXT('2D SPACE',''
  ) );
#573 = ORIENTED_EDGE('',*,*,#469,.T.);
#574 = ORIENTED_EDGE('',*,*,#178,.T.);
#575 = ADVANCED_FACE('',(#576),#167,.T.);
#576 = FACE_BOUND('',#577,.T.);
#577 = EDGE_LOOP('',(#578,#598,#616,#617));
#578 = ORIENTED_EDGE('',*,*,#579,.F.);
#579 = EDGE_CURVE('',#580,#129,#582,.T.);
#580 = VERTEX_POINT('',#581);
#581 = CARTESIAN_POINT('',(61.776695658984,115.00000098635,0.));
#582 = SURFACE_CURVE('',#583,(#586,#592),.PCURVE_S1.);
#583 = B_SPLINE_CURVE_WITH_KNOTS('',1,(#584,#585),.UNSPECIFIED.,.F.,.F.,
  (2,2),(-1.000000053048E-02,0.),.PIECEWISE_BEZIER_KNOTS.);
#584 = CARTESIAN_POINT('',(61.776695658984,115.00000098635,0.));
#585 = CARTESIAN_POINT('',(61.776695658984,115.00000098635,
    10.000000530484));
#586 = PCURVE('',#167,#587);
#587 = DEFINITIONAL_REPRESENTATION('',(#588),#591);
#588 = B_SPLINE_CURVE_WITH_KNOTS('',1,(#589,#590),.UNSPECIFIED.,.F.,.F.,
  (2,2),(-1.000000053048E-02,0.),.PIECEWISE_BEZIER_KNOTS.);
#589 = CARTESIAN_POINT('',(-10.00000053048,0.));
#590 = CARTESIAN_POINT('',(0.,0.));
#591 = ( GEOMETRIC_REPRESENTATION_CONTEXT(2) 
PARAMETRIC_REPRESENTATION_CONTEXT() REPRESENTATION_CONTEXT('2D SPACE',''
  ) );
#592 = PCURVE('',#142,#593);
#593 = DEFINITIONAL_REPRESENTATION('',(#594),#597);
#594 = B_SPLINE_CURVE_WITH_KNOTS('',1,(#595,#596),.UNSPECIFIED.,.F.,.F.,
  (2,2),(-1.000000053048E-02,0.),.PIECEWISE_BEZIER_KNOTS.);
#595 = CARTESIAN_POINT('',(-75.26912022828,10.000000530484));
#596 = CARTESIAN_POINT('',(-75.26912022828,0.));
#597 = ( GEOMETRIC_REPRESENTATION_CONTEXT(2) 
PARAMETRIC_REPRESENTATION_CONTEXT() REPRESENTATION_CONTEXT('2D SPACE',''
  ) );
#598 = ORIENTED_EDGE('',*,*,#599,.F.);
#599 = EDGE_CURVE('',#537,#580,#600,.T.);
#600 = SURFACE_CURVE('',#601,(#604,#610),.PCURVE_S1.);
#601 = B_SPLINE_CURVE_WITH_KNOTS('',1,(#602,#603),.UNSPECIFIED.,.F.,.F.,
  (2,2),(0.198822511546,0.322375902864),.PIECEWISE_BEZIER_KNOTS.);
#602 = CARTESIAN_POINT('',(-61.77669565898,115.00000098635,0.));
#603 = CARTESIAN_POINT('',(61.776695658984,115.00000098635,0.));
#604 = PCURVE('',#167,#605);
#605 = DEFINITIONAL_REPRESENTATION('',(#606),#609);
#606 = B_SPLINE_CURVE_WITH_KNOTS('',1,(#607,#608),.UNSPECIFIED.,.F.,.F.,
  (2,2),(0.198822511546,0.322375902864),.PIECEWISE_BEZIER_KNOTS.);
#607 = CARTESIAN_POINT('',(-10.00000053048,-123.5533913179));
#608 = CARTESIAN_POINT('',(-10.00000053048,0.));
#609 = ( GEOMETRIC_REPRESENTATION_CONTEXT(2) 
PARAMETRIC_REPRESENTATION_CONTEXT() REPRESENTATION_CONTEXT('2D SPACE',''
  ) );
#610 = PCURVE('',#503,#611);
#611 = DEFINITIONAL_REPRESENTATION('',(#612),#615);
#612 = B_SPLINE_CURVE_WITH_KNOTS('',1,(#613,#614),.UNSPECIFIED.,.F.,.F.,
  (2,2),(0.198822511546,0.322375902864),.PIECEWISE_BEZIER_KNOTS.);
#613 = CARTESIAN_POINT('',(-63.22330532737,-10.));
#614 = CARTESIAN_POINT('',(-186.7766966453,-10.));
#615 = ( GEOMETRIC_REPRESENTATION_CONTEXT(2) 
PARAMETRIC_REPRESENTATION_CONTEXT() REPRESENTATION_CONTEXT('2D SPACE',''
  ) );
#616 = ORIENTED_EDGE('',*,*,#536,.T.);
#617 = ORIENTED_EDGE('',*,*,#153,.T.);
#618 = ADVANCED_FACE('',(#619),#142,.T.);
#619 = FACE_BOUND('',#620,.T.);
#620 = EDGE_LOOP('',(#621,#641,#659,#660));
#621 = ORIENTED_EDGE('',*,*,#622,.F.);
#622 = EDGE_CURVE('',#623,#104,#625,.T.);
#623 = VERTEX_POINT('',#624);
#624 = CARTESIAN_POINT('',(115.00000098635,61.776695658983,0.));
#625 = SURFACE_CURVE('',#626,(#629,#635),.PCURVE_S1.);
#626 = B_SPLINE_CURVE_WITH_KNOTS('',1,(#627,#628),.UNSPECIFIED.,.F.,.F.,
  (2,2),(-1.000000053048E-02,0.),.PIECEWISE_BEZIER_KNOTS.);
#627 = CARTESIAN_POINT('',(115.00000098635,61.776695658983,0.));
#628 = CARTESIAN_POINT('',(115.00000098635,61.776695658983,
    10.000000530484));
#629 = PCURVE('',#142,#630);
#630 = DEFINITIONAL_REPRESENTATION('',(#631),#634);
#631 = B_SPLINE_CURVE_WITH_KNOTS('',1,(#632,#633),.UNSPECIFIED.,.F.,.F.,
  (2,2),(-1.000000053048E-02,0.),.PIECEWISE_BEZIER_KNOTS.);
#632 = CARTESIAN_POINT('',(2.529532139306E-12,10.000000530484));
#633 = CARTESIAN_POINT('',(2.536637566664E-12,0.));
#634 = ( GEOMETRIC_REPRESENTATION_CONTEXT(2) 
PARAMETRIC_REPRESENTATION_CONTEXT() REPRESENTATION_CONTEXT('2D SPACE',''
  ) );
#635 = PCURVE('',#117,#636);
#636 = DEFINITIONAL_REPRESENTATION('',(#637),#640);
#637 = B_SPLINE_CURVE_WITH_KNOTS('',1,(#638,#639),.UNSPECIFIED.,.F.,.F.,
  (2,2),(-1.000000053048E-02,0.),.PIECEWISE_BEZIER_KNOTS.);
#638 = CARTESIAN_POINT('',(-10.00000053048,-123.5533913179));
#639 = CARTESIAN_POINT('',(0.,-123.5533913179));
#640 = ( GEOMETRIC_REPRESENTATION_CONTEXT(2) 
PARAMETRIC_REPRESENTATION_CONTEXT() REPRESENTATION_CONTEXT('2D SPACE',''
  ) );
#641 = ORIENTED_EDGE('',*,*,#642,.F.);
#642 = EDGE_CURVE('',#580,#623,#643,.T.);
#643 = SURFACE_CURVE('',#644,(#647,#653),.PCURVE_S1.);
#644 = B_SPLINE_CURVE_WITH_KNOTS('',1,(#645,#646),.UNSPECIFIED.,.F.,.F.,
  (2,2),(0.322375902864,0.397645023093),.PIECEWISE_BEZIER_KNOTS.);
#645 = CARTESIAN_POINT('',(61.776695658984,115.00000098635,0.));
#646 = CARTESIAN_POINT('',(115.00000098635,61.776695658983,0.));
#647 = PCURVE('',#142,#648);
#648 = DEFINITIONAL_REPRESENTATION('',(#649),#652);
#649 = B_SPLINE_CURVE_WITH_KNOTS('',1,(#650,#651),.UNSPECIFIED.,.F.,.F.,
  (2,2),(0.322375902864,0.397645023093),.PIECEWISE_BEZIER_KNOTS.);
#650 = CARTESIAN_POINT('',(-75.26912022828,10.000000530484));
#651 = CARTESIAN_POINT('',(2.529532139306E-12,10.000000530484));
#652 = ( GEOMETRIC_REPRESENTATION_CONTEXT(2) 
PARAMETRIC_REPRESENTATION_CONTEXT() REPRESENTATION_CONTEXT('2D SPACE',''
  ) );
#653 = PCURVE('',#503,#654);
#654 = DEFINITIONAL_REPRESENTATION('',(#655),#658);
#655 = B_SPLINE_CURVE_WITH_KNOTS('',1,(#656,#657),.UNSPECIFIED.,.F.,.F.,
  (2,2),(0.322375902864,0.397645023093),.PIECEWISE_BEZIER_KNOTS.);
#656 = CARTESIAN_POINT('',(-186.7766966453,-10.));
#657 = CARTESIAN_POINT('',(-240.0000019727,-63.22330532737));
#658 = ( GEOMETRIC_REPRESENTATION_CONTEXT(2) 
PARAMETRIC_REPRESENTATION_CONTEXT() REPRESENTATION_CONTEXT('2D SPACE',''
  ) );
#659 = ORIENTED_EDGE('',*,*,#579,.T.);
#660 = ORIENTED_EDGE('',*,*,#128,.T.);
#661 = ADVANCED_FACE('',(#662),#117,.T.);
#662 = FACE_BOUND('',#663,.T.);
#663 = EDGE_LOOP('',(#664,#684,#702,#703));
#664 = ORIENTED_EDGE('',*,*,#665,.F.);
#665 = EDGE_CURVE('',#666,#79,#668,.T.);
#666 = VERTEX_POINT('',#667);
#667 = CARTESIAN_POINT('',(115.00000098635,-61.77669565898,0.));
#668 = SURFACE_CURVE('',#669,(#672,#678),.PCURVE_S1.);
#669 = B_SPLINE_CURVE_WITH_KNOTS('',1,(#670,#671),.UNSPECIFIED.,.F.,.F.,
  (2,2),(-1.000000053048E-02,0.),.PIECEWISE_BEZIER_KNOTS.);
#670 = CARTESIAN_POINT('',(115.00000098635,-61.77669565898,0.));
#671 = CARTESIAN_POINT('',(115.00000098635,-61.77669565898,
    10.000000530484));
#672 = PCURVE('',#117,#673);
#673 = DEFINITIONAL_REPRESENTATION('',(#674),#677);
#674 = B_SPLINE_CURVE_WITH_KNOTS('',1,(#675,#676),.UNSPECIFIED.,.F.,.F.,
  (2,2),(-1.000000053048E-02,0.),.PIECEWISE_BEZIER_KNOTS.);
#675 = CARTESIAN_POINT('',(-10.00000053048,-1.797673121473E-12));
#676 = CARTESIAN_POINT('',(0.,-1.797673121473E-12));
#677 = ( GEOMETRIC_REPRESENTATION_CONTEXT(2) 
PARAMETRIC_REPRESENTATION_CONTEXT() REPRESENTATION_CONTEXT('2D SPACE',''
  ) );
#678 = PCURVE('',#92,#679);
#679 = DEFINITIONAL_REPRESENTATION('',(#680),#683);
#680 = B_SPLINE_CURVE_WITH_KNOTS('',1,(#681,#682),.UNSPECIFIED.,.F.,.F.,
  (2,2),(-1.000000053048E-02,0.),.PIECEWISE_BEZIER_KNOTS.);
#681 = CARTESIAN_POINT('',(-75.26912022829,10.000000530484));
#682 = CARTESIAN_POINT('',(-75.26912022829,0.));
#683 = ( GEOMETRIC_REPRESENTATION_CONTEXT(2) 
PARAMETRIC_REPRESENTATION_CONTEXT() REPRESENTATION_CONTEXT('2D SPACE',''
  ) );
#684 = ORIENTED_EDGE('',*,*,#685,.F.);
#685 = EDGE_CURVE('',#623,#666,#686,.T.);
#686 = SURFACE_CURVE('',#687,(#690,#696),.PCURVE_S1.);
#687 = B_SPLINE_CURVE_WITH_KNOTS('',1,(#688,#689),.UNSPECIFIED.,.F.,.F.,
  (2,2),(0.397645023093,0.52119841441),.PIECEWISE_BEZIER_KNOTS.);
#688 = CARTESIAN_POINT('',(115.00000098635,61.776695658983,0.));
#689 = CARTESIAN_POINT('',(115.00000098635,-61.77669565898,0.));
#690 = PCURVE('',#117,#691);
#691 = DEFINITIONAL_REPRESENTATION('',(#692),#695);
#692 = B_SPLINE_CURVE_WITH_KNOTS('',1,(#693,#694),.UNSPECIFIED.,.F.,.F.,
  (2,2),(0.397645023093,0.52119841441),.PIECEWISE_BEZIER_KNOTS.);
#693 = CARTESIAN_POINT('',(-10.00000053048,-123.5533913179));
#694 = CARTESIAN_POINT('',(-10.00000053048,-1.797673121473E-12));
#695 = ( GEOMETRIC_REPRESENTATION_CONTEXT(2) 
PARAMETRIC_REPRESENTATION_CONTEXT() REPRESENTATION_CONTEXT('2D SPACE',''
  ) );
#696 = PCURVE('',#503,#697);
#697 = DEFINITIONAL_REPRESENTATION('',(#698),#701);
#698 = B_SPLINE_CURVE_WITH_KNOTS('',1,(#699,#700),.UNSPECIFIED.,.F.,.F.,
  (2,2),(0.397645023093,0.52119841441),.PIECEWISE_BEZIER_KNOTS.);
#699 = CARTESIAN_POINT('',(-240.0000019727,-63.22330532737));
#700 = CARTESIAN_POINT('',(-240.0000019727,-186.7766966453));
#701 = ( GEOMETRIC_REPRESENTATION_CONTEXT(2) 
PARAMETRIC_REPRESENTATION_CONTEXT() REPRESENTATION_CONTEXT('2D SPACE',''
  ) );
#702 = ORIENTED_EDGE('',*,*,#622,.T.);
#703 = ORIENTED_EDGE('',*,*,#103,.T.);
#704 = ADVANCED_FACE('',(#705),#92,.T.);
#705 = FACE_BOUND('',#706,.T.);
#706 = EDGE_LOOP('',(#707,#727,#745,#746));
#707 = ORIENTED_EDGE('',*,*,#708,.F.);
#708 = EDGE_CURVE('',#709,#54,#711,.T.);
#709 = VERTEX_POINT('',#710);
#710 = CARTESIAN_POINT('',(61.776695658984,-115.0000009863,0.));
#711 = SURFACE_CURVE('',#712,(#715,#721),.PCURVE_S1.);
#712 = B_SPLINE_CURVE_WITH_KNOTS('',1,(#713,#714),.UNSPECIFIED.,.F.,.F.,
  (2,2),(-1.000000053048E-02,0.),.PIECEWISE_BEZIER_KNOTS.);
#713 = CARTESIAN_POINT('',(61.776695658984,-115.0000009863,0.));
#714 = CARTESIAN_POINT('',(61.776695658984,-115.0000009863,
    10.000000530484));
#715 = PCURVE('',#92,#716);
#716 = DEFINITIONAL_REPRESENTATION('',(#717),#720);
#717 = B_SPLINE_CURVE_WITH_KNOTS('',1,(#718,#719),.UNSPECIFIED.,.F.,.F.,
  (2,2),(-1.000000053048E-02,0.),.PIECEWISE_BEZIER_KNOTS.);
#718 = CARTESIAN_POINT('',(0.,10.000000530484));
#719 = CARTESIAN_POINT('',(0.,0.));
#720 = ( GEOMETRIC_REPRESENTATION_CONTEXT(2) 
PARAMETRIC_REPRESENTATION_CONTEXT() REPRESENTATION_CONTEXT('2D SPACE',''
  ) );
#721 = PCURVE('',#67,#722);
#722 = DEFINITIONAL_REPRESENTATION('',(#723),#726);
#723 = B_SPLINE_CURVE_WITH_KNOTS('',1,(#724,#725),.UNSPECIFIED.,.F.,.F.,
  (2,2),(-1.000000053048E-02,0.),.PIECEWISE_BEZIER_KNOTS.);
#724 = CARTESIAN_POINT('',(10.000000530484,123.55339131796));
#725 = CARTESIAN_POINT('',(0.,123.55339131796));
#726 = ( GEOMETRIC_REPRESENTATION_CONTEXT(2) 
PARAMETRIC_REPRESENTATION_CONTEXT() REPRESENTATION_CONTEXT('2D SPACE',''
  ) );
#727 = ORIENTED_EDGE('',*,*,#728,.F.);
#728 = EDGE_CURVE('',#666,#709,#729,.T.);
#729 = SURFACE_CURVE('',#730,(#733,#739),.PCURVE_S1.);
#730 = B_SPLINE_CURVE_WITH_KNOTS('',1,(#731,#732),.UNSPECIFIED.,.F.,.F.,
  (2,2),(0.52119841441,0.596467534639),.PIECEWISE_BEZIER_KNOTS.);
#731 = CARTESIAN_POINT('',(115.00000098635,-61.77669565898,0.));
#732 = CARTESIAN_POINT('',(61.776695658984,-115.0000009863,0.));
#733 = PCURVE('',#92,#734);
#734 = DEFINITIONAL_REPRESENTATION('',(#735),#738);
#735 = B_SPLINE_CURVE_WITH_KNOTS('',1,(#736,#737),.UNSPECIFIED.,.F.,.F.,
  (2,2),(0.52119841441,0.596467534639),.PIECEWISE_BEZIER_KNOTS.);
#736 = CARTESIAN_POINT('',(-75.26912022829,10.000000530484));
#737 = CARTESIAN_POINT('',(0.,10.000000530484));
#738 = ( GEOMETRIC_REPRESENTATION_CONTEXT(2) 
PARAMETRIC_REPRESENTATION_CONTEXT() REPRESENTATION_CONTEXT('2D SPACE',''
  ) );
#739 = PCURVE('',#503,#740);
#740 = DEFINITIONAL_REPRESENTATION('',(#741),#744);
#741 = B_SPLINE_CURVE_WITH_KNOTS('',1,(#742,#743),.UNSPECIFIED.,.F.,.F.,
  (2,2),(0.52119841441,0.596467534639),.PIECEWISE_BEZIER_KNOTS.);
#742 = CARTESIAN_POINT('',(-240.0000019727,-186.7766966453));
#743 = CARTESIAN_POINT('',(-186.7766966453,-240.0000019727));
#744 = ( GEOMETRIC_REPRESENTATION_CONTEXT(2) 
PARAMETRIC_REPRESENTATION_CONTEXT() REPRESENTATION_CONTEXT('2D SPACE',''
  ) );
#745 = ORIENTED_EDGE('',*,*,#665,.T.);
#746 = ORIENTED_EDGE('',*,*,#78,.T.);
#747 = ADVANCED_FACE('',(#748),#67,.T.);
#748 = FACE_BOUND('',#749,.T.);
#749 = EDGE_LOOP('',(#750,#770,#788,#789));
#750 = ORIENTED_EDGE('',*,*,#751,.F.);
#751 = EDGE_CURVE('',#752,#22,#754,.T.);
#752 = VERTEX_POINT('',#753);
#753 = CARTESIAN_POINT('',(-61.77669565898,-115.0000009863,0.));
#754 = SURFACE_CURVE('',#755,(#758,#764),.PCURVE_S1.);
#755 = B_SPLINE_CURVE_WITH_KNOTS('',1,(#756,#757),.UNSPECIFIED.,.F.,.F.,
  (2,2),(-1.000000053048E-02,0.),.PIECEWISE_BEZIER_KNOTS.);
#756 = CARTESIAN_POINT('',(-61.77669565898,-115.0000009863,0.));
#757 = CARTESIAN_POINT('',(-61.77669565898,-115.0000009863,
    10.000000530484));
#758 = PCURVE('',#67,#759);
#759 = DEFINITIONAL_REPRESENTATION('',(#760),#763);
#760 = B_SPLINE_CURVE_WITH_KNOTS('',1,(#761,#762),.UNSPECIFIED.,.F.,.F.,
  (2,2),(-1.000000053048E-02,0.),.PIECEWISE_BEZIER_KNOTS.);
#761 = CARTESIAN_POINT('',(10.000000530484,0.));
#762 = CARTESIAN_POINT('',(0.,0.));
#763 = ( GEOMETRIC_REPRESENTATION_CONTEXT(2) 
PARAMETRIC_REPRESENTATION_CONTEXT() REPRESENTATION_CONTEXT('2D SPACE',''
  ) );
#764 = PCURVE('',#42,#765);
#765 = DEFINITIONAL_REPRESENTATION('',(#766),#769);
#766 = B_SPLINE_CURVE_WITH_KNOTS('',1,(#767,#768),.UNSPECIFIED.,.F.,.F.,
  (2,2),(-1.000000053048E-02,0.),.PIECEWISE_BEZIER_KNOTS.);
#767 = CARTESIAN_POINT('',(-75.26912022828,10.000000530484));
#768 = CARTESIAN_POINT('',(-75.26912022828,0.));
#769 = ( GEOMETRIC_REPRESENTATION_CONTEXT(2) 
PARAMETRIC_REPRESENTATION_CONTEXT() REPRESENTATION_CONTEXT('2D SPACE',''
  ) );
#770 = ORIENTED_EDGE('',*,*,#771,.F.);
#771 = EDGE_CURVE('',#709,#752,#772,.T.);
#772 = SURFACE_CURVE('',#773,(#776,#782),.PCURVE_S1.);
#773 = B_SPLINE_CURVE_WITH_KNOTS('',1,(#774,#775),.UNSPECIFIED.,.F.,.F.,
  (2,2),(0.596467534639,0.720020925957),.PIECEWISE_BEZIER_KNOTS.);
#774 = CARTESIAN_POINT('',(61.776695658984,-115.0000009863,0.));
#775 = CARTESIAN_POINT('',(-61.77669565898,-115.0000009863,0.));
#776 = PCURVE('',#67,#777);
#777 = DEFINITIONAL_REPRESENTATION('',(#778),#781);
#778 = B_SPLINE_CURVE_WITH_KNOTS('',1,(#779,#780),.UNSPECIFIED.,.F.,.F.,
  (2,2),(0.596467534639,0.720020925957),.PIECEWISE_BEZIER_KNOTS.);
#779 = CARTESIAN_POINT('',(10.000000530484,123.55339131796));
#780 = CARTESIAN_POINT('',(10.000000530484,0.));
#781 = ( GEOMETRIC_REPRESENTATION_CONTEXT(2) 
PARAMETRIC_REPRESENTATION_CONTEXT() REPRESENTATION_CONTEXT('2D SPACE',''
  ) );
#782 = PCURVE('',#503,#783);
#783 = DEFINITIONAL_REPRESENTATION('',(#784),#787);
#784 = B_SPLINE_CURVE_WITH_KNOTS('',1,(#785,#786),.UNSPECIFIED.,.F.,.F.,
  (2,2),(0.596467534639,0.720020925957),.PIECEWISE_BEZIER_KNOTS.);
#785 = CARTESIAN_POINT('',(-186.7766966453,-240.0000019727));
#786 = CARTESIAN_POINT('',(-63.22330532737,-240.0000019727));
#787 = ( GEOMETRIC_REPRESENTATION_CONTEXT(2) 
PARAMETRIC_REPRESENTATION_CONTEXT() REPRESENTATION_CONTEXT('2D SPACE',''
  ) );
#788 = ORIENTED_EDGE('',*,*,#708,.T.);
#789 = ORIENTED_EDGE('',*,*,#53,.T.);
#790 = ADVANCED_FACE('',(#791),#42,.T.);
#791 = FACE_BOUND('',#792,.T.);
#792 = EDGE_LOOP('',(#793,#794,#812,#813));
#793 = ORIENTED_EDGE('',*,*,#514,.T.);
#794 = ORIENTED_EDGE('',*,*,#795,.F.);
#795 = EDGE_CURVE('',#752,#490,#796,.T.);
#796 = SURFACE_CURVE('',#797,(#800,#806),.PCURVE_S1.);
#797 = B_SPLINE_CURVE_WITH_KNOTS('',1,(#798,#799),.UNSPECIFIED.,.F.,.F.,
  (2,2),(0.720020925957,0.795473542035),.PIECEWISE_BEZIER_KNOTS.);
#798 = CARTESIAN_POINT('',(-61.77669565898,-115.0000009863,0.));
#799 = CARTESIAN_POINT('',(-115.0000009863,-61.77669565898,0.));
#800 = PCURVE('',#42,#801);
#801 = DEFINITIONAL_REPRESENTATION('',(#802),#805);
#802 = B_SPLINE_CURVE_WITH_KNOTS('',1,(#803,#804),.UNSPECIFIED.,.F.,.F.,
  (2,2),(0.720020925957,0.795473542035),.PIECEWISE_BEZIER_KNOTS.);
#803 = CARTESIAN_POINT('',(-75.26912022828,10.000000530484));
#804 = CARTESIAN_POINT('',(1.271871497011E-12,10.000000530484));
#805 = ( GEOMETRIC_REPRESENTATION_CONTEXT(2) 
PARAMETRIC_REPRESENTATION_CONTEXT() REPRESENTATION_CONTEXT('2D SPACE',''
  ) );
#806 = PCURVE('',#503,#807);
#807 = DEFINITIONAL_REPRESENTATION('',(#808),#811);
#808 = B_SPLINE_CURVE_WITH_KNOTS('',1,(#809,#810),.UNSPECIFIED.,.F.,.F.,
  (2,2),(0.720020925957,0.795473542035),.PIECEWISE_BEZIER_KNOTS.);
#809 = CARTESIAN_POINT('',(-63.22330532737,-240.0000019727));
#810 = CARTESIAN_POINT('',(-10.,-186.7766966453));
#811 = ( GEOMETRIC_REPRESENTATION_CONTEXT(2) 
PARAMETRIC_REPRESENTATION_CONTEXT() REPRESENTATION_CONTEXT('2D SPACE',''
  ) );
#812 = ORIENTED_EDGE('',*,*,#751,.T.);
#813 = ORIENTED_EDGE('',*,*,#21,.T.);
#814 = ADVANCED_FACE('',(#815),#245,.F.);
#815 = FACE_BOUND('',#816,.F.);
#816 = EDGE_LOOP('',(#817,#818,#838,#863));
#817 = ORIENTED_EDGE('',*,*,#228,.F.);
#818 = ORIENTED_EDGE('',*,*,#819,.T.);
#819 = EDGE_CURVE('',#229,#820,#822,.T.);
#820 = VERTEX_POINT('',#821);
#821 = CARTESIAN_POINT('',(98.923881554252,0.,0.));
#822 = SEAM_CURVE('',#823,(#826,#832),.PCURVE_S1.);
#823 = B_SPLINE_CURVE_WITH_KNOTS('',1,(#824,#825),.UNSPECIFIED.,.F.,.F.,
  (2,2),(0.,1.000000053048E-02),.PIECEWISE_BEZIER_KNOTS.);
#824 = CARTESIAN_POINT('',(98.923881554252,0.,10.000000530484));
#825 = CARTESIAN_POINT('',(98.923881554252,0.,0.));
#826 = PCURVE('',#245,#827);
#827 = DEFINITIONAL_REPRESENTATION('',(#828),#831);
#828 = B_SPLINE_CURVE_WITH_KNOTS('',1,(#829,#830),.UNSPECIFIED.,.F.,.F.,
  (2,2),(0.,1.000000053048E-02),.PIECEWISE_BEZIER_KNOTS.);
#829 = CARTESIAN_POINT('',(3.14159265359,-5.000000265242));
#830 = CARTESIAN_POINT('',(3.14159265359,5.000000265241));
#831 = ( GEOMETRIC_REPRESENTATION_CONTEXT(2) 
PARAMETRIC_REPRESENTATION_CONTEXT() REPRESENTATION_CONTEXT('2D SPACE',''
  ) );
#832 = PCURVE('',#245,#833);
#833 = DEFINITIONAL_REPRESENTATION('',(#834),#837);
#834 = B_SPLINE_CURVE_WITH_KNOTS('',1,(#835,#836),.UNSPECIFIED.,.F.,.F.,
  (2,2),(0.,1.000000053048E-02),.PIECEWISE_BEZIER_KNOTS.);
#835 = CARTESIAN_POINT('',(-3.14159265359,-5.000000265242));
#836 = CARTESIAN_POINT('',(-3.14159265359,5.000000265241));
#837 = ( GEOMETRIC_REPRESENTATION_CONTEXT(2) 
PARAMETRIC_REPRESENTATION_CONTEXT() REPRESENTATION_CONTEXT('2D SPACE',''
  ) );
#838 = ORIENTED_EDGE('',*,*,#839,.T.);
#839 = EDGE_CURVE('',#820,#820,#840,.T.);
#840 = SURFACE_CURVE('',#841,(#846,#852),.PCURVE_S1.);
#841 = CIRCLE('',#842,7.);
#842 = AXIS2_PLACEMENT_3D('',#843,#844,#845);
#843 = CARTESIAN_POINT('',(91.923881554252,-4.514015818716E-13,0.));
#844 = DIRECTION('',(0.,-0.,1.));
#845 = DIRECTION('',(1.,6.448594026737E-14,0.));
#846 = PCURVE('',#245,#847);
#847 = DEFINITIONAL_REPRESENTATION('',(#848),#851);
#848 = B_SPLINE_CURVE_WITH_KNOTS('',1,(#849,#850),.UNSPECIFIED.,.F.,.F.,
  (2,2),(0.,6.28318530718),.PIECEWISE_BEZIER_KNOTS.);
#849 = CARTESIAN_POINT('',(3.14159265359,5.000000265242));
#850 = CARTESIAN_POINT('',(-3.14159265359,5.000000265242));
#851 = ( GEOMETRIC_REPRESENTATION_CONTEXT(2) 
PARAMETRIC_REPRESENTATION_CONTEXT() REPRESENTATION_CONTEXT('2D SPACE',''
  ) );
#852 = PCURVE('',#503,#853);
#853 = DEFINITIONAL_REPRESENTATION('',(#854),#862);
#854 = ( BOUNDED_CURVE() B_SPLINE_CURVE(2,(#855,#856,#857,#858,#859,#860
,#861),.UNSPECIFIED.,.T.,.F.) B_SPLINE_CURVE_WITH_KNOTS((1,2,2,2,2,1),(
    -2.094395102393,0.,2.094395102393,4.188790204786,6.28318530718,
8.377580409573),.UNSPECIFIED.) CURVE() GEOMETRIC_REPRESENTATION_ITEM() 
RATIONAL_B_SPLINE_CURVE((1.,0.5,1.,0.5,1.,0.5,1.)) REPRESENTATION_ITEM(
  '') );
#855 = CARTESIAN_POINT('',(-223.9238825406,-125.0000009863));
#856 = CARTESIAN_POINT('',(-223.9238825406,-112.8756453333));
#857 = CARTESIAN_POINT('',(-213.4238825406,-118.9378231598));
#858 = CARTESIAN_POINT('',(-202.9238825406,-125.0000009863));
#859 = CARTESIAN_POINT('',(-213.4238825406,-131.0621788128));
#860 = CARTESIAN_POINT('',(-223.9238825406,-137.1243566393));
#861 = CARTESIAN_POINT('',(-223.9238825406,-125.0000009863));
#862 = ( GEOMETRIC_REPRESENTATION_CONTEXT(2) 
PARAMETRIC_REPRESENTATION_CONTEXT() REPRESENTATION_CONTEXT('2D SPACE',''
  ) );
#863 = ORIENTED_EDGE('',*,*,#819,.F.);
#864 = ADVANCED_FACE('',(#865),#275,.F.);
#865 = FACE_BOUND('',#866,.F.);
#866 = EDGE_LOOP('',(#867,#868,#888,#913));
#867 = ORIENTED_EDGE('',*,*,#258,.F.);
#868 = ORIENTED_EDGE('',*,*,#869,.T.);
#869 = EDGE_CURVE('',#259,#870,#872,.T.);
#870 = VERTEX_POINT('',#871);
#871 = CARTESIAN_POINT('',(-84.92388155425,0.,0.));
#872 = SEAM_CURVE('',#873,(#876,#882),.PCURVE_S1.);
#873 = B_SPLINE_CURVE_WITH_KNOTS('',1,(#874,#875),.UNSPECIFIED.,.F.,.F.,
  (2,2),(0.,1.000000053048E-02),.PIECEWISE_BEZIER_KNOTS.);
#874 = CARTESIAN_POINT('',(-84.92388155425,0.,10.000000530484));
#875 = CARTESIAN_POINT('',(-84.92388155425,0.,0.));
#876 = PCURVE('',#275,#877);
#877 = DEFINITIONAL_REPRESENTATION('',(#878),#881);
#878 = B_SPLINE_CURVE_WITH_KNOTS('',1,(#879,#880),.UNSPECIFIED.,.F.,.F.,
  (2,2),(0.,1.000000053048E-02),.PIECEWISE_BEZIER_KNOTS.);
#879 = CARTESIAN_POINT('',(9.424777960769,-5.000000265242));
#880 = CARTESIAN_POINT('',(9.424777960769,5.000000265241));
#881 = ( GEOMETRIC_REPRESENTATION_CONTEXT(2) 
PARAMETRIC_REPRESENTATION_CONTEXT() REPRESENTATION_CONTEXT('2D SPACE',''
  ) );
#882 = PCURVE('',#275,#883);
#883 = DEFINITIONAL_REPRESENTATION('',(#884),#887);
#884 = B_SPLINE_CURVE_WITH_KNOTS('',1,(#885,#886),.UNSPECIFIED.,.F.,.F.,
  (2,2),(0.,1.000000053048E-02),.PIECEWISE_BEZIER_KNOTS.);
#885 = CARTESIAN_POINT('',(3.14159265359,-5.000000265242));
#886 = CARTESIAN_POINT('',(3.14159265359,5.000000265241));
#887 = ( GEOMETRIC_REPRESENTATION_CONTEXT(2) 
PARAMETRIC_REPRESENTATION_CONTEXT() REPRESENTATION_CONTEXT('2D SPACE',''
  ) );
#888 = ORIENTED_EDGE('',*,*,#889,.T.);
#889 = EDGE_CURVE('',#870,#870,#890,.T.);
#890 = SURFACE_CURVE('',#891,(#896,#902),.PCURVE_S1.);
#891 = CIRCLE('',#892,7.);
#892 = AXIS2_PLACEMENT_3D('',#893,#894,#895);
#893 = CARTESIAN_POINT('',(-91.92388155425,-4.514015818716E-13,0.));
#894 = DIRECTION('',(0.,-0.,1.));
#895 = DIRECTION('',(1.,6.448594026737E-14,0.));
#896 = PCURVE('',#275,#897);
#897 = DEFINITIONAL_REPRESENTATION('',(#898),#901);
#898 = B_SPLINE_CURVE_WITH_KNOTS('',1,(#899,#900),.UNSPECIFIED.,.F.,.F.,
  (2,2),(0.,6.28318530718),.PIECEWISE_BEZIER_KNOTS.);
#899 = CARTESIAN_POINT('',(9.424777960769,5.000000265242));
#900 = CARTESIAN_POINT('',(3.14159265359,5.000000265242));
#901 = ( GEOMETRIC_REPRESENTATION_CONTEXT(2) 
PARAMETRIC_REPRESENTATION_CONTEXT() REPRESENTATION_CONTEXT('2D SPACE',''
  ) );
#902 = PCURVE('',#503,#903);
#903 = DEFINITIONAL_REPRESENTATION('',(#904),#912);
#904 = ( BOUNDED_CURVE() B_SPLINE_CURVE(2,(#905,#906,#907,#908,#909,#910
,#911),.UNSPECIFIED.,.T.,.F.) B_SPLINE_CURVE_WITH_KNOTS((1,2,2,2,2,1),(
    -2.094395102393,0.,2.094395102393,4.188790204786,6.28318530718,
8.377580409573),.UNSPECIFIED.) CURVE() GEOMETRIC_REPRESENTATION_ITEM() 
RATIONAL_B_SPLINE_CURVE((1.,0.5,1.,0.5,1.,0.5,1.)) REPRESENTATION_ITEM(
  '') );
#905 = CARTESIAN_POINT('',(-40.0761194321,-125.0000009863));
#906 = CARTESIAN_POINT('',(-40.0761194321,-112.8756453333));
#907 = CARTESIAN_POINT('',(-29.5761194321,-118.9378231598));
#908 = CARTESIAN_POINT('',(-19.0761194321,-125.0000009863));
#909 = CARTESIAN_POINT('',(-29.5761194321,-131.0621788128));
#910 = CARTESIAN_POINT('',(-40.0761194321,-137.1243566393));
#911 = CARTESIAN_POINT('',(-40.0761194321,-125.0000009863));
#912 = ( GEOMETRIC_REPRESENTATION_CONTEXT(2) 
PARAMETRIC_REPRESENTATION_CONTEXT() REPRESENTATION_CONTEXT('2D SPACE',''
  ) );
#913 = ORIENTED_EDGE('',*,*,#869,.F.);
#914 = ADVANCED_FACE('',(#915),#305,.F.);
#915 = FACE_BOUND('',#916,.F.);
#916 = EDGE_LOOP('',(#917,#918,#938,#963));
#917 = ORIENTED_EDGE('',*,*,#288,.F.);
#918 = ORIENTED_EDGE('',*,*,#919,.T.);
#919 = EDGE_CURVE('',#289,#920,#922,.T.);
#920 = VERTEX_POINT('',#921);
#921 = CARTESIAN_POINT('',(7.,91.923881554251,0.));
#922 = SEAM_CURVE('',#923,(#926,#932),.PCURVE_S1.);
#923 = B_SPLINE_CURVE_WITH_KNOTS('',1,(#924,#925),.UNSPECIFIED.,.F.,.F.,
  (2,2),(0.,1.000000053048E-02),.PIECEWISE_BEZIER_KNOTS.);
#924 = CARTESIAN_POINT('',(7.,91.923881554251,10.000000530484));
#925 = CARTESIAN_POINT('',(7.,91.923881554251,0.));
#926 = PCURVE('',#305,#927);
#927 = DEFINITIONAL_REPRESENTATION('',(#928),#931);
#928 = B_SPLINE_CURVE_WITH_KNOTS('',1,(#929,#930),.UNSPECIFIED.,.F.,.F.,
  (2,2),(0.,1.000000053048E-02),.PIECEWISE_BEZIER_KNOTS.);
#929 = CARTESIAN_POINT('',(3.14159265359,-5.000000265242));
#930 = CARTESIAN_POINT('',(3.14159265359,5.000000265241));
#931 = ( GEOMETRIC_REPRESENTATION_CONTEXT(2) 
PARAMETRIC_REPRESENTATION_CONTEXT() REPRESENTATION_CONTEXT('2D SPACE',''
  ) );
#932 = PCURVE('',#305,#933);
#933 = DEFINITIONAL_REPRESENTATION('',(#934),#937);
#934 = B_SPLINE_CURVE_WITH_KNOTS('',1,(#935,#936),.UNSPECIFIED.,.F.,.F.,
  (2,2),(0.,1.000000053048E-02),.PIECEWISE_BEZIER_KNOTS.);
#935 = CARTESIAN_POINT('',(-3.14159265359,-5.000000265242));
#936 = CARTESIAN_POINT('',(-3.14159265359,5.000000265241));
#937 = ( GEOMETRIC_REPRESENTATION_CONTEXT(2) 
PARAMETRIC_REPRESENTATION_CONTEXT() REPRESENTATION_CONTEXT('2D SPACE',''
  ) );
#938 = ORIENTED_EDGE('',*,*,#939,.T.);
#939 = EDGE_CURVE('',#920,#920,#940,.T.);
#940 = SURFACE_CURVE('',#941,(#946,#952),.PCURVE_S1.);
#941 = CIRCLE('',#942,7.);
#942 = AXIS2_PLACEMENT_3D('',#943,#944,#945);
#943 = CARTESIAN_POINT('',(2.914335439641E-13,91.923881554251,0.));
#944 = DIRECTION('',(0.,-0.,1.));
#945 = DIRECTION('',(1.,6.542385680827E-14,0.));
#946 = PCURVE('',#305,#947);
#947 = DEFINITIONAL_REPRESENTATION('',(#948),#951);
#948 = B_SPLINE_CURVE_WITH_KNOTS('',1,(#949,#950),.UNSPECIFIED.,.F.,.F.,
  (2,2),(0.,6.28318530718),.PIECEWISE_BEZIER_KNOTS.);
#949 = CARTESIAN_POINT('',(3.14159265359,5.000000265242));
#950 = CARTESIAN_POINT('',(-3.14159265359,5.000000265242));
#951 = ( GEOMETRIC_REPRESENTATION_CONTEXT(2) 
PARAMETRIC_REPRESENTATION_CONTEXT() REPRESENTATION_CONTEXT('2D SPACE',''
  ) );
#952 = PCURVE('',#503,#953);
#953 = DEFINITIONAL_REPRESENTATION('',(#954),#962);
#954 = ( BOUNDED_CURVE() B_SPLINE_CURVE(2,(#955,#956,#957,#958,#959,#960
,#961),.UNSPECIFIED.,.T.,.F.) B_SPLINE_CURVE_WITH_KNOTS((1,2,2,2,2,1),(
    -2.094395102393,0.,2.094395102393,4.188790204786,6.28318530718,
8.377580409573),.UNSPECIFIED.) CURVE() GEOMETRIC_REPRESENTATION_ITEM() 
RATIONAL_B_SPLINE_CURVE((1.,0.5,1.,0.5,1.,0.5,1.)) REPRESENTATION_ITEM(
  '') );
#955 = CARTESIAN_POINT('',(-132.0000009863,-33.0761194321));
#956 = CARTESIAN_POINT('',(-132.0000009863,-20.95176377911));
#957 = CARTESIAN_POINT('',(-121.5000009863,-27.01394160561));
#958 = CARTESIAN_POINT('',(-111.0000009863,-33.0761194321));
#959 = CARTESIAN_POINT('',(-121.5000009863,-39.13829725859));
#960 = CARTESIAN_POINT('',(-132.0000009863,-45.20047508508));
#961 = CARTESIAN_POINT('',(-132.0000009863,-33.0761194321));
#962 = ( GEOMETRIC_REPRESENTATION_CONTEXT(2) 
PARAMETRIC_REPRESENTATION_CONTEXT() REPRESENTATION_CONTEXT('2D SPACE',''
  ) );
#963 = ORIENTED_EDGE('',*,*,#919,.F.);
#964 = ADVANCED_FACE('',(#965),#335,.F.);
#965 = FACE_BOUND('',#966,.F.);
#966 = EDGE_LOOP('',(#967,#968,#988,#1013));
#967 = ORIENTED_EDGE('',*,*,#318,.F.);
#968 = ORIENTED_EDGE('',*,*,#969,.T.);
#969 = EDGE_CURVE('',#319,#970,#972,.T.);
#970 = VERTEX_POINT('',#971);
#971 = CARTESIAN_POINT('',(7.,-91.92388155425,0.));
#972 = SEAM_CURVE('',#973,(#976,#982),.PCURVE_S1.);
#973 = B_SPLINE_CURVE_WITH_KNOTS('',1,(#974,#975),.UNSPECIFIED.,.F.,.F.,
  (2,2),(0.,1.000000053048E-02),.PIECEWISE_BEZIER_KNOTS.);
#974 = CARTESIAN_POINT('',(7.,-91.92388155425,10.000000530484));
#975 = CARTESIAN_POINT('',(7.,-91.92388155425,0.));
#976 = PCURVE('',#335,#977);
#977 = DEFINITIONAL_REPRESENTATION('',(#978),#981);
#978 = B_SPLINE_CURVE_WITH_KNOTS('',1,(#979,#980),.UNSPECIFIED.,.F.,.F.,
  (2,2),(0.,1.000000053048E-02),.PIECEWISE_BEZIER_KNOTS.);
#979 = CARTESIAN_POINT('',(9.424777960769,-5.000000265242));
#980 = CARTESIAN_POINT('',(9.424777960769,5.000000265241));
#981 = ( GEOMETRIC_REPRESENTATION_CONTEXT(2) 
PARAMETRIC_REPRESENTATION_CONTEXT() REPRESENTATION_CONTEXT('2D SPACE',''
  ) );
#982 = PCURVE('',#335,#983);
#983 = DEFINITIONAL_REPRESENTATION('',(#984),#987);
#984 = B_SPLINE_CURVE_WITH_KNOTS('',1,(#985,#986),.UNSPECIFIED.,.F.,.F.,
  (2,2),(0.,1.000000053048E-02),.PIECEWISE_BEZIER_KNOTS.);
#985 = CARTESIAN_POINT('',(3.14159265359,-5.000000265242));
#986 = CARTESIAN_POINT('',(3.14159265359,5.000000265241));
#987 = ( GEOMETRIC_REPRESENTATION_CONTEXT(2) 
PARAMETRIC_REPRESENTATION_CONTEXT() REPRESENTATION_CONTEXT('2D SPACE',''
  ) );
#988 = ORIENTED_EDGE('',*,*,#989,.T.);
#989 = EDGE_CURVE('',#970,#970,#990,.T.);
#990 = SURFACE_CURVE('',#991,(#996,#1002),.PCURVE_S1.);
#991 = CIRCLE('',#992,7.);
#992 = AXIS2_PLACEMENT_3D('',#993,#994,#995);
#993 = CARTESIAN_POINT('',(7.163546842745E-13,-91.92388155425,0.));
#994 = DIRECTION('',(0.,0.,1.));
#995 = DIRECTION('',(1.,0.,0.));
#996 = PCURVE('',#335,#997);
#997 = DEFINITIONAL_REPRESENTATION('',(#998),#1001);
#998 = B_SPLINE_CURVE_WITH_KNOTS('',1,(#999,#1000),.UNSPECIFIED.,.F.,.F.
  ,(2,2),(0.,6.28318530718),.PIECEWISE_BEZIER_KNOTS.);
#999 = CARTESIAN_POINT('',(9.424777960769,5.000000265242));
#1000 = CARTESIAN_POINT('',(3.14159265359,5.000000265242));
#1001 = ( GEOMETRIC_REPRESENTATION_CONTEXT(2) 
PARAMETRIC_REPRESENTATION_CONTEXT() REPRESENTATION_CONTEXT('2D SPACE',''
  ) );
#1002 = PCURVE('',#503,#1003);
#1003 = DEFINITIONAL_REPRESENTATION('',(#1004),#1012);
#1004 = ( BOUNDED_CURVE() B_SPLINE_CURVE(2,(#1005,#1006,#1007,#1008,
#1009,#1010,#1011),.UNSPECIFIED.,.T.,.F.) B_SPLINE_CURVE_WITH_KNOTS((1,2
    ,2,2,2,1),(-2.094395102393,0.,2.094395102393,4.188790204786,
6.28318530718,8.377580409573),.UNSPECIFIED.) CURVE() 
GEOMETRIC_REPRESENTATION_ITEM() RATIONAL_B_SPLINE_CURVE((1.,0.5,1.,0.5,
1.,0.5,1.)) REPRESENTATION_ITEM('') );
#1005 = CARTESIAN_POINT('',(-132.0000009863,-216.9238825406));
#1006 = CARTESIAN_POINT('',(-132.0000009863,-204.7995268876));
#1007 = CARTESIAN_POINT('',(-121.5000009863,-210.8617047141));
#1008 = CARTESIAN_POINT('',(-111.0000009863,-216.9238825406));
#1009 = CARTESIAN_POINT('',(-121.5000009863,-222.986060367));
#1010 = CARTESIAN_POINT('',(-132.0000009863,-229.0482381935));
#1011 = CARTESIAN_POINT('',(-132.0000009863,-216.9238825406));
#1012 = ( GEOMETRIC_REPRESENTATION_CONTEXT(2) 
PARAMETRIC_REPRESENTATION_CONTEXT() REPRESENTATION_CONTEXT('2D SPACE',''
  ) );
#1013 = ORIENTED_EDGE('',*,*,#969,.F.);
#1014 = ADVANCED_FACE('',(#1015),#365,.F.);
#1015 = FACE_BOUND('',#1016,.F.);
#1016 = EDGE_LOOP('',(#1017,#1018,#1038,#1063));
#1017 = ORIENTED_EDGE('',*,*,#348,.F.);
#1018 = ORIENTED_EDGE('',*,*,#1019,.T.);
#1019 = EDGE_CURVE('',#349,#1020,#1022,.T.);
#1020 = VERTEX_POINT('',#1021);
#1021 = CARTESIAN_POINT('',(82.000000000001,-74.99999999999,0.));
#1022 = SEAM_CURVE('',#1023,(#1026,#1032),.PCURVE_S1.);
#1023 = B_SPLINE_CURVE_WITH_KNOTS('',1,(#1024,#1025),.UNSPECIFIED.,.F.,
  .F.,(2,2),(0.,1.000000053048E-02),.PIECEWISE_BEZIER_KNOTS.);
#1024 = CARTESIAN_POINT('',(82.000000000001,-74.99999999999,
    10.000000530484));
#1025 = CARTESIAN_POINT('',(82.000000000001,-74.99999999999,0.));
#1026 = PCURVE('',#365,#1027);
#1027 = DEFINITIONAL_REPRESENTATION('',(#1028),#1031);
#1028 = B_SPLINE_CURVE_WITH_KNOTS('',1,(#1029,#1030),.UNSPECIFIED.,.F.,
  .F.,(2,2),(0.,1.000000053048E-02),.PIECEWISE_BEZIER_KNOTS.);
#1029 = CARTESIAN_POINT('',(3.14159265359,-5.000000265242));
#1030 = CARTESIAN_POINT('',(3.14159265359,5.000000265241));
#1031 = ( GEOMETRIC_REPRESENTATION_CONTEXT(2) 
PARAMETRIC_REPRESENTATION_CONTEXT() REPRESENTATION_CONTEXT('2D SPACE',''
  ) );
#1032 = PCURVE('',#365,#1033);
#1033 = DEFINITIONAL_REPRESENTATION('',(#1034),#1037);
#1034 = B_SPLINE_CURVE_WITH_KNOTS('',1,(#1035,#1036),.UNSPECIFIED.,.F.,
  .F.,(2,2),(0.,1.000000053048E-02),.PIECEWISE_BEZIER_KNOTS.);
#1035 = CARTESIAN_POINT('',(-3.14159265359,-5.000000265242));
#1036 = CARTESIAN_POINT('',(-3.14159265359,5.000000265241));
#1037 = ( GEOMETRIC_REPRESENTATION_CONTEXT(2) 
PARAMETRIC_REPRESENTATION_CONTEXT() REPRESENTATION_CONTEXT('2D SPACE',''
  ) );
#1038 = ORIENTED_EDGE('',*,*,#1039,.T.);
#1039 = EDGE_CURVE('',#1020,#1020,#1040,.T.);
#1040 = SURFACE_CURVE('',#1041,(#1046,#1052),.PCURVE_S1.);
#1041 = CIRCLE('',#1042,7.);
#1042 = AXIS2_PLACEMENT_3D('',#1043,#1044,#1045);
#1043 = CARTESIAN_POINT('',(75.,-75.,0.));
#1044 = DIRECTION('',(0.,-0.,1.));
#1045 = DIRECTION('',(1.,6.344131569287E-14,0.));
#1046 = PCURVE('',#365,#1047);
#1047 = DEFINITIONAL_REPRESENTATION('',(#1048),#1051);
#1048 = B_SPLINE_CURVE_WITH_KNOTS('',1,(#1049,#1050),.UNSPECIFIED.,.F.,
  .F.,(2,2),(0.,6.28318530718),.PIECEWISE_BEZIER_KNOTS.);
#1049 = CARTESIAN_POINT('',(3.14159265359,5.000000265242));
#1050 = CARTESIAN_POINT('',(-3.14159265359,5.000000265242));
#1051 = ( GEOMETRIC_REPRESENTATION_CONTEXT(2) 
PARAMETRIC_REPRESENTATION_CONTEXT() REPRESENTATION_CONTEXT('2D SPACE',''
  ) );
#1052 = PCURVE('',#503,#1053);
#1053 = DEFINITIONAL_REPRESENTATION('',(#1054),#1062);
#1054 = ( BOUNDED_CURVE() B_SPLINE_CURVE(2,(#1055,#1056,#1057,#1058,
#1059,#1060,#1061),.UNSPECIFIED.,.T.,.F.) B_SPLINE_CURVE_WITH_KNOTS((1,2
    ,2,2,2,1),(-2.094395102393,0.,2.094395102393,4.188790204786,
6.28318530718,8.377580409573),.UNSPECIFIED.) CURVE() 
GEOMETRIC_REPRESENTATION_ITEM() RATIONAL_B_SPLINE_CURVE((1.,0.5,1.,0.5,
1.,0.5,1.)) REPRESENTATION_ITEM('') );
#1055 = CARTESIAN_POINT('',(-207.0000009863,-200.0000009863));
#1056 = CARTESIAN_POINT('',(-207.0000009863,-187.8756453333));
#1057 = CARTESIAN_POINT('',(-196.5000009863,-193.9378231598));
#1058 = CARTESIAN_POINT('',(-186.0000009863,-200.0000009863));
#1059 = CARTESIAN_POINT('',(-196.5000009863,-206.0621788128));
#1060 = CARTESIAN_POINT('',(-207.0000009863,-212.1243566393));
#1061 = CARTESIAN_POINT('',(-207.0000009863,-200.0000009863));
#1062 = ( GEOMETRIC_REPRESENTATION_CONTEXT(2) 
PARAMETRIC_REPRESENTATION_CONTEXT() REPRESENTATION_CONTEXT('2D SPACE',''
  ) );
#1063 = ORIENTED_EDGE('',*,*,#1019,.F.);
#1064 = ADVANCED_FACE('',(#1065),#395,.F.);
#1065 = FACE_BOUND('',#1066,.F.);
#1066 = EDGE_LOOP('',(#1067,#1068,#1088,#1113));
#1067 = ORIENTED_EDGE('',*,*,#378,.F.);
#1068 = ORIENTED_EDGE('',*,*,#1069,.T.);
#1069 = EDGE_CURVE('',#379,#1070,#1072,.T.);
#1070 = VERTEX_POINT('',#1071);
#1071 = CARTESIAN_POINT('',(82.,75.000000000001,0.));
#1072 = SEAM_CURVE('',#1073,(#1076,#1082),.PCURVE_S1.);
#1073 = B_SPLINE_CURVE_WITH_KNOTS('',1,(#1074,#1075),.UNSPECIFIED.,.F.,
  .F.,(2,2),(0.,1.000000053048E-02),.PIECEWISE_BEZIER_KNOTS.);
#1074 = CARTESIAN_POINT('',(82.,75.000000000001,10.000000530484));
#1075 = CARTESIAN_POINT('',(82.,75.000000000001,0.));
#1076 = PCURVE('',#395,#1077);
#1077 = DEFINITIONAL_REPRESENTATION('',(#1078),#1081);
#1078 = B_SPLINE_CURVE_WITH_KNOTS('',1,(#1079,#1080),.UNSPECIFIED.,.F.,
  .F.,(2,2),(0.,1.000000053048E-02),.PIECEWISE_BEZIER_KNOTS.);
#1079 = CARTESIAN_POINT('',(3.14159265359,-5.000000265242));
#1080 = CARTESIAN_POINT('',(3.14159265359,5.000000265241));
#1081 = ( GEOMETRIC_REPRESENTATION_CONTEXT(2) 
PARAMETRIC_REPRESENTATION_CONTEXT() REPRESENTATION_CONTEXT('2D SPACE',''
  ) );
#1082 = PCURVE('',#395,#1083);
#1083 = DEFINITIONAL_REPRESENTATION('',(#1084),#1087);
#1084 = B_SPLINE_CURVE_WITH_KNOTS('',1,(#1085,#1086),.UNSPECIFIED.,.F.,
  .F.,(2,2),(0.,1.000000053048E-02),.PIECEWISE_BEZIER_KNOTS.);
#1085 = CARTESIAN_POINT('',(-3.14159265359,-5.000000265242));
#1086 = CARTESIAN_POINT('',(-3.14159265359,5.000000265241));
#1087 = ( GEOMETRIC_REPRESENTATION_CONTEXT(2) 
PARAMETRIC_REPRESENTATION_CONTEXT() REPRESENTATION_CONTEXT('2D SPACE',''
  ) );
#1088 = ORIENTED_EDGE('',*,*,#1089,.T.);
#1089 = EDGE_CURVE('',#1070,#1070,#1090,.T.);
#1090 = SURFACE_CURVE('',#1091,(#1096,#1102),.PCURVE_S1.);
#1091 = CIRCLE('',#1092,7.);
#1092 = AXIS2_PLACEMENT_3D('',#1093,#1094,#1095);
#1093 = CARTESIAN_POINT('',(75.,75.000000000001,0.));
#1094 = DIRECTION('',(0.,-0.,1.));
#1095 = DIRECTION('',(1.,6.344131569287E-14,0.));
#1096 = PCURVE('',#395,#1097);
#1097 = DEFINITIONAL_REPRESENTATION('',(#1098),#1101);
#1098 = B_SPLINE_CURVE_WITH_KNOTS('',1,(#1099,#1100),.UNSPECIFIED.,.F.,
  .F.,(2,2),(0.,6.28318530718),.PIECEWISE_BEZIER_KNOTS.);
#1099 = CARTESIAN_POINT('',(3.14159265359,5.000000265242));
#1100 = CARTESIAN_POINT('',(-3.14159265359,5.000000265242));
#1101 = ( GEOMETRIC_REPRESENTATION_CONTEXT(2) 
PARAMETRIC_REPRESENTATION_CONTEXT() REPRESENTATION_CONTEXT('2D SPACE',''
  ) );
#1102 = PCURVE('',#503,#1103);
#1103 = DEFINITIONAL_REPRESENTATION('',(#1104),#1112);
#1104 = ( BOUNDED_CURVE() B_SPLINE_CURVE(2,(#1105,#1106,#1107,#1108,
#1109,#1110,#1111),.UNSPECIFIED.,.T.,.F.) B_SPLINE_CURVE_WITH_KNOTS((1,2
    ,2,2,2,1),(-2.094395102393,0.,2.094395102393,4.188790204786,
6.28318530718,8.377580409573),.UNSPECIFIED.) CURVE() 
GEOMETRIC_REPRESENTATION_ITEM() RATIONAL_B_SPLINE_CURVE((1.,0.5,1.,0.5,
1.,0.5,1.)) REPRESENTATION_ITEM('') );
#1105 = CARTESIAN_POINT('',(-207.0000009863,-50.00000098635));
#1106 = CARTESIAN_POINT('',(-207.0000009863,-37.87564533337));
#1107 = CARTESIAN_POINT('',(-196.5000009863,-43.93782315986));
#1108 = CARTESIAN_POINT('',(-186.0000009863,-50.00000098635));
#1109 = CARTESIAN_POINT('',(-196.5000009863,-56.06217881284));
#1110 = CARTESIAN_POINT('',(-207.0000009863,-62.12435663933));
#1111 = CARTESIAN_POINT('',(-207.0000009863,-50.00000098635));
#1112 = ( GEOMETRIC_REPRESENTATION_CONTEXT(2) 
PARAMETRIC_REPRESENTATION_CONTEXT() REPRESENTATION_CONTEXT('2D SPACE',''
  ) );
#1113 = ORIENTED_EDGE('',*,*,#1069,.F.);
#1114 = ADVANCED_FACE('',(#1115),#425,.F.);
#1115 = FACE_BOUND('',#1116,.F.);
#1116 = EDGE_LOOP('',(#1117,#1118,#1138,#1163));
#1117 = ORIENTED_EDGE('',*,*,#408,.F.);
#1118 = ORIENTED_EDGE('',*,*,#1119,.T.);
#1119 = EDGE_CURVE('',#409,#1120,#1122,.T.);
#1120 = VERTEX_POINT('',#1121);
#1121 = CARTESIAN_POINT('',(-68.,74.999999999999,0.));
#1122 = SEAM_CURVE('',#1123,(#1126,#1132),.PCURVE_S1.);
#1123 = B_SPLINE_CURVE_WITH_KNOTS('',1,(#1124,#1125),.UNSPECIFIED.,.F.,
  .F.,(2,2),(0.,1.000000053048E-02),.PIECEWISE_BEZIER_KNOTS.);
#1124 = CARTESIAN_POINT('',(-68.,74.999999999999,10.000000530484));
#1125 = CARTESIAN_POINT('',(-68.,74.999999999999,0.));
#1126 = PCURVE('',#425,#1127);
#1127 = DEFINITIONAL_REPRESENTATION('',(#1128),#1131);
#1128 = B_SPLINE_CURVE_WITH_KNOTS('',1,(#1129,#1130),.UNSPECIFIED.,.F.,
  .F.,(2,2),(0.,1.000000053048E-02),.PIECEWISE_BEZIER_KNOTS.);
#1129 = CARTESIAN_POINT('',(3.14159265359,-5.000000265242));
#1130 = CARTESIAN_POINT('',(3.14159265359,5.000000265241));
#1131 = ( GEOMETRIC_REPRESENTATION_CONTEXT(2) 
PARAMETRIC_REPRESENTATION_CONTEXT() REPRESENTATION_CONTEXT('2D SPACE',''
  ) );
#1132 = PCURVE('',#425,#1133);
#1133 = DEFINITIONAL_REPRESENTATION('',(#1134),#1137);
#1134 = B_SPLINE_CURVE_WITH_KNOTS('',1,(#1135,#1136),.UNSPECIFIED.,.F.,
  .F.,(2,2),(0.,1.000000053048E-02),.PIECEWISE_BEZIER_KNOTS.);
#1135 = CARTESIAN_POINT('',(-3.14159265359,-5.000000265242));
#1136 = CARTESIAN_POINT('',(-3.14159265359,5.000000265241));
#1137 = ( GEOMETRIC_REPRESENTATION_CONTEXT(2) 
PARAMETRIC_REPRESENTATION_CONTEXT() REPRESENTATION_CONTEXT('2D SPACE',''
  ) );
#1138 = ORIENTED_EDGE('',*,*,#1139,.T.);
#1139 = EDGE_CURVE('',#1120,#1120,#1140,.T.);
#1140 = SURFACE_CURVE('',#1141,(#1146,#1152),.PCURVE_S1.);
#1141 = CIRCLE('',#1142,7.);
#1142 = AXIS2_PLACEMENT_3D('',#1143,#1144,#1145);
#1143 = CARTESIAN_POINT('',(-75.,74.999999999999,0.));
#1144 = DIRECTION('',(0.,-0.,1.));
#1145 = DIRECTION('',(1.,6.542385680827E-14,0.));
#1146 = PCURVE('',#425,#1147);
#1147 = DEFINITIONAL_REPRESENTATION('',(#1148),#1151);
#1148 = B_SPLINE_CURVE_WITH_KNOTS('',1,(#1149,#1150),.UNSPECIFIED.,.F.,
  .F.,(2,2),(0.,6.28318530718),.PIECEWISE_BEZIER_KNOTS.);
#1149 = CARTESIAN_POINT('',(3.14159265359,5.000000265242));
#1150 = CARTESIAN_POINT('',(-3.14159265359,5.000000265242));
#1151 = ( GEOMETRIC_REPRESENTATION_CONTEXT(2) 
PARAMETRIC_REPRESENTATION_CONTEXT() REPRESENTATION_CONTEXT('2D SPACE',''
  ) );
#1152 = PCURVE('',#503,#1153);
#1153 = DEFINITIONAL_REPRESENTATION('',(#1154),#1162);
#1154 = ( BOUNDED_CURVE() B_SPLINE_CURVE(2,(#1155,#1156,#1157,#1158,
#1159,#1160,#1161),.UNSPECIFIED.,.T.,.F.) B_SPLINE_CURVE_WITH_KNOTS((1,2
    ,2,2,2,1),(-2.094395102393,0.,2.094395102393,4.188790204786,
6.28318530718,8.377580409573),.UNSPECIFIED.) CURVE() 
GEOMETRIC_REPRESENTATION_ITEM() RATIONAL_B_SPLINE_CURVE((1.,0.5,1.,0.5,
1.,0.5,1.)) REPRESENTATION_ITEM('') );
#1155 = CARTESIAN_POINT('',(-57.00000098635,-50.00000098635));
#1156 = CARTESIAN_POINT('',(-57.00000098635,-37.87564533337));
#1157 = CARTESIAN_POINT('',(-46.50000098635,-43.93782315986));
#1158 = CARTESIAN_POINT('',(-36.00000098635,-50.00000098635));
#1159 = CARTESIAN_POINT('',(-46.50000098635,-56.06217881284));
#1160 = CARTESIAN_POINT('',(-57.00000098635,-62.12435663933));
#1161 = CARTESIAN_POINT('',(-57.00000098635,-50.00000098635));
#1162 = ( GEOMETRIC_REPRESENTATION_CONTEXT(2) 
PARAMETRIC_REPRESENTATION_CONTEXT() REPRESENTATION_CONTEXT('2D SPACE',''
  ) );
#1163 = ORIENTED_EDGE('',*,*,#1119,.F.);
#1164 = ADVANCED_FACE('',(#1165),#455,.F.);
#1165 = FACE_BOUND('',#1166,.F.);
#1166 = EDGE_LOOP('',(#1167,#1168,#1188,#1213));
#1167 = ORIENTED_EDGE('',*,*,#438,.F.);
#1168 = ORIENTED_EDGE('',*,*,#1169,.T.);
#1169 = EDGE_CURVE('',#439,#1170,#1172,.T.);
#1170 = VERTEX_POINT('',#1171);
#1171 = CARTESIAN_POINT('',(-67.99999999999,-75.,0.));
#1172 = SEAM_CURVE('',#1173,(#1176,#1182),.PCURVE_S1.);
#1173 = B_SPLINE_CURVE_WITH_KNOTS('',1,(#1174,#1175),.UNSPECIFIED.,.F.,
  .F.,(2,2),(0.,1.000000053048E-02),.PIECEWISE_BEZIER_KNOTS.);
#1174 = CARTESIAN_POINT('',(-67.99999999999,-75.,10.000000530484));
#1175 = CARTESIAN_POINT('',(-67.99999999999,-75.,0.));
#1176 = PCURVE('',#455,#1177);
#1177 = DEFINITIONAL_REPRESENTATION('',(#1178),#1181);
#1178 = B_SPLINE_CURVE_WITH_KNOTS('',1,(#1179,#1180),.UNSPECIFIED.,.F.,
  .F.,(2,2),(0.,1.000000053048E-02),.PIECEWISE_BEZIER_KNOTS.);
#1179 = CARTESIAN_POINT('',(9.424777960769,-5.000000265242));
#1180 = CARTESIAN_POINT('',(9.424777960769,5.000000265241));
#1181 = ( GEOMETRIC_REPRESENTATION_CONTEXT(2) 
PARAMETRIC_REPRESENTATION_CONTEXT() REPRESENTATION_CONTEXT('2D SPACE',''
  ) );
#1182 = PCURVE('',#455,#1183);
#1183 = DEFINITIONAL_REPRESENTATION('',(#1184),#1187);
#1184 = B_SPLINE_CURVE_WITH_KNOTS('',1,(#1185,#1186),.UNSPECIFIED.,.F.,
  .F.,(2,2),(0.,1.000000053048E-02),.PIECEWISE_BEZIER_KNOTS.);
#1185 = CARTESIAN_POINT('',(3.14159265359,-5.000000265242));
#1186 = CARTESIAN_POINT('',(3.14159265359,5.000000265241));
#1187 = ( GEOMETRIC_REPRESENTATION_CONTEXT(2) 
PARAMETRIC_REPRESENTATION_CONTEXT() REPRESENTATION_CONTEXT('2D SPACE',''
  ) );
#1188 = ORIENTED_EDGE('',*,*,#1189,.T.);
#1189 = EDGE_CURVE('',#1170,#1170,#1190,.T.);
#1190 = SURFACE_CURVE('',#1191,(#1196,#1202),.PCURVE_S1.);
#1191 = CIRCLE('',#1192,7.);
#1192 = AXIS2_PLACEMENT_3D('',#1193,#1194,#1195);
#1193 = CARTESIAN_POINT('',(-74.99999999999,-75.,0.));
#1194 = DIRECTION('',(-0.,0.,1.));
#1195 = DIRECTION('',(1.,-1.903239470786E-13,0.));
#1196 = PCURVE('',#455,#1197);
#1197 = DEFINITIONAL_REPRESENTATION('',(#1198),#1201);
#1198 = B_SPLINE_CURVE_WITH_KNOTS('',1,(#1199,#1200),.UNSPECIFIED.,.F.,
  .F.,(2,2),(0.,6.28318530718),.PIECEWISE_BEZIER_KNOTS.);
#1199 = CARTESIAN_POINT('',(9.424777960769,5.000000265242));
#1200 = CARTESIAN_POINT('',(3.14159265359,5.000000265242));
#1201 = ( GEOMETRIC_REPRESENTATION_CONTEXT(2) 
PARAMETRIC_REPRESENTATION_CONTEXT() REPRESENTATION_CONTEXT('2D SPACE',''
  ) );
#1202 = PCURVE('',#503,#1203);
#1203 = DEFINITIONAL_REPRESENTATION('',(#1204),#1212);
#1204 = ( BOUNDED_CURVE() B_SPLINE_CURVE(2,(#1205,#1206,#1207,#1208,
#1209,#1210,#1211),.UNSPECIFIED.,.T.,.F.) B_SPLINE_CURVE_WITH_KNOTS((1,2
    ,2,2,2,1),(-2.094395102393,0.,2.094395102393,4.188790204786,
6.28318530718,8.377580409573),.UNSPECIFIED.) CURVE() 
GEOMETRIC_REPRESENTATION_ITEM() RATIONAL_B_SPLINE_CURVE((1.,0.5,1.,0.5,
1.,0.5,1.)) REPRESENTATION_ITEM('') );
#1205 = CARTESIAN_POINT('',(-57.00000098635,-200.0000009863));
#1206 = CARTESIAN_POINT('',(-57.00000098635,-187.8756453333));
#1207 = CARTESIAN_POINT('',(-46.50000098635,-193.9378231598));
#1208 = CARTESIAN_POINT('',(-36.00000098635,-200.0000009863));
#1209 = CARTESIAN_POINT('',(-46.50000098635,-206.0621788128));
#1210 = CARTESIAN_POINT('',(-57.00000098635,-212.1243566393));
#1211 = CARTESIAN_POINT('',(-57.00000098635,-200.0000009863));
#1212 = ( GEOMETRIC_REPRESENTATION_CONTEXT(2) 
PARAMETRIC_REPRESENTATION_CONTEXT() REPRESENTATION_CONTEXT('2D SPACE',''
  ) );
#1213 = ORIENTED_EDGE('',*,*,#1169,.F.);
#1214 = ADVANCED_FACE('',(#1215,#1225,#1228,#1231,#1234,#1237,#1240,
    #1243,#1246),#503,.T.);
#1215 = FACE_BOUND('',#1216,.T.);
#1216 = EDGE_LOOP('',(#1217,#1218,#1219,#1220,#1221,#1222,#1223,#1224));
#1217 = ORIENTED_EDGE('',*,*,#489,.T.);
#1218 = ORIENTED_EDGE('',*,*,#556,.T.);
#1219 = ORIENTED_EDGE('',*,*,#599,.T.);
#1220 = ORIENTED_EDGE('',*,*,#642,.T.);
#1221 = ORIENTED_EDGE('',*,*,#685,.T.);
#1222 = ORIENTED_EDGE('',*,*,#728,.T.);
#1223 = ORIENTED_EDGE('',*,*,#771,.T.);
#1224 = ORIENTED_EDGE('',*,*,#795,.T.);
#1225 = FACE_BOUND('',#1226,.T.);
#1226 = EDGE_LOOP('',(#1227));
#1227 = ORIENTED_EDGE('',*,*,#839,.T.);
#1228 = FACE_BOUND('',#1229,.T.);
#1229 = EDGE_LOOP('',(#1230));
#1230 = ORIENTED_EDGE('',*,*,#889,.T.);
#1231 = FACE_BOUND('',#1232,.T.);
#1232 = EDGE_LOOP('',(#1233));
#1233 = ORIENTED_EDGE('',*,*,#939,.T.);
#1234 = FACE_BOUND('',#1235,.T.);
#1235 = EDGE_LOOP('',(#1236));
#1236 = ORIENTED_EDGE('',*,*,#989,.T.);
#1237 = FACE_BOUND('',#1238,.T.);
#1238 = EDGE_LOOP('',(#1239));
#1239 = ORIENTED_EDGE('',*,*,#1039,.T.);
#1240 = FACE_BOUND('',#1241,.T.);
#1241 = EDGE_LOOP('',(#1242));
#1242 = ORIENTED_EDGE('',*,*,#1089,.T.);
#1243 = FACE_BOUND('',#1244,.T.);
#1244 = EDGE_LOOP('',(#1245));
#1245 = ORIENTED_EDGE('',*,*,#1139,.T.);
#1246 = FACE_BOUND('',#1247,.T.);
#1247 = EDGE_LOOP('',(#1248));
#1248 = ORIENTED_EDGE('',*,*,#1189,.T.);
#1249 = ( GEOMETRIC_REPRESENTATION_CONTEXT(3) 
GLOBAL_UNCERTAINTY_ASSIGNED_CONTEXT((#1253)) 
GLOBAL_UNIT_ASSIGNED_CONTEXT((#1250,#1251,#1252)) REPRESENTATION_CONTEXT
('Context #1','3D Context with UNIT and UNCERTAINTY') );
#1250 = ( LENGTH_UNIT() NAMED_UNIT(*) SI_UNIT(.MILLI.,.METRE.) );
#1251 = ( NAMED_UNIT(*) PLANE_ANGLE_UNIT() SI_UNIT($,.RADIAN.) );
#1252 = ( NAMED_UNIT(*) SI_UNIT($,.STERADIAN.) SOLID_ANGLE_UNIT() );
#1253 = UNCERTAINTY_MEASURE_WITH_UNIT(LENGTH_MEASURE(1.E-04),#1250,
  'distance_accuracy_value','confusion accuracy');
#1254 = PRODUCT_RELATED_PRODUCT_CATEGORY('part',$,(#7));
ENDSEC;
END-ISO-10303-21;
