# Rhino

mtllib schoring_vertical_body_end_5.mtl
usemtl Default
v -70.000877380371094 -70.000000000000057 -8.0000000000004547
v -70.000877380371094 70 -8.0000000000004547
v 70.000000000000085 70 -8.0000000000004547
v 70.000000000000085 -70.000000000000057 -8.0000000000004547
v -70.000877380371094 70 -8.0000000000004547
v -70.000877380371094 70 0
v 70.000000000000085 70 0
v 70.000000000000085 70 -8.0000000000004547
v -70.000877380371094 70 0
v -70.000877380371094 -70.000000000000057 0
v 70.000000000000085 -70.000000000000057 0
v 70.000000000000085 70 0
v -70.000877380371094 -70.000000000000057 0
v -70.000877380371094 -70.000000000000057 -8.0000000000004547
v 70.000000000000085 -70.000000000000057 -8.0000000000004547
v 70.000000000000085 -70.000000000000057 0
v -70.000877380371094 -70.000000000000057 -8.0000000000004547
v -70.000877380371094 -70.000000000000057 0
v -70.000877380371094 70 0
v -70.000877380371094 70 -8.0000000000004547
v 70.000000000000085 -70.000000000000057 -8.0000000000004547
v 70.000000000000085 70 -8.0000000000004547
v 70.000000000000085 70 0
v 70.000000000000085 -70.000000000000057 0
v -38.600000000000009 -38.600097656250028 -2965
v 38.600000000000009 -38.600097656250028 -2965
v 38.600000000000009 -38.600097656250028 -7.9999999999995453
v -38.600000000000009 -38.600097656250028 -7.9999999999995453
v 38.600000000000009 -38.600097656250028 -2965
v 38.600000000000009 38.600097656249972 -2965
v 38.600000000000009 38.600097656249972 -7.9999999999995453
v 38.600000000000009 -38.600097656250028 -7.9999999999995453
v 38.600000000000009 38.600097656249972 -2965
v -38.600000000000009 38.600097656249972 -2965
v -38.600000000000009 38.600097656249972 -7.9999999999995453
v 38.600000000000009 38.600097656249972 -7.9999999999995453
v -38.600000000000009 38.600097656249972 -2965
v -38.600000000000009 -38.600097656250028 -2965
v -38.600000000000009 -38.600097656250028 -7.9999999999995453
v -38.600000000000009 38.600097656249972 -7.9999999999995453
v -38.600000000000009 -38.600097656250028 -2965
v -38.600000000000009 38.600097656249972 -2965
v 38.600000000000009 38.600097656249972 -2965
v 38.600000000000009 -38.600097656250028 -2965
v -38.600000000000009 -38.600097656250028 -7.9999999999995453
v 38.600000000000009 -38.600097656250028 -7.9999999999995453
v 38.600000000000009 38.600097656249972 -7.9999999999995453
v -38.600000000000009 38.600097656249972 -7.9999999999995453
f 1 2 3 4
f 5 6 7 8
f 9 10 11 12
f 13 14 15 16
f 17 18 19 20
f 21 22 23 24
f 25 26 27 28
f 29 30 31 32
f 33 34 35 36
f 37 38 39 40
f 41 42 43 44
f 45 46 47 48
