ISO-10303-21;
HEADER;
FILE_DESCRIPTION(('Open CASCADE Model'),'2;1');
FILE_NAME('Open CASCADE Shape Model','2026-04-21T11:03:40',('Author'),(
    'Open CASCADE'),'Open CASCADE STEP processor 7.9','Open CASCADE 7.9'
  ,'Unknown');
FILE_SCHEMA(('AUTOMOTIVE_DESIGN { 1 0 10303 214 1 1 1 1 }'));
ENDSEC;
DATA;
#1 = APPLICATION_PROTOCOL_DEFINITION('international standard',
  'automotive_design',2000,#2);
#2 = APPLICATION_CONTEXT(
  'core data for automotive mechanical design processes');
#3 = SHAPE_DEFINITION_REPRESENTATION(#4,#10);
#4 = PRODUCT_DEFINITION_SHAPE('','',#5);
#5 = PRODUCT_DEFINITION('design','',#6,#9);
#6 = PRODUCT_DEFINITION_FORMATION('','',#7);
#7 = PRODUCT('OCCBrep 2','OCCBrep 2','',(#8));
#8 = PRODUCT_CONTEXT('',#2,'mechanical');
#9 = PRODUCT_DEFINITION_CONTEXT('part definition',#2,'design');
#10 = ADVANCED_BREP_SHAPE_REPRESENTATION('',(#11,#15),#195);
#11 = AXIS2_PLACEMENT_3D('',#12,#13,#14);
#12 = CARTESIAN_POINT('',(0.,0.,0.));
#13 = DIRECTION('',(0.,0.,1.));
#14 = DIRECTION('',(1.,0.,-0.));
#15 = MANIFOLD_SOLID_BREP('',#16);
#16 = CLOSED_SHELL('',(#17,#108,#181,#188));
#17 = ADVANCED_FACE('',(#18),#31,.T.);
#18 = FACE_BOUND('',#19,.T.);
#19 = EDGE_LOOP('',(#20,#57,#77,#107));
#20 = ORIENTED_EDGE('',*,*,#21,.T.);
#21 = EDGE_CURVE('',#22,#22,#24,.T.);
#22 = VERTEX_POINT('',#23);
#23 = CARTESIAN_POINT('',(29.915204063441,54.875593678208,
    -4.440892098501E-13));
#24 = SURFACE_CURVE('',#25,(#30,#41),.PCURVE_S1.);
#25 = CIRCLE('',#26,62.500001716142);
#26 = AXIS2_PLACEMENT_3D('',#27,#28,#29);
#27 = CARTESIAN_POINT('',(4.521240057584E-11,1.068530765579E-08,
    -4.440892098501E-13));
#28 = DIRECTION('',(0.,0.,-1.));
#29 = DIRECTION('',(0.478643251872,0.878009474572,0.));
#30 = PCURVE('',#31,#36);
#31 = CYLINDRICAL_SURFACE('',#32,62.500001716142);
#32 = AXIS2_PLACEMENT_3D('',#33,#34,#35);
#33 = CARTESIAN_POINT('',(4.553839205615E-11,1.068614141664E-08,
    -1.440000010532E+03));
#34 = DIRECTION('',(0.,0.,1.));
#35 = DIRECTION('',(1.,0.,0.));
#36 = DEFINITIONAL_REPRESENTATION('',(#37),#40);
#37 = B_SPLINE_CURVE_WITH_KNOTS('',1,(#38,#39),.UNSPECIFIED.,.F.,.F.,(2,
    2),(0.,6.28318530718),.PIECEWISE_BEZIER_KNOTS.);
#38 = CARTESIAN_POINT('',(7.35487282813,1.440000010532E+03));
#39 = CARTESIAN_POINT('',(1.07168752095,1.440000010532E+03));
#40 = ( GEOMETRIC_REPRESENTATION_CONTEXT(2) 
PARAMETRIC_REPRESENTATION_CONTEXT() REPRESENTATION_CONTEXT('2D SPACE',''
  ) );
#41 = PCURVE('',#42,#47);
#42 = PLANE('',#43);
#43 = AXIS2_PLACEMENT_3D('',#44,#45,#46);
#44 = CARTESIAN_POINT('',(-125.0000009863,125.00000099703,
    -4.440892098501E-13));
#45 = DIRECTION('',(0.,0.,1.));
#46 = DIRECTION('',(1.,0.,0.));
#47 = DEFINITIONAL_REPRESENTATION('',(#48),#56);
#48 = ( BOUNDED_CURVE() B_SPLINE_CURVE(2,(#49,#50,#51,#52,#53,#54,#55),
.UNSPECIFIED.,.T.,.F.) B_SPLINE_CURVE_WITH_KNOTS((1,2,2,2,2,1),(
    -2.094395102393,0.,2.094395102393,4.188790204786,6.28318530718,
8.377580409573),.UNSPECIFIED.) CURVE() GEOMETRIC_REPRESENTATION_ITEM() 
RATIONAL_B_SPLINE_CURVE((1.,0.5,1.,0.5,1.,0.5,1.)) REPRESENTATION_ITEM(
  '') );
#49 = CARTESIAN_POINT('',(154.91520504975,-70.12440731882));
#50 = CARTESIAN_POINT('',(249.9625213774,-121.9390606754));
#51 = CARTESIAN_POINT('',(157.56605711848,-178.3451244984));
#52 = CARTESIAN_POINT('',(65.169592859561,-234.7511883213));
#53 = CARTESIAN_POINT('',(62.518740790827,-126.5304711418));
#54 = CARTESIAN_POINT('',(59.867888722094,-18.30975396223));
#55 = CARTESIAN_POINT('',(154.91520504975,-70.12440731882));
#56 = ( GEOMETRIC_REPRESENTATION_CONTEXT(2) 
PARAMETRIC_REPRESENTATION_CONTEXT() REPRESENTATION_CONTEXT('2D SPACE',''
  ) );
#57 = ORIENTED_EDGE('',*,*,#58,.F.);
#58 = EDGE_CURVE('',#59,#22,#61,.T.);
#59 = VERTEX_POINT('',#60);
#60 = CARTESIAN_POINT('',(29.915204063441,54.87559367821,
    -2.890000021595E+03));
#61 = SEAM_CURVE('',#62,(#65,#71),.PCURVE_S1.);
#62 = B_SPLINE_CURVE_WITH_KNOTS('',1,(#63,#64),.UNSPECIFIED.,.F.,.F.,(2,
    2),(0.,2.890000021595),.PIECEWISE_BEZIER_KNOTS.);
#63 = CARTESIAN_POINT('',(29.915204063441,54.87559367821,
    -2.890000021595E+03));
#64 = CARTESIAN_POINT('',(29.915204063441,54.875593678208,
    -4.440892098501E-13));
#65 = PCURVE('',#31,#66);
#66 = DEFINITIONAL_REPRESENTATION('',(#67),#70);
#67 = B_SPLINE_CURVE_WITH_KNOTS('',1,(#68,#69),.UNSPECIFIED.,.F.,.F.,(2,
    2),(0.,2.890000021595),.PIECEWISE_BEZIER_KNOTS.);
#68 = CARTESIAN_POINT('',(1.07168752095,-1.450000011063E+03));
#69 = CARTESIAN_POINT('',(1.07168752095,1.440000010532E+03));
#70 = ( GEOMETRIC_REPRESENTATION_CONTEXT(2) 
PARAMETRIC_REPRESENTATION_CONTEXT() REPRESENTATION_CONTEXT('2D SPACE',''
  ) );
#71 = PCURVE('',#31,#72);
#72 = DEFINITIONAL_REPRESENTATION('',(#73),#76);
#73 = B_SPLINE_CURVE_WITH_KNOTS('',1,(#74,#75),.UNSPECIFIED.,.F.,.F.,(2,
    2),(0.,2.890000021595),.PIECEWISE_BEZIER_KNOTS.);
#74 = CARTESIAN_POINT('',(7.35487282813,-1.450000011063E+03));
#75 = CARTESIAN_POINT('',(7.35487282813,1.440000010532E+03));
#76 = ( GEOMETRIC_REPRESENTATION_CONTEXT(2) 
PARAMETRIC_REPRESENTATION_CONTEXT() REPRESENTATION_CONTEXT('2D SPACE',''
  ) );
#77 = ORIENTED_EDGE('',*,*,#78,.T.);
#78 = EDGE_CURVE('',#59,#59,#79,.T.);
#79 = SURFACE_CURVE('',#80,(#85,#91),.PCURVE_S1.);
#80 = CIRCLE('',#81,62.500001716142);
#81 = AXIS2_PLACEMENT_3D('',#82,#83,#84);
#82 = CARTESIAN_POINT('',(4.587065103006E-11,1.068696617254E-08,
    -2.890000021595E+03));
#83 = DIRECTION('',(0.,-0.,1.));
#84 = DIRECTION('',(0.478643251872,0.878009474572,0.));
#85 = PCURVE('',#31,#86);
#86 = DEFINITIONAL_REPRESENTATION('',(#87),#90);
#87 = B_SPLINE_CURVE_WITH_KNOTS('',1,(#88,#89),.UNSPECIFIED.,.F.,.F.,(2,
    2),(0.,6.28318530718),.PIECEWISE_BEZIER_KNOTS.);
#88 = CARTESIAN_POINT('',(1.07168752095,-1.450000011063E+03));
#89 = CARTESIAN_POINT('',(7.35487282813,-1.450000011063E+03));
#90 = ( GEOMETRIC_REPRESENTATION_CONTEXT(2) 
PARAMETRIC_REPRESENTATION_CONTEXT() REPRESENTATION_CONTEXT('2D SPACE',''
  ) );
#91 = PCURVE('',#92,#97);
#92 = PLANE('',#93);
#93 = AXIS2_PLACEMENT_3D('',#94,#95,#96);
#94 = CARTESIAN_POINT('',(31.200487005205,-105.9884971529,
    -2.890000021595E+03));
#95 = DIRECTION('',(0.,0.,-1.));
#96 = DIRECTION('',(-1.,0.,0.));
#97 = DEFINITIONAL_REPRESENTATION('',(#98),#106);
#98 = ( BOUNDED_CURVE() B_SPLINE_CURVE(2,(#99,#100,#101,#102,#103,#104,
#105),.UNSPECIFIED.,.T.,.F.) B_SPLINE_CURVE_WITH_KNOTS((1,2,2,2,2,1),(
    -2.094395102393,0.,2.094395102393,4.188790204786,6.28318530718,
8.377580409573),.UNSPECIFIED.) CURVE() GEOMETRIC_REPRESENTATION_ITEM() 
RATIONAL_B_SPLINE_CURVE((1.,0.5,1.,0.5,1.,0.5,1.)) REPRESENTATION_ITEM(
  '') );
#99 = CARTESIAN_POINT('',(1.285282941764,160.86409083117));
#100 = CARTESIAN_POINT('',(96.332599269419,212.67874418776));
#101 = CARTESIAN_POINT('',(93.681747200685,104.45802700818));
#102 = CARTESIAN_POINT('',(91.030895131951,-3.762690171398));
#103 = CARTESIAN_POINT('',(-1.36556912697,52.643373651591));
#104 = CARTESIAN_POINT('',(-93.76203338589,109.04943747458));
#105 = CARTESIAN_POINT('',(1.285282941764,160.86409083117));
#106 = ( GEOMETRIC_REPRESENTATION_CONTEXT(2) 
PARAMETRIC_REPRESENTATION_CONTEXT() REPRESENTATION_CONTEXT('2D SPACE',''
  ) );
#107 = ORIENTED_EDGE('',*,*,#58,.T.);
#108 = ADVANCED_FACE('',(#109),#122,.F.);
#109 = FACE_BOUND('',#110,.F.);
#110 = EDGE_LOOP('',(#111,#138,#159,#160));
#111 = ORIENTED_EDGE('',*,*,#112,.F.);
#112 = EDGE_CURVE('',#113,#115,#117,.T.);
#113 = VERTEX_POINT('',#114);
#114 = CARTESIAN_POINT('',(27.350961451601,50.171820461952,
    -2.890000021595E+03));
#115 = VERTEX_POINT('',#116);
#116 = CARTESIAN_POINT('',(27.350961451601,50.17182046195,
    -4.440892098501E-13));
#117 = SEAM_CURVE('',#118,(#121,#132),.PCURVE_S1.);
#118 = B_SPLINE_CURVE_WITH_KNOTS('',1,(#119,#120),.UNSPECIFIED.,.F.,.F.,
  (2,2),(0.,2.890000021595),.PIECEWISE_BEZIER_KNOTS.);
#119 = CARTESIAN_POINT('',(27.350961451601,50.171820461952,
    -2.890000021595E+03));
#120 = CARTESIAN_POINT('',(27.350961451601,50.17182046195,
    -4.440892098501E-13));
#121 = PCURVE('',#122,#127);
#122 = CYLINDRICAL_SURFACE('',#123,57.142686843711);
#123 = AXIS2_PLACEMENT_3D('',#124,#125,#126);
#124 = CARTESIAN_POINT('',(4.57030753407E-11,1.06860488461E-08,
    -1.440000010532E+03));
#125 = DIRECTION('',(3.411762338634E-15,-1.859908198796E-15,-1.));
#126 = DIRECTION('',(-1.,0.,-3.411762338634E-15));
#127 = DEFINITIONAL_REPRESENTATION('',(#128),#131);
#128 = B_SPLINE_CURVE_WITH_KNOTS('',1,(#129,#130),.UNSPECIFIED.,.F.,.F.,
  (2,2),(0.,2.890000021595),.PIECEWISE_BEZIER_KNOTS.);
#129 = CARTESIAN_POINT('',(8.353090439819,1.450000011063E+03));
#130 = CARTESIAN_POINT('',(8.353090439819,-1.440000010532E+03));
#131 = ( GEOMETRIC_REPRESENTATION_CONTEXT(2) 
PARAMETRIC_REPRESENTATION_CONTEXT() REPRESENTATION_CONTEXT('2D SPACE',''
  ) );
#132 = PCURVE('',#122,#133);
#133 = DEFINITIONAL_REPRESENTATION('',(#134),#137);
#134 = B_SPLINE_CURVE_WITH_KNOTS('',1,(#135,#136),.UNSPECIFIED.,.F.,.F.,
  (2,2),(0.,2.890000021595),.PIECEWISE_BEZIER_KNOTS.);
#135 = CARTESIAN_POINT('',(2.06990513264,1.450000011063E+03));
#136 = CARTESIAN_POINT('',(2.06990513264,-1.440000010532E+03));
#137 = ( GEOMETRIC_REPRESENTATION_CONTEXT(2) 
PARAMETRIC_REPRESENTATION_CONTEXT() REPRESENTATION_CONTEXT('2D SPACE',''
  ) );
#138 = ORIENTED_EDGE('',*,*,#139,.F.);
#139 = EDGE_CURVE('',#113,#113,#140,.T.);
#140 = SURFACE_CURVE('',#141,(#146,#152),.PCURVE_S1.);
#141 = CIRCLE('',#142,57.142686843711);
#142 = AXIS2_PLACEMENT_3D('',#143,#144,#145);
#143 = CARTESIAN_POINT('',(4.656208305153E-11,1.068658924122E-08,
    -2.890000021595E+03));
#144 = DIRECTION('',(6.823524677267E-15,-3.719816397592E-15,-1.));
#145 = DIRECTION('',(0.478643251872,0.878009474572,-1.447559761081E-28)
  );
#146 = PCURVE('',#122,#147);
#147 = DEFINITIONAL_REPRESENTATION('',(#148),#151);
#148 = B_SPLINE_CURVE_WITH_KNOTS('',1,(#149,#150),.UNSPECIFIED.,.F.,.F.,
  (2,2),(0.,6.28318530718),.PIECEWISE_BEZIER_KNOTS.);
#149 = CARTESIAN_POINT('',(2.06990513264,1.450000011063E+03));
#150 = CARTESIAN_POINT('',(8.353090439819,1.450000011063E+03));
#151 = ( GEOMETRIC_REPRESENTATION_CONTEXT(2) 
PARAMETRIC_REPRESENTATION_CONTEXT() REPRESENTATION_CONTEXT('2D SPACE',''
  ) );
#152 = PCURVE('',#92,#153);
#153 = DEFINITIONAL_REPRESENTATION('',(#154),#158);
#154 = CIRCLE('',#155,57.142686843711);
#155 = AXIS2_PLACEMENT_2D('',#156,#157);
#156 = CARTESIAN_POINT('',(31.200487005159,105.98849716364));
#157 = DIRECTION('',(-0.478643251872,0.878009474572));
#158 = ( GEOMETRIC_REPRESENTATION_CONTEXT(2) 
PARAMETRIC_REPRESENTATION_CONTEXT() REPRESENTATION_CONTEXT('2D SPACE',''
  ) );
#159 = ORIENTED_EDGE('',*,*,#112,.T.);
#160 = ORIENTED_EDGE('',*,*,#161,.F.);
#161 = EDGE_CURVE('',#115,#115,#162,.T.);
#162 = SURFACE_CURVE('',#163,(#168,#174),.PCURVE_S1.);
#163 = CIRCLE('',#164,57.142686843711);
#164 = AXIS2_PLACEMENT_3D('',#165,#166,#167);
#165 = CARTESIAN_POINT('',(4.558553138575E-11,1.068510284801E-08,
    -4.440892098501E-13));
#166 = DIRECTION('',(0.,-0.,1.));
#167 = DIRECTION('',(0.478643251872,0.878009474572,0.));
#168 = PCURVE('',#122,#169);
#169 = DEFINITIONAL_REPRESENTATION('',(#170),#173);
#170 = B_SPLINE_CURVE_WITH_KNOTS('',1,(#171,#172),.UNSPECIFIED.,.F.,.F.,
  (2,2),(0.,6.28318530718),.PIECEWISE_BEZIER_KNOTS.);
#171 = CARTESIAN_POINT('',(8.353090439819,-1.440000010532E+03));
#172 = CARTESIAN_POINT('',(2.06990513264,-1.440000010532E+03));
#173 = ( GEOMETRIC_REPRESENTATION_CONTEXT(2) 
PARAMETRIC_REPRESENTATION_CONTEXT() REPRESENTATION_CONTEXT('2D SPACE',''
  ) );
#174 = PCURVE('',#42,#175);
#175 = DEFINITIONAL_REPRESENTATION('',(#176),#180);
#176 = CIRCLE('',#177,57.142686843711);
#177 = AXIS2_PLACEMENT_2D('',#178,#179);
#178 = CARTESIAN_POINT('',(125.00000098635,-125.0000009863));
#179 = DIRECTION('',(0.478643251872,0.878009474572));
#180 = ( GEOMETRIC_REPRESENTATION_CONTEXT(2) 
PARAMETRIC_REPRESENTATION_CONTEXT() REPRESENTATION_CONTEXT('2D SPACE',''
  ) );
#181 = ADVANCED_FACE('',(#182,#185),#92,.T.);
#182 = FACE_BOUND('',#183,.T.);
#183 = EDGE_LOOP('',(#184));
#184 = ORIENTED_EDGE('',*,*,#78,.F.);
#185 = FACE_BOUND('',#186,.T.);
#186 = EDGE_LOOP('',(#187));
#187 = ORIENTED_EDGE('',*,*,#139,.F.);
#188 = ADVANCED_FACE('',(#189,#192),#42,.T.);
#189 = FACE_BOUND('',#190,.T.);
#190 = EDGE_LOOP('',(#191));
#191 = ORIENTED_EDGE('',*,*,#21,.F.);
#192 = FACE_BOUND('',#193,.T.);
#193 = EDGE_LOOP('',(#194));
#194 = ORIENTED_EDGE('',*,*,#161,.F.);
#195 = ( GEOMETRIC_REPRESENTATION_CONTEXT(3) 
GLOBAL_UNCERTAINTY_ASSIGNED_CONTEXT((#199)) GLOBAL_UNIT_ASSIGNED_CONTEXT
((#196,#197,#198)) REPRESENTATION_CONTEXT('Context #1',
  '3D Context with UNIT and UNCERTAINTY') );
#196 = ( LENGTH_UNIT() NAMED_UNIT(*) SI_UNIT(.MILLI.,.METRE.) );
#197 = ( NAMED_UNIT(*) PLANE_ANGLE_UNIT() SI_UNIT($,.RADIAN.) );
#198 = ( NAMED_UNIT(*) SI_UNIT($,.STERADIAN.) SOLID_ANGLE_UNIT() );
#199 = UNCERTAINTY_MEASURE_WITH_UNIT(LENGTH_MEASURE(1.E-04),#196,
  'distance_accuracy_value','confusion accuracy');
#200 = PRODUCT_RELATED_PRODUCT_CATEGORY('part',$,(#7));
ENDSEC;
END-ISO-10303-21;
