# Rhino

mtllib schoring_vertical_body_end_0.mtl
usemtl Default
v -55.000881195068359 -55.000000000000142 -6.0000000000001137
v -55.000881195068359 55 -6.0000000000001137
v 55.000000000000028 55 -6.0000000000001137
v 55.000000000000028 -55.000000000000142 -6.0000000000001137
v -55.000881195068359 55 -6.0000000000001137
v -55.000881195068359 55 0
v 55.000000000000028 55 0
v 55.000000000000028 55 -6.0000000000001137
v -55.000881195068359 55 0
v -55.000881195068359 -55.000000000000142 0
v 55.000000000000028 -55.000000000000142 0
v 55.000000000000028 55 0
v -55.000881195068359 -55.000000000000142 0
v -55.000881195068359 -55.000000000000142 -6.0000000000001137
v 55.000000000000028 -55.000000000000142 -6.0000000000001137
v 55.000000000000028 -55.000000000000142 0
v -55.000881195068359 -55.000000000000142 -6.0000000000001137
v -55.000881195068359 -55.000000000000142 0
v -55.000881195068359 55 0
v -55.000881195068359 55 -6.0000000000001137
v 55.000000000000028 -55.000000000000142 -6.0000000000001137
v 55.000000000000028 55 -6.0000000000001137
v 55.000000000000028 55 0
v 55.000000000000028 -55.000000000000142 0
v -24.40000000000007 -24.400000000000102 -915.00000000000011
v 24.399999999999999 -24.400000000000102 -915.00000000000011
v 24.399999999999999 -24.400000000000102 -5.9999999999998863
v -24.40000000000007 -24.400000000000102 -5.9999999999998863
v 24.399999999999999 -24.400000000000102 -915.00000000000011
v 24.399999999999999 24.399999999999967 -915.00000000000011
v 24.399999999999999 24.399999999999967 -5.9999999999998863
v 24.399999999999999 -24.400000000000102 -5.9999999999998863
v 24.399999999999999 24.399999999999967 -915.00000000000011
v -24.40000000000007 24.399999999999967 -915.00000000000011
v -24.40000000000007 24.399999999999967 -5.9999999999998863
v 24.399999999999999 24.399999999999967 -5.9999999999998863
v -24.40000000000007 24.399999999999967 -915.00000000000011
v -24.40000000000007 -24.400000000000102 -915.00000000000011
v -24.40000000000007 -24.400000000000102 -5.9999999999998863
v -24.40000000000007 24.399999999999967 -5.9999999999998863
v -24.40000000000007 -24.400000000000102 -915.00000000000011
v -24.40000000000007 24.399999999999967 -915.00000000000011
v 24.399999999999999 24.399999999999967 -915.00000000000011
v 24.399999999999999 -24.400000000000102 -915.00000000000011
v -24.40000000000007 -24.400000000000102 -5.9999999999998863
v 24.399999999999999 -24.400000000000102 -5.9999999999998863
v 24.399999999999999 24.399999999999967 -5.9999999999998863
v -24.40000000000007 24.399999999999967 -5.9999999999998863
f 1 2 3 4
f 5 6 7 8
f 9 10 11 12
f 13 14 15 16
f 17 18 19 20
f 21 22 23 24
f 25 26 27 28
f 29 30 31 32
f 33 34 35 36
f 37 38 39 40
f 41 42 43 44
f 45 46 47 48
