# Rhino

mtllib schoring_vertical_body_end_3.mtl
usemtl Default
v -60.226325988769531 -60.000000000911754 -8.0000000000009095
v -60.226325988769531 60.000000000000014 -8.0000000000009095
v 59.774555206298828 60.000000000000014 -8.0000000000009095
v 59.774555206298828 -60.000000000911754 -8.0000000000009095
v -60.226325988769531 60.000000000000014 -8.0000000000009095
v -60.226325988769531 60.000000000000014 0
v 59.774555206298828 60.000000000000014 0
v 59.774555206298828 60.000000000000014 -8.0000000000009095
v -60.226325988769531 60.000000000000014 0
v -60.226325988769531 -60.000000000911754 0
v 59.774555206298828 -60.000000000911754 0
v 59.774555206298828 60.000000000000014 0
v -60.226325988769531 -60.000000000911754 0
v -60.226325988769531 -60.000000000911754 -8.0000000000009095
v 59.774555206298828 -60.000000000911754 -8.0000000000009095
v 59.774555206298828 -60.000000000911754 0
v -60.226325988769531 -60.000000000911754 -8.0000000000009095
v -60.226325988769531 -60.000000000911754 0
v -60.226325988769531 60.000000000000014 0
v -60.226325988769531 60.000000000000014 -8.0000000000009095
v 59.774555206298828 -60.000000000911754 -8.0000000000009095
v 59.774555206298828 60.000000000000014 -8.0000000000009095
v 59.774555206298828 60.000000000000014 0
v 59.774555206298828 -60.000000000911754 0
v -29.726325988769531 -29.500000000911761 -1955.0000000000002
v 29.274553646027933 -29.500000000911761 -1955.0000000000002
v 29.274553646027933 -29.500000000911761 -7.9999999999986358
v -29.726325988769531 -29.500000000911761 -7.9999999999986358
v 29.274553646027933 -29.500000000911761 -1955.0000000000002
v 29.274553646027933 29.500000000000014 -1955.0000000000002
v 29.274553646027933 29.500000000000014 -7.9999999999986358
v 29.274553646027933 -29.500000000911761 -7.9999999999986358
v 29.274553646027933 29.500000000000014 -1955.0000000000002
v -29.726325988769531 29.500000000000014 -1955.0000000000002
v -29.726325988769531 29.500000000000014 -7.9999999999986358
v 29.274553646027933 29.500000000000014 -7.9999999999986358
v -29.726325988769531 29.500000000000014 -1955.0000000000002
v -29.726325988769531 -29.500000000911761 -1955.0000000000002
v -29.726325988769531 -29.500000000911761 -7.9999999999986358
v -29.726325988769531 29.500000000000014 -7.9999999999986358
v -29.726325988769531 -29.500000000911761 -1955.0000000000002
v -29.726325988769531 29.500000000000014 -1955.0000000000002
v 29.274553646027933 29.500000000000014 -1955.0000000000002
v 29.274553646027933 -29.500000000911761 -1955.0000000000002
v -29.726325988769531 -29.500000000911761 -7.9999999999986358
v 29.274553646027933 -29.500000000911761 -7.9999999999986358
v 29.274553646027933 29.500000000000014 -7.9999999999986358
v -29.726325988769531 29.500000000000014 -7.9999999999986358
f 1 2 3 4
f 5 6 7 8
f 9 10 11 12
f 13 14 15 16
f 17 18 19 20
f 21 22 23 24
f 25 26 27 28
f 29 30 31 32
f 33 34 35 36
f 37 38 39 40
f 41 42 43 44
f 45 46 47 48
