# Rhino

mtllib schoring_vertical_body_start_5.mtl
usemtl Default
v -70.000877380371094 -70.000000000000028 0
v -70.000877380371094 70 0
v 70 70 0
v 70 -70.000000000000028 0
v -70.000877380371094 70 0
v -70.000877380371094 70 8
v 70 70 8
v 70 70 0
v -70.000877380371094 70 8
v -70.000877380371094 -70.000000000000028 8
v 70 -70.000000000000028 8
v 70 70 8
v -70.000877380371094 -70.000000000000028 8
v -70.000877380371094 -70.000000000000028 0
v 70 -70.000000000000028 0
v 70 -70.000000000000028 8
v -70.000877380371094 -70.000000000000028 0
v -70.000877380371094 -70.000000000000028 8
v -70.000877380371094 70 8
v -70.000877380371094 70 0
v 70 -70.000000000000028 0
v 70 70 0
v 70 70 8
v 70 -70.000000000000028 8
v -44.600000000000364 -44.60009765625 8
v 44.600681304931641 -44.60009765625 8
v 44.600681304931641 -44.60009765625 2864.0000000000005
v -44.600000000000364 -44.60009765625 2864.0000000000005
v 44.600681304931641 -44.60009765625 8
v 44.600681304931641 44.60009765625 8
v 44.600681304931641 44.60009765625 2864.0000000000005
v 44.600681304931641 -44.60009765625 2864.0000000000005
v 44.600681304931641 44.60009765625 8
v -44.600000000000364 44.60009765625 8
v -44.600000000000364 44.60009765625 2864.0000000000005
v 44.600681304931641 44.60009765625 2864.0000000000005
v -44.600000000000364 44.60009765625 8
v -44.600000000000364 -44.60009765625 8
v -44.600000000000364 -44.60009765625 2864.0000000000005
v -44.600000000000364 44.60009765625 2864.0000000000005
v -44.600000000000364 -44.60009765625 8
v -44.600000000000364 44.60009765625 8
v 44.600681304931641 44.60009765625 8
v 44.600681304931641 -44.60009765625 8
v -44.600000000000364 -44.60009765625 2864.0000000000005
v 44.600681304931641 -44.60009765625 2864.0000000000005
v 44.600681304931641 44.60009765625 2864.0000000000005
v -44.600000000000364 44.60009765625 2864.0000000000005
f 1 2 3 4
f 5 6 7 8
f 9 10 11 12
f 13 14 15 16
f 17 18 19 20
f 21 22 23 24
f 25 26 27 28
f 29 30 31 32
f 33 34 35 36
f 37 38 39 40
f 41 42 43 44
f 45 46 47 48
