# Rhino

mtllib beam_column_head_connection_180413_Sherpa_XL120_8x160_3D.mtl
usemtl Default
v -20 60 410
v 0 60 410
v -20 -60 410
v 0 -60 410
v -20 -60 410
v 0 -60 410
v -20 -60 0
v 0 -60 0
v -20 -60 0
v 0 -60 0
v -20 60 0
v 0 60 0
v -20 60 0
v 0 60 0
v -20 60 410
v 0 60 410
v -20 60 410
v -20 -60 410
v -20 -60 0
v -20 60 0
v 0 60 410
v 0 -60 410
v 0 -60 0
v 0 60 0
vt 0 0
vt 0 0.53846126794815063
vt 0.11320754885673523 0
vt 0.11320754885673523 0.53846126794815063
vt 0.11320754885673523 0
vt 0.11320754885673523 0.53846126794815063
vt 0.5 0
vt 0.5 0.53846126794815063
vt 0.5 0
vt 0.5 0.53846126794815063
vt 0.61320751905441284 0
vt 0.61320751905441284 0.53846126794815063
vt 0.61320751905441284 0
vt 0.61320751905441284 0.53846126794815063
vt 1 0
vt 1 0.53846126794815063
vt 0.38679245114326477 1
vt 0.38679245114326477 0.53846180438995361
vt 0 0.53846180438995361
vt 0 1
vt 1 0.53846180438995361
vt 1 1
vt 0.61320751905441284 1
vt 0.61320751905441284 0.53846180438995361
vn 0 0 1
vn 0 0 1
vn 0 0 1
vn 0 0 1
vn 0 -1 0
vn 0 -1 0
vn 0 -1 0
vn 0 -1 0
vn 0 0 -1
vn 0 0 -1
vn 0 0 -1
vn 0 0 -1
vn 0 1 0
vn 0 1 0
vn 0 1 0
vn 0 1 0
vn -1 0 0
vn -1 0 0
vn -1 0 0
vn -1 0 0
vn 1 0 0
vn 1 0 0
vn 1 0 0
vn 1 0 0
f 1/1/1 3/3/3 4/4/4 2/2/2
f 5/5/5 7/7/7 8/8/8 6/6/6
f 9/9/9 11/11/11 12/12/12 10/10/10
f 13/13/13 15/15/15 16/16/16 14/14/14
f 18/18/18 17/17/17 20/20/20
f 20/20/20 19/19/19 18/18/18
f 22/22/22 24/24/24 21/21/21
f 24/24/24 22/22/22 23/23/23
