ply
format ascii 1.0
comment File exported by Rhinoceros Version 8
element vertex 140
property float x
property float y
property float z
property float nx
property float ny
property float nz
property uchar red
property uchar green
property uchar blue
element face 292
property list uchar uint vertex_indices
end_header
70 70 0 0.38268343 0.6532815 -0.6532815 250 250 250
70 -70 0 0.6532815 -0.38268343 -0.6532815 250 250 250
-70 -70 11.999984741210938 -0.6532815 -0.38268343 0.6532815 250 250 250
-70 -70 0 -0.55557024 -0.5879378 -0.5879378 250 250 250
-70 70 11.999984741210938 -0.5 0.70710677 0.5 250 250 250
-70 70 0 -0.70710677 0 -0.70710677 250 250 250
70 70 11.999984741210938 0.70710677 0.5 0.5 250 250 250
70 -70 11.999984741210938 0.5 -0.70710677 0.5 250 250 250
59.5 -52 11.999984741210938 -0.8985425 0.08900751 0.42976624 250 250 250
55.75 -58.49519348144531 11.999984741210938 9.043733E-14 0.70710677 0.70710677 250 250 250
48.25 -58.49519348144531 11.999984741210938 0.61237246 0.35355338 0.70710677 250 250 250
-48.25 -58.49519348144531 11.999984741210938 -0.3721885 0.8226644 0.42976624 250 250 250
-44.5 -52 11.999984741210938 -0.8985425 -0.08900751 0.42976624 250 250 250
-59.5 -52 11.999984741210938 0.8985425 -0.08900751 0.42976624 250 250 250
-55.75 -58.49519348144531 11.999984741210938 0.27568275 0.7546132 0.59544766 250 250 250
-48.25 -45.50480651855469 11.999984741210938 -0.3721885 -0.8226644 0.42976624 250 250 250
48.25 58.49519348144531 11.999984741210938 0.3721885 -0.8226644 0.42976624 250 250 250
44.5 52 11.999984741210938 0.8985425 0.08900751 0.42976624 250 250 250
59.5 52 11.999984741210938 -0.8985425 0.08900751 0.42976624 250 250 250
55.75 58.49519348144531 11.999984741210938 -0.61237246 -0.35355338 0.70710677 250 250 250
55.75 45.50480651855469 11.999984741210938 -0.3721885 0.8226644 0.42976624 250 250 250
48.25 45.50480651855469 11.999984741210938 0.3721885 0.8226644 0.42976624 250 250 250
-44.5 52 11.999984741210938 -0.8985425 0.08900751 0.42976624 250 250 250
-59.5 52 11.999984741210938 0.8985425 -0.08900751 0.42976624 250 250 250
-55.75 45.50480651855469 11.999984741210938 0.27568275 0.7546132 0.59544766 250 250 250
-55.75 58.49519348144531 11.999984741210938 0.3721885 -0.8226644 0.42976624 250 250 250
-48.25 58.49519348144531 11.999984741210938 -0.61237246 -0.35355338 0.70710677 250 250 250
10.499999046325684 -18.186538696289062 11.999984741210938 0.3721885 -0.8226644 0.42976624 250 250 250
21 0 11.999984741210938 0.8985425 0.08900751 0.42976624 250 250 250
-21 0 11.999984741210938 -0.8985425 0.08900751 0.42976624 250 250 250
10.499999046325684 18.1865234375 11.999984741210938 0.3721885 0.8226644 0.42976624 250 250 250
59.5 -52 0 -0.70710677 0 -0.70710677 250 250 250
55.75 -58.49519348144531 0 -0.35355338 0.61237246 -0.70710677 250 250 250
48.25 -58.49519348144531 0 0.35355338 0.61237246 -0.70710677 250 250 250
-48.25 -58.49519348144531 0 -0.35355338 0.61237246 -0.70710677 250 250 250
-59.5 -52 0 0.70710677 0 -0.70710677 250 250 250
-55.75 -58.49519348144531 0 0.35355338 0.61237246 -0.70710677 250 250 250
48.25 58.49519348144531 0 0.35355338 -0.61237246 -0.70710677 250 250 250
59.5 52 0 -0.70710677 0 -0.70710677 250 250 250
55.75 58.49519348144531 0 -0.35355338 -0.61237246 -0.70710677 250 250 250
-59.5 52 0 0.70710677 0 -0.70710677 250 250 250
-55.75 58.49519348144531 0 0.35355338 -0.61237246 -0.70710677 250 250 250
-48.25 58.49519348144531 0 -0.35355338 -0.61237246 -0.70710677 250 250 250
44.5 -52 11.999984741210938 0.8985425 0.08900751 0.42976624 250 250 250
44.5 -52 0 0.61237246 -0.35355338 -0.70710677 250 250 250
48.25 -45.50480651855469 11.999984741210938 0.35355338 -0.61237246 0.70710677 250 250 250
48.25 -45.50480651855469 0 0.35355338 -0.61237246 -0.70710677 250 250 250
55.75 -45.50480651855469 11.999984741210938 -0.27568275 -0.7546132 0.59544766 250 250 250
55.75 -45.50480651855469 0 -0.35355338 -0.61237246 -0.70710677 250 250 250
-55.75 -45.50480651855469 11.999984741210938 0.51567286 -0.6160549 0.59544766 250 250 250
-55.75 -45.50480651855469 0 0.35355338 -0.61237246 -0.70710677 250 250 250
-48.25 -45.50480651855469 0 -0.61237246 -0.35355338 -0.70710677 250 250 250
-44.5 -52 0 -0.70710677 0 -0.70710677 250 250 250
44.5 52 0 0.61237246 -0.35355338 -0.70710677 250 250 250
55.75 45.50480651855469 0 -0.35355338 0.61237246 -0.70710677 250 250 250
48.25 45.50480651855469 0 0.61237246 0.35355338 -0.70710677 250 250 250
-48.25 45.50480651855469 11.999984741210938 -0.35355338 0.61237246 0.70710677 250 250 250
-48.25 45.50480651855469 0 -0.35355338 0.61237246 -0.70710677 250 250 250
-55.75 45.50480651855469 0 0.35355338 0.61237246 -0.70710677 250 250 250
-44.5 52 0 -0.70710677 0 -0.70710677 250 250 250
21.253326416015625 -36.918426513671875 290.5516357421875 -0.48038214 0.636879 0.60300756 250 250 250
25.253334045410156 -36.918426513671875 290.5516357421875 0.5222364 0.29167235 0.8013716 250 250 250
27.253326416015625 -40.05796813964844 289.08758544921875 0.64952284 -0.4302559 0.6268971 250 250 250
21.253318786621094 -43.197509765625 287.6236267089844 -0.26111355 -0.9380048 0.22796202 250 250 250
19.253318786621094 -40.05796813964844 289.087646484375 -0.649516 -0.4302553 0.6269046 250 250 250
19.252761840820312 24.800140380859375 149.99998474121094 -0.5228608 0.09119698 0.8475256 250 250 250
21.252769470214844 20.9779052734375 149.99998474121094 -0.4298265 -0.4498186 0.7828872 250 250 250
21.252769470214844 28.622360229492188 149.99998474121094 -0.21784624 0.3419704 0.9141112 250 250 250
25.252769470214844 28.622344970703125 149.99998474121094 0.22194047 0.58065695 0.7833134 250 250 250
27.252777099609375 24.800125122070312 149.99998474121094 0.6252211 0.10904987 0.7727915 250 250 250
25.253318786621094 -43.197509765625 287.62359619140625 0.43301383 -0.8910401 0.13618578 250 250 250
25.252769470214844 20.9779052734375 149.99998474121094 0.4732861 -0.7429526 0.47330937 250 250 250
-42.598941802978516 0.0532989501953125 290.5516357421875 0.7917446 0.09758421 0.6030073 250 250 250
-44.598941802978516 -3.410797119140625 290.5516357421875 -0.00852284 -0.59810627 0.80137146 250 250 250
-48.31786346435547 -3.5730743408203125 289.08758544921875 -0.6973737 -0.34737572 0.62689716 250 250 250
-48.036781311035156 3.1928558349609375 287.6236267089844 -0.6817794 0.6951332 0.22796196 250 250 250
-44.3178596496582 3.355133056640625 289.087646484375 -0.047853503 0.7776248 0.62690485 250 250 250
14.161322593688965 -32.71659851074219 149.99998474121094 0.40507847 0.017676065 0.914111 250 250 250
12.161314964294434 -36.18070983886719 149.99998474121094 0.39189342 -0.4825343 0.78331363 250 250 250
7.851168632507324 -36.00164794921875 149.99998474121094 -0.21817072 -0.5959824 0.7727914 250 250 250
-50.036781311035156 -0.2712554931640625 287.62359619140625 -0.9881704 0.07051815 0.13618568 250 250 250
21.345657348632812 36.86512756347656 290.5516357421875 -0.31136158 -0.7344631 0.6030074 250 250 250
19.34564971923828 40.32923126220703 290.5516357421875 -0.5137138 0.3064338 0.80137163 250 250 250
21.0645751953125 43.63105010986328 289.08758544921875 0.04785189 0.7776313 0.6268969 250 250 250
26.78350067138672 40.00465393066406 287.6236267089844 0.94289285 0.24287152 0.22796172 250 250 250
25.06458282470703 36.70283508300781 289.087646484375 0.69737023 -0.3473691 0.62690467 250 250 250
-35.4140510559082 4.09423828125 149.99998474121094 -0.18723123 -0.35964602 0.91411114 250 250 250
-37.41404724121094 7.558349609375 149.99998474121094 -0.61383367 -0.09812292 0.7833136 250 250 250
-35.103904724121094 11.201522827148438 149.99998474121094 -0.40705028 0.48693246 0.77279156 250 250 250
24.78350067138672 43.46875762939453 287.62359619140625 0.5551571 0.82052064 0.13618533 250 250 250
53 0 137.99998474121094 0.54173636 -0.104257196 -0.8340576 250 250 250
26.50000762939453 -45.89933776855469 137.99998474121094 0.2611165 -0.75377834 -0.6030227 250 250 250
-26.499980926513672 -45.89933776855469 137.99998474121094 -0.4330127 -0.5 -0.75 250 250 250
-52.999977111816406 0 137.99998474121094 -0.5417363 0.10425721 -0.8340577 250 250 250
-26.499980926513672 45.89933776855469 137.99998474121094 -0.21650635 0.625 -0.75 250 250 250
26.50000762939453 45.89933776855469 137.99998474121094 0.522233 0.6030227 -0.6030227 250 250 250
11.851187705993652 -29.073440551757812 149.99998474121094 0.3404094 0.40721223 0.8475256 250 250 250
7.541041374206543 -28.894378662109375 149.99998474121094 -0.17464073 0.59714997 0.7828873 250 250 250
5.541033744812012 -32.358489990234375 149.99998474121094 -0.8800587 -0.03840216 0.47330952 250 250 250
-31.103912353515625 4.2733001708984375 149.99998474121094 0.18245178 -0.49840912 0.84752566 250 250 250
-28.79376983642578 7.916473388671875 149.99998474121094 0.6044678 -0.14733103 0.7828871 250 250 250
-30.793766021728516 11.380569458007812 149.99998474121094 0.40677345 0.7813539 0.47330904 250 250 250
53 0 149.99998474121094 0.45927936 0.08838834 0.8838835 250 250 250
26.50000762939453 -45.89933776855469 149.99998474121094 0.36115757 -0.4170288 0.8340576 250 250 250
-26.499980926513672 -45.89933776855469 149.99998474121094 -0.1530931 -0.44194174 0.8838835 250 250 250
-52.999977111816406 0 149.99998474121094 -0.5417363 -0.10425721 0.8340577 250 250 250
-26.499980926513672 45.89933776855469 149.99998474121094 -0.3061862 0.35355338 0.8838835 250 250 250
26.50000762939453 45.89933776855469 149.99998474121094 0.18057878 0.521286 0.8340576 250 250 250
31.75 0 137.99998474121094 0.7833494 0.15075582 -0.60302275 250 250 250
15.874999046325684 27.496292114257812 137.99998474121094 0.18057875 0.5212861 -0.8340576 250 250 250
-15.87499713897705 27.496292114257812 137.99998474121094 -0.43301263 0.5000001 -0.74999994 250 250 250
-31.749996185302734 0 137.99998474121094 -0.78334945 -0.1507556 -0.6030227 250 250 250
-15.87499713897705 -27.496307373046875 137.99998474121094 -0.21650636 -0.625 -0.75 250 250 250
15.874999046325684 -27.496307373046875 137.99998474121094 0.36115757 -0.4170288 -0.8340576 250 250 250
15.874999046325684 27.496292114257812 107.99998474121094 0.43301263 0.5000001 -0.75 250 250 250
-15.87499713897705 27.496292114257812 107.99998474121094 -0.26111645 0.7537784 -0.60302263 250 250 250
-31.749996185302734 0 107.99998474121094 -0.5417363 0.104257286 -0.8340577 250 250 250
-15.87499713897705 -27.496307373046875 107.99998474121094 -0.43301272 -0.5 -0.75 250 250 250
15.874999046325684 -27.496307373046875 107.99998474121094 0.26111647 -0.75377834 -0.6030227 250 250 250
31.75 0 107.99998474121094 0.5417363 -0.10425716 -0.8340577 250 250 250
14.999999046325684 0 107.99998474121094 0.7833494 0.1507559 -0.6030227 250 250 250
7.499999046325684 -12.990386962890625 107.99998474121094 0.3273269 -0.5669466 -0.755929 250 250 250
-7.499997138977051 -12.990386962890625 107.99998474121094 -0.25000003 -0.43301263 -0.86602545 250 250 250
-14.99999713897705 0 107.99998474121094 -0.7833495 -0.15075548 -0.6030227 250 250 250
-7.499997138977051 12.990371704101562 107.99998474121094 -0.3611575 0.4170289 -0.8340576 250 250 250
7.499999046325684 12.990371704101562 107.99998474121094 0.21650632 0.62500006 -0.75 250 250 250
14.999999046325684 0 63.999977111816406 0.7833495 -0.15075548 0.6030227 250 250 250
-14.99999713897705 0 63.999977111816406 -0.7833494 0.1507559 0.6030227 250 250 250
7.499999046325684 12.990371704101562 63.999977111816406 0.3611575 0.4170289 0.8340576 250 250 250
10.499999046325684 -18.186538696289062 63.999977111816406 0.35355338 -0.61237246 0.70710677 250 250 250
-10.49999713897705 -18.186538696289062 63.999977111816406 -0.35355338 -0.61237246 0.70710677 250 250 250
-10.49999713897705 -18.186538696289062 11.999984741210938 -0.27568275 -0.7546132 0.59544766 250 250 250
-21 0 63.999977111816406 -0.70710677 0 0.70710677 250 250 250
-10.49999713897705 18.1865234375 63.999977111816406 -0.35355338 0.61237246 0.70710677 250 250 250
-10.49999713897705 18.1865234375 11.999984741210938 -0.51567286 0.6160549 0.59544766 250 250 250
10.499999046325684 18.1865234375 63.999977111816406 0.35355338 0.61237246 0.70710677 250 250 250
21 0 63.999977111816406 0.70710677 0 0.70710677 250 250 250
-7.499997138977051 -12.990386962890625 63.999977111816406 -0.3273269 -0.5669466 0.755929 250 250 250
7.499999046325684 -12.990386962890625 63.999977111816406 0.25000003 -0.43301263 0.86602545 250 250 250
-7.499997138977051 12.990371704101562 63.999977111816406 -0.21650632 0.62500006 0.75 250 250 250
3 5 4 6
3 0 6 7
3 1 7 2
3 3 2 4
3 23 25 4
3 26 4 25
3 2 13 23
3 24 23 13
3 22 134 17
3 29 56 24
3 22 56 134
3 26 22 16
3 4 26 16
3 134 56 29
3 11 14 2
3 13 2 14
3 15 131 29
3 131 15 12
3 12 11 10
3 43 131 12
3 49 15 29
3 29 24 49
3 11 2 10
3 21 30 28
3 17 30 21
3 18 6 19
3 16 19 6
3 18 20 47
3 6 18 8
3 20 21 28
3 45 27 43
3 28 27 45
3 27 131 43
3 28 45 47
3 7 8 9
3 10 7 9
3 47 20 28
3 3 5 40
3 41 40 5
3 58 50 35
3 5 42 41
3 51 57 55
3 42 37 59
3 5 0 37
3 57 51 50
3 36 3 35
3 51 46 52
3 3 36 34
3 52 44 33
3 34 33 3
3 59 53 55
3 38 39 0
3 37 0 39
3 38 31 48
3 0 1 31
3 54 48 46
3 33 32 1
3 31 1 32
3 44 46 45
3 46 48 47
3 48 31 8
3 31 32 9
3 32 33 10
3 33 44 43
3 52 34 11
3 34 36 14
3 36 35 13
3 35 50 49
3 50 51 15
3 51 52 12
3 53 37 16
3 37 39 19
3 39 38 18
3 38 54 20
3 54 55 21
3 55 53 17
3 59 57 56
3 57 58 24
3 58 40 23
3 40 41 25
3 41 42 26
3 42 59 22
3 62 64 63
3 60 64 61
3 70 62 63
3 61 64 62
3 66 63 64
3 65 64 60
3 67 60 68
3 68 61 69
3 69 62 71
3 71 70 63
3 74 76 75
3 72 76 73
3 80 74 75
3 73 76 74
3 97 75 76
3 96 76 72
3 77 72 78
3 78 73 79
3 79 74 98
3 98 80 75
3 83 85 84
3 81 85 82
3 89 83 84
3 82 85 83
3 100 84 85
3 99 85 81
3 86 81 87
3 87 82 88
3 88 83 101
3 101 89 84
3 90 102 103
3 91 103 104
3 92 104 105
3 93 105 106
3 94 106 107
3 95 107 102
3 96 102 71
3 103 102 77
3 69 71 102
3 103 77 78
3 102 96 77
3 78 79 103
3 66 96 71
3 107 68 69
3 67 68 107
3 102 107 69
3 66 65 100
3 106 67 107
3 65 67 106
3 97 96 66
3 104 79 98
3 98 97 99
3 86 105 104
3 87 105 86
3 99 104 98
3 104 103 79
3 104 99 86
3 106 101 65
3 101 100 65
3 88 101 106
3 88 105 87
3 99 97 100
3 106 105 88
3 97 66 100
3 91 113 90
3 108 90 113
3 92 113 91
3 95 90 109
3 108 109 90
3 94 95 109
3 93 111 112
3 113 92 112
3 92 93 112
3 94 110 93
3 111 93 110
3 109 110 94
3 108 119 114
3 109 114 115
3 110 115 116
3 111 116 117
3 112 117 118
3 113 118 119
3 122 117 116
3 121 117 122
3 123 122 116
3 115 124 116
3 123 116 124
3 114 124 115
3 119 121 120
3 117 121 118
3 118 121 119
3 114 119 125
3 120 125 119
3 124 114 125
3 126 120 121
3 137 122 123
3 127 123 124
3 128 125 120
3 28 136 129
3 27 129 130
3 131 130 132
3 29 132 133
3 134 133 135
3 30 135 136
3 138 129 136
3 137 129 138
3 126 138 136
3 136 135 128
3 133 128 135
3 126 136 128
3 132 137 127
3 129 137 130
3 130 137 132
3 133 132 139
3 127 139 132
3 128 133 139
3 137 121 122
3 121 137 138
3 125 139 124
3 139 125 128
3 5 6 0
3 0 7 1
3 1 2 3
3 3 4 5
3 2 23 4
3 24 13 49
3 134 30 17
3 22 17 16
3 4 16 6
3 12 10 43
3 2 7 10
3 18 47 8
3 6 8 7
3 3 40 35
3 58 35 40
3 51 55 46
3 37 53 59
3 5 37 42
3 57 50 58
3 46 44 52
3 52 33 34
3 33 1 3
3 59 55 57
3 38 48 54
3 0 31 38
3 54 46 55
3 44 45 43
3 46 47 45
3 48 8 47
3 31 9 8
3 32 10 9
3 33 43 10
3 52 11 12
3 34 14 11
3 36 13 14
3 35 49 13
3 50 15 49
3 51 12 15
3 53 16 17
3 37 19 16
3 39 18 19
3 38 20 18
3 54 21 20
3 55 17 21
3 59 56 22
3 57 24 56
3 58 23 24
3 40 25 23
3 41 26 25
3 42 22 26
3 66 64 65
3 65 60 67
3 60 61 68
3 61 62 69
3 62 70 71
3 71 63 66
3 97 76 96
3 96 72 77
3 72 73 78
3 73 74 79
3 74 80 98
3 98 75 97
3 100 85 99
3 99 81 86
3 81 82 87
3 82 83 88
3 83 89 101
3 101 84 100
3 90 103 91
3 91 104 92
3 92 105 93
3 93 106 94
3 94 107 95
3 95 102 90
3 108 114 109
3 109 115 110
3 110 116 111
3 111 117 112
3 112 118 113
3 113 119 108
3 126 121 138
3 137 123 127
3 127 124 139
3 128 120 126
3 28 129 27
3 27 130 131
3 131 132 29
3 29 133 134
3 134 135 30
3 30 136 28
