# OBJ
# COMPAS
# version: 2.15.1
# precision: 3
# V F E: 555 766 1257
# author: compas_tf

o beds_0_0
v -2685.029 -2815.226 2859.393
v -2132.047 -2438.070 3040.201
v -2132.047 -2900.000 3040.201
v -2685.029 -2900.000 2859.393
v -2681.013 -2812.487 2832.300
v -2124.357 -2432.825 3014.309
v -2124.357 -2900.000 3014.309
v -2681.013 -2900.000 2832.300
f 1 2 6 5
f 2 3 7 6
f 3 4 8 7
f 4 1 5 8
f 1 4 3
f 3 2 1
f 8 5 6
f 6 7 8
o beds_0_1
v -2132.047 -2438.070 3040.201
v -1705.821 -2147.368 3154.225
v -1705.821 -2900.000 3154.225
v -2132.047 -2900.000 3040.201
v -2124.357 -2432.825 3014.309
v -1699.577 -2143.109 3127.946
v -1699.577 -2900.000 3127.946
v -2124.357 -2900.000 3014.309
f 9 10 14 13
f 10 11 15 14
f 11 12 16 15
f 12 9 13 16
f 9 12 11
f 11 10 9
f 16 13 14
f 14 15 16
o beds_0_2
v -1705.821 -2147.368 3154.225
v -1279.477 -1856.584 3242.935
v -1279.477 -2900.000 3242.935
v -1705.821 -2900.000 3154.225
v -1699.577 -2143.109 3127.946
v -1274.739 -1853.352 3216.342
v -1274.739 -2900.000 3216.342
v -1699.577 -2900.000 3127.946
f 17 18 22 21
f 18 19 23 22
f 19 20 24 23
f 20 17 21 24
f 17 20 19
f 19 18 17
f 24 21 22
f 22 23 24
o beds_0_3
v -1279.477 -1856.584 3242.935
v -853.039 -1565.737 3306.313
v -853.039 -2900.000 3306.313
v -1279.477 -2900.000 3242.935
v -1274.739 -1853.352 3216.342
v -849.853 -1563.564 3279.490
v -849.853 -2900.000 3279.490
v -1274.739 -2900.000 3216.342
f 25 26 30 29
f 26 27 31 30
f 27 28 32 31
f 28 25 29 32
f 25 28 27
f 27 26 25
f 32 29 30
f 30 31 32
o beds_0_4
v -853.039 -1565.737 3306.313
v -426.537 -1274.845 3344.345
v -426.537 -2900.000 3344.345
v -853.039 -2900.000 3306.313
v -849.853 -1563.564 3279.490
v -424.935 -1273.753 3317.381
v -424.935 -2900.000 3317.381
v -849.853 -2900.000 3279.490
f 33 34 38 37
f 34 35 39 38
f 35 36 40 39
f 36 33 37 40
f 33 36 35
f 35 34 33
f 40 37 38
f 38 39 40
o beds_0_5
v -426.537 -1274.845 3344.345
v -60.000 -1024.853 3355.240
v -60.000 -2900.000 3355.240
v -426.537 -2900.000 3344.345
v -424.935 -1273.753 3317.381
v -60.000 -1024.853 3328.228
v -60.000 -2900.000 3328.228
v -424.935 -2900.000 3317.381
f 41 42 46 45
f 42 43 47 46
f 43 44 48 47
f 44 41 45 48
f 41 44 43
f 43 42 41
f 48 45 46
f 46 47 48
o beds_1_0
v -2728.207 -2772.049 2859.393
v -2772.049 -2728.207 2859.393
v -2394.893 -2175.225 3040.201
v -2175.225 -2394.893 3040.201
v -2724.191 -2769.309 2832.300
v -2769.309 -2724.191 2832.300
v -2389.648 -2167.535 3014.309
v -2167.535 -2389.648 3014.309
f 49 50 54 53
f 50 51 55 54
f 51 52 56 55
f 52 49 53 56
f 49 52 51
f 51 50 49
f 56 53 54
f 54 55 56
o beds_1_1
v -2175.225 -2394.893 3040.201
v -2394.893 -2175.225 3040.201
v -2104.190 -1748.999 3154.225
v -1748.999 -2104.190 3154.225
v -2167.535 -2389.648 3014.309
v -2389.648 -2167.535 3014.309
v -2099.931 -1742.755 3127.946
v -1742.755 -2099.931 3127.946
f 57 58 62 61
f 58 59 63 62
f 59 60 64 63
f 60 57 61 64
f 57 60 59
f 59 58 57
f 64 61 62
f 62 63 64
o beds_1_2
v -1748.999 -2104.190 3154.225
v -2104.190 -1748.999 3154.225
v -1813.407 -1322.655 3242.935
v -1322.655 -1813.407 3242.935
v -1742.755 -2099.931 3127.946
v -2099.931 -1742.755 3127.946
v -1810.175 -1317.916 3216.342
v -1317.916 -1810.175 3216.342
f 65 66 70 69
f 66 67 71 70
f 67 68 72 71
f 68 65 69 72
f 65 68 67
f 67 66 65
f 72 69 70
f 70 71 72
o beds_1_3
v -1322.655 -1813.407 3242.935
v -1813.407 -1322.655 3242.935
v -1522.559 -896.217 3306.313
v -896.217 -1522.559 3306.313
v -1317.916 -1810.175 3216.342
v -1810.175 -1317.916 3216.342
v -1520.386 -893.031 3279.490
v -893.031 -1520.386 3279.490
f 73 74 78 77
f 74 75 79 78
f 75 76 80 79
f 76 73 77 80
f 73 76 75
f 75 74 73
f 80 77 78
f 78 79 80
o beds_1_4
v -896.217 -1522.559 3306.313
v -1522.559 -896.217 3306.313
v -1231.667 -469.714 3344.345
v -469.714 -1231.667 3344.345
v -893.031 -1520.386 3279.490
v -1520.386 -893.031 3279.490
v -1230.575 -468.113 3317.381
v -468.113 -1230.575 3317.381
f 81 82 86 85
f 82 83 87 86
f 83 84 88 87
f 84 81 85 88
f 81 84 83
f 83 82 81
f 88 85 86
f 86 87 88
o beds_1_5
v -469.714 -1231.667 3344.345
v -1231.667 -469.714 3344.345
v -981.675 -103.178 3355.240
v -103.178 -981.675 3355.240
v -468.113 -1230.575 3317.381
v -1230.575 -468.113 3317.381
v -981.675 -103.178 3328.228
v -103.178 -981.675 3328.228
f 89 90 94 93
f 90 91 95 94
f 91 92 96 95
f 92 89 93 96
f 89 92 91
f 91 90 89
f 96 93 94
f 94 95 96
o beds_2_0
v -2815.226 -2685.029 2859.393
v -2900.000 -2685.029 2859.393
v -2900.000 -2132.047 3040.201
v -2438.070 -2132.047 3040.201
v -2812.487 -2681.013 2832.300
v -2900.000 -2681.013 2832.300
v -2900.000 -2124.357 3014.309
v -2432.825 -2124.357 3014.309
f 97 98 102 101
f 98 99 103 102
f 99 100 104 103
f 100 97 101 104
f 97 100 99
f 99 98 97
f 104 101 102
f 102 103 104
o beds_2_1
v -2438.070 -2132.047 3040.201
v -2900.000 -2132.047 3040.201
v -2900.000 -1705.821 3154.225
v -2147.368 -1705.821 3154.225
v -2432.825 -2124.357 3014.309
v -2900.000 -2124.357 3014.309
v -2900.000 -1699.577 3127.946
v -2143.109 -1699.577 3127.946
f 105 106 110 109
f 106 107 111 110
f 107 108 112 111
f 108 105 109 112
f 105 108 107
f 107 106 105
f 112 109 110
f 110 111 112
o beds_2_2
v -2147.368 -1705.821 3154.225
v -2900.000 -1705.821 3154.225
v -2900.000 -1279.477 3242.935
v -1856.584 -1279.477 3242.935
v -2143.109 -1699.577 3127.946
v -2900.000 -1699.577 3127.946
v -2900.000 -1274.739 3216.342
v -1853.352 -1274.739 3216.342
f 113 114 118 117
f 114 115 119 118
f 115 116 120 119
f 116 113 117 120
f 113 116 115
f 115 114 113
f 120 117 118
f 118 119 120
o beds_2_3
v -1856.584 -1279.477 3242.935
v -2900.000 -1279.477 3242.935
v -2900.000 -853.039 3306.313
v -1565.737 -853.039 3306.313
v -1853.352 -1274.739 3216.342
v -2900.000 -1274.739 3216.342
v -2900.000 -849.853 3279.490
v -1563.564 -849.853 3279.490
f 121 122 126 125
f 122 123 127 126
f 123 124 128 127
f 124 121 125 128
f 121 124 123
f 123 122 121
f 128 125 126
f 126 127 128
o beds_2_4
v -1565.737 -853.039 3306.313
v -2900.000 -853.039 3306.313
v -2900.000 -426.537 3344.345
v -1274.845 -426.537 3344.345
v -1563.564 -849.853 3279.490
v -2900.000 -849.853 3279.490
v -2900.000 -424.935 3317.381
v -1273.753 -424.935 3317.381
f 129 130 134 133
f 130 131 135 134
f 131 132 136 135
f 132 129 133 136
f 129 132 131
f 131 130 129
f 136 133 134
f 134 135 136
o beds_2_5
v -1274.845 -426.537 3344.345
v -2900.000 -426.537 3344.345
v -2900.000 -60.000 3355.240
v -1024.853 -60.000 3355.240
v -1273.753 -424.935 3317.381
v -2900.000 -424.935 3317.381
v -2900.000 -60.000 3328.228
v -1024.853 -60.000 3328.228
f 137 138 142 141
f 138 139 143 142
f 139 140 144 143
f 140 137 141 144
f 137 140 139
f 139 138 137
f 144 141 142
f 142 143 144
o tsections_0
v -2676.996 -2873.000 2805.207
v -2116.667 -2873.000 2988.417
v -1693.333 -2873.000 3101.667
v -1270.000 -2873.000 3189.750
v -846.667 -2873.000 3252.667
v -423.333 -2873.000 3290.417
v -60.000 -2873.000 3301.217
v -60.000 -2873.000 3328.228
v -424.935 -2873.000 3317.381
v -849.853 -2873.000 3279.490
v -1274.739 -2873.000 3216.342
v -1699.577 -2873.000 3127.946
v -2124.357 -2873.000 3014.309
v -2681.013 -2873.000 2832.300
v -2676.996 -2900.000 2805.207
v -2116.667 -2900.000 2988.417
v -1693.333 -2900.000 3101.667
v -1270.000 -2900.000 3189.750
v -846.667 -2900.000 3252.667
v -423.333 -2900.000 3290.417
v -60.000 -2900.000 3301.217
v -60.000 -2900.000 3328.228
v -424.935 -2900.000 3317.381
v -849.853 -2900.000 3279.490
v -1274.739 -2900.000 3216.342
v -1699.577 -2900.000 3127.946
v -2124.357 -2900.000 3014.309
v -2681.013 -2900.000 2832.300
f 145 146 160 159
f 146 147 161 160
f 147 148 162 161
f 148 149 163 162
f 149 150 164 163
f 150 151 165 164
f 151 152 166 165
f 152 153 167 166
f 153 154 168 167
f 154 155 169 168
f 155 156 170 169
f 156 157 171 170
f 157 158 172 171
f 158 145 159 172
f 145 158 157
f 157 156 155
f 155 154 153
f 153 152 151
f 146 145 157
f 153 151 150
f 147 146 157
f 155 153 150
f 148 147 157
f 155 150 149
f 148 157 155
f 155 149 148
f 171 172 159
f 169 170 171
f 167 168 169
f 165 166 167
f 171 159 160
f 164 165 167
f 171 160 161
f 164 167 169
f 171 161 162
f 163 164 169
f 169 171 162
f 162 163 169
o tsections_1
v -2676.098 -2841.817 2799.147
v -2681.013 -2845.169 2832.300
v -2124.357 -2465.507 3014.309
v -1699.577 -2175.791 3127.946
v -1274.739 -1886.034 3216.342
v -849.853 -1596.246 3279.490
v -424.935 -1306.435 3317.381
v -60.000 -1057.535 3328.228
v -60.000 -1057.535 3300.639
v -403.903 -1292.090 3290.417
v -827.237 -1580.820 3252.667
v -1250.570 -1869.550 3189.750
v -1673.903 -2158.281 3101.667
v -2097.237 -2447.011 2988.417
v -2676.996 -2809.747 2805.207
v -2681.013 -2812.487 2832.300
v -2124.357 -2432.825 3014.309
v -1699.577 -2143.109 3127.946
v -1274.739 -1853.352 3216.342
v -849.853 -1563.564 3279.490
v -424.935 -1273.753 3317.381
v -60.000 -1024.853 3328.228
v -60.000 -1024.853 3301.217
v -423.333 -1272.660 3290.417
v -846.667 -1561.390 3252.667
v -1270.000 -1850.120 3189.750
v -1693.333 -2138.851 3101.667
v -2116.667 -2427.581 2988.417
f 173 174 188 187
f 174 175 189 188
f 175 176 190 189
f 176 177 191 190
f 177 178 192 191
f 178 179 193 192
f 179 180 194 193
f 180 181 195 194
f 181 182 196 195
f 182 183 197 196
f 183 184 198 197
f 184 185 199 198
f 185 186 200 199
f 186 173 187 200
f 174 173 186
f 176 175 174
f 178 177 176
f 180 179 178
f 182 181 180
f 174 186 185
f 182 180 178
f 176 174 185
f 183 182 178
f 176 185 184
f 183 178 176
f 176 184 183
f 200 187 188
f 188 189 190
f 190 191 192
f 192 193 194
f 194 195 196
f 200 188 190
f 192 194 196
f 199 200 190
f 192 196 197
f 198 199 190
f 190 192 197
f 197 198 190
o tsections_2
v -2739.604 -2747.140 2805.207
v -2179.274 -2364.973 2988.417
v -1755.941 -2076.243 3101.667
v -1332.608 -1787.513 3189.750
v -909.274 -1498.783 3252.667
v -485.941 -1210.053 3290.417
v -122.608 -962.245 3301.217
v -122.608 -962.245 3328.228
v -487.543 -1211.145 3317.381
v -912.461 -1500.956 3279.490
v -1337.346 -1790.745 3216.342
v -1762.185 -2080.501 3127.946
v -2186.965 -2370.218 3014.309
v -2743.621 -2749.879 2832.300
v -2720.174 -2766.570 2805.207
v -2159.844 -2384.403 2988.417
v -1736.511 -2095.673 3101.667
v -1313.178 -1806.943 3189.750
v -889.844 -1518.213 3252.667
v -466.511 -1229.483 3290.417
v -103.178 -981.675 3301.217
v -103.178 -981.675 3328.228
v -468.113 -1230.575 3317.381
v -893.031 -1520.386 3279.490
v -1317.916 -1810.175 3216.342
v -1742.755 -2099.931 3127.946
v -2167.535 -2389.648 3014.309
v -2724.191 -2769.309 2832.300
f 201 202 216 215
f 202 203 217 216
f 203 204 218 217
f 204 205 219 218
f 205 206 220 219
f 206 207 221 220
f 207 208 222 221
f 208 209 223 222
f 209 210 224 223
f 210 211 225 224
f 211 212 226 225
f 212 213 227 226
f 213 214 228 227
f 214 201 215 228
f 201 214 213
f 213 212 211
f 211 210 209
f 209 208 207
f 202 201 213
f 209 207 206
f 203 202 213
f 211 209 206
f 204 203 213
f 211 206 205
f 204 213 211
f 211 205 204
f 227 228 215
f 225 226 227
f 223 224 225
f 221 222 223
f 227 215 216
f 220 221 223
f 227 216 217
f 220 223 225
f 227 217 218
f 219 220 225
f 225 227 218
f 218 219 225
o tsections_3
v -2747.140 -2739.604 2805.207
v -2749.879 -2743.621 2832.300
v -2370.218 -2186.965 3014.309
v -2080.501 -1762.185 3127.946
v -1790.745 -1337.346 3216.342
v -1500.956 -912.461 3279.490
v -1211.145 -487.543 3317.381
v -962.245 -122.608 3328.228
v -962.245 -122.608 3301.217
v -1210.053 -485.941 3290.417
v -1498.783 -909.274 3252.667
v -1787.513 -1332.608 3189.750
v -2076.243 -1755.941 3101.667
v -2364.973 -2179.274 2988.417
v -2766.570 -2720.174 2805.207
v -2769.309 -2724.191 2832.300
v -2389.648 -2167.535 3014.309
v -2099.931 -1742.755 3127.946
v -1810.175 -1317.916 3216.342
v -1520.386 -893.031 3279.490
v -1230.575 -468.113 3317.381
v -981.675 -103.178 3328.228
v -981.675 -103.178 3301.217
v -1229.483 -466.511 3290.417
v -1518.213 -889.844 3252.667
v -1806.943 -1313.178 3189.750
v -2095.673 -1736.511 3101.667
v -2384.403 -2159.844 2988.417
f 229 230 244 243
f 230 231 245 244
f 231 232 246 245
f 232 233 247 246
f 233 234 248 247
f 234 235 249 248
f 235 236 250 249
f 236 237 251 250
f 237 238 252 251
f 238 239 253 252
f 239 240 254 253
f 240 241 255 254
f 241 242 256 255
f 242 229 243 256
f 230 229 242
f 232 231 230
f 234 233 232
f 236 235 234
f 238 237 236
f 232 230 242
f 238 236 234
f 232 242 241
f 239 238 234
f 232 241 240
f 239 234 232
f 232 240 239
f 256 243 244
f 244 245 246
f 246 247 248
f 248 249 250
f 250 251 252
f 256 244 246
f 248 250 252
f 255 256 246
f 248 252 253
f 254 255 246
f 246 248 253
f 253 254 246
o tsections_4
v -2841.817 -2676.098 2799.147
v -2447.011 -2097.237 2988.417
v -2158.281 -1673.903 3101.667
v -1869.550 -1250.570 3189.750
v -1580.820 -827.237 3252.667
v -1292.090 -403.903 3290.417
v -1057.535 -60.000 3300.639
v -1057.535 -60.000 3328.228
v -1306.435 -424.935 3317.381
v -1596.246 -849.853 3279.490
v -1886.034 -1274.739 3216.342
v -2175.791 -1699.577 3127.946
v -2465.507 -2124.357 3014.309
v -2845.169 -2681.013 2832.300
v -2809.747 -2676.996 2805.207
v -2427.581 -2116.667 2988.417
v -2138.851 -1693.333 3101.667
v -1850.120 -1270.000 3189.750
v -1561.390 -846.667 3252.667
v -1272.660 -423.333 3290.417
v -1024.853 -60.000 3301.217
v -1024.853 -60.000 3328.228
v -1273.753 -424.935 3317.381
v -1563.564 -849.853 3279.490
v -1853.352 -1274.739 3216.342
v -2143.109 -1699.577 3127.946
v -2432.825 -2124.357 3014.309
v -2812.487 -2681.013 2832.300
f 257 258 272 271
f 258 259 273 272
f 259 260 274 273
f 260 261 275 274
f 261 262 276 275
f 262 263 277 276
f 263 264 278 277
f 264 265 279 278
f 265 266 280 279
f 266 267 281 280
f 267 268 282 281
f 268 269 283 282
f 269 270 284 283
f 270 257 271 284
f 257 270 269
f 269 268 267
f 267 266 265
f 265 264 263
f 258 257 269
f 265 263 262
f 259 258 269
f 267 265 262
f 260 259 269
f 267 262 261
f 260 269 267
f 267 261 260
f 283 284 271
f 281 282 283
f 279 280 281
f 277 278 279
f 283 271 272
f 276 277 279
f 283 272 273
f 276 279 281
f 283 273 274
f 275 276 281
f 281 283 274
f 274 275 281
o tsections_5
v -2873.000 -2676.996 2805.207
v -2873.000 -2681.013 2832.300
v -2873.000 -2124.357 3014.309
v -2873.000 -1699.577 3127.946
v -2873.000 -1274.739 3216.342
v -2873.000 -849.853 3279.490
v -2873.000 -424.935 3317.381
v -2873.000 -60.000 3328.228
v -2873.000 -60.000 3301.217
v -2873.000 -423.333 3290.417
v -2873.000 -846.667 3252.667
v -2873.000 -1270.000 3189.750
v -2873.000 -1693.333 3101.667
v -2873.000 -2116.667 2988.417
v -2900.000 -2676.996 2805.207
v -2900.000 -2681.013 2832.300
v -2900.000 -2124.357 3014.309
v -2900.000 -1699.577 3127.946
v -2900.000 -1274.739 3216.342
v -2900.000 -849.853 3279.490
v -2900.000 -424.935 3317.381
v -2900.000 -60.000 3328.228
v -2900.000 -60.000 3301.217
v -2900.000 -423.333 3290.417
v -2900.000 -846.667 3252.667
v -2900.000 -1270.000 3189.750
v -2900.000 -1693.333 3101.667
v -2900.000 -2116.667 2988.417
f 285 286 300 299
f 286 287 301 300
f 287 288 302 301
f 288 289 303 302
f 289 290 304 303
f 290 291 305 304
f 291 292 306 305
f 292 293 307 306
f 293 294 308 307
f 294 295 309 308
f 295 296 310 309
f 296 297 311 310
f 297 298 312 311
f 298 285 299 312
f 286 285 298
f 288 287 286
f 290 289 288
f 292 291 290
f 294 293 292
f 288 286 298
f 294 292 290
f 288 298 297
f 295 294 290
f 288 297 296
f 295 290 288
f 288 296 295
f 312 299 300
f 300 301 302
f 302 303 304
f 304 305 306
f 306 307 308
f 312 300 302
f 304 306 308
f 311 312 302
f 304 308 309
f 310 311 302
f 302 304 309
f 309 310 302
o outer_ribs_0
v 0.000 -2900.000 3500.000
v -2780.000 -2900.000 3500.000
v -2676.996 -2900.000 2805.207
v -2116.667 -2900.000 2988.417
v -1693.333 -2900.000 3101.667
v -1270.000 -2900.000 3189.750
v -846.667 -2900.000 3252.667
v -423.333 -2900.000 3290.417
v 0.000 -2900.000 3303.000
v 0.000 -3000.000 3500.000
v -2780.000 -3000.000 3500.000
v -2676.996 -3000.000 2805.207
v -2116.667 -3000.000 2988.417
v -1693.333 -3000.000 3101.667
v -1270.000 -3000.000 3189.750
v -846.667 -3000.000 3252.667
v -423.333 -3000.000 3290.417
v 0.000 -3000.000 3303.000
f 313 314 323 322
f 314 315 324 323
f 315 316 325 324
f 316 317 326 325
f 317 318 327 326
f 318 319 328 327
f 319 320 329 328
f 320 321 330 329
f 321 313 322 330
f 313 321 320
f 316 315 314
f 314 313 320
f 317 316 314
f 314 320 319
f 318 317 314
f 314 319 318
f 330 322 323
f 323 324 325
f 329 330 323
f 323 325 326
f 328 329 323
f 323 326 327
f 327 328 323
o outer_ribs_1
v -2900.000 0.000 3500.000
v -2900.000 0.000 3303.000
v -2900.000 -423.333 3290.417
v -2900.000 -846.667 3252.667
v -2900.000 -1270.000 3189.750
v -2900.000 -1693.333 3101.667
v -2900.000 -2116.667 2988.417
v -2900.000 -2676.996 2805.207
v -2900.000 -2780.000 3500.000
v -3000.000 0.000 3500.000
v -3000.000 0.000 3303.000
v -3000.000 -423.333 3290.417
v -3000.000 -846.667 3252.667
v -3000.000 -1270.000 3189.750
v -3000.000 -1693.333 3101.667
v -3000.000 -2116.667 2988.417
v -3000.000 -2676.996 2805.207
v -3000.000 -2780.000 3500.000
f 331 332 341 340
f 332 333 342 341
f 333 334 343 342
f 334 335 344 343
f 335 336 345 344
f 336 337 346 345
f 337 338 347 346
f 338 339 348 347
f 339 331 340 348
f 339 338 337
f 333 332 331
f 339 337 336
f 334 333 331
f 331 339 336
f 335 334 331
f 331 336 335
f 348 340 341
f 346 347 348
f 348 341 342
f 345 346 348
f 348 342 343
f 344 345 348
f 348 343 344
o inner_ribs_0
v -103.178 -981.675 3500.000
v -2823.178 -2836.822 3500.000
v -2720.174 -2766.570 2805.207
v -2159.844 -2384.403 2988.417
v -1736.511 -2095.673 3101.667
v -1313.178 -1806.943 3189.750
v -889.844 -1518.213 3252.667
v -466.511 -1229.483 3290.417
v -103.178 -981.675 3301.217
v -60.000 -1024.853 3500.000
v -2780.000 -2880.000 3500.000
v -2676.996 -2809.747 2805.207
v -2116.667 -2427.581 2988.417
v -1693.333 -2138.851 3101.667
v -1270.000 -1850.120 3189.750
v -846.667 -1561.390 3252.667
v -423.333 -1272.660 3290.417
v -60.000 -1024.853 3301.217
f 349 350 359 358
f 350 351 360 359
f 351 352 361 360
f 352 353 362 361
f 353 354 363 362
f 354 355 364 363
f 355 356 365 364
f 356 357 366 365
f 357 349 358 366
f 349 357 356
f 352 351 350
f 350 349 356
f 353 352 350
f 350 356 355
f 354 353 350
f 350 355 354
f 366 358 359
f 359 360 361
f 365 366 359
f 359 361 362
f 364 365 359
f 359 362 363
f 363 364 359
o inner_ribs_1
v -981.675 -103.178 3500.000
v -981.675 -103.178 3301.217
v -1229.483 -466.511 3290.417
v -1518.213 -889.844 3252.667
v -1806.943 -1313.178 3189.750
v -2095.673 -1736.511 3101.667
v -2384.403 -2159.844 2988.417
v -2766.570 -2720.174 2805.207
v -2836.822 -2823.178 3500.000
v -1024.853 -60.000 3500.000
v -1024.853 -60.000 3301.217
v -1272.660 -423.333 3290.417
v -1561.390 -846.667 3252.667
v -1850.120 -1270.000 3189.750
v -2138.851 -1693.333 3101.667
v -2427.581 -2116.667 2988.417
v -2809.747 -2676.996 2805.207
v -2880.000 -2780.000 3500.000
f 367 368 377 376
f 368 369 378 377
f 369 370 379 378
f 370 371 380 379
f 371 372 381 380
f 372 373 382 381
f 373 374 383 382
f 374 375 384 383
f 375 367 376 384
f 375 374 373
f 369 368 367
f 375 373 372
f 370 369 367
f 367 375 372
f 371 370 367
f 367 372 371
f 384 376 377
f 382 383 384
f 384 377 378
f 381 382 384
f 384 378 379
f 380 381 384
f 384 379 380
o wedges_inner_beams_0
v -2685.029 -2900.000 2859.393
v -2685.029 -2815.226 2859.393
v -2780.000 -2880.000 3500.000
v -2780.000 -2900.000 3500.000
v -2453.623 -2900.000 2935.056
v -2453.623 -2657.398 2935.056
v -2537.377 -2714.522 3500.000
v -2537.377 -2900.000 3500.000
f 385 386 390 389
f 386 387 391 390
f 387 388 392 391
f 388 385 389 392
f 385 388 387
f 387 386 385
f 392 389 390
f 390 391 392
o wedges_inner_beams_1
v -2728.207 -2772.049 2859.393
v -2772.049 -2728.207 2859.393
v -2836.822 -2823.178 3500.000
v -2823.178 -2836.822 3500.000
v -2483.925 -2605.439 2939.266
v -2605.439 -2483.925 2939.266
v -2662.136 -2567.055 3500.000
v -2567.055 -2662.136 3500.000
f 393 394 398 397
f 394 395 399 398
f 395 396 400 399
f 396 393 397 400
f 393 396 395
f 395 394 393
f 400 397 398
f 398 399 400
o wedges_inner_beams_2
v -2815.226 -2685.029 2859.393
v -2900.000 -2685.029 2859.393
v -2900.000 -2780.000 3500.000
v -2880.000 -2780.000 3500.000
v -2657.398 -2453.623 2935.056
v -2900.000 -2453.623 2935.056
v -2900.000 -2537.377 3500.000
v -2714.522 -2537.377 3500.000
f 401 402 406 405
f 402 403 407 406
f 403 404 408 407
f 404 401 405 408
f 401 404 403
f 403 402 401
f 408 405 406
f 406 407 408
o inner_beams_0
v 0.000 -2900.000 3500.000
v -0.000 -1000.000 3500.000
v 0.000 -975.626 3303.000
v 0.000 -2900.000 3303.000
v -60.000 -2900.000 3500.000
v -60.000 -940.000 3500.000
v -60.000 -915.626 3303.000
v -60.000 -2900.000 3303.000
f 409 410 414 413
f 410 411 415 414
f 411 412 416 415
f 412 409 413 416
f 409 412 411
f 411 410 409
f 416 413 414
f 414 415 416
o inner_beams_1
v -60.000 -940.000 3500.000
v -940.000 -60.000 3500.000
v -915.626 -60.000 3303.000
v -60.000 -915.626 3303.000
v -60.000 -1024.853 3500.000
v -1024.853 -60.000 3500.000
v -1024.853 -60.000 3303.000
v -60.000 -1024.853 3303.000
f 417 418 422 421
f 418 419 423 422
f 419 420 424 423
f 420 417 421 424
f 417 420 419
f 419 418 417
f 424 421 422
f 422 423 424
o inner_beams_2
v -2900.000 0.000 3500.000
v -2900.000 0.000 3303.000
v -975.626 0.000 3303.000
v -1000.000 -0.000 3500.000
v -2900.000 -60.000 3500.000
v -2900.000 -60.000 3303.000
v -915.626 -60.000 3303.000
v -940.000 -60.000 3500.000
f 425 426 430 429
f 426 427 431 430
f 427 428 432 431
f 428 425 429 432
f 425 428 427
f 427 426 425
f 432 429 430
f 430 431 432
o support
v -2820.000 -2820.000 0.000
v -2820.000 -2960.000 0.000
v -2960.000 -2960.000 12.000
v -2960.000 -2960.000 0.000
v -2960.000 -2820.000 12.000
v -2960.000 -2820.000 0.000
v -2820.000 -2820.000 12.000
v -2820.000 -2960.000 12.000
v -2830.500 -2942.000 12.000
v -2834.250 -2948.495 12.000
v -2841.750 -2948.495 12.000
v -2938.250 -2948.495 12.000
v -2934.500 -2942.000 12.000
v -2949.500 -2942.000 12.000
v -2945.750 -2948.495 12.000
v -2938.250 -2935.505 12.000
v -2841.750 -2831.505 12.000
v -2845.500 -2838.000 12.000
v -2830.500 -2838.000 12.000
v -2834.250 -2831.505 12.000
v -2834.250 -2844.495 12.000
v -2841.750 -2844.495 12.000
v -2934.500 -2838.000 12.000
v -2949.500 -2838.000 12.000
v -2945.750 -2844.495 12.000
v -2945.750 -2831.505 12.000
v -2938.250 -2831.505 12.000
v -2879.500 -2908.187 12.000
v -2869.000 -2890.000 12.000
v -2911.000 -2890.000 12.000
v -2879.500 -2871.813 12.000
v -2830.500 -2942.000 0.000
v -2834.250 -2948.495 0.000
v -2841.750 -2948.495 0.000
v -2938.250 -2948.495 0.000
v -2949.500 -2942.000 0.000
v -2945.750 -2948.495 0.000
v -2841.750 -2831.505 0.000
v -2830.500 -2838.000 0.000
v -2834.250 -2831.505 0.000
v -2949.500 -2838.000 0.000
v -2945.750 -2831.505 0.000
v -2938.250 -2831.505 0.000
v -2845.500 -2942.000 12.000
v -2845.500 -2942.000 0.000
v -2841.750 -2935.505 12.000
v -2841.750 -2935.505 0.000
v -2834.250 -2935.505 12.000
v -2834.250 -2935.505 0.000
v -2945.750 -2935.505 12.000
v -2945.750 -2935.505 0.000
v -2938.250 -2935.505 0.000
v -2934.500 -2942.000 0.000
v -2845.500 -2838.000 0.000
v -2834.250 -2844.495 0.000
v -2841.750 -2844.495 0.000
v -2938.250 -2844.495 12.000
v -2938.250 -2844.495 0.000
v -2945.750 -2844.495 0.000
v -2934.500 -2838.000 0.000
v -2837.000 -2890.000 138.000
v -2863.500 -2935.899 138.000
v -2916.500 -2935.899 138.000
v -2943.000 -2890.000 138.000
v -2916.500 -2844.101 138.000
v -2863.500 -2844.101 138.000
v -2837.000 -2890.000 150.000
v -2863.500 -2935.899 150.000
v -2916.500 -2935.899 150.000
v -2943.000 -2890.000 150.000
v -2916.500 -2844.101 150.000
v -2863.500 -2844.101 150.000
v -2858.250 -2890.000 138.000
v -2874.125 -2862.504 138.000
v -2905.875 -2862.504 138.000
v -2921.750 -2890.000 138.000
v -2905.875 -2917.496 138.000
v -2874.125 -2917.496 138.000
v -2874.125 -2862.504 108.000
v -2905.875 -2862.504 108.000
v -2921.750 -2890.000 108.000
v -2905.875 -2917.496 108.000
v -2874.125 -2917.496 108.000
v -2858.250 -2890.000 108.000
v -2875.000 -2890.000 108.000
v -2882.500 -2902.990 108.000
v -2897.500 -2902.990 108.000
v -2905.000 -2890.000 108.000
v -2897.500 -2877.010 108.000
v -2882.500 -2877.010 108.000
v -2875.000 -2890.000 64.000
v -2905.000 -2890.000 64.000
v -2882.500 -2877.010 64.000
v -2879.500 -2908.187 64.000
v -2900.500 -2908.187 64.000
v -2900.500 -2908.187 12.000
v -2911.000 -2890.000 64.000
v -2900.500 -2871.813 64.000
v -2900.500 -2871.813 12.000
v -2879.500 -2871.813 64.000
v -2869.000 -2890.000 64.000
v -2897.500 -2902.990 64.000
v -2882.500 -2902.990 64.000
v -2897.500 -2877.010 64.000
f 438 437 439
f 433 439 440
f 434 440 435
f 436 435 437
f 456 458 437
f 459 437 458
f 435 446 456
f 457 456 446
f 455 531 450
f 462 489 457
f 455 489 531
f 459 455 449
f 437 459 449
f 531 489 462
f 444 447 435
f 446 435 447
f 448 528 462
f 528 448 445
f 445 444 443
f 476 528 445
f 482 448 462
f 462 457 482
f 444 435 443
f 454 463 461
f 450 463 454
f 451 439 452
f 449 452 439
f 451 453 480
f 439 451 441
f 453 454 461
f 478 460 476
f 461 460 478
f 460 528 476
f 461 478 480
f 440 441 442
f 443 440 442
f 480 453 461
f 436 438 473
f 474 473 438
f 491 483 468
f 438 475 474
f 484 490 488
f 475 470 492
f 438 433 470
f 490 484 483
f 469 436 468
f 484 479 485
f 436 469 467
f 485 477 466
f 467 466 436
f 492 486 488
f 471 472 433
f 470 433 472
f 471 464 481
f 433 434 464
f 487 481 479
f 466 465 434
f 464 434 465
f 477 479 478
f 479 481 480
f 481 464 441
f 464 465 442
f 465 466 443
f 466 477 476
f 485 467 444
f 467 469 447
f 469 468 446
f 468 483 482
f 483 484 448
f 484 485 445
f 486 470 449
f 470 472 452
f 472 471 451
f 471 487 453
f 487 488 454
f 488 486 450
f 492 490 489
f 490 491 457
f 491 473 456
f 473 474 458
f 474 475 459
f 475 492 455
f 493 499 500
f 494 500 501
f 495 501 502
f 496 502 503
f 497 503 504
f 498 504 499
f 494 510 493
f 505 493 510
f 495 510 494
f 498 493 506
f 505 506 493
f 497 498 506
f 496 508 509
f 510 495 509
f 495 496 509
f 497 507 496
f 508 496 507
f 506 507 497
f 505 516 511
f 506 511 512
f 507 512 513
f 508 513 514
f 509 514 515
f 510 515 516
f 519 514 513
f 518 514 519
f 520 519 513
f 512 521 513
f 520 513 521
f 511 521 512
f 516 518 517
f 514 518 515
f 515 518 516
f 511 516 522
f 517 522 516
f 521 511 522
f 523 517 518
f 534 519 520
f 524 520 521
f 525 522 517
f 461 533 526
f 460 526 527
f 528 527 529
f 462 529 530
f 531 530 532
f 463 532 533
f 535 526 533
f 534 526 535
f 523 535 533
f 533 532 525
f 530 525 532
f 523 533 525
f 529 534 524
f 526 534 527
f 527 534 529
f 530 529 536
f 524 536 529
f 525 530 536
f 534 518 519
f 518 534 535
f 522 536 521
f 536 522 525
f 438 439 433
f 433 440 434
f 434 435 436
f 436 437 438
f 435 456 437
f 457 446 482
f 531 463 450
f 455 450 449
f 437 449 439
f 445 443 476
f 435 440 443
f 451 480 441
f 439 441 440
f 436 473 468
f 491 468 473
f 484 488 479
f 470 486 492
f 438 470 475
f 490 483 491
f 479 477 485
f 485 466 467
f 466 434 436
f 492 488 490
f 471 481 487
f 433 464 471
f 487 479 488
f 477 478 476
f 479 480 478
f 481 441 480
f 464 442 441
f 465 443 442
f 466 476 443
f 485 444 445
f 467 447 444
f 469 446 447
f 468 482 446
f 483 448 482
f 484 445 448
f 486 449 450
f 470 452 449
f 472 451 452
f 471 453 451
f 487 454 453
f 488 450 454
f 492 489 455
f 490 457 489
f 491 456 457
f 473 458 456
f 474 459 458
f 475 455 459
f 493 500 494
f 494 501 495
f 495 502 496
f 496 503 497
f 497 504 498
f 498 499 493
f 505 511 506
f 506 512 507
f 507 513 508
f 508 514 509
f 509 515 510
f 510 516 505
f 523 518 535
f 534 520 524
f 524 521 536
f 525 517 523
f 461 526 460
f 460 527 528
f 528 529 462
f 462 530 531
f 531 532 463
f 463 533 461
f 503 499 504
f 502 499 503
f 502 501 499
f 500 499 501
o column
v -3000.000 -3000.000 150.000
v -3000.000 -3000.000 3500.000
v -3000.000 -2780.000 150.000
v -3000.000 -2780.000 2770.000
v -3000.000 -2780.000 3500.000
v -3000.000 -2660.000 2770.000
v -3000.000 -2660.000 3500.000
v -2780.000 -3000.000 150.000
v -2780.000 -3000.000 2770.000
v -2780.000 -3000.000 3500.000
v -2660.000 -3000.000 2770.000
v -2660.000 -3000.000 3500.000
v -2780.000 -2780.000 150.000
v -2780.000 -2780.000 2770.000
v -2780.000 -2780.000 3500.000
v -2660.000 -2780.000 2770.000
v -2660.000 -2780.000 3500.000
v -2660.000 -2660.000 2770.000
v -2660.000 -2660.000 3500.000
f 537 538 539
f 537 539 549
f 537 549 544
f 537 544 545
f 537 546 538
f 538 540 539
f 538 541 540
f 538 551 541
f 537 545 546
f 538 546 551
f 539 550 549
f 539 540 550
f 544 549 550
f 544 550 545
f 545 548 546
f 545 547 548
f 545 552 547
f 546 548 553
f 547 553 548
f 545 550 552
f 546 553 551
f 547 552 553
f 540 541 542
f 541 543 542
f 540 542 554
f 542 543 554
f 541 555 543
f 540 554 550
f 555 541 551
f 543 555 554
f 554 552 550
f 553 555 551
f 552 555 553
f 552 554 555
