o bed_0
v -2650.000000 -2811.035421 -593.410236
v -2223.124310 -2516.642396 -459.629006
v -2223.124310 -2900.000000 -459.629006
v -2650.000000 -2900.000000 -593.410236
v -2650.000000 -2811.035421 -621.705118
v -2215.728822 -2511.542129 -485.606170
v -2215.728822 -2900.000000 -485.606170
v -2650.000000 -2900.000000 -621.705118
f 1 2 6 5
f 2 3 7 6
f 3 4 8 7
f 4 1 5 8
f 2 1 4
f 4 3 2
f 8 5 6
f 6 7 8
o bed_1
v -2223.124310 -2516.642396 -459.629006
v -1778.662437 -2210.121135 -345.662273
v -1778.662437 -2900.000000 -345.662273
v -2223.124310 -2900.000000 -459.629006
v -2215.728822 -2511.542129 -485.606170
v -1772.664552 -2205.984719 -371.997803
v -1772.664552 -2900.000000 -371.997803
v -2215.728822 -2900.000000 -485.606170
f 9 10 14 13
f 10 11 15 14
f 11 12 16 15
f 12 9 13 16
f 10 9 12
f 12 11 10
f 16 13 14
f 14 15 16
o bed_2
v -1778.662437 -2210.121135 -345.662273
v -1334.095473 -1903.527398 -257.000522
v -1334.095473 -2900.000000 -257.000522
v -1778.662437 -2900.000000 -345.662273
v -1772.664552 -2205.984719 -371.997803
v -1329.547737 -1900.391071 -283.625261
v -1329.547737 -2900.000000 -283.625261
v -1772.664552 -2900.000000 -371.997803
f 17 18 22 21
f 18 19 23 22
f 19 20 24 23
f 20 17 21 24
f 18 17 20
f 20 19 18
f 24 21 22
f 22 23 24
o bed_3
v -1334.095473 -1903.527398 -257.000522
v -889.445302 -1596.876278 -193.658846
v -889.445302 -2900.000000 -193.658846
v -1334.095473 -2900.000000 -257.000522
v -1329.547737 -1900.391071 -283.625261
v -886.389318 -1594.768731 -220.496090
v -886.389318 -2900.000000 -220.496090
v -1329.547737 -2900.000000 -283.625261
f 25 26 30 29
f 26 27 31 30
f 27 28 32 31
f 28 25 29 32
f 26 25 28
f 28 27 26
f 32 29 30
f 30 31 32
o bed_4
v -889.445302 -1596.876278 -193.658846
v -444.737427 -1290.185362 -155.648909
v -444.737427 -2900.000000 -155.648909
v -889.445302 -2900.000000 -193.658846
v -886.389318 -1594.768731 -220.496090
v -443.202047 -1289.126494 -182.616121
v -443.202047 -2900.000000 -182.616121
v -886.389318 -2900.000000 -220.496090
f 33 34 38 37
f 34 35 39 38
f 35 36 40 39
f 36 33 37 40
f 34 33 36
f 36 35 34
f 40 37 38
f 38 39 40
o bed_5
v -444.737427 -1290.185362 -155.648909
v -60.000000 -1024.852814 -144.687522
v -60.000000 -2900.000000 -144.687522
v -444.737427 -2900.000000 -155.648909
v -443.202047 -1289.126494 -182.616121
v -60.000000 -1024.852814 -171.698478
v -60.000000 -2900.000000 -171.698478
v -443.202047 -2900.000000 -182.616121
f 41 42 46 45
f 42 43 47 46
f 43 44 48 47
f 44 41 45 48
f 42 41 44
f 44 43 42
f 48 45 46
f 46 47 48
o bed_6
v -2693.136169 -2767.899252 -593.410236
v -2767.899252 -2693.136169 -593.410236
v -2473.506228 -2266.260479 -459.629006
v -2266.260479 -2473.506228 -459.629006
v -2693.136169 -2767.899252 -621.705118
v -2767.899252 -2693.136169 -621.705118
v -2468.405960 -2258.864990 -485.606170
v -2258.864990 -2468.405960 -485.606170
f 49 50 54 53
f 50 51 55 54
f 51 52 56 55
f 52 49 53 56
f 50 49 52
f 52 51 50
f 56 53 54
f 54 55 56
o bed_7
v -2266.260479 -2473.506228 -459.629006
v -2473.506228 -2266.260479 -459.629006
v -2166.984966 -1821.798605 -345.662273
v -1821.798605 -2166.984966 -345.662273
v -2258.864990 -2468.405960 -485.606170
v -2468.405960 -2258.864990 -485.606170
v -2162.848550 -1815.800720 -371.997803
v -1815.800720 -2162.848550 -371.997803
f 57 58 62 61
f 58 59 63 62
f 59 60 64 63
f 60 57 61 64
f 58 57 60
f 60 59 58
f 64 61 62
f 62 63 64
o bed_8
v -1821.798605 -2166.984966 -345.662273
v -2166.984966 -1821.798605 -345.662273
v -1860.391230 -1377.231642 -257.000522
v -1377.231642 -1860.391230 -257.000522
v -1815.800720 -2162.848550 -371.997803
v -2162.848550 -1815.800720 -371.997803
v -1857.254902 -1372.683905 -283.625261
v -1372.683905 -1857.254902 -283.625261
f 65 66 70 69
f 66 67 71 70
f 67 68 72 71
f 68 65 69 72
f 66 65 68
f 68 67 66
f 72 69 70
f 70 71 72
o bed_9
v -1377.231642 -1860.391230 -257.000522
v -1860.391230 -1377.231642 -257.000522
v -1553.740109 -932.581470 -193.658846
v -932.581470 -1553.740109 -193.658846
v -1372.683905 -1857.254902 -283.625261
v -1857.254902 -1372.683905 -283.625261
v -1551.632562 -929.525486 -220.496090
v -929.525486 -1551.632562 -220.496090
f 73 74 78 77
f 74 75 79 78
f 75 76 80 79
f 76 73 77 80
f 74 73 76
f 76 75 74
f 80 77 78
f 78 79 80
o bed_10
v -932.581470 -1553.740109 -193.658846
v -1553.740109 -932.581470 -193.658846
v -1247.049193 -487.873595 -155.648909
v -487.873595 -1247.049193 -155.648909
v -929.525486 -1551.632562 -220.496090
v -1551.632562 -929.525486 -220.496090
v -1245.990325 -486.338215 -182.616121
v -486.338215 -1245.990325 -182.616121
f 81 82 86 85
f 82 83 87 86
f 83 84 88 87
f 84 81 85 88
f 82 81 84
f 84 83 82
f 88 85 86
f 86 87 88
o bed_11
v -487.873595 -1247.049193 -155.648909
v -1247.049193 -487.873595 -155.648909
v -981.716645 -103.136169 -144.687522
v -103.136169 -981.716645 -144.687522
v -486.338215 -1245.990325 -182.616121
v -1245.990325 -486.338215 -182.616121
v -981.716645 -103.136169 -171.698478
v -103.136169 -981.716645 -171.698478
f 89 90 94 93
f 90 91 95 94
f 91 92 96 95
f 92 89 93 96
f 90 89 92
f 92 91 90
f 96 93 94
f 94 95 96
o bed_12
v -2811.035421 -2650.000000 -593.410236
v -2900.000000 -2650.000000 -593.410236
v -2900.000000 -2223.124310 -459.629006
v -2516.642396 -2223.124310 -459.629006
v -2811.035421 -2650.000000 -621.705118
v -2900.000000 -2650.000000 -621.705118
v -2900.000000 -2215.728822 -485.606170
v -2511.542129 -2215.728822 -485.606170
f 97 98 102 101
f 98 99 103 102
f 99 100 104 103
f 100 97 101 104
f 98 97 100
f 100 99 98
f 104 101 102
f 102 103 104
o bed_13
v -2516.642396 -2223.124310 -459.629006
v -2900.000000 -2223.124310 -459.629006
v -2900.000000 -1778.662437 -345.662273
v -2210.121135 -1778.662437 -345.662273
v -2511.542129 -2215.728822 -485.606170
v -2900.000000 -2215.728822 -485.606170
v -2900.000000 -1772.664552 -371.997803
v -2205.984719 -1772.664552 -371.997803
f 105 106 110 109
f 106 107 111 110
f 107 108 112 111
f 108 105 109 112
f 106 105 108
f 108 107 106
f 112 109 110
f 110 111 112
o bed_14
v -2210.121135 -1778.662437 -345.662273
v -2900.000000 -1778.662437 -345.662273
v -2900.000000 -1334.095473 -257.000522
v -1903.527398 -1334.095473 -257.000522
v -2205.984719 -1772.664552 -371.997803
v -2900.000000 -1772.664552 -371.997803
v -2900.000000 -1329.547737 -283.625261
v -1900.391071 -1329.547737 -283.625261
f 113 114 118 117
f 114 115 119 118
f 115 116 120 119
f 116 113 117 120
f 114 113 116
f 116 115 114
f 120 117 118
f 118 119 120
o bed_15
v -1903.527398 -1334.095473 -257.000522
v -2900.000000 -1334.095473 -257.000522
v -2900.000000 -889.445302 -193.658846
v -1596.876278 -889.445302 -193.658846
v -1900.391071 -1329.547737 -283.625261
v -2900.000000 -1329.547737 -283.625261
v -2900.000000 -886.389318 -220.496090
v -1594.768731 -886.389318 -220.496090
f 121 122 126 125
f 122 123 127 126
f 123 124 128 127
f 124 121 125 128
f 122 121 124
f 124 123 122
f 128 125 126
f 126 127 128
o bed_16
v -1596.876278 -889.445302 -193.658846
v -2900.000000 -889.445302 -193.658846
v -2900.000000 -444.737427 -155.648909
v -1290.185362 -444.737427 -155.648909
v -1594.768731 -886.389318 -220.496090
v -2900.000000 -886.389318 -220.496090
v -2900.000000 -443.202047 -182.616121
v -1289.126494 -443.202047 -182.616121
f 129 130 134 133
f 130 131 135 134
f 131 132 136 135
f 132 129 133 136
f 130 129 132
f 132 131 130
f 136 133 134
f 134 135 136
o bed_17
v -1290.185362 -444.737427 -155.648909
v -2900.000000 -444.737427 -155.648909
v -2900.000000 -60.000000 -144.687522
v -1024.852814 -60.000000 -144.687522
v -1289.126494 -443.202047 -182.616121
v -2900.000000 -443.202047 -182.616121
v -2900.000000 -60.000000 -171.698478
v -1024.852814 -60.000000 -171.698478
f 137 138 142 141
f 138 139 143 142
f 139 140 144 143
f 140 137 141 144
f 138 137 140
f 140 139 138
f 144 141 142
f 142 143 144
o tsection_0
v -2650.000000 -2873.000000 -650.000000
v -2208.333333 -2873.000000 -511.583333
v -1766.666667 -2873.000000 -398.333333
v -1325.000000 -2873.000000 -310.250000
v -883.333333 -2873.000000 -247.333333
v -441.666667 -2873.000000 -209.583333
v -60.000000 -2873.000000 -198.709434
v -60.000000 -2873.000000 -171.698478
v -443.202047 -2873.000000 -182.616121
v -886.389318 -2873.000000 -220.496090
v -1329.547737 -2873.000000 -283.625261
v -1772.664552 -2873.000000 -371.997803
v -2215.728822 -2873.000000 -485.606170
v -2650.000000 -2873.000000 -621.705118
v -2650.000000 -2900.000000 -650.000000
v -2208.333333 -2900.000000 -511.583333
v -1766.666667 -2900.000000 -398.333333
v -1325.000000 -2900.000000 -310.250000
v -883.333333 -2900.000000 -247.333333
v -441.666667 -2900.000000 -209.583333
v -60.000000 -2900.000000 -198.709434
v -60.000000 -2900.000000 -171.698478
v -443.202047 -2900.000000 -182.616121
v -886.389318 -2900.000000 -220.496090
v -1329.547737 -2900.000000 -283.625261
v -1772.664552 -2900.000000 -371.997803
v -2215.728822 -2900.000000 -485.606170
v -2650.000000 -2900.000000 -621.705118
f 145 146 160 159
f 146 147 161 160
f 147 148 162 161
f 148 149 163 162
f 149 150 164 163
f 150 151 165 164
f 151 152 166 165
f 152 153 167 166
f 153 154 168 167
f 154 155 169 168
f 155 156 170 169
f 156 157 171 170
f 157 158 172 171
f 158 145 159 172
f 157 158 145
f 155 156 157
f 153 154 155
f 151 152 153
f 157 145 146
f 150 151 153
f 157 146 147
f 150 153 155
f 157 147 148
f 149 150 155
f 155 157 148
f 148 149 155
f 159 172 171
f 171 170 169
f 169 168 167
f 167 166 165
f 160 159 171
f 167 165 164
f 161 160 171
f 169 167 164
f 162 161 171
f 169 164 163
f 162 171 169
f 169 163 162
o tsection_1
v -2650.000000 -2843.833601 -656.083421
v -2650.000000 -2843.833601 -621.705118
v -2215.728822 -2544.340310 -485.606170
v -1772.664552 -2238.782899 -371.997803
v -1329.547737 -1933.189251 -283.625261
v -886.389318 -1627.566912 -220.496090
v -443.202047 -1321.924674 -182.616121
v -60.000000 -1057.650994 -171.698478
v -60.000000 -1057.650994 -199.262472
v -422.255391 -1307.478901 -209.583333
v -863.922057 -1612.072460 -247.333333
v -1305.588724 -1916.666019 -310.250000
v -1747.255391 -2221.259578 -398.333333
v -2188.922057 -2525.853137 -511.583333
v -2650.000000 -2811.035421 -650.000000
v -2650.000000 -2811.035421 -621.705118
v -2215.728822 -2511.542129 -485.606170
v -1772.664552 -2205.984719 -371.997803
v -1329.547737 -1900.391071 -283.625261
v -886.389318 -1594.768731 -220.496090
v -443.202047 -1289.126494 -182.616121
v -60.000000 -1024.852814 -171.698478
v -60.000000 -1024.852814 -198.709434
v -441.666667 -1288.067625 -209.583333
v -883.333333 -1592.661184 -247.333333
v -1325.000000 -1897.254743 -310.250000
v -1766.666667 -2201.848302 -398.333333
v -2208.333333 -2506.441862 -511.583333
f 173 174 188 187
f 174 175 189 188
f 175 176 190 189
f 176 177 191 190
f 177 178 192 191
f 178 179 193 192
f 179 180 194 193
f 180 181 195 194
f 181 182 196 195
f 182 183 197 196
f 183 184 198 197
f 184 185 199 198
f 185 186 200 199
f 186 173 187 200
f 174 173 186
f 176 175 174
f 178 177 176
f 180 179 178
f 182 181 180
f 174 186 185
f 182 180 178
f 176 174 185
f 183 182 178
f 176 185 184
f 183 178 176
f 176 184 183
f 200 187 188
f 188 189 190
f 190 191 192
f 192 193 194
f 194 195 196
f 199 200 188
f 192 194 196
f 199 188 190
f 192 196 197
f 198 199 190
f 190 192 197
f 197 198 190
o tsection_2
v -2712.547444 -2748.487976 -650.000000
v -2270.880778 -2443.894417 -511.583333
v -1829.214111 -2139.300858 -398.333333
v -1387.547444 -1834.707299 -310.250000
v -945.880778 -1530.113740 -247.333333
v -504.214111 -1225.520181 -209.583333
v -122.547444 -962.305369 -198.709434
v -122.547444 -962.305369 -171.698478
v -505.749491 -1226.579049 -182.616121
v -948.936762 -1532.221286 -220.496090
v -1392.095181 -1837.843626 -283.625261
v -1835.211996 -2143.437274 -371.997803
v -2278.276266 -2448.994684 -485.606170
v -2712.547444 -2748.487976 -621.705118
v -2693.136169 -2767.899252 -650.000000
v -2251.469502 -2463.305693 -511.583333
v -1809.802835 -2158.712134 -398.333333
v -1368.136169 -1854.118575 -310.250000
v -926.469502 -1549.525016 -247.333333
v -484.802835 -1244.931457 -209.583333
v -103.136169 -981.716645 -198.709434
v -103.136169 -981.716645 -171.698478
v -486.338215 -1245.990325 -182.616121
v -929.525486 -1551.632562 -220.496090
v -1372.683905 -1857.254902 -283.625261
v -1815.800720 -2162.848550 -371.997803
v -2258.864990 -2468.405960 -485.606170
v -2693.136169 -2767.899252 -621.705118
f 201 202 216 215
f 202 203 217 216
f 203 204 218 217
f 204 205 219 218
f 205 206 220 219
f 206 207 221 220
f 207 208 222 221
f 208 209 223 222
f 209 210 224 223
f 210 211 225 224
f 211 212 226 225
f 212 213 227 226
f 213 214 228 227
f 214 201 215 228
f 213 214 201
f 211 212 213
f 209 210 211
f 207 208 209
f 213 201 202
f 206 207 209
f 213 202 203
f 206 209 211
f 213 203 204
f 205 206 211
f 211 213 204
f 204 205 211
f 215 228 227
f 227 226 225
f 225 224 223
f 223 222 221
f 216 215 227
f 223 221 220
f 217 216 227
f 225 223 220
f 218 217 227
f 225 220 219
f 218 227 225
f 225 219 218
o tsection_3
v -2748.487976 -2712.547444 -650.000000
v -2748.487976 -2712.547444 -621.705118
v -2448.994684 -2278.276266 -485.606170
v -2143.437274 -1835.211996 -371.997803
v -1837.843626 -1392.095181 -283.625261
v -1532.221286 -948.936762 -220.496090
v -1226.579049 -505.749491 -182.616121
v -962.305369 -122.547444 -171.698478
v -962.305369 -122.547444 -198.709434
v -1225.520181 -504.214111 -209.583333
v -1530.113740 -945.880778 -247.333333
v -1834.707299 -1387.547444 -310.250000
v -2139.300858 -1829.214111 -398.333333
v -2443.894417 -2270.880778 -511.583333
v -2767.899252 -2693.136169 -650.000000
v -2767.899252 -2693.136169 -621.705118
v -2468.405960 -2258.864990 -485.606170
v -2162.848550 -1815.800720 -371.997803
v -1857.254902 -1372.683905 -283.625261
v -1551.632562 -929.525486 -220.496090
v -1245.990325 -486.338215 -182.616121
v -981.716645 -103.136169 -171.698478
v -981.716645 -103.136169 -198.709434
v -1244.931457 -484.802835 -209.583333
v -1549.525016 -926.469502 -247.333333
v -1854.118575 -1368.136169 -310.250000
v -2158.712134 -1809.802835 -398.333333
v -2463.305693 -2251.469502 -511.583333
f 229 230 244 243
f 230 231 245 244
f 231 232 246 245
f 232 233 247 246
f 233 234 248 247
f 234 235 249 248
f 235 236 250 249
f 236 237 251 250
f 237 238 252 251
f 238 239 253 252
f 239 240 254 253
f 240 241 255 254
f 241 242 256 255
f 242 229 243 256
f 230 229 242
f 232 231 230
f 234 233 232
f 236 235 234
f 238 237 236
f 230 242 241
f 238 236 234
f 232 230 241
f 239 238 234
f 232 241 240
f 239 234 232
f 232 240 239
f 256 243 244
f 244 245 246
f 246 247 248
f 248 249 250
f 250 251 252
f 255 256 244
f 248 250 252
f 255 244 246
f 248 252 253
f 254 255 246
f 246 248 253
f 253 254 246
o tsection_4
v -2843.833601 -2650.000000 -656.083421
v -2525.853137 -2188.922057 -511.583333
v -2221.259578 -1747.255391 -398.333333
v -1916.666019 -1305.588724 -310.250000
v -1612.072460 -863.922057 -247.333333
v -1307.478901 -422.255391 -209.583333
v -1057.650994 -60.000000 -199.262472
v -1057.650994 -60.000000 -171.698478
v -1321.924674 -443.202047 -182.616121
v -1627.566912 -886.389318 -220.496090
v -1933.189251 -1329.547737 -283.625261
v -2238.782899 -1772.664552 -371.997803
v -2544.340310 -2215.728822 -485.606170
v -2843.833601 -2650.000000 -621.705118
v -2811.035421 -2650.000000 -650.000000
v -2506.441862 -2208.333333 -511.583333
v -2201.848302 -1766.666667 -398.333333
v -1897.254743 -1325.000000 -310.250000
v -1592.661184 -883.333333 -247.333333
v -1288.067625 -441.666667 -209.583333
v -1024.852814 -60.000000 -198.709434
v -1024.852814 -60.000000 -171.698478
v -1289.126494 -443.202047 -182.616121
v -1594.768731 -886.389318 -220.496090
v -1900.391071 -1329.547737 -283.625261
v -2205.984719 -1772.664552 -371.997803
v -2511.542129 -2215.728822 -485.606170
v -2811.035421 -2650.000000 -621.705118
f 257 258 272 271
f 258 259 273 272
f 259 260 274 273
f 260 261 275 274
f 261 262 276 275
f 262 263 277 276
f 263 264 278 277
f 264 265 279 278
f 265 266 280 279
f 266 267 281 280
f 267 268 282 281
f 268 269 283 282
f 269 270 284 283
f 270 257 271 284
f 269 270 257
f 267 268 269
f 265 266 267
f 263 264 265
f 269 257 258
f 262 263 265
f 269 258 259
f 262 265 267
f 269 259 260
f 261 262 267
f 267 269 260
f 260 261 267
f 271 284 283
f 283 282 281
f 281 280 279
f 279 278 277
f 272 271 283
f 279 277 276
f 273 272 283
f 281 279 276
f 274 273 283
f 281 276 275
f 274 283 281
f 281 275 274
o tsection_5
v -2873.000000 -2650.000000 -650.000000
v -2873.000000 -2650.000000 -621.705118
v -2873.000000 -2215.728822 -485.606170
v -2873.000000 -1772.664552 -371.997803
v -2873.000000 -1329.547737 -283.625261
v -2873.000000 -886.389318 -220.496090
v -2873.000000 -443.202047 -182.616121
v -2873.000000 -60.000000 -171.698478
v -2873.000000 -60.000000 -198.709434
v -2873.000000 -441.666667 -209.583333
v -2873.000000 -883.333333 -247.333333
v -2873.000000 -1325.000000 -310.250000
v -2873.000000 -1766.666667 -398.333333
v -2873.000000 -2208.333333 -511.583333
v -2900.000000 -2650.000000 -650.000000
v -2900.000000 -2650.000000 -621.705118
v -2900.000000 -2215.728822 -485.606170
v -2900.000000 -1772.664552 -371.997803
v -2900.000000 -1329.547737 -283.625261
v -2900.000000 -886.389318 -220.496090
v -2900.000000 -443.202047 -182.616121
v -2900.000000 -60.000000 -171.698478
v -2900.000000 -60.000000 -198.709434
v -2900.000000 -441.666667 -209.583333
v -2900.000000 -883.333333 -247.333333
v -2900.000000 -1325.000000 -310.250000
v -2900.000000 -1766.666667 -398.333333
v -2900.000000 -2208.333333 -511.583333
f 285 286 300 299
f 286 287 301 300
f 287 288 302 301
f 288 289 303 302
f 289 290 304 303
f 290 291 305 304
f 291 292 306 305
f 292 293 307 306
f 293 294 308 307
f 294 295 309 308
f 295 296 310 309
f 296 297 311 310
f 297 298 312 311
f 298 285 299 312
f 286 285 298
f 288 287 286
f 290 289 288
f 292 291 290
f 294 293 292
f 286 298 297
f 294 292 290
f 288 286 297
f 295 294 290
f 288 297 296
f 295 290 288
f 288 296 295
f 312 299 300
f 300 301 302
f 302 303 304
f 304 305 306
f 306 307 308
f 311 312 300
f 304 306 308
f 311 300 302
f 304 308 309
f 310 311 302
f 302 304 309
f 309 310 302
o outer_rib_0
v 0.000000 -2900.000000 0.000000
v -2750.000000 -2900.000000 0.000000
v -2750.000000 -2900.000000 -550.000000
v -2650.000000 -2900.000000 -550.000000
v -2650.000000 -2900.000000 -650.000000
v -2208.333333 -2900.000000 -511.583333
v -1766.666667 -2900.000000 -398.333333
v -1325.000000 -2900.000000 -310.250000
v -883.333333 -2900.000000 -247.333333
v -441.666667 -2900.000000 -209.583333
v 0.000000 -2900.000000 -197.000000
v 0.000000 -3000.000000 0.000000
v -2750.000000 -3000.000000 0.000000
v -2750.000000 -3000.000000 -550.000000
v -2650.000000 -3000.000000 -550.000000
v -2650.000000 -3000.000000 -650.000000
v -2208.333333 -3000.000000 -511.583333
v -1766.666667 -3000.000000 -398.333333
v -1325.000000 -3000.000000 -310.250000
v -883.333333 -3000.000000 -247.333333
v -441.666667 -3000.000000 -209.583333
v 0.000000 -3000.000000 -197.000000
f 313 314 325 324
f 314 315 326 325
f 315 316 327 326
f 316 317 328 327
f 317 318 329 328
f 318 319 330 329
f 319 320 331 330
f 320 321 332 331
f 321 322 333 332
f 322 323 334 333
f 323 313 324 334
f 314 313 323
f 316 315 314
f 318 317 316
f 314 323 322
f 318 316 314
f 314 322 321
f 319 318 314
f 314 321 320
f 320 319 314
f 334 324 325
f 325 326 327
f 327 328 329
f 333 334 325
f 325 327 329
f 332 333 325
f 325 329 330
f 331 332 325
f 325 330 331
o outer_rib_1
v -2900.000000 0.000000 0.000000
v -2900.000000 0.000000 -197.000000
v -2900.000000 -441.666667 -209.583333
v -2900.000000 -883.333333 -247.333333
v -2900.000000 -1325.000000 -310.250000
v -2900.000000 -1766.666667 -398.333333
v -2900.000000 -2208.333333 -511.583333
v -2900.000000 -2650.000000 -650.000000
v -2900.000000 -2650.000000 -550.000000
v -2900.000000 -2750.000000 -550.000000
v -2900.000000 -2750.000000 0.000000
v -3000.000000 0.000000 0.000000
v -3000.000000 0.000000 -197.000000
v -3000.000000 -441.666667 -209.583333
v -3000.000000 -883.333333 -247.333333
v -3000.000000 -1325.000000 -310.250000
v -3000.000000 -1766.666667 -398.333333
v -3000.000000 -2208.333333 -511.583333
v -3000.000000 -2650.000000 -650.000000
v -3000.000000 -2650.000000 -550.000000
v -3000.000000 -2750.000000 -550.000000
v -3000.000000 -2750.000000 0.000000
f 335 336 347 346
f 336 337 348 347
f 337 338 349 348
f 338 339 350 349
f 339 340 351 350
f 340 341 352 351
f 341 342 353 352
f 342 343 354 353
f 343 344 355 354
f 344 345 356 355
f 345 335 346 356
f 336 335 345
f 343 342 341
f 345 344 343
f 337 336 345
f 343 341 340
f 338 337 345
f 343 340 339
f 339 338 345
f 345 343 339
f 356 346 347
f 352 353 354
f 354 355 356
f 356 347 348
f 351 352 354
f 356 348 349
f 350 351 354
f 356 349 350
f 350 354 356
o inner_rib_0
v -103.136169 -981.716645 0.000000
v -2793.136169 -2836.863831 0.000000
v -2793.136169 -2836.863831 -550.000000
v -2693.136169 -2767.899252 -550.000000
v -2693.136169 -2767.899252 -650.000000
v -2251.469502 -2463.305693 -511.583333
v -1809.802835 -2158.712134 -398.333333
v -1368.136169 -1854.118575 -310.250000
v -926.469502 -1549.525016 -247.333333
v -484.802835 -1244.931457 -209.583333
v -103.136169 -981.716645 -198.709434
v -60.000000 -1024.852814 0.000000
v -2750.000000 -2880.000000 0.000000
v -2750.000000 -2880.000000 -550.000000
v -2650.000000 -2811.035421 -550.000000
v -2650.000000 -2811.035421 -650.000000
v -2208.333333 -2506.441862 -511.583333
v -1766.666667 -2201.848302 -398.333333
v -1325.000000 -1897.254743 -310.250000
v -883.333333 -1592.661184 -247.333333
v -441.666667 -1288.067625 -209.583333
v -60.000000 -1024.852814 -198.709434
f 357 358 369 368
f 358 359 370 369
f 359 360 371 370
f 360 361 372 371
f 361 362 373 372
f 362 363 374 373
f 363 364 375 374
f 364 365 376 375
f 365 366 377 376
f 366 367 378 377
f 367 357 368 378
f 358 357 367
f 360 359 358
f 362 361 360
f 358 367 366
f 362 360 358
f 358 366 365
f 363 362 358
f 358 365 364
f 364 363 358
f 378 368 369
f 369 370 371
f 371 372 373
f 377 378 369
f 369 371 373
f 376 377 369
f 369 373 374
f 375 376 369
f 369 374 375
o inner_rib_1
v -981.716645 -103.136169 0.000000
v -981.716645 -103.136169 -198.709434
v -1244.931457 -484.802835 -209.583333
v -1549.525016 -926.469502 -247.333333
v -1854.118575 -1368.136169 -310.250000
v -2158.712134 -1809.802835 -398.333333
v -2463.305693 -2251.469502 -511.583333
v -2767.899252 -2693.136169 -650.000000
v -2767.899252 -2693.136169 -550.000000
v -2836.863831 -2793.136169 -550.000000
v -2836.863831 -2793.136169 0.000000
v -1024.852814 -60.000000 0.000000
v -1024.852814 -60.000000 -198.709434
v -1288.067625 -441.666667 -209.583333
v -1592.661184 -883.333333 -247.333333
v -1897.254743 -1325.000000 -310.250000
v -2201.848302 -1766.666667 -398.333333
v -2506.441862 -2208.333333 -511.583333
v -2811.035421 -2650.000000 -650.000000
v -2811.035421 -2650.000000 -550.000000
v -2880.000000 -2750.000000 -550.000000
v -2880.000000 -2750.000000 0.000000
f 379 380 391 390
f 380 381 392 391
f 381 382 393 392
f 382 383 394 393
f 383 384 395 394
f 384 385 396 395
f 385 386 397 396
f 386 387 398 397
f 387 388 399 398
f 388 389 400 399
f 389 379 390 400
f 380 379 389
f 387 386 385
f 389 388 387
f 381 380 389
f 387 385 384
f 382 381 389
f 387 384 383
f 383 382 389
f 389 387 383
f 400 390 391
f 396 397 398
f 398 399 400
f 400 391 392
f 395 396 398
f 400 392 393
f 394 395 398
f 400 393 394
f 394 398 400
o wedge_block_0
v -2750.000000 -3000.000000 -650.000000
v -2650.000000 -3000.000000 -650.000000
v -2650.000000 -2811.035421 -650.000000
v -2811.035421 -2650.000000 -650.000000
v -3000.000000 -2650.000000 -650.000000
v -3000.000000 -2750.000000 -650.000000
v -2880.000000 -2750.000000 -650.000000
v -2750.000000 -2880.000000 -650.000000
v -2750.000000 -3000.000000 -550.000000
v -2650.000000 -3000.000000 -550.000000
v -2650.000000 -2811.035421 -550.000000
v -2811.035421 -2650.000000 -550.000000
v -3000.000000 -2650.000000 -550.000000
v -3000.000000 -2750.000000 -550.000000
v -2880.000000 -2750.000000 -550.000000
v -2750.000000 -2880.000000 -550.000000
f 401 402 410 409
f 402 403 411 410
f 403 404 412 411
f 404 405 413 412
f 405 406 414 413
f 406 407 415 414
f 407 408 416 415
f 408 401 409 416
f 402 401 408
f 404 403 402
f 406 405 404
f 404 402 408
f 407 406 404
f 404 408 407
f 416 409 410
f 410 411 412
f 412 413 414
f 416 410 412
f 412 414 415
f 415 416 412
o wedge_column_0
v -2750.000000 -2900.000000 -550.000000
v -2650.000000 -2900.000000 -550.000000
v -2650.000000 -2811.035421 -550.000000
v -2750.000000 -2880.000000 -550.000000
v -2750.000000 -2900.000000 0.000000
v -2650.000000 -2900.000000 0.000000
v -2650.000000 -2811.035421 0.000000
v -2750.000000 -2880.000000 0.000000
f 417 418 422 421
f 418 419 423 422
f 419 420 424 423
f 420 417 421 424
f 418 417 420
f 420 419 418
f 424 421 422
f 422 423 424
o wedge_column_1
v -2793.136169 -2836.863831 -550.000000
v -2693.136169 -2767.899252 -550.000000
v -2767.899252 -2693.136169 -550.000000
v -2836.863831 -2793.136169 -550.000000
v -2793.136169 -2836.863831 0.000000
v -2693.136169 -2767.899252 0.000000
v -2767.899252 -2693.136169 0.000000
v -2836.863831 -2793.136169 0.000000
f 425 426 430 429
f 426 427 431 430
f 427 428 432 431
f 428 425 429 432
f 426 425 428
f 428 427 426
f 432 429 430
f 430 431 432
o wedge_column_2
v -2880.000000 -2750.000000 -550.000000
v -2811.035421 -2650.000000 -550.000000
v -2900.000000 -2650.000000 -550.000000
v -2900.000000 -2750.000000 -550.000000
v -2880.000000 -2750.000000 0.000000
v -2811.035421 -2650.000000 0.000000
v -2900.000000 -2650.000000 0.000000
v -2900.000000 -2750.000000 0.000000
f 433 434 438 437
f 434 435 439 438
f 435 436 440 439
f 436 433 437 440
f 434 433 436
f 436 435 434
f 440 437 438
f 438 439 440
o wedge_column_3
v -60.000000 -2900.000000 -143.000000
v -60.000000 -1024.852814 -143.000000
v -160.000000 -1093.817393 -143.000000
v -160.000000 -2900.000000 -143.000000
v -60.000000 -2900.000000 0.000000
v -60.000000 -1024.852814 0.000000
v -160.000000 -1093.817393 0.000000
v -160.000000 -2900.000000 0.000000
f 441 442 446 445
f 442 443 447 446
f 443 444 448 447
f 444 441 445 448
f 442 441 444
f 444 443 442
f 448 445 446
f 446 447 448
o wedge_column_4
v -103.136169 -981.716645 -143.000000
v -981.716645 -103.136169 -143.000000
v -1039.439183 -186.834987 -143.000000
v -186.834987 -1039.439183 -143.000000
v -103.136169 -981.716645 0.000000
v -981.716645 -103.136169 0.000000
v -1039.439183 -186.834987 0.000000
v -186.834987 -1039.439183 0.000000
f 449 450 454 453
f 450 451 455 454
f 451 452 456 455
f 452 449 453 456
f 450 449 452
f 452 451 450
f 456 453 454
f 454 455 456
o wedge_column_5
v -1024.852814 -60.000000 -143.000000
v -2900.000000 -60.000000 -143.000000
v -2900.000000 -160.000000 -143.000000
v -1093.817393 -160.000000 -143.000000
v -1024.852814 -60.000000 0.000000
v -2900.000000 -60.000000 0.000000
v -2900.000000 -160.000000 0.000000
v -1093.817393 -160.000000 0.000000
f 457 458 462 461
f 458 459 463 462
f 459 460 464 463
f 460 457 461 464
f 458 457 460
f 460 459 458
f 464 461 462
f 462 463 464