# Rhino

mtllib column_base_power_base_sherpa_150402_PB_L-140-C.mtl
usemtl Default
v 70 70 0
v 70 -70 0
v -70 -70 11.999984741210938
v -70 -70 0
v -70 70 11.999984741210938
v -70 70 0
v 70 70 11.999984741210938
v 70 -70 11.999984741210938
v 59.5 -52 11.999984741210938
v 55.75 -58.49517822265625 11.999984741210938
v 48.25 -58.49517822265625 11.999984741210938
v -48.25 -58.49517822265625 11.999984741210938
v -44.5 -52 11.999984741210938
v -59.5 -52 11.999984741210938
v -55.75 -58.49517822265625 11.999984741210938
v -48.25 -45.504791259765625 11.999984741210938
v 48.25 58.495208740234375 11.999984741210938
v 44.5 52 11.999984741210938
v 59.5 52 11.999984741210938
v 55.75 58.495208740234375 11.999984741210938
v 55.75 45.50482177734375 11.999984741210938
v 48.25 45.50482177734375 11.999984741210938
v -44.5 52 11.999984741210938
v -59.5 52 11.999984741210938
v -55.75 45.50482177734375 11.999984741210938
v -55.75 58.495208740234375 11.999984741210938
v -48.25 58.495208740234375 11.999984741210938
v 10.499999046325684 -18.1865234375 11.999984741210938
v 21 0 11.999984741210938
v -21 0 11.999984741210938
v 10.499999046325684 18.1865234375 11.999984741210938
v 59.5 -52 0
v 55.75 -58.49517822265625 0
v 48.25 -58.49517822265625 0
v -48.25 -58.49517822265625 0
v -59.5 -52 0
v -55.75 -58.49517822265625 0
v 48.25 58.495208740234375 0
v 59.5 52 0
v 55.75 58.495208740234375 0
v -59.5 52 0
v -55.75 58.495208740234375 0
v -48.25 58.495208740234375 0
v 44.5 -52 11.999984741210938
v 44.5 -52 0
v 48.25 -45.504791259765625 11.999984741210938
v 48.25 -45.504791259765625 0
v 55.75 -45.504791259765625 11.999984741210938
v 55.75 -45.504791259765625 0
v -55.75 -45.504791259765625 11.999984741210938
v -55.75 -45.504791259765625 0
v -48.25 -45.504791259765625 0
v -44.5 -52 0
v 44.5 52 0
v 55.75 45.50482177734375 0
v 48.25 45.50482177734375 0
v -48.25 45.50482177734375 11.999984741210938
v -48.25 45.50482177734375 0
v -55.75 45.50482177734375 0
v -44.5 52 0
v 53 0 137.99998474121094
v 26.500007629394531 -45.899322509765625 137.99998474121094
v -26.499980926513672 -45.899322509765625 137.99998474121094
v -52.999977111816406 0 137.99998474121094
v -26.499980926513672 45.89935302734375 137.99998474121094
v 26.500007629394531 45.89935302734375 137.99998474121094
v 53 0 149.99998474121094
v 26.500007629394531 -45.899322509765625 149.99998474121094
v -26.499980926513672 -45.899322509765625 149.99998474121094
v -52.999977111816406 0 149.99998474121094
v -26.499980926513672 45.89935302734375 149.99998474121094
v 26.500007629394531 45.89935302734375 149.99998474121094
v 31.75 0 137.99998474121094
v 15.874999046325684 27.496307373046875 137.99998474121094
v -15.874997138977051 27.496307373046875 137.99998474121094
v -31.749996185302734 0 137.99998474121094
v -15.874997138977051 -27.496307373046875 137.99998474121094
v 15.874999046325684 -27.496307373046875 137.99998474121094
v 15.874999046325684 27.496307373046875 107.99998474121094
v -15.874997138977051 27.496307373046875 107.99998474121094
v -31.749996185302734 0 107.99998474121094
v -15.874997138977051 -27.496307373046875 107.99998474121094
v 15.874999046325684 -27.496307373046875 107.99998474121094
v 31.75 0 107.99998474121094
v 14.999999046325684 0 107.99998474121094
v 7.4999990463256836 -12.990386962890625 107.99998474121094
v -7.4999971389770508 -12.990386962890625 107.99998474121094
v -14.999997138977051 0 107.99998474121094
v -7.4999971389770508 12.990386962890625 107.99998474121094
v 7.4999990463256836 12.990386962890625 107.99998474121094
v 14.999999046325684 0 63.999977111816406
v -14.999997138977051 0 63.999977111816406
v 7.4999990463256836 12.990386962890625 63.999977111816406
v 10.499999046325684 -18.1865234375 63.999977111816406
v -10.499997138977051 -18.1865234375 63.999977111816406
v -10.499997138977051 -18.1865234375 11.999984741210938
v -21 0 63.999977111816406
v -10.499997138977051 18.1865234375 63.999977111816406
v -10.499997138977051 18.1865234375 11.999984741210938
v 10.499999046325684 18.1865234375 63.999977111816406
v 21 0 63.999977111816406
v -7.4999971389770508 -12.990386962890625 63.999977111816406
v 7.4999990463256836 -12.990386962890625 63.999977111816406
v -7.4999971389770508 12.990386962890625 63.999977111816406
vt 0.52164006233215332 0.26258349418640137
vt 0.62129843235015869 0.52380204200744629
vt 0.66116166114807129 0.48959493637084961
vt 0.6910591721534729 0.48368632793426514
vt 0.52164006233215332 0.2283763587474823
vt 0.68109333515167236 0.25574207305908203
vt 0.52164006233215332 0.2283763587474823
vt 0.64123010635375977 0.40252208709716797
vt 0.37984049320220947 0.38013190031051636
vt 0.42525625228881836 0.54804617166519165
vt 0.42525622248649597 0.54804617166519165
vt 0.33634674549102783 0.38821125030517578
vt 0.35663434863090515 0.38013190031051636
vt 0.34595668315887451 0.38013190031051636
vt 0.34691765904426575 0.46812871098518372
vt 0.36197319626808167 0.37205255031585693
vt 0.36382400989532471 0.2426871657371521
vt 0.38197603821754456 0.25076651573181152
vt 0.37984049320220947 0.25076651573181152
vt 0.41671407222747803 0.2569979727268219
vt 0.38517934083938599 0.25884586572647095
vt 0.38945043087005615 0.25884586572647095
vt 0.34382113814353943 0.25076651573181152
vt 0.34595668315887451 0.25076651573181152
vt 0.34691765904426575 0.27408063411712646
vt 0.35343104600906372 0.2426871657371521
vt 0.37030178308486938 0.2569979727268219
vt 0.29541566967964172 0.53211945295333862
vt 0.35222089290618896 0.50949722528457642
vt 0.32232341170310974 0.50949722528457642
vt 0.36716967821121216 0.48687505722045898
vt 0.42312067747116089 0.56174099445343018
vt 0.42525625228881836 0.57789969444274902
vt 0.42525622248649597 0.57789969444274902
vt 0.3532174825668335 0.57789969444274902
vt 0.35535302758216858 0.56174099445343018
vt 0.3532174825668335 0.57789969444274902
vt 0.40817195177078247 0.28685152530670166
vt 0.42312067747116089 0.30301022529602051
vt 0.41671407222747803 0.28685152530670166
vt 0.35535302758216858 0.30301022529602051
vt 0.36175963282585144 0.28685152530670166
vt 0.37030178308486938 0.28685152530670166
vt 0.38197603821754456 0.38013190031051636
vt 0.40176534652709961 0.56174099445343018
vt 0.40817195177078247 0.51572877168655396
vt 0.40817195177078247 0.54558229446411133
vt 0.39454010128974915 0.44389066100120544
vt 0.41671407222747803 0.54558229446411133
vt 0.35759532451629639 0.44389066100120544
vt 0.36175963282585144 0.54558229446411133
vt 0.37030178308486938 0.54558229446411133
vt 0.36389517784118652 0.56174099445343018
vt 0.40176534652709961 0.30301022529602051
vt 0.42525625228881836 0.31916892528533936
vt 0.42525622248649597 0.31916892528533936
vt 0.3532174825668335 0.28931540250778198
vt 0.3532174825668335 0.31916892528533936
vt 0.3532174825668335 0.31916892528533936
vt 0.36389517784118652 0.30301022529602051
vt 0.27164006233215332 0.25822991132736206
vt 0.18486616015434265 0.18005214631557465
vt 0.24523061513900757 0.18005214631557465
vt 0.29427671432495117 0.2656933069229126
vt 0.32068619132041931 0.35133439302444458
vt 0.32445895671844482 0.33025074005126953
vt 0.27164006233215332 0.2283763587474823
vt 0.14336559176445007 0.17128226161003113
vt 0.20373004674911499 0.17128226161003113
vt 0.25654894113540649 0.2283763587474823
vt 0.29427674412727356 0.28547042608261108
vt 0.34709560871124268 0.34256452322006226
vt 0.4224800169467926 0.34032717347145081
vt 0.40140941739082336 0.37141543626785278
vt 0.43604066967964172 0.37452977895736694
vt 0.46469241380691528 0.30301022529602051
vt 0.49028328061103821 0.30612456798553467
vt 0.50836414098739624 0.30612456798553467
vt 0.37122717499732971 0.29678153991699219
vt 0.37122717499732971 0.29678153991699219
vt 0.38026762008666992 0.2283763587474823
vt 0.40738892555236816 0.15997117757797241
vt 0.44355064630508423 0.15997117757797241
vt 0.41642934083938599 0.2283763587474823
vt 0.33179095387458801 0.2283763587474823
vt 0.29121577739715576 0.21221765875816345
vt 0.302712082862854 0.20413830876350403
vt 0.31043559312820435 0.2283763587474823
vt 0.32538434863090515 0.24453507363796234
vt 0.33983480930328369 0.26069378852844238
vt 0.33997717499732971 0.46222919225692749
vt 0.35706144571304321 0.46222919225692749
vt 0.35524624586105347 0.5701223611831665
vt 0.30837124586105347 0.18313197791576385
vt 0.33228924870491028 0.18313197791576385
vt 0.32780462503433228 0.55462563037872314
vt 0.35022774338722229 0.2283763587474823
vt 0.35620725154876709 0.27362072467803955
vt 0.3577021062374115 0.48675906658172607
vt 0.35620725154876709 0.27362072467803955
vt 0.32630974054336548 0.2283763587474823
vt 0.32534876465797424 0.52972567081451416
vt 0.32716396450996399 0.42991179227828979
vt 0.36133253574371338 0.49454662203788757
vn 0.38268342614173889 0.65328150987625122 -0.65328150987625122
vn 0.65328150987625122 -0.38268342614173889 -0.65328150987625122
vn -0.65328150987625122 -0.38268342614173889 0.65328150987625122
vn -0.55557024478912354 -0.58793777227401733 -0.58793777227401733
vn -0.5 0.70710676908493042 0.5
vn -0.70710676908493042 0 -0.70710676908493042
vn 0.70710676908493042 0.5 0.5
vn 0.5 -0.70710676908493042 0.5
vn -0.89854252338409424 0.089007511734962463 0.42976623773574829
vn 0 0.70710676908493042 0.70710676908493042
vn 0.61237245798110962 0.35355338454246521 0.70710676908493042
vn -0.3721885085105896 0.82266438007354736 0.42976623773574829
vn -0.89854252338409424 -0.089007511734962463 0.42976623773574829
vn 0.89854252338409424 -0.089007511734962463 0.42976623773574829
vn 0.27568274736404419 0.75461322069168091 0.59544765949249268
vn -0.3721885085105896 -0.82266438007354736 0.42976623773574829
vn 0.3721885085105896 -0.82266438007354736 0.42976623773574829
vn 0.89854252338409424 0.089007511734962463 0.42976623773574829
vn -0.89854252338409424 0.089007511734962463 0.42976623773574829
vn -0.61237245798110962 -0.35355338454246521 0.70710676908493042
vn -0.3721885085105896 0.82266438007354736 0.42976623773574829
vn 0.3721885085105896 0.82266438007354736 0.42976623773574829
vn -0.89854252338409424 0.089007511734962463 0.42976623773574829
vn 0.89854252338409424 -0.089007511734962463 0.42976623773574829
vn 0.27568274736404419 0.75461322069168091 0.59544765949249268
vn 0.3721885085105896 -0.82266438007354736 0.42976623773574829
vn -0.61237245798110962 -0.35355338454246521 0.70710676908493042
vn 0.3721885085105896 -0.82266438007354736 0.42976623773574829
vn 0.89854252338409424 0.089007511734962463 0.42976623773574829
vn -0.89854252338409424 0.089007511734962463 0.42976623773574829
vn 0.3721885085105896 0.82266438007354736 0.42976623773574829
vn -0.70710676908493042 0 -0.70710676908493042
vn -0.35355338454246521 0.61237245798110962 -0.70710676908493042
vn 0.35355338454246521 0.61237245798110962 -0.70710676908493042
vn -0.35355338454246521 0.61237245798110962 -0.70710676908493042
vn 0.70710676908493042 0 -0.70710676908493042
vn 0.35355338454246521 0.61237245798110962 -0.70710676908493042
vn 0.35355338454246521 -0.61237245798110962 -0.70710676908493042
vn -0.70710676908493042 0 -0.70710676908493042
vn -0.35355338454246521 -0.61237245798110962 -0.70710676908493042
vn 0.70710676908493042 0 -0.70710676908493042
vn 0.35355338454246521 -0.61237245798110962 -0.70710676908493042
vn -0.35355338454246521 -0.61237245798110962 -0.70710676908493042
vn 0.89854252338409424 0.089007511734962463 0.42976623773574829
vn 0.61237245798110962 -0.35355338454246521 -0.70710676908493042
vn 0.35355338454246521 -0.61237245798110962 0.70710676908493042
vn 0.35355338454246521 -0.61237245798110962 -0.70710676908493042
vn -0.27568274736404419 -0.75461322069168091 0.59544765949249268
vn -0.35355338454246521 -0.61237245798110962 -0.70710676908493042
vn 0.51567286252975464 -0.61605489253997803 0.59544765949249268
vn 0.35355338454246521 -0.61237245798110962 -0.70710676908493042
vn -0.61237245798110962 -0.35355338454246521 -0.70710676908493042
vn -0.70710676908493042 0 -0.70710676908493042
vn 0.61237245798110962 -0.35355338454246521 -0.70710676908493042
vn -0.35355338454246521 0.61237245798110962 -0.70710676908493042
vn 0.61237245798110962 0.35355338454246521 -0.70710676908493042
vn -0.35355338454246521 0.61237245798110962 0.70710676908493042
vn -0.35355338454246521 0.61237245798110962 -0.70710676908493042
vn 0.35355338454246521 0.61237245798110962 -0.70710676908493042
vn -0.70710676908493042 0 -0.70710676908493042
vn 0.54173636436462402 -0.10425719618797302 -0.83405762910842896
vn 0.26111650466918945 -0.75377833843231201 -0.60302269458770752
vn -0.4330126941204071 -0.5 -0.75
vn -0.54173630475997925 0.10425721108913422 -0.83405768871307373
vn -0.21650634706020355 0.625 -0.75
vn 0.52223300933837891 0.60302269458770752 -0.60302269458770752
vn 0.45927935838699341 0.088388338685035706 0.88388347625732422
vn 0.36115756630897522 -0.41702881455421448 0.83405762910842896
vn -0.15309309959411621 -0.44194173812866211 0.88388347625732422
vn -0.54173630475997925 -0.10425721108913422 0.83405768871307373
vn -0.30618619918823242 0.35355338454246521 0.88388347625732422
vn 0.18057878315448761 0.5212860107421875 0.83405762910842896
vn 0.78334939479827881 0.15075582265853882 -0.60302275419235229
vn 0.18057875335216522 0.52128607034683228 -0.83405762910842896
vn -0.43301263451576233 0.50000011920928955 -0.74999994039535522
vn -0.78334945440292358 -0.15075559914112091 -0.60302269458770752
vn -0.21650636196136475 -0.625 -0.75
vn 0.36115756630897522 -0.41702881455421448 -0.83405762910842896
vn 0.43301263451576233 0.50000011920928955 -0.75
vn -0.26111644506454468 0.75377839803695679 -0.60302263498306274
vn -0.54173630475997925 0.10425728559494019 -0.83405768871307373
vn -0.43301272392272949 -0.5 -0.75
vn 0.26111647486686707 -0.75377833843231201 -0.60302269458770752
vn 0.54173630475997925 -0.10425715893507004 -0.83405768871307373
vn 0.78334939479827881 0.15075589716434479 -0.60302269458770752
vn 0.32732689380645752 -0.56694662570953369 -0.75592899322509766
vn -0.25000002980232239 -0.43301263451576233 -0.86602544784545898
vn -0.78334951400756836 -0.15075547993183136 -0.60302269458770752
vn -0.36115750670433044 0.41702890396118164 -0.83405762910842896
vn 0.21650631725788116 0.62500005960464478 -0.75
vn 0.78334951400756836 -0.15075547993183136 0.60302269458770752
vn -0.78334939479827881 0.15075589716434479 0.60302269458770752
vn 0.36115750670433044 0.41702890396118164 0.83405762910842896
vn 0.35355338454246521 -0.61237245798110962 0.70710676908493042
vn -0.35355338454246521 -0.61237245798110962 0.70710676908493042
vn -0.27568274736404419 -0.75461322069168091 0.59544765949249268
vn -0.70710676908493042 0 0.70710676908493042
vn -0.35355338454246521 0.61237245798110962 0.70710676908493042
vn -0.51567286252975464 0.61605489253997803 0.59544765949249268
vn 0.35355338454246521 0.61237245798110962 0.70710676908493042
vn 0.70710676908493042 0 0.70710676908493042
vn -0.32732689380645752 -0.56694662570953369 0.75592899322509766
vn 0.25000002980232239 -0.43301263451576233 0.86602544784545898
vn -0.21650631725788116 0.62500005960464478 0.75
f 6/6/6 5/5/5 7/7/7
f 1/1/1 7/7/7 8/8/8
f 2/2/2 8/8/8 3/3/3
f 4/4/4 3/3/3 5/5/5
f 24/24/24 26/26/26 5/5/5
f 27/27/27 5/5/5 26/26/26
f 3/3/3 14/14/14 24/24/24
f 25/25/25 24/24/24 14/14/14
f 23/23/23 99/99/99 18/18/18
f 30/30/30 57/57/57 25/25/25
f 23/23/23 57/57/57 99/99/99
f 27/27/27 23/23/23 17/17/17
f 5/5/5 27/27/27 17/17/17
f 99/99/99 57/57/57 30/30/30
f 12/12/12 15/15/15 3/3/3
f 14/14/14 3/3/3 15/15/15
f 16/16/16 96/96/96 30/30/30
f 96/96/96 16/16/16 13/13/13
f 13/13/13 12/12/12 11/11/11
f 44/44/44 96/96/96 13/13/13
f 50/50/50 16/16/16 30/30/30
f 30/30/30 25/25/25 50/50/50
f 12/12/12 3/3/3 11/11/11
f 22/22/22 31/31/31 29/29/29
f 18/18/18 31/31/31 22/22/22
f 19/19/19 7/7/7 20/20/20
f 17/17/17 20/20/20 7/7/7
f 19/19/19 21/21/21 48/48/48
f 7/7/7 19/19/19 9/9/9
f 21/21/21 22/22/22 29/29/29
f 46/46/46 28/28/28 44/44/44
f 29/29/29 28/28/28 46/46/46
f 28/28/28 96/96/96 44/44/44
f 29/29/29 46/46/46 48/48/48
f 8/8/8 9/9/9 10/10/10
f 11/11/11 8/8/8 10/10/10
f 48/48/48 21/21/21 29/29/29
f 4/4/4 6/6/6 41/41/41
f 42/42/42 41/41/41 6/6/6
f 59/59/59 51/51/51 36/36/36
f 6/6/6 43/43/43 42/42/42
f 52/52/52 58/58/58 56/56/56
f 43/43/43 38/38/38 60/60/60
f 6/6/6 1/1/1 38/38/38
f 58/58/58 52/52/52 51/51/51
f 37/37/37 4/4/4 36/36/36
f 52/52/52 47/47/47 53/53/53
f 4/4/4 37/37/37 35/35/35
f 53/53/53 45/45/45 34/34/34
f 35/35/35 34/34/34 4/4/4
f 60/60/60 54/54/54 56/56/56
f 39/39/39 40/40/40 1/1/1
f 38/38/38 1/1/1 40/40/40
f 39/39/39 32/32/32 49/49/49
f 1/1/1 2/2/2 32/32/32
f 55/55/55 49/49/49 47/47/47
f 34/34/34 33/33/33 2/2/2
f 32/32/32 2/2/2 33/33/33
f 45/45/45 47/47/47 46/46/46
f 47/47/47 49/49/49 48/48/48
f 49/49/49 32/32/32 9/9/9
f 32/32/32 33/33/33 10/10/10
f 33/33/33 34/34/34 11/11/11
f 34/34/34 45/45/45 44/44/44
f 53/53/53 35/35/35 12/12/12
f 35/35/35 37/37/37 15/15/15
f 37/37/37 36/36/36 14/14/14
f 36/36/36 51/51/51 50/50/50
f 51/51/51 52/52/52 16/16/16
f 52/52/52 53/53/53 13/13/13
f 54/54/54 38/38/38 17/17/17
f 38/38/38 40/40/40 20/20/20
f 40/40/40 39/39/39 19/19/19
f 39/39/39 55/55/55 21/21/21
f 55/55/55 56/56/56 22/22/22
f 56/56/56 54/54/54 18/18/18
f 60/60/60 58/58/58 57/57/57
f 58/58/58 59/59/59 25/25/25
f 59/59/59 41/41/41 24/24/24
f 41/41/41 42/42/42 26/26/26
f 42/42/42 43/43/43 27/27/27
f 43/43/43 60/60/60 23/23/23
f 61/61/61 67/67/67 68/68/68
f 62/62/62 68/68/68 69/69/69
f 63/63/63 69/69/69 70/70/70
f 64/64/64 70/70/70 71/71/71
f 65/65/65 71/71/71 72/72/72
f 66/66/66 72/72/72 67/67/67
f 62/62/62 78/78/78 61/61/61
f 73/73/73 61/61/61 78/78/78
f 63/63/63 78/78/78 62/62/62
f 66/66/66 61/61/61 74/74/74
f 73/73/73 74/74/74 61/61/61
f 65/65/65 66/66/66 74/74/74
f 64/64/64 76/76/76 77/77/77
f 78/78/78 63/63/63 77/77/77
f 63/63/63 64/64/64 77/77/77
f 65/65/65 75/75/75 64/64/64
f 76/76/76 64/64/64 75/75/75
f 74/74/74 75/75/75 65/65/65
f 73/73/73 84/84/84 79/79/79
f 74/74/74 79/79/79 80/80/80
f 75/75/75 80/80/80 81/81/81
f 76/76/76 81/81/81 82/82/82
f 77/77/77 82/82/82 83/83/83
f 78/78/78 83/83/83 84/84/84
f 87/87/87 82/82/82 81/81/81
f 86/86/86 82/82/82 87/87/87
f 88/88/88 87/87/87 81/81/81
f 80/80/80 89/89/89 81/81/81
f 88/88/88 81/81/81 89/89/89
f 79/79/79 89/89/89 80/80/80
f 84/84/84 86/86/86 85/85/85
f 82/82/82 86/86/86 83/83/83
f 83/83/83 86/86/86 84/84/84
f 79/79/79 84/84/84 90/90/90
f 85/85/85 90/90/90 84/84/84
f 89/89/89 79/79/79 90/90/90
f 91/91/91 85/85/85 86/86/86
f 102/102/102 87/87/87 88/88/88
f 92/92/92 88/88/88 89/89/89
f 93/93/93 90/90/90 85/85/85
f 29/29/29 101/101/101 94/94/94
f 28/28/28 94/94/94 95/95/95
f 96/96/96 95/95/95 97/97/97
f 30/30/30 97/97/97 98/98/98
f 99/99/99 98/98/98 100/100/100
f 31/31/31 100/100/100 101/101/101
f 103/103/103 94/94/94 101/101/101
f 102/102/102 94/94/94 103/103/103
f 91/91/91 103/103/103 101/101/101
f 101/101/101 100/100/100 93/93/93
f 98/98/98 93/93/93 100/100/100
f 91/91/91 101/101/101 93/93/93
f 97/97/97 102/102/102 92/92/92
f 94/94/94 102/102/102 95/95/95
f 95/95/95 102/102/102 97/97/97
f 98/98/98 97/97/97 104/104/104
f 92/92/92 104/104/104 97/97/97
f 93/93/93 98/98/98 104/104/104
f 102/102/102 86/86/86 87/87/87
f 86/86/86 102/102/102 103/103/103
f 90/90/90 104/104/104 89/89/89
f 104/104/104 90/90/90 93/93/93
f 6/6/6 7/7/7 1/1/1
f 1/1/1 8/8/8 2/2/2
f 2/2/2 3/3/3 4/4/4
f 4/4/4 5/5/5 6/6/6
f 3/3/3 24/24/24 5/5/5
f 25/25/25 14/14/14 50/50/50
f 99/99/99 31/31/31 18/18/18
f 23/23/23 18/18/18 17/17/17
f 5/5/5 17/17/17 7/7/7
f 13/13/13 11/11/11 44/44/44
f 3/3/3 8/8/8 11/11/11
f 19/19/19 48/48/48 9/9/9
f 7/7/7 9/9/9 8/8/8
f 4/4/4 41/41/41 36/36/36
f 59/59/59 36/36/36 41/41/41
f 52/52/52 56/56/56 47/47/47
f 38/38/38 54/54/54 60/60/60
f 6/6/6 38/38/38 43/43/43
f 58/58/58 51/51/51 59/59/59
f 47/47/47 45/45/45 53/53/53
f 53/53/53 34/34/34 35/35/35
f 34/34/34 2/2/2 4/4/4
f 60/60/60 56/56/56 58/58/58
f 39/39/39 49/49/49 55/55/55
f 1/1/1 32/32/32 39/39/39
f 55/55/55 47/47/47 56/56/56
f 45/45/45 46/46/46 44/44/44
f 47/47/47 48/48/48 46/46/46
f 49/49/49 9/9/9 48/48/48
f 32/32/32 10/10/10 9/9/9
f 33/33/33 11/11/11 10/10/10
f 34/34/34 44/44/44 11/11/11
f 53/53/53 12/12/12 13/13/13
f 35/35/35 15/15/15 12/12/12
f 37/37/37 14/14/14 15/15/15
f 36/36/36 50/50/50 14/14/14
f 51/51/51 16/16/16 50/50/50
f 52/52/52 13/13/13 16/16/16
f 54/54/54 17/17/17 18/18/18
f 38/38/38 20/20/20 17/17/17
f 40/40/40 19/19/19 20/20/20
f 39/39/39 21/21/21 19/19/19
f 55/55/55 22/22/22 21/21/21
f 56/56/56 18/18/18 22/22/22
f 60/60/60 57/57/57 23/23/23
f 58/58/58 25/25/25 57/57/57
f 59/59/59 24/24/24 25/25/25
f 41/41/41 26/26/26 24/24/24
f 42/42/42 27/27/27 26/26/26
f 43/43/43 23/23/23 27/27/27
f 61/61/61 68/68/68 62/62/62
f 62/62/62 69/69/69 63/63/63
f 63/63/63 70/70/70 64/64/64
f 64/64/64 71/71/71 65/65/65
f 65/65/65 72/72/72 66/66/66
f 66/66/66 67/67/67 61/61/61
f 73/73/73 79/79/79 74/74/74
f 74/74/74 80/80/80 75/75/75
f 75/75/75 81/81/81 76/76/76
f 76/76/76 82/82/82 77/77/77
f 77/77/77 83/83/83 78/78/78
f 78/78/78 84/84/84 73/73/73
f 91/91/91 86/86/86 103/103/103
f 102/102/102 88/88/88 92/92/92
f 92/92/92 89/89/89 104/104/104
f 93/93/93 85/85/85 91/91/91
f 29/29/29 94/94/94 28/28/28
f 28/28/28 95/95/95 96/96/96
f 96/96/96 97/97/97 30/30/30
f 30/30/30 98/98/98 99/99/99
f 99/99/99 100/100/100 31/31/31
f 31/31/31 101/101/101 29/29/29
f 71/71/71 67/67/67 72/72/72
f 70/70/70 67/67/67 71/71/71
f 70/70/70 69/69/69 67/67/67
f 68/68/68 67/67/67 69/69/69
