ISO-10303-21;
HEADER;
FILE_DESCRIPTION(('ViewDefinition [CoordinationView]'),'2;1');
FILE_NAME('','2026-08-25T22:33:17',(''),(''),'IfcOpenShell 0.8.4-e8eb5e4','IfcOpenShell 0.8.4-e8eb5e4','');
FILE_SCHEMA(('IFC4'));
ENDSEC;
DATA;
#1=IFCPROJECT('3sUkC7wJX7YO2KsoK6cuWx',$,'Default Project',$,$,$,$,(#11),#6);
#2=IFCSIUNIT(*,.LENGTHUNIT.,.MILLI.,.METRE.);
#3=IFCSIUNIT(*,.AREAUNIT.,.MILLI.,.SQUARE_METRE.);
#4=IFCSIUNIT(*,.VOLUMEUNIT.,.MILLI.,.CUBIC_METRE.);
#5=IFCSIUNIT(*,.PLANEANGLEUNIT.,$,.RADIAN.);
#6=IFCUNITASSIGNMENT((#2,#3,#4,#5));
#7=IFCCARTESIANPOINT((0.,0.,0.));
#8=IFCDIRECTION((0.,0.,1.));
#9=IFCDIRECTION((1.,0.,0.));
#10=IFCAXIS2PLACEMENT3D(#7,#8,#9);
#11=IFCGEOMETRICREPRESENTATIONCONTEXT($,'Model',3,1.E-05,#10,$);
#12=IFCGEOMETRICREPRESENTATIONSUBCONTEXT('Body','Model',*,*,*,*,#11,$,.MODEL_VIEW.,$);
#13=IFCPERSON($,'Unknown Author',$,$,$,$,$,$);
#14=IFCORGANIZATION($,'compas.dev',$,$,$);
#15=IFCPERSONANDORGANIZATION(#13,#14,$);
#16=IFCAPPLICATION(#14,'2.1.0','compas_ifc','compas_ifc v2.1.0');
#17=IFCOWNERHISTORY(#15,#16,$,$,$,$,$,1787689997);
#18=IFCSITE('3tHtjc7nr5jgzBkQG1RYLZ',$,'Default Site',$,$,$,$,$,$,$,$,$,$,$);
#19=IFCRELAGGREGATES('32_wgeJbz9WhBCS9uM5WFR',$,$,$,#1,(#18));
#20=IFCBUILDING('2m4CRJaVn9W94d1iB3r8M5',$,'Default Building 1',$,$,$,$,$,$,$,$,$);
#21=IFCRELAGGREGATES('3xPXdMrJ10m9p$kNQvg$0l',$,$,$,#18,(#20));
#22=IFCBUILDINGSTOREY('0m7IqLCab2TPo_EsuCfwjU',$,'Default Storey 1',$,$,$,$,$,$,$);
#23=IFCRELAGGREGATES('1ujAFHhVH1aQY2qKTTXzn6',$,$,$,#20,(#22));
#24=IFCBUILDINGELEMENTPROXY('2Kql6_GZL7AB$7IqyPvPMv',$,'beds_0_0_0_uncut',$,$,$,#37,$,$);
#25=IFCRELCONTAINEDINSPATIALSTRUCTURE('3VKT9zZs92mPjoBtlSBK4R',$,$,$,(#24),#22);
#26=IFCINDEXEDPOLYGONALFACE((1,2,6,5));
#27=IFCINDEXEDPOLYGONALFACE((2,3,7,6));
#28=IFCINDEXEDPOLYGONALFACE((3,4,8,7));
#29=IFCINDEXEDPOLYGONALFACE((4,1,5,8));
#30=IFCINDEXEDPOLYGONALFACE((1,4,3));
#31=IFCINDEXEDPOLYGONALFACE((3,2,1));
#32=IFCINDEXEDPOLYGONALFACE((8,5,6));
#33=IFCINDEXEDPOLYGONALFACE((6,7,8));
#34=IFCCARTESIANPOINTLIST3D(((2.69421178616157E-13,1787.63401241954,27.0000000000019),(2.83995049699115E-13,1875.14718625761,27.0000000000019),(585.656256742707,1875.14718625761,27.0000000000018),(585.656256742707,1407.97264010657,27.0000000000018),(4.6022844752214,1790.37349951013,1.93619674376474E-12),(4.60228447522141,1875.14718625761,1.93972615747384E-12),(586.393711534977,1875.14718625761,1.93972615747384E-12),(586.393711534977,1413.21756707643,1.92049447376242E-12)));
#35=IFCPOLYGONALFACESET(#34,.T.,(#26,#27,#28,#29,#30,#31,#32,#33),$);
#36=IFCSHAPEREPRESENTATION(#12,'Body','Tessellation',(#35));
#37=IFCPRODUCTDEFINITIONSHAPE($,$,(#36));
#38=IFCBUILDINGELEMENTPROXY('1WZyqtiSfAYfrRtfQrQ$Er',$,'beds_0_0_0',$,$,$,#51,$,$);
#39=IFCRELCONTAINEDINSPATIALSTRUCTURE('3MI$pnUbLAMvy6tcZAIal1',$,$,$,(#38),#22);
#40=IFCINDEXEDPOLYGONALFACE((1,2,6,5));
#41=IFCINDEXEDPOLYGONALFACE((2,3,7,6));
#42=IFCINDEXEDPOLYGONALFACE((3,4,8,7));
#43=IFCINDEXEDPOLYGONALFACE((4,1,5,8));
#44=IFCINDEXEDPOLYGONALFACE((1,4,3));
#45=IFCINDEXEDPOLYGONALFACE((3,2,1));
#46=IFCINDEXEDPOLYGONALFACE((8,5,6));
#47=IFCINDEXEDPOLYGONALFACE((6,7,8));
#48=IFCCARTESIANPOINTLIST3D(((2.27373675443232E-13,1787.63401241954,27.0000000000017),(0.,1875.14718625761,27.0000000000017),(585.656256742707,1875.14718625761,27.0000000000016),(585.656256742707,1407.97264010657,27.0000000000016),(4.60228447522081,1790.37349951013,2.03925765163149E-12),(4.60228447522081,1875.14718625761,2.04281036531029E-12),(586.393711534977,1875.14718625761,1.58806301442382E-12),(586.393711534977,1413.21756707643,1.57029944602982E-12)));
#49=IFCPOLYGONALFACESET(#48,.T.,(#40,#41,#42,#43,#44,#45,#46,#47),$);
#50=IFCSHAPEREPRESENTATION(#12,'Body','Tessellation',(#49));
#51=IFCPRODUCTDEFINITIONSHAPE($,$,(#50));
#52=IFCBUILDINGELEMENTPROXY('0qk00ThXH4qQBPV04eu5jM',$,'beds_0_1_0_uncut',$,$,$,#65,$,$);
#53=IFCRELCONTAINEDINSPATIALSTRUCTURE('0eXywlgrH3ehnD2RvOEHZX',$,$,$,(#52),#22);
#54=IFCINDEXEDPOLYGONALFACE((1,2,6,5));
#55=IFCINDEXEDPOLYGONALFACE((2,3,7,6));
#56=IFCINDEXEDPOLYGONALFACE((3,4,8,7));
#57=IFCINDEXEDPOLYGONALFACE((4,1,5,8));
#58=IFCINDEXEDPOLYGONALFACE((1,4,3));
#59=IFCINDEXEDPOLYGONALFACE((3,2,1));
#60=IFCINDEXEDPOLYGONALFACE((8,5,6));
#61=IFCINDEXEDPOLYGONALFACE((6,7,8));
#62=IFCCARTESIANPOINTLIST3D(((587.131166327251,1407.97264010657,27.0000000000016),(587.131166327251,1875.14718625761,27.0000000000017),(1026.84815286803,1875.14718625761,27.0000000000018),(1026.84815286803,1118.25623356048,27.0000000000017),(586.393711534977,1413.21756707643,1.86365105490161E-12),(586.393711534978,1875.14718625761,1.88288273861303E-12),(1027.60779276773,1875.14718625761,2.11025641405627E-12),(1027.60779276773,1122.51476949316,2.07892179512485E-12)));
#63=IFCPOLYGONALFACESET(#62,.T.,(#54,#55,#56,#57,#58,#59,#60,#61),$);
#64=IFCSHAPEREPRESENTATION(#12,'Body','Tessellation',(#63));
#65=IFCPRODUCTDEFINITIONSHAPE($,$,(#64));
#66=IFCBUILDINGELEMENTPROXY('0Ih6Xo4ynALwI7cKt6enCf',$,'beds_0_1_0',$,$,$,#79,$,$);
#67=IFCRELCONTAINEDINSPATIALSTRUCTURE('0jIU$NuhzDse23w1zP71vJ',$,$,$,(#66),#22);
#68=IFCINDEXEDPOLYGONALFACE((1,2,6,5));
#69=IFCINDEXEDPOLYGONALFACE((2,3,7,6));
#70=IFCINDEXEDPOLYGONALFACE((3,4,8,7));
#71=IFCINDEXEDPOLYGONALFACE((4,1,5,8));
#72=IFCINDEXEDPOLYGONALFACE((1,4,3));
#73=IFCINDEXEDPOLYGONALFACE((3,2,1));
#74=IFCINDEXEDPOLYGONALFACE((8,5,6));
#75=IFCINDEXEDPOLYGONALFACE((6,7,8));
#76=IFCCARTESIANPOINTLIST3D(((587.131166327251,1407.97264010657,27.0000000000013),(587.131166327251,1875.14718625761,27.0000000000014),(1026.84815286803,1875.14718625761,27.0000000000016),(1026.84815286803,1118.25623356048,27.0000000000016),(586.393711534977,1413.21756707643,1.45661260830821E-12),(586.393711534977,1875.14718625761,1.47437617670221E-12),(1027.60779276773,1875.14718625761,2.0996537841711E-12),(1027.60779276773,1122.51476949316,2.06767936106189E-12)));
#77=IFCPOLYGONALFACESET(#76,.T.,(#68,#69,#70,#71,#72,#73,#74,#75),$);
#78=IFCSHAPEREPRESENTATION(#12,'Body','Tessellation',(#77));
#79=IFCPRODUCTDEFINITIONSHAPE($,$,(#78));
#80=IFCBUILDINGELEMENTPROXY('0ikMScytb5meT9BUGMalPE',$,'beds_0_2_0_uncut',$,$,$,#93,$,$);
#81=IFCRELCONTAINEDINSPATIALSTRUCTURE('0CwLYpcGH6bvbYrBln25zF',$,$,$,(#80),#22);
#82=IFCINDEXEDPOLYGONALFACE((1,2,6,5));
#83=IFCINDEXEDPOLYGONALFACE((2,3,7,6));
#84=IFCINDEXEDPOLYGONALFACE((3,4,8,7));
#85=IFCINDEXEDPOLYGONALFACE((4,1,5,8));
#86=IFCINDEXEDPOLYGONALFACE((1,4,3));
#87=IFCINDEXEDPOLYGONALFACE((3,2,1));
#88=IFCINDEXEDPOLYGONALFACE((8,5,6));
#89=IFCINDEXEDPOLYGONALFACE((6,7,8));
#90=IFCCARTESIANPOINTLIST3D(((1028.36743266742,1118.25623356048,27.0000000000022),(1028.36743266742,1875.14718625761,27.0000000000022),(1462.30494028976,1875.14718625761,27.000000000002),(1462.30494028976,828.499584573262,27.000000000002),(1027.60779276773,1122.51476949316,2.4199823082897E-12),(1027.60779276773,1875.14718625761,2.45131692722111E-12),(1463.08277942703,1875.14718625761,2.19552154234748E-12),(1463.08277942703,831.731487025748,2.15208063733963E-12)));
#91=IFCPOLYGONALFACESET(#90,.T.,(#82,#83,#84,#85,#86,#87,#88,#89),$);
#92=IFCSHAPEREPRESENTATION(#12,'Body','Tessellation',(#91));
#93=IFCPRODUCTDEFINITIONSHAPE($,$,(#92));
#94=IFCBUILDINGELEMENTPROXY('0ABh7Frn5F384s5YBtGJ06',$,'beds_0_2_0',$,$,$,#107,$,$);
#95=IFCRELCONTAINEDINSPATIALSTRUCTURE('14v6gmpqP6VQ4uz2R6$f2B',$,$,$,(#94),#22);
#96=IFCINDEXEDPOLYGONALFACE((1,2,6,5));
#97=IFCINDEXEDPOLYGONALFACE((2,3,7,6));
#98=IFCINDEXEDPOLYGONALFACE((3,4,8,7));
#99=IFCINDEXEDPOLYGONALFACE((4,1,5,8));
#100=IFCINDEXEDPOLYGONALFACE((1,4,3));
#101=IFCINDEXEDPOLYGONALFACE((3,2,1));
#102=IFCINDEXEDPOLYGONALFACE((8,5,6));
#103=IFCINDEXEDPOLYGONALFACE((6,7,8));
#104=IFCCARTESIANPOINTLIST3D(((1028.36743266742,1118.25623356048,27.0000000000018),(1028.36743266742,1875.14718625761,27.0000000000018),(1462.30494028976,1875.14718625761,27.0000000000021),(1462.30494028976,828.499584573261,27.0000000000021),(1027.60779276773,1122.51476949316,2.06767936106189E-12),(1027.60779276773,1875.14718625761,2.0996537841711E-12),(1463.08277942703,1875.14718625761,1.87228010872786E-12),(1463.08277942703,831.731487025748,1.82964754458226E-12)));
#105=IFCPOLYGONALFACESET(#104,.T.,(#96,#97,#98,#99,#100,#101,#102,#103),$);
#106=IFCSHAPEREPRESENTATION(#12,'Body','Tessellation',(#105));
#107=IFCPRODUCTDEFINITIONSHAPE($,$,(#106));
#108=IFCBUILDINGELEMENTPROXY('2rVyhzPQP5BxkzQsbX1maV',$,'beds_0_3_0_uncut',$,$,$,#121,$,$);
#109=IFCRELCONTAINEDINSPATIALSTRUCTURE('1cxbmSUbHCBROQu3o2Ylho',$,$,$,(#108),#22);
#110=IFCINDEXEDPOLYGONALFACE((1,2,6,5));
#111=IFCINDEXEDPOLYGONALFACE((2,3,7,6));
#112=IFCINDEXEDPOLYGONALFACE((3,4,8,7));
#113=IFCINDEXEDPOLYGONALFACE((4,1,5,8));
#114=IFCINDEXEDPOLYGONALFACE((1,4,3));
#115=IFCINDEXEDPOLYGONALFACE((3,2,1));
#116=IFCINDEXEDPOLYGONALFACE((8,5,6));
#117=IFCINDEXEDPOLYGONALFACE((6,7,8));
#118=IFCCARTESIANPOINTLIST3D(((1463.86061856429,828.499584573261,27.0000000000021),(1463.86061856429,1875.14718625761,27.0000000000022),(1893.41303734777,1875.14718625761,27.0000000000013),(1893.41303734777,538.710926934456,27.0000000000013),(1463.08277942702,831.731487025748,2.18050234677004E-12),(1463.08277942703,1875.14718625761,2.22394325177788E-12),(1894.20441866203,1875.14718625761,1.37129196886576E-12),(1894.20441866203,540.8841872555,1.31574211252585E-12)));
#119=IFCPOLYGONALFACESET(#118,.T.,(#110,#111,#112,#113,#114,#115,#116,#117),$);
#120=IFCSHAPEREPRESENTATION(#12,'Body','Tessellation',(#119));
#121=IFCPRODUCTDEFINITIONSHAPE($,$,(#120));
#122=IFCBUILDINGELEMENTPROXY('2nURHsQkLDsvaxg8k3H_FI',$,'beds_0_3_0',$,$,$,#135,$,$);
#123=IFCRELCONTAINEDINSPATIALSTRUCTURE('3flE_lq4T8Wh038a0B4sFU',$,$,$,(#122),#22);
#124=IFCINDEXEDPOLYGONALFACE((1,2,6,5));
#125=IFCINDEXEDPOLYGONALFACE((2,3,7,6));
#126=IFCINDEXEDPOLYGONALFACE((3,4,8,7));
#127=IFCINDEXEDPOLYGONALFACE((4,1,5,8));
#128=IFCINDEXEDPOLYGONALFACE((1,4,3));
#129=IFCINDEXEDPOLYGONALFACE((3,2,1));
#130=IFCINDEXEDPOLYGONALFACE((8,5,6));
#131=IFCINDEXEDPOLYGONALFACE((6,7,8));
#132=IFCCARTESIANPOINTLIST3D(((1463.86061856429,828.499584573261,27.0000000000022),(1463.86061856429,1875.14718625761,27.0000000000022),(1893.41303734777,1875.14718625761,27.0000000000008),(1893.41303734777,538.710926934457,27.0000000000008),(1463.08277942703,831.731487025748,1.91491267287347E-12),(1463.08277942703,1875.14718625761,1.95754523701908E-12),(1894.20441866203,1875.14718625761,1.4459544672718E-12),(1894.20441866203,540.8841872555,1.389111048411E-12)));
#133=IFCPOLYGONALFACESET(#132,.T.,(#124,#125,#126,#127,#128,#129,#130,#131),$);
#134=IFCSHAPEREPRESENTATION(#12,'Body','Tessellation',(#133));
#135=IFCPRODUCTDEFINITIONSHAPE($,$,(#134));
#136=IFCBUILDINGELEMENTPROXY('0Z_BRCv55DyAPFPuHBshfW',$,'beds_0_4_0_uncut',$,$,$,#149,$,$);
#137=IFCRELCONTAINEDINSPATIALSTRUCTURE('369Lsg7hX2e92dghJiuDi5',$,$,$,(#136),#22);
#138=IFCINDEXEDPOLYGONALFACE((1,2,6,5));
#139=IFCINDEXEDPOLYGONALFACE((2,3,7,6));
#140=IFCINDEXEDPOLYGONALFACE((3,4,8,7));
#141=IFCINDEXEDPOLYGONALFACE((4,1,5,8));
#142=IFCINDEXEDPOLYGONALFACE((1,4,3));
#143=IFCINDEXEDPOLYGONALFACE((3,2,1));
#144=IFCINDEXEDPOLYGONALFACE((8,5,6));
#145=IFCINDEXEDPOLYGONALFACE((6,7,8));
#146=IFCCARTESIANPOINTLIST3D(((1894.9957999763,538.710926934456,27.0000000000007),(1894.9957999763,1875.14718625761,27.0000000000008),(2321.60006165943,1875.14718625761,27.0000000000003),(2321.60006165943,248.899996433842,27.0000000000003),(1894.20441866203,540.8841872555,6.90464505056965E-13),(1894.20441866203,1875.14718625761,7.46014361396874E-13),(2322.39979680718,1875.14718625761,3.6232128408642E-13),(2322.39979680718,249.992341762212,2.94660621826173E-13)));
#147=IFCPOLYGONALFACESET(#146,.T.,(#138,#139,#140,#141,#142,#143,#144,#145),$);
#148=IFCSHAPEREPRESENTATION(#12,'Body','Tessellation',(#147));
#149=IFCPRODUCTDEFINITIONSHAPE($,$,(#148));
#150=IFCBUILDINGELEMENTPROXY('0xAuYgvL10U8keD95k_8Gc',$,'beds_0_4_0',$,$,$,#163,$,$);
#151=IFCRELCONTAINEDINSPATIALSTRUCTURE('0BI4DcLWXCLhLgemmPzy2f',$,$,$,(#150),#22);
#152=IFCINDEXEDPOLYGONALFACE((1,2,6,5));
#153=IFCINDEXEDPOLYGONALFACE((2,3,7,6));
#154=IFCINDEXEDPOLYGONALFACE((3,4,8,7));
#155=IFCINDEXEDPOLYGONALFACE((4,1,5,8));
#156=IFCINDEXEDPOLYGONALFACE((1,4,3));
#157=IFCINDEXEDPOLYGONALFACE((3,2,1));
#158=IFCINDEXEDPOLYGONALFACE((8,5,6));
#159=IFCINDEXEDPOLYGONALFACE((6,7,8));
#160=IFCCARTESIANPOINTLIST3D(((1894.9957999763,538.710926934457,27.0000000000006),(1894.9957999763,1875.14718625761,27.0000000000007),(2321.60006165943,1875.14718625761,27.0000000000004),(2321.60006165943,248.899996433842,27.0000000000004),(1894.20441866203,540.8841872555,1.10489395410696E-12),(1894.20441866203,1875.14718625761,1.16173737296776E-12),(2322.39979680718,1875.14718625761,6.75015598972095E-14),(2322.39979680718,249.992341762212,0.)));
#161=IFCPOLYGONALFACESET(#160,.T.,(#152,#153,#154,#155,#156,#157,#158,#159),$);
#162=IFCSHAPEREPRESENTATION(#12,'Body','Tessellation',(#161));
#163=IFCPRODUCTDEFINITIONSHAPE($,$,(#162));
#164=IFCBUILDINGELEMENTPROXY('2FX84mdVz3RBhzNUcJ7H6R',$,'beds_0_5_0_uncut',$,$,$,#177,$,$);
#165=IFCRELCONTAINEDINSPATIALSTRUCTURE('30UIN0o6fD$gGRTidfXYSG',$,$,$,(#164),#22);
#166=IFCINDEXEDPOLYGONALFACE((1,2,6,5));
#167=IFCINDEXEDPOLYGONALFACE((2,3,7,6));
#168=IFCINDEXEDPOLYGONALFACE((3,4,8,7));
#169=IFCINDEXEDPOLYGONALFACE((4,1,5,8));
#170=IFCINDEXEDPOLYGONALFACE((1,4,3));
#171=IFCINDEXEDPOLYGONALFACE((3,2,1));
#172=IFCINDEXEDPOLYGONALFACE((8,5,6));
#173=IFCINDEXEDPOLYGONALFACE((6,7,8));
#174=IFCCARTESIANPOINTLIST3D(((2323.19953195494,248.899996433842,27.000000000001),(2323.19953195494,1875.14718625761,27.0000000000011),(2688.29563391313,1875.14718625761,27.0000000000016),(2688.29563391313,-2.18573572709237E-13,27.0000000000015),(2322.39979680718,249.992341762212,1.02474328281968E-12),(2322.39979680718,1875.14718625761,1.09240394507992E-12),(2689.09819296824,1875.14718625761,1.65084612646638E-12),(2689.09819296824,-2.18386139826387E-13,1.57277744218847E-12)));
#175=IFCPOLYGONALFACESET(#174,.T.,(#166,#167,#168,#169,#170,#171,#172,#173),$);
#176=IFCSHAPEREPRESENTATION(#12,'Body','Tessellation',(#175));
#177=IFCPRODUCTDEFINITIONSHAPE($,$,(#176));
#178=IFCBUILDINGELEMENTPROXY('0pdDoG64r1I8SL6aerHhUe',$,'beds_0_5_0',$,$,$,#191,$,$);
#179=IFCRELCONTAINEDINSPATIALSTRUCTURE('3PdpQG_VH8c9dkJKFGDOzU',$,$,$,(#178),#22);
#180=IFCINDEXEDPOLYGONALFACE((1,2,6,5));
#181=IFCINDEXEDPOLYGONALFACE((2,3,7,6));
#182=IFCINDEXEDPOLYGONALFACE((3,4,8,7));
#183=IFCINDEXEDPOLYGONALFACE((4,1,5,8));
#184=IFCINDEXEDPOLYGONALFACE((1,4,3));
#185=IFCINDEXEDPOLYGONALFACE((3,2,1));
#186=IFCINDEXEDPOLYGONALFACE((8,5,6));
#187=IFCINDEXEDPOLYGONALFACE((6,7,8));
#188=IFCCARTESIANPOINTLIST3D(((2323.19953195494,248.899996433842,27.0000000000011),(2323.19953195494,1875.14718625761,27.0000000000011),(2688.29563391313,1875.14718625761,27.0000000000017),(2688.29563391313,5.6843418860808E-14,27.0000000000016),(2322.39979680718,249.992341762212,5.86197757002083E-13),(2322.39979680718,1875.14718625761,6.53699316899292E-13),(2689.09819296824,1875.14718625761,1.72661884789704E-12),(2689.09819296824,-1.13686837721616E-13,1.64845914696343E-12)));
#189=IFCPOLYGONALFACESET(#188,.T.,(#180,#181,#182,#183,#184,#185,#186,#187),$);
#190=IFCSHAPEREPRESENTATION(#12,'Body','Tessellation',(#189));
#191=IFCPRODUCTDEFINITIONSHAPE($,$,(#190));
#192=IFCBUILDINGELEMENTPROXY('0VfCbFz4nDtOlys8c7LKLu',$,'beds_1_0_0_uncut',$,$,$,#205,$,$);
#193=IFCRELCONTAINEDINSPATIALSTRUCTURE('0Qmwl0h5LC$Qr5oaE05aMz',$,$,$,(#192),#22);
#194=IFCINDEXEDPOLYGONALFACE((1,2,6,5));
#195=IFCINDEXEDPOLYGONALFACE((2,3,7,6));
#196=IFCINDEXEDPOLYGONALFACE((3,4,8,7));
#197=IFCINDEXEDPOLYGONALFACE((4,1,5,8));
#198=IFCINDEXEDPOLYGONALFACE((1,4,3));
#199=IFCINDEXEDPOLYGONALFACE((3,2,1));
#200=IFCINDEXEDPOLYGONALFACE((8,5,6));
#201=IFCINDEXEDPOLYGONALFACE((6,7,8));
#202=IFCCARTESIANPOINTLIST3D(((4.54747350886464E-13,2578.24214668677,27.3900826259133),(686.638505440281,2703.39629411722,27.494561928649),(686.638505440281,2389.28082804593,27.4945619286491),(6.82121026329696E-13,2514.43497547637,27.3900826259134),(2.57946946392948,2577.33908359892,1.13686837721616E-13),(684.686748870634,2701.6673208502,0.103789828823892),(684.686748870634,2391.00980131294,0.103789828823892),(2.57946946392948,2515.33803856423,1.13686837721616E-13)));
#203=IFCPOLYGONALFACESET(#202,.T.,(#194,#195,#196,#197,#198,#199,#200,#201),$);
#204=IFCSHAPEREPRESENTATION(#12,'Body','Tessellation',(#203));
#205=IFCPRODUCTDEFINITIONSHAPE($,$,(#204));
#206=IFCBUILDINGELEMENTPROXY('0fwmvOw35EHvl2OSTGHqmW',$,'beds_1_0_0',$,$,$,#219,$,$);
#207=IFCRELCONTAINEDINSPATIALSTRUCTURE('2lsJcfoLP0oBxMIV7e6QEI',$,$,$,(#206),#22);
#208=IFCINDEXEDPOLYGONALFACE((1,2,6,5));
#209=IFCINDEXEDPOLYGONALFACE((2,3,7,6));
#210=IFCINDEXEDPOLYGONALFACE((3,4,8,7));
#211=IFCINDEXEDPOLYGONALFACE((4,1,5,8));
#212=IFCINDEXEDPOLYGONALFACE((1,4,3));
#213=IFCINDEXEDPOLYGONALFACE((3,2,1));
#214=IFCINDEXEDPOLYGONALFACE((8,5,6));
#215=IFCINDEXEDPOLYGONALFACE((6,7,8));
#216=IFCCARTESIANPOINTLIST3D(((2.27373675443232E-13,2578.24214668677,27.390082625913),(686.638505440281,2703.39629411722,27.4945619286486),(686.638505440281,2389.28082804593,27.4945619286487),(4.54747350886464E-13,2514.43497547637,27.390082625913),(2.5794694639294,2577.33908359892,0.),(684.686748870634,2701.6673208502,0.103789828823551),(684.686748870634,2391.00980131294,0.103789828823551),(2.57946946392917,2515.33803856423,0.)));
#217=IFCPOLYGONALFACESET(#216,.T.,(#208,#209,#210,#211,#212,#213,#214,#215),$);
#218=IFCSHAPEREPRESENTATION(#12,'Body','Tessellation',(#217));
#219=IFCPRODUCTDEFINITIONSHAPE($,$,(#218));
#220=IFCBUILDINGELEMENTPROXY('0ZdVZgYDf6Yxf0VvERZxkt',$,'beds_1_1_0_uncut',$,$,$,#233,$,$);
#221=IFCRELCONTAINEDINSPATIALSTRUCTURE('2ZlyokTZv81xs8sUd6O4lE',$,$,$,(#220),#22);
#222=IFCINDEXEDPOLYGONALFACE((1,2,6,5));
#223=IFCINDEXEDPOLYGONALFACE((2,3,7,6));
#224=IFCINDEXEDPOLYGONALFACE((3,4,8,7));
#225=IFCINDEXEDPOLYGONALFACE((4,1,5,8));
#226=IFCINDEXEDPOLYGONALFACE((1,4,3));
#227=IFCINDEXEDPOLYGONALFACE((3,2,1));
#228=IFCINDEXEDPOLYGONALFACE((8,5,6));
#229=IFCINDEXEDPOLYGONALFACE((6,7,8));
#230=IFCCARTESIANPOINTLIST3D(((687.924268641177,2703.39629411722,27.3724937889879),(1205.77133977117,2798.90037354726,27.451289691761),(1205.77133977117,2293.77674861589,27.4512896917611),(687.924268641177,2389.28082804593,27.372493788988),(684.686748870634,2701.6673208502,0.103789828823949),(1204.29692246238,2797.49656090572,0.182854006263256),(1204.29692246238,2295.18056125743,0.182854006263369),(684.686748870634,2391.00980131294,0.103789828824006)));
#231=IFCPOLYGONALFACESET(#230,.T.,(#222,#223,#224,#225,#226,#227,#228,#229),$);
#232=IFCSHAPEREPRESENTATION(#12,'Body','Tessellation',(#231));
#233=IFCPRODUCTDEFINITIONSHAPE($,$,(#232));
#234=IFCBUILDINGELEMENTPROXY('0WGZOjSE5899LLaE53o2_5',$,'beds_1_1_0',$,$,$,#247,$,$);
#235=IFCRELCONTAINEDINSPATIALSTRUCTURE('3vDHKqsOXAXP61X_bsJRpA',$,$,$,(#234),#22);
#236=IFCINDEXEDPOLYGONALFACE((1,2,6,5));
#237=IFCINDEXEDPOLYGONALFACE((2,3,7,6));
#238=IFCINDEXEDPOLYGONALFACE((3,4,8,7));
#239=IFCINDEXEDPOLYGONALFACE((4,1,5,8));
#240=IFCINDEXEDPOLYGONALFACE((1,4,3));
#241=IFCINDEXEDPOLYGONALFACE((3,2,1));
#242=IFCINDEXEDPOLYGONALFACE((8,5,6));
#243=IFCINDEXEDPOLYGONALFACE((6,7,8));
#244=IFCCARTESIANPOINTLIST3D(((687.924268641177,2703.39629411722,27.3724937889878),(1205.77133977117,2798.90037354726,27.4512896917607),(1205.77133977117,2293.77674861589,27.4512896917608),(687.924268641177,2389.28082804593,27.3724937889879),(684.686748870634,2701.6673208502,0.103789828823324),(1204.29692246237,2797.49656090572,0.182854006262858),(1204.29692246238,2295.18056125743,0.182854006262971),(684.686748870634,2391.00980131294,0.103789828823381)));
#245=IFCPOLYGONALFACESET(#244,.T.,(#236,#237,#238,#239,#240,#241,#242,#243),$);
#246=IFCSHAPEREPRESENTATION(#12,'Body','Tessellation',(#245));
#247=IFCPRODUCTDEFINITIONSHAPE($,$,(#246));
#248=IFCBUILDINGELEMENTPROXY('1SlZJLXj5FagbRrlMshgSC',$,'beds_1_2_0_uncut',$,$,$,#261,$,$);
#249=IFCRELCONTAINEDINSPATIALSTRUCTURE('1CJZ4cOz17u8QOSP$GFuUR',$,$,$,(#248),#22);
#250=IFCINDEXEDPOLYGONALFACE((1,2,6,5));
#251=IFCINDEXEDPOLYGONALFACE((2,3,7,6));
#252=IFCINDEXEDPOLYGONALFACE((3,4,8,7));
#253=IFCINDEXEDPOLYGONALFACE((4,1,5,8));
#254=IFCINDEXEDPOLYGONALFACE((1,4,3));
#255=IFCINDEXEDPOLYGONALFACE((3,2,1));
#256=IFCINDEXEDPOLYGONALFACE((8,5,6));
#257=IFCINDEXEDPOLYGONALFACE((6,7,8));
#258=IFCCARTESIANPOINTLIST3D(((1207.07948186244,2798.90037354726,27.3489883341308),(1720.04839595309,2894.41771876828,27.4270419737749),(1720.04839595309,2198.25940339486,27.427041973775),(1207.07948186244,2293.77674861589,27.348988334131),(1204.29692246238,2797.49656090572,0.182854006263682),(1719.08333086539,2893.35233254383,0.261184196868697),(1719.08333086539,2199.32478961932,0.26118419686884),(1204.29692246238,2295.18056125743,0.182854006263767)));
#259=IFCPOLYGONALFACESET(#258,.T.,(#250,#251,#252,#253,#254,#255,#256,#257),$);
#260=IFCSHAPEREPRESENTATION(#12,'Body','Tessellation',(#259));
#261=IFCPRODUCTDEFINITIONSHAPE($,$,(#260));
#262=IFCBUILDINGELEMENTPROXY('2QHSZdkNrAAgt8BCz$owjS',$,'beds_1_2_0',$,$,$,#275,$,$);
#263=IFCRELCONTAINEDINSPATIALSTRUCTURE('30QcuVi8X7g8w1YaTkMvlt',$,$,$,(#262),#22);
#264=IFCINDEXEDPOLYGONALFACE((1,2,6,5));
#265=IFCINDEXEDPOLYGONALFACE((2,3,7,6));
#266=IFCINDEXEDPOLYGONALFACE((3,4,8,7));
#267=IFCINDEXEDPOLYGONALFACE((4,1,5,8));
#268=IFCINDEXEDPOLYGONALFACE((1,4,3));
#269=IFCINDEXEDPOLYGONALFACE((3,2,1));
#270=IFCINDEXEDPOLYGONALFACE((8,5,6));
#271=IFCINDEXEDPOLYGONALFACE((6,7,8));
#272=IFCCARTESIANPOINTLIST3D(((1207.07948186244,2798.90037354726,27.3489883341308),(1720.04839595309,2894.41771876828,27.4270419737748),(1720.04839595309,2198.25940339486,27.4270419737749),(1207.07948186244,2293.77674861589,27.3489883341309),(1204.29692246238,2797.49656090572,0.182854006263625),(1719.08333086539,2893.35233254383,0.261184196868669),(1719.08333086539,2199.32478961932,0.261184196868811),(1204.29692246238,2295.18056125743,0.18285400626371)));
#273=IFCPOLYGONALFACESET(#272,.T.,(#264,#265,#266,#267,#268,#269,#270,#271),$);
#274=IFCSHAPEREPRESENTATION(#12,'Body','Tessellation',(#273));
#275=IFCPRODUCTDEFINITIONSHAPE($,$,(#274));
#276=IFCBUILDINGELEMENTPROXY('18ejcdRlL6bwNbLfddZ$ma',$,'beds_1_3_0_uncut',$,$,$,#289,$,$);
#277=IFCRELCONTAINEDINSPATIALSTRUCTURE('2ihWeSh8nEqQ5HkTU8O$MU',$,$,$,(#276),#22);
#278=IFCINDEXEDPOLYGONALFACE((1,2,6,5));
#279=IFCINDEXEDPOLYGONALFACE((2,3,7,6));
#280=IFCINDEXEDPOLYGONALFACE((3,4,8,7));
#281=IFCINDEXEDPOLYGONALFACE((4,1,5,8));
#282=IFCINDEXEDPOLYGONALFACE((1,4,3));
#283=IFCINDEXEDPOLYGONALFACE((3,2,1));
#284=IFCINDEXEDPOLYGONALFACE((8,5,6));
#285=IFCINDEXEDPOLYGONALFACE((6,7,8));
#286=IFCCARTESIANPOINTLIST3D(((1721.37443972914,2894.41771876828,27.3474537730399),(2230.65546383321,2989.94561553811,27.4249462612628),(2230.65546383321,2102.73150662503,27.4249462612629),(1721.37443972914,2198.25940339486,27.34745377304),(1719.08333086539,2893.35233254383,0.261184196868484),(2230.22483616722,2989.22920727944,0.338959776961019),(2230.22483616722,2103.44791488371,0.33895977696119),(1719.08333086539,2199.32478961932,0.261184196868626)));
#287=IFCPOLYGONALFACESET(#286,.T.,(#278,#279,#280,#281,#282,#283,#284,#285),$);
#288=IFCSHAPEREPRESENTATION(#12,'Body','Tessellation',(#287));
#289=IFCPRODUCTDEFINITIONSHAPE($,$,(#288));
#290=IFCBUILDINGELEMENTPROXY('2PKJzd91988P24WLk07Npf',$,'beds_1_3_0',$,$,$,#303,$,$);
#291=IFCRELCONTAINEDINSPATIALSTRUCTURE('1AUVSWpvXD$QSph$RxzXxz',$,$,$,(#290),#22);
#292=IFCINDEXEDPOLYGONALFACE((1,2,6,5));
#293=IFCINDEXEDPOLYGONALFACE((2,3,7,6));
#294=IFCINDEXEDPOLYGONALFACE((3,4,8,7));
#295=IFCINDEXEDPOLYGONALFACE((4,1,5,8));
#296=IFCINDEXEDPOLYGONALFACE((1,4,3));
#297=IFCINDEXEDPOLYGONALFACE((3,2,1));
#298=IFCINDEXEDPOLYGONALFACE((8,5,6));
#299=IFCINDEXEDPOLYGONALFACE((6,7,8));
#300=IFCCARTESIANPOINTLIST3D(((1721.37443972914,2894.41771876828,27.3474537730403),(2230.65546383321,2989.94561553811,27.4249462612627),(2230.65546383321,2102.73150662503,27.4249462612629),(1721.37443972914,2198.25940339486,27.3474537730405),(1719.08333086539,2893.35233254383,0.26118419686857),(2230.22483616722,2989.22920727944,0.338959776961133),(2230.22483616722,2103.44791488371,0.338959776961303),(1719.08333086539,2199.32478961932,0.261184196868712)));
#301=IFCPOLYGONALFACESET(#300,.T.,(#292,#293,#294,#295,#296,#297,#298,#299),$);
#302=IFCSHAPEREPRESENTATION(#12,'Body','Tessellation',(#301));
#303=IFCPRODUCTDEFINITIONSHAPE($,$,(#302));
#304=IFCBUILDINGELEMENTPROXY('0Z2B4kdPfAPhjjp2mpahSf',$,'beds_1_4_0_uncut',$,$,$,#317,$,$);
#305=IFCRELCONTAINEDINSPATIALSTRUCTURE('2CBE6ixtP93e7QUS_UiwKe',$,$,$,(#304),#22);
#306=IFCINDEXEDPOLYGONALFACE((1,2,6,5));
#307=IFCINDEXEDPOLYGONALFACE((2,3,7,6));
#308=IFCINDEXEDPOLYGONALFACE((3,4,8,7));
#309=IFCINDEXEDPOLYGONALFACE((4,1,5,8));
#310=IFCINDEXEDPOLYGONALFACE((1,4,3));
#311=IFCINDEXEDPOLYGONALFACE((3,2,1));
#312=IFCINDEXEDPOLYGONALFACE((8,5,6));
#313=IFCINDEXEDPOLYGONALFACE((6,7,8));
#314=IFCCARTESIANPOINTLIST3D(((2231.9945675499,2989.94561553811,27.3704997783683),(2738.80279922761,3085.48085448503,27.4476160050996),(2738.80279922761,2007.19626767811,27.4476160050998),(2231.9945675499,2102.73150662503,27.3704997783685),(2230.22483616722,2989.22920727944,0.338959776961488),(2738.92332303677,3085.12076636904,0.416363625990229),(2738.92332303677,2007.55635579411,0.416363625990442),(2230.22483616722,2103.44791488371,0.338959776961666)));
#315=IFCPOLYGONALFACESET(#314,.T.,(#306,#307,#308,#309,#310,#311,#312,#313),$);
#316=IFCSHAPEREPRESENTATION(#12,'Body','Tessellation',(#315));
#317=IFCPRODUCTDEFINITIONSHAPE($,$,(#316));
#318=IFCBUILDINGELEMENTPROXY('0LMgyEc8rFFf5PWhmg0cuw',$,'beds_1_4_0',$,$,$,#331,$,$);
#319=IFCRELCONTAINEDINSPATIALSTRUCTURE('38ByT$nHr14AH$P9hjWmDo',$,$,$,(#318),#22);
#320=IFCINDEXEDPOLYGONALFACE((1,2,6,5));
#321=IFCINDEXEDPOLYGONALFACE((2,3,7,6));
#322=IFCINDEXEDPOLYGONALFACE((3,4,8,7));
#323=IFCINDEXEDPOLYGONALFACE((4,1,5,8));
#324=IFCINDEXEDPOLYGONALFACE((1,4,3));
#325=IFCINDEXEDPOLYGONALFACE((3,2,1));
#326=IFCINDEXEDPOLYGONALFACE((8,5,6));
#327=IFCINDEXEDPOLYGONALFACE((6,7,8));
#328=IFCCARTESIANPOINTLIST3D(((2231.9945675499,2989.94561553811,27.3704997783681),(2738.80279922761,3085.48085448503,27.4476160050996),(2738.80279922761,2007.19626767811,27.4476160050998),(2231.9945675499,2102.73150662503,27.3704997783683),(2230.22483616722,2989.22920727944,0.338959776961545),(2738.92332303677,3085.12076636904,0.416363625990201),(2738.92332303677,2007.55635579411,0.416363625990414),(2230.22483616722,2103.44791488371,0.338959776961723)));
#329=IFCPOLYGONALFACESET(#328,.T.,(#320,#321,#322,#323,#324,#325,#326,#327),$);
#330=IFCSHAPEREPRESENTATION(#12,'Body','Tessellation',(#329));
#331=IFCPRODUCTDEFINITIONSHAPE($,$,(#330));
#332=IFCBUILDINGELEMENTPROXY('1aPPddi0TA_ejk6q0i1goP',$,'beds_1_5_0_uncut',$,$,$,#345,$,$);
#333=IFCRELCONTAINEDINSPATIALSTRUCTURE('0t6h$ljz1EmuV6ASOnoaeh',$,$,$,(#332),#22);
#334=IFCINDEXEDPOLYGONALFACE((1,2,6,5));
#335=IFCINDEXEDPOLYGONALFACE((2,3,7,6));
#336=IFCINDEXEDPOLYGONALFACE((3,4,8,7));
#337=IFCINDEXEDPOLYGONALFACE((4,1,5,8));
#338=IFCINDEXEDPOLYGONALFACE((1,4,3));
#339=IFCINDEXEDPOLYGONALFACE((3,2,1));
#340=IFCINDEXEDPOLYGONALFACE((8,5,6));
#341=IFCINDEXEDPOLYGONALFACE((6,7,8));
#342=IFCCARTESIANPOINTLIST3D(((2740.14984922001,3085.48085448503,27.4200442027834),(3174.3322023428,3167.52993590553,27.486109634822),(3174.3322023428,1925.14718625761,27.4861096348223),(2740.14984922001,2007.19626767811,27.4200442027837),(2738.92332303677,3085.12076636904,0.416363625989852),(3175.01116861392,3167.52993590553,0.482718998836353),(3175.01116861392,1925.14718625761,0.482718998836601),(2738.92332303677,2007.55635579411,0.416363625990071)));
#343=IFCPOLYGONALFACESET(#342,.T.,(#334,#335,#336,#337,#338,#339,#340,#341),$);
#344=IFCSHAPEREPRESENTATION(#12,'Body','Tessellation',(#343));
#345=IFCPRODUCTDEFINITIONSHAPE($,$,(#344));
#346=IFCBUILDINGELEMENTPROXY('18ObqGk2D8LQzsye_w8ZoN',$,'beds_1_5_0',$,$,$,#359,$,$);
#347=IFCRELCONTAINEDINSPATIALSTRUCTURE('28aC3TEVL5Lu2At3kL0$aO',$,$,$,(#346),#22);
#348=IFCINDEXEDPOLYGONALFACE((1,2,6,5));
#349=IFCINDEXEDPOLYGONALFACE((2,3,7,6));
#350=IFCINDEXEDPOLYGONALFACE((3,4,8,7));
#351=IFCINDEXEDPOLYGONALFACE((4,1,5,8));
#352=IFCINDEXEDPOLYGONALFACE((1,4,3));
#353=IFCINDEXEDPOLYGONALFACE((3,2,1));
#354=IFCINDEXEDPOLYGONALFACE((8,5,6));
#355=IFCINDEXEDPOLYGONALFACE((6,7,8));
#356=IFCCARTESIANPOINTLIST3D(((2740.14984922001,3085.48085448503,27.4200442027835),(3174.3322023428,3167.52993590553,27.486109634822),(3174.3322023428,1925.14718625762,27.4861096348223),(2740.14984922001,2007.19626767811,27.4200442027837),(2738.92332303677,3085.12076636904,0.416363625989511),(3175.01116861392,3167.52993590553,0.482718998836184),(3175.01116861392,1925.14718625762,0.482718998836429),(2738.92332303677,2007.55635579411,0.416363625989732)));
#357=IFCPOLYGONALFACESET(#356,.T.,(#348,#349,#350,#351,#352,#353,#354,#355),$);
#358=IFCSHAPEREPRESENTATION(#12,'Body','Tessellation',(#357));
#359=IFCPRODUCTDEFINITIONSHAPE($,$,(#358));
#360=IFCBUILDINGELEMENTPROXY('0R_ADVliTAdRNcc_FpuYi4',$,'beds_2_0_0_uncut',$,$,$,#373,$,$);
#361=IFCRELCONTAINEDINSPATIALSTRUCTURE('1nrqqDDJX8exvzdbckyQR2',$,$,$,(#360),#22);
#362=IFCINDEXEDPOLYGONALFACE((1,2,6,5));
#363=IFCINDEXEDPOLYGONALFACE((2,3,7,6));
#364=IFCINDEXEDPOLYGONALFACE((3,4,8,7));
#365=IFCINDEXEDPOLYGONALFACE((4,1,5,8));
#366=IFCINDEXEDPOLYGONALFACE((1,4,3));
#367=IFCINDEXEDPOLYGONALFACE((3,2,1));
#368=IFCINDEXEDPOLYGONALFACE((8,5,6));
#369=IFCINDEXEDPOLYGONALFACE((6,7,8));
#370=IFCCARTESIANPOINTLIST3D(((-4.40341475847035E-13,3305.0431097436,27.0000000000025),(585.656256742707,3684.70448205657,27.0000000000015),(585.656256742707,3217.52993590553,27.0000000000017),(-4.45199432874688E-13,3217.52993590553,27.0000000000025),(4.60228447522066,3302.30362265301,2.50428734643646E-12),(586.393711534977,3679.45955508672,1.6389731700797E-12),(586.393711534977,3217.52993590553,1.86334281337963E-12),(4.60228447522065,3217.52993590553,2.54546383970933E-12)));
#371=IFCPOLYGONALFACESET(#370,.T.,(#362,#363,#364,#365,#366,#367,#368,#369),$);
#372=IFCSHAPEREPRESENTATION(#12,'Body','Tessellation',(#371));
#373=IFCPRODUCTDEFINITIONSHAPE($,$,(#372));
#374=IFCBUILDINGELEMENTPROXY('14dL3MGY53Wglp6vIFAywW',$,'beds_2_0_0',$,$,$,#387,$,$);
#375=IFCRELCONTAINEDINSPATIALSTRUCTURE('1Otzpoa8jCU8NvkrIddUAy',$,$,$,(#374),#22);
#376=IFCINDEXEDPOLYGONALFACE((1,2,6,5));
#377=IFCINDEXEDPOLYGONALFACE((2,3,7,6));
#378=IFCINDEXEDPOLYGONALFACE((3,4,8,7));
#379=IFCINDEXEDPOLYGONALFACE((4,1,5,8));
#380=IFCINDEXEDPOLYGONALFACE((1,4,3));
#381=IFCINDEXEDPOLYGONALFACE((3,2,1));
#382=IFCINDEXEDPOLYGONALFACE((8,5,6));
#383=IFCINDEXEDPOLYGONALFACE((6,7,8));
#384=IFCCARTESIANPOINTLIST3D(((2.27373675443232E-13,3305.0431097436,27.0000000000025),(585.656256742707,3684.70448205658,27.0000000000016),(585.656256742707,3217.52993590553,27.0000000000018),(6.82121026329696E-13,3217.52993590553,27.0000000000025),(4.60228447522059,3302.30362265301,2.36255459640233E-12),(586.393711534977,3679.45955508672,1.60937929649663E-12),(586.393711534977,3217.52993590553,1.83320025826106E-12),(4.60228447522104,3217.52993590553,2.40163444686914E-12)));
#385=IFCPOLYGONALFACESET(#384,.T.,(#376,#377,#378,#379,#380,#381,#382,#383),$);
#386=IFCSHAPEREPRESENTATION(#12,'Body','Tessellation',(#385));
#387=IFCPRODUCTDEFINITIONSHAPE($,$,(#386));
#388=IFCBUILDINGELEMENTPROXY('1iYaes2XD8nAal7Smd5tdj',$,'beds_2_1_0_uncut',$,$,$,#401,$,$);
#389=IFCRELCONTAINEDINSPATIALSTRUCTURE('3fyitsXEzF3B5SejyG95X8',$,$,$,(#388),#22);
#390=IFCINDEXEDPOLYGONALFACE((1,2,6,5));
#391=IFCINDEXEDPOLYGONALFACE((2,3,7,6));
#392=IFCINDEXEDPOLYGONALFACE((3,4,8,7));
#393=IFCINDEXEDPOLYGONALFACE((4,1,5,8));
#394=IFCINDEXEDPOLYGONALFACE((1,4,3));
#395=IFCINDEXEDPOLYGONALFACE((3,2,1));
#396=IFCINDEXEDPOLYGONALFACE((8,5,6));
#397=IFCINDEXEDPOLYGONALFACE((6,7,8));
#398=IFCCARTESIANPOINTLIST3D(((587.131166327251,3684.70448205657,27.0000000000016),(1026.84815286803,3974.42088860267,27.0000000000012),(1026.84815286803,3217.52993590553,27.0000000000015),(587.131166327251,3217.52993590553,27.0000000000018),(586.393711534977,3679.45955508672,1.92319026438374E-12),(1027.60779276773,3970.16235266999,1.49777225917974E-12),(1027.60779276773,3217.52993590553,1.86334281337963E-12),(586.393711534977,3217.52993590553,2.14755990768367E-12)));
#399=IFCPOLYGONALFACESET(#398,.T.,(#390,#391,#392,#393,#394,#395,#396,#397),$);
#400=IFCSHAPEREPRESENTATION(#12,'Body','Tessellation',(#399));
#401=IFCPRODUCTDEFINITIONSHAPE($,$,(#400));
#402=IFCBUILDINGELEMENTPROXY('3XIvyoFr5AvACtkVdUvm3o',$,'beds_2_1_0',$,$,$,#415,$,$);
#403=IFCRELCONTAINEDINSPATIALSTRUCTURE('24aweN72H5ZxroLROsrcsQ',$,$,$,(#402),#22);
#404=IFCINDEXEDPOLYGONALFACE((1,2,6,5));
#405=IFCINDEXEDPOLYGONALFACE((2,3,7,6));
#406=IFCINDEXEDPOLYGONALFACE((3,4,8,7));
#407=IFCINDEXEDPOLYGONALFACE((4,1,5,8));
#408=IFCINDEXEDPOLYGONALFACE((1,4,3));
#409=IFCINDEXEDPOLYGONALFACE((3,2,1));
#410=IFCINDEXEDPOLYGONALFACE((8,5,6));
#411=IFCINDEXEDPOLYGONALFACE((6,7,8));
#412=IFCCARTESIANPOINTLIST3D(((587.131166327251,3684.70448205658,27.0000000000017),(1026.84815286803,3974.42088860267,27.0000000000011),(1026.84815286803,3217.52993590553,27.0000000000014),(587.131166327252,3217.52993590553,27.0000000000019),(586.393711534977,3679.45955508672,1.95043980966148E-12),(1027.60779276773,3970.16235266999,1.47082346302341E-12),(1027.60779276773,3217.52993590553,1.83320025826106E-12),(586.393711534978,3217.52993590553,2.17426077142591E-12)));
#413=IFCPOLYGONALFACESET(#412,.T.,(#404,#405,#406,#407,#408,#409,#410,#411),$);
#414=IFCSHAPEREPRESENTATION(#12,'Body','Tessellation',(#413));
#415=IFCPRODUCTDEFINITIONSHAPE($,$,(#414));
#416=IFCBUILDINGELEMENTPROXY('3P51DqoHP1kxONlUAzpi4p',$,'beds_2_2_0_uncut',$,$,$,#429,$,$);
#417=IFCRELCONTAINEDINSPATIALSTRUCTURE('0iEkdyUNj2zeevvVlx0B0$',$,$,$,(#416),#22);
#418=IFCINDEXEDPOLYGONALFACE((1,2,6,5));
#419=IFCINDEXEDPOLYGONALFACE((2,3,7,6));
#420=IFCINDEXEDPOLYGONALFACE((3,4,8,7));
#421=IFCINDEXEDPOLYGONALFACE((4,1,5,8));
#422=IFCINDEXEDPOLYGONALFACE((1,4,3));
#423=IFCINDEXEDPOLYGONALFACE((3,2,1));
#424=IFCINDEXEDPOLYGONALFACE((8,5,6));
#425=IFCINDEXEDPOLYGONALFACE((6,7,8));
#426=IFCCARTESIANPOINTLIST3D(((1028.36743266742,3974.42088860267,27.0000000000011),(1462.30494028976,4264.17753758988,27.000000000001),(1462.30494028976,3217.52993590553,27.0000000000015),(1028.36743266742,3217.52993590553,27.0000000000015),(1027.60779276773,3970.16235266999,1.27039858373651E-12),(1463.08277942702,4260.9456351374,1.18600199837233E-12),(1463.08277942702,3217.52993590553,1.69281255679721E-12),(1027.60779276773,3217.52993590553,1.6359691379364E-12)));
#427=IFCPOLYGONALFACESET(#426,.T.,(#418,#419,#420,#421,#422,#423,#424,#425),$);
#428=IFCSHAPEREPRESENTATION(#12,'Body','Tessellation',(#427));
#429=IFCPRODUCTDEFINITIONSHAPE($,$,(#428));
#430=IFCBUILDINGELEMENTPROXY('3OV3A_bOP2egdlUjEctrnE',$,'beds_2_2_0',$,$,$,#443,$,$);
#431=IFCRELCONTAINEDINSPATIALSTRUCTURE('2i6vSdFUTCFPjEWxouxIqQ',$,$,$,(#430),#22);
#432=IFCINDEXEDPOLYGONALFACE((1,2,6,5));
#433=IFCINDEXEDPOLYGONALFACE((2,3,7,6));
#434=IFCINDEXEDPOLYGONALFACE((3,4,8,7));
#435=IFCINDEXEDPOLYGONALFACE((4,1,5,8));
#436=IFCINDEXEDPOLYGONALFACE((1,4,3));
#437=IFCINDEXEDPOLYGONALFACE((3,2,1));
#438=IFCINDEXEDPOLYGONALFACE((8,5,6));
#439=IFCINDEXEDPOLYGONALFACE((6,7,8));
#440=IFCCARTESIANPOINTLIST3D(((1028.36743266742,3974.42088860267,27.0000000000008),(1462.30494028976,4264.17753758988,27.0000000000013),(1462.30494028976,3217.52993590553,27.0000000000018),(1028.36743266743,3217.52993590553,27.0000000000012),(1027.60779276773,3970.16235266999,1.07291953099775E-12),(1463.08277942703,4260.9456351374,1.49924517245381E-12),(1463.08277942703,3217.52993590553,2.00373051484348E-12),(1027.60779276773,3217.52993590553,1.4352963262354E-12)));
#441=IFCPOLYGONALFACESET(#440,.T.,(#432,#433,#434,#435,#436,#437,#438,#439),$);
#442=IFCSHAPEREPRESENTATION(#12,'Body','Tessellation',(#441));
#443=IFCPRODUCTDEFINITIONSHAPE($,$,(#442));
#444=IFCBUILDINGELEMENTPROXY('0kB3bX1rD2geti7cvlSK7a',$,'beds_2_3_0_uncut',$,$,$,#457,$,$);
#445=IFCRELCONTAINEDINSPATIALSTRUCTURE('0KASrRIwT7pBM4iRT7Ekod',$,$,$,(#444),#22);
#446=IFCINDEXEDPOLYGONALFACE((1,2,6,5));
#447=IFCINDEXEDPOLYGONALFACE((2,3,7,6));
#448=IFCINDEXEDPOLYGONALFACE((3,4,8,7));
#449=IFCINDEXEDPOLYGONALFACE((4,1,5,8));
#450=IFCINDEXEDPOLYGONALFACE((1,4,3));
#451=IFCINDEXEDPOLYGONALFACE((3,2,1));
#452=IFCINDEXEDPOLYGONALFACE((8,5,6));
#453=IFCINDEXEDPOLYGONALFACE((6,7,8));
#454=IFCCARTESIANPOINTLIST3D(((1463.86061856429,4264.17753758988,27.0000000000012),(1893.41303734777,4553.96619522869,27.0000000000005),(1893.41303734777,3217.52993590553,27.0000000000012),(1463.86061856429,3217.52993590553,27.0000000000017),(1463.08277942703,4260.9456351374,1.24284541723314E-12),(1894.20441866203,4551.79293490764,5.47350984466205E-13),(1894.20441866203,3217.52993590553,1.19543264176514E-12),(1463.08277942703,3217.52993590553,1.74965597565802E-12)));
#455=IFCPOLYGONALFACESET(#454,.T.,(#446,#447,#448,#449,#450,#451,#452,#453),$);
#456=IFCSHAPEREPRESENTATION(#12,'Body','Tessellation',(#455));
#457=IFCPRODUCTDEFINITIONSHAPE($,$,(#456));
#458=IFCBUILDINGELEMENTPROXY('0NxKXi2K19We6BJPCmIBfc',$,'beds_2_3_0',$,$,$,#471,$,$);
#459=IFCRELCONTAINEDINSPATIALSTRUCTURE('2vmJHv4GH6d82lVYWrbTME',$,$,$,(#458),#22);
#460=IFCINDEXEDPOLYGONALFACE((1,2,6,5));
#461=IFCINDEXEDPOLYGONALFACE((2,3,7,6));
#462=IFCINDEXEDPOLYGONALFACE((3,4,8,7));
#463=IFCINDEXEDPOLYGONALFACE((4,1,5,8));
#464=IFCINDEXEDPOLYGONALFACE((1,4,3));
#465=IFCINDEXEDPOLYGONALFACE((3,2,1));
#466=IFCINDEXEDPOLYGONALFACE((8,5,6));
#467=IFCINDEXEDPOLYGONALFACE((6,7,8));
#468=IFCCARTESIANPOINTLIST3D(((1463.86061856429,4264.17753758988,27.0000000000014),(1893.41303734777,4553.96619522869,27.0000000000006),(1893.41303734777,3217.52993590553,27.0000000000012),(1463.86061856429,3217.52993590553,27.0000000000019),(1463.08277942703,4260.9456351374,1.58451030074502E-12),(1894.20441866203,4551.79293490764,7.74491581978509E-13),(1894.20441866203,3217.52993590553,1.4210854715202E-12),(1463.08277942703,3217.52993590553,2.08899564313469E-12)));
#469=IFCPOLYGONALFACESET(#468,.T.,(#460,#461,#462,#463,#464,#465,#466,#467),$);
#470=IFCSHAPEREPRESENTATION(#12,'Body','Tessellation',(#469));
#471=IFCPRODUCTDEFINITIONSHAPE($,$,(#470));
#472=IFCBUILDINGELEMENTPROXY('0NEDH8Kjb4QfeI9q6wfxS8',$,'beds_2_4_0_uncut',$,$,$,#485,$,$);
#473=IFCRELCONTAINEDINSPATIALSTRUCTURE('2lYanqxC11Fh89BdxT7QQo',$,$,$,(#472),#22);
#474=IFCINDEXEDPOLYGONALFACE((1,2,6,5));
#475=IFCINDEXEDPOLYGONALFACE((2,3,7,6));
#476=IFCINDEXEDPOLYGONALFACE((3,4,8,7));
#477=IFCINDEXEDPOLYGONALFACE((4,1,5,8));
#478=IFCINDEXEDPOLYGONALFACE((1,4,3));
#479=IFCINDEXEDPOLYGONALFACE((3,2,1));
#480=IFCINDEXEDPOLYGONALFACE((8,5,6));
#481=IFCINDEXEDPOLYGONALFACE((6,7,8));
#482=IFCCARTESIANPOINTLIST3D(((1894.9957999763,4553.96619522869,27.0000000000008),(2321.60006165943,4843.7771257293,27.0000000000005),(2321.60006165943,3217.52993590553,27.0000000000013),(1894.9957999763,3217.52993590553,27.0000000000014),(1894.20441866203,4551.79293490764,7.74724659909437E-13),(2322.39979680718,4842.68478040093,5.41061368523345E-13),(2322.39979680718,3217.52993590553,1.33043576155956E-12),(1894.20441866203,3217.52993590553,1.42280631720837E-12)));
#483=IFCPOLYGONALFACESET(#482,.T.,(#474,#475,#476,#477,#478,#479,#480,#481),$);
#484=IFCSHAPEREPRESENTATION(#12,'Body','Tessellation',(#483));
#485=IFCPRODUCTDEFINITIONSHAPE($,$,(#484));
#486=IFCBUILDINGELEMENTPROXY('1XAQ1GUbDFZfJupKLVX0um',$,'beds_2_4_0',$,$,$,#499,$,$);
#487=IFCRELCONTAINEDINSPATIALSTRUCTURE('3ZsvaKtrT6Xfr$tGVewrhv',$,$,$,(#486),#22);
#488=IFCINDEXEDPOLYGONALFACE((1,2,6,5));
#489=IFCINDEXEDPOLYGONALFACE((2,3,7,6));
#490=IFCINDEXEDPOLYGONALFACE((3,4,8,7));
#491=IFCINDEXEDPOLYGONALFACE((4,1,5,8));
#492=IFCINDEXEDPOLYGONALFACE((1,4,3));
#493=IFCINDEXEDPOLYGONALFACE((3,2,1));
#494=IFCINDEXEDPOLYGONALFACE((8,5,6));
#495=IFCINDEXEDPOLYGONALFACE((6,7,8));
#496=IFCCARTESIANPOINTLIST3D(((1894.9957999763,4553.96619522869,27.0000000000004),(2321.60006165943,4843.7771257293,27.0000000000004),(2321.60006165943,3217.52993590553,27.0000000000012),(1894.9957999763,3217.52993590553,27.0000000000011),(1894.20441866203,4551.79293490765,9.16600129130529E-13),(2322.39979680718,4842.68478040093,0.),(2322.39979680718,3217.52993590553,7.88702436693711E-13),(1894.20441866203,3217.52993590553,1.56319401867222E-12)));
#497=IFCPOLYGONALFACESET(#496,.T.,(#488,#489,#490,#491,#492,#493,#494,#495),$);
#498=IFCSHAPEREPRESENTATION(#12,'Body','Tessellation',(#497));
#499=IFCPRODUCTDEFINITIONSHAPE($,$,(#498));
#500=IFCBUILDINGELEMENTPROXY('08mjPIIF93kQ1zA1bnCxkT',$,'beds_2_5_0_uncut',$,$,$,#513,$,$);
#501=IFCRELCONTAINEDINSPATIALSTRUCTURE('05XgyrL9b8PBlSiBBvmQVD',$,$,$,(#500),#22);
#502=IFCINDEXEDPOLYGONALFACE((1,2,6,5));
#503=IFCINDEXEDPOLYGONALFACE((2,3,7,6));
#504=IFCINDEXEDPOLYGONALFACE((3,4,8,7));
#505=IFCINDEXEDPOLYGONALFACE((4,1,5,8));
#506=IFCINDEXEDPOLYGONALFACE((1,4,3));
#507=IFCINDEXEDPOLYGONALFACE((3,2,1));
#508=IFCINDEXEDPOLYGONALFACE((8,5,6));
#509=IFCINDEXEDPOLYGONALFACE((6,7,8));
#510=IFCCARTESIANPOINTLIST3D(((2323.19953195494,4843.7771257293,27.0000000000004),(2688.29563391313,5092.67712216315,27.0000000000011),(2688.29563391313,3217.52993590553,27.000000000002),(2323.19953195494,3217.52993590553,27.0000000000012),(2322.39979680718,4842.68478040093,4.27374530801729E-13),(2689.09819296824,5092.67712216315,1.10686249722691E-12),(2689.09819296824,3217.52993590553,2.01766381380253E-12),(2322.39979680718,3217.52993590553,1.21674892383794E-12)));
#511=IFCPOLYGONALFACESET(#510,.T.,(#502,#503,#504,#505,#506,#507,#508,#509),$);
#512=IFCSHAPEREPRESENTATION(#12,'Body','Tessellation',(#511));
#513=IFCPRODUCTDEFINITIONSHAPE($,$,(#512));
#514=IFCBUILDINGELEMENTPROXY('3lYKILDV17wfdJwqsB1wqW',$,'beds_2_5_0',$,$,$,#527,$,$);
#515=IFCRELCONTAINEDINSPATIALSTRUCTURE('2Fqm1JEz9BCvhn2$H1A724',$,$,$,(#514),#22);
#516=IFCINDEXEDPOLYGONALFACE((1,2,6,5));
#517=IFCINDEXEDPOLYGONALFACE((2,3,7,6));
#518=IFCINDEXEDPOLYGONALFACE((3,4,8,7));
#519=IFCINDEXEDPOLYGONALFACE((4,1,5,8));
#520=IFCINDEXEDPOLYGONALFACE((1,4,3));
#521=IFCINDEXEDPOLYGONALFACE((3,2,1));
#522=IFCINDEXEDPOLYGONALFACE((8,5,6));
#523=IFCINDEXEDPOLYGONALFACE((6,7,8));
#524=IFCCARTESIANPOINTLIST3D(((2323.19953195494,4843.7771257293,27.0000000000007),(2688.29563391313,5092.67712216315,27.0000000000014),(2688.29563391313,3217.52993590553,27.0000000000023),(2323.19953195494,3217.52993590553,27.0000000000014),(2322.39979680718,4842.68478040093,6.25277607468888E-13),(2689.09819296824,5092.67712216315,1.36424205265939E-12),(2689.09819296825,3217.52993590553,2.27373675443232E-12),(2322.39979680718,3217.52993590553,1.4139800441626E-12)));
#525=IFCPOLYGONALFACESET(#524,.T.,(#516,#517,#518,#519,#520,#521,#522,#523),$);
#526=IFCSHAPEREPRESENTATION(#12,'Body','Tessellation',(#525));
#527=IFCPRODUCTDEFINITIONSHAPE($,$,(#526));
ENDSEC;
END-ISO-10303-21;
