# OBJ
# COMPAS
# version: 2.15.1
# precision: 3
# V F E: 288 288 504

o beds_0_0_0_uncut
v 0.000 1787.634 27.000
v 0.000 1875.147 27.000
v 585.656 1875.147 27.000
v 585.656 1407.973 27.000
v 4.602 1790.373 0.000
v 4.602 1875.147 0.000
v 586.394 1875.147 0.000
v 586.394 1413.218 0.000
f 1 2 6 5
f 2 3 7 6
f 3 4 8 7
f 4 1 5 8
f 1 4 3
f 3 2 1
f 8 5 6
f 6 7 8
o beds_0_0_0
v 0.000 1787.634 27.000
v -0.000 1875.147 27.000
v 585.656 1875.147 27.000
v 585.656 1407.973 27.000
v 4.602 1790.373 0.000
v 4.602 1875.147 0.000
v 586.394 1875.147 0.000
v 586.394 1413.218 0.000
f 9 10 14 13
f 10 11 15 14
f 11 12 16 15
f 12 9 13 16
f 9 12 11
f 11 10 9
f 16 13 14
f 14 15 16
o beds_0_1_0_uncut
v 587.131 1407.973 27.000
v 587.131 1875.147 27.000
v 1026.848 1875.147 27.000
v 1026.848 1118.256 27.000
v 586.394 1413.218 0.000
v 586.394 1875.147 0.000
v 1027.608 1875.147 0.000
v 1027.608 1122.515 0.000
f 17 18 22 21
f 18 19 23 22
f 19 20 24 23
f 20 17 21 24
f 17 20 19
f 19 18 17
f 24 21 22
f 22 23 24
o beds_0_1_0
v 587.131 1407.973 27.000
v 587.131 1875.147 27.000
v 1026.848 1875.147 27.000
v 1026.848 1118.256 27.000
v 586.394 1413.218 0.000
v 586.394 1875.147 0.000
v 1027.608 1875.147 0.000
v 1027.608 1122.515 0.000
f 25 26 30 29
f 26 27 31 30
f 27 28 32 31
f 28 25 29 32
f 25 28 27
f 27 26 25
f 32 29 30
f 30 31 32
o beds_0_2_0_uncut
v 1028.367 1118.256 27.000
v 1028.367 1875.147 27.000
v 1462.305 1875.147 27.000
v 1462.305 828.500 27.000
v 1027.608 1122.515 0.000
v 1027.608 1875.147 0.000
v 1463.083 1875.147 0.000
v 1463.083 831.731 0.000
f 33 34 38 37
f 34 35 39 38
f 35 36 40 39
f 36 33 37 40
f 33 36 35
f 35 34 33
f 40 37 38
f 38 39 40
o beds_0_2_0
v 1028.367 1118.256 27.000
v 1028.367 1875.147 27.000
v 1462.305 1875.147 27.000
v 1462.305 828.500 27.000
v 1027.608 1122.515 0.000
v 1027.608 1875.147 0.000
v 1463.083 1875.147 0.000
v 1463.083 831.731 0.000
f 41 42 46 45
f 42 43 47 46
f 43 44 48 47
f 44 41 45 48
f 41 44 43
f 43 42 41
f 48 45 46
f 46 47 48
o beds_0_3_0_uncut
v 1463.861 828.500 27.000
v 1463.861 1875.147 27.000
v 1893.413 1875.147 27.000
v 1893.413 538.711 27.000
v 1463.083 831.731 0.000
v 1463.083 1875.147 0.000
v 1894.204 1875.147 0.000
v 1894.204 540.884 0.000
f 49 50 54 53
f 50 51 55 54
f 51 52 56 55
f 52 49 53 56
f 49 52 51
f 51 50 49
f 56 53 54
f 54 55 56
o beds_0_3_0
v 1463.861 828.500 27.000
v 1463.861 1875.147 27.000
v 1893.413 1875.147 27.000
v 1893.413 538.711 27.000
v 1463.083 831.731 0.000
v 1463.083 1875.147 0.000
v 1894.204 1875.147 0.000
v 1894.204 540.884 0.000
f 57 58 62 61
f 58 59 63 62
f 59 60 64 63
f 60 57 61 64
f 57 60 59
f 59 58 57
f 64 61 62
f 62 63 64
o beds_0_4_0_uncut
v 1894.996 538.711 27.000
v 1894.996 1875.147 27.000
v 2321.600 1875.147 27.000
v 2321.600 248.900 27.000
v 1894.204 540.884 0.000
v 1894.204 1875.147 0.000
v 2322.400 1875.147 0.000
v 2322.400 249.992 0.000
f 65 66 70 69
f 66 67 71 70
f 67 68 72 71
f 68 65 69 72
f 65 68 67
f 67 66 65
f 72 69 70
f 70 71 72
o beds_0_4_0
v 1894.996 538.711 27.000
v 1894.996 1875.147 27.000
v 2321.600 1875.147 27.000
v 2321.600 248.900 27.000
v 1894.204 540.884 0.000
v 1894.204 1875.147 0.000
v 2322.400 1875.147 0.000
v 2322.400 249.992 0.000
f 73 74 78 77
f 74 75 79 78
f 75 76 80 79
f 76 73 77 80
f 73 76 75
f 75 74 73
f 80 77 78
f 78 79 80
o beds_0_5_0_uncut
v 2323.200 248.900 27.000
v 2323.200 1875.147 27.000
v 2688.296 1875.147 27.000
v 2688.296 0.000 27.000
v 2322.400 249.992 0.000
v 2322.400 1875.147 0.000
v 2689.098 1875.147 0.000
v 2689.098 0.000 0.000
f 81 82 86 85
f 82 83 87 86
f 83 84 88 87
f 84 81 85 88
f 81 84 83
f 83 82 81
f 88 85 86
f 86 87 88
o beds_0_5_0
v 2323.200 248.900 27.000
v 2323.200 1875.147 27.000
v 2688.296 1875.147 27.000
v 2688.296 0.000 27.000
v 2322.400 249.992 0.000
v 2322.400 1875.147 0.000
v 2689.098 1875.147 0.000
v 2689.098 -0.000 0.000
f 89 90 94 93
f 90 91 95 94
f 91 92 96 95
f 92 89 93 96
f 89 92 91
f 91 90 89
f 96 93 94
f 94 95 96
o beds_1_0_0_uncut
v 0.000 2578.242 27.390
v 686.639 2703.396 27.495
v 686.639 2389.281 27.495
v 0.000 2514.435 27.390
v 2.579 2577.339 0.000
v 684.687 2701.667 0.104
v 684.687 2391.010 0.104
v 2.579 2515.338 0.000
f 97 98 102 101
f 98 99 103 102
f 99 100 104 103
f 100 97 101 104
f 97 100 99
f 99 98 97
f 104 101 102
f 102 103 104
o beds_1_0_0
v 0.000 2578.242 27.390
v 686.639 2703.396 27.495
v 686.639 2389.281 27.495
v 0.000 2514.435 27.390
v 2.579 2577.339 0.000
v 684.687 2701.667 0.104
v 684.687 2391.010 0.104
v 2.579 2515.338 0.000
f 105 106 110 109
f 106 107 111 110
f 107 108 112 111
f 108 105 109 112
f 105 108 107
f 107 106 105
f 112 109 110
f 110 111 112
o beds_1_1_0_uncut
v 687.924 2703.396 27.372
v 1205.771 2798.900 27.451
v 1205.771 2293.777 27.451
v 687.924 2389.281 27.372
v 684.687 2701.667 0.104
v 1204.297 2797.497 0.183
v 1204.297 2295.181 0.183
v 684.687 2391.010 0.104
f 113 114 118 117
f 114 115 119 118
f 115 116 120 119
f 116 113 117 120
f 113 116 115
f 115 114 113
f 120 117 118
f 118 119 120
o beds_1_1_0
v 687.924 2703.396 27.372
v 1205.771 2798.900 27.451
v 1205.771 2293.777 27.451
v 687.924 2389.281 27.372
v 684.687 2701.667 0.104
v 1204.297 2797.497 0.183
v 1204.297 2295.181 0.183
v 684.687 2391.010 0.104
f 121 122 126 125
f 122 123 127 126
f 123 124 128 127
f 124 121 125 128
f 121 124 123
f 123 122 121
f 128 125 126
f 126 127 128
o beds_1_2_0_uncut
v 1207.079 2798.900 27.349
v 1720.048 2894.418 27.427
v 1720.048 2198.259 27.427
v 1207.079 2293.777 27.349
v 1204.297 2797.497 0.183
v 1719.083 2893.352 0.261
v 1719.083 2199.325 0.261
v 1204.297 2295.181 0.183
f 129 130 134 133
f 130 131 135 134
f 131 132 136 135
f 132 129 133 136
f 129 132 131
f 131 130 129
f 136 133 134
f 134 135 136
o beds_1_2_0
v 1207.079 2798.900 27.349
v 1720.048 2894.418 27.427
v 1720.048 2198.259 27.427
v 1207.079 2293.777 27.349
v 1204.297 2797.497 0.183
v 1719.083 2893.352 0.261
v 1719.083 2199.325 0.261
v 1204.297 2295.181 0.183
f 137 138 142 141
f 138 139 143 142
f 139 140 144 143
f 140 137 141 144
f 137 140 139
f 139 138 137
f 144 141 142
f 142 143 144
o beds_1_3_0_uncut
v 1721.374 2894.418 27.347
v 2230.655 2989.946 27.425
v 2230.655 2102.732 27.425
v 1721.374 2198.259 27.347
v 1719.083 2893.352 0.261
v 2230.225 2989.229 0.339
v 2230.225 2103.448 0.339
v 1719.083 2199.325 0.261
f 145 146 150 149
f 146 147 151 150
f 147 148 152 151
f 148 145 149 152
f 145 148 147
f 147 146 145
f 152 149 150
f 150 151 152
o beds_1_3_0
v 1721.374 2894.418 27.347
v 2230.655 2989.946 27.425
v 2230.655 2102.732 27.425
v 1721.374 2198.259 27.347
v 1719.083 2893.352 0.261
v 2230.225 2989.229 0.339
v 2230.225 2103.448 0.339
v 1719.083 2199.325 0.261
f 153 154 158 157
f 154 155 159 158
f 155 156 160 159
f 156 153 157 160
f 153 156 155
f 155 154 153
f 160 157 158
f 158 159 160
o beds_1_4_0_uncut
v 2231.995 2989.946 27.370
v 2738.803 3085.481 27.448
v 2738.803 2007.196 27.448
v 2231.995 2102.732 27.370
v 2230.225 2989.229 0.339
v 2738.923 3085.121 0.416
v 2738.923 2007.556 0.416
v 2230.225 2103.448 0.339
f 161 162 166 165
f 162 163 167 166
f 163 164 168 167
f 164 161 165 168
f 161 164 163
f 163 162 161
f 168 165 166
f 166 167 168
o beds_1_4_0
v 2231.995 2989.946 27.370
v 2738.803 3085.481 27.448
v 2738.803 2007.196 27.448
v 2231.995 2102.732 27.370
v 2230.225 2989.229 0.339
v 2738.923 3085.121 0.416
v 2738.923 2007.556 0.416
v 2230.225 2103.448 0.339
f 169 170 174 173
f 170 171 175 174
f 171 172 176 175
f 172 169 173 176
f 169 172 171
f 171 170 169
f 176 173 174
f 174 175 176
o beds_1_5_0_uncut
v 2740.150 3085.481 27.420
v 3174.332 3167.530 27.486
v 3174.332 1925.147 27.486
v 2740.150 2007.196 27.420
v 2738.923 3085.121 0.416
v 3175.011 3167.530 0.483
v 3175.011 1925.147 0.483
v 2738.923 2007.556 0.416
f 177 178 182 181
f 178 179 183 182
f 179 180 184 183
f 180 177 181 184
f 177 180 179
f 179 178 177
f 184 181 182
f 182 183 184
o beds_1_5_0
v 2740.150 3085.481 27.420
v 3174.332 3167.530 27.486
v 3174.332 1925.147 27.486
v 2740.150 2007.196 27.420
v 2738.923 3085.121 0.416
v 3175.011 3167.530 0.483
v 3175.011 1925.147 0.483
v 2738.923 2007.556 0.416
f 185 186 190 189
f 186 187 191 190
f 187 188 192 191
f 188 185 189 192
f 185 188 187
f 187 186 185
f 192 189 190
f 190 191 192
o beds_2_0_0_uncut
v 0.000 3305.043 27.000
v 585.656 3684.704 27.000
v 585.656 3217.530 27.000
v 0.000 3217.530 27.000
v 4.602 3302.304 0.000
v 586.394 3679.460 0.000
v 586.394 3217.530 0.000
v 4.602 3217.530 0.000
f 193 194 198 197
f 194 195 199 198
f 195 196 200 199
f 196 193 197 200
f 193 196 195
f 195 194 193
f 200 197 198
f 198 199 200
o beds_2_0_0
v 0.000 3305.043 27.000
v 585.656 3684.704 27.000
v 585.656 3217.530 27.000
v 0.000 3217.530 27.000
v 4.602 3302.304 0.000
v 586.394 3679.460 0.000
v 586.394 3217.530 0.000
v 4.602 3217.530 0.000
f 201 202 206 205
f 202 203 207 206
f 203 204 208 207
f 204 201 205 208
f 201 204 203
f 203 202 201
f 208 205 206
f 206 207 208
o beds_2_1_0_uncut
v 587.131 3684.704 27.000
v 1026.848 3974.421 27.000
v 1026.848 3217.530 27.000
v 587.131 3217.530 27.000
v 586.394 3679.460 0.000
v 1027.608 3970.162 0.000
v 1027.608 3217.530 0.000
v 586.394 3217.530 0.000
f 209 210 214 213
f 210 211 215 214
f 211 212 216 215
f 212 209 213 216
f 209 212 211
f 211 210 209
f 216 213 214
f 214 215 216
o beds_2_1_0
v 587.131 3684.704 27.000
v 1026.848 3974.421 27.000
v 1026.848 3217.530 27.000
v 587.131 3217.530 27.000
v 586.394 3679.460 0.000
v 1027.608 3970.162 0.000
v 1027.608 3217.530 0.000
v 586.394 3217.530 0.000
f 217 218 222 221
f 218 219 223 222
f 219 220 224 223
f 220 217 221 224
f 217 220 219
f 219 218 217
f 224 221 222
f 222 223 224
o beds_2_2_0_uncut
v 1028.367 3974.421 27.000
v 1462.305 4264.178 27.000
v 1462.305 3217.530 27.000
v 1028.367 3217.530 27.000
v 1027.608 3970.162 0.000
v 1463.083 4260.946 0.000
v 1463.083 3217.530 0.000
v 1027.608 3217.530 0.000
f 225 226 230 229
f 226 227 231 230
f 227 228 232 231
f 228 225 229 232
f 225 228 227
f 227 226 225
f 232 229 230
f 230 231 232
o beds_2_2_0
v 1028.367 3974.421 27.000
v 1462.305 4264.178 27.000
v 1462.305 3217.530 27.000
v 1028.367 3217.530 27.000
v 1027.608 3970.162 0.000
v 1463.083 4260.946 0.000
v 1463.083 3217.530 0.000
v 1027.608 3217.530 0.000
f 233 234 238 237
f 234 235 239 238
f 235 236 240 239
f 236 233 237 240
f 233 236 235
f 235 234 233
f 240 237 238
f 238 239 240
o beds_2_3_0_uncut
v 1463.861 4264.178 27.000
v 1893.413 4553.966 27.000
v 1893.413 3217.530 27.000
v 1463.861 3217.530 27.000
v 1463.083 4260.946 0.000
v 1894.204 4551.793 0.000
v 1894.204 3217.530 0.000
v 1463.083 3217.530 0.000
f 241 242 246 245
f 242 243 247 246
f 243 244 248 247
f 244 241 245 248
f 241 244 243
f 243 242 241
f 248 245 246
f 246 247 248
o beds_2_3_0
v 1463.861 4264.178 27.000
v 1893.413 4553.966 27.000
v 1893.413 3217.530 27.000
v 1463.861 3217.530 27.000
v 1463.083 4260.946 0.000
v 1894.204 4551.793 0.000
v 1894.204 3217.530 0.000
v 1463.083 3217.530 0.000
f 249 250 254 253
f 250 251 255 254
f 251 252 256 255
f 252 249 253 256
f 249 252 251
f 251 250 249
f 256 253 254
f 254 255 256
o beds_2_4_0_uncut
v 1894.996 4553.966 27.000
v 2321.600 4843.777 27.000
v 2321.600 3217.530 27.000
v 1894.996 3217.530 27.000
v 1894.204 4551.793 0.000
v 2322.400 4842.685 -0.000
v 2322.400 3217.530 0.000
v 1894.204 3217.530 0.000
f 257 258 262 261
f 258 259 263 262
f 259 260 264 263
f 260 257 261 264
f 257 260 259
f 259 258 257
f 264 261 262
f 262 263 264
o beds_2_4_0
v 1894.996 4553.966 27.000
v 2321.600 4843.777 27.000
v 2321.600 3217.530 27.000
v 1894.996 3217.530 27.000
v 1894.204 4551.793 0.000
v 2322.400 4842.685 0.000
v 2322.400 3217.530 0.000
v 1894.204 3217.530 0.000
f 265 266 270 269
f 266 267 271 270
f 267 268 272 271
f 268 265 269 272
f 265 268 267
f 267 266 265
f 272 269 270
f 270 271 272
o beds_2_5_0_uncut
v 2323.200 4843.777 27.000
v 2688.296 5092.677 27.000
v 2688.296 3217.530 27.000
v 2323.200 3217.530 27.000
v 2322.400 4842.685 0.000
v 2689.098 5092.677 0.000
v 2689.098 3217.530 0.000
v 2322.400 3217.530 0.000
f 273 274 278 277
f 274 275 279 278
f 275 276 280 279
f 276 273 277 280
f 273 276 275
f 275 274 273
f 280 277 278
f 278 279 280
o beds_2_5_0
v 2323.200 4843.777 27.000
v 2688.296 5092.677 27.000
v 2688.296 3217.530 27.000
v 2323.200 3217.530 27.000
v 2322.400 4842.685 0.000
v 2689.098 5092.677 0.000
v 2689.098 3217.530 0.000
v 2322.400 3217.530 0.000
f 281 282 286 285
f 282 283 287 286
f 283 284 288 287
f 284 281 285 288
f 281 284 283
f 283 282 281
f 288 285 286
f 286 287 288
