# OBJ
# COMPAS
# version: 2.15.1
# precision: 3
# V F E: 144 216 324

o beds_0_preview
v 0.000 1787.634 27.000
v -0.000 1875.147 27.000
v 585.656 1875.147 27.000
v 585.656 1407.973 27.000
v 4.602 1790.373 0.000
v 4.602 1875.147 0.000
v 586.394 1875.147 0.000
v 586.394 1413.218 0.000
v 587.131 1407.973 27.000
v 587.131 1875.147 27.000
v 1026.848 1875.147 27.000
v 1026.848 1118.256 27.000
v 586.394 1413.218 0.000
v 586.394 1875.147 0.000
v 1027.608 1875.147 0.000
v 1027.608 1122.515 0.000
v 1028.367 1118.256 27.000
v 1028.367 1875.147 27.000
v 1462.305 1875.147 27.000
v 1462.305 828.500 27.000
v 1027.608 1122.515 0.000
v 1027.608 1875.147 0.000
v 1463.083 1875.147 0.000
v 1463.083 831.731 0.000
v 1463.861 828.500 27.000
v 1463.861 1875.147 27.000
v 1893.413 1875.147 27.000
v 1893.413 538.711 27.000
v 1463.083 831.731 0.000
v 1463.083 1875.147 0.000
v 1894.204 1875.147 0.000
v 1894.204 540.884 0.000
v 1894.996 538.711 27.000
v 1894.996 1875.147 27.000
v 2321.600 1875.147 27.000
v 2321.600 248.900 27.000
v 1894.204 540.884 0.000
v 1894.204 1875.147 0.000
v 2322.400 1875.147 0.000
v 2322.400 249.992 0.000
v 2323.200 248.900 27.000
v 2323.200 1875.147 27.000
v 2688.296 1875.147 27.000
v 2688.296 0.000 27.000
v 2322.400 249.992 0.000
v 2322.400 1875.147 0.000
v 2689.098 1875.147 0.000
v 2689.098 -0.000 0.000
v 0.000 2578.242 27.390
v 686.639 2703.396 27.495
v 686.639 2389.281 27.495
v 0.000 2514.435 27.390
v 2.579 2577.339 0.000
v 684.687 2701.667 0.104
v 684.687 2391.010 0.104
v 2.579 2515.338 0.000
v 687.924 2703.396 27.372
v 1205.771 2798.900 27.451
v 1205.771 2293.777 27.451
v 687.924 2389.281 27.372
v 684.687 2701.667 0.104
v 1204.297 2797.497 0.183
v 1204.297 2295.181 0.183
v 684.687 2391.010 0.104
v 1207.079 2798.900 27.349
v 1720.048 2894.418 27.427
v 1720.048 2198.259 27.427
v 1207.079 2293.777 27.349
v 1204.297 2797.497 0.183
v 1719.083 2893.352 0.261
v 1719.083 2199.325 0.261
v 1204.297 2295.181 0.183
v 1721.374 2894.418 27.347
v 2230.655 2989.946 27.425
v 2230.655 2102.732 27.425
v 1721.374 2198.259 27.347
v 1719.083 2893.352 0.261
v 2230.225 2989.229 0.339
v 2230.225 2103.448 0.339
v 1719.083 2199.325 0.261
v 2231.995 2989.946 27.370
v 2738.803 3085.481 27.448
v 2738.803 2007.196 27.448
v 2231.995 2102.732 27.370
v 2230.225 2989.229 0.339
v 2738.923 3085.121 0.416
v 2738.923 2007.556 0.416
v 2230.225 2103.448 0.339
v 2740.150 3085.481 27.420
v 3174.332 3167.530 27.486
v 3174.332 1925.147 27.486
v 2740.150 2007.196 27.420
v 2738.923 3085.121 0.416
v 3175.011 3167.530 0.483
v 3175.011 1925.147 0.483
v 2738.923 2007.556 0.416
v 0.000 3305.043 27.000
v 585.656 3684.704 27.000
v 585.656 3217.530 27.000
v 0.000 3217.530 27.000
v 4.602 3302.304 0.000
v 586.394 3679.460 0.000
v 586.394 3217.530 0.000
v 4.602 3217.530 0.000
v 587.131 3684.704 27.000
v 1026.848 3974.421 27.000
v 1026.848 3217.530 27.000
v 587.131 3217.530 27.000
v 586.394 3679.460 0.000
v 1027.608 3970.162 0.000
v 1027.608 3217.530 0.000
v 586.394 3217.530 0.000
v 1028.367 3974.421 27.000
v 1462.305 4264.178 27.000
v 1462.305 3217.530 27.000
v 1028.367 3217.530 27.000
v 1027.608 3970.162 0.000
v 1463.083 4260.946 0.000
v 1463.083 3217.530 0.000
v 1027.608 3217.530 0.000
v 1463.861 4264.178 27.000
v 1893.413 4553.966 27.000
v 1893.413 3217.530 27.000
v 1463.861 3217.530 27.000
v 1463.083 4260.946 0.000
v 1894.204 4551.793 0.000
v 1894.204 3217.530 0.000
v 1463.083 3217.530 0.000
v 1894.996 4553.966 27.000
v 2321.600 4843.777 27.000
v 2321.600 3217.530 27.000
v 1894.996 3217.530 27.000
v 1894.204 4551.793 0.000
v 2322.400 4842.685 0.000
v 2322.400 3217.530 0.000
v 1894.204 3217.530 0.000
v 2323.200 4843.777 27.000
v 2688.296 5092.677 27.000
v 2688.296 3217.530 27.000
v 2323.200 3217.530 27.000
v 2322.400 4842.685 0.000
v 2689.098 5092.677 0.000
v 2689.098 3217.530 0.000
v 2322.400 3217.530 0.000
f 1 4 3
f 3 2 1
f 8 5 6
f 6 7 8
f 9 12 11
f 11 10 9
f 16 13 14
f 14 15 16
f 17 20 19
f 19 18 17
f 24 21 22
f 22 23 24
f 25 28 27
f 27 26 25
f 32 29 30
f 30 31 32
f 33 36 35
f 35 34 33
f 40 37 38
f 38 39 40
f 41 44 43
f 43 42 41
f 48 45 46
f 46 47 48
f 49 52 51
f 51 50 49
f 56 53 54
f 54 55 56
f 57 60 59
f 59 58 57
f 64 61 62
f 62 63 64
f 65 68 67
f 67 66 65
f 72 69 70
f 70 71 72
f 73 76 75
f 75 74 73
f 80 77 78
f 78 79 80
f 81 84 83
f 83 82 81
f 88 85 86
f 86 87 88
f 89 92 91
f 91 90 89
f 96 93 94
f 94 95 96
f 97 100 99
f 99 98 97
f 104 101 102
f 102 103 104
f 105 108 107
f 107 106 105
f 112 109 110
f 110 111 112
f 113 116 115
f 115 114 113
f 120 117 118
f 118 119 120
f 121 124 123
f 123 122 121
f 128 125 126
f 126 127 128
f 129 132 131
f 131 130 129
f 136 133 134
f 134 135 136
f 137 140 139
f 139 138 137
f 144 141 142
f 142 143 144
f 5 1 2
f 2 6 5
f 6 2 3
f 3 7 6
f 7 3 4
f 4 8 7
f 8 4 1
f 1 5 8
f 13 9 10
f 10 14 13
f 14 10 11
f 11 15 14
f 15 11 12
f 12 16 15
f 16 12 9
f 9 13 16
f 21 17 18
f 18 22 21
f 22 18 19
f 19 23 22
f 23 19 20
f 20 24 23
f 24 20 17
f 17 21 24
f 29 25 26
f 26 30 29
f 30 26 27
f 27 31 30
f 31 27 28
f 28 32 31
f 32 28 25
f 25 29 32
f 37 33 34
f 34 38 37
f 38 34 35
f 35 39 38
f 39 35 36
f 36 40 39
f 40 36 33
f 33 37 40
f 45 41 42
f 42 46 45
f 46 42 43
f 43 47 46
f 47 43 44
f 44 48 47
f 48 44 41
f 41 45 48
f 53 49 50
f 50 54 53
f 54 50 51
f 51 55 54
f 55 51 52
f 52 56 55
f 56 52 49
f 49 53 56
f 61 57 58
f 58 62 61
f 62 58 59
f 59 63 62
f 63 59 60
f 60 64 63
f 64 60 57
f 57 61 64
f 69 65 66
f 66 70 69
f 70 66 67
f 67 71 70
f 71 67 68
f 68 72 71
f 72 68 65
f 65 69 72
f 77 73 74
f 74 78 77
f 78 74 75
f 75 79 78
f 79 75 76
f 76 80 79
f 80 76 73
f 73 77 80
f 85 81 82
f 82 86 85
f 86 82 83
f 83 87 86
f 87 83 84
f 84 88 87
f 88 84 81
f 81 85 88
f 93 89 90
f 90 94 93
f 94 90 91
f 91 95 94
f 95 91 92
f 92 96 95
f 96 92 89
f 89 93 96
f 101 97 98
f 98 102 101
f 102 98 99
f 99 103 102
f 103 99 100
f 100 104 103
f 104 100 97
f 97 101 104
f 109 105 106
f 106 110 109
f 110 106 107
f 107 111 110
f 111 107 108
f 108 112 111
f 112 108 105
f 105 109 112
f 117 113 114
f 114 118 117
f 118 114 115
f 115 119 118
f 119 115 116
f 116 120 119
f 120 116 113
f 113 117 120
f 125 121 122
f 122 126 125
f 126 122 123
f 123 127 126
f 127 123 124
f 124 128 127
f 128 124 121
f 121 125 128
f 133 129 130
f 130 134 133
f 134 130 131
f 131 135 134
f 135 131 132
f 132 136 135
f 136 132 129
f 129 133 136
f 141 137 138
f 138 142 141
f 142 138 139
f 139 143 142
f 143 139 140
f 140 144 143
f 144 140 137
f 137 141 144
