# OBJ
# COMPAS
# version: 2.15.1
# precision: 3
# V F E: 16 20 34

o bolt_0
v 80.000 -9.239 13.066
v 80.000 -3.827 18.478
v 80.000 3.827 18.478
v 80.000 9.239 13.066
v 80.000 9.239 5.412
v 80.000 3.827 -0.000
v 80.000 -3.827 -0.000
v 80.000 -9.239 5.412
v -80.000 -9.239 13.066
v -80.000 -3.827 18.478
v -80.000 3.827 18.478
v -80.000 9.239 13.066
v -80.000 9.239 5.412
v -80.000 3.827 -0.000
v -80.000 -3.827 -0.000
v -80.000 -9.239 5.412
f 1 2 10 9
f 2 3 11 10
f 3 4 12 11
f 4 5 13 12
f 5 6 14 13
f 6 7 15 14
f 7 8 16 15
f 8 1 9 16
f 1 8 7
f 7 6 5
f 5 4 3
f 3 2 1
f 1 7 5
f 5 3 1
f 16 9 10
f 10 11 12
f 12 13 14
f 14 15 16
f 16 10 12
f 12 14 16
