ISO-10303-21;
HEADER;
FILE_DESCRIPTION(('ViewDefinition [CoordinationView]'),'2;1');
FILE_NAME('','2026-08-25T22:33:22',(''),(''),'IfcOpenShell 0.8.4-e8eb5e4','IfcOpenShell 0.8.4-e8eb5e4','');
FILE_SCHEMA(('IFC4'));
ENDSEC;
DATA;
#1=IFCPROJECT('1V$4JjR8L6jB66nl8dGR9l',$,'Default Project',$,$,$,$,(#11),#6);
#2=IFCSIUNIT(*,.LENGTHUNIT.,.MILLI.,.METRE.);
#3=IFCSIUNIT(*,.AREAUNIT.,.MILLI.,.SQUARE_METRE.);
#4=IFCSIUNIT(*,.VOLUMEUNIT.,.MILLI.,.CUBIC_METRE.);
#5=IFCSIUNIT(*,.PLANEANGLEUNIT.,$,.RADIAN.);
#6=IFCUNITASSIGNMENT((#2,#3,#4,#5));
#7=IFCCARTESIANPOINT((0.,0.,0.));
#8=IFCDIRECTION((0.,0.,1.));
#9=IFCDIRECTION((1.,0.,0.));
#10=IFCAXIS2PLACEMENT3D(#7,#8,#9);
#11=IFCGEOMETRICREPRESENTATIONCONTEXT($,'Model',3,1.E-05,#10,$);
#12=IFCGEOMETRICREPRESENTATIONSUBCONTEXT('Body','Model',*,*,*,*,#11,$,.MODEL_VIEW.,$);
#13=IFCPERSON($,'Unknown Author',$,$,$,$,$,$);
#14=IFCORGANIZATION($,'compas.dev',$,$,$);
#15=IFCPERSONANDORGANIZATION(#13,#14,$);
#16=IFCAPPLICATION(#14,'2.1.0','compas_ifc','compas_ifc v2.1.0');
#17=IFCOWNERHISTORY(#15,#16,$,$,$,$,$,1787690002);
#18=IFCSITE('01IakPSffFwgny36OadGL7',$,'Default Site',$,$,$,$,$,$,$,$,$,$,$);
#19=IFCRELAGGREGATES('0vOVU4LaTB6h1zXw7NdJYH',$,$,$,#1,(#18));
#20=IFCBUILDING('1G4gkpUAHCReYchakmFgS5',$,'Default Building 1',$,$,$,$,$,$,$,$,$);
#21=IFCRELAGGREGATES('0QpN3_DhP7RAYttodgcXGT',$,$,$,#18,(#20));
#22=IFCBUILDINGSTOREY('0v3FT353nEoBdNlZ_FHwAo',$,'Default Storey 1',$,$,$,$,$,$,$);
#23=IFCRELAGGREGATES('0jn89GkvjFQApwwRv8eKpy',$,$,$,#20,(#22));
#24=IFCBUILDINGELEMENTPROXY('0DOIEEA4b649WjjwuYUplw',$,'bolt_0',$,$,$,#49,$,$);
#25=IFCRELCONTAINEDINSPATIALSTRUCTURE('05q_O4kwr0K8OZWDkDTKKM',$,$,$,(#24),#22);
#26=IFCINDEXEDPOLYGONALFACE((1,2,10,9));
#27=IFCINDEXEDPOLYGONALFACE((2,3,11,10));
#28=IFCINDEXEDPOLYGONALFACE((3,4,12,11));
#29=IFCINDEXEDPOLYGONALFACE((4,5,13,12));
#30=IFCINDEXEDPOLYGONALFACE((5,6,14,13));
#31=IFCINDEXEDPOLYGONALFACE((6,7,15,14));
#32=IFCINDEXEDPOLYGONALFACE((7,8,16,15));
#33=IFCINDEXEDPOLYGONALFACE((8,1,9,16));
#34=IFCINDEXEDPOLYGONALFACE((1,8,7));
#35=IFCINDEXEDPOLYGONALFACE((7,6,5));
#36=IFCINDEXEDPOLYGONALFACE((5,4,3));
#37=IFCINDEXEDPOLYGONALFACE((3,2,1));
#38=IFCINDEXEDPOLYGONALFACE((1,7,5));
#39=IFCINDEXEDPOLYGONALFACE((5,3,1));
#40=IFCINDEXEDPOLYGONALFACE((16,9,10));
#41=IFCINDEXEDPOLYGONALFACE((10,11,12));
#42=IFCINDEXEDPOLYGONALFACE((12,13,14));
#43=IFCINDEXEDPOLYGONALFACE((14,15,16));
#44=IFCINDEXEDPOLYGONALFACE((16,10,12));
#45=IFCINDEXEDPOLYGONALFACE((12,14,16));
#46=IFCCARTESIANPOINTLIST3D(((80.,-9.23879532511251,13.0656296487634),(80.,-3.82683432365025,18.477590650225),(80.,3.82683432365138,18.477590650225),(80.,9.23879532511296,13.0656296487628),(80.,9.23879532511296,5.41196100146112),(80.,3.8268343236507,-4.54747350886464E-13),(80.,-3.82683432365093,-4.54747350886464E-13),(80.,-9.23879532511251,5.4119610014618),(-80.,-9.23879532511251,13.0656296487634),(-80.,-3.82683432365025,18.477590650225),(-80.,3.82683432365138,18.477590650225),(-80.,9.23879532511296,13.0656296487628),(-80.,9.23879532511296,5.41196100146112),(-80.,3.8268343236507,-4.54747350886464E-13),(-80.,-3.82683432365093,-4.54747350886464E-13),(-80.,-9.23879532511251,5.4119610014618)));
#47=IFCPOLYGONALFACESET(#46,.T.,(#26,#27,#28,#29,#30,#31,#32,#33,#34,#35,#36,#37,#38,#39,#40,#41,#42,#43,#44,#45),$);
#48=IFCSHAPEREPRESENTATION(#12,'Body','Tessellation',(#47));
#49=IFCPRODUCTDEFINITIONSHAPE($,$,(#48));
ENDSEC;
END-ISO-10303-21;
