# OBJ
# COMPAS
# version: 2.15.1
# precision: 3
# V F E: 522 904 1406

o column_0_uncut
v 0.000 0.000 0.000
v 3350.000 0.000 0.000
v 0.000 0.000 220.000
v 2620.000 0.000 220.000
v 3350.000 0.000 220.000
v 2620.000 0.000 340.000
v 3350.000 0.000 340.000
v 0.000 220.000 0.000
v 2620.000 220.000 0.000
v 3350.000 220.000 0.000
v 2620.000 340.000 0.000
v 3350.000 340.000 0.000
v 0.000 220.000 220.000
v 2620.000 220.000 220.000
v 3350.000 220.000 220.000
v 2620.000 340.000 220.000
v 3350.000 340.000 220.000
v 2620.000 340.000 340.000
v 3350.000 340.000 340.000
f 1 2 3
f 1 3 13
f 1 13 8
f 1 8 9
f 1 10 2
f 2 4 3
f 2 5 4
f 2 15 5
f 1 9 10
f 2 10 15
f 3 14 13
f 3 4 14
f 8 13 14
f 8 14 9
f 9 12 10
f 9 11 12
f 9 16 11
f 10 12 17
f 11 17 12
f 9 14 16
f 10 17 15
f 11 16 17
f 4 5 6
f 5 7 6
f 4 6 18
f 6 7 18
f 5 19 7
f 4 18 14
f 19 5 15
f 7 19 18
f 18 16 14
f 17 19 15
f 16 19 17
f 16 18 19
o column_0_cut
v 0.000 0.000 0.000
v 3350.000 0.000 0.000
v 3100.000 0.000 35.000
v 3350.000 0.000 35.000
v 3100.000 35.000 0.000
v 3350.000 35.000 0.000
v 3100.000 35.000 35.000
v 3350.000 35.000 35.000
v 3100.000 0.000 65.000
v 3350.000 0.000 65.000
v 3100.000 35.000 65.000
v 3350.000 35.000 65.000
v 3100.000 65.000 0.000
v 3350.000 65.000 0.000
v 3100.000 65.000 35.000
v 3350.000 65.000 35.000
v 3100.000 65.000 65.000
v 3350.000 65.000 65.000
v 3165.433 0.000 128.153
v 3175.000 0.000 126.250
v 3184.567 0.000 128.153
v 3265.433 0.000 128.153
v 3275.000 0.000 126.250
v 3284.567 0.000 128.153
v 3157.322 0.000 133.572
v 3192.678 0.000 133.572
v 3257.322 0.000 133.572
v 3292.678 0.000 133.572
v 3151.903 0.000 141.683
v 3198.097 0.000 141.683
v 3150.000 0.000 151.250
v 3200.000 0.000 151.250
v 3251.903 0.000 141.683
v 3298.097 0.000 141.683
v 3250.000 0.000 151.250
v 3300.000 0.000 151.250
v 3151.903 0.000 160.817
v 3198.097 0.000 160.817
v 3251.903 0.000 160.817
v 3298.097 0.000 160.817
v 3165.433 35.000 128.153
v 3175.000 35.000 126.250
v 3184.567 35.000 128.153
v 3265.433 35.000 128.153
v 3275.000 35.000 126.250
v 3284.567 35.000 128.153
v 3157.322 35.000 133.572
v 3192.678 35.000 133.572
v 3257.322 35.000 133.572
v 3292.678 35.000 133.572
v 3151.903 35.000 141.683
v 3198.097 35.000 141.683
v 3150.000 35.000 151.250
v 3200.000 35.000 151.250
v 3251.903 35.000 141.683
v 3298.097 35.000 141.683
v 3250.000 35.000 151.250
v 3300.000 35.000 151.250
v 3151.903 35.000 160.817
v 3198.097 35.000 160.817
v 3251.903 35.000 160.817
v 3298.097 35.000 160.817
v 3165.433 65.000 128.153
v 3175.000 65.000 126.250
v 3184.567 65.000 128.153
v 3265.433 65.000 128.153
v 3275.000 65.000 126.250
v 3284.567 65.000 128.153
v 3157.322 65.000 133.572
v 3192.678 65.000 133.572
v 3257.322 65.000 133.572
v 3292.678 65.000 133.572
v 3151.903 65.000 141.683
v 3198.097 65.000 141.683
v 3150.000 65.000 151.250
v 3200.000 65.000 151.250
v 3251.903 65.000 141.683
v 3298.097 65.000 141.683
v 3250.000 65.000 151.250
v 3300.000 65.000 151.250
v 3151.903 65.000 160.817
v 3198.097 65.000 160.817
v 3251.903 65.000 160.817
v 3298.097 65.000 160.817
v 3165.433 128.153 0.000
v 3175.000 126.250 0.000
v 3184.567 128.153 0.000
v 3265.433 128.153 0.000
v 3275.000 126.250 0.000
v 3284.567 128.153 0.000
v 3157.322 133.572 0.000
v 3192.678 133.572 0.000
v 3257.322 133.572 0.000
v 3292.678 133.572 0.000
v 3165.433 128.153 35.000
v 3175.000 126.250 35.000
v 3184.567 128.153 35.000
v 3265.433 128.153 35.000
v 3275.000 126.250 35.000
v 3284.567 128.153 35.000
v 3157.322 133.572 35.000
v 3192.678 133.572 35.000
v 3257.322 133.572 35.000
v 3292.678 133.572 35.000
v 3151.903 141.683 0.000
v 3198.097 141.683 0.000
v 3150.000 151.250 0.000
v 3200.000 151.250 0.000
v 3251.903 141.683 0.000
v 3298.097 141.683 0.000
v 3250.000 151.250 0.000
v 3300.000 151.250 0.000
v 3151.903 160.817 0.000
v 3198.097 160.817 0.000
v 3251.903 160.817 0.000
v 3298.097 160.817 0.000
v 3151.903 141.683 35.000
v 3198.097 141.683 35.000
v 3150.000 151.250 35.000
v 3200.000 151.250 35.000
v 3251.903 141.683 35.000
v 3298.097 141.683 35.000
v 3250.000 151.250 35.000
v 3300.000 151.250 35.000
v 3151.903 160.817 35.000
v 3198.097 160.817 35.000
v 3251.903 160.817 35.000
v 3298.097 160.817 35.000
v 3165.433 128.153 65.000
v 3175.000 126.250 65.000
v 3184.567 128.153 65.000
v 3265.433 128.153 65.000
v 3275.000 126.250 65.000
v 3284.567 128.153 65.000
v 3157.322 133.572 65.000
v 3192.678 133.572 65.000
v 3257.322 133.572 65.000
v 3292.678 133.572 65.000
v 3151.903 141.683 65.000
v 3198.097 141.683 65.000
v 3150.000 151.250 65.000
v 3200.000 151.250 65.000
v 3251.903 141.683 65.000
v 3298.097 141.683 65.000
v 3250.000 151.250 65.000
v 3300.000 151.250 65.000
v 3151.903 160.817 65.000
v 3198.097 160.817 65.000
v 3251.903 160.817 65.000
v 3298.097 160.817 65.000
v 3165.433 125.000 128.153
v 3175.000 125.000 126.250
v 3184.567 125.000 128.153
v 3165.433 128.153 125.000
v 3175.000 126.250 125.000
v 3184.567 128.153 125.000
v 3265.433 125.000 128.153
v 3275.000 125.000 126.250
v 3284.567 125.000 128.153
v 3265.433 128.153 125.000
v 3275.000 126.250 125.000
v 3284.567 128.153 125.000
v 3157.322 125.000 133.572
v 3192.678 125.000 133.572
v 3257.322 125.000 133.572
v 3292.678 125.000 133.572
v 3157.322 133.572 125.000
v 3192.678 133.572 125.000
v 3257.322 133.572 125.000
v 3292.678 133.572 125.000
v 3151.903 125.000 141.683
v 3198.097 125.000 141.683
v 3150.000 125.000 151.250
v 3175.000 125.000 151.250
v 3200.000 125.000 151.250
v 3251.903 125.000 141.683
v 3298.097 125.000 141.683
v 3250.000 125.000 151.250
v 3275.000 125.000 151.250
v 3300.000 125.000 151.250
v 3151.903 125.000 160.817
v 3198.097 125.000 160.817
v 3251.903 125.000 160.817
v 3298.097 125.000 160.817
v 3151.903 141.683 125.000
v 3198.097 141.683 125.000
v 3150.000 151.250 125.000
v 3175.000 151.250 125.000
v 3200.000 151.250 125.000
v 3251.903 141.683 125.000
v 3298.097 141.683 125.000
v 3250.000 151.250 125.000
v 3275.000 151.250 125.000
v 3300.000 151.250 125.000
v 3151.903 160.817 125.000
v 3198.097 160.817 125.000
v 3251.903 160.817 125.000
v 3298.097 160.817 125.000
v 0.000 0.000 220.000
v 3157.322 0.000 168.928
v 3192.678 0.000 168.928
v 3257.322 0.000 168.928
v 3292.678 0.000 168.928
v 3165.433 0.000 174.347
v 3184.567 0.000 174.347
v 3175.000 0.000 176.250
v 3265.433 0.000 174.347
v 3284.567 0.000 174.347
v 3275.000 0.000 176.250
v 3157.322 35.000 168.928
v 3192.678 35.000 168.928
v 3257.322 35.000 168.928
v 3292.678 35.000 168.928
v 3165.433 35.000 174.347
v 3184.567 35.000 174.347
v 3175.000 35.000 176.250
v 3265.433 35.000 174.347
v 3284.567 35.000 174.347
v 3275.000 35.000 176.250
v 2620.000 0.000 220.000
v 3350.000 0.000 220.000
v 3350.000 35.000 220.000
v 3157.322 65.000 168.928
v 3192.678 65.000 168.928
v 3257.322 65.000 168.928
v 3292.678 65.000 168.928
v 3165.433 65.000 174.347
v 3184.567 65.000 174.347
v 3175.000 65.000 176.250
v 3265.433 65.000 174.347
v 3284.567 65.000 174.347
v 3275.000 65.000 176.250
v 3350.000 65.000 220.000
v 3100.000 35.000 257.063
v 3142.480 35.000 250.765
v 2655.450 0.000 322.968
v 3100.000 65.000 257.063
v 3350.000 120.000 220.000
v 3157.322 125.000 168.928
v 3192.678 125.000 168.928
v 3257.322 125.000 168.928
v 3292.678 125.000 168.928
v 3165.433 125.000 174.347
v 3184.567 125.000 174.347
v 3175.000 125.000 176.250
v 3265.433 125.000 174.347
v 3284.567 125.000 174.347
v 3275.000 125.000 176.250
v 0.000 220.000 0.000
v 3157.322 168.928 0.000
v 3192.678 168.928 0.000
v 3257.322 168.928 0.000
v 3292.678 168.928 0.000
v 3165.433 174.347 0.000
v 3184.567 174.347 0.000
v 3175.000 176.250 0.000
v 3265.433 174.347 0.000
v 3284.567 174.347 0.000
v 3275.000 176.250 0.000
v 3157.322 168.928 35.000
v 3192.678 168.928 35.000
v 3257.322 168.928 35.000
v 3292.678 168.928 35.000
v 3165.433 174.347 35.000
v 3184.567 174.347 35.000
v 3175.000 176.250 35.000
v 3265.433 174.347 35.000
v 3284.567 174.347 35.000
v 3275.000 176.250 35.000
v 3157.322 168.928 65.000
v 3192.678 168.928 65.000
v 3257.322 168.928 65.000
v 3292.678 168.928 65.000
v 3165.433 174.347 65.000
v 3184.567 174.347 65.000
v 3175.000 176.250 65.000
v 3265.433 174.347 65.000
v 3284.567 174.347 65.000
v 3275.000 176.250 65.000
v 2620.000 220.000 0.000
v 3350.000 220.000 0.000
v 3350.000 220.000 35.000
v 3280.190 230.349 35.000
v 3350.000 220.000 65.000
v 3157.322 168.928 125.000
v 3192.678 168.928 125.000
v 3257.322 168.928 125.000
v 3292.678 168.928 125.000
v 3165.433 174.347 125.000
v 3184.567 174.347 125.000
v 3175.000 176.250 125.000
v 3265.433 174.347 125.000
v 3284.567 174.347 125.000
v 3275.000 176.250 125.000
v 3350.000 220.000 120.000
v 3100.000 257.063 35.000
v 3100.000 257.063 65.000
v 3142.480 250.765 65.000
v 2655.450 322.968 0.000
v 0.000 220.000 220.000
v 2620.000 220.000 220.000
v 2655.450 190.228 322.968
v 2655.450 322.968 190.228
f 20 21 218
f 20 218 319
f 20 319 268
f 20 268 299
f 20 110 21
f 21 23 22
f 21 27 23
f 22 23 26
f 21 25 27
f 23 27 26
f 22 30 28
f 28 31 29
f 22 26 30
f 28 30 31
f 21 129 25
f 129 33 25
f 21 22 218
f 22 239 218
f 22 28 239
f 28 29 239
f 29 42 39
f 29 43 42
f 29 47 43
f 29 53 47
f 29 31 241
f 29 39 239
f 39 41 40
f 39 42 41
f 40 41 46
f 40 46 45
f 45 46 52
f 45 52 49
f 239 38 44
f 239 39 38
f 49 52 54
f 49 54 51
f 29 240 53
f 51 54 58
f 51 58 57
f 20 124 110
f 20 126 124
f 20 132 126
f 20 269 132
f 20 273 269
f 20 299 300
f 20 300 273
f 21 104 105
f 21 105 106
f 21 110 104
f 21 106 111
f 21 107 108
f 21 108 109
f 21 112 107
f 21 111 112
f 21 109 113
f 21 113 129
f 115 34 35
f 120 136 34
f 136 138 34
f 114 34 115
f 114 120 34
f 115 35 118
f 118 35 119
f 119 35 123
f 301 35 33
f 123 35 141
f 141 35 143
f 153 37 36
f 154 36 158
f 158 36 160
f 148 149 36
f 149 150 36
f 148 36 154
f 150 155 36
f 155 156 36
f 151 152 36
f 152 153 36
f 151 36 156
f 153 157 37
f 157 163 37
f 105 115 106
f 104 114 105
f 106 116 111
f 107 117 108
f 108 118 109
f 109 119 113
f 111 125 112
f 112 125 128
f 104 110 120
f 110 124 136
f 111 121 125
f 107 112 122
f 113 123 129
f 112 128 140
f 138 144 34
f 105 114 115
f 106 115 116
f 104 120 114
f 108 117 118
f 109 118 119
f 107 122 117
f 115 117 116
f 115 118 117
f 116 117 122
f 143 35 147
f 111 116 121
f 110 136 120
f 121 137 125
f 113 119 123
f 112 140 122
f 123 141 129
f 116 122 121
f 121 122 140
f 121 140 137
f 125 127 128
f 127 130 128
f 129 300 33
f 125 137 127
f 124 126 138
f 129 141 131
f 128 130 142
f 127 133 130
f 130 133 134
f 127 139 133
f 126 132 144
f 131 143 135
f 130 134 146
f 144 315 34
f 124 138 136
f 127 137 139
f 128 142 140
f 131 141 143
f 137 140 142
f 137 142 139
f 147 35 301
f 126 144 138
f 133 139 145
f 130 146 142
f 135 143 147
f 139 142 146
f 139 146 145
f 316 36 34
f 160 36 166
f 155 159 156
f 156 159 162
f 166 36 316
f 159 161 162
f 161 164 162
f 163 303 37
f 161 167 164
f 164 167 168
f 149 174 150
f 148 173 149
f 150 175 155
f 151 179 152
f 152 180 153
f 153 181 157
f 148 154 186
f 154 158 204
f 155 187 159
f 151 156 188
f 157 189 163
f 156 162 209
f 149 173 174
f 150 174 175
f 148 186 173
f 152 179 180
f 153 180 181
f 151 188 179
f 155 175 187
f 154 204 186
f 159 187 205
f 157 181 189
f 156 209 188
f 163 189 210
f 257 37 303
f 159 205 161
f 158 160 206
f 163 210 165
f 162 164 211
f 161 208 167
f 160 166 214
f 165 213 169
f 164 168 216
f 158 206 204
f 161 205 208
f 162 211 209
f 165 210 213
f 160 214 206
f 167 208 215
f 164 216 211
f 169 213 217
f 173 207 174
f 174 207 175
f 173 186 207
f 175 207 187
f 179 212 180
f 180 212 181
f 179 188 212
f 181 212 189
f 186 204 207
f 187 207 205
f 204 206 207
f 205 207 208
f 188 209 212
f 189 212 210
f 209 211 212
f 210 212 213
f 206 214 207
f 207 215 208
f 207 214 304
f 207 305 215
f 211 216 212
f 212 217 213
f 212 216 306
f 212 307 217
f 218 320 319
f 218 239 320
f 239 44 48
f 239 48 50
f 239 50 56
f 57 58 221
f 57 221 220
f 220 221 226
f 240 55 53
f 220 226 224
f 224 226 225
f 240 59 55
f 29 241 240
f 239 56 219
f 239 219 223
f 239 223 225
f 239 225 226
f 239 226 228
f 240 222 59
f 240 227 222
f 240 228 227
f 239 228 240
f 239 240 255
f 240 241 255
f 255 241 254
f 255 254 253
f 255 253 256
f 255 256 257
f 239 255 321
f 257 252 37
f 257 256 252
f 255 257 321
f 239 321 320
f 268 319 320
f 268 320 299
f 133 270 134
f 134 270 271
f 270 274 271
f 129 131 300
f 132 269 279
f 133 145 270
f 270 280 274
f 135 147 272
f 134 271 281
f 272 282 277
f 300 301 33
f 271 274 276
f 274 275 276
f 275 278 276
f 131 135 300
f 269 273 283
f 274 284 275
f 273 275 285
f 271 276 286
f 277 287 278
f 276 278 288
f 132 279 144
f 145 280 270
f 269 283 279
f 134 281 146
f 147 282 272
f 271 286 281
f 274 280 284
f 273 285 283
f 275 284 285
f 277 282 287
f 276 288 286
f 278 287 288
f 273 300 275
f 135 272 300
f 275 300 278
f 272 277 300
f 277 278 300
f 144 279 315
f 145 146 302
f 145 302 280
f 146 281 302
f 147 301 282
f 281 286 302
f 286 288 301
f 282 301 287
f 287 301 288
f 279 283 315
f 280 315 284
f 163 165 303
f 165 169 303
f 315 316 34
f 166 316 289
f 167 317 168
f 169 292 303
f 292 297 303
f 297 298 303
f 167 290 317
f 168 317 291
f 289 317 293
f 290 294 317
f 293 317 295
f 294 295 317
f 291 317 296
f 296 317 298
f 283 285 315
f 284 315 285
f 286 301 302
f 280 302 315
f 300 302 301
f 300 315 302
f 298 317 303
f 289 316 317
f 166 289 304
f 167 215 290
f 290 305 294
f 169 217 292
f 168 291 306
f 292 307 297
f 289 293 308
f 294 309 295
f 293 295 310
f 291 296 311
f 297 312 298
f 296 298 313
f 166 304 214
f 215 305 290
f 289 308 304
f 168 306 216
f 217 307 292
f 291 311 306
f 294 305 309
f 293 310 308
f 295 309 310
f 297 307 312
f 296 313 311
f 298 312 313
f 207 304 308
f 207 309 305
f 207 308 310
f 207 310 309
f 212 306 311
f 212 312 307
f 212 311 313
f 212 313 312
f 257 303 314
f 303 317 314
f 299 318 300
f 300 318 315
f 315 318 316
f 299 320 318
f 316 322 317
f 314 317 322
f 316 318 322
f 318 320 322
f 257 314 321
f 314 322 321
f 320 321 322
f 24 26 25
f 26 27 25
f 32 34 24
f 24 25 32
f 32 25 33
f 36 24 34
f 32 33 34
f 35 34 33
f 61 31 30
f 66 30 70
f 72 70 30
f 60 61 30
f 66 60 30
f 61 64 31
f 64 65 31
f 65 69 31
f 69 75 31
f 61 38 39
f 62 39 40
f 60 44 38
f 64 41 42
f 65 42 43
f 63 46 41
f 67 40 45
f 66 48 44
f 71 45 49
f 69 43 47
f 68 52 46
f 75 47 53
f 70 50 48
f 73 49 51
f 74 54 52
f 77 53 55
f 72 56 50
f 79 51 57
f 76 58 54
f 81 55 59
f 72 30 78
f 61 39 62
f 60 38 61
f 62 40 67
f 63 41 64
f 64 42 65
f 65 43 69
f 66 44 60
f 66 70 48
f 67 45 71
f 68 46 63
f 69 47 75
f 74 52 68
f 61 62 64
f 62 63 64
f 62 67 63
f 67 68 63
f 67 71 68
f 71 74 68
f 78 30 253
f 71 49 73
f 72 50 70
f 75 53 77
f 74 76 54
f 73 51 79
f 72 78 56
f 77 55 81
f 76 80 58
f 71 73 74
f 73 76 74
f 75 241 31
f 73 79 76
f 79 80 76
f 24 256 26
f 256 30 26
f 24 36 256
f 86 36 37
f 88 92 36
f 94 36 92
f 83 36 86
f 82 36 83
f 88 36 82
f 86 37 87
f 87 37 91
f 91 37 97
f 97 37 99
f 94 100 36
f 83 85 84
f 83 86 85
f 84 85 90
f 99 37 103
f 84 90 89
f 89 90 96
f 89 96 93
f 100 256 36
f 93 96 98
f 93 98 95
f 103 37 252
f 95 98 102
f 95 102 101
f 82 83 171
f 83 84 172
f 88 82 170
f 85 86 177
f 86 87 178
f 90 85 176
f 84 89 183
f 88 182 92
f 89 93 191
f 87 91 185
f 96 90 184
f 91 97 196
f 94 92 190
f 93 95 194
f 96 195 98
f 97 99 199
f 94 192 100
f 95 101 201
f 98 197 102
f 99 103 203
f 83 172 171
f 82 171 170
f 84 183 172
f 85 177 176
f 86 178 177
f 87 185 178
f 88 170 182
f 92 182 190
f 89 191 183
f 90 176 184
f 91 196 185
f 96 184 195
f 93 194 191
f 94 190 192
f 97 199 196
f 98 195 197
f 95 201 194
f 100 192 200
f 99 203 199
f 102 197 202
f 170 171 193
f 171 172 193
f 182 170 193
f 172 183 193
f 176 177 198
f 177 178 198
f 184 176 198
f 178 185 198
f 182 193 190
f 193 183 191
f 192 190 193
f 193 191 194
f 195 184 198
f 198 185 196
f 195 198 197
f 198 196 199
f 192 193 200
f 193 194 201
f 200 193 258
f 193 201 259
f 197 198 202
f 198 199 203
f 202 198 260
f 198 203 261
f 78 219 56
f 230 57 220
f 229 223 219
f 80 221 58
f 232 59 222
f 231 226 221
f 234 220 224
f 233 225 223
f 235 224 225
f 237 222 227
f 236 228 226
f 238 227 228
f 78 229 219
f 79 57 230
f 234 230 220
f 81 59 232
f 80 231 221
f 237 232 222
f 229 233 223
f 235 234 224
f 233 235 225
f 231 236 226
f 238 237 227
f 236 238 228
f 75 77 241
f 77 81 241
f 78 253 229
f 79 254 80
f 81 232 241
f 237 241 232
f 238 241 237
f 79 230 254
f 80 254 231
f 229 254 233
f 234 254 230
f 233 254 235
f 235 254 234
f 231 254 236
f 236 254 238
f 238 254 241
f 229 253 254
f 256 253 30
f 101 102 244
f 101 244 249
f 100 242 256
f 247 243 252
f 248 247 252
f 101 252 243
f 101 249 252
f 103 252 245
f 249 251 252
f 250 245 252
f 251 250 252
f 242 246 256
f 246 248 256
f 248 252 256
f 100 200 242
f 101 243 259
f 242 258 246
f 102 202 244
f 103 245 261
f 244 260 249
f 247 263 243
f 246 262 248
f 248 264 247
f 250 266 245
f 249 265 251
f 251 267 250
f 242 200 258
f 101 259 201
f 243 263 259
f 103 261 203
f 244 202 260
f 245 266 261
f 246 258 262
f 247 264 263
f 248 262 264
f 249 260 265
f 250 267 266
f 251 265 267
f 258 193 262
f 193 259 263
f 262 193 264
f 193 263 264
f 260 198 265
f 198 261 266
f 265 198 267
f 198 266 267
o column_0_cutter_0
v 3463.093 304.327 -109.952
v 3463.093 304.327 210.048
v 2571.196 436.551 290.228
v 2571.196 436.551 -100.000
v 3448.428 205.408 -109.952
v 3448.428 205.408 210.048
v 2556.531 337.633 290.228
v 2556.531 337.633 -100.000
f 323 324 328 327
f 324 325 329 328
f 325 326 330 329
f 326 323 327 330
f 323 326 325
f 325 324 323
f 330 327 328
f 328 329 330
o column_0_cutter_1
v 3465.793 350.395 104.334
v 3465.793 108.973 345.755
v 2574.387 203.746 473.267
v 2574.387 477.907 199.106
v 3448.428 280.758 34.697
v 3448.428 39.337 276.119
v 2557.022 134.109 403.631
v 2557.022 408.270 129.470
f 331 332 336 335
f 332 333 337 336
f 333 334 338 337
f 334 331 335 338
f 331 334 333
f 333 332 331
f 338 335 336
f 336 337 338
o column_0_cutter_2
v 3463.584 220.000 304.254
v 3463.584 -100.000 304.254
v 2571.687 -90.048 436.479
v 2571.687 300.180 436.479
v 3448.919 220.000 205.335
v 3448.919 -100.000 205.335
v 2557.022 -90.048 337.560
v 2557.022 300.180 337.560
f 339 340 344 343
f 340 341 345 344
f 341 342 346 345
f 342 339 343 346
f 339 342 341
f 341 340 339
f 346 343 344
f 344 345 346
o column_0_cutter_3
v 2592.298 446.727 -126.371
v 2592.298 446.727 263.857
v 2525.447 252.553 320.000
v 2525.447 252.553 -100.000
v 2686.851 414.174 -126.371
v 2686.851 414.174 263.857
v 2620.000 220.000 320.000
v 2620.000 220.000 -100.000
f 347 348 352 351
f 348 349 353 352
f 349 350 354 353
f 350 347 351 354
f 347 350 349
f 349 348 347
f 354 351 352
f 352 353 354
o column_0_cutter_4
v 2627.686 472.591 233.543
v 2627.686 198.430 507.704
v 2537.497 134.247 385.668
v 2537.497 385.668 134.247
v 2710.189 432.634 193.586
v 2710.189 158.473 467.747
v 2620.000 94.289 345.711
v 2620.000 345.711 94.289
f 355 356 360 359
f 356 357 361 360
f 357 358 362 361
f 358 355 359 362
f 355 358 357
f 357 356 355
f 362 359 360
f 360 361 362
o column_0_cutter_5
v 2593.450 290.228 450.074
v 2593.450 -100.000 450.074
v 2525.447 -100.000 252.553
v 2525.447 320.000 252.553
v 2688.003 290.228 417.521
v 2688.003 -100.000 417.521
v 2620.000 -100.000 220.000
v 2620.000 320.000 220.000
f 363 364 368 367
f 364 365 369 368
f 365 366 370 369
f 366 363 367 370
f 363 366 365
f 365 364 363
f 370 367 368
f 368 369 370
o column_0_cutter_6
v 3100.000 0.000 35.000
v 3100.000 0.000 65.000
v 3100.000 485.000 65.000
v 3100.000 485.000 35.000
v 3375.000 0.000 35.000
v 3375.000 485.000 35.000
v 3375.000 485.000 65.000
v 3375.000 0.000 65.000
f 371 372 373 374
f 371 374 376 375
f 374 373 377 376
f 373 372 378 377
f 372 371 375 378
f 375 376 377 378
o column_0_cutter_7
v 3300.000 151.250 125.000
v 3300.000 151.250 -25.000
v 3298.097 160.817 125.000
v 3298.097 160.817 -25.000
v 3292.678 168.928 125.000
v 3292.678 168.928 -25.000
v 3284.567 174.347 125.000
v 3284.567 174.347 -25.000
v 3275.000 176.250 125.000
v 3275.000 176.250 -25.000
v 3265.433 174.347 125.000
v 3265.433 174.347 -25.000
v 3257.322 168.928 125.000
v 3257.322 168.928 -25.000
v 3251.903 160.817 125.000
v 3251.903 160.817 -25.000
v 3250.000 151.250 125.000
v 3250.000 151.250 -25.000
v 3251.903 141.683 125.000
v 3251.903 141.683 -25.000
v 3257.322 133.572 125.000
v 3257.322 133.572 -25.000
v 3265.433 128.153 125.000
v 3265.433 128.153 -25.000
v 3275.000 126.250 125.000
v 3275.000 126.250 -25.000
v 3284.567 128.153 125.000
v 3284.567 128.153 -25.000
v 3292.678 133.572 125.000
v 3292.678 133.572 -25.000
v 3298.097 141.683 125.000
v 3298.097 141.683 -25.000
v 3275.000 151.250 125.000
v 3275.000 151.250 -25.000
f 379 380 382 381
f 381 382 384 383
f 383 384 386 385
f 385 386 388 387
f 387 388 390 389
f 389 390 392 391
f 391 392 394 393
f 393 394 396 395
f 395 396 398 397
f 397 398 400 399
f 399 400 402 401
f 401 402 404 403
f 403 404 406 405
f 405 406 408 407
f 407 408 410 409
f 409 410 380 379
f 379 381 411
f 412 382 380
f 381 383 411
f 412 384 382
f 383 385 411
f 412 386 384
f 385 387 411
f 412 388 386
f 387 389 411
f 412 390 388
f 389 391 411
f 412 392 390
f 391 393 411
f 412 394 392
f 393 395 411
f 412 396 394
f 395 397 411
f 412 398 396
f 397 399 411
f 412 400 398
f 399 401 411
f 412 402 400
f 401 403 411
f 412 404 402
f 403 405 411
f 412 406 404
f 405 407 411
f 412 408 406
f 407 409 411
f 412 410 408
f 409 379 411
f 412 380 410
o column_0_cutter_8
v 3200.000 151.250 125.000
v 3200.000 151.250 -25.000
v 3198.097 160.817 125.000
v 3198.097 160.817 -25.000
v 3192.678 168.928 125.000
v 3192.678 168.928 -25.000
v 3184.567 174.347 125.000
v 3184.567 174.347 -25.000
v 3175.000 176.250 125.000
v 3175.000 176.250 -25.000
v 3165.433 174.347 125.000
v 3165.433 174.347 -25.000
v 3157.322 168.928 125.000
v 3157.322 168.928 -25.000
v 3151.903 160.817 125.000
v 3151.903 160.817 -25.000
v 3150.000 151.250 125.000
v 3150.000 151.250 -25.000
v 3151.903 141.683 125.000
v 3151.903 141.683 -25.000
v 3157.322 133.572 125.000
v 3157.322 133.572 -25.000
v 3165.433 128.153 125.000
v 3165.433 128.153 -25.000
v 3175.000 126.250 125.000
v 3175.000 126.250 -25.000
v 3184.567 128.153 125.000
v 3184.567 128.153 -25.000
v 3192.678 133.572 125.000
v 3192.678 133.572 -25.000
v 3198.097 141.683 125.000
v 3198.097 141.683 -25.000
v 3175.000 151.250 125.000
v 3175.000 151.250 -25.000
f 413 414 416 415
f 415 416 418 417
f 417 418 420 419
f 419 420 422 421
f 421 422 424 423
f 423 424 426 425
f 425 426 428 427
f 427 428 430 429
f 429 430 432 431
f 431 432 434 433
f 433 434 436 435
f 435 436 438 437
f 437 438 440 439
f 439 440 442 441
f 441 442 444 443
f 443 444 414 413
f 413 415 445
f 446 416 414
f 415 417 445
f 446 418 416
f 417 419 445
f 446 420 418
f 419 421 445
f 446 422 420
f 421 423 445
f 446 424 422
f 423 425 445
f 446 426 424
f 425 427 445
f 446 428 426
f 427 429 445
f 446 430 428
f 429 431 445
f 446 432 430
f 431 433 445
f 446 434 432
f 433 435 445
f 446 436 434
f 435 437 445
f 446 438 436
f 437 439 445
f 446 440 438
f 439 441 445
f 446 442 440
f 441 443 445
f 446 444 442
f 443 413 445
f 446 414 444
o column_0_cutter_9
v 3100.000 65.000 0.000
v 3100.000 35.000 0.000
v 3100.000 35.000 485.000
v 3100.000 65.000 485.000
v 3375.000 65.000 0.000
v 3375.000 65.000 485.000
v 3375.000 35.000 485.000
v 3375.000 35.000 0.000
f 447 448 449 450
f 447 450 452 451
f 450 449 453 452
f 449 448 454 453
f 448 447 451 454
f 451 452 453 454
o column_0_cutter_10
v 3300.000 -25.000 151.250
v 3300.000 125.000 151.250
v 3298.097 -25.000 160.817
v 3298.097 125.000 160.817
v 3292.678 -25.000 168.928
v 3292.678 125.000 168.928
v 3284.567 -25.000 174.347
v 3284.567 125.000 174.347
v 3275.000 -25.000 176.250
v 3275.000 125.000 176.250
v 3265.433 -25.000 174.347
v 3265.433 125.000 174.347
v 3257.322 -25.000 168.928
v 3257.322 125.000 168.928
v 3251.903 -25.000 160.817
v 3251.903 125.000 160.817
v 3250.000 -25.000 151.250
v 3250.000 125.000 151.250
v 3251.903 -25.000 141.683
v 3251.903 125.000 141.683
v 3257.322 -25.000 133.572
v 3257.322 125.000 133.572
v 3265.433 -25.000 128.153
v 3265.433 125.000 128.153
v 3275.000 -25.000 126.250
v 3275.000 125.000 126.250
v 3284.567 -25.000 128.153
v 3284.567 125.000 128.153
v 3292.678 -25.000 133.572
v 3292.678 125.000 133.572
v 3298.097 -25.000 141.683
v 3298.097 125.000 141.683
v 3275.000 -25.000 151.250
v 3275.000 125.000 151.250
f 455 456 458 457
f 457 458 460 459
f 459 460 462 461
f 461 462 464 463
f 463 464 466 465
f 465 466 468 467
f 467 468 470 469
f 469 470 472 471
f 471 472 474 473
f 473 474 476 475
f 475 476 478 477
f 477 478 480 479
f 479 480 482 481
f 481 482 484 483
f 483 484 486 485
f 485 486 456 455
f 455 457 487
f 488 458 456
f 457 459 487
f 488 460 458
f 459 461 487
f 488 462 460
f 461 463 487
f 488 464 462
f 463 465 487
f 488 466 464
f 465 467 487
f 488 468 466
f 467 469 487
f 488 470 468
f 469 471 487
f 488 472 470
f 471 473 487
f 488 474 472
f 473 475 487
f 488 476 474
f 475 477 487
f 488 478 476
f 477 479 487
f 488 480 478
f 479 481 487
f 488 482 480
f 481 483 487
f 488 484 482
f 483 485 487
f 488 486 484
f 485 455 487
f 488 456 486
o column_0_cutter_11
v 3200.000 -25.000 151.250
v 3200.000 125.000 151.250
v 3198.097 -25.000 160.817
v 3198.097 125.000 160.817
v 3192.678 -25.000 168.928
v 3192.678 125.000 168.928
v 3184.567 -25.000 174.347
v 3184.567 125.000 174.347
v 3175.000 -25.000 176.250
v 3175.000 125.000 176.250
v 3165.433 -25.000 174.347
v 3165.433 125.000 174.347
v 3157.322 -25.000 168.928
v 3157.322 125.000 168.928
v 3151.903 -25.000 160.817
v 3151.903 125.000 160.817
v 3150.000 -25.000 151.250
v 3150.000 125.000 151.250
v 3151.903 -25.000 141.683
v 3151.903 125.000 141.683
v 3157.322 -25.000 133.572
v 3157.322 125.000 133.572
v 3165.433 -25.000 128.153
v 3165.433 125.000 128.153
v 3175.000 -25.000 126.250
v 3175.000 125.000 126.250
v 3184.567 -25.000 128.153
v 3184.567 125.000 128.153
v 3192.678 -25.000 133.572
v 3192.678 125.000 133.572
v 3198.097 -25.000 141.683
v 3198.097 125.000 141.683
v 3175.000 -25.000 151.250
v 3175.000 125.000 151.250
f 489 490 492 491
f 491 492 494 493
f 493 494 496 495
f 495 496 498 497
f 497 498 500 499
f 499 500 502 501
f 501 502 504 503
f 503 504 506 505
f 505 506 508 507
f 507 508 510 509
f 509 510 512 511
f 511 512 514 513
f 513 514 516 515
f 515 516 518 517
f 517 518 520 519
f 519 520 490 489
f 489 491 521
f 522 492 490
f 491 493 521
f 522 494 492
f 493 495 521
f 522 496 494
f 495 497 521
f 522 498 496
f 497 499 521
f 522 500 498
f 499 501 521
f 522 502 500
f 501 503 521
f 522 504 502
f 503 505 521
f 522 506 504
f 505 507 521
f 522 508 506
f 507 509 521
f 522 510 508
f 509 511 521
f 522 512 510
f 511 513 521
f 522 514 512
f 513 515 521
f 522 516 514
f 515 517 521
f 522 518 516
f 517 519 521
f 522 520 518
f 519 489 521
f 522 490 520
