# OBJ
# COMPAS
# version: 2.15.1
# precision: 3
# V F E: 303 618 927

o column_0_preview
v 0.000 0.000 0.000
v 3350.000 0.000 0.000
v 3100.000 0.000 35.000
v 3350.000 0.000 35.000
v 3100.000 35.000 0.000
v 3350.000 35.000 0.000
v 3100.000 35.000 35.000
v 3350.000 35.000 35.000
v 3100.000 0.000 65.000
v 3350.000 0.000 65.000
v 3100.000 35.000 65.000
v 3350.000 35.000 65.000
v 3100.000 65.000 0.000
v 3350.000 65.000 0.000
v 3100.000 65.000 35.000
v 3350.000 65.000 35.000
v 3100.000 65.000 65.000
v 3350.000 65.000 65.000
v 3165.433 0.000 128.153
v 3175.000 0.000 126.250
v 3184.567 0.000 128.153
v 3265.433 0.000 128.153
v 3275.000 0.000 126.250
v 3284.567 0.000 128.153
v 3157.322 0.000 133.572
v 3192.678 0.000 133.572
v 3257.322 0.000 133.572
v 3292.678 0.000 133.572
v 3151.903 0.000 141.683
v 3198.097 0.000 141.683
v 3150.000 0.000 151.250
v 3200.000 0.000 151.250
v 3251.903 0.000 141.683
v 3298.097 0.000 141.683
v 3250.000 0.000 151.250
v 3300.000 0.000 151.250
v 3151.903 0.000 160.817
v 3198.097 0.000 160.817
v 3251.903 0.000 160.817
v 3298.097 0.000 160.817
v 3165.433 35.000 128.153
v 3175.000 35.000 126.250
v 3184.567 35.000 128.153
v 3265.433 35.000 128.153
v 3275.000 35.000 126.250
v 3284.567 35.000 128.153
v 3157.322 35.000 133.572
v 3192.678 35.000 133.572
v 3257.322 35.000 133.572
v 3292.678 35.000 133.572
v 3151.903 35.000 141.683
v 3198.097 35.000 141.683
v 3150.000 35.000 151.250
v 3200.000 35.000 151.250
v 3251.903 35.000 141.683
v 3298.097 35.000 141.683
v 3250.000 35.000 151.250
v 3300.000 35.000 151.250
v 3151.903 35.000 160.817
v 3198.097 35.000 160.817
v 3251.903 35.000 160.817
v 3298.097 35.000 160.817
v 3165.433 65.000 128.153
v 3175.000 65.000 126.250
v 3184.567 65.000 128.153
v 3265.433 65.000 128.153
v 3275.000 65.000 126.250
v 3284.567 65.000 128.153
v 3157.322 65.000 133.572
v 3192.678 65.000 133.572
v 3257.322 65.000 133.572
v 3292.678 65.000 133.572
v 3151.903 65.000 141.683
v 3198.097 65.000 141.683
v 3150.000 65.000 151.250
v 3200.000 65.000 151.250
v 3251.903 65.000 141.683
v 3298.097 65.000 141.683
v 3250.000 65.000 151.250
v 3300.000 65.000 151.250
v 3151.903 65.000 160.817
v 3198.097 65.000 160.817
v 3251.903 65.000 160.817
v 3298.097 65.000 160.817
v 3165.433 128.153 0.000
v 3175.000 126.250 0.000
v 3184.567 128.153 0.000
v 3265.433 128.153 0.000
v 3275.000 126.250 0.000
v 3284.567 128.153 0.000
v 3157.322 133.572 0.000
v 3192.678 133.572 0.000
v 3257.322 133.572 0.000
v 3292.678 133.572 0.000
v 3165.433 128.153 35.000
v 3175.000 126.250 35.000
v 3184.567 128.153 35.000
v 3265.433 128.153 35.000
v 3275.000 126.250 35.000
v 3284.567 128.153 35.000
v 3157.322 133.572 35.000
v 3192.678 133.572 35.000
v 3257.322 133.572 35.000
v 3292.678 133.572 35.000
v 3151.903 141.683 0.000
v 3198.097 141.683 0.000
v 3150.000 151.250 0.000
v 3200.000 151.250 0.000
v 3251.903 141.683 0.000
v 3298.097 141.683 0.000
v 3250.000 151.250 0.000
v 3300.000 151.250 0.000
v 3151.903 160.817 0.000
v 3198.097 160.817 0.000
v 3251.903 160.817 0.000
v 3298.097 160.817 0.000
v 3151.903 141.683 35.000
v 3198.097 141.683 35.000
v 3150.000 151.250 35.000
v 3200.000 151.250 35.000
v 3251.903 141.683 35.000
v 3298.097 141.683 35.000
v 3250.000 151.250 35.000
v 3300.000 151.250 35.000
v 3151.903 160.817 35.000
v 3198.097 160.817 35.000
v 3251.903 160.817 35.000
v 3298.097 160.817 35.000
v 3165.433 128.153 65.000
v 3175.000 126.250 65.000
v 3184.567 128.153 65.000
v 3265.433 128.153 65.000
v 3275.000 126.250 65.000
v 3284.567 128.153 65.000
v 3157.322 133.572 65.000
v 3192.678 133.572 65.000
v 3257.322 133.572 65.000
v 3292.678 133.572 65.000
v 3151.903 141.683 65.000
v 3198.097 141.683 65.000
v 3150.000 151.250 65.000
v 3200.000 151.250 65.000
v 3251.903 141.683 65.000
v 3298.097 141.683 65.000
v 3250.000 151.250 65.000
v 3300.000 151.250 65.000
v 3151.903 160.817 65.000
v 3198.097 160.817 65.000
v 3251.903 160.817 65.000
v 3298.097 160.817 65.000
v 3165.433 125.000 128.153
v 3175.000 125.000 126.250
v 3184.567 125.000 128.153
v 3165.433 128.153 125.000
v 3175.000 126.250 125.000
v 3184.567 128.153 125.000
v 3265.433 125.000 128.153
v 3275.000 125.000 126.250
v 3284.567 125.000 128.153
v 3265.433 128.153 125.000
v 3275.000 126.250 125.000
v 3284.567 128.153 125.000
v 3157.322 125.000 133.572
v 3192.678 125.000 133.572
v 3257.322 125.000 133.572
v 3292.678 125.000 133.572
v 3157.322 133.572 125.000
v 3192.678 133.572 125.000
v 3257.322 133.572 125.000
v 3292.678 133.572 125.000
v 3151.903 125.000 141.683
v 3198.097 125.000 141.683
v 3150.000 125.000 151.250
v 3175.000 125.000 151.250
v 3200.000 125.000 151.250
v 3251.903 125.000 141.683
v 3298.097 125.000 141.683
v 3250.000 125.000 151.250
v 3275.000 125.000 151.250
v 3300.000 125.000 151.250
v 3151.903 125.000 160.817
v 3198.097 125.000 160.817
v 3251.903 125.000 160.817
v 3298.097 125.000 160.817
v 3151.903 141.683 125.000
v 3198.097 141.683 125.000
v 3150.000 151.250 125.000
v 3175.000 151.250 125.000
v 3200.000 151.250 125.000
v 3251.903 141.683 125.000
v 3298.097 141.683 125.000
v 3250.000 151.250 125.000
v 3275.000 151.250 125.000
v 3300.000 151.250 125.000
v 3151.903 160.817 125.000
v 3198.097 160.817 125.000
v 3251.903 160.817 125.000
v 3298.097 160.817 125.000
v 0.000 0.000 220.000
v 3157.322 0.000 168.928
v 3192.678 0.000 168.928
v 3257.322 0.000 168.928
v 3292.678 0.000 168.928
v 3165.433 0.000 174.347
v 3184.567 0.000 174.347
v 3175.000 0.000 176.250
v 3265.433 0.000 174.347
v 3284.567 0.000 174.347
v 3275.000 0.000 176.250
v 3157.322 35.000 168.928
v 3192.678 35.000 168.928
v 3257.322 35.000 168.928
v 3292.678 35.000 168.928
v 3165.433 35.000 174.347
v 3184.567 35.000 174.347
v 3175.000 35.000 176.250
v 3265.433 35.000 174.347
v 3284.567 35.000 174.347
v 3275.000 35.000 176.250
v 2620.000 0.000 220.000
v 3350.000 0.000 220.000
v 3350.000 35.000 220.000
v 3157.322 65.000 168.928
v 3192.678 65.000 168.928
v 3257.322 65.000 168.928
v 3292.678 65.000 168.928
v 3165.433 65.000 174.347
v 3184.567 65.000 174.347
v 3175.000 65.000 176.250
v 3265.433 65.000 174.347
v 3284.567 65.000 174.347
v 3275.000 65.000 176.250
v 3350.000 65.000 220.000
v 3100.000 35.000 257.063
v 3142.480 35.000 250.765
v 2655.450 0.000 322.968
v 3100.000 65.000 257.063
v 3350.000 120.000 220.000
v 3157.322 125.000 168.928
v 3192.678 125.000 168.928
v 3257.322 125.000 168.928
v 3292.678 125.000 168.928
v 3165.433 125.000 174.347
v 3184.567 125.000 174.347
v 3175.000 125.000 176.250
v 3265.433 125.000 174.347
v 3284.567 125.000 174.347
v 3275.000 125.000 176.250
v 0.000 220.000 0.000
v 3157.322 168.928 0.000
v 3192.678 168.928 0.000
v 3257.322 168.928 0.000
v 3292.678 168.928 0.000
v 3165.433 174.347 0.000
v 3184.567 174.347 0.000
v 3175.000 176.250 0.000
v 3265.433 174.347 0.000
v 3284.567 174.347 0.000
v 3275.000 176.250 0.000
v 3157.322 168.928 35.000
v 3192.678 168.928 35.000
v 3257.322 168.928 35.000
v 3292.678 168.928 35.000
v 3165.433 174.347 35.000
v 3184.567 174.347 35.000
v 3175.000 176.250 35.000
v 3265.433 174.347 35.000
v 3284.567 174.347 35.000
v 3275.000 176.250 35.000
v 3157.322 168.928 65.000
v 3192.678 168.928 65.000
v 3257.322 168.928 65.000
v 3292.678 168.928 65.000
v 3165.433 174.347 65.000
v 3184.567 174.347 65.000
v 3175.000 176.250 65.000
v 3265.433 174.347 65.000
v 3284.567 174.347 65.000
v 3275.000 176.250 65.000
v 2620.000 220.000 0.000
v 3350.000 220.000 0.000
v 3350.000 220.000 35.000
v 3280.190 230.349 35.000
v 3350.000 220.000 65.000
v 3157.322 168.928 125.000
v 3192.678 168.928 125.000
v 3257.322 168.928 125.000
v 3292.678 168.928 125.000
v 3165.433 174.347 125.000
v 3184.567 174.347 125.000
v 3175.000 176.250 125.000
v 3265.433 174.347 125.000
v 3284.567 174.347 125.000
v 3275.000 176.250 125.000
v 3350.000 220.000 120.000
v 3100.000 257.063 35.000
v 3100.000 257.063 65.000
v 3142.480 250.765 65.000
v 2655.450 322.968 0.000
v 0.000 220.000 220.000
v 2620.000 220.000 220.000
v 2655.450 190.228 322.968
v 2655.450 322.968 190.228
f 1 2 199
f 1 199 300
f 1 300 249
f 1 249 280
f 1 91 2
f 2 4 3
f 2 8 4
f 3 4 7
f 2 6 8
f 4 8 7
f 3 11 9
f 9 12 10
f 3 7 11
f 9 11 12
f 2 110 6
f 110 14 6
f 2 3 199
f 3 220 199
f 3 9 220
f 9 10 220
f 10 23 20
f 10 24 23
f 10 28 24
f 10 34 28
f 10 12 222
f 10 20 220
f 20 22 21
f 20 23 22
f 21 22 27
f 21 27 26
f 26 27 33
f 26 33 30
f 220 19 25
f 220 20 19
f 30 33 35
f 30 35 32
f 10 221 34
f 32 35 39
f 32 39 38
f 1 105 91
f 1 107 105
f 1 113 107
f 1 250 113
f 1 254 250
f 1 280 281
f 1 281 254
f 2 85 86
f 2 86 87
f 2 91 85
f 2 87 92
f 2 88 89
f 2 89 90
f 2 93 88
f 2 92 93
f 2 90 94
f 2 94 110
f 96 15 16
f 101 117 15
f 117 119 15
f 95 15 96
f 95 101 15
f 96 16 99
f 99 16 100
f 100 16 104
f 282 16 14
f 104 16 122
f 122 16 124
f 134 18 17
f 135 17 139
f 139 17 141
f 129 130 17
f 130 131 17
f 129 17 135
f 131 136 17
f 136 137 17
f 132 133 17
f 133 134 17
f 132 17 137
f 134 138 18
f 138 144 18
f 86 96 87
f 85 95 86
f 87 97 92
f 88 98 89
f 89 99 90
f 90 100 94
f 92 106 93
f 93 106 109
f 85 91 101
f 91 105 117
f 92 102 106
f 88 93 103
f 94 104 110
f 93 109 121
f 119 125 15
f 86 95 96
f 87 96 97
f 85 101 95
f 89 98 99
f 90 99 100
f 88 103 98
f 96 98 97
f 96 99 98
f 97 98 103
f 124 16 128
f 92 97 102
f 91 117 101
f 102 118 106
f 94 100 104
f 93 121 103
f 104 122 110
f 97 103 102
f 102 103 121
f 102 121 118
f 106 108 109
f 108 111 109
f 110 281 14
f 106 118 108
f 105 107 119
f 110 122 112
f 109 111 123
f 108 114 111
f 111 114 115
f 108 120 114
f 107 113 125
f 112 124 116
f 111 115 127
f 125 296 15
f 105 119 117
f 108 118 120
f 109 123 121
f 112 122 124
f 118 121 123
f 118 123 120
f 128 16 282
f 107 125 119
f 114 120 126
f 111 127 123
f 116 124 128
f 120 123 127
f 120 127 126
f 297 17 15
f 141 17 147
f 136 140 137
f 137 140 143
f 147 17 297
f 140 142 143
f 142 145 143
f 144 284 18
f 142 148 145
f 145 148 149
f 130 155 131
f 129 154 130
f 131 156 136
f 132 160 133
f 133 161 134
f 134 162 138
f 129 135 167
f 135 139 185
f 136 168 140
f 132 137 169
f 138 170 144
f 137 143 190
f 130 154 155
f 131 155 156
f 129 167 154
f 133 160 161
f 134 161 162
f 132 169 160
f 136 156 168
f 135 185 167
f 140 168 186
f 138 162 170
f 137 190 169
f 144 170 191
f 238 18 284
f 140 186 142
f 139 141 187
f 144 191 146
f 143 145 192
f 142 189 148
f 141 147 195
f 146 194 150
f 145 149 197
f 139 187 185
f 142 186 189
f 143 192 190
f 146 191 194
f 141 195 187
f 148 189 196
f 145 197 192
f 150 194 198
f 154 188 155
f 155 188 156
f 154 167 188
f 156 188 168
f 160 193 161
f 161 193 162
f 160 169 193
f 162 193 170
f 167 185 188
f 168 188 186
f 185 187 188
f 186 188 189
f 169 190 193
f 170 193 191
f 190 192 193
f 191 193 194
f 187 195 188
f 188 196 189
f 188 195 285
f 188 286 196
f 192 197 193
f 193 198 194
f 193 197 287
f 193 288 198
f 199 301 300
f 199 220 301
f 220 25 29
f 220 29 31
f 220 31 37
f 38 39 202
f 38 202 201
f 201 202 207
f 221 36 34
f 201 207 205
f 205 207 206
f 221 40 36
f 10 222 221
f 220 37 200
f 220 200 204
f 220 204 206
f 220 206 207
f 220 207 209
f 221 203 40
f 221 208 203
f 221 209 208
f 220 209 221
f 220 221 236
f 221 222 236
f 236 222 235
f 236 235 234
f 236 234 237
f 236 237 238
f 220 236 302
f 238 233 18
f 238 237 233
f 236 238 302
f 220 302 301
f 249 300 301
f 249 301 280
f 114 251 115
f 115 251 252
f 251 255 252
f 110 112 281
f 113 250 260
f 114 126 251
f 251 261 255
f 116 128 253
f 115 252 262
f 253 263 258
f 281 282 14
f 252 255 257
f 255 256 257
f 256 259 257
f 112 116 281
f 250 254 264
f 255 265 256
f 254 256 266
f 252 257 267
f 258 268 259
f 257 259 269
f 113 260 125
f 126 261 251
f 250 264 260
f 115 262 127
f 128 263 253
f 252 267 262
f 255 261 265
f 254 266 264
f 256 265 266
f 258 263 268
f 257 269 267
f 259 268 269
f 254 281 256
f 116 253 281
f 256 281 259
f 253 258 281
f 258 259 281
f 125 260 296
f 126 127 283
f 126 283 261
f 127 262 283
f 128 282 263
f 262 267 283
f 267 269 282
f 263 282 268
f 268 282 269
f 260 264 296
f 261 296 265
f 144 146 284
f 146 150 284
f 296 297 15
f 147 297 270
f 148 298 149
f 150 273 284
f 273 278 284
f 278 279 284
f 148 271 298
f 149 298 272
f 270 298 274
f 271 275 298
f 274 298 276
f 275 276 298
f 272 298 277
f 277 298 279
f 264 266 296
f 265 296 266
f 267 282 283
f 261 283 296
f 281 283 282
f 281 296 283
f 279 298 284
f 270 297 298
f 147 270 285
f 148 196 271
f 271 286 275
f 150 198 273
f 149 272 287
f 273 288 278
f 270 274 289
f 275 290 276
f 274 276 291
f 272 277 292
f 278 293 279
f 277 279 294
f 147 285 195
f 196 286 271
f 270 289 285
f 149 287 197
f 198 288 273
f 272 292 287
f 275 286 290
f 274 291 289
f 276 290 291
f 278 288 293
f 277 294 292
f 279 293 294
f 188 285 289
f 188 290 286
f 188 289 291
f 188 291 290
f 193 287 292
f 193 293 288
f 193 292 294
f 193 294 293
f 238 284 295
f 284 298 295
f 280 299 281
f 281 299 296
f 296 299 297
f 280 301 299
f 297 303 298
f 295 298 303
f 297 299 303
f 299 301 303
f 238 295 302
f 295 303 302
f 301 302 303
f 5 7 6
f 7 8 6
f 13 15 5
f 5 6 13
f 13 6 14
f 17 5 15
f 13 14 15
f 16 15 14
f 42 12 11
f 47 11 51
f 53 51 11
f 41 42 11
f 47 41 11
f 42 45 12
f 45 46 12
f 46 50 12
f 50 56 12
f 42 19 20
f 43 20 21
f 41 25 19
f 45 22 23
f 46 23 24
f 44 27 22
f 48 21 26
f 47 29 25
f 52 26 30
f 50 24 28
f 49 33 27
f 56 28 34
f 51 31 29
f 54 30 32
f 55 35 33
f 58 34 36
f 53 37 31
f 60 32 38
f 57 39 35
f 62 36 40
f 53 11 59
f 42 20 43
f 41 19 42
f 43 21 48
f 44 22 45
f 45 23 46
f 46 24 50
f 47 25 41
f 47 51 29
f 48 26 52
f 49 27 44
f 50 28 56
f 55 33 49
f 42 43 45
f 43 44 45
f 43 48 44
f 48 49 44
f 48 52 49
f 52 55 49
f 59 11 234
f 52 30 54
f 53 31 51
f 56 34 58
f 55 57 35
f 54 32 60
f 53 59 37
f 58 36 62
f 57 61 39
f 52 54 55
f 54 57 55
f 56 222 12
f 54 60 57
f 60 61 57
f 5 237 7
f 237 11 7
f 5 17 237
f 67 17 18
f 69 73 17
f 75 17 73
f 64 17 67
f 63 17 64
f 69 17 63
f 67 18 68
f 68 18 72
f 72 18 78
f 78 18 80
f 75 81 17
f 64 66 65
f 64 67 66
f 65 66 71
f 80 18 84
f 65 71 70
f 70 71 77
f 70 77 74
f 81 237 17
f 74 77 79
f 74 79 76
f 84 18 233
f 76 79 83
f 76 83 82
f 63 64 152
f 64 65 153
f 69 63 151
f 66 67 158
f 67 68 159
f 71 66 157
f 65 70 164
f 69 163 73
f 70 74 172
f 68 72 166
f 77 71 165
f 72 78 177
f 75 73 171
f 74 76 175
f 77 176 79
f 78 80 180
f 75 173 81
f 76 82 182
f 79 178 83
f 80 84 184
f 64 153 152
f 63 152 151
f 65 164 153
f 66 158 157
f 67 159 158
f 68 166 159
f 69 151 163
f 73 163 171
f 70 172 164
f 71 157 165
f 72 177 166
f 77 165 176
f 74 175 172
f 75 171 173
f 78 180 177
f 79 176 178
f 76 182 175
f 81 173 181
f 80 184 180
f 83 178 183
f 151 152 174
f 152 153 174
f 163 151 174
f 153 164 174
f 157 158 179
f 158 159 179
f 165 157 179
f 159 166 179
f 163 174 171
f 174 164 172
f 173 171 174
f 174 172 175
f 176 165 179
f 179 166 177
f 176 179 178
f 179 177 180
f 173 174 181
f 174 175 182
f 181 174 239
f 174 182 240
f 178 179 183
f 179 180 184
f 183 179 241
f 179 184 242
f 59 200 37
f 211 38 201
f 210 204 200
f 61 202 39
f 213 40 203
f 212 207 202
f 215 201 205
f 214 206 204
f 216 205 206
f 218 203 208
f 217 209 207
f 219 208 209
f 59 210 200
f 60 38 211
f 215 211 201
f 62 40 213
f 61 212 202
f 218 213 203
f 210 214 204
f 216 215 205
f 214 216 206
f 212 217 207
f 219 218 208
f 217 219 209
f 56 58 222
f 58 62 222
f 59 234 210
f 60 235 61
f 62 213 222
f 218 222 213
f 219 222 218
f 60 211 235
f 61 235 212
f 210 235 214
f 215 235 211
f 214 235 216
f 216 235 215
f 212 235 217
f 217 235 219
f 219 235 222
f 210 234 235
f 237 234 11
f 82 83 225
f 82 225 230
f 81 223 237
f 228 224 233
f 229 228 233
f 82 233 224
f 82 230 233
f 84 233 226
f 230 232 233
f 231 226 233
f 232 231 233
f 223 227 237
f 227 229 237
f 229 233 237
f 81 181 223
f 82 224 240
f 223 239 227
f 83 183 225
f 84 226 242
f 225 241 230
f 228 244 224
f 227 243 229
f 229 245 228
f 231 247 226
f 230 246 232
f 232 248 231
f 223 181 239
f 82 240 182
f 224 244 240
f 84 242 184
f 225 183 241
f 226 247 242
f 227 239 243
f 228 245 244
f 229 243 245
f 230 241 246
f 231 248 247
f 232 246 248
f 239 174 243
f 174 240 244
f 243 174 245
f 174 244 245
f 241 179 246
f 179 242 247
f 246 179 248
f 179 247 248
