ISO-10303-21;
HEADER;
FILE_DESCRIPTION(('ViewDefinition [CoordinationView]'),'2;1');
FILE_NAME('','2026-08-25T22:33:19',(''),(''),'IfcOpenShell 0.8.4-e8eb5e4','IfcOpenShell 0.8.4-e8eb5e4','');
FILE_SCHEMA(('IFC4'));
ENDSEC;
DATA;
#1=IFCPROJECT('3arJPQDgT0GQHeldstoGPA',$,'Default Project',$,$,$,$,(#11),#6);
#2=IFCSIUNIT(*,.LENGTHUNIT.,.MILLI.,.METRE.);
#3=IFCSIUNIT(*,.AREAUNIT.,.MILLI.,.SQUARE_METRE.);
#4=IFCSIUNIT(*,.VOLUMEUNIT.,.MILLI.,.CUBIC_METRE.);
#5=IFCSIUNIT(*,.PLANEANGLEUNIT.,$,.RADIAN.);
#6=IFCUNITASSIGNMENT((#2,#3,#4,#5));
#7=IFCCARTESIANPOINT((0.,0.,0.));
#8=IFCDIRECTION((0.,0.,1.));
#9=IFCDIRECTION((1.,0.,0.));
#10=IFCAXIS2PLACEMENT3D(#7,#8,#9);
#11=IFCGEOMETRICREPRESENTATIONCONTEXT($,'Model',3,1.E-05,#10,$);
#12=IFCGEOMETRICREPRESENTATIONSUBCONTEXT('Body','Model',*,*,*,*,#11,$,.MODEL_VIEW.,$);
#13=IFCPERSON($,'Unknown Author',$,$,$,$,$,$);
#14=IFCORGANIZATION($,'compas.dev',$,$,$);
#15=IFCPERSONANDORGANIZATION(#13,#14,$);
#16=IFCAPPLICATION(#14,'2.1.0','compas_ifc','compas_ifc v2.1.0');
#17=IFCOWNERHISTORY(#15,#16,$,$,$,$,$,1787690000);
#18=IFCSITE('2UoPD1Psn1uuXr1vVLZyzU',$,'Default Site',$,$,$,$,$,$,$,$,$,$,$);
#19=IFCRELAGGREGATES('1LdhpeBjD6Se_4C00wlVWH',$,$,$,#1,(#18));
#20=IFCBUILDING('3KZwVMl9T7v9rXJ6y4o328',$,'Default Building 1',$,$,$,$,$,$,$,$,$);
#21=IFCRELAGGREGATES('3n6yOH0qH5aAsiex3gcORu',$,$,$,#18,(#20));
#22=IFCBUILDINGSTOREY('15kIwWTCDEaA3A5Qa7qG4W',$,'Default Storey 1',$,$,$,$,$,$,$);
#23=IFCRELAGGREGATES('3WAnjnbGnAvx2gK41vrUGu',$,$,$,#20,(#22));
#24=IFCBUILDINGELEMENTPROXY('0W8Rlipfz4KvjbSoAGsWyE',$,'column_0_uncut',$,$,$,#63,$,$);
#25=IFCRELCONTAINEDINSPATIALSTRUCTURE('3x$AqRR6j75gBx4XYEekO$',$,$,$,(#24),#22);
#26=IFCINDEXEDPOLYGONALFACE((1,2,3));
#27=IFCINDEXEDPOLYGONALFACE((1,3,13));
#28=IFCINDEXEDPOLYGONALFACE((1,13,8));
#29=IFCINDEXEDPOLYGONALFACE((1,8,9));
#30=IFCINDEXEDPOLYGONALFACE((1,10,2));
#31=IFCINDEXEDPOLYGONALFACE((2,4,3));
#32=IFCINDEXEDPOLYGONALFACE((2,5,4));
#33=IFCINDEXEDPOLYGONALFACE((2,15,5));
#34=IFCINDEXEDPOLYGONALFACE((1,9,10));
#35=IFCINDEXEDPOLYGONALFACE((2,10,15));
#36=IFCINDEXEDPOLYGONALFACE((3,14,13));
#37=IFCINDEXEDPOLYGONALFACE((3,4,14));
#38=IFCINDEXEDPOLYGONALFACE((8,13,14));
#39=IFCINDEXEDPOLYGONALFACE((8,14,9));
#40=IFCINDEXEDPOLYGONALFACE((9,12,10));
#41=IFCINDEXEDPOLYGONALFACE((9,11,12));
#42=IFCINDEXEDPOLYGONALFACE((9,16,11));
#43=IFCINDEXEDPOLYGONALFACE((10,12,17));
#44=IFCINDEXEDPOLYGONALFACE((11,17,12));
#45=IFCINDEXEDPOLYGONALFACE((9,14,16));
#46=IFCINDEXEDPOLYGONALFACE((10,17,15));
#47=IFCINDEXEDPOLYGONALFACE((11,16,17));
#48=IFCINDEXEDPOLYGONALFACE((4,5,6));
#49=IFCINDEXEDPOLYGONALFACE((5,7,6));
#50=IFCINDEXEDPOLYGONALFACE((4,6,18));
#51=IFCINDEXEDPOLYGONALFACE((6,7,18));
#52=IFCINDEXEDPOLYGONALFACE((5,19,7));
#53=IFCINDEXEDPOLYGONALFACE((4,18,14));
#54=IFCINDEXEDPOLYGONALFACE((19,5,15));
#55=IFCINDEXEDPOLYGONALFACE((7,19,18));
#56=IFCINDEXEDPOLYGONALFACE((18,16,14));
#57=IFCINDEXEDPOLYGONALFACE((17,19,15));
#58=IFCINDEXEDPOLYGONALFACE((16,19,17));
#59=IFCINDEXEDPOLYGONALFACE((16,18,19));
#60=IFCCARTESIANPOINTLIST3D(((0.,0.,0.),(3350.,0.,0.),(0.,0.,220.),(2620.,0.,220.),(3350.,0.,220.),(2620.,0.,340.),(3350.,0.,340.),(0.,220.,0.),(2620.,220.,0.),(3350.,220.,0.),(2620.,340.,0.),(3350.,340.,0.),(0.,220.,220.),(2620.,220.,220.),(3350.,220.,220.),(2620.,340.,220.),(3350.,340.,220.),(2620.,340.,340.),(3350.,340.,340.)));
#61=IFCPOLYGONALFACESET(#60,.T.,(#26,#27,#28,#29,#30,#31,#32,#33,#34,#35,#36,#37,#38,#39,#40,#41,#42,#43,#44,#45,#46,#47,#48,#49,#50,#51,#52,#53,#54,#55,#56,#57,#58,#59),$);
#62=IFCSHAPEREPRESENTATION(#12,'Body','Tessellation',(#61));
#63=IFCPRODUCTDEFINITIONSHAPE($,$,(#62));
#64=IFCBUILDINGELEMENTPROXY('0ivnETaLj6cQ_2FT6_hANH',$,'column_0_cut',$,$,$,#687,$,$);
#65=IFCRELCONTAINEDINSPATIALSTRUCTURE('2vw9KX5Xr0zfEnAglhF0B2',$,$,$,(#64),#22);
#66=IFCINDEXEDPOLYGONALFACE((1,2,199));
#67=IFCINDEXEDPOLYGONALFACE((1,199,300));
#68=IFCINDEXEDPOLYGONALFACE((1,300,249));
#69=IFCINDEXEDPOLYGONALFACE((1,249,280));
#70=IFCINDEXEDPOLYGONALFACE((1,91,2));
#71=IFCINDEXEDPOLYGONALFACE((2,4,3));
#72=IFCINDEXEDPOLYGONALFACE((2,8,4));
#73=IFCINDEXEDPOLYGONALFACE((3,4,7));
#74=IFCINDEXEDPOLYGONALFACE((2,6,8));
#75=IFCINDEXEDPOLYGONALFACE((4,8,7));
#76=IFCINDEXEDPOLYGONALFACE((3,11,9));
#77=IFCINDEXEDPOLYGONALFACE((9,12,10));
#78=IFCINDEXEDPOLYGONALFACE((3,7,11));
#79=IFCINDEXEDPOLYGONALFACE((9,11,12));
#80=IFCINDEXEDPOLYGONALFACE((2,110,6));
#81=IFCINDEXEDPOLYGONALFACE((110,14,6));
#82=IFCINDEXEDPOLYGONALFACE((2,3,199));
#83=IFCINDEXEDPOLYGONALFACE((3,220,199));
#84=IFCINDEXEDPOLYGONALFACE((3,9,220));
#85=IFCINDEXEDPOLYGONALFACE((9,10,220));
#86=IFCINDEXEDPOLYGONALFACE((10,23,20));
#87=IFCINDEXEDPOLYGONALFACE((10,24,23));
#88=IFCINDEXEDPOLYGONALFACE((10,28,24));
#89=IFCINDEXEDPOLYGONALFACE((10,34,28));
#90=IFCINDEXEDPOLYGONALFACE((10,12,222));
#91=IFCINDEXEDPOLYGONALFACE((10,20,220));
#92=IFCINDEXEDPOLYGONALFACE((20,22,21));
#93=IFCINDEXEDPOLYGONALFACE((20,23,22));
#94=IFCINDEXEDPOLYGONALFACE((21,22,27));
#95=IFCINDEXEDPOLYGONALFACE((21,27,26));
#96=IFCINDEXEDPOLYGONALFACE((26,27,33));
#97=IFCINDEXEDPOLYGONALFACE((26,33,30));
#98=IFCINDEXEDPOLYGONALFACE((220,19,25));
#99=IFCINDEXEDPOLYGONALFACE((220,20,19));
#100=IFCINDEXEDPOLYGONALFACE((30,33,35));
#101=IFCINDEXEDPOLYGONALFACE((30,35,32));
#102=IFCINDEXEDPOLYGONALFACE((10,221,34));
#103=IFCINDEXEDPOLYGONALFACE((32,35,39));
#104=IFCINDEXEDPOLYGONALFACE((32,39,38));
#105=IFCINDEXEDPOLYGONALFACE((1,105,91));
#106=IFCINDEXEDPOLYGONALFACE((1,107,105));
#107=IFCINDEXEDPOLYGONALFACE((1,113,107));
#108=IFCINDEXEDPOLYGONALFACE((1,250,113));
#109=IFCINDEXEDPOLYGONALFACE((1,254,250));
#110=IFCINDEXEDPOLYGONALFACE((1,280,281));
#111=IFCINDEXEDPOLYGONALFACE((1,281,254));
#112=IFCINDEXEDPOLYGONALFACE((2,85,86));
#113=IFCINDEXEDPOLYGONALFACE((2,86,87));
#114=IFCINDEXEDPOLYGONALFACE((2,91,85));
#115=IFCINDEXEDPOLYGONALFACE((2,87,92));
#116=IFCINDEXEDPOLYGONALFACE((2,88,89));
#117=IFCINDEXEDPOLYGONALFACE((2,89,90));
#118=IFCINDEXEDPOLYGONALFACE((2,93,88));
#119=IFCINDEXEDPOLYGONALFACE((2,92,93));
#120=IFCINDEXEDPOLYGONALFACE((2,90,94));
#121=IFCINDEXEDPOLYGONALFACE((2,94,110));
#122=IFCINDEXEDPOLYGONALFACE((96,15,16));
#123=IFCINDEXEDPOLYGONALFACE((101,117,15));
#124=IFCINDEXEDPOLYGONALFACE((117,119,15));
#125=IFCINDEXEDPOLYGONALFACE((95,15,96));
#126=IFCINDEXEDPOLYGONALFACE((95,101,15));
#127=IFCINDEXEDPOLYGONALFACE((96,16,99));
#128=IFCINDEXEDPOLYGONALFACE((99,16,100));
#129=IFCINDEXEDPOLYGONALFACE((100,16,104));
#130=IFCINDEXEDPOLYGONALFACE((282,16,14));
#131=IFCINDEXEDPOLYGONALFACE((104,16,122));
#132=IFCINDEXEDPOLYGONALFACE((122,16,124));
#133=IFCINDEXEDPOLYGONALFACE((134,18,17));
#134=IFCINDEXEDPOLYGONALFACE((135,17,139));
#135=IFCINDEXEDPOLYGONALFACE((139,17,141));
#136=IFCINDEXEDPOLYGONALFACE((129,130,17));
#137=IFCINDEXEDPOLYGONALFACE((130,131,17));
#138=IFCINDEXEDPOLYGONALFACE((129,17,135));
#139=IFCINDEXEDPOLYGONALFACE((131,136,17));
#140=IFCINDEXEDPOLYGONALFACE((136,137,17));
#141=IFCINDEXEDPOLYGONALFACE((132,133,17));
#142=IFCINDEXEDPOLYGONALFACE((133,134,17));
#143=IFCINDEXEDPOLYGONALFACE((132,17,137));
#144=IFCINDEXEDPOLYGONALFACE((134,138,18));
#145=IFCINDEXEDPOLYGONALFACE((138,144,18));
#146=IFCINDEXEDPOLYGONALFACE((86,96,87));
#147=IFCINDEXEDPOLYGONALFACE((85,95,86));
#148=IFCINDEXEDPOLYGONALFACE((87,97,92));
#149=IFCINDEXEDPOLYGONALFACE((88,98,89));
#150=IFCINDEXEDPOLYGONALFACE((89,99,90));
#151=IFCINDEXEDPOLYGONALFACE((90,100,94));
#152=IFCINDEXEDPOLYGONALFACE((92,106,93));
#153=IFCINDEXEDPOLYGONALFACE((93,106,109));
#154=IFCINDEXEDPOLYGONALFACE((85,91,101));
#155=IFCINDEXEDPOLYGONALFACE((91,105,117));
#156=IFCINDEXEDPOLYGONALFACE((92,102,106));
#157=IFCINDEXEDPOLYGONALFACE((88,93,103));
#158=IFCINDEXEDPOLYGONALFACE((94,104,110));
#159=IFCINDEXEDPOLYGONALFACE((93,109,121));
#160=IFCINDEXEDPOLYGONALFACE((119,125,15));
#161=IFCINDEXEDPOLYGONALFACE((86,95,96));
#162=IFCINDEXEDPOLYGONALFACE((87,96,97));
#163=IFCINDEXEDPOLYGONALFACE((85,101,95));
#164=IFCINDEXEDPOLYGONALFACE((89,98,99));
#165=IFCINDEXEDPOLYGONALFACE((90,99,100));
#166=IFCINDEXEDPOLYGONALFACE((88,103,98));
#167=IFCINDEXEDPOLYGONALFACE((96,98,97));
#168=IFCINDEXEDPOLYGONALFACE((96,99,98));
#169=IFCINDEXEDPOLYGONALFACE((97,98,103));
#170=IFCINDEXEDPOLYGONALFACE((124,16,128));
#171=IFCINDEXEDPOLYGONALFACE((92,97,102));
#172=IFCINDEXEDPOLYGONALFACE((91,117,101));
#173=IFCINDEXEDPOLYGONALFACE((102,118,106));
#174=IFCINDEXEDPOLYGONALFACE((94,100,104));
#175=IFCINDEXEDPOLYGONALFACE((93,121,103));
#176=IFCINDEXEDPOLYGONALFACE((104,122,110));
#177=IFCINDEXEDPOLYGONALFACE((97,103,102));
#178=IFCINDEXEDPOLYGONALFACE((102,103,121));
#179=IFCINDEXEDPOLYGONALFACE((102,121,118));
#180=IFCINDEXEDPOLYGONALFACE((106,108,109));
#181=IFCINDEXEDPOLYGONALFACE((108,111,109));
#182=IFCINDEXEDPOLYGONALFACE((110,281,14));
#183=IFCINDEXEDPOLYGONALFACE((106,118,108));
#184=IFCINDEXEDPOLYGONALFACE((105,107,119));
#185=IFCINDEXEDPOLYGONALFACE((110,122,112));
#186=IFCINDEXEDPOLYGONALFACE((109,111,123));
#187=IFCINDEXEDPOLYGONALFACE((108,114,111));
#188=IFCINDEXEDPOLYGONALFACE((111,114,115));
#189=IFCINDEXEDPOLYGONALFACE((108,120,114));
#190=IFCINDEXEDPOLYGONALFACE((107,113,125));
#191=IFCINDEXEDPOLYGONALFACE((112,124,116));
#192=IFCINDEXEDPOLYGONALFACE((111,115,127));
#193=IFCINDEXEDPOLYGONALFACE((125,296,15));
#194=IFCINDEXEDPOLYGONALFACE((105,119,117));
#195=IFCINDEXEDPOLYGONALFACE((108,118,120));
#196=IFCINDEXEDPOLYGONALFACE((109,123,121));
#197=IFCINDEXEDPOLYGONALFACE((112,122,124));
#198=IFCINDEXEDPOLYGONALFACE((118,121,123));
#199=IFCINDEXEDPOLYGONALFACE((118,123,120));
#200=IFCINDEXEDPOLYGONALFACE((128,16,282));
#201=IFCINDEXEDPOLYGONALFACE((107,125,119));
#202=IFCINDEXEDPOLYGONALFACE((114,120,126));
#203=IFCINDEXEDPOLYGONALFACE((111,127,123));
#204=IFCINDEXEDPOLYGONALFACE((116,124,128));
#205=IFCINDEXEDPOLYGONALFACE((120,123,127));
#206=IFCINDEXEDPOLYGONALFACE((120,127,126));
#207=IFCINDEXEDPOLYGONALFACE((297,17,15));
#208=IFCINDEXEDPOLYGONALFACE((141,17,147));
#209=IFCINDEXEDPOLYGONALFACE((136,140,137));
#210=IFCINDEXEDPOLYGONALFACE((137,140,143));
#211=IFCINDEXEDPOLYGONALFACE((147,17,297));
#212=IFCINDEXEDPOLYGONALFACE((140,142,143));
#213=IFCINDEXEDPOLYGONALFACE((142,145,143));
#214=IFCINDEXEDPOLYGONALFACE((144,284,18));
#215=IFCINDEXEDPOLYGONALFACE((142,148,145));
#216=IFCINDEXEDPOLYGONALFACE((145,148,149));
#217=IFCINDEXEDPOLYGONALFACE((130,155,131));
#218=IFCINDEXEDPOLYGONALFACE((129,154,130));
#219=IFCINDEXEDPOLYGONALFACE((131,156,136));
#220=IFCINDEXEDPOLYGONALFACE((132,160,133));
#221=IFCINDEXEDPOLYGONALFACE((133,161,134));
#222=IFCINDEXEDPOLYGONALFACE((134,162,138));
#223=IFCINDEXEDPOLYGONALFACE((129,135,167));
#224=IFCINDEXEDPOLYGONALFACE((135,139,185));
#225=IFCINDEXEDPOLYGONALFACE((136,168,140));
#226=IFCINDEXEDPOLYGONALFACE((132,137,169));
#227=IFCINDEXEDPOLYGONALFACE((138,170,144));
#228=IFCINDEXEDPOLYGONALFACE((137,143,190));
#229=IFCINDEXEDPOLYGONALFACE((130,154,155));
#230=IFCINDEXEDPOLYGONALFACE((131,155,156));
#231=IFCINDEXEDPOLYGONALFACE((129,167,154));
#232=IFCINDEXEDPOLYGONALFACE((133,160,161));
#233=IFCINDEXEDPOLYGONALFACE((134,161,162));
#234=IFCINDEXEDPOLYGONALFACE((132,169,160));
#235=IFCINDEXEDPOLYGONALFACE((136,156,168));
#236=IFCINDEXEDPOLYGONALFACE((135,185,167));
#237=IFCINDEXEDPOLYGONALFACE((140,168,186));
#238=IFCINDEXEDPOLYGONALFACE((138,162,170));
#239=IFCINDEXEDPOLYGONALFACE((137,190,169));
#240=IFCINDEXEDPOLYGONALFACE((144,170,191));
#241=IFCINDEXEDPOLYGONALFACE((238,18,284));
#242=IFCINDEXEDPOLYGONALFACE((140,186,142));
#243=IFCINDEXEDPOLYGONALFACE((139,141,187));
#244=IFCINDEXEDPOLYGONALFACE((144,191,146));
#245=IFCINDEXEDPOLYGONALFACE((143,145,192));
#246=IFCINDEXEDPOLYGONALFACE((142,189,148));
#247=IFCINDEXEDPOLYGONALFACE((141,147,195));
#248=IFCINDEXEDPOLYGONALFACE((146,194,150));
#249=IFCINDEXEDPOLYGONALFACE((145,149,197));
#250=IFCINDEXEDPOLYGONALFACE((139,187,185));
#251=IFCINDEXEDPOLYGONALFACE((142,186,189));
#252=IFCINDEXEDPOLYGONALFACE((143,192,190));
#253=IFCINDEXEDPOLYGONALFACE((146,191,194));
#254=IFCINDEXEDPOLYGONALFACE((141,195,187));
#255=IFCINDEXEDPOLYGONALFACE((148,189,196));
#256=IFCINDEXEDPOLYGONALFACE((145,197,192));
#257=IFCINDEXEDPOLYGONALFACE((150,194,198));
#258=IFCINDEXEDPOLYGONALFACE((154,188,155));
#259=IFCINDEXEDPOLYGONALFACE((155,188,156));
#260=IFCINDEXEDPOLYGONALFACE((154,167,188));
#261=IFCINDEXEDPOLYGONALFACE((156,188,168));
#262=IFCINDEXEDPOLYGONALFACE((160,193,161));
#263=IFCINDEXEDPOLYGONALFACE((161,193,162));
#264=IFCINDEXEDPOLYGONALFACE((160,169,193));
#265=IFCINDEXEDPOLYGONALFACE((162,193,170));
#266=IFCINDEXEDPOLYGONALFACE((167,185,188));
#267=IFCINDEXEDPOLYGONALFACE((168,188,186));
#268=IFCINDEXEDPOLYGONALFACE((185,187,188));
#269=IFCINDEXEDPOLYGONALFACE((186,188,189));
#270=IFCINDEXEDPOLYGONALFACE((169,190,193));
#271=IFCINDEXEDPOLYGONALFACE((170,193,191));
#272=IFCINDEXEDPOLYGONALFACE((190,192,193));
#273=IFCINDEXEDPOLYGONALFACE((191,193,194));
#274=IFCINDEXEDPOLYGONALFACE((187,195,188));
#275=IFCINDEXEDPOLYGONALFACE((188,196,189));
#276=IFCINDEXEDPOLYGONALFACE((188,195,285));
#277=IFCINDEXEDPOLYGONALFACE((188,286,196));
#278=IFCINDEXEDPOLYGONALFACE((192,197,193));
#279=IFCINDEXEDPOLYGONALFACE((193,198,194));
#280=IFCINDEXEDPOLYGONALFACE((193,197,287));
#281=IFCINDEXEDPOLYGONALFACE((193,288,198));
#282=IFCINDEXEDPOLYGONALFACE((199,301,300));
#283=IFCINDEXEDPOLYGONALFACE((199,220,301));
#284=IFCINDEXEDPOLYGONALFACE((220,25,29));
#285=IFCINDEXEDPOLYGONALFACE((220,29,31));
#286=IFCINDEXEDPOLYGONALFACE((220,31,37));
#287=IFCINDEXEDPOLYGONALFACE((38,39,202));
#288=IFCINDEXEDPOLYGONALFACE((38,202,201));
#289=IFCINDEXEDPOLYGONALFACE((201,202,207));
#290=IFCINDEXEDPOLYGONALFACE((221,36,34));
#291=IFCINDEXEDPOLYGONALFACE((201,207,205));
#292=IFCINDEXEDPOLYGONALFACE((205,207,206));
#293=IFCINDEXEDPOLYGONALFACE((221,40,36));
#294=IFCINDEXEDPOLYGONALFACE((10,222,221));
#295=IFCINDEXEDPOLYGONALFACE((220,37,200));
#296=IFCINDEXEDPOLYGONALFACE((220,200,204));
#297=IFCINDEXEDPOLYGONALFACE((220,204,206));
#298=IFCINDEXEDPOLYGONALFACE((220,206,207));
#299=IFCINDEXEDPOLYGONALFACE((220,207,209));
#300=IFCINDEXEDPOLYGONALFACE((221,203,40));
#301=IFCINDEXEDPOLYGONALFACE((221,208,203));
#302=IFCINDEXEDPOLYGONALFACE((221,209,208));
#303=IFCINDEXEDPOLYGONALFACE((220,209,221));
#304=IFCINDEXEDPOLYGONALFACE((220,221,236));
#305=IFCINDEXEDPOLYGONALFACE((221,222,236));
#306=IFCINDEXEDPOLYGONALFACE((236,222,235));
#307=IFCINDEXEDPOLYGONALFACE((236,235,234));
#308=IFCINDEXEDPOLYGONALFACE((236,234,237));
#309=IFCINDEXEDPOLYGONALFACE((236,237,238));
#310=IFCINDEXEDPOLYGONALFACE((220,236,302));
#311=IFCINDEXEDPOLYGONALFACE((238,233,18));
#312=IFCINDEXEDPOLYGONALFACE((238,237,233));
#313=IFCINDEXEDPOLYGONALFACE((236,238,302));
#314=IFCINDEXEDPOLYGONALFACE((220,302,301));
#315=IFCINDEXEDPOLYGONALFACE((249,300,301));
#316=IFCINDEXEDPOLYGONALFACE((249,301,280));
#317=IFCINDEXEDPOLYGONALFACE((114,251,115));
#318=IFCINDEXEDPOLYGONALFACE((115,251,252));
#319=IFCINDEXEDPOLYGONALFACE((251,255,252));
#320=IFCINDEXEDPOLYGONALFACE((110,112,281));
#321=IFCINDEXEDPOLYGONALFACE((113,250,260));
#322=IFCINDEXEDPOLYGONALFACE((114,126,251));
#323=IFCINDEXEDPOLYGONALFACE((251,261,255));
#324=IFCINDEXEDPOLYGONALFACE((116,128,253));
#325=IFCINDEXEDPOLYGONALFACE((115,252,262));
#326=IFCINDEXEDPOLYGONALFACE((253,263,258));
#327=IFCINDEXEDPOLYGONALFACE((281,282,14));
#328=IFCINDEXEDPOLYGONALFACE((252,255,257));
#329=IFCINDEXEDPOLYGONALFACE((255,256,257));
#330=IFCINDEXEDPOLYGONALFACE((256,259,257));
#331=IFCINDEXEDPOLYGONALFACE((112,116,281));
#332=IFCINDEXEDPOLYGONALFACE((250,254,264));
#333=IFCINDEXEDPOLYGONALFACE((255,265,256));
#334=IFCINDEXEDPOLYGONALFACE((254,256,266));
#335=IFCINDEXEDPOLYGONALFACE((252,257,267));
#336=IFCINDEXEDPOLYGONALFACE((258,268,259));
#337=IFCINDEXEDPOLYGONALFACE((257,259,269));
#338=IFCINDEXEDPOLYGONALFACE((113,260,125));
#339=IFCINDEXEDPOLYGONALFACE((126,261,251));
#340=IFCINDEXEDPOLYGONALFACE((250,264,260));
#341=IFCINDEXEDPOLYGONALFACE((115,262,127));
#342=IFCINDEXEDPOLYGONALFACE((128,263,253));
#343=IFCINDEXEDPOLYGONALFACE((252,267,262));
#344=IFCINDEXEDPOLYGONALFACE((255,261,265));
#345=IFCINDEXEDPOLYGONALFACE((254,266,264));
#346=IFCINDEXEDPOLYGONALFACE((256,265,266));
#347=IFCINDEXEDPOLYGONALFACE((258,263,268));
#348=IFCINDEXEDPOLYGONALFACE((257,269,267));
#349=IFCINDEXEDPOLYGONALFACE((259,268,269));
#350=IFCINDEXEDPOLYGONALFACE((254,281,256));
#351=IFCINDEXEDPOLYGONALFACE((116,253,281));
#352=IFCINDEXEDPOLYGONALFACE((256,281,259));
#353=IFCINDEXEDPOLYGONALFACE((253,258,281));
#354=IFCINDEXEDPOLYGONALFACE((258,259,281));
#355=IFCINDEXEDPOLYGONALFACE((125,260,296));
#356=IFCINDEXEDPOLYGONALFACE((126,127,283));
#357=IFCINDEXEDPOLYGONALFACE((126,283,261));
#358=IFCINDEXEDPOLYGONALFACE((127,262,283));
#359=IFCINDEXEDPOLYGONALFACE((128,282,263));
#360=IFCINDEXEDPOLYGONALFACE((262,267,283));
#361=IFCINDEXEDPOLYGONALFACE((267,269,282));
#362=IFCINDEXEDPOLYGONALFACE((263,282,268));
#363=IFCINDEXEDPOLYGONALFACE((268,282,269));
#364=IFCINDEXEDPOLYGONALFACE((260,264,296));
#365=IFCINDEXEDPOLYGONALFACE((261,296,265));
#366=IFCINDEXEDPOLYGONALFACE((144,146,284));
#367=IFCINDEXEDPOLYGONALFACE((146,150,284));
#368=IFCINDEXEDPOLYGONALFACE((296,297,15));
#369=IFCINDEXEDPOLYGONALFACE((147,297,270));
#370=IFCINDEXEDPOLYGONALFACE((148,298,149));
#371=IFCINDEXEDPOLYGONALFACE((150,273,284));
#372=IFCINDEXEDPOLYGONALFACE((273,278,284));
#373=IFCINDEXEDPOLYGONALFACE((278,279,284));
#374=IFCINDEXEDPOLYGONALFACE((148,271,298));
#375=IFCINDEXEDPOLYGONALFACE((149,298,272));
#376=IFCINDEXEDPOLYGONALFACE((270,298,274));
#377=IFCINDEXEDPOLYGONALFACE((271,275,298));
#378=IFCINDEXEDPOLYGONALFACE((274,298,276));
#379=IFCINDEXEDPOLYGONALFACE((275,276,298));
#380=IFCINDEXEDPOLYGONALFACE((272,298,277));
#381=IFCINDEXEDPOLYGONALFACE((277,298,279));
#382=IFCINDEXEDPOLYGONALFACE((264,266,296));
#383=IFCINDEXEDPOLYGONALFACE((265,296,266));
#384=IFCINDEXEDPOLYGONALFACE((267,282,283));
#385=IFCINDEXEDPOLYGONALFACE((261,283,296));
#386=IFCINDEXEDPOLYGONALFACE((281,283,282));
#387=IFCINDEXEDPOLYGONALFACE((281,296,283));
#388=IFCINDEXEDPOLYGONALFACE((279,298,284));
#389=IFCINDEXEDPOLYGONALFACE((270,297,298));
#390=IFCINDEXEDPOLYGONALFACE((147,270,285));
#391=IFCINDEXEDPOLYGONALFACE((148,196,271));
#392=IFCINDEXEDPOLYGONALFACE((271,286,275));
#393=IFCINDEXEDPOLYGONALFACE((150,198,273));
#394=IFCINDEXEDPOLYGONALFACE((149,272,287));
#395=IFCINDEXEDPOLYGONALFACE((273,288,278));
#396=IFCINDEXEDPOLYGONALFACE((270,274,289));
#397=IFCINDEXEDPOLYGONALFACE((275,290,276));
#398=IFCINDEXEDPOLYGONALFACE((274,276,291));
#399=IFCINDEXEDPOLYGONALFACE((272,277,292));
#400=IFCINDEXEDPOLYGONALFACE((278,293,279));
#401=IFCINDEXEDPOLYGONALFACE((277,279,294));
#402=IFCINDEXEDPOLYGONALFACE((147,285,195));
#403=IFCINDEXEDPOLYGONALFACE((196,286,271));
#404=IFCINDEXEDPOLYGONALFACE((270,289,285));
#405=IFCINDEXEDPOLYGONALFACE((149,287,197));
#406=IFCINDEXEDPOLYGONALFACE((198,288,273));
#407=IFCINDEXEDPOLYGONALFACE((272,292,287));
#408=IFCINDEXEDPOLYGONALFACE((275,286,290));
#409=IFCINDEXEDPOLYGONALFACE((274,291,289));
#410=IFCINDEXEDPOLYGONALFACE((276,290,291));
#411=IFCINDEXEDPOLYGONALFACE((278,288,293));
#412=IFCINDEXEDPOLYGONALFACE((277,294,292));
#413=IFCINDEXEDPOLYGONALFACE((279,293,294));
#414=IFCINDEXEDPOLYGONALFACE((188,285,289));
#415=IFCINDEXEDPOLYGONALFACE((188,290,286));
#416=IFCINDEXEDPOLYGONALFACE((188,289,291));
#417=IFCINDEXEDPOLYGONALFACE((188,291,290));
#418=IFCINDEXEDPOLYGONALFACE((193,287,292));
#419=IFCINDEXEDPOLYGONALFACE((193,293,288));
#420=IFCINDEXEDPOLYGONALFACE((193,292,294));
#421=IFCINDEXEDPOLYGONALFACE((193,294,293));
#422=IFCINDEXEDPOLYGONALFACE((238,284,295));
#423=IFCINDEXEDPOLYGONALFACE((284,298,295));
#424=IFCINDEXEDPOLYGONALFACE((280,299,281));
#425=IFCINDEXEDPOLYGONALFACE((281,299,296));
#426=IFCINDEXEDPOLYGONALFACE((296,299,297));
#427=IFCINDEXEDPOLYGONALFACE((280,301,299));
#428=IFCINDEXEDPOLYGONALFACE((297,303,298));
#429=IFCINDEXEDPOLYGONALFACE((295,298,303));
#430=IFCINDEXEDPOLYGONALFACE((297,299,303));
#431=IFCINDEXEDPOLYGONALFACE((299,301,303));
#432=IFCINDEXEDPOLYGONALFACE((238,295,302));
#433=IFCINDEXEDPOLYGONALFACE((295,303,302));
#434=IFCINDEXEDPOLYGONALFACE((301,302,303));
#435=IFCINDEXEDPOLYGONALFACE((5,7,6));
#436=IFCINDEXEDPOLYGONALFACE((7,8,6));
#437=IFCINDEXEDPOLYGONALFACE((13,15,5));
#438=IFCINDEXEDPOLYGONALFACE((5,6,13));
#439=IFCINDEXEDPOLYGONALFACE((13,6,14));
#440=IFCINDEXEDPOLYGONALFACE((17,5,15));
#441=IFCINDEXEDPOLYGONALFACE((13,14,15));
#442=IFCINDEXEDPOLYGONALFACE((16,15,14));
#443=IFCINDEXEDPOLYGONALFACE((42,12,11));
#444=IFCINDEXEDPOLYGONALFACE((47,11,51));
#445=IFCINDEXEDPOLYGONALFACE((53,51,11));
#446=IFCINDEXEDPOLYGONALFACE((41,42,11));
#447=IFCINDEXEDPOLYGONALFACE((47,41,11));
#448=IFCINDEXEDPOLYGONALFACE((42,45,12));
#449=IFCINDEXEDPOLYGONALFACE((45,46,12));
#450=IFCINDEXEDPOLYGONALFACE((46,50,12));
#451=IFCINDEXEDPOLYGONALFACE((50,56,12));
#452=IFCINDEXEDPOLYGONALFACE((42,19,20));
#453=IFCINDEXEDPOLYGONALFACE((43,20,21));
#454=IFCINDEXEDPOLYGONALFACE((41,25,19));
#455=IFCINDEXEDPOLYGONALFACE((45,22,23));
#456=IFCINDEXEDPOLYGONALFACE((46,23,24));
#457=IFCINDEXEDPOLYGONALFACE((44,27,22));
#458=IFCINDEXEDPOLYGONALFACE((48,21,26));
#459=IFCINDEXEDPOLYGONALFACE((47,29,25));
#460=IFCINDEXEDPOLYGONALFACE((52,26,30));
#461=IFCINDEXEDPOLYGONALFACE((50,24,28));
#462=IFCINDEXEDPOLYGONALFACE((49,33,27));
#463=IFCINDEXEDPOLYGONALFACE((56,28,34));
#464=IFCINDEXEDPOLYGONALFACE((51,31,29));
#465=IFCINDEXEDPOLYGONALFACE((54,30,32));
#466=IFCINDEXEDPOLYGONALFACE((55,35,33));
#467=IFCINDEXEDPOLYGONALFACE((58,34,36));
#468=IFCINDEXEDPOLYGONALFACE((53,37,31));
#469=IFCINDEXEDPOLYGONALFACE((60,32,38));
#470=IFCINDEXEDPOLYGONALFACE((57,39,35));
#471=IFCINDEXEDPOLYGONALFACE((62,36,40));
#472=IFCINDEXEDPOLYGONALFACE((53,11,59));
#473=IFCINDEXEDPOLYGONALFACE((42,20,43));
#474=IFCINDEXEDPOLYGONALFACE((41,19,42));
#475=IFCINDEXEDPOLYGONALFACE((43,21,48));
#476=IFCINDEXEDPOLYGONALFACE((44,22,45));
#477=IFCINDEXEDPOLYGONALFACE((45,23,46));
#478=IFCINDEXEDPOLYGONALFACE((46,24,50));
#479=IFCINDEXEDPOLYGONALFACE((47,25,41));
#480=IFCINDEXEDPOLYGONALFACE((47,51,29));
#481=IFCINDEXEDPOLYGONALFACE((48,26,52));
#482=IFCINDEXEDPOLYGONALFACE((49,27,44));
#483=IFCINDEXEDPOLYGONALFACE((50,28,56));
#484=IFCINDEXEDPOLYGONALFACE((55,33,49));
#485=IFCINDEXEDPOLYGONALFACE((42,43,45));
#486=IFCINDEXEDPOLYGONALFACE((43,44,45));
#487=IFCINDEXEDPOLYGONALFACE((43,48,44));
#488=IFCINDEXEDPOLYGONALFACE((48,49,44));
#489=IFCINDEXEDPOLYGONALFACE((48,52,49));
#490=IFCINDEXEDPOLYGONALFACE((52,55,49));
#491=IFCINDEXEDPOLYGONALFACE((59,11,234));
#492=IFCINDEXEDPOLYGONALFACE((52,30,54));
#493=IFCINDEXEDPOLYGONALFACE((53,31,51));
#494=IFCINDEXEDPOLYGONALFACE((56,34,58));
#495=IFCINDEXEDPOLYGONALFACE((55,57,35));
#496=IFCINDEXEDPOLYGONALFACE((54,32,60));
#497=IFCINDEXEDPOLYGONALFACE((53,59,37));
#498=IFCINDEXEDPOLYGONALFACE((58,36,62));
#499=IFCINDEXEDPOLYGONALFACE((57,61,39));
#500=IFCINDEXEDPOLYGONALFACE((52,54,55));
#501=IFCINDEXEDPOLYGONALFACE((54,57,55));
#502=IFCINDEXEDPOLYGONALFACE((56,222,12));
#503=IFCINDEXEDPOLYGONALFACE((54,60,57));
#504=IFCINDEXEDPOLYGONALFACE((60,61,57));
#505=IFCINDEXEDPOLYGONALFACE((5,237,7));
#506=IFCINDEXEDPOLYGONALFACE((237,11,7));
#507=IFCINDEXEDPOLYGONALFACE((5,17,237));
#508=IFCINDEXEDPOLYGONALFACE((67,17,18));
#509=IFCINDEXEDPOLYGONALFACE((69,73,17));
#510=IFCINDEXEDPOLYGONALFACE((75,17,73));
#511=IFCINDEXEDPOLYGONALFACE((64,17,67));
#512=IFCINDEXEDPOLYGONALFACE((63,17,64));
#513=IFCINDEXEDPOLYGONALFACE((69,17,63));
#514=IFCINDEXEDPOLYGONALFACE((67,18,68));
#515=IFCINDEXEDPOLYGONALFACE((68,18,72));
#516=IFCINDEXEDPOLYGONALFACE((72,18,78));
#517=IFCINDEXEDPOLYGONALFACE((78,18,80));
#518=IFCINDEXEDPOLYGONALFACE((75,81,17));
#519=IFCINDEXEDPOLYGONALFACE((64,66,65));
#520=IFCINDEXEDPOLYGONALFACE((64,67,66));
#521=IFCINDEXEDPOLYGONALFACE((65,66,71));
#522=IFCINDEXEDPOLYGONALFACE((80,18,84));
#523=IFCINDEXEDPOLYGONALFACE((65,71,70));
#524=IFCINDEXEDPOLYGONALFACE((70,71,77));
#525=IFCINDEXEDPOLYGONALFACE((70,77,74));
#526=IFCINDEXEDPOLYGONALFACE((81,237,17));
#527=IFCINDEXEDPOLYGONALFACE((74,77,79));
#528=IFCINDEXEDPOLYGONALFACE((74,79,76));
#529=IFCINDEXEDPOLYGONALFACE((84,18,233));
#530=IFCINDEXEDPOLYGONALFACE((76,79,83));
#531=IFCINDEXEDPOLYGONALFACE((76,83,82));
#532=IFCINDEXEDPOLYGONALFACE((63,64,152));
#533=IFCINDEXEDPOLYGONALFACE((64,65,153));
#534=IFCINDEXEDPOLYGONALFACE((69,63,151));
#535=IFCINDEXEDPOLYGONALFACE((66,67,158));
#536=IFCINDEXEDPOLYGONALFACE((67,68,159));
#537=IFCINDEXEDPOLYGONALFACE((71,66,157));
#538=IFCINDEXEDPOLYGONALFACE((65,70,164));
#539=IFCINDEXEDPOLYGONALFACE((69,163,73));
#540=IFCINDEXEDPOLYGONALFACE((70,74,172));
#541=IFCINDEXEDPOLYGONALFACE((68,72,166));
#542=IFCINDEXEDPOLYGONALFACE((77,71,165));
#543=IFCINDEXEDPOLYGONALFACE((72,78,177));
#544=IFCINDEXEDPOLYGONALFACE((75,73,171));
#545=IFCINDEXEDPOLYGONALFACE((74,76,175));
#546=IFCINDEXEDPOLYGONALFACE((77,176,79));
#547=IFCINDEXEDPOLYGONALFACE((78,80,180));
#548=IFCINDEXEDPOLYGONALFACE((75,173,81));
#549=IFCINDEXEDPOLYGONALFACE((76,82,182));
#550=IFCINDEXEDPOLYGONALFACE((79,178,83));
#551=IFCINDEXEDPOLYGONALFACE((80,84,184));
#552=IFCINDEXEDPOLYGONALFACE((64,153,152));
#553=IFCINDEXEDPOLYGONALFACE((63,152,151));
#554=IFCINDEXEDPOLYGONALFACE((65,164,153));
#555=IFCINDEXEDPOLYGONALFACE((66,158,157));
#556=IFCINDEXEDPOLYGONALFACE((67,159,158));
#557=IFCINDEXEDPOLYGONALFACE((68,166,159));
#558=IFCINDEXEDPOLYGONALFACE((69,151,163));
#559=IFCINDEXEDPOLYGONALFACE((73,163,171));
#560=IFCINDEXEDPOLYGONALFACE((70,172,164));
#561=IFCINDEXEDPOLYGONALFACE((71,157,165));
#562=IFCINDEXEDPOLYGONALFACE((72,177,166));
#563=IFCINDEXEDPOLYGONALFACE((77,165,176));
#564=IFCINDEXEDPOLYGONALFACE((74,175,172));
#565=IFCINDEXEDPOLYGONALFACE((75,171,173));
#566=IFCINDEXEDPOLYGONALFACE((78,180,177));
#567=IFCINDEXEDPOLYGONALFACE((79,176,178));
#568=IFCINDEXEDPOLYGONALFACE((76,182,175));
#569=IFCINDEXEDPOLYGONALFACE((81,173,181));
#570=IFCINDEXEDPOLYGONALFACE((80,184,180));
#571=IFCINDEXEDPOLYGONALFACE((83,178,183));
#572=IFCINDEXEDPOLYGONALFACE((151,152,174));
#573=IFCINDEXEDPOLYGONALFACE((152,153,174));
#574=IFCINDEXEDPOLYGONALFACE((163,151,174));
#575=IFCINDEXEDPOLYGONALFACE((153,164,174));
#576=IFCINDEXEDPOLYGONALFACE((157,158,179));
#577=IFCINDEXEDPOLYGONALFACE((158,159,179));
#578=IFCINDEXEDPOLYGONALFACE((165,157,179));
#579=IFCINDEXEDPOLYGONALFACE((159,166,179));
#580=IFCINDEXEDPOLYGONALFACE((163,174,171));
#581=IFCINDEXEDPOLYGONALFACE((174,164,172));
#582=IFCINDEXEDPOLYGONALFACE((173,171,174));
#583=IFCINDEXEDPOLYGONALFACE((174,172,175));
#584=IFCINDEXEDPOLYGONALFACE((176,165,179));
#585=IFCINDEXEDPOLYGONALFACE((179,166,177));
#586=IFCINDEXEDPOLYGONALFACE((176,179,178));
#587=IFCINDEXEDPOLYGONALFACE((179,177,180));
#588=IFCINDEXEDPOLYGONALFACE((173,174,181));
#589=IFCINDEXEDPOLYGONALFACE((174,175,182));
#590=IFCINDEXEDPOLYGONALFACE((181,174,239));
#591=IFCINDEXEDPOLYGONALFACE((174,182,240));
#592=IFCINDEXEDPOLYGONALFACE((178,179,183));
#593=IFCINDEXEDPOLYGONALFACE((179,180,184));
#594=IFCINDEXEDPOLYGONALFACE((183,179,241));
#595=IFCINDEXEDPOLYGONALFACE((179,184,242));
#596=IFCINDEXEDPOLYGONALFACE((59,200,37));
#597=IFCINDEXEDPOLYGONALFACE((211,38,201));
#598=IFCINDEXEDPOLYGONALFACE((210,204,200));
#599=IFCINDEXEDPOLYGONALFACE((61,202,39));
#600=IFCINDEXEDPOLYGONALFACE((213,40,203));
#601=IFCINDEXEDPOLYGONALFACE((212,207,202));
#602=IFCINDEXEDPOLYGONALFACE((215,201,205));
#603=IFCINDEXEDPOLYGONALFACE((214,206,204));
#604=IFCINDEXEDPOLYGONALFACE((216,205,206));
#605=IFCINDEXEDPOLYGONALFACE((218,203,208));
#606=IFCINDEXEDPOLYGONALFACE((217,209,207));
#607=IFCINDEXEDPOLYGONALFACE((219,208,209));
#608=IFCINDEXEDPOLYGONALFACE((59,210,200));
#609=IFCINDEXEDPOLYGONALFACE((60,38,211));
#610=IFCINDEXEDPOLYGONALFACE((215,211,201));
#611=IFCINDEXEDPOLYGONALFACE((62,40,213));
#612=IFCINDEXEDPOLYGONALFACE((61,212,202));
#613=IFCINDEXEDPOLYGONALFACE((218,213,203));
#614=IFCINDEXEDPOLYGONALFACE((210,214,204));
#615=IFCINDEXEDPOLYGONALFACE((216,215,205));
#616=IFCINDEXEDPOLYGONALFACE((214,216,206));
#617=IFCINDEXEDPOLYGONALFACE((212,217,207));
#618=IFCINDEXEDPOLYGONALFACE((219,218,208));
#619=IFCINDEXEDPOLYGONALFACE((217,219,209));
#620=IFCINDEXEDPOLYGONALFACE((56,58,222));
#621=IFCINDEXEDPOLYGONALFACE((58,62,222));
#622=IFCINDEXEDPOLYGONALFACE((59,234,210));
#623=IFCINDEXEDPOLYGONALFACE((60,235,61));
#624=IFCINDEXEDPOLYGONALFACE((62,213,222));
#625=IFCINDEXEDPOLYGONALFACE((218,222,213));
#626=IFCINDEXEDPOLYGONALFACE((219,222,218));
#627=IFCINDEXEDPOLYGONALFACE((60,211,235));
#628=IFCINDEXEDPOLYGONALFACE((61,235,212));
#629=IFCINDEXEDPOLYGONALFACE((210,235,214));
#630=IFCINDEXEDPOLYGONALFACE((215,235,211));
#631=IFCINDEXEDPOLYGONALFACE((214,235,216));
#632=IFCINDEXEDPOLYGONALFACE((216,235,215));
#633=IFCINDEXEDPOLYGONALFACE((212,235,217));
#634=IFCINDEXEDPOLYGONALFACE((217,235,219));
#635=IFCINDEXEDPOLYGONALFACE((219,235,222));
#636=IFCINDEXEDPOLYGONALFACE((210,234,235));
#637=IFCINDEXEDPOLYGONALFACE((237,234,11));
#638=IFCINDEXEDPOLYGONALFACE((82,83,225));
#639=IFCINDEXEDPOLYGONALFACE((82,225,230));
#640=IFCINDEXEDPOLYGONALFACE((81,223,237));
#641=IFCINDEXEDPOLYGONALFACE((228,224,233));
#642=IFCINDEXEDPOLYGONALFACE((229,228,233));
#643=IFCINDEXEDPOLYGONALFACE((82,233,224));
#644=IFCINDEXEDPOLYGONALFACE((82,230,233));
#645=IFCINDEXEDPOLYGONALFACE((84,233,226));
#646=IFCINDEXEDPOLYGONALFACE((230,232,233));
#647=IFCINDEXEDPOLYGONALFACE((231,226,233));
#648=IFCINDEXEDPOLYGONALFACE((232,231,233));
#649=IFCINDEXEDPOLYGONALFACE((223,227,237));
#650=IFCINDEXEDPOLYGONALFACE((227,229,237));
#651=IFCINDEXEDPOLYGONALFACE((229,233,237));
#652=IFCINDEXEDPOLYGONALFACE((81,181,223));
#653=IFCINDEXEDPOLYGONALFACE((82,224,240));
#654=IFCINDEXEDPOLYGONALFACE((223,239,227));
#655=IFCINDEXEDPOLYGONALFACE((83,183,225));
#656=IFCINDEXEDPOLYGONALFACE((84,226,242));
#657=IFCINDEXEDPOLYGONALFACE((225,241,230));
#658=IFCINDEXEDPOLYGONALFACE((228,244,224));
#659=IFCINDEXEDPOLYGONALFACE((227,243,229));
#660=IFCINDEXEDPOLYGONALFACE((229,245,228));
#661=IFCINDEXEDPOLYGONALFACE((231,247,226));
#662=IFCINDEXEDPOLYGONALFACE((230,246,232));
#663=IFCINDEXEDPOLYGONALFACE((232,248,231));
#664=IFCINDEXEDPOLYGONALFACE((223,181,239));
#665=IFCINDEXEDPOLYGONALFACE((82,240,182));
#666=IFCINDEXEDPOLYGONALFACE((224,244,240));
#667=IFCINDEXEDPOLYGONALFACE((84,242,184));
#668=IFCINDEXEDPOLYGONALFACE((225,183,241));
#669=IFCINDEXEDPOLYGONALFACE((226,247,242));
#670=IFCINDEXEDPOLYGONALFACE((227,239,243));
#671=IFCINDEXEDPOLYGONALFACE((228,245,244));
#672=IFCINDEXEDPOLYGONALFACE((229,243,245));
#673=IFCINDEXEDPOLYGONALFACE((230,241,246));
#674=IFCINDEXEDPOLYGONALFACE((231,248,247));
#675=IFCINDEXEDPOLYGONALFACE((232,246,248));
#676=IFCINDEXEDPOLYGONALFACE((239,174,243));
#677=IFCINDEXEDPOLYGONALFACE((174,240,244));
#678=IFCINDEXEDPOLYGONALFACE((243,174,245));
#679=IFCINDEXEDPOLYGONALFACE((174,244,245));
#680=IFCINDEXEDPOLYGONALFACE((241,179,246));
#681=IFCINDEXEDPOLYGONALFACE((179,242,247));
#682=IFCINDEXEDPOLYGONALFACE((246,179,248));
#683=IFCINDEXEDPOLYGONALFACE((179,247,248));
#684=IFCCARTESIANPOINTLIST3D(((0.,0.,0.),(3350.,0.,0.),(3100.,0.,34.9999999999991),(3350.,0.,34.9999999999991),(3100.,35.,4.54747350886464E-13),(3350.,35.,4.54747350886464E-13),(3100.,35.,34.9999999999991),(3350.,35.,34.9999999999991),(3100.,0.,64.9999999999991),(3350.,0.,64.9999999999991),(3100.,35.,64.9999999999991),(3350.,35.,64.9999999999991),(3100.,65.,4.54747350886464E-13),(3350.,65.,4.54747350886464E-13),(3100.,65.,34.9999999999991),(3350.,65.,34.9999999999991),(3100.,65.,64.9999999999991),(3350.,65.,64.9999999999991),(3165.43291419087,0.,128.153011687218),(3175.,0.,126.25),(3184.56708580913,0.,128.153011687218),(3265.43291419087,0.,128.153011687218),(3275.,0.,126.25),(3284.56708580913,0.,128.153011687218),(3157.32233047034,0.,133.572330470337),(3192.67766952966,0.,133.572330470337),(3257.32233047034,0.,133.572330470337),(3292.67766952966,0.,133.572330470337),(3151.90301168722,0.,141.682914190873),(3198.09698831278,0.,141.682914190873),(3150.,0.,151.25),(3200.,0.,151.25),(3251.90301168722,0.,141.682914190873),(3298.09698831278,0.,141.682914190873),(3250.,0.,151.25),(3300.,0.,151.25),(3151.90301168722,0.,160.817085809128),(3198.09698831278,0.,160.817085809128),(3251.90301168722,0.,160.817085809128),(3298.09698831278,0.,160.817085809128),(3165.43291419087,35.,128.153011687218),(3175.,35.,126.25),(3184.56708580913,35.,128.153011687218),(3265.43291419087,35.,128.153011687218),(3275.,35.,126.25),(3284.56708580913,35.,128.153011687218),(3157.32233047034,35.,133.572330470337),(3192.67766952966,35.,133.572330470337),(3257.32233047034,35.,133.572330470337),(3292.67766952966,35.,133.572330470337),(3151.90301168722,35.,141.682914190873),(3198.09698831278,35.,141.682914190873),(3150.,35.,151.25),(3200.,35.,151.25),(3251.90301168722,35.,141.682914190873),(3298.09698831278,35.,141.682914190873),(3250.,35.,151.25),(3300.,35.,151.25),(3151.90301168722,35.,160.817085809128),(3198.09698831278,35.,160.817085809128),(3251.90301168722,35.,160.817085809128),(3298.09698831278,35.,160.817085809128),(3165.43291419087,65.,128.153011687218),(3175.,65.,126.25),(3184.56708580913,65.,128.153011687218),(3265.43291419087,65.,128.153011687218),(3275.,65.,126.25),(3284.56708580913,65.,128.153011687218),(3157.32233047034,65.,133.572330470337),(3192.67766952966,65.,133.572330470337),(3257.32233047034,65.,133.572330470337),(3292.67766952966,65.,133.572330470337),(3151.90301168722,65.,141.682914190873),(3198.09698831278,65.,141.682914190873),(3150.,65.,151.25),(3200.,65.,151.25),(3251.90301168722,65.,141.682914190873),(3298.09698831278,65.,141.682914190873),(3250.,65.,151.25),(3300.,65.,151.25),(3151.90301168722,65.,160.817085809128),(3198.09698831278,65.,160.817085809128),(3251.90301168722,65.,160.817085809128),(3298.09698831278,65.,160.817085809128),(3165.43291419087,128.153011687218,0.),(3175.,126.25,0.),(3184.56708580913,128.153011687218,0.),(3265.43291419087,128.153011687218,0.),(3275.,126.25,0.),(3284.56708580913,128.153011687218,0.),(3157.32233047034,133.572330470337,0.),(3192.67766952966,133.572330470337,0.),(3257.32233047034,133.572330470337,0.),(3292.67766952966,133.572330470337,0.),(3165.43291419087,128.153011687218,34.9999999999991),(3175.,126.25,34.9999999999991),(3184.56708580913,128.153011687218,34.9999999999991),(3265.43291419087,128.153011687218,34.9999999999991),(3275.,126.25,34.9999999999991),(3284.56708580913,128.153011687218,34.9999999999991),(3157.32233047034,133.572330470337,34.9999999999991),(3192.67766952966,133.572330470337,34.9999999999991),(3257.32233047034,133.572330470337,34.9999999999991),(3292.67766952966,133.572330470337,34.9999999999991),(3151.90301168722,141.682914190873,0.),(3198.09698831278,141.682914190873,0.),(3150.,151.25,0.),(3200.,151.25,0.),(3251.90301168722,141.682914190873,0.),(3298.09698831278,141.682914190873,0.),(3250.,151.25,0.),(3300.,151.25,0.),(3151.90301168722,160.817085809127,0.),(3198.09698831278,160.817085809127,0.),(3251.90301168722,160.817085809127,0.),(3298.09698831278,160.817085809127,0.),(3151.90301168722,141.682914190873,34.9999999999991),(3198.09698831278,141.682914190873,34.9999999999991),(3150.,151.25,34.9999999999991),(3200.,151.25,34.9999999999991),(3251.90301168722,141.682914190873,34.9999999999991),(3298.09698831278,141.682914190873,34.9999999999991),(3250.,151.25,34.9999999999991),(3300.,151.25,34.9999999999991),(3151.90301168722,160.817085809127,34.9999999999991),(3198.09698831278,160.817085809127,34.9999999999991),(3251.90301168722,160.817085809127,34.9999999999991),(3298.09698831278,160.817085809127,34.9999999999991),(3165.43291419087,128.153011687218,64.9999999999991),(3175.,126.25,64.9999999999991),(3184.56708580913,128.153011687218,64.9999999999991),(3265.43291419087,128.153011687218,64.9999999999991),(3275.,126.25,64.9999999999991),(3284.56708580913,128.153011687218,64.9999999999991),(3157.32233047034,133.572330470337,64.9999999999991),(3192.67766952966,133.572330470337,64.9999999999991),(3257.32233047034,133.572330470337,64.9999999999991),(3292.67766952966,133.572330470337,64.9999999999991),(3151.90301168722,141.682914190873,64.9999999999991),(3198.09698831278,141.682914190873,64.9999999999991),(3150.,151.25,64.9999999999991),(3200.,151.25,64.9999999999991),(3251.90301168722,141.682914190873,64.9999999999991),(3298.09698831278,141.682914190873,64.9999999999991),(3250.,151.25,64.9999999999991),(3300.,151.25,64.9999999999991),(3151.90301168722,160.817085809127,64.9999999999991),(3198.09698831278,160.817085809127,64.9999999999991),(3251.90301168722,160.817085809127,64.9999999999991),(3298.09698831278,160.817085809127,64.9999999999991),(3165.43291419087,125.,128.153011687218),(3175.,125.,126.25),(3184.56708580913,125.,128.153011687218),(3165.43291419087,128.153011687218,125.),(3175.,126.25,125.),(3184.56708580913,128.153011687218,125.),(3265.43291419087,125.,128.153011687218),(3275.,125.,126.25),(3284.56708580913,125.,128.153011687218),(3265.43291419087,128.153011687218,125.),(3275.,126.25,125.),(3284.56708580913,128.153011687218,125.),(3157.32233047034,125.,133.572330470337),(3192.67766952966,125.,133.572330470337),(3257.32233047034,125.,133.572330470337),(3292.67766952966,125.,133.572330470337),(3157.32233047034,133.572330470337,125.),(3192.67766952966,133.572330470337,125.),(3257.32233047034,133.572330470337,125.),(3292.67766952966,133.572330470337,125.),(3151.90301168722,125.,141.682914190873),(3198.09698831278,125.,141.682914190873),(3150.,125.,151.25),(3175.,125.,151.25),(3200.,125.,151.25),(3251.90301168722,125.,141.682914190873),(3298.09698831278,125.,141.682914190873),(3250.,125.,151.25),(3275.,125.,151.25),(3300.,125.,151.25),(3151.90301168722,125.,160.817085809128),(3198.09698831278,125.,160.817085809128),(3251.90301168722,125.,160.817085809128),(3298.09698831278,125.,160.817085809128),(3151.90301168722,141.682914190873,125.),(3198.09698831278,141.682914190873,125.),(3150.,151.25,125.),(3175.,151.25,125.),(3200.,151.25,125.),(3251.90301168722,141.682914190873,125.),(3298.09698831278,141.682914190873,125.),(3250.,151.25,125.),(3275.,151.25,125.),(3300.,151.25,125.),(3151.90301168722,160.817085809127,125.),(3198.09698831278,160.817085809127,125.),(3251.90301168722,160.817085809127,125.),(3298.09698831278,160.817085809127,125.),(0.,0.,220.),(3157.32233047034,0.,168.927669529664),(3192.67766952966,0.,168.927669529664),(3257.32233047034,0.,168.927669529664),(3292.67766952966,0.,168.927669529664),(3165.43291419087,0.,174.346988312783),(3184.56708580913,0.,174.346988312783),(3175.,0.,176.25),(3265.43291419087,0.,174.346988312783),(3284.56708580913,0.,174.346988312783),(3275.,0.,176.25),(3157.32233047034,35.,168.927669529664),(3192.67766952966,35.,168.927669529664),(3257.32233047034,35.,168.927669529664),(3292.67766952966,35.,168.927669529664),(3165.43291419087,35.,174.346988312783),(3184.56708580913,35.,174.346988312783),(3175.,35.,176.25),(3265.43291419087,35.,174.346988312783),(3284.56708580913,35.,174.346988312783),(3275.,35.,176.25),(2620.,0.,220.),(3350.,0.,220.),(3350.,35.,220.),(3157.32233047034,65.,168.927669529664),(3192.67766952966,65.,168.927669529664),(3257.32233047034,65.,168.927669529664),(3292.67766952966,65.,168.927669529664),(3165.43291419087,65.,174.346988312783),(3184.56708580913,65.,174.346988312783),(3175.,65.,176.25),(3265.43291419087,65.,174.346988312783),(3284.56708580913,65.,174.346988312783),(3275.,65.,176.25),(3350.,65.,220.),(3100.,35.,257.0627475395),(3142.48045801124,35.,250.764977576968),(2655.45,0.,322.967725214238),(3100.,65.,257.0627475395),(3350.,120.,220.),(3157.32233047034,125.,168.927669529664),(3192.67766952966,125.,168.927669529664),(3257.32233047034,125.,168.927669529664),(3292.67766952966,125.,168.927669529664),(3165.43291419087,125.,174.346988312783),(3184.56708580913,125.,174.346988312783),(3175.,125.,176.25),(3265.43291419087,125.,174.346988312783),(3284.56708580913,125.,174.346988312783),(3275.,125.,176.25),(0.,220.,0.),(3157.32233047034,168.927669529663,0.),(3192.67766952966,168.927669529663,0.),(3257.32233047034,168.927669529663,0.),(3292.67766952966,168.927669529663,0.),(3165.43291419087,174.346988312782,0.),(3184.56708580913,174.346988312782,0.),(3175.,176.25,0.),(3265.43291419087,174.346988312782,0.),(3284.56708580913,174.346988312782,0.),(3275.,176.25,0.),(3157.32233047034,168.927669529663,34.9999999999991),(3192.67766952966,168.927669529663,34.9999999999991),(3257.32233047034,168.927669529663,34.9999999999991),(3292.67766952966,168.927669529663,34.9999999999991),(3165.43291419087,174.346988312782,34.9999999999991),(3184.56708580913,174.346988312782,34.9999999999991),(3175.,176.25,34.9999999999991),(3265.43291419087,174.346988312782,34.9999999999991),(3284.56708580913,174.346988312782,34.9999999999991),(3275.,176.25,34.9999999999991),(3157.32233047034,168.927669529663,64.9999999999991),(3192.67766952966,168.927669529663,64.9999999999991),(3257.32233047034,168.927669529663,64.9999999999991),(3292.67766952966,168.927669529663,64.9999999999991),(3165.43291419087,174.346988312782,64.9999999999991),(3184.56708580913,174.346988312782,64.9999999999991),(3175.,176.25,64.9999999999991),(3265.43291419087,174.346988312782,64.9999999999991),(3284.56708580913,174.346988312782,64.9999999999991),(3275.,176.25,64.9999999999991),(2620.,220.,0.),(3350.,220.,0.),(3350.,220.,34.9999999999991),(3280.19038585768,230.349344419146,34.9999999999991),(3350.,220.,64.9999999999991),(3157.32233047034,168.927669529663,125.),(3192.67766952966,168.927669529663,125.),(3257.32233047034,168.927669529663,125.),(3292.67766952966,168.927669529663,125.),(3165.43291419087,174.346988312782,125.),(3184.56708580913,174.346988312782,125.),(3175.,176.25,125.),(3265.43291419087,174.346988312782,125.),(3284.56708580913,174.346988312782,125.),(3275.,176.25,125.),(3350.,220.,120.),(3100.,257.0627475395,34.9999999999991),(3100.,257.0627475395,64.9999999999991),(3142.48045801124,250.764977576968,64.9999999999991),(2655.45,322.967725214238,0.),(0.,220.,220.),(2620.,220.,220.),(2655.45,190.228046215868,322.967725214238),(2655.45,322.967725214238,190.228046215869)));
#685=IFCPOLYGONALFACESET(#684,.T.,(#66,#67,#68,#69,#70,#71,#72,#73,#74,#75,#76,#77,#78,#79,#80,#81,#82,#83,#84,#85,#86,#87,#88,#89,#90,#91,#92,#93,#94,#95,#96,#97,#98,#99,#100,#101,#102,#103,#104,#105,#106,#107,#108,#109,#110,#111,#112,#113,#114,#115,#116,#117,#118,#119,#120,#121,#122,#123,#124,#125,#126,#127,#128,#129,#130,#131,#132,#133,#134,#135,#136,#137,#138,#139,#140,#141,#142,#143,#144,#145,#146,#147,#148,#149,#150,#151,#152,#153,#154,#155,#156,#157,#158,#159,#160,#161,#162,#163,#164,#165,#166,#167,#168,#169,#170,#171,#172,#173,#174,#175,#176,#177,#178,#179,#180,#181,#182,#183,#184,#185,#186,#187,#188,#189,#190,#191,#192,#193,#194,#195,#196,#197,#198,#199,#200,#201,#202,#203,#204,#205,#206,#207,#208,#209,#210,#211,#212,#213,#214,#215,#216,#217,#218,#219,#220,#221,#222,#223,#224,#225,#226,#227,#228,#229,#230,#231,#232,#233,#234,#235,#236,#237,#238,#239,#240,#241,#242,#243,#244,#245,#246,#247,#248,#249,#250,#251,#252,#253,#254,#255,#256,#257,#258,#259,#260,#261,#262,#263,#264,#265,#266,#267,#268,#269,#270,#271,#272,#273,#274,#275,#276,#277,#278,#279,#280,#281,#282,#283,#284,#285,#286,#287,#288,#289,#290,#291,#292,#293,#294,#295,#296,#297,#298,#299,#300,#301,#302,#303,#304,#305,#306,#307,#308,#309,#310,#311,#312,#313,#314,#315,#316,#317,#318,#319,#320,#321,#322,#323,#324,#325,#326,#327,#328,#329,#330,#331,#332,#333,#334,#335,#336,#337,#338,#339,#340,#341,#342,#343,#344,#345,#346,#347,#348,#349,#350,#351,#352,#353,#354,#355,#356,#357,#358,#359,#360,#361,#362,#363,#364,#365,#366,#367,#368,#369,#370,#371,#372,#373,#374,#375,#376,#377,#378,#379,#380,#381,#382,#383,#384,#385,#386,#387,#388,#389,#390,#391,#392,#393,#394,#395,#396,#397,#398,#399,#400,#401,#402,#403,#404,#405,#406,#407,#408,#409,#410,#411,#412,#413,#414,#415,#416,#417,#418,#419,#420,#421,#422,#423,#424,#425,#426,#427,#428,#429,#430,#431,#432,#433,#434,#435,#436,#437,#438,#439,#440,#441,#442,#443,#444,#445,#446,#447,#448,#449,#450,#451,#452,#453,#454,#455,#456,#457,#458,#459,#460,#461,#462,#463,#464,#465,#466,#467,#468,#469,#470,#471,#472,#473,#474,#475,#476,#477,#478,#479,#480,#481,#482,#483,#484,#485,#486,#487,#488,#489,#490,#491,#492,#493,#494,#495,#496,#497,#498,#499,#500,#501,#502,#503,#504,#505,#506,#507,#508,#509,#510,#511,#512,#513,#514,#515,#516,#517,#518,#519,#520,#521,#522,#523,#524,#525,#526,#527,#528,#529,#530,#531,#532,#533,#534,#535,#536,#537,#538,#539,#540,#541,#542,#543,#544,#545,#546,#547,#548,#549,#550,#551,#552,#553,#554,#555,#556,#557,#558,#559,#560,#561,#562,#563,#564,#565,#566,#567,#568,#569,#570,#571,#572,#573,#574,#575,#576,#577,#578,#579,#580,#581,#582,#583,#584,#585,#586,#587,#588,#589,#590,#591,#592,#593,#594,#595,#596,#597,#598,#599,#600,#601,#602,#603,#604,#605,#606,#607,#608,#609,#610,#611,#612,#613,#614,#615,#616,#617,#618,#619,#620,#621,#622,#623,#624,#625,#626,#627,#628,#629,#630,#631,#632,#633,#634,#635,#636,#637,#638,#639,#640,#641,#642,#643,#644,#645,#646,#647,#648,#649,#650,#651,#652,#653,#654,#655,#656,#657,#658,#659,#660,#661,#662,#663,#664,#665,#666,#667,#668,#669,#670,#671,#672,#673,#674,#675,#676,#677,#678,#679,#680,#681,#682,#683),$);
#686=IFCSHAPEREPRESENTATION(#12,'Body','Tessellation',(#685));
#687=IFCPRODUCTDEFINITIONSHAPE($,$,(#686));
#688=IFCBUILDINGELEMENTPROXY('1J7G7ni6DCFxLESiJmszej',$,'column_0_cutter_0',$,$,$,#701,$,$);
#689=IFCRELCONTAINEDINSPATIALSTRUCTURE('3llE_4DKT7wAIp6mz_ERZd',$,$,$,(#688),#22);
#690=IFCINDEXEDPOLYGONALFACE((1,2,6,5));
#691=IFCINDEXEDPOLYGONALFACE((2,3,7,6));
#692=IFCINDEXEDPOLYGONALFACE((3,4,8,7));
#693=IFCINDEXEDPOLYGONALFACE((4,1,5,8));
#694=IFCINDEXEDPOLYGONALFACE((1,4,3));
#695=IFCINDEXEDPOLYGONALFACE((3,2,1));
#696=IFCINDEXEDPOLYGONALFACE((8,5,6));
#697=IFCINDEXEDPOLYGONALFACE((6,7,8));
#698=IFCCARTESIANPOINTLIST3D(((3463.09258250224,304.326857823062,-109.952328002225),(3463.09258250224,304.326857823062,210.047671997776),(2571.19594958073,436.551416772259,290.22804621587),(2571.19594958073,436.551416772259,-100.),(3448.42776193286,205.407986834418,-109.952328002225),(3448.42776193286,205.407986834418,210.047671997776),(2556.53112901136,337.632545783616,290.22804621587),(2556.53112901136,337.632545783616,-100.)));
#699=IFCPOLYGONALFACESET(#698,.T.,(#690,#691,#692,#693,#694,#695,#696,#697),$);
#700=IFCSHAPEREPRESENTATION(#12,'Body','Tessellation',(#699));
#701=IFCPRODUCTDEFINITIONSHAPE($,$,(#700));
#702=IFCBUILDINGELEMENTPROXY('26ASqCxn19rwCbahn8xlah',$,'column_0_cutter_1',$,$,$,#715,$,$);
#703=IFCRELCONTAINEDINSPATIALSTRUCTURE('3Nr3Vh2XTErQiqV89iYXLe',$,$,$,(#702),#22);
#704=IFCINDEXEDPOLYGONALFACE((1,2,6,5));
#705=IFCINDEXEDPOLYGONALFACE((2,3,7,6));
#706=IFCINDEXEDPOLYGONALFACE((3,4,8,7));
#707=IFCINDEXEDPOLYGONALFACE((4,1,5,8));
#708=IFCINDEXEDPOLYGONALFACE((1,4,3));
#709=IFCINDEXEDPOLYGONALFACE((3,2,1));
#710=IFCINDEXEDPOLYGONALFACE((8,5,6));
#711=IFCINDEXEDPOLYGONALFACE((6,7,8));
#712=IFCCARTESIANPOINTLIST3D(((3465.79257969955,350.394774148431,104.333732747766),(3465.79257969955,108.973417911121,345.755088985075),(2574.38705583383,203.7458052948,473.26715536712),(2574.38705583383,477.906840530476,199.106120131442),(3448.42776193286,280.758350116429,34.6973087157639),(3448.42776193286,39.3369938791197,276.118664953072),(2557.02223806714,134.109381262798,403.630731335118),(2557.02223806714,408.270416498474,129.46969609944)));
#713=IFCPOLYGONALFACESET(#712,.T.,(#704,#705,#706,#707,#708,#709,#710,#711),$);
#714=IFCSHAPEREPRESENTATION(#12,'Body','Tessellation',(#713));
#715=IFCPRODUCTDEFINITIONSHAPE($,$,(#714));
#716=IFCBUILDINGELEMENTPROXY('0qwfuU0Tr0HQpugz4lxFQg',$,'column_0_cutter_2',$,$,$,#729,$,$);
#717=IFCRELCONTAINEDINSPATIALSTRUCTURE('2TAKX_GArDShPKQx1oPNBT',$,$,$,(#716),#22);
#718=IFCINDEXEDPOLYGONALFACE((1,2,6,5));
#719=IFCINDEXEDPOLYGONALFACE((2,3,7,6));
#720=IFCINDEXEDPOLYGONALFACE((3,4,8,7));
#721=IFCINDEXEDPOLYGONALFACE((4,1,5,8));
#722=IFCINDEXEDPOLYGONALFACE((1,4,3));
#723=IFCINDEXEDPOLYGONALFACE((3,2,1));
#724=IFCINDEXEDPOLYGONALFACE((8,5,6));
#725=IFCINDEXEDPOLYGONALFACE((6,7,8));
#726=IFCCARTESIANPOINTLIST3D(((3463.58369155802,220.,304.254050419266),(3463.58369155802,-100.,304.254050419266),(2571.68705863652,-90.0476719977746,436.478609368464),(2571.68705863652,300.180374218095,436.478609368464),(3448.91887098864,220.,205.335179430622),(3448.91887098864,-100.,205.335179430622),(2557.02223806714,-90.0476719977746,337.55973837982),(2557.02223806714,300.180374218095,337.55973837982)));
#727=IFCPOLYGONALFACESET(#726,.T.,(#718,#719,#720,#721,#722,#723,#724,#725),$);
#728=IFCSHAPEREPRESENTATION(#12,'Body','Tessellation',(#727));
#729=IFCPRODUCTDEFINITIONSHAPE($,$,(#728));
#730=IFCBUILDINGELEMENTPROXY('0qtAIKrB92vgAogUsIOGiz',$,'column_0_cutter_3',$,$,$,#743,$,$);
#731=IFCRELCONTAINEDINSPATIALSTRUCTURE('1pFrwy1DH6vu56H2HHu1t5',$,$,$,(#730),#22);
#732=IFCINDEXEDPOLYGONALFACE((1,2,6,5));
#733=IFCINDEXEDPOLYGONALFACE((2,3,7,6));
#734=IFCINDEXEDPOLYGONALFACE((3,4,8,7));
#735=IFCINDEXEDPOLYGONALFACE((4,1,5,8));
#736=IFCINDEXEDPOLYGONALFACE((1,4,3));
#737=IFCINDEXEDPOLYGONALFACE((3,2,1));
#738=IFCINDEXEDPOLYGONALFACE((8,5,6));
#739=IFCINDEXEDPOLYGONALFACE((6,7,8));
#740=IFCCARTESIANPOINTLIST3D(((2592.29751630508,446.726856847123,-126.371218034768),(2592.29751630508,446.726856847123,263.856828181101),(2525.44683343049,252.55301355755,320.),(2525.44683343049,252.55301355755,-100.),(2686.85068287459,414.173843289572,-126.371218034768),(2686.85068287459,414.173843289572,263.856828181101),(2620.,220.,320.),(2620.,220.,-100.)));
#741=IFCPOLYGONALFACESET(#740,.T.,(#732,#733,#734,#735,#736,#737,#738,#739),$);
#742=IFCSHAPEREPRESENTATION(#12,'Body','Tessellation',(#741));
#743=IFCPRODUCTDEFINITIONSHAPE($,$,(#742));
#744=IFCBUILDINGELEMENTPROXY('0jLSQhxk94ru4ixzeOM9Kq',$,'column_0_cutter_4',$,$,$,#757,$,$);
#745=IFCRELCONTAINEDINSPATIALSTRUCTURE('0kfjYeg_97MgtkFGhGBTTr',$,$,$,(#744),#22);
#746=IFCINDEXEDPOLYGONALFACE((1,2,6,5));
#747=IFCINDEXEDPOLYGONALFACE((2,3,7,6));
#748=IFCINDEXEDPOLYGONALFACE((3,4,8,7));
#749=IFCINDEXEDPOLYGONALFACE((4,1,5,8));
#750=IFCINDEXEDPOLYGONALFACE((1,4,3));
#751=IFCINDEXEDPOLYGONALFACE((3,2,1));
#752=IFCINDEXEDPOLYGONALFACE((8,5,6));
#753=IFCINDEXEDPOLYGONALFACE((6,7,8));
#754=IFCCARTESIANPOINTLIST3D(((2627.68615310018,472.591390743761,233.543282797406),(2627.68615310018,198.430355508084,507.704318033084),(2537.49688996036,134.247029734699,385.668385972008),(2537.49688996036,385.668385972008,134.247029734698),(2710.18926313981,432.633682890407,193.585574944053),(2710.18926313981,158.472647654731,467.746610179731),(2620.,94.2893218813451,345.710678118655),(2620.,345.710678118655,94.2893218813451)));
#755=IFCPOLYGONALFACESET(#754,.T.,(#746,#747,#748,#749,#750,#751,#752,#753),$);
#756=IFCSHAPEREPRESENTATION(#12,'Body','Tessellation',(#755));
#757=IFCPRODUCTDEFINITIONSHAPE($,$,(#756));
#758=IFCBUILDINGELEMENTPROXY('3XDtk$ap53vAFl89Y8t7En',$,'column_0_cutter_5',$,$,$,#771,$,$);
#759=IFCRELCONTAINEDINSPATIALSTRUCTURE('3ON5SRMRHBTOHHytJTHp4C',$,$,$,(#758),#22);
#760=IFCINDEXEDPOLYGONALFACE((1,2,6,5));
#761=IFCINDEXEDPOLYGONALFACE((2,3,7,6));
#762=IFCINDEXEDPOLYGONALFACE((3,4,8,7));
#763=IFCINDEXEDPOLYGONALFACE((4,1,5,8));
#764=IFCINDEXEDPOLYGONALFACE((1,4,3));
#765=IFCINDEXEDPOLYGONALFACE((3,2,1));
#766=IFCINDEXEDPOLYGONALFACE((8,5,6));
#767=IFCINDEXEDPOLYGONALFACE((6,7,8));
#768=IFCCARTESIANPOINTLIST3D(((2593.44984698804,290.22804621587,450.0739053413),(2593.44984698804,-100.,450.0739053413),(2525.44683343049,-100.,252.55301355755),(2525.44683343049,320.,252.55301355755),(2688.00301355755,290.22804621587,417.52089178375),(2688.00301355755,-100.,417.52089178375),(2620.,-100.,220.),(2620.,320.,220.)));
#769=IFCPOLYGONALFACESET(#768,.T.,(#760,#761,#762,#763,#764,#765,#766,#767),$);
#770=IFCSHAPEREPRESENTATION(#12,'Body','Tessellation',(#769));
#771=IFCPRODUCTDEFINITIONSHAPE($,$,(#770));
#772=IFCBUILDINGELEMENTPROXY('20BV7fOZ1EQRqXY1V8l4se',$,'column_0_cutter_6',$,$,$,#783,$,$);
#773=IFCRELCONTAINEDINSPATIALSTRUCTURE('0w08G80I5DEQH6l7S30KOE',$,$,$,(#772),#22);
#774=IFCINDEXEDPOLYGONALFACE((1,2,3,4));
#775=IFCINDEXEDPOLYGONALFACE((1,4,6,5));
#776=IFCINDEXEDPOLYGONALFACE((4,3,7,6));
#777=IFCINDEXEDPOLYGONALFACE((3,2,8,7));
#778=IFCINDEXEDPOLYGONALFACE((2,1,5,8));
#779=IFCINDEXEDPOLYGONALFACE((5,6,7,8));
#780=IFCCARTESIANPOINTLIST3D(((3100.,0.,34.9999999999991),(3100.,0.,64.9999999999991),(3100.,485.,64.9999999999991),(3100.,485.,34.9999999999991),(3375.,0.,34.9999999999991),(3375.,485.,34.9999999999991),(3375.,485.,64.9999999999991),(3375.,0.,64.9999999999991)));
#781=IFCPOLYGONALFACESET(#780,.T.,(#774,#775,#776,#777,#778,#779),$);
#782=IFCSHAPEREPRESENTATION(#12,'Body','Tessellation',(#781));
#783=IFCPRODUCTDEFINITIONSHAPE($,$,(#782));
#784=IFCBUILDINGELEMENTPROXY('2IYgPemfnAJfO81hB88iy9',$,'column_0_cutter_7',$,$,$,#837,$,$);
#785=IFCRELCONTAINEDINSPATIALSTRUCTURE('1opPiJw_H4CuaPd6eO6dJu',$,$,$,(#784),#22);
#786=IFCINDEXEDPOLYGONALFACE((1,2,4,3));
#787=IFCINDEXEDPOLYGONALFACE((3,4,6,5));
#788=IFCINDEXEDPOLYGONALFACE((5,6,8,7));
#789=IFCINDEXEDPOLYGONALFACE((7,8,10,9));
#790=IFCINDEXEDPOLYGONALFACE((9,10,12,11));
#791=IFCINDEXEDPOLYGONALFACE((11,12,14,13));
#792=IFCINDEXEDPOLYGONALFACE((13,14,16,15));
#793=IFCINDEXEDPOLYGONALFACE((15,16,18,17));
#794=IFCINDEXEDPOLYGONALFACE((17,18,20,19));
#795=IFCINDEXEDPOLYGONALFACE((19,20,22,21));
#796=IFCINDEXEDPOLYGONALFACE((21,22,24,23));
#797=IFCINDEXEDPOLYGONALFACE((23,24,26,25));
#798=IFCINDEXEDPOLYGONALFACE((25,26,28,27));
#799=IFCINDEXEDPOLYGONALFACE((27,28,30,29));
#800=IFCINDEXEDPOLYGONALFACE((29,30,32,31));
#801=IFCINDEXEDPOLYGONALFACE((31,32,2,1));
#802=IFCINDEXEDPOLYGONALFACE((1,3,33));
#803=IFCINDEXEDPOLYGONALFACE((34,4,2));
#804=IFCINDEXEDPOLYGONALFACE((3,5,33));
#805=IFCINDEXEDPOLYGONALFACE((34,6,4));
#806=IFCINDEXEDPOLYGONALFACE((5,7,33));
#807=IFCINDEXEDPOLYGONALFACE((34,8,6));
#808=IFCINDEXEDPOLYGONALFACE((7,9,33));
#809=IFCINDEXEDPOLYGONALFACE((34,10,8));
#810=IFCINDEXEDPOLYGONALFACE((9,11,33));
#811=IFCINDEXEDPOLYGONALFACE((34,12,10));
#812=IFCINDEXEDPOLYGONALFACE((11,13,33));
#813=IFCINDEXEDPOLYGONALFACE((34,14,12));
#814=IFCINDEXEDPOLYGONALFACE((13,15,33));
#815=IFCINDEXEDPOLYGONALFACE((34,16,14));
#816=IFCINDEXEDPOLYGONALFACE((15,17,33));
#817=IFCINDEXEDPOLYGONALFACE((34,18,16));
#818=IFCINDEXEDPOLYGONALFACE((17,19,33));
#819=IFCINDEXEDPOLYGONALFACE((34,20,18));
#820=IFCINDEXEDPOLYGONALFACE((19,21,33));
#821=IFCINDEXEDPOLYGONALFACE((34,22,20));
#822=IFCINDEXEDPOLYGONALFACE((21,23,33));
#823=IFCINDEXEDPOLYGONALFACE((34,24,22));
#824=IFCINDEXEDPOLYGONALFACE((23,25,33));
#825=IFCINDEXEDPOLYGONALFACE((34,26,24));
#826=IFCINDEXEDPOLYGONALFACE((25,27,33));
#827=IFCINDEXEDPOLYGONALFACE((34,28,26));
#828=IFCINDEXEDPOLYGONALFACE((27,29,33));
#829=IFCINDEXEDPOLYGONALFACE((34,30,28));
#830=IFCINDEXEDPOLYGONALFACE((29,31,33));
#831=IFCINDEXEDPOLYGONALFACE((34,32,30));
#832=IFCINDEXEDPOLYGONALFACE((31,1,33));
#833=IFCINDEXEDPOLYGONALFACE((34,2,32));
#834=IFCCARTESIANPOINTLIST3D(((3300.,151.25,125.),(3300.,151.25,-25.0000000000014),(3298.09698831278,160.817085809127,125.),(3298.09698831278,160.817085809127,-25.0000000000014),(3292.67766952966,168.927669529663,125.),(3292.67766952966,168.927669529663,-25.0000000000014),(3284.56708580913,174.346988312782,125.),(3284.56708580913,174.346988312782,-25.0000000000014),(3275.,176.25,125.),(3275.,176.25,-25.0000000000014),(3265.43291419087,174.346988312782,125.),(3265.43291419087,174.346988312782,-25.0000000000014),(3257.32233047034,168.927669529663,125.),(3257.32233047034,168.927669529663,-25.0000000000014),(3251.90301168722,160.817085809127,125.),(3251.90301168722,160.817085809127,-25.0000000000014),(3250.,151.25,125.),(3250.,151.25,-25.0000000000014),(3251.90301168722,141.682914190873,125.),(3251.90301168722,141.682914190873,-25.0000000000014),(3257.32233047034,133.572330470337,125.),(3257.32233047034,133.572330470337,-25.0000000000014),(3265.43291419087,128.153011687218,125.),(3265.43291419087,128.153011687218,-25.0000000000014),(3275.,126.25,125.),(3275.,126.25,-25.0000000000014),(3284.56708580913,128.153011687218,125.),(3284.56708580913,128.153011687218,-25.0000000000014),(3292.67766952966,133.572330470337,125.),(3292.67766952966,133.572330470337,-25.0000000000014),(3298.09698831278,141.682914190873,125.),(3298.09698831278,141.682914190873,-25.0000000000014),(3275.,151.25,125.),(3275.,151.25,-25.0000000000014)));
#835=IFCPOLYGONALFACESET(#834,.T.,(#786,#787,#788,#789,#790,#791,#792,#793,#794,#795,#796,#797,#798,#799,#800,#801,#802,#803,#804,#805,#806,#807,#808,#809,#810,#811,#812,#813,#814,#815,#816,#817,#818,#819,#820,#821,#822,#823,#824,#825,#826,#827,#828,#829,#830,#831,#832,#833),$);
#836=IFCSHAPEREPRESENTATION(#12,'Body','Tessellation',(#835));
#837=IFCPRODUCTDEFINITIONSHAPE($,$,(#836));
#838=IFCBUILDINGELEMENTPROXY('1ZcUSCTfX35PiOxIhPldLs',$,'column_0_cutter_8',$,$,$,#891,$,$);
#839=IFCRELCONTAINEDINSPATIALSTRUCTURE('1CbiS9nFz75AeAg3qxGVVT',$,$,$,(#838),#22);
#840=IFCINDEXEDPOLYGONALFACE((1,2,4,3));
#841=IFCINDEXEDPOLYGONALFACE((3,4,6,5));
#842=IFCINDEXEDPOLYGONALFACE((5,6,8,7));
#843=IFCINDEXEDPOLYGONALFACE((7,8,10,9));
#844=IFCINDEXEDPOLYGONALFACE((9,10,12,11));
#845=IFCINDEXEDPOLYGONALFACE((11,12,14,13));
#846=IFCINDEXEDPOLYGONALFACE((13,14,16,15));
#847=IFCINDEXEDPOLYGONALFACE((15,16,18,17));
#848=IFCINDEXEDPOLYGONALFACE((17,18,20,19));
#849=IFCINDEXEDPOLYGONALFACE((19,20,22,21));
#850=IFCINDEXEDPOLYGONALFACE((21,22,24,23));
#851=IFCINDEXEDPOLYGONALFACE((23,24,26,25));
#852=IFCINDEXEDPOLYGONALFACE((25,26,28,27));
#853=IFCINDEXEDPOLYGONALFACE((27,28,30,29));
#854=IFCINDEXEDPOLYGONALFACE((29,30,32,31));
#855=IFCINDEXEDPOLYGONALFACE((31,32,2,1));
#856=IFCINDEXEDPOLYGONALFACE((1,3,33));
#857=IFCINDEXEDPOLYGONALFACE((34,4,2));
#858=IFCINDEXEDPOLYGONALFACE((3,5,33));
#859=IFCINDEXEDPOLYGONALFACE((34,6,4));
#860=IFCINDEXEDPOLYGONALFACE((5,7,33));
#861=IFCINDEXEDPOLYGONALFACE((34,8,6));
#862=IFCINDEXEDPOLYGONALFACE((7,9,33));
#863=IFCINDEXEDPOLYGONALFACE((34,10,8));
#864=IFCINDEXEDPOLYGONALFACE((9,11,33));
#865=IFCINDEXEDPOLYGONALFACE((34,12,10));
#866=IFCINDEXEDPOLYGONALFACE((11,13,33));
#867=IFCINDEXEDPOLYGONALFACE((34,14,12));
#868=IFCINDEXEDPOLYGONALFACE((13,15,33));
#869=IFCINDEXEDPOLYGONALFACE((34,16,14));
#870=IFCINDEXEDPOLYGONALFACE((15,17,33));
#871=IFCINDEXEDPOLYGONALFACE((34,18,16));
#872=IFCINDEXEDPOLYGONALFACE((17,19,33));
#873=IFCINDEXEDPOLYGONALFACE((34,20,18));
#874=IFCINDEXEDPOLYGONALFACE((19,21,33));
#875=IFCINDEXEDPOLYGONALFACE((34,22,20));
#876=IFCINDEXEDPOLYGONALFACE((21,23,33));
#877=IFCINDEXEDPOLYGONALFACE((34,24,22));
#878=IFCINDEXEDPOLYGONALFACE((23,25,33));
#879=IFCINDEXEDPOLYGONALFACE((34,26,24));
#880=IFCINDEXEDPOLYGONALFACE((25,27,33));
#881=IFCINDEXEDPOLYGONALFACE((34,28,26));
#882=IFCINDEXEDPOLYGONALFACE((27,29,33));
#883=IFCINDEXEDPOLYGONALFACE((34,30,28));
#884=IFCINDEXEDPOLYGONALFACE((29,31,33));
#885=IFCINDEXEDPOLYGONALFACE((34,32,30));
#886=IFCINDEXEDPOLYGONALFACE((31,1,33));
#887=IFCINDEXEDPOLYGONALFACE((34,2,32));
#888=IFCCARTESIANPOINTLIST3D(((3200.,151.25,125.),(3200.,151.25,-25.0000000000014),(3198.09698831278,160.817085809127,125.),(3198.09698831278,160.817085809127,-25.0000000000014),(3192.67766952966,168.927669529663,125.),(3192.67766952966,168.927669529663,-25.0000000000014),(3184.56708580913,174.346988312782,125.),(3184.56708580913,174.346988312782,-25.0000000000014),(3175.,176.25,125.),(3175.,176.25,-25.0000000000014),(3165.43291419087,174.346988312782,125.),(3165.43291419087,174.346988312782,-25.0000000000014),(3157.32233047034,168.927669529663,125.),(3157.32233047034,168.927669529663,-25.0000000000014),(3151.90301168722,160.817085809127,125.),(3151.90301168722,160.817085809127,-25.0000000000014),(3150.,151.25,125.),(3150.,151.25,-25.0000000000014),(3151.90301168722,141.682914190873,125.),(3151.90301168722,141.682914190873,-25.0000000000014),(3157.32233047034,133.572330470337,125.),(3157.32233047034,133.572330470337,-25.0000000000014),(3165.43291419087,128.153011687218,125.),(3165.43291419087,128.153011687218,-25.0000000000014),(3175.,126.25,125.),(3175.,126.25,-25.0000000000014),(3184.56708580913,128.153011687218,125.),(3184.56708580913,128.153011687218,-25.0000000000014),(3192.67766952966,133.572330470337,125.),(3192.67766952966,133.572330470337,-25.0000000000014),(3198.09698831278,141.682914190873,125.),(3198.09698831278,141.682914190873,-25.0000000000014),(3175.,151.25,125.),(3175.,151.25,-25.0000000000014)));
#889=IFCPOLYGONALFACESET(#888,.T.,(#840,#841,#842,#843,#844,#845,#846,#847,#848,#849,#850,#851,#852,#853,#854,#855,#856,#857,#858,#859,#860,#861,#862,#863,#864,#865,#866,#867,#868,#869,#870,#871,#872,#873,#874,#875,#876,#877,#878,#879,#880,#881,#882,#883,#884,#885,#886,#887),$);
#890=IFCSHAPEREPRESENTATION(#12,'Body','Tessellation',(#889));
#891=IFCPRODUCTDEFINITIONSHAPE($,$,(#890));
#892=IFCBUILDINGELEMENTPROXY('2H6HOYLf58_evWrP72Fzun',$,'column_0_cutter_9',$,$,$,#903,$,$);
#893=IFCRELCONTAINEDINSPATIALSTRUCTURE('02Gw8byUrCA8qzg6J3CPzC',$,$,$,(#892),#22);
#894=IFCINDEXEDPOLYGONALFACE((1,2,3,4));
#895=IFCINDEXEDPOLYGONALFACE((1,4,6,5));
#896=IFCINDEXEDPOLYGONALFACE((4,3,7,6));
#897=IFCINDEXEDPOLYGONALFACE((3,2,8,7));
#898=IFCINDEXEDPOLYGONALFACE((2,1,5,8));
#899=IFCINDEXEDPOLYGONALFACE((5,6,7,8));
#900=IFCCARTESIANPOINTLIST3D(((3100.,65.,4.54747350886464E-13),(3100.,35.,4.54747350886464E-13),(3100.,35.,485.),(3100.,65.,485.),(3375.,65.,4.54747350886464E-13),(3375.,65.,485.),(3375.,35.,485.),(3375.,35.,4.54747350886464E-13)));
#901=IFCPOLYGONALFACESET(#900,.T.,(#894,#895,#896,#897,#898,#899),$);
#902=IFCSHAPEREPRESENTATION(#12,'Body','Tessellation',(#901));
#903=IFCPRODUCTDEFINITIONSHAPE($,$,(#902));
#904=IFCBUILDINGELEMENTPROXY('14Xiwy9A54_AJmtZrcq8U_',$,'column_0_cutter_10',$,$,$,#957,$,$);
#905=IFCRELCONTAINEDINSPATIALSTRUCTURE('2Ak4bbTgPBNOydmxcCblJ5',$,$,$,(#904),#22);
#906=IFCINDEXEDPOLYGONALFACE((1,2,4,3));
#907=IFCINDEXEDPOLYGONALFACE((3,4,6,5));
#908=IFCINDEXEDPOLYGONALFACE((5,6,8,7));
#909=IFCINDEXEDPOLYGONALFACE((7,8,10,9));
#910=IFCINDEXEDPOLYGONALFACE((9,10,12,11));
#911=IFCINDEXEDPOLYGONALFACE((11,12,14,13));
#912=IFCINDEXEDPOLYGONALFACE((13,14,16,15));
#913=IFCINDEXEDPOLYGONALFACE((15,16,18,17));
#914=IFCINDEXEDPOLYGONALFACE((17,18,20,19));
#915=IFCINDEXEDPOLYGONALFACE((19,20,22,21));
#916=IFCINDEXEDPOLYGONALFACE((21,22,24,23));
#917=IFCINDEXEDPOLYGONALFACE((23,24,26,25));
#918=IFCINDEXEDPOLYGONALFACE((25,26,28,27));
#919=IFCINDEXEDPOLYGONALFACE((27,28,30,29));
#920=IFCINDEXEDPOLYGONALFACE((29,30,32,31));
#921=IFCINDEXEDPOLYGONALFACE((31,32,2,1));
#922=IFCINDEXEDPOLYGONALFACE((1,3,33));
#923=IFCINDEXEDPOLYGONALFACE((34,4,2));
#924=IFCINDEXEDPOLYGONALFACE((3,5,33));
#925=IFCINDEXEDPOLYGONALFACE((34,6,4));
#926=IFCINDEXEDPOLYGONALFACE((5,7,33));
#927=IFCINDEXEDPOLYGONALFACE((34,8,6));
#928=IFCINDEXEDPOLYGONALFACE((7,9,33));
#929=IFCINDEXEDPOLYGONALFACE((34,10,8));
#930=IFCINDEXEDPOLYGONALFACE((9,11,33));
#931=IFCINDEXEDPOLYGONALFACE((34,12,10));
#932=IFCINDEXEDPOLYGONALFACE((11,13,33));
#933=IFCINDEXEDPOLYGONALFACE((34,14,12));
#934=IFCINDEXEDPOLYGONALFACE((13,15,33));
#935=IFCINDEXEDPOLYGONALFACE((34,16,14));
#936=IFCINDEXEDPOLYGONALFACE((15,17,33));
#937=IFCINDEXEDPOLYGONALFACE((34,18,16));
#938=IFCINDEXEDPOLYGONALFACE((17,19,33));
#939=IFCINDEXEDPOLYGONALFACE((34,20,18));
#940=IFCINDEXEDPOLYGONALFACE((19,21,33));
#941=IFCINDEXEDPOLYGONALFACE((34,22,20));
#942=IFCINDEXEDPOLYGONALFACE((21,23,33));
#943=IFCINDEXEDPOLYGONALFACE((34,24,22));
#944=IFCINDEXEDPOLYGONALFACE((23,25,33));
#945=IFCINDEXEDPOLYGONALFACE((34,26,24));
#946=IFCINDEXEDPOLYGONALFACE((25,27,33));
#947=IFCINDEXEDPOLYGONALFACE((34,28,26));
#948=IFCINDEXEDPOLYGONALFACE((27,29,33));
#949=IFCINDEXEDPOLYGONALFACE((34,30,28));
#950=IFCINDEXEDPOLYGONALFACE((29,31,33));
#951=IFCINDEXEDPOLYGONALFACE((34,32,30));
#952=IFCINDEXEDPOLYGONALFACE((31,1,33));
#953=IFCINDEXEDPOLYGONALFACE((34,2,32));
#954=IFCCARTESIANPOINTLIST3D(((3300.,-25.,151.25),(3300.,125.,151.25),(3298.09698831278,-25.,160.817085809128),(3298.09698831278,125.,160.817085809128),(3292.67766952966,-25.,168.927669529664),(3292.67766952966,125.,168.927669529664),(3284.56708580913,-25.,174.346988312783),(3284.56708580913,125.,174.346988312783),(3275.,-25.,176.25),(3275.,125.,176.25),(3265.43291419087,-25.,174.346988312783),(3265.43291419087,125.,174.346988312783),(3257.32233047034,-25.,168.927669529664),(3257.32233047034,125.,168.927669529664),(3251.90301168722,-25.,160.817085809128),(3251.90301168722,125.,160.817085809128),(3250.,-25.,151.25),(3250.,125.,151.25),(3251.90301168722,-25.,141.682914190873),(3251.90301168722,125.,141.682914190873),(3257.32233047034,-25.,133.572330470337),(3257.32233047034,125.,133.572330470337),(3265.43291419087,-25.,128.153011687218),(3265.43291419087,125.,128.153011687218),(3275.,-25.,126.25),(3275.,125.,126.25),(3284.56708580913,-25.,128.153011687218),(3284.56708580913,125.,128.153011687218),(3292.67766952966,-25.,133.572330470337),(3292.67766952966,125.,133.572330470337),(3298.09698831278,-25.,141.682914190873),(3298.09698831278,125.,141.682914190873),(3275.,-25.,151.25),(3275.,125.,151.25)));
#955=IFCPOLYGONALFACESET(#954,.T.,(#906,#907,#908,#909,#910,#911,#912,#913,#914,#915,#916,#917,#918,#919,#920,#921,#922,#923,#924,#925,#926,#927,#928,#929,#930,#931,#932,#933,#934,#935,#936,#937,#938,#939,#940,#941,#942,#943,#944,#945,#946,#947,#948,#949,#950,#951,#952,#953),$);
#956=IFCSHAPEREPRESENTATION(#12,'Body','Tessellation',(#955));
#957=IFCPRODUCTDEFINITIONSHAPE($,$,(#956));
#958=IFCBUILDINGELEMENTPROXY('3AxZNRYSf1FQJckkCL$CK$',$,'column_0_cutter_11',$,$,$,#1011,$,$);
#959=IFCRELCONTAINEDINSPATIALSTRUCTURE('251y_JrvD9RRQweQu2IYL9',$,$,$,(#958),#22);
#960=IFCINDEXEDPOLYGONALFACE((1,2,4,3));
#961=IFCINDEXEDPOLYGONALFACE((3,4,6,5));
#962=IFCINDEXEDPOLYGONALFACE((5,6,8,7));
#963=IFCINDEXEDPOLYGONALFACE((7,8,10,9));
#964=IFCINDEXEDPOLYGONALFACE((9,10,12,11));
#965=IFCINDEXEDPOLYGONALFACE((11,12,14,13));
#966=IFCINDEXEDPOLYGONALFACE((13,14,16,15));
#967=IFCINDEXEDPOLYGONALFACE((15,16,18,17));
#968=IFCINDEXEDPOLYGONALFACE((17,18,20,19));
#969=IFCINDEXEDPOLYGONALFACE((19,20,22,21));
#970=IFCINDEXEDPOLYGONALFACE((21,22,24,23));
#971=IFCINDEXEDPOLYGONALFACE((23,24,26,25));
#972=IFCINDEXEDPOLYGONALFACE((25,26,28,27));
#973=IFCINDEXEDPOLYGONALFACE((27,28,30,29));
#974=IFCINDEXEDPOLYGONALFACE((29,30,32,31));
#975=IFCINDEXEDPOLYGONALFACE((31,32,2,1));
#976=IFCINDEXEDPOLYGONALFACE((1,3,33));
#977=IFCINDEXEDPOLYGONALFACE((34,4,2));
#978=IFCINDEXEDPOLYGONALFACE((3,5,33));
#979=IFCINDEXEDPOLYGONALFACE((34,6,4));
#980=IFCINDEXEDPOLYGONALFACE((5,7,33));
#981=IFCINDEXEDPOLYGONALFACE((34,8,6));
#982=IFCINDEXEDPOLYGONALFACE((7,9,33));
#983=IFCINDEXEDPOLYGONALFACE((34,10,8));
#984=IFCINDEXEDPOLYGONALFACE((9,11,33));
#985=IFCINDEXEDPOLYGONALFACE((34,12,10));
#986=IFCINDEXEDPOLYGONALFACE((11,13,33));
#987=IFCINDEXEDPOLYGONALFACE((34,14,12));
#988=IFCINDEXEDPOLYGONALFACE((13,15,33));
#989=IFCINDEXEDPOLYGONALFACE((34,16,14));
#990=IFCINDEXEDPOLYGONALFACE((15,17,33));
#991=IFCINDEXEDPOLYGONALFACE((34,18,16));
#992=IFCINDEXEDPOLYGONALFACE((17,19,33));
#993=IFCINDEXEDPOLYGONALFACE((34,20,18));
#994=IFCINDEXEDPOLYGONALFACE((19,21,33));
#995=IFCINDEXEDPOLYGONALFACE((34,22,20));
#996=IFCINDEXEDPOLYGONALFACE((21,23,33));
#997=IFCINDEXEDPOLYGONALFACE((34,24,22));
#998=IFCINDEXEDPOLYGONALFACE((23,25,33));
#999=IFCINDEXEDPOLYGONALFACE((34,26,24));
#1000=IFCINDEXEDPOLYGONALFACE((25,27,33));
#1001=IFCINDEXEDPOLYGONALFACE((34,28,26));
#1002=IFCINDEXEDPOLYGONALFACE((27,29,33));
#1003=IFCINDEXEDPOLYGONALFACE((34,30,28));
#1004=IFCINDEXEDPOLYGONALFACE((29,31,33));
#1005=IFCINDEXEDPOLYGONALFACE((34,32,30));
#1006=IFCINDEXEDPOLYGONALFACE((31,1,33));
#1007=IFCINDEXEDPOLYGONALFACE((34,2,32));
#1008=IFCCARTESIANPOINTLIST3D(((3200.,-25.,151.25),(3200.,125.,151.25),(3198.09698831278,-25.,160.817085809128),(3198.09698831278,125.,160.817085809128),(3192.67766952966,-25.,168.927669529664),(3192.67766952966,125.,168.927669529664),(3184.56708580913,-25.,174.346988312783),(3184.56708580913,125.,174.346988312783),(3175.,-25.,176.25),(3175.,125.,176.25),(3165.43291419087,-25.,174.346988312783),(3165.43291419087,125.,174.346988312783),(3157.32233047034,-25.,168.927669529664),(3157.32233047034,125.,168.927669529664),(3151.90301168722,-25.,160.817085809128),(3151.90301168722,125.,160.817085809128),(3150.,-25.,151.25),(3150.,125.,151.25),(3151.90301168722,-25.,141.682914190873),(3151.90301168722,125.,141.682914190873),(3157.32233047034,-25.,133.572330470337),(3157.32233047034,125.,133.572330470337),(3165.43291419087,-25.,128.153011687218),(3165.43291419087,125.,128.153011687218),(3175.,-25.,126.25),(3175.,125.,126.25),(3184.56708580913,-25.,128.153011687218),(3184.56708580913,125.,128.153011687218),(3192.67766952966,-25.,133.572330470337),(3192.67766952966,125.,133.572330470337),(3198.09698831278,-25.,141.682914190873),(3198.09698831278,125.,141.682914190873),(3175.,-25.,151.25),(3175.,125.,151.25)));
#1009=IFCPOLYGONALFACESET(#1008,.T.,(#960,#961,#962,#963,#964,#965,#966,#967,#968,#969,#970,#971,#972,#973,#974,#975,#976,#977,#978,#979,#980,#981,#982,#983,#984,#985,#986,#987,#988,#989,#990,#991,#992,#993,#994,#995,#996,#997,#998,#999,#1000,#1001,#1002,#1003,#1004,#1005,#1006,#1007),$);
#1010=IFCSHAPEREPRESENTATION(#12,'Body','Tessellation',(#1009));
#1011=IFCPRODUCTDEFINITIONSHAPE($,$,(#1010));
ENDSEC;
END-ISO-10303-21;
