# OBJ
# COMPAS
# version: 2.15.1
# precision: 3
# V F E: 86 105 179

o connector_wedge_0
v 849.377 -104.265 31.756
v 849.377 104.265 0.000
v 849.377 104.265 63.512
v -849.377 -104.265 31.756
v -849.377 104.265 0.000
v -849.377 104.265 63.512
f 1 2 3
f 6 5 4
f 2 1 4 5
f 3 2 5 6
f 1 3 6 4
o connector_wedge_0_dowel_0
v 669.502 -7.265 -48.244
v 672.431 -14.336 -48.244
v 679.502 -17.265 -48.244
v 686.573 -14.336 -48.244
v 689.502 -7.265 -48.244
v 686.573 -0.194 -48.244
v 679.502 2.735 -48.244
v 672.431 -0.194 -48.244
v 669.502 -7.265 111.756
v 672.431 -14.336 111.756
v 679.502 -17.265 111.756
v 686.573 -14.336 111.756
v 689.502 -7.265 111.756
v 686.573 -0.194 111.756
v 679.502 2.735 111.756
v 672.431 -0.194 111.756
f 7 8 16 15
f 8 9 17 16
f 9 10 18 17
f 10 11 19 18
f 11 12 20 19
f 12 13 21 20
f 13 14 22 21
f 14 7 15 22
f 7 14 13
f 13 12 11
f 11 10 9
f 9 8 7
f 7 13 11
f 11 9 7
f 22 15 16
f 16 17 18
f 18 19 20
f 20 21 22
f 22 16 18
f 18 20 22
o connector_wedge_0_dowel_1
v 329.751 -7.265 -48.244
v 332.680 -14.336 -48.244
v 339.751 -17.265 -48.244
v 346.822 -14.336 -48.244
v 349.751 -7.265 -48.244
v 346.822 -0.194 -48.244
v 339.751 2.735 -48.244
v 332.680 -0.194 -48.244
v 329.751 -7.265 111.756
v 332.680 -14.336 111.756
v 339.751 -17.265 111.756
v 346.822 -14.336 111.756
v 349.751 -7.265 111.756
v 346.822 -0.194 111.756
v 339.751 2.735 111.756
v 332.680 -0.194 111.756
f 23 24 32 31
f 24 25 33 32
f 25 26 34 33
f 26 27 35 34
f 27 28 36 35
f 28 29 37 36
f 29 30 38 37
f 30 23 31 38
f 23 30 29
f 29 28 27
f 27 26 25
f 25 24 23
f 23 29 27
f 27 25 23
f 38 31 32
f 32 33 34
f 34 35 36
f 36 37 38
f 38 32 34
f 34 36 38
o connector_wedge_0_dowel_2
v -10.000 -7.265 -48.244
v -7.071 -14.336 -48.244
v -0.000 -17.265 -48.244
v 7.071 -14.336 -48.244
v 10.000 -7.265 -48.244
v 7.071 -0.194 -48.244
v -0.000 2.735 -48.244
v -7.071 -0.194 -48.244
v -10.000 -7.265 111.756
v -7.071 -14.336 111.756
v 0.000 -17.265 111.756
v 7.071 -14.336 111.756
v 10.000 -7.265 111.756
v 7.071 -0.194 111.756
v 0.000 2.735 111.756
v -7.071 -0.194 111.756
f 39 40 48 47
f 40 41 49 48
f 41 42 50 49
f 42 43 51 50
f 43 44 52 51
f 44 45 53 52
f 45 46 54 53
f 46 39 47 54
f 39 46 45
f 45 44 43
f 43 42 41
f 41 40 39
f 39 45 43
f 43 41 39
f 54 47 48
f 48 49 50
f 50 51 52
f 52 53 54
f 54 48 50
f 50 52 54
o connector_wedge_0_dowel_3
v -349.751 -7.265 -48.244
v -346.822 -14.336 -48.244
v -339.751 -17.265 -48.244
v -332.680 -14.336 -48.244
v -329.751 -7.265 -48.244
v -332.680 -0.194 -48.244
v -339.751 2.735 -48.244
v -346.822 -0.194 -48.244
v -349.751 -7.265 111.756
v -346.822 -14.336 111.756
v -339.751 -17.265 111.756
v -332.680 -14.336 111.756
v -329.751 -7.265 111.756
v -332.680 -0.194 111.756
v -339.751 2.735 111.756
v -346.822 -0.194 111.756
f 55 56 64 63
f 56 57 65 64
f 57 58 66 65
f 58 59 67 66
f 59 60 68 67
f 60 61 69 68
f 61 62 70 69
f 62 55 63 70
f 55 62 61
f 61 60 59
f 59 58 57
f 57 56 55
f 55 61 59
f 59 57 55
f 70 63 64
f 64 65 66
f 66 67 68
f 68 69 70
f 70 64 66
f 66 68 70
o connector_wedge_0_dowel_4
v -689.502 -7.265 -48.244
v -686.573 -14.336 -48.244
v -679.502 -17.265 -48.244
v -672.431 -14.336 -48.244
v -669.502 -7.265 -48.244
v -672.431 -0.194 -48.244
v -679.502 2.735 -48.244
v -686.573 -0.194 -48.244
v -689.502 -7.265 111.756
v -686.573 -14.336 111.756
v -679.502 -17.265 111.756
v -672.431 -14.336 111.756
v -669.502 -7.265 111.756
v -672.431 -0.194 111.756
v -679.502 2.735 111.756
v -686.573 -0.194 111.756
f 71 72 80 79
f 72 73 81 80
f 73 74 82 81
f 74 75 83 82
f 75 76 84 83
f 76 77 85 84
f 77 78 86 85
f 78 71 79 86
f 71 78 77
f 77 76 75
f 75 74 73
f 73 72 71
f 71 77 75
f 75 73 71
f 86 79 80
f 80 81 82
f 82 83 84
f 84 85 86
f 86 80 82
f 82 84 86
