ISO-10303-21;
HEADER;
FILE_DESCRIPTION(('ViewDefinition [CoordinationView]'),'2;1');
FILE_NAME('','2026-08-25T22:33:22',(''),(''),'IfcOpenShell 0.8.4-e8eb5e4','IfcOpenShell 0.8.4-e8eb5e4','');
FILE_SCHEMA(('IFC4'));
ENDSEC;
DATA;
#1=IFCPROJECT('37m2eFAL133BUEoPmOr58k',$,'Default Project',$,$,$,$,(#11),#6);
#2=IFCSIUNIT(*,.LENGTHUNIT.,.MILLI.,.METRE.);
#3=IFCSIUNIT(*,.AREAUNIT.,.MILLI.,.SQUARE_METRE.);
#4=IFCSIUNIT(*,.VOLUMEUNIT.,.MILLI.,.CUBIC_METRE.);
#5=IFCSIUNIT(*,.PLANEANGLEUNIT.,$,.RADIAN.);
#6=IFCUNITASSIGNMENT((#2,#3,#4,#5));
#7=IFCCARTESIANPOINT((0.,0.,0.));
#8=IFCDIRECTION((0.,0.,1.));
#9=IFCDIRECTION((1.,0.,0.));
#10=IFCAXIS2PLACEMENT3D(#7,#8,#9);
#11=IFCGEOMETRICREPRESENTATIONCONTEXT($,'Model',3,1.E-05,#10,$);
#12=IFCGEOMETRICREPRESENTATIONSUBCONTEXT('Body','Model',*,*,*,*,#11,$,.MODEL_VIEW.,$);
#13=IFCPERSON($,'Unknown Author',$,$,$,$,$,$);
#14=IFCORGANIZATION($,'compas.dev',$,$,$);
#15=IFCPERSONANDORGANIZATION(#13,#14,$);
#16=IFCAPPLICATION(#14,'2.1.0','compas_ifc','compas_ifc v2.1.0');
#17=IFCOWNERHISTORY(#15,#16,$,$,$,$,$,1787690002);
#18=IFCSITE('1B9EkoLqrDBfCx7m9nOQAb',$,'Default Site',$,$,$,$,$,$,$,$,$,$,$);
#19=IFCRELAGGREGATES('338ondzX9E3g$rWg06fBFu',$,$,$,#1,(#18));
#20=IFCBUILDING('3OBOT3Lbr5F8xEY$P4kIVw',$,'Default Building 1',$,$,$,$,$,$,$,$,$);
#21=IFCRELAGGREGATES('0ltt8gDtDAuwewQHJt65TV',$,$,$,#18,(#20));
#22=IFCBUILDINGSTOREY('2CDbUIHkfDEPIQ6Jv7tIwE',$,'Default Storey 1',$,$,$,$,$,$,$);
#23=IFCRELAGGREGATES('063PgKCnj0Pg4o5hOOVjqs',$,$,$,#20,(#22));
#24=IFCBUILDINGELEMENTPROXY('3UTEwQ6Ub7OBFO9x0JMiOT',$,'connector_wedge_0',$,$,$,#34,$,$);
#25=IFCRELCONTAINEDINSPATIALSTRUCTURE('0KPa33e0n80vNGBBV4Xl8d',$,$,$,(#24),#22);
#26=IFCINDEXEDPOLYGONALFACE((1,2,3));
#27=IFCINDEXEDPOLYGONALFACE((6,5,4));
#28=IFCINDEXEDPOLYGONALFACE((2,1,4,5));
#29=IFCINDEXEDPOLYGONALFACE((3,2,5,6));
#30=IFCINDEXEDPOLYGONALFACE((1,3,6,4));
#31=IFCCARTESIANPOINTLIST3D(((849.377204758545,-104.265303,31.75593),(849.377204758545,104.265303,5.71349048476931E-15),(849.377204758545,104.265303,63.51186),(-849.377204758545,-104.265303,31.75593),(-849.377204758545,104.265303,2.16077680596882E-15),(-849.377204758545,104.265303,63.51186)));
#32=IFCPOLYGONALFACESET(#31,.T.,(#26,#27,#28,#29,#30),$);
#33=IFCSHAPEREPRESENTATION(#12,'Body','Tessellation',(#32));
#34=IFCPRODUCTDEFINITIONSHAPE($,$,(#33));
#35=IFCBUILDINGELEMENTPROXY('0AL8l8S4HAixvcN8O3Y6bi',$,'connector_wedge_0_dowel_0',$,$,$,#60,$,$);
#36=IFCRELCONTAINEDINSPATIALSTRUCTURE('08ckoIiMHEwRTds_TxcOlX',$,$,$,(#35),#22);
#37=IFCINDEXEDPOLYGONALFACE((1,2,10,9));
#38=IFCINDEXEDPOLYGONALFACE((2,3,11,10));
#39=IFCINDEXEDPOLYGONALFACE((3,4,12,11));
#40=IFCINDEXEDPOLYGONALFACE((4,5,13,12));
#41=IFCINDEXEDPOLYGONALFACE((5,6,14,13));
#42=IFCINDEXEDPOLYGONALFACE((6,7,15,14));
#43=IFCINDEXEDPOLYGONALFACE((7,8,16,15));
#44=IFCINDEXEDPOLYGONALFACE((8,1,9,16));
#45=IFCINDEXEDPOLYGONALFACE((1,8,7));
#46=IFCINDEXEDPOLYGONALFACE((7,6,5));
#47=IFCINDEXEDPOLYGONALFACE((5,4,3));
#48=IFCINDEXEDPOLYGONALFACE((3,2,1));
#49=IFCINDEXEDPOLYGONALFACE((1,7,5));
#50=IFCINDEXEDPOLYGONALFACE((5,3,1));
#51=IFCINDEXEDPOLYGONALFACE((16,9,10));
#52=IFCINDEXEDPOLYGONALFACE((10,11,12));
#53=IFCINDEXEDPOLYGONALFACE((12,13,14));
#54=IFCINDEXEDPOLYGONALFACE((14,15,16));
#55=IFCINDEXEDPOLYGONALFACE((16,10,12));
#56=IFCINDEXEDPOLYGONALFACE((12,14,16));
#57=IFCCARTESIANPOINTLIST3D(((669.501763806836,-7.26530299999967,-48.24407),(672.430695994971,-14.336370811865,-48.24407),(679.501763806836,-17.2653029999997,-48.24407),(686.572831618701,-14.336370811865,-48.24407),(689.501763806836,-7.26530299999967,-48.24407),(686.572831618701,-0.194235188134368,-48.24407),(679.501763806836,2.73469700000033,-48.24407),(672.430695994971,-0.194235188134368,-48.24407),(669.501763806836,-7.26530299999968,111.75593),(672.430695994971,-14.336370811865,111.75593),(679.501763806836,-17.2653029999997,111.75593),(686.572831618701,-14.336370811865,111.75593),(689.501763806836,-7.26530299999968,111.75593),(686.572831618701,-0.194235188134374,111.75593),(679.501763806836,2.73469700000032,111.75593),(672.430695994971,-0.194235188134374,111.75593)));
#58=IFCPOLYGONALFACESET(#57,.T.,(#37,#38,#39,#40,#41,#42,#43,#44,#45,#46,#47,#48,#49,#50,#51,#52,#53,#54,#55,#56),$);
#59=IFCSHAPEREPRESENTATION(#12,'Body','Tessellation',(#58));
#60=IFCPRODUCTDEFINITIONSHAPE($,$,(#59));
#61=IFCBUILDINGELEMENTPROXY('29njC_n999YvujGJvZseeS',$,'connector_wedge_0_dowel_1',$,$,$,#86,$,$);
#62=IFCRELCONTAINEDINSPATIALSTRUCTURE('0y3doAgcj2Jvn5xDgLNIvP',$,$,$,(#61),#22);
#63=IFCINDEXEDPOLYGONALFACE((1,2,10,9));
#64=IFCINDEXEDPOLYGONALFACE((2,3,11,10));
#65=IFCINDEXEDPOLYGONALFACE((3,4,12,11));
#66=IFCINDEXEDPOLYGONALFACE((4,5,13,12));
#67=IFCINDEXEDPOLYGONALFACE((5,6,14,13));
#68=IFCINDEXEDPOLYGONALFACE((6,7,15,14));
#69=IFCINDEXEDPOLYGONALFACE((7,8,16,15));
#70=IFCINDEXEDPOLYGONALFACE((8,1,9,16));
#71=IFCINDEXEDPOLYGONALFACE((1,8,7));
#72=IFCINDEXEDPOLYGONALFACE((7,6,5));
#73=IFCINDEXEDPOLYGONALFACE((5,4,3));
#74=IFCINDEXEDPOLYGONALFACE((3,2,1));
#75=IFCINDEXEDPOLYGONALFACE((1,7,5));
#76=IFCINDEXEDPOLYGONALFACE((5,3,1));
#77=IFCINDEXEDPOLYGONALFACE((16,9,10));
#78=IFCINDEXEDPOLYGONALFACE((10,11,12));
#79=IFCINDEXEDPOLYGONALFACE((12,13,14));
#80=IFCINDEXEDPOLYGONALFACE((14,15,16));
#81=IFCINDEXEDPOLYGONALFACE((16,10,12));
#82=IFCINDEXEDPOLYGONALFACE((12,14,16));
#83=IFCCARTESIANPOINTLIST3D(((329.750881903418,-7.26530299999967,-48.24407),(332.679814091553,-14.336370811865,-48.24407),(339.750881903418,-17.2653029999997,-48.24407),(346.821949715283,-14.336370811865,-48.24407),(349.750881903418,-7.26530299999967,-48.24407),(346.821949715283,-0.194235188134368,-48.24407),(339.750881903418,2.73469700000033,-48.24407),(332.679814091553,-0.194235188134368,-48.24407),(329.750881903418,-7.26530299999968,111.75593),(332.679814091553,-14.336370811865,111.75593),(339.750881903418,-17.2653029999997,111.75593),(346.821949715283,-14.336370811865,111.75593),(349.750881903418,-7.26530299999968,111.75593),(346.821949715283,-0.194235188134374,111.75593),(339.750881903418,2.73469700000032,111.75593),(332.679814091553,-0.194235188134374,111.75593)));
#84=IFCPOLYGONALFACESET(#83,.T.,(#63,#64,#65,#66,#67,#68,#69,#70,#71,#72,#73,#74,#75,#76,#77,#78,#79,#80,#81,#82),$);
#85=IFCSHAPEREPRESENTATION(#12,'Body','Tessellation',(#84));
#86=IFCPRODUCTDEFINITIONSHAPE($,$,(#85));
#87=IFCBUILDINGELEMENTPROXY('3x90RxTD5D2OCTYX_gu1GF',$,'connector_wedge_0_dowel_2',$,$,$,#112,$,$);
#88=IFCRELCONTAINEDINSPATIALSTRUCTURE('15OowNcXD7ZgIaxZF0bt6h',$,$,$,(#87),#22);
#89=IFCINDEXEDPOLYGONALFACE((1,2,10,9));
#90=IFCINDEXEDPOLYGONALFACE((2,3,11,10));
#91=IFCINDEXEDPOLYGONALFACE((3,4,12,11));
#92=IFCINDEXEDPOLYGONALFACE((4,5,13,12));
#93=IFCINDEXEDPOLYGONALFACE((5,6,14,13));
#94=IFCINDEXEDPOLYGONALFACE((6,7,15,14));
#95=IFCINDEXEDPOLYGONALFACE((7,8,16,15));
#96=IFCINDEXEDPOLYGONALFACE((8,1,9,16));
#97=IFCINDEXEDPOLYGONALFACE((1,8,7));
#98=IFCINDEXEDPOLYGONALFACE((7,6,5));
#99=IFCINDEXEDPOLYGONALFACE((5,4,3));
#100=IFCINDEXEDPOLYGONALFACE((3,2,1));
#101=IFCINDEXEDPOLYGONALFACE((1,7,5));
#102=IFCINDEXEDPOLYGONALFACE((5,3,1));
#103=IFCINDEXEDPOLYGONALFACE((16,9,10));
#104=IFCINDEXEDPOLYGONALFACE((10,11,12));
#105=IFCINDEXEDPOLYGONALFACE((12,13,14));
#106=IFCINDEXEDPOLYGONALFACE((14,15,16));
#107=IFCINDEXEDPOLYGONALFACE((16,10,12));
#108=IFCINDEXEDPOLYGONALFACE((12,14,16));
#109=IFCCARTESIANPOINTLIST3D(((-10.,-7.26530299999967,-48.24407),(-7.07106781186554,-14.336370811865,-48.24407),(-2.34232758894659E-15,-17.2653029999997,-48.24407),(7.07106781186553,-14.336370811865,-48.24407),(10.,-7.26530299999967,-48.24407),(7.07106781186553,-0.194235188134368,-48.24407),(-2.34232758894659E-15,2.73469700000033,-48.24407),(-7.07106781186554,-0.194235188134368,-48.24407),(-10.,-7.26530299999968,111.75593),(-7.07106781186553,-14.336370811865,111.75593),(2.3423275889466E-15,-17.2653029999997,111.75593),(7.07106781186554,-14.336370811865,111.75593),(10.,-7.26530299999968,111.75593),(7.07106781186554,-0.194235188134374,111.75593),(2.3423275889466E-15,2.73469700000032,111.75593),(-7.07106781186553,-0.194235188134374,111.75593)));
#110=IFCPOLYGONALFACESET(#109,.T.,(#89,#90,#91,#92,#93,#94,#95,#96,#97,#98,#99,#100,#101,#102,#103,#104,#105,#106,#107,#108),$);
#111=IFCSHAPEREPRESENTATION(#12,'Body','Tessellation',(#110));
#112=IFCPRODUCTDEFINITIONSHAPE($,$,(#111));
#113=IFCBUILDINGELEMENTPROXY('3JX2IBgdzBoBdelSV40AAI',$,'connector_wedge_0_dowel_3',$,$,$,#138,$,$);
#114=IFCRELCONTAINEDINSPATIALSTRUCTURE('0G1tTCOVXDAewwifry9djU',$,$,$,(#113),#22);
#115=IFCINDEXEDPOLYGONALFACE((1,2,10,9));
#116=IFCINDEXEDPOLYGONALFACE((2,3,11,10));
#117=IFCINDEXEDPOLYGONALFACE((3,4,12,11));
#118=IFCINDEXEDPOLYGONALFACE((4,5,13,12));
#119=IFCINDEXEDPOLYGONALFACE((5,6,14,13));
#120=IFCINDEXEDPOLYGONALFACE((6,7,15,14));
#121=IFCINDEXEDPOLYGONALFACE((7,8,16,15));
#122=IFCINDEXEDPOLYGONALFACE((8,1,9,16));
#123=IFCINDEXEDPOLYGONALFACE((1,8,7));
#124=IFCINDEXEDPOLYGONALFACE((7,6,5));
#125=IFCINDEXEDPOLYGONALFACE((5,4,3));
#126=IFCINDEXEDPOLYGONALFACE((3,2,1));
#127=IFCINDEXEDPOLYGONALFACE((1,7,5));
#128=IFCINDEXEDPOLYGONALFACE((5,3,1));
#129=IFCINDEXEDPOLYGONALFACE((16,9,10));
#130=IFCINDEXEDPOLYGONALFACE((10,11,12));
#131=IFCINDEXEDPOLYGONALFACE((12,13,14));
#132=IFCINDEXEDPOLYGONALFACE((14,15,16));
#133=IFCINDEXEDPOLYGONALFACE((16,10,12));
#134=IFCINDEXEDPOLYGONALFACE((12,14,16));
#135=IFCCARTESIANPOINTLIST3D(((-349.750881903418,-7.26530299999967,-48.24407),(-346.821949715284,-14.336370811865,-48.24407),(-339.750881903418,-17.2653029999997,-48.24407),(-332.679814091553,-14.336370811865,-48.24407),(-329.750881903418,-7.26530299999967,-48.24407),(-332.679814091553,-0.194235188134368,-48.24407),(-339.750881903418,2.73469700000033,-48.24407),(-346.821949715284,-0.194235188134368,-48.24407),(-349.750881903418,-7.26530299999968,111.75593),(-346.821949715284,-14.336370811865,111.75593),(-339.750881903418,-17.2653029999997,111.75593),(-332.679814091553,-14.336370811865,111.75593),(-329.750881903418,-7.26530299999968,111.75593),(-332.679814091553,-0.194235188134374,111.75593),(-339.750881903418,2.73469700000032,111.75593),(-346.821949715284,-0.194235188134374,111.75593)));
#136=IFCPOLYGONALFACESET(#135,.T.,(#115,#116,#117,#118,#119,#120,#121,#122,#123,#124,#125,#126,#127,#128,#129,#130,#131,#132,#133,#134),$);
#137=IFCSHAPEREPRESENTATION(#12,'Body','Tessellation',(#136));
#138=IFCPRODUCTDEFINITIONSHAPE($,$,(#137));
#139=IFCBUILDINGELEMENTPROXY('2TlF6Wa3j8ygSk57zRvrKM',$,'connector_wedge_0_dowel_4',$,$,$,#164,$,$);
#140=IFCRELCONTAINEDINSPATIALSTRUCTURE('1yp6vI93bD0AniLzHlM_ka',$,$,$,(#139),#22);
#141=IFCINDEXEDPOLYGONALFACE((1,2,10,9));
#142=IFCINDEXEDPOLYGONALFACE((2,3,11,10));
#143=IFCINDEXEDPOLYGONALFACE((3,4,12,11));
#144=IFCINDEXEDPOLYGONALFACE((4,5,13,12));
#145=IFCINDEXEDPOLYGONALFACE((5,6,14,13));
#146=IFCINDEXEDPOLYGONALFACE((6,7,15,14));
#147=IFCINDEXEDPOLYGONALFACE((7,8,16,15));
#148=IFCINDEXEDPOLYGONALFACE((8,1,9,16));
#149=IFCINDEXEDPOLYGONALFACE((1,8,7));
#150=IFCINDEXEDPOLYGONALFACE((7,6,5));
#151=IFCINDEXEDPOLYGONALFACE((5,4,3));
#152=IFCINDEXEDPOLYGONALFACE((3,2,1));
#153=IFCINDEXEDPOLYGONALFACE((1,7,5));
#154=IFCINDEXEDPOLYGONALFACE((5,3,1));
#155=IFCINDEXEDPOLYGONALFACE((16,9,10));
#156=IFCINDEXEDPOLYGONALFACE((10,11,12));
#157=IFCINDEXEDPOLYGONALFACE((12,13,14));
#158=IFCINDEXEDPOLYGONALFACE((14,15,16));
#159=IFCINDEXEDPOLYGONALFACE((16,10,12));
#160=IFCINDEXEDPOLYGONALFACE((12,14,16));
#161=IFCCARTESIANPOINTLIST3D(((-689.501763806836,-7.26530299999967,-48.24407),(-686.572831618701,-14.336370811865,-48.24407),(-679.501763806836,-17.2653029999997,-48.24407),(-672.43069599497,-14.336370811865,-48.24407),(-669.501763806836,-7.26530299999967,-48.24407),(-672.43069599497,-0.194235188134368,-48.24407),(-679.501763806836,2.73469700000033,-48.24407),(-686.572831618701,-0.194235188134368,-48.24407),(-689.501763806836,-7.26530299999968,111.75593),(-686.572831618701,-14.336370811865,111.75593),(-679.501763806836,-17.2653029999997,111.75593),(-672.43069599497,-14.336370811865,111.75593),(-669.501763806836,-7.26530299999968,111.75593),(-672.43069599497,-0.194235188134374,111.75593),(-679.501763806836,2.73469700000032,111.75593),(-686.572831618701,-0.194235188134374,111.75593)));
#162=IFCPOLYGONALFACESET(#161,.T.,(#141,#142,#143,#144,#145,#146,#147,#148,#149,#150,#151,#152,#153,#154,#155,#156,#157,#158,#159,#160),$);
#163=IFCSHAPEREPRESENTATION(#12,'Body','Tessellation',(#162));
#164=IFCPRODUCTDEFINITIONSHAPE($,$,(#163));
ENDSEC;
END-ISO-10303-21;
