ISO-10303-21;
HEADER;
FILE_DESCRIPTION(('ViewDefinition [CoordinationView]'),'2;1');
FILE_NAME('','2026-08-25T22:33:22',(''),(''),'IfcOpenShell 0.8.4-e8eb5e4','IfcOpenShell 0.8.4-e8eb5e4','');
FILE_SCHEMA(('IFC4'));
ENDSEC;
DATA;
#1=IFCPROJECT('2YGdpKRaD97gyZvhCNcxhm',$,'Default Project',$,$,$,$,(#11),#6);
#2=IFCSIUNIT(*,.LENGTHUNIT.,.MILLI.,.METRE.);
#3=IFCSIUNIT(*,.AREAUNIT.,.MILLI.,.SQUARE_METRE.);
#4=IFCSIUNIT(*,.VOLUMEUNIT.,.MILLI.,.CUBIC_METRE.);
#5=IFCSIUNIT(*,.PLANEANGLEUNIT.,$,.RADIAN.);
#6=IFCUNITASSIGNMENT((#2,#3,#4,#5));
#7=IFCCARTESIANPOINT((0.,0.,0.));
#8=IFCDIRECTION((0.,0.,1.));
#9=IFCDIRECTION((1.,0.,0.));
#10=IFCAXIS2PLACEMENT3D(#7,#8,#9);
#11=IFCGEOMETRICREPRESENTATIONCONTEXT($,'Model',3,1.E-05,#10,$);
#12=IFCGEOMETRICREPRESENTATIONSUBCONTEXT('Body','Model',*,*,*,*,#11,$,.MODEL_VIEW.,$);
#13=IFCPERSON($,'Unknown Author',$,$,$,$,$,$);
#14=IFCORGANIZATION($,'compas.dev',$,$,$);
#15=IFCPERSONANDORGANIZATION(#13,#14,$);
#16=IFCAPPLICATION(#14,'2.1.0','compas_ifc','compas_ifc v2.1.0');
#17=IFCOWNERHISTORY(#15,#16,$,$,$,$,$,1787690002);
#18=IFCSITE('307AdbRF57mB4_qwaBEMUb',$,'Default Site',$,$,$,$,$,$,$,$,$,$,$);
#19=IFCRELAGGREGATES('1Z8i_241LBZPfwHFnzH7ar',$,$,$,#1,(#18));
#20=IFCBUILDING('0Beuv19fb28QPkpof4jgaJ',$,'Default Building 1',$,$,$,$,$,$,$,$,$);
#21=IFCRELAGGREGATES('1lC_vN$PL4eOTFTvar523u',$,$,$,#18,(#20));
#22=IFCBUILDINGSTOREY('36J5ga3M54Oe76A4iZyr$Q',$,'Default Storey 1',$,$,$,$,$,$,$);
#23=IFCRELAGGREGATES('2GFCbvjpb5QPoFxU4W6P8t',$,$,$,#20,(#22));
#24=IFCBUILDINGELEMENTPROXY('0EB3UScQLBrvB4nQAVhcZE',$,'dowel_0',$,$,$,#77,$,$);
#25=IFCRELCONTAINEDINSPATIALSTRUCTURE('3JtEIMdhfB4RJOyW$Jy7W8',$,$,$,(#24),#22);
#26=IFCINDEXEDPOLYGONALFACE((1,2,4,3));
#27=IFCINDEXEDPOLYGONALFACE((3,4,6,5));
#28=IFCINDEXEDPOLYGONALFACE((5,6,8,7));
#29=IFCINDEXEDPOLYGONALFACE((7,8,10,9));
#30=IFCINDEXEDPOLYGONALFACE((9,10,12,11));
#31=IFCINDEXEDPOLYGONALFACE((11,12,14,13));
#32=IFCINDEXEDPOLYGONALFACE((13,14,16,15));
#33=IFCINDEXEDPOLYGONALFACE((15,16,18,17));
#34=IFCINDEXEDPOLYGONALFACE((17,18,20,19));
#35=IFCINDEXEDPOLYGONALFACE((19,20,22,21));
#36=IFCINDEXEDPOLYGONALFACE((21,22,24,23));
#37=IFCINDEXEDPOLYGONALFACE((23,24,26,25));
#38=IFCINDEXEDPOLYGONALFACE((25,26,28,27));
#39=IFCINDEXEDPOLYGONALFACE((27,28,30,29));
#40=IFCINDEXEDPOLYGONALFACE((29,30,32,31));
#41=IFCINDEXEDPOLYGONALFACE((31,32,2,1));
#42=IFCINDEXEDPOLYGONALFACE((1,3,33));
#43=IFCINDEXEDPOLYGONALFACE((34,4,2));
#44=IFCINDEXEDPOLYGONALFACE((3,5,33));
#45=IFCINDEXEDPOLYGONALFACE((34,6,4));
#46=IFCINDEXEDPOLYGONALFACE((5,7,33));
#47=IFCINDEXEDPOLYGONALFACE((34,8,6));
#48=IFCINDEXEDPOLYGONALFACE((7,9,33));
#49=IFCINDEXEDPOLYGONALFACE((34,10,8));
#50=IFCINDEXEDPOLYGONALFACE((9,11,33));
#51=IFCINDEXEDPOLYGONALFACE((34,12,10));
#52=IFCINDEXEDPOLYGONALFACE((11,13,33));
#53=IFCINDEXEDPOLYGONALFACE((34,14,12));
#54=IFCINDEXEDPOLYGONALFACE((13,15,33));
#55=IFCINDEXEDPOLYGONALFACE((34,16,14));
#56=IFCINDEXEDPOLYGONALFACE((15,17,33));
#57=IFCINDEXEDPOLYGONALFACE((34,18,16));
#58=IFCINDEXEDPOLYGONALFACE((17,19,33));
#59=IFCINDEXEDPOLYGONALFACE((34,20,18));
#60=IFCINDEXEDPOLYGONALFACE((19,21,33));
#61=IFCINDEXEDPOLYGONALFACE((34,22,20));
#62=IFCINDEXEDPOLYGONALFACE((21,23,33));
#63=IFCINDEXEDPOLYGONALFACE((34,24,22));
#64=IFCINDEXEDPOLYGONALFACE((23,25,33));
#65=IFCINDEXEDPOLYGONALFACE((34,26,24));
#66=IFCINDEXEDPOLYGONALFACE((25,27,33));
#67=IFCINDEXEDPOLYGONALFACE((34,28,26));
#68=IFCINDEXEDPOLYGONALFACE((27,29,33));
#69=IFCINDEXEDPOLYGONALFACE((34,30,28));
#70=IFCINDEXEDPOLYGONALFACE((29,31,33));
#71=IFCINDEXEDPOLYGONALFACE((34,32,30));
#72=IFCINDEXEDPOLYGONALFACE((31,1,33));
#73=IFCINDEXEDPOLYGONALFACE((34,2,32));
#74=IFCCARTESIANPOINTLIST3D(((50.,-20.7867403075629,38.408887835571),(-50.,-20.7867403075629,38.408887835571),(50.,-24.5196320100802,29.3968900604846),(-50.,-24.5196320100802,29.3968900604846),(50.,-24.5196320100802,19.6423739596778),(-50.,-24.5196320100802,19.6423739596778),(50.,-20.7867403075638,10.6303761845904),(-50.,-20.7867403075638,10.6303761845904),(50.,-13.8892558254906,3.73289170251701),(-50.,-13.8892558254906,3.73289170251701),(50.,-4.87725805040373,-4.54747350886464E-13),(-50.,-4.87725805040373,-4.54747350886464E-13),(50.,4.87725805040259,-4.54747350886464E-13),(-50.,4.87725805040259,-4.54747350886464E-13),(50.,13.88925582549,3.73289170251655),(-50.,13.88925582549,3.73289170251655),(50.,20.7867403075634,10.6303761845897),(-50.,20.7867403075634,10.6303761845897),(50.,24.5196320100808,19.6423739596762),(-50.,24.5196320100808,19.6423739596762),(50.,24.5196320100808,29.3968900604827),(-50.,24.5196320100808,29.3968900604827),(50.,20.7867403075643,38.4088878355701),(-50.,20.7867403075643,38.4088878355701),(50.,13.8892558254906,45.3063723176438),(-50.,13.8892558254906,45.3063723176438),(50.,4.87725805040418,49.039264020161),(-50.,4.87725805040418,49.039264020161),(50.,-4.87725805040191,49.039264020161),(-50.,-4.87725805040191,49.039264020161),(50.,-13.8892558254893,45.3063723176442),(-50.,-13.8892558254893,45.3063723176442),(50.,0.,24.5196320100804),(-50.,0.,24.5196320100804)));
#75=IFCPOLYGONALFACESET(#74,.T.,(#26,#27,#28,#29,#30,#31,#32,#33,#34,#35,#36,#37,#38,#39,#40,#41,#42,#43,#44,#45,#46,#47,#48,#49,#50,#51,#52,#53,#54,#55,#56,#57,#58,#59,#60,#61,#62,#63,#64,#65,#66,#67,#68,#69,#70,#71,#72,#73),$);
#76=IFCSHAPEREPRESENTATION(#12,'Body','Tessellation',(#75));
#77=IFCPRODUCTDEFINITIONSHAPE($,$,(#76));
ENDSEC;
END-ISO-10303-21;
