ISO-10303-21;
HEADER;
FILE_DESCRIPTION(('ViewDefinition [CoordinationView]'),'2;1');
FILE_NAME('','2026-08-25T22:33:28',(''),(''),'IfcOpenShell 0.8.4-e8eb5e4','IfcOpenShell 0.8.4-e8eb5e4','');
FILE_SCHEMA(('IFC4'));
ENDSEC;
DATA;
#1=IFCPROJECT('0YWl_7eoH82AFzA5MzQdlo',$,'Default Project',$,$,$,$,(#11),#6);
#2=IFCSIUNIT(*,.LENGTHUNIT.,.MILLI.,.METRE.);
#3=IFCSIUNIT(*,.AREAUNIT.,.MILLI.,.SQUARE_METRE.);
#4=IFCSIUNIT(*,.VOLUMEUNIT.,.MILLI.,.CUBIC_METRE.);
#5=IFCSIUNIT(*,.PLANEANGLEUNIT.,$,.RADIAN.);
#6=IFCUNITASSIGNMENT((#2,#3,#4,#5));
#7=IFCCARTESIANPOINT((0.,0.,0.));
#8=IFCDIRECTION((0.,0.,1.));
#9=IFCDIRECTION((1.,0.,0.));
#10=IFCAXIS2PLACEMENT3D(#7,#8,#9);
#11=IFCGEOMETRICREPRESENTATIONCONTEXT($,'Model',3,1.E-05,#10,$);
#12=IFCGEOMETRICREPRESENTATIONSUBCONTEXT('Body','Model',*,*,*,*,#11,$,.MODEL_VIEW.,$);
#13=IFCPERSON($,'Unknown Author',$,$,$,$,$,$);
#14=IFCORGANIZATION($,'compas.dev',$,$,$);
#15=IFCPERSONANDORGANIZATION(#13,#14,$);
#16=IFCAPPLICATION(#14,'2.1.0','compas_ifc','compas_ifc v2.1.0');
#17=IFCOWNERHISTORY(#15,#16,$,$,$,$,$,1787690008);
#18=IFCSITE('2AQfL7uTf6w84BcDmyzCx2',$,'Default Site',$,$,$,$,$,$,$,$,$,$,$);
#19=IFCRELAGGREGATES('3xR5WYT292rvnsa79aEWvu',$,$,$,#1,(#18));
#20=IFCBUILDING('3RS9yOHwzB$BNdU8kGNR2U',$,'Default Building 1',$,$,$,$,$,$,$,$,$);
#21=IFCRELAGGREGATES('1Z5EFBvun9LfSJW5dJWkH5',$,$,$,#18,(#20));
#22=IFCBUILDINGSTOREY('1xs2Z8$4b2oxtsV2iIzMR1',$,'Default Storey 1',$,$,$,$,$,$,$);
#23=IFCRELAGGREGATES('3UdRKr4x91Zu4xmIH0WmlF',$,$,$,#20,(#22));
#24=IFCBUILDINGELEMENTPROXY('38pAyJ4FD3kuCxya$yYdZS',$,'inner_beams_1_0_uncut',$,$,$,#37,$,$);
#25=IFCRELCONTAINEDINSPATIALSTRUCTURE('3DDFjvLK96uORpvtwfjbtO',$,$,$,(#24),#22);
#26=IFCINDEXEDPOLYGONALFACE((1,2,6,5));
#27=IFCINDEXEDPOLYGONALFACE((2,3,7,6));
#28=IFCINDEXEDPOLYGONALFACE((3,4,8,7));
#29=IFCINDEXEDPOLYGONALFACE((4,1,5,8));
#30=IFCINDEXEDPOLYGONALFACE((1,4,3));
#31=IFCINDEXEDPOLYGONALFACE((3,2,1));
#32=IFCINDEXEDPOLYGONALFACE((8,5,6));
#33=IFCINDEXEDPOLYGONALFACE((6,7,8));
#34=IFCCARTESIANPOINTLIST3D(((370.349982053125,-509.650017946875,59.9999999999998),(-509.650017946875,370.349982053125,59.9999999999998),(-358.162808083667,497.462843977417,77.2352667146068),(497.462843977418,-358.162808083668,77.2352667146069),(412.776388924318,-552.076424818068,-8.19746053154682E-14),(-552.076424818067,412.776388924318,-3.02242853401099E-13),(-412.776388924318,552.076424818068,-1.32750457537651E-13),(552.076424818068,-412.776388924318,-1.39855884895252E-13)));
#35=IFCPOLYGONALFACESET(#34,.T.,(#26,#27,#28,#29,#30,#31,#32,#33),$);
#36=IFCSHAPEREPRESENTATION(#12,'Body','Tessellation',(#35));
#37=IFCPRODUCTDEFINITIONSHAPE($,$,(#36));
#38=IFCBUILDINGELEMENTPROXY('13GNi5XxD57QadcujH_8An',$,'inner_beams_1_0_cut',$,$,$,#138,$,$);
#39=IFCRELCONTAINEDINSPATIALSTRUCTURE('0UyGfQOTv9Tvkls$KjIvEl',$,$,$,(#38),#22);
#40=IFCINDEXEDPOLYGONALFACE((19,2,1,18));
#41=IFCINDEXEDPOLYGONALFACE((1,5,18));
#42=IFCINDEXEDPOLYGONALFACE((1,4,5));
#43=IFCINDEXEDPOLYGONALFACE((1,31,4));
#44=IFCINDEXEDPOLYGONALFACE((9,7,4));
#45=IFCINDEXEDPOLYGONALFACE((10,8,7));
#46=IFCINDEXEDPOLYGONALFACE((9,4,53));
#47=IFCINDEXEDPOLYGONALFACE((9,10,7));
#48=IFCINDEXEDPOLYGONALFACE((18,5,6));
#49=IFCINDEXEDPOLYGONALFACE((18,6,16));
#50=IFCINDEXEDPOLYGONALFACE((18,16,17));
#51=IFCINDEXEDPOLYGONALFACE((18,17,23));
#52=IFCINDEXEDPOLYGONALFACE((23,22,8));
#53=IFCINDEXEDPOLYGONALFACE((23,17,22));
#54=IFCINDEXEDPOLYGONALFACE((18,23,59));
#55=IFCINDEXEDPOLYGONALFACE((23,8,10));
#56=IFCINDEXEDPOLYGONALFACE((18,59,45));
#57=IFCINDEXEDPOLYGONALFACE((31,53,4));
#58=IFCINDEXEDPOLYGONALFACE((27,30,28));
#59=IFCINDEXEDPOLYGONALFACE((31,27,53));
#60=IFCINDEXEDPOLYGONALFACE((27,34,29));
#61=IFCINDEXEDPOLYGONALFACE((27,29,30));
#62=IFCINDEXEDPOLYGONALFACE((31,34,27));
#63=IFCINDEXEDPOLYGONALFACE((31,35,34));
#64=IFCINDEXEDPOLYGONALFACE((31,46,35));
#65=IFCINDEXEDPOLYGONALFACE((42,28,43));
#66=IFCINDEXEDPOLYGONALFACE((59,42,45));
#67=IFCINDEXEDPOLYGONALFACE((28,30,43));
#68=IFCINDEXEDPOLYGONALFACE((42,43,45));
#69=IFCINDEXEDPOLYGONALFACE((18,45,46));
#70=IFCINDEXEDPOLYGONALFACE((46,36,35));
#71=IFCINDEXEDPOLYGONALFACE((46,44,36));
#72=IFCINDEXEDPOLYGONALFACE((46,45,44));
#73=IFCINDEXEDPOLYGONALFACE((2,19,21,3,33,49,47,32));
#74=IFCINDEXEDPOLYGONALFACE((1,2,32,31));
#75=IFCINDEXEDPOLYGONALFACE((19,18,46,47,49,48,20,21));
#76=IFCINDEXEDPOLYGONALFACE((32,47,46,31));
#77=IFCINDEXEDPOLYGONALFACE((3,14,12));
#78=IFCINDEXEDPOLYGONALFACE((3,11,14));
#79=IFCINDEXEDPOLYGONALFACE((3,24,11));
#80=IFCINDEXEDPOLYGONALFACE((54,12,13));
#81=IFCINDEXEDPOLYGONALFACE((55,13,15));
#82=IFCINDEXEDPOLYGONALFACE((54,13,55));
#83=IFCINDEXEDPOLYGONALFACE((55,15,57));
#84=IFCINDEXEDPOLYGONALFACE((54,3,12));
#85=IFCINDEXEDPOLYGONALFACE((25,26,20));
#86=IFCINDEXEDPOLYGONALFACE((24,20,26));
#87=IFCINDEXEDPOLYGONALFACE((3,20,24));
#88=IFCINDEXEDPOLYGONALFACE((57,15,25));
#89=IFCINDEXEDPOLYGONALFACE((60,25,20));
#90=IFCINDEXEDPOLYGONALFACE((62,20,52));
#91=IFCINDEXEDPOLYGONALFACE((57,25,60));
#92=IFCINDEXEDPOLYGONALFACE((62,60,20));
#93=IFCINDEXEDPOLYGONALFACE((61,39,38));
#94=IFCINDEXEDPOLYGONALFACE((61,41,39));
#95=IFCINDEXEDPOLYGONALFACE((54,56,33));
#96=IFCINDEXEDPOLYGONALFACE((56,58,33));
#97=IFCINDEXEDPOLYGONALFACE((58,61,33));
#98=IFCINDEXEDPOLYGONALFACE((38,40,33));
#99=IFCINDEXEDPOLYGONALFACE((40,37,33));
#100=IFCINDEXEDPOLYGONALFACE((37,48,33));
#101=IFCINDEXEDPOLYGONALFACE((61,38,33));
#102=IFCINDEXEDPOLYGONALFACE((62,51,61));
#103=IFCINDEXEDPOLYGONALFACE((61,51,41));
#104=IFCINDEXEDPOLYGONALFACE((62,52,51));
#105=IFCINDEXEDPOLYGONALFACE((52,20,48));
#106=IFCINDEXEDPOLYGONALFACE((37,50,48));
#107=IFCINDEXEDPOLYGONALFACE((50,52,48));
#108=IFCINDEXEDPOLYGONALFACE((54,33,3));
#109=IFCINDEXEDPOLYGONALFACE((7,13,12,4));
#110=IFCINDEXEDPOLYGONALFACE((14,5,4,12));
#111=IFCINDEXEDPOLYGONALFACE((11,6,5,14));
#112=IFCINDEXEDPOLYGONALFACE((7,8,15,13));
#113=IFCINDEXEDPOLYGONALFACE((21,20,3));
#114=IFCINDEXEDPOLYGONALFACE((25,15,8,22));
#115=IFCINDEXEDPOLYGONALFACE((16,6,11,24));
#116=IFCINDEXEDPOLYGONALFACE((22,17,26,25));
#117=IFCINDEXEDPOLYGONALFACE((26,17,16,24));
#118=IFCINDEXEDPOLYGONALFACE((29,34,38,39));
#119=IFCINDEXEDPOLYGONALFACE((40,38,34,35));
#120=IFCINDEXEDPOLYGONALFACE((41,30,29,39));
#121=IFCINDEXEDPOLYGONALFACE((40,35,36,37));
#122=IFCINDEXEDPOLYGONALFACE((49,33,48));
#123=IFCINDEXEDPOLYGONALFACE((43,30,41,51));
#124=IFCINDEXEDPOLYGONALFACE((36,44,50,37));
#125=IFCINDEXEDPOLYGONALFACE((52,45,43,51));
#126=IFCINDEXEDPOLYGONALFACE((45,52,50,44));
#127=IFCINDEXEDPOLYGONALFACE((53,54,55,9));
#128=IFCINDEXEDPOLYGONALFACE((56,54,53,27));
#129=IFCINDEXEDPOLYGONALFACE((57,10,9,55));
#130=IFCINDEXEDPOLYGONALFACE((27,28,58,56));
#131=IFCINDEXEDPOLYGONALFACE((60,23,10,57));
#132=IFCINDEXEDPOLYGONALFACE((61,58,28,42));
#133=IFCINDEXEDPOLYGONALFACE((60,62,59,23));
#134=IFCINDEXEDPOLYGONALFACE((42,59,62,61));
#135=IFCCARTESIANPOINTLIST3D(((-412.776388924317,552.076424818068,-1.13686837721616E-13),(-358.162808083668,497.462843977417,77.2352667146068),(-298.14121359948,436.381092108416,77.1696813212884),(-236.978116064032,252.703421074565,-2.27373675443232E-13),(-244.049183875898,255.6323532627,-2.27373675443232E-13),(-251.120251687763,252.703421074565,-2.27373675443232E-13),(-234.049183875898,245.6323532627,-1.13686837721616E-13),(-236.978116064033,238.561285450834,-2.27373675443232E-13),(0.791584693400637,10.7915846934006,-2.27373675443232E-13),(-6.27948311846467,7.86265250526594,-2.27373675443232E-13),(-251.120251687763,252.703421074565,53.6873523818426),(-236.978116064032,252.703421074565,56.1174583221657),(-234.049183875898,245.6323532627,55.4056967712467),(-244.049183875898,255.6323532627,55.4056967712468),(-236.978116064033,238.561285450834,53.6873523818425),(-254.049183875898,245.6323532627,-2.27373675443232E-13),(-251.120251687763,238.561285450834,-2.27373675443232E-13),(-552.076424818067,412.776388924318,-3.41060513164848E-13),(-509.650017946874,370.349982053125,59.9999999999998),(-436.911170800823,297.611134907073,29.4787658463312),(-436.911170800823,297.611134907073,59.9999999999997),(-244.049183875898,235.6323532627,-1.13686837721616E-13),(-9.20841530659845,0.791584693400637,-2.27373675443232E-13),(-254.049183875898,245.632353262699,51.9690079924383),(-244.049183875898,235.6323532627,51.9690079924383),(-251.120251687763,238.561285450834,51.2572464415193),(10.7915846934006,0.791584693400637,-2.27373675443232E-13),(7.8626525052664,-6.27948311846467,-2.27373675443232E-13),(245.6323532627,-234.049183875898,-1.13686837721616E-13),(238.561285450834,-236.978116064033,-1.13686837721616E-13),(552.076424818068,-412.776388924318,-1.13686837721616E-13),(497.462843977418,-358.162808083668,77.235266714607),(436.381092108416,-298.141213599481,77.1696813212884),(252.703421074566,-236.978116064033,-1.13686837721616E-13),(255.6323532627,-244.049183875898,-1.13686837721616E-13),(252.703421074565,-251.120251687763,-1.13686837721616E-13),(252.703421074565,-251.120251687764,53.6873523818425),(252.703421074566,-236.978116064033,56.1174583221657),(245.6323532627,-234.049183875898,55.4056967712468),(255.6323532627,-244.049183875898,55.4056967712468),(238.561285450834,-236.978116064033,53.6873523818425),(0.791584693401546,-9.20841530659936,-2.27373675443232E-13),(235.6323532627,-244.049183875898,-1.13686837721616E-13),(245.6323532627,-254.049183875898,-1.13686837721616E-13),(238.561285450834,-251.120251687763,-1.13686837721616E-13),(412.776388924318,-552.076424818068,-1.13686837721616E-13),(370.349982053125,-509.650017946875,59.9999999999998),(297.611134907074,-436.911170800824,29.478765846331),(297.611134907073,-436.911170800824,59.9999999999998),(245.6323532627,-254.049183875898,51.9690079924384),(235.6323532627,-244.049183875898,51.9690079924384),(238.561285450834,-251.120251687763,51.2572464415194),(7.8626525052664,7.86265250526594,-2.27373675443232E-13),(7.8626525052664,7.86265250526594,56.1174583221657),(0.791584693400637,10.7915846934006,55.4056967712468),(10.7915846934006,0.791584693400637,55.4056967712468),(-6.27948311846467,7.86265250526594,53.6873523818425),(7.8626525052664,-6.27948311846467,53.6873523818426),(-6.27948311846421,-6.27948311846467,-2.27373675443232E-13),(-9.20841530659845,0.791584693400637,51.9690079924384),(0.791584693401091,-9.20841530659936,51.9690079924384),(-6.27948311846467,-6.27948311846467,51.2572464415196)));
#136=IFCPOLYGONALFACESET(#135,.T.,(#40,#41,#42,#43,#44,#45,#46,#47,#48,#49,#50,#51,#52,#53,#54,#55,#56,#57,#58,#59,#60,#61,#62,#63,#64,#65,#66,#67,#68,#69,#70,#71,#72,#73,#74,#75,#76,#77,#78,#79,#80,#81,#82,#83,#84,#85,#86,#87,#88,#89,#90,#91,#92,#93,#94,#95,#96,#97,#98,#99,#100,#101,#102,#103,#104,#105,#106,#107,#108,#109,#110,#111,#112,#113,#114,#115,#116,#117,#118,#119,#120,#121,#122,#123,#124,#125,#126,#127,#128,#129,#130,#131,#132,#133,#134),$);
#137=IFCSHAPEREPRESENTATION(#12,'Body','Tessellation',(#136));
#138=IFCPRODUCTDEFINITIONSHAPE($,$,(#137));
#139=IFCBUILDINGELEMENTPROXY('1E2OsA7HbDSw0w34ASmLbQ',$,'inner_beams_1_0_cutter_0',$,$,$,#152,$,$);
#140=IFCRELCONTAINEDINSPATIALSTRUCTURE('0BGdyj_$bA2PKwJzRdsIHN',$,$,$,(#139),#22);
#141=IFCINDEXEDPOLYGONALFACE((1,2,6,5));
#142=IFCINDEXEDPOLYGONALFACE((2,3,7,6));
#143=IFCINDEXEDPOLYGONALFACE((3,4,8,7));
#144=IFCINDEXEDPOLYGONALFACE((4,1,5,8));
#145=IFCINDEXEDPOLYGONALFACE((1,4,3));
#146=IFCINDEXEDPOLYGONALFACE((3,2,1));
#147=IFCINDEXEDPOLYGONALFACE((8,5,6));
#148=IFCINDEXEDPOLYGONALFACE((6,7,8));
#149=IFCCARTESIANPOINTLIST3D(((436.381092108417,-298.141213599481,77.1696813212886),(-298.14121359948,436.381092108416,77.1696813212884),(-443.076446774108,291.445858933788,27.3599523707664),(291.445858933788,-443.076446774109,27.3599523707664),(428.747129656098,-305.775176051798,121.595947088451),(-305.775176051798,428.747129656098,121.595947088451),(-450.710409226426,283.811896481469,71.7862181379293),(283.81189648147,-450.710409226427,71.7862181379294)));
#150=IFCPOLYGONALFACESET(#149,.T.,(#141,#142,#143,#144,#145,#146,#147,#148),$);
#151=IFCSHAPEREPRESENTATION(#12,'Body','Tessellation',(#150));
#152=IFCPRODUCTDEFINITIONSHAPE($,$,(#151));
#153=IFCBUILDINGELEMENTPROXY('3_ig8q2GH9WATiEw_cCI9J',$,'inner_beams_1_0_cutter_1',$,$,$,#178,$,$);
#154=IFCRELCONTAINEDINSPATIALSTRUCTURE('3Fz_dQvfX0APDkqEpzW8dB',$,$,$,(#153),#22);
#155=IFCINDEXEDPOLYGONALFACE((1,2,10,9));
#156=IFCINDEXEDPOLYGONALFACE((2,3,11,10));
#157=IFCINDEXEDPOLYGONALFACE((3,4,12,11));
#158=IFCINDEXEDPOLYGONALFACE((4,5,13,12));
#159=IFCINDEXEDPOLYGONALFACE((5,6,14,13));
#160=IFCINDEXEDPOLYGONALFACE((6,7,15,14));
#161=IFCINDEXEDPOLYGONALFACE((7,8,16,15));
#162=IFCINDEXEDPOLYGONALFACE((8,1,9,16));
#163=IFCINDEXEDPOLYGONALFACE((1,8,7));
#164=IFCINDEXEDPOLYGONALFACE((7,6,5));
#165=IFCINDEXEDPOLYGONALFACE((5,4,3));
#166=IFCINDEXEDPOLYGONALFACE((3,2,1));
#167=IFCINDEXEDPOLYGONALFACE((1,7,5));
#168=IFCINDEXEDPOLYGONALFACE((5,3,1));
#169=IFCINDEXEDPOLYGONALFACE((16,9,10));
#170=IFCINDEXEDPOLYGONALFACE((10,11,12));
#171=IFCINDEXEDPOLYGONALFACE((12,13,14));
#172=IFCINDEXEDPOLYGONALFACE((14,15,16));
#173=IFCINDEXEDPOLYGONALFACE((16,10,12));
#174=IFCINDEXEDPOLYGONALFACE((12,14,16));
#175=IFCCARTESIANPOINTLIST3D(((238.561285450834,-251.120251687763,148.715574274766),(235.6323532627,-244.049183875898,148.715574274766),(238.561285450834,-236.978116064033,148.715574274766),(245.6323532627,-234.049183875898,148.715574274766),(252.703421074565,-236.978116064033,148.715574274766),(255.6323532627,-244.049183875898,148.715574274766),(252.703421074565,-251.120251687764,148.715574274766),(245.6323532627,-254.049183875898,148.715574274766),(238.561285450834,-251.120251687763,-11.2844257252345),(235.6323532627,-244.049183875898,-11.2844257252344),(238.561285450834,-236.978116064033,-11.2844257252345),(245.6323532627,-234.049183875898,-11.2844257252344),(252.703421074565,-236.978116064033,-11.2844257252345),(255.6323532627,-244.049183875898,-11.2844257252344),(252.703421074565,-251.120251687764,-11.2844257252343),(245.6323532627,-254.049183875898,-11.2844257252344)));
#176=IFCPOLYGONALFACESET(#175,.T.,(#155,#156,#157,#158,#159,#160,#161,#162,#163,#164,#165,#166,#167,#168,#169,#170,#171,#172,#173,#174),$);
#177=IFCSHAPEREPRESENTATION(#12,'Body','Tessellation',(#176));
#178=IFCPRODUCTDEFINITIONSHAPE($,$,(#177));
#179=IFCBUILDINGELEMENTPROXY('3ENEmWVjvFXfLEl_f9lwcy',$,'inner_beams_1_0_cutter_2',$,$,$,#204,$,$);
#180=IFCRELCONTAINEDINSPATIALSTRUCTURE('2aNZgPXnbEywcFs$oV$YlN',$,$,$,(#179),#22);
#181=IFCINDEXEDPOLYGONALFACE((1,2,10,9));
#182=IFCINDEXEDPOLYGONALFACE((2,3,11,10));
#183=IFCINDEXEDPOLYGONALFACE((3,4,12,11));
#184=IFCINDEXEDPOLYGONALFACE((4,5,13,12));
#185=IFCINDEXEDPOLYGONALFACE((5,6,14,13));
#186=IFCINDEXEDPOLYGONALFACE((6,7,15,14));
#187=IFCINDEXEDPOLYGONALFACE((7,8,16,15));
#188=IFCINDEXEDPOLYGONALFACE((8,1,9,16));
#189=IFCINDEXEDPOLYGONALFACE((1,8,7));
#190=IFCINDEXEDPOLYGONALFACE((7,6,5));
#191=IFCINDEXEDPOLYGONALFACE((5,4,3));
#192=IFCINDEXEDPOLYGONALFACE((3,2,1));
#193=IFCINDEXEDPOLYGONALFACE((1,7,5));
#194=IFCINDEXEDPOLYGONALFACE((5,3,1));
#195=IFCINDEXEDPOLYGONALFACE((16,9,10));
#196=IFCINDEXEDPOLYGONALFACE((10,11,12));
#197=IFCINDEXEDPOLYGONALFACE((12,13,14));
#198=IFCINDEXEDPOLYGONALFACE((14,15,16));
#199=IFCINDEXEDPOLYGONALFACE((16,10,12));
#200=IFCINDEXEDPOLYGONALFACE((12,14,16));
#201=IFCCARTESIANPOINTLIST3D(((-6.27948311846447,-6.27948311846461,148.715574274766),(-9.20841530659871,0.791584693400694,148.715574274766),(-6.27948311846464,7.86265250526617,148.715574274766),(0.791584693400836,10.7915846934007,148.715574274766),(7.8626525052666,7.862652505266,148.715574274766),(10.7915846934008,0.791584693400694,148.715574274766),(7.86265250526631,-6.27948311846478,148.715574274766),(0.79158469340129,-9.20841530659931,148.715574274766),(-6.27948311846444,-6.27948311846455,-11.2844257252345),(-9.20841530659868,0.79158469340075,-11.2844257252345),(-6.27948311846461,7.86265250526623,-11.2844257252345),(0.791584693400864,10.7915846934008,-11.2844257252345),(7.86265250526662,7.86265250526606,-11.2844257252345),(10.7915846934009,0.79158469340075,-11.2844257252345),(7.8626525052664,-6.27948311846478,-11.2844257252345),(0.791584693401319,-9.20841530659925,-11.2844257252345)));
#202=IFCPOLYGONALFACESET(#201,.T.,(#181,#182,#183,#184,#185,#186,#187,#188,#189,#190,#191,#192,#193,#194,#195,#196,#197,#198,#199,#200),$);
#203=IFCSHAPEREPRESENTATION(#12,'Body','Tessellation',(#202));
#204=IFCPRODUCTDEFINITIONSHAPE($,$,(#203));
#205=IFCBUILDINGELEMENTPROXY('2c6Vc58V90TOLQshXgopZN',$,'inner_beams_1_0_cutter_3',$,$,$,#230,$,$);
#206=IFCRELCONTAINEDINSPATIALSTRUCTURE('1MRaEVJe51YeKJc0_CpjB4',$,$,$,(#205),#22);
#207=IFCINDEXEDPOLYGONALFACE((1,2,10,9));
#208=IFCINDEXEDPOLYGONALFACE((2,3,11,10));
#209=IFCINDEXEDPOLYGONALFACE((3,4,12,11));
#210=IFCINDEXEDPOLYGONALFACE((4,5,13,12));
#211=IFCINDEXEDPOLYGONALFACE((5,6,14,13));
#212=IFCINDEXEDPOLYGONALFACE((6,7,15,14));
#213=IFCINDEXEDPOLYGONALFACE((7,8,16,15));
#214=IFCINDEXEDPOLYGONALFACE((8,1,9,16));
#215=IFCINDEXEDPOLYGONALFACE((1,8,7));
#216=IFCINDEXEDPOLYGONALFACE((7,6,5));
#217=IFCINDEXEDPOLYGONALFACE((5,4,3));
#218=IFCINDEXEDPOLYGONALFACE((3,2,1));
#219=IFCINDEXEDPOLYGONALFACE((1,7,5));
#220=IFCINDEXEDPOLYGONALFACE((5,3,1));
#221=IFCINDEXEDPOLYGONALFACE((16,9,10));
#222=IFCINDEXEDPOLYGONALFACE((10,11,12));
#223=IFCINDEXEDPOLYGONALFACE((12,13,14));
#224=IFCINDEXEDPOLYGONALFACE((14,15,16));
#225=IFCINDEXEDPOLYGONALFACE((16,10,12));
#226=IFCINDEXEDPOLYGONALFACE((12,14,16));
#227=IFCCARTESIANPOINTLIST3D(((-251.120251687763,238.561285450834,148.715574274766),(-254.049183875898,245.6323532627,148.715574274766),(-251.120251687763,252.703421074565,148.715574274766),(-244.049183875898,255.6323532627,148.715574274766),(-236.978116064032,252.703421074565,148.715574274766),(-234.049183875898,245.6323532627,148.715574274766),(-236.978116064033,238.561285450834,148.715574274765),(-244.049183875898,235.6323532627,148.715574274766),(-251.120251687763,238.561285450834,-11.2844257252344),(-254.049183875898,245.6323532627,-11.2844257252344),(-251.120251687763,252.703421074565,-11.2844257252344),(-244.049183875898,255.6323532627,-11.2844257252344),(-236.978116064032,252.703421074565,-11.2844257252344),(-234.049183875898,245.6323532627,-11.2844257252345),(-236.978116064033,238.561285450834,-11.2844257252345),(-244.049183875898,235.6323532627,-11.2844257252345)));
#228=IFCPOLYGONALFACESET(#227,.T.,(#207,#208,#209,#210,#211,#212,#213,#214,#215,#216,#217,#218,#219,#220,#221,#222,#223,#224,#225,#226),$);
#229=IFCSHAPEREPRESENTATION(#12,'Body','Tessellation',(#228));
#230=IFCPRODUCTDEFINITIONSHAPE($,$,(#229));
ENDSEC;
END-ISO-10303-21;
