ISO-10303-21;
HEADER;
FILE_DESCRIPTION(('ViewDefinition [CoordinationView]'),'2;1');
FILE_NAME('','2026-08-25T22:33:26',(''),(''),'IfcOpenShell 0.8.4-e8eb5e4','IfcOpenShell 0.8.4-e8eb5e4','');
FILE_SCHEMA(('IFC4'));
ENDSEC;
DATA;
#1=IFCPROJECT('1chcy7xbb1JOdop6CXGlcc',$,'Default Project',$,$,$,$,(#11),#6);
#2=IFCSIUNIT(*,.LENGTHUNIT.,.MILLI.,.METRE.);
#3=IFCSIUNIT(*,.AREAUNIT.,.MILLI.,.SQUARE_METRE.);
#4=IFCSIUNIT(*,.VOLUMEUNIT.,.MILLI.,.CUBIC_METRE.);
#5=IFCSIUNIT(*,.PLANEANGLEUNIT.,$,.RADIAN.);
#6=IFCUNITASSIGNMENT((#2,#3,#4,#5));
#7=IFCCARTESIANPOINT((0.,0.,0.));
#8=IFCDIRECTION((0.,0.,1.));
#9=IFCDIRECTION((1.,0.,0.));
#10=IFCAXIS2PLACEMENT3D(#7,#8,#9);
#11=IFCGEOMETRICREPRESENTATIONCONTEXT($,'Model',3,1.E-05,#10,$);
#12=IFCGEOMETRICREPRESENTATIONSUBCONTEXT('Body','Model',*,*,*,*,#11,$,.MODEL_VIEW.,$);
#13=IFCPERSON($,'Unknown Author',$,$,$,$,$,$);
#14=IFCORGANIZATION($,'compas.dev',$,$,$);
#15=IFCPERSONANDORGANIZATION(#13,#14,$);
#16=IFCAPPLICATION(#14,'2.1.0','compas_ifc','compas_ifc v2.1.0');
#17=IFCOWNERHISTORY(#15,#16,$,$,$,$,$,1787690006);
#18=IFCSITE('1nu5S3Z419aPHQDM$3UFiT',$,'Default Site',$,$,$,$,$,$,$,$,$,$,$);
#19=IFCRELAGGREGATES('2cUm28iRD3NRJE5P8UJpT4',$,$,$,#1,(#18));
#20=IFCBUILDING('0kyyg_Vz5FZw$i37tSXnSC',$,'Default Building 1',$,$,$,$,$,$,$,$,$);
#21=IFCRELAGGREGATES('3EljERg$10rBh$Ub_h2L5R',$,$,$,#18,(#20));
#22=IFCBUILDINGSTOREY('3pOe8YYef9iBQjPm80Y_8q',$,'Default Storey 1',$,$,$,$,$,$,$);
#23=IFCRELAGGREGATES('1j5ufeWCnFXP6tjDXAlruE',$,$,$,#20,(#22));
#24=IFCBUILDINGELEMENTPROXY('3j99KwO_vCoxjZwX6M1U$c',$,'inner_beams_0_0_uncut',$,$,$,#37,$,$);
#25=IFCRELCONTAINEDINSPATIALSTRUCTURE('20KT6aiAjC4R9mIBa4MHTK',$,$,$,(#24),#22);
#26=IFCINDEXEDPOLYGONALFACE((1,2,6,5));
#27=IFCINDEXEDPOLYGONALFACE((2,3,7,6));
#28=IFCINDEXEDPOLYGONALFACE((3,4,8,7));
#29=IFCINDEXEDPOLYGONALFACE((4,1,5,8));
#30=IFCINDEXEDPOLYGONALFACE((1,4,3));
#31=IFCINDEXEDPOLYGONALFACE((3,2,1));
#32=IFCINDEXEDPOLYGONALFACE((8,5,6));
#33=IFCINDEXEDPOLYGONALFACE((6,7,8));
#34=IFCCARTESIANPOINTLIST3D(((-98.7028943046642,-986.106138802945,59.9999999999999),(-98.7028943046643,913.893861197055,60.),(98.2971056953357,938.268209135976,60.),(98.2971056953358,-986.106138802945,59.9999999999999),(-98.7028943046642,-986.106138802945,-6.23727820184066E-14),(-98.7028943046643,973.893861197055,5.7642604298034E-14),(98.2971056953357,998.268209135975,8.42985053194475E-14),(98.2971056953358,-986.106138802945,-9.40527982170363E-14)));
#35=IFCPOLYGONALFACESET(#34,.T.,(#26,#27,#28,#29,#30,#31,#32,#33),$);
#36=IFCSHAPEREPRESENTATION(#12,'Body','Tessellation',(#35));
#37=IFCPRODUCTDEFINITIONSHAPE($,$,(#36));
#38=IFCBUILDINGELEMENTPROXY('1QmQfDf9rEuQdEVPwb6OJV',$,'inner_beams_0_0_cut',$,$,$,#195,$,$);
#39=IFCRELCONTAINEDINSPATIALSTRUCTURE('3SzaB0YrL5dghMWaw75BnO',$,$,$,(#38),#22);
#40=IFCINDEXEDPOLYGONALFACE((1,3,2));
#41=IFCINDEXEDPOLYGONALFACE((1,5,3));
#42=IFCINDEXEDPOLYGONALFACE((1,20,5));
#43=IFCINDEXEDPOLYGONALFACE((1,2,7));
#44=IFCINDEXEDPOLYGONALFACE((7,2,4));
#45=IFCINDEXEDPOLYGONALFACE((4,6,8));
#46=IFCINDEXEDPOLYGONALFACE((6,10,8));
#47=IFCINDEXEDPOLYGONALFACE((1,12,33));
#48=IFCINDEXEDPOLYGONALFACE((1,7,24));
#49=IFCINDEXEDPOLYGONALFACE((1,13,12));
#50=IFCINDEXEDPOLYGONALFACE((1,15,13));
#51=IFCINDEXEDPOLYGONALFACE((1,24,15));
#52=IFCINDEXEDPOLYGONALFACE((7,4,8));
#53=IFCINDEXEDPOLYGONALFACE((7,9,24));
#54=IFCINDEXEDPOLYGONALFACE((9,11,24));
#55=IFCINDEXEDPOLYGONALFACE((20,17,5));
#56=IFCINDEXEDPOLYGONALFACE((20,19,17));
#57=IFCINDEXEDPOLYGONALFACE((6,18,10));
#58=IFCINDEXEDPOLYGONALFACE((18,19,21));
#59=IFCINDEXEDPOLYGONALFACE((10,18,21));
#60=IFCINDEXEDPOLYGONALFACE((21,19,23));
#61=IFCINDEXEDPOLYGONALFACE((20,23,19));
#62=IFCINDEXEDPOLYGONALFACE((11,22,24));
#63=IFCINDEXEDPOLYGONALFACE((22,23,24));
#64=IFCINDEXEDPOLYGONALFACE((20,24,23));
#65=IFCINDEXEDPOLYGONALFACE((20,26,24));
#66=IFCINDEXEDPOLYGONALFACE((20,45,26));
#67=IFCINDEXEDPOLYGONALFACE((14,16,29));
#68=IFCINDEXEDPOLYGONALFACE((14,29,28));
#69=IFCINDEXEDPOLYGONALFACE((16,31,29));
#70=IFCINDEXEDPOLYGONALFACE((33,12,14));
#71=IFCINDEXEDPOLYGONALFACE((33,14,28));
#72=IFCINDEXEDPOLYGONALFACE((34,28,30));
#73=IFCINDEXEDPOLYGONALFACE((30,32,35));
#74=IFCINDEXEDPOLYGONALFACE((33,28,34));
#75=IFCINDEXEDPOLYGONALFACE((30,35,34));
#76=IFCINDEXEDPOLYGONALFACE((32,37,35));
#77=IFCINDEXEDPOLYGONALFACE((33,34,36));
#78=IFCINDEXEDPOLYGONALFACE((33,36,38));
#79=IFCINDEXEDPOLYGONALFACE((33,38,45));
#80=IFCINDEXEDPOLYGONALFACE((16,39,31));
#81=IFCINDEXEDPOLYGONALFACE((16,41,39));
#82=IFCINDEXEDPOLYGONALFACE((32,40,37));
#83=IFCINDEXEDPOLYGONALFACE((40,41,42));
#84=IFCINDEXEDPOLYGONALFACE((45,16,25));
#85=IFCINDEXEDPOLYGONALFACE((45,25,26));
#86=IFCINDEXEDPOLYGONALFACE((45,41,16));
#87=IFCINDEXEDPOLYGONALFACE((37,40,42));
#88=IFCINDEXEDPOLYGONALFACE((42,41,44));
#89=IFCINDEXEDPOLYGONALFACE((45,44,41));
#90=IFCINDEXEDPOLYGONALFACE((45,38,43));
#91=IFCINDEXEDPOLYGONALFACE((45,43,44));
#92=IFCINDEXEDPOLYGONALFACE((1,47,73,20));
#93=IFCINDEXEDPOLYGONALFACE((73,74,27,46,93,94,45,20));
#94=IFCINDEXEDPOLYGONALFACE((48,47,1,33,81,80));
#95=IFCINDEXEDPOLYGONALFACE((45,94,81,33));
#96=IFCINDEXEDPOLYGONALFACE((73,47,48,74));
#97=IFCINDEXEDPOLYGONALFACE((94,93,80,81));
#98=IFCINDEXEDPOLYGONALFACE((3,50,49,2));
#99=IFCINDEXEDPOLYGONALFACE((49,51,4,2));
#100=IFCINDEXEDPOLYGONALFACE((3,5,52,50));
#101=IFCINDEXEDPOLYGONALFACE((51,53,6,4));
#102=IFCINDEXEDPOLYGONALFACE((8,55,54,7));
#103=IFCINDEXEDPOLYGONALFACE((56,9,7,54));
#104=IFCINDEXEDPOLYGONALFACE((55,8,10,57));
#105=IFCINDEXEDPOLYGONALFACE((56,58,11,9));
#106=IFCINDEXEDPOLYGONALFACE((59,12,13,60));
#107=IFCINDEXEDPOLYGONALFACE((12,59,61,14));
#108=IFCINDEXEDPOLYGONALFACE((62,60,13,15));
#109=IFCINDEXEDPOLYGONALFACE((14,61,63,16));
#110=IFCINDEXEDPOLYGONALFACE((5,17,64,52));
#111=IFCINDEXEDPOLYGONALFACE((65,18,6,53));
#112=IFCINDEXEDPOLYGONALFACE((64,17,19,66));
#113=IFCINDEXEDPOLYGONALFACE((19,18,65,66));
#114=IFCINDEXEDPOLYGONALFACE((57,10,21,67));
#115=IFCINDEXEDPOLYGONALFACE((22,11,58,68));
#116=IFCINDEXEDPOLYGONALFACE((67,21,23,69));
#117=IFCINDEXEDPOLYGONALFACE((23,22,68,69));
#118=IFCINDEXEDPOLYGONALFACE((15,24,70,62));
#119=IFCINDEXEDPOLYGONALFACE((16,63,71,25));
#120=IFCINDEXEDPOLYGONALFACE((70,24,26,72));
#121=IFCINDEXEDPOLYGONALFACE((71,72,26,25));
#122=IFCINDEXEDPOLYGONALFACE((76,75,28,29));
#123=IFCINDEXEDPOLYGONALFACE((30,28,75,77));
#124=IFCINDEXEDPOLYGONALFACE((78,76,29,31));
#125=IFCINDEXEDPOLYGONALFACE((77,79,32,30));
#126=IFCINDEXEDPOLYGONALFACE((83,82,34,35));
#127=IFCINDEXEDPOLYGONALFACE((34,82,84,36));
#128=IFCINDEXEDPOLYGONALFACE((35,37,85,83));
#129=IFCINDEXEDPOLYGONALFACE((38,36,84,86));
#130=IFCINDEXEDPOLYGONALFACE((78,31,39,87));
#131=IFCINDEXEDPOLYGONALFACE((40,32,79,88));
#132=IFCINDEXEDPOLYGONALFACE((41,40,88,89));
#133=IFCINDEXEDPOLYGONALFACE((41,89,87,39));
#134=IFCINDEXEDPOLYGONALFACE((90,85,37,42));
#135=IFCINDEXEDPOLYGONALFACE((91,43,38,86));
#136=IFCINDEXEDPOLYGONALFACE((42,44,92,90));
#137=IFCINDEXEDPOLYGONALFACE((91,92,44,43));
#138=IFCINDEXEDPOLYGONALFACE((49,50,48));
#139=IFCINDEXEDPOLYGONALFACE((50,52,48));
#140=IFCINDEXEDPOLYGONALFACE((52,27,48));
#141=IFCINDEXEDPOLYGONALFACE((49,48,54));
#142=IFCINDEXEDPOLYGONALFACE((49,55,51));
#143=IFCINDEXEDPOLYGONALFACE((51,57,53));
#144=IFCINDEXEDPOLYGONALFACE((49,54,55));
#145=IFCINDEXEDPOLYGONALFACE((51,55,57));
#146=IFCINDEXEDPOLYGONALFACE((54,48,70));
#147=IFCINDEXEDPOLYGONALFACE((60,48,59));
#148=IFCINDEXEDPOLYGONALFACE((60,62,48));
#149=IFCINDEXEDPOLYGONALFACE((70,48,62));
#150=IFCINDEXEDPOLYGONALFACE((54,70,56));
#151=IFCINDEXEDPOLYGONALFACE((56,70,58));
#152=IFCINDEXEDPOLYGONALFACE((59,48,75));
#153=IFCINDEXEDPOLYGONALFACE((64,27,52));
#154=IFCINDEXEDPOLYGONALFACE((64,66,27));
#155=IFCINDEXEDPOLYGONALFACE((65,53,67));
#156=IFCINDEXEDPOLYGONALFACE((65,69,66));
#157=IFCINDEXEDPOLYGONALFACE((53,57,67));
#158=IFCINDEXEDPOLYGONALFACE((65,67,69));
#159=IFCINDEXEDPOLYGONALFACE((68,58,70));
#160=IFCINDEXEDPOLYGONALFACE((68,72,69));
#161=IFCINDEXEDPOLYGONALFACE((68,70,72));
#162=IFCINDEXEDPOLYGONALFACE((66,69,46));
#163=IFCINDEXEDPOLYGONALFACE((66,46,27));
#164=IFCINDEXEDPOLYGONALFACE((75,48,80));
#165=IFCINDEXEDPOLYGONALFACE((59,76,61));
#166=IFCINDEXEDPOLYGONALFACE((61,78,63));
#167=IFCINDEXEDPOLYGONALFACE((59,75,76));
#168=IFCINDEXEDPOLYGONALFACE((61,76,78));
#169=IFCINDEXEDPOLYGONALFACE((75,83,77));
#170=IFCINDEXEDPOLYGONALFACE((77,85,79));
#171=IFCINDEXEDPOLYGONALFACE((75,80,82));
#172=IFCINDEXEDPOLYGONALFACE((82,80,84));
#173=IFCINDEXEDPOLYGONALFACE((84,80,86));
#174=IFCINDEXEDPOLYGONALFACE((91,86,80));
#175=IFCINDEXEDPOLYGONALFACE((75,82,83));
#176=IFCINDEXEDPOLYGONALFACE((77,83,85));
#177=IFCINDEXEDPOLYGONALFACE((71,63,87));
#178=IFCINDEXEDPOLYGONALFACE((63,78,87));
#179=IFCINDEXEDPOLYGONALFACE((71,87,89));
#180=IFCINDEXEDPOLYGONALFACE((69,72,46));
#181=IFCINDEXEDPOLYGONALFACE((71,46,72));
#182=IFCINDEXEDPOLYGONALFACE((88,79,90));
#183=IFCINDEXEDPOLYGONALFACE((89,88,92));
#184=IFCINDEXEDPOLYGONALFACE((71,89,46));
#185=IFCINDEXEDPOLYGONALFACE((79,85,90));
#186=IFCINDEXEDPOLYGONALFACE((88,90,92));
#187=IFCINDEXEDPOLYGONALFACE((89,92,46));
#188=IFCINDEXEDPOLYGONALFACE((91,46,92));
#189=IFCINDEXEDPOLYGONALFACE((91,80,46));
#190=IFCINDEXEDPOLYGONALFACE((27,74,48));
#191=IFCINDEXEDPOLYGONALFACE((93,46,80));
#192=IFCCARTESIANPOINTLIST3D(((98.2971056953356,-986.106138802945,-9.2370555648813E-14),(11.2971056953361,-715.607902609781,-6.3948846218409E-14),(8.36817350720139,-722.678970421647,-6.3948846218409E-14),(8.36817350720139,-708.536834797916,-6.3948846218409E-14),(1.29710569533609,-725.607902609781,-6.3948846218409E-14),(1.29710569533609,-705.607902609781,-6.3948846218409E-14),(11.2971056953361,-375.857020706363,-4.2632564145606E-14),(8.36817350720139,-382.928088518228,-4.2632564145606E-14),(8.36817350720139,-368.785952894498,-4.2632564145606E-14),(1.29710569533609,-385.857020706363,-4.2632564145606E-14),(1.29710569533609,-365.857020706363,-4.2632564145606E-14),(11.2971056953361,-36.1061388029455,-2.1316282072803E-14),(8.36817350720139,-43.177206614811,-2.1316282072803E-14),(8.36817350720139,-29.0350709910799,-2.1316282072803E-14),(1.29710569533609,-46.1061388029455,-2.1316282072803E-14),(1.29710569533609,-26.1061388029455,-2.1316282072803E-14),(-5.77396211652922,-722.678970421647,-6.3948846218409E-14),(-5.77396211652922,-708.536834797916,-6.3948846218409E-14),(-8.70289430466391,-715.607902609781,-6.3948846218409E-14),(-98.7028943046644,-986.106138802945,-6.3948846218409E-14),(-5.77396211652922,-382.928088518228,-4.2632564145606E-14),(-5.77396211652922,-368.785952894498,-4.2632564145606E-14),(-8.70289430466391,-375.857020706363,-4.2632564145606E-14),(-5.77396211652922,-43.177206614811,-2.1316282072803E-14),(-5.77396211652922,-29.0350709910799,-2.1316282072803E-14),(-8.70289430466391,-36.1061388029455,-2.1316282072803E-14),(-98.7028943046644,-885.48334356149,29.999999856136),(11.2971056953361,303.644743100473,1.4210854715202E-14),(8.36817350720139,296.573675288607,1.4210854715202E-14),(8.36817350720139,310.715810912338,1.4210854715202E-14),(1.29710569533609,293.644743100473,7.105427357601E-15),(1.29710569533609,313.644743100473,7.105427357601E-15),(98.2971056953356,998.268209135975,8.5265128291212E-14),(11.2971056953361,643.39562500389,4.2632564145606E-14),(8.36817350720139,636.324557192025,4.2632564145606E-14),(8.36817350720139,650.466692815756,4.2632564145606E-14),(1.29710569533609,633.39562500389,4.2632564145606E-14),(1.29710569533609,653.39562500389,4.2632564145606E-14),(-5.77396211652922,296.573675288607,7.105427357601E-15),(-5.77396211652922,310.715810912338,7.105427357601E-15),(-8.70289430466391,303.644743100473,7.105427357601E-15),(-5.77396211652922,636.324557192025,4.2632564145606E-14),(-5.77396211652922,650.466692815756,4.2632564145606E-14),(-8.70289430466391,643.39562500389,3.5527136788005E-14),(-98.7028943046644,973.893861197055,5.6843418860808E-14),(-98.7028943046644,813.271065955599,29.9999998561361),(98.2971056953356,-986.106138802945,59.9999999999999),(98.2971056953356,-885.48334356149,59.9999999999999),(11.2971056953361,-715.607902609781,46.7512689719991),(8.36817350720139,-722.678970421647,46.3052386874031),(8.36817350720139,-708.536834797916,46.3052386874031),(1.29710569533609,-725.607902609781,45.2284263251024),(1.29710569533609,-705.607902609781,45.2284263251025),(11.2971056953361,-375.857020706363,46.7512689719991),(8.36817350720139,-382.928088518228,46.3052386874032),(8.36817350720139,-368.785952894498,46.3052386874032),(1.29710569533609,-385.857020706363,45.2284263251025),(1.29710569533609,-365.857020706363,45.2284263251025),(11.2971056953361,-36.1061388029455,46.7512689719992),(8.36817350720139,-43.177206614811,46.3052386874032),(8.36817350720139,-29.0350709910799,46.3052386874032),(1.29710569533609,-46.1061388029455,45.2284263251025),(1.29710569533609,-26.1061388029455,45.2284263251025),(-5.77396211652922,-722.678970421647,44.1516139628018),(-5.77396211652922,-708.536834797916,44.1516139628018),(-8.70289430466391,-715.607902609781,43.7055836782058),(-5.77396211652922,-382.928088518228,44.1516139628018),(-5.77396211652922,-368.785952894498,44.1516139628018),(-8.70289430466391,-375.857020706363,43.7055836782059),(-5.77396211652922,-43.177206614811,44.1516139628018),(-5.77396211652922,-29.0350709910799,44.1516139628018),(-8.70289430466391,-36.1061388029455,43.7055836782059),(-98.7028943046644,-986.106138802945,59.9999999999999),(-98.7028943046644,-885.48334356149,59.9999999999999),(11.2971056953361,303.644743100473,46.7512689719992),(8.36817350720139,296.573675288607,46.3052386874032),(8.36817350720139,310.715810912338,46.3052386874032),(1.29710569533609,293.644743100473,45.2284263251025),(1.29710569533609,313.644743100473,45.2284263251025),(98.2971056953356,813.271065955597,59.9999999999999),(98.2971056953356,938.268209135976,60.),(11.2971056953361,643.39562500389,46.7512689719992),(8.36817350720139,636.324557192025,46.3052386874033),(8.36817350720139,650.466692815756,46.3052386874033),(1.29710569533609,633.39562500389,45.2284263251026),(1.29710569533609,653.39562500389,45.2284263251026),(-5.77396211652922,296.573675288607,44.1516139628019),(-5.77396211652922,310.715810912338,44.1516139628019),(-8.70289430466391,303.644743100473,43.7055836782059),(-5.77396211652922,636.324557192025,44.1516139628019),(-5.77396211652922,650.466692815756,44.1516139628019),(-8.70289430466391,643.39562500389,43.7055836782059),(-98.7028943046644,813.271065955599,60.),(-98.7028943046644,913.893861197055,60.)));
#193=IFCPOLYGONALFACESET(#192,.T.,(#40,#41,#42,#43,#44,#45,#46,#47,#48,#49,#50,#51,#52,#53,#54,#55,#56,#57,#58,#59,#60,#61,#62,#63,#64,#65,#66,#67,#68,#69,#70,#71,#72,#73,#74,#75,#76,#77,#78,#79,#80,#81,#82,#83,#84,#85,#86,#87,#88,#89,#90,#91,#92,#93,#94,#95,#96,#97,#98,#99,#100,#101,#102,#103,#104,#105,#106,#107,#108,#109,#110,#111,#112,#113,#114,#115,#116,#117,#118,#119,#120,#121,#122,#123,#124,#125,#126,#127,#128,#129,#130,#131,#132,#133,#134,#135,#136,#137,#138,#139,#140,#141,#142,#143,#144,#145,#146,#147,#148,#149,#150,#151,#152,#153,#154,#155,#156,#157,#158,#159,#160,#161,#162,#163,#164,#165,#166,#167,#168,#169,#170,#171,#172,#173,#174,#175,#176,#177,#178,#179,#180,#181,#182,#183,#184,#185,#186,#187,#188,#189,#190,#191),$);
#194=IFCSHAPEREPRESENTATION(#12,'Body','Tessellation',(#193));
#195=IFCPRODUCTDEFINITIONSHAPE($,$,(#194));
#196=IFCBUILDINGELEMENTPROXY('3s8tQJYwD3ix_yfXTTZItq',$,'inner_beams_0_0_cutter_0',$,$,$,#209,$,$);
#197=IFCRELCONTAINEDINSPATIALSTRUCTURE('1AU5N4kcb7EvxipnR_TBha',$,$,$,(#196),#22);
#198=IFCINDEXEDPOLYGONALFACE((1,2,6,5));
#199=IFCINDEXEDPOLYGONALFACE((2,3,7,6));
#200=IFCINDEXEDPOLYGONALFACE((3,4,8,7));
#201=IFCINDEXEDPOLYGONALFACE((4,1,5,8));
#202=IFCINDEXEDPOLYGONALFACE((1,4,3));
#203=IFCINDEXEDPOLYGONALFACE((3,2,1));
#204=IFCINDEXEDPOLYGONALFACE((8,5,6));
#205=IFCINDEXEDPOLYGONALFACE((6,7,8));
#206=IFCCARTESIANPOINTLIST3D(((98.2971056953363,-885.48334356149,59.9999999999998),(98.2971056953362,813.271065955599,60.),(-110.233500304664,813.271065955599,28.24407),(-110.233500304664,-885.48334356149,28.2440699999999),(91.5643843360751,-885.48334356149,104.211536713799),(91.564384336075,813.271065955599,104.211536713799),(-116.966221663925,813.271065955599,72.4556067137991),(-116.966221663925,-885.48334356149,72.4556067137989)));
#207=IFCPOLYGONALFACESET(#206,.T.,(#198,#199,#200,#201,#202,#203,#204,#205),$);
#208=IFCSHAPEREPRESENTATION(#12,'Body','Tessellation',(#207));
#209=IFCPRODUCTDEFINITIONSHAPE($,$,(#208));
#210=IFCBUILDINGELEMENTPROXY('2ZWscmwYD03wOPg6tRwkIP',$,'inner_beams_0_0_cutter_1',$,$,$,#235,$,$);
#211=IFCRELCONTAINEDINSPATIALSTRUCTURE('3rrz64QIHAlRbvvGoOuwoE',$,$,$,(#210),#22);
#212=IFCINDEXEDPOLYGONALFACE((1,2,10,9));
#213=IFCINDEXEDPOLYGONALFACE((2,3,11,10));
#214=IFCINDEXEDPOLYGONALFACE((3,4,12,11));
#215=IFCINDEXEDPOLYGONALFACE((4,5,13,12));
#216=IFCINDEXEDPOLYGONALFACE((5,6,14,13));
#217=IFCINDEXEDPOLYGONALFACE((6,7,15,14));
#218=IFCINDEXEDPOLYGONALFACE((7,8,16,15));
#219=IFCINDEXEDPOLYGONALFACE((8,1,9,16));
#220=IFCINDEXEDPOLYGONALFACE((1,8,7));
#221=IFCINDEXEDPOLYGONALFACE((7,6,5));
#222=IFCINDEXEDPOLYGONALFACE((5,4,3));
#223=IFCINDEXEDPOLYGONALFACE((3,2,1));
#224=IFCINDEXEDPOLYGONALFACE((1,7,5));
#225=IFCINDEXEDPOLYGONALFACE((5,3,1));
#226=IFCINDEXEDPOLYGONALFACE((16,9,10));
#227=IFCINDEXEDPOLYGONALFACE((10,11,12));
#228=IFCINDEXEDPOLYGONALFACE((12,13,14));
#229=IFCINDEXEDPOLYGONALFACE((14,15,16));
#230=IFCINDEXEDPOLYGONALFACE((16,10,12));
#231=IFCINDEXEDPOLYGONALFACE((12,14,16));
#232=IFCCARTESIANPOINTLIST3D(((1.29710569533626,-705.607902609782,140.),(8.36817350720156,-708.536834797916,140.),(11.2971056953363,-715.607902609782,140.),(8.36817350720156,-722.678970421647,140.),(1.29710569533626,-725.607902609782,140.),(-5.77396211652905,-722.678970421647,140.),(-8.70289430466374,-715.607902609782,140.),(-5.77396211652905,-708.536834797916,140.),(1.29710569533623,-705.607902609782,-20.0000000000001),(8.36817350720154,-708.536834797916,-20.0000000000001),(11.2971056953362,-715.607902609782,-20.0000000000001),(8.36817350720154,-722.678970421647,-20.0000000000001),(1.29710569533623,-725.607902609782,-20.0000000000001),(-5.77396211652907,-722.678970421647,-20.0000000000001),(-8.70289430466377,-715.607902609782,-20.0000000000001),(-5.77396211652907,-708.536834797916,-20.0000000000001)));
#233=IFCPOLYGONALFACESET(#232,.T.,(#212,#213,#214,#215,#216,#217,#218,#219,#220,#221,#222,#223,#224,#225,#226,#227,#228,#229,#230,#231),$);
#234=IFCSHAPEREPRESENTATION(#12,'Body','Tessellation',(#233));
#235=IFCPRODUCTDEFINITIONSHAPE($,$,(#234));
#236=IFCBUILDINGELEMENTPROXY('0N9G7pJI11CvzQ4wcsmd_H',$,'inner_beams_0_0_cutter_2',$,$,$,#261,$,$);
#237=IFCRELCONTAINEDINSPATIALSTRUCTURE('0eEyVR0Db5QRhvxdD5lf0t',$,$,$,(#236),#22);
#238=IFCINDEXEDPOLYGONALFACE((1,2,10,9));
#239=IFCINDEXEDPOLYGONALFACE((2,3,11,10));
#240=IFCINDEXEDPOLYGONALFACE((3,4,12,11));
#241=IFCINDEXEDPOLYGONALFACE((4,5,13,12));
#242=IFCINDEXEDPOLYGONALFACE((5,6,14,13));
#243=IFCINDEXEDPOLYGONALFACE((6,7,15,14));
#244=IFCINDEXEDPOLYGONALFACE((7,8,16,15));
#245=IFCINDEXEDPOLYGONALFACE((8,1,9,16));
#246=IFCINDEXEDPOLYGONALFACE((1,8,7));
#247=IFCINDEXEDPOLYGONALFACE((7,6,5));
#248=IFCINDEXEDPOLYGONALFACE((5,4,3));
#249=IFCINDEXEDPOLYGONALFACE((3,2,1));
#250=IFCINDEXEDPOLYGONALFACE((1,7,5));
#251=IFCINDEXEDPOLYGONALFACE((5,3,1));
#252=IFCINDEXEDPOLYGONALFACE((16,9,10));
#253=IFCINDEXEDPOLYGONALFACE((10,11,12));
#254=IFCINDEXEDPOLYGONALFACE((12,13,14));
#255=IFCINDEXEDPOLYGONALFACE((14,15,16));
#256=IFCINDEXEDPOLYGONALFACE((16,10,12));
#257=IFCINDEXEDPOLYGONALFACE((12,14,16));
#258=IFCCARTESIANPOINTLIST3D(((1.29710569533624,-365.857020706363,140.),(8.36817350720154,-368.785952894498,140.),(11.2971056953362,-375.857020706363,140.),(8.36817350720154,-382.928088518229,140.),(1.29710569533624,-385.857020706363,140.),(-5.77396211652907,-382.928088518229,140.),(-8.70289430466376,-375.857020706363,140.),(-5.77396211652907,-368.785952894498,140.),(1.29710569533621,-365.857020706363,-20.0000000000001),(8.36817350720152,-368.785952894498,-20.0000000000001),(11.2971056953362,-375.857020706363,-20.0000000000001),(8.36817350720152,-382.928088518229,-20.0000000000001),(1.29710569533621,-385.857020706363,-20.0000000000001),(-5.77396211652909,-382.928088518229,-20.0000000000001),(-8.70289430466379,-375.857020706363,-20.0000000000001),(-5.77396211652909,-368.785952894498,-20.0000000000001)));
#259=IFCPOLYGONALFACESET(#258,.T.,(#238,#239,#240,#241,#242,#243,#244,#245,#246,#247,#248,#249,#250,#251,#252,#253,#254,#255,#256,#257),$);
#260=IFCSHAPEREPRESENTATION(#12,'Body','Tessellation',(#259));
#261=IFCPRODUCTDEFINITIONSHAPE($,$,(#260));
#262=IFCBUILDINGELEMENTPROXY('2vCFA9GyD4XBKnfwogKZ_N',$,'inner_beams_0_0_cutter_3',$,$,$,#287,$,$);
#263=IFCRELCONTAINEDINSPATIALSTRUCTURE('3ocRHS73vCHB6c9CYLRqYH',$,$,$,(#262),#22);
#264=IFCINDEXEDPOLYGONALFACE((1,2,10,9));
#265=IFCINDEXEDPOLYGONALFACE((2,3,11,10));
#266=IFCINDEXEDPOLYGONALFACE((3,4,12,11));
#267=IFCINDEXEDPOLYGONALFACE((4,5,13,12));
#268=IFCINDEXEDPOLYGONALFACE((5,6,14,13));
#269=IFCINDEXEDPOLYGONALFACE((6,7,15,14));
#270=IFCINDEXEDPOLYGONALFACE((7,8,16,15));
#271=IFCINDEXEDPOLYGONALFACE((8,1,9,16));
#272=IFCINDEXEDPOLYGONALFACE((1,8,7));
#273=IFCINDEXEDPOLYGONALFACE((7,6,5));
#274=IFCINDEXEDPOLYGONALFACE((5,4,3));
#275=IFCINDEXEDPOLYGONALFACE((3,2,1));
#276=IFCINDEXEDPOLYGONALFACE((1,7,5));
#277=IFCINDEXEDPOLYGONALFACE((5,3,1));
#278=IFCINDEXEDPOLYGONALFACE((16,9,10));
#279=IFCINDEXEDPOLYGONALFACE((10,11,12));
#280=IFCINDEXEDPOLYGONALFACE((12,13,14));
#281=IFCINDEXEDPOLYGONALFACE((14,15,16));
#282=IFCINDEXEDPOLYGONALFACE((16,10,12));
#283=IFCINDEXEDPOLYGONALFACE((12,14,16));
#284=IFCCARTESIANPOINTLIST3D(((1.29710569533622,-26.1061388029454,140.),(8.36817350720152,-29.0350709910799,140.),(11.2971056953362,-36.1061388029454,140.),(8.36817350720152,-43.177206614811,140.),(1.29710569533622,-46.1061388029454,140.),(-5.77396211652909,-43.177206614811,140.),(-8.70289430466378,-36.1061388029454,140.),(-5.77396211652909,-29.0350709910799,140.),(1.29710569533619,-26.1061388029454,-20.0000000000001),(8.3681735072015,-29.0350709910799,-20.0000000000001),(11.2971056953362,-36.1061388029454,-20.0000000000001),(8.3681735072015,-43.177206614811,-20.0000000000001),(1.29710569533619,-46.1061388029454,-20.0000000000001),(-5.77396211652911,-43.177206614811,-20.0000000000001),(-8.70289430466381,-36.1061388029454,-20.0000000000001),(-5.77396211652911,-29.0350709910799,-20.0000000000001)));
#285=IFCPOLYGONALFACESET(#284,.T.,(#264,#265,#266,#267,#268,#269,#270,#271,#272,#273,#274,#275,#276,#277,#278,#279,#280,#281,#282,#283),$);
#286=IFCSHAPEREPRESENTATION(#12,'Body','Tessellation',(#285));
#287=IFCPRODUCTDEFINITIONSHAPE($,$,(#286));
#288=IFCBUILDINGELEMENTPROXY('2Pl3DUqqjDxBoFtXwRbDu4',$,'inner_beams_0_0_cutter_4',$,$,$,#313,$,$);
#289=IFCRELCONTAINEDINSPATIALSTRUCTURE('3Jg3ypSvP84PEKo_Vtb8tx',$,$,$,(#288),#22);
#290=IFCINDEXEDPOLYGONALFACE((1,2,10,9));
#291=IFCINDEXEDPOLYGONALFACE((2,3,11,10));
#292=IFCINDEXEDPOLYGONALFACE((3,4,12,11));
#293=IFCINDEXEDPOLYGONALFACE((4,5,13,12));
#294=IFCINDEXEDPOLYGONALFACE((5,6,14,13));
#295=IFCINDEXEDPOLYGONALFACE((6,7,15,14));
#296=IFCINDEXEDPOLYGONALFACE((7,8,16,15));
#297=IFCINDEXEDPOLYGONALFACE((8,1,9,16));
#298=IFCINDEXEDPOLYGONALFACE((1,8,7));
#299=IFCINDEXEDPOLYGONALFACE((7,6,5));
#300=IFCINDEXEDPOLYGONALFACE((5,4,3));
#301=IFCINDEXEDPOLYGONALFACE((3,2,1));
#302=IFCINDEXEDPOLYGONALFACE((1,7,5));
#303=IFCINDEXEDPOLYGONALFACE((5,3,1));
#304=IFCINDEXEDPOLYGONALFACE((16,9,10));
#305=IFCINDEXEDPOLYGONALFACE((10,11,12));
#306=IFCINDEXEDPOLYGONALFACE((12,13,14));
#307=IFCINDEXEDPOLYGONALFACE((14,15,16));
#308=IFCINDEXEDPOLYGONALFACE((16,10,12));
#309=IFCINDEXEDPOLYGONALFACE((12,14,16));
#310=IFCCARTESIANPOINTLIST3D(((1.2971056953362,313.644743100473,140.),(8.3681735072015,310.715810912338,140.),(11.2971056953362,303.644743100473,140.),(8.3681735072015,296.573675288607,140.),(1.2971056953362,293.644743100473,140.),(-5.77396211652911,296.573675288607,140.),(-8.7028943046638,303.644743100473,140.),(-5.77396211652911,310.715810912338,140.),(1.29710569533617,313.644743100473,-20.),(8.36817350720148,310.715810912338,-20.),(11.2971056953362,303.644743100473,-20.),(8.36817350720148,296.573675288607,-20.),(1.29710569533617,293.644743100473,-20.),(-5.77396211652913,296.573675288607,-20.),(-8.70289430466383,303.644743100473,-20.),(-5.77396211652913,310.715810912338,-20.)));
#311=IFCPOLYGONALFACESET(#310,.T.,(#290,#291,#292,#293,#294,#295,#296,#297,#298,#299,#300,#301,#302,#303,#304,#305,#306,#307,#308,#309),$);
#312=IFCSHAPEREPRESENTATION(#12,'Body','Tessellation',(#311));
#313=IFCPRODUCTDEFINITIONSHAPE($,$,(#312));
#314=IFCBUILDINGELEMENTPROXY('1$kJ7KnCbFmv1EvaLYa2_i',$,'inner_beams_0_0_cutter_5',$,$,$,#339,$,$);
#315=IFCRELCONTAINEDINSPATIALSTRUCTURE('2qvsSUo9T6Re4AQrmMsjXG',$,$,$,(#314),#22);
#316=IFCINDEXEDPOLYGONALFACE((1,2,10,9));
#317=IFCINDEXEDPOLYGONALFACE((2,3,11,10));
#318=IFCINDEXEDPOLYGONALFACE((3,4,12,11));
#319=IFCINDEXEDPOLYGONALFACE((4,5,13,12));
#320=IFCINDEXEDPOLYGONALFACE((5,6,14,13));
#321=IFCINDEXEDPOLYGONALFACE((6,7,15,14));
#322=IFCINDEXEDPOLYGONALFACE((7,8,16,15));
#323=IFCINDEXEDPOLYGONALFACE((8,1,9,16));
#324=IFCINDEXEDPOLYGONALFACE((1,8,7));
#325=IFCINDEXEDPOLYGONALFACE((7,6,5));
#326=IFCINDEXEDPOLYGONALFACE((5,4,3));
#327=IFCINDEXEDPOLYGONALFACE((3,2,1));
#328=IFCINDEXEDPOLYGONALFACE((1,7,5));
#329=IFCINDEXEDPOLYGONALFACE((5,3,1));
#330=IFCINDEXEDPOLYGONALFACE((16,9,10));
#331=IFCINDEXEDPOLYGONALFACE((10,11,12));
#332=IFCINDEXEDPOLYGONALFACE((12,13,14));
#333=IFCINDEXEDPOLYGONALFACE((14,15,16));
#334=IFCINDEXEDPOLYGONALFACE((16,10,12));
#335=IFCINDEXEDPOLYGONALFACE((12,14,16));
#336=IFCCARTESIANPOINTLIST3D(((1.29710569533618,653.39562500389,140.),(8.36817350720148,650.466692815756,140.),(11.2971056953362,643.39562500389,140.),(8.36817350720148,636.324557192025,140.),(1.29710569533618,633.39562500389,140.),(-5.77396211652913,636.324557192025,140.),(-8.70289430466382,643.39562500389,140.),(-5.77396211652913,650.466692815756,140.),(1.29710569533615,653.39562500389,-20.),(8.36817350720145,650.466692815756,-20.),(11.2971056953362,643.39562500389,-20.),(8.36817350720146,636.324557192025,-20.),(1.29710569533615,633.39562500389,-20.),(-5.77396211652915,636.324557192025,-20.),(-8.70289430466385,643.39562500389,-20.),(-5.77396211652915,650.466692815756,-20.)));
#337=IFCPOLYGONALFACESET(#336,.T.,(#316,#317,#318,#319,#320,#321,#322,#323,#324,#325,#326,#327,#328,#329,#330,#331,#332,#333,#334,#335),$);
#338=IFCSHAPEREPRESENTATION(#12,'Body','Tessellation',(#337));
#339=IFCPRODUCTDEFINITIONSHAPE($,$,(#338));
ENDSEC;
END-ISO-10303-21;
