ISO-10303-21;
HEADER;
FILE_DESCRIPTION(('ViewDefinition [CoordinationView]'),'2;1');
FILE_NAME('','2026-08-25T22:33:30',(''),(''),'IfcOpenShell 0.8.4-e8eb5e4','IfcOpenShell 0.8.4-e8eb5e4','');
FILE_SCHEMA(('IFC4'));
ENDSEC;
DATA;
#1=IFCPROJECT('2TQKYBwxHAavjkptzaY5wR',$,'Default Project',$,$,$,$,(#11),#6);
#2=IFCSIUNIT(*,.LENGTHUNIT.,.MILLI.,.METRE.);
#3=IFCSIUNIT(*,.AREAUNIT.,.MILLI.,.SQUARE_METRE.);
#4=IFCSIUNIT(*,.VOLUMEUNIT.,.MILLI.,.CUBIC_METRE.);
#5=IFCSIUNIT(*,.PLANEANGLEUNIT.,$,.RADIAN.);
#6=IFCUNITASSIGNMENT((#2,#3,#4,#5));
#7=IFCCARTESIANPOINT((0.,0.,0.));
#8=IFCDIRECTION((0.,0.,1.));
#9=IFCDIRECTION((1.,0.,0.));
#10=IFCAXIS2PLACEMENT3D(#7,#8,#9);
#11=IFCGEOMETRICREPRESENTATIONCONTEXT($,'Model',3,1.E-05,#10,$);
#12=IFCGEOMETRICREPRESENTATIONSUBCONTEXT('Body','Model',*,*,*,*,#11,$,.MODEL_VIEW.,$);
#13=IFCPERSON($,'Unknown Author',$,$,$,$,$,$);
#14=IFCORGANIZATION($,'compas.dev',$,$,$);
#15=IFCPERSONANDORGANIZATION(#13,#14,$);
#16=IFCAPPLICATION(#14,'2.1.0','compas_ifc','compas_ifc v2.1.0');
#17=IFCOWNERHISTORY(#15,#16,$,$,$,$,$,1787690010);
#18=IFCSITE('3aMuVAYrz0h8jKXrv0XWhl',$,'Default Site',$,$,$,$,$,$,$,$,$,$,$);
#19=IFCRELAGGREGATES('2FB38xGvLA1eaRpEovGZhw',$,$,$,#1,(#18));
#20=IFCBUILDING('2TLSe_1pj6xuQA5RxVjD6F',$,'Default Building 1',$,$,$,$,$,$,$,$,$);
#21=IFCRELAGGREGATES('1o8sCYA0DCnwZJmK4hqJVE',$,$,$,#18,(#20));
#22=IFCBUILDINGSTOREY('0CT7d23vT5ZeKw5uVRcfL_',$,'Default Storey 1',$,$,$,$,$,$,$);
#23=IFCRELAGGREGATES('0PYm6mSHb9YPZbfGLNA5yl',$,$,$,#20,(#22));
#24=IFCBUILDINGELEMENTPROXY('1kV5DI6M9AtveJViHcL4dx',$,'inner_beams_2_0_uncut',$,$,$,#37,$,$);
#25=IFCRELCONTAINEDINSPATIALSTRUCTURE('2m9LAyPTT9Pez$M8DEdHOI',$,$,$,(#24),#22);
#26=IFCINDEXEDPOLYGONALFACE((1,2,6,5));
#27=IFCINDEXEDPOLYGONALFACE((2,3,7,6));
#28=IFCINDEXEDPOLYGONALFACE((3,4,8,7));
#29=IFCINDEXEDPOLYGONALFACE((4,1,5,8));
#30=IFCINDEXEDPOLYGONALFACE((1,4,3));
#31=IFCINDEXEDPOLYGONALFACE((3,2,1));
#32=IFCINDEXEDPOLYGONALFACE((8,5,6));
#33=IFCINDEXEDPOLYGONALFACE((6,7,8));
#34=IFCCARTESIANPOINTLIST3D(((-986.106138802945,-98.7028943046645,60.),(-986.106138802945,98.2971056953355,60.),(938.268209135976,98.2971056953356,60.),(913.893861197055,-98.7028943046644,59.9999999999999),(-986.106138802945,-98.7028943046645,3.48481589427308E-14),(-986.106138802945,98.2971056953355,3.16814274410106E-15),(998.268209135976,98.2971056953356,3.16814274410105E-15),(973.893861197055,-98.7028943046644,-2.12970442458226E-14)));
#35=IFCPOLYGONALFACESET(#34,.T.,(#26,#27,#28,#29,#30,#31,#32,#33),$);
#36=IFCSHAPEREPRESENTATION(#12,'Body','Tessellation',(#35));
#37=IFCPRODUCTDEFINITIONSHAPE($,$,(#36));
#38=IFCBUILDINGELEMENTPROXY('3t5GkGRPPFjh9aQUUMVvVA',$,'inner_beams_2_0_cut',$,$,$,#195,$,$);
#39=IFCRELCONTAINEDINSPATIALSTRUCTURE('1QsHav_cPEcQvKo7guQtMB',$,$,$,(#38),#22);
#40=IFCINDEXEDPOLYGONALFACE((1,2,3));
#41=IFCINDEXEDPOLYGONALFACE((1,3,5));
#42=IFCINDEXEDPOLYGONALFACE((1,5,20));
#43=IFCINDEXEDPOLYGONALFACE((1,7,2));
#44=IFCINDEXEDPOLYGONALFACE((2,8,4));
#45=IFCINDEXEDPOLYGONALFACE((4,10,6));
#46=IFCINDEXEDPOLYGONALFACE((2,7,8));
#47=IFCINDEXEDPOLYGONALFACE((4,8,10));
#48=IFCINDEXEDPOLYGONALFACE((1,15,7));
#49=IFCINDEXEDPOLYGONALFACE((1,12,13));
#50=IFCINDEXEDPOLYGONALFACE((1,13,15));
#51=IFCINDEXEDPOLYGONALFACE((15,9,7));
#52=IFCINDEXEDPOLYGONALFACE((15,11,9));
#53=IFCINDEXEDPOLYGONALFACE((1,56,57));
#54=IFCINDEXEDPOLYGONALFACE((1,67,12));
#55=IFCINDEXEDPOLYGONALFACE((1,57,59));
#56=IFCINDEXEDPOLYGONALFACE((1,59,67));
#57=IFCINDEXEDPOLYGONALFACE((20,5,17));
#58=IFCINDEXEDPOLYGONALFACE((20,17,19));
#59=IFCINDEXEDPOLYGONALFACE((6,22,18));
#60=IFCINDEXEDPOLYGONALFACE((19,18,24));
#61=IFCINDEXEDPOLYGONALFACE((6,10,22));
#62=IFCINDEXEDPOLYGONALFACE((20,19,24));
#63=IFCINDEXEDPOLYGONALFACE((18,22,24));
#64=IFCINDEXEDPOLYGONALFACE((11,25,23));
#65=IFCINDEXEDPOLYGONALFACE((24,23,25));
#66=IFCINDEXEDPOLYGONALFACE((20,24,25));
#67=IFCINDEXEDPOLYGONALFACE((20,25,27));
#68=IFCINDEXEDPOLYGONALFACE((15,25,11));
#69=IFCINDEXEDPOLYGONALFACE((20,27,73));
#70=IFCINDEXEDPOLYGONALFACE((1,61,56));
#71=IFCINDEXEDPOLYGONALFACE((12,67,14));
#72=IFCINDEXEDPOLYGONALFACE((56,63,58));
#73=IFCINDEXEDPOLYGONALFACE((58,65,60));
#74=IFCINDEXEDPOLYGONALFACE((61,62,56));
#75=IFCINDEXEDPOLYGONALFACE((56,62,63));
#76=IFCINDEXEDPOLYGONALFACE((58,63,65));
#77=IFCINDEXEDPOLYGONALFACE((61,64,62));
#78=IFCINDEXEDPOLYGONALFACE((61,66,64));
#79=IFCINDEXEDPOLYGONALFACE((61,73,66));
#80=IFCINDEXEDPOLYGONALFACE((14,67,69));
#81=IFCINDEXEDPOLYGONALFACE((60,70,68));
#82=IFCINDEXEDPOLYGONALFACE((69,68,72));
#83=IFCINDEXEDPOLYGONALFACE((73,16,14));
#84=IFCINDEXEDPOLYGONALFACE((73,26,16));
#85=IFCINDEXEDPOLYGONALFACE((73,27,26));
#86=IFCINDEXEDPOLYGONALFACE((73,14,69));
#87=IFCINDEXEDPOLYGONALFACE((60,65,70));
#88=IFCINDEXEDPOLYGONALFACE((68,70,72));
#89=IFCINDEXEDPOLYGONALFACE((73,69,72));
#90=IFCINDEXEDPOLYGONALFACE((73,71,66));
#91=IFCINDEXEDPOLYGONALFACE((73,72,71));
#92=IFCINDEXEDPOLYGONALFACE((81,61,1,28,29,80));
#93=IFCINDEXEDPOLYGONALFACE((1,20,48,28));
#94=IFCINDEXEDPOLYGONALFACE((74,21,49,48,20,73,94,93));
#95=IFCINDEXEDPOLYGONALFACE((28,48,49,29));
#96=IFCINDEXEDPOLYGONALFACE((94,73,61,81));
#97=IFCINDEXEDPOLYGONALFACE((93,94,81,80));
#98=IFCINDEXEDPOLYGONALFACE((30,2,4,32));
#99=IFCINDEXEDPOLYGONALFACE((3,2,30,31));
#100=IFCINDEXEDPOLYGONALFACE((3,31,33,5));
#101=IFCINDEXEDPOLYGONALFACE((6,34,32,4));
#102=IFCINDEXEDPOLYGONALFACE((37,35,7,9));
#103=IFCINDEXEDPOLYGONALFACE((36,8,7,35));
#104=IFCINDEXEDPOLYGONALFACE((38,10,8,36));
#105=IFCINDEXEDPOLYGONALFACE((39,37,9,11));
#106=IFCINDEXEDPOLYGONALFACE((42,40,12,14));
#107=IFCINDEXEDPOLYGONALFACE((12,40,41,13));
#108=IFCINDEXEDPOLYGONALFACE((41,43,15,13));
#109=IFCINDEXEDPOLYGONALFACE((16,44,42,14));
#110=IFCINDEXEDPOLYGONALFACE((45,17,5,33));
#111=IFCINDEXEDPOLYGONALFACE((46,34,6,18));
#112=IFCINDEXEDPOLYGONALFACE((45,47,19,17));
#113=IFCINDEXEDPOLYGONALFACE((46,18,19,47));
#114=IFCINDEXEDPOLYGONALFACE((22,10,38,50));
#115=IFCINDEXEDPOLYGONALFACE((23,51,39,11));
#116=IFCINDEXEDPOLYGONALFACE((50,52,24,22));
#117=IFCINDEXEDPOLYGONALFACE((52,51,23,24));
#118=IFCINDEXEDPOLYGONALFACE((53,25,15,43));
#119=IFCINDEXEDPOLYGONALFACE((44,16,26,54));
#120=IFCINDEXEDPOLYGONALFACE((55,27,25,53));
#121=IFCINDEXEDPOLYGONALFACE((54,26,27,55));
#122=IFCINDEXEDPOLYGONALFACE((30,29,31));
#123=IFCINDEXEDPOLYGONALFACE((31,29,21));
#124=IFCINDEXEDPOLYGONALFACE((30,35,29));
#125=IFCINDEXEDPOLYGONALFACE((30,32,35));
#126=IFCINDEXEDPOLYGONALFACE((32,34,36));
#127=IFCINDEXEDPOLYGONALFACE((34,38,36));
#128=IFCINDEXEDPOLYGONALFACE((35,80,29));
#129=IFCINDEXEDPOLYGONALFACE((32,36,35));
#130=IFCINDEXEDPOLYGONALFACE((51,41,40));
#131=IFCINDEXEDPOLYGONALFACE((51,43,41));
#132=IFCINDEXEDPOLYGONALFACE((31,21,33));
#133=IFCINDEXEDPOLYGONALFACE((45,33,21));
#134=IFCINDEXEDPOLYGONALFACE((45,21,47));
#135=IFCINDEXEDPOLYGONALFACE((46,38,34));
#136=IFCINDEXEDPOLYGONALFACE((46,47,50));
#137=IFCINDEXEDPOLYGONALFACE((46,50,38));
#138=IFCINDEXEDPOLYGONALFACE((47,52,50));
#139=IFCINDEXEDPOLYGONALFACE((47,21,52));
#140=IFCINDEXEDPOLYGONALFACE((51,52,53));
#141=IFCINDEXEDPOLYGONALFACE((52,21,53));
#142=IFCINDEXEDPOLYGONALFACE((53,21,55));
#143=IFCINDEXEDPOLYGONALFACE((51,53,43));
#144=IFCINDEXEDPOLYGONALFACE((55,21,89));
#145=IFCINDEXEDPOLYGONALFACE((35,37,80));
#146=IFCINDEXEDPOLYGONALFACE((37,39,80));
#147=IFCINDEXEDPOLYGONALFACE((51,80,39));
#148=IFCINDEXEDPOLYGONALFACE((40,42,80));
#149=IFCINDEXEDPOLYGONALFACE((51,40,80));
#150=IFCINDEXEDPOLYGONALFACE((42,44,80));
#151=IFCINDEXEDPOLYGONALFACE((54,80,44));
#152=IFCINDEXEDPOLYGONALFACE((54,76,75));
#153=IFCINDEXEDPOLYGONALFACE((54,78,76));
#154=IFCINDEXEDPOLYGONALFACE((54,75,80));
#155=IFCINDEXEDPOLYGONALFACE((75,77,82));
#156=IFCINDEXEDPOLYGONALFACE((77,79,83));
#157=IFCINDEXEDPOLYGONALFACE((75,82,80));
#158=IFCINDEXEDPOLYGONALFACE((82,84,80));
#159=IFCINDEXEDPOLYGONALFACE((84,86,80));
#160=IFCINDEXEDPOLYGONALFACE((77,83,82));
#161=IFCINDEXEDPOLYGONALFACE((79,85,83));
#162=IFCINDEXEDPOLYGONALFACE((86,74,80));
#163=IFCINDEXEDPOLYGONALFACE((54,55,87));
#164=IFCINDEXEDPOLYGONALFACE((54,87,78));
#165=IFCINDEXEDPOLYGONALFACE((55,89,87));
#166=IFCINDEXEDPOLYGONALFACE((89,21,92));
#167=IFCINDEXEDPOLYGONALFACE((88,85,79));
#168=IFCINDEXEDPOLYGONALFACE((89,90,88));
#169=IFCINDEXEDPOLYGONALFACE((92,21,74));
#170=IFCINDEXEDPOLYGONALFACE((88,90,85));
#171=IFCINDEXEDPOLYGONALFACE((89,92,90));
#172=IFCINDEXEDPOLYGONALFACE((91,74,86));
#173=IFCINDEXEDPOLYGONALFACE((91,92,74));
#174=IFCINDEXEDPOLYGONALFACE((29,49,21));
#175=IFCINDEXEDPOLYGONALFACE((56,58,77,75));
#176=IFCINDEXEDPOLYGONALFACE((75,76,57,56));
#177=IFCINDEXEDPOLYGONALFACE((59,57,76,78));
#178=IFCINDEXEDPOLYGONALFACE((58,60,79,77));
#179=IFCINDEXEDPOLYGONALFACE((83,63,62,82));
#180=IFCINDEXEDPOLYGONALFACE((84,82,62,64));
#181=IFCINDEXEDPOLYGONALFACE((83,85,65,63));
#182=IFCINDEXEDPOLYGONALFACE((66,86,84,64));
#183=IFCINDEXEDPOLYGONALFACE((87,67,59,78));
#184=IFCINDEXEDPOLYGONALFACE((79,60,68,88));
#185=IFCINDEXEDPOLYGONALFACE((89,69,67,87));
#186=IFCINDEXEDPOLYGONALFACE((69,89,88,68));
#187=IFCINDEXEDPOLYGONALFACE((65,85,90,70));
#188=IFCINDEXEDPOLYGONALFACE((91,86,66,71));
#189=IFCINDEXEDPOLYGONALFACE((92,72,70,90));
#190=IFCINDEXEDPOLYGONALFACE((72,92,91,71));
#191=IFCINDEXEDPOLYGONALFACE((93,80,74));
#192=IFCCARTESIANPOINTLIST3D(((-986.106138802945,98.2971056953356,7.105427357601E-15),(-715.60790260978,11.2971056953356,1.4210854715202E-14),(-722.678970421646,8.36817350720094,1.4210854715202E-14),(-708.536834797915,8.36817350720094,1.4210854715202E-14),(-725.60790260978,1.29710569533563,1.4210854715202E-14),(-705.60790260978,1.29710569533563,1.4210854715202E-14),(-375.857020706363,11.2971056953356,0.),(-382.928088518228,8.36817350720094,0.),(-368.785952894497,8.36817350720094,0.),(-385.857020706363,1.29710569533563,0.),(-365.857020706363,1.29710569533563,0.),(-36.106138802945,11.2971056953356,-7.105427357601E-15),(-43.1772066148105,8.36817350720094,-7.105427357601E-15),(-29.0350709910795,8.36817350720094,-7.105427357601E-15),(-46.106138802945,1.29710569533563,-7.105427357601E-15),(-26.106138802945,1.29710569533563,-7.105427357601E-15),(-722.678970421646,-5.77396211652967,1.4210854715202E-14),(-708.536834797915,-5.77396211652967,1.4210854715202E-14),(-715.60790260978,-8.70289430466437,1.4210854715202E-14),(-986.106138802945,-98.7028943046644,3.5527136788005E-14),(-885.48334356149,-98.7028943046644,29.9999998561365),(-382.928088518228,-5.77396211652967,0.),(-368.785952894497,-5.77396211652967,0.),(-375.857020706363,-8.70289430466437,0.),(-43.1772066148105,-5.77396211652967,-7.105427357601E-15),(-29.0350709910795,-5.77396211652967,-7.105427357601E-15),(-36.106138802945,-8.70289430466437,-7.105427357601E-15),(-986.106138802945,98.2971056953356,60.),(-885.48334356148,98.2971056953338,60.),(-715.60790260978,11.2971056953356,46.7512689719995),(-722.678970421646,8.36817350720094,46.3052386874035),(-708.536834797915,8.36817350720094,46.3052386874035),(-725.60790260978,1.29710569533563,45.2284263251028),(-705.60790260978,1.29710569533563,45.2284263251028),(-375.857020706363,11.2971056953356,46.7512689719994),(-382.928088518228,8.36817350720094,46.3052386874035),(-368.785952894497,8.36817350720094,46.3052386874035),(-385.857020706363,1.29710569533563,45.2284263251028),(-365.857020706363,1.29710569533563,45.2284263251028),(-36.106138802945,11.2971056953356,46.7512689719994),(-43.1772066148105,8.36817350720094,46.3052386874034),(-29.0350709910795,8.36817350720094,46.3052386874034),(-46.106138802945,1.29710569533563,45.2284263251028),(-26.106138802945,1.29710569533563,45.2284263251028),(-722.678970421646,-5.77396211652967,44.1516139628022),(-708.536834797915,-5.77396211652967,44.1516139628022),(-715.60790260978,-8.70289430466437,43.7055836782062),(-986.106138802945,-98.7028943046644,60.),(-885.48334356149,-98.7028943046644,60.),(-382.928088518228,-5.77396211652967,44.1516139628021),(-368.785952894497,-5.77396211652967,44.1516139628021),(-375.857020706363,-8.70289430466437,43.7055836782062),(-43.1772066148105,-5.77396211652967,44.1516139628021),(-29.0350709910795,-5.77396211652967,44.1516139628021),(-36.106138802945,-8.70289430466437,43.7055836782061),(303.644743100473,11.2971056953356,-7.105427357601E-15),(296.573675288607,8.36817350720094,0.),(310.715810912338,8.36817350720094,-7.105427357601E-15),(293.644743100473,1.29710569533563,-7.105427357601E-15),(313.644743100473,1.29710569533563,-1.4210854715202E-14),(998.268209135976,98.2971056953356,7.105427357601E-15),(643.395625003891,11.2971056953356,-7.105427357601E-15),(636.324557192025,8.36817350720094,-7.105427357601E-15),(650.466692815756,8.36817350720094,-7.105427357601E-15),(633.395625003891,1.29710569533563,-7.105427357601E-15),(653.395625003891,1.29710569533563,-7.105427357601E-15),(296.573675288607,-5.77396211652967,-7.105427357601E-15),(310.715810912338,-5.77396211652967,-1.4210854715202E-14),(303.644743100473,-8.70289430466437,-1.4210854715202E-14),(636.324557192025,-5.77396211652967,-7.105427357601E-15),(650.466692815756,-5.77396211652967,-7.105427357601E-15),(643.395625003891,-8.70289430466437,-1.4210854715202E-14),(973.893861197055,-98.7028943046644,-2.1316282072803E-14),(813.2710659556,-98.7028943046644,29.9999998561363),(303.644743100473,11.2971056953356,46.7512689719994),(296.573675288607,8.36817350720094,46.3052386874034),(310.715810912338,8.36817350720094,46.3052386874034),(293.644743100473,1.29710569533563,45.2284263251027),(313.644743100473,1.29710569533563,45.2284263251027),(813.2710659556,98.2971056953352,60.),(938.268209135976,98.2971056953356,60.),(643.395625003891,11.2971056953356,46.7512689719993),(636.324557192025,8.36817350720094,46.3052386874034),(650.466692815756,8.36817350720094,46.3052386874034),(633.395625003891,1.29710569533563,45.2284263251027),(653.395625003891,1.29710569533563,45.2284263251027),(296.573675288607,-5.77396211652967,44.151613962802),(310.715810912338,-5.77396211652967,44.151613962802),(303.644743100473,-8.70289430466437,43.7055836782061),(636.324557192025,-5.77396211652967,44.151613962802),(650.466692815756,-5.77396211652967,44.151613962802),(643.395625003891,-8.70289430466437,43.705583678206),(813.2710659556,-98.7028943046644,59.9999999999999),(913.893861197055,-98.7028943046644,59.9999999999999)));
#193=IFCPOLYGONALFACESET(#192,.T.,(#40,#41,#42,#43,#44,#45,#46,#47,#48,#49,#50,#51,#52,#53,#54,#55,#56,#57,#58,#59,#60,#61,#62,#63,#64,#65,#66,#67,#68,#69,#70,#71,#72,#73,#74,#75,#76,#77,#78,#79,#80,#81,#82,#83,#84,#85,#86,#87,#88,#89,#90,#91,#92,#93,#94,#95,#96,#97,#98,#99,#100,#101,#102,#103,#104,#105,#106,#107,#108,#109,#110,#111,#112,#113,#114,#115,#116,#117,#118,#119,#120,#121,#122,#123,#124,#125,#126,#127,#128,#129,#130,#131,#132,#133,#134,#135,#136,#137,#138,#139,#140,#141,#142,#143,#144,#145,#146,#147,#148,#149,#150,#151,#152,#153,#154,#155,#156,#157,#158,#159,#160,#161,#162,#163,#164,#165,#166,#167,#168,#169,#170,#171,#172,#173,#174,#175,#176,#177,#178,#179,#180,#181,#182,#183,#184,#185,#186,#187,#188,#189,#190,#191),$);
#194=IFCSHAPEREPRESENTATION(#12,'Body','Tessellation',(#193));
#195=IFCPRODUCTDEFINITIONSHAPE($,$,(#194));
#196=IFCBUILDINGELEMENTPROXY('292XGKq1H3pAbIk137Uxvy',$,'inner_beams_2_0_cutter_0',$,$,$,#209,$,$);
#197=IFCRELCONTAINEDINSPATIALSTRUCTURE('3rpsCyB890u94mB1WBctx8',$,$,$,(#196),#22);
#198=IFCINDEXEDPOLYGONALFACE((1,2,6,5));
#199=IFCINDEXEDPOLYGONALFACE((2,3,7,6));
#200=IFCINDEXEDPOLYGONALFACE((3,4,8,7));
#201=IFCINDEXEDPOLYGONALFACE((4,1,5,8));
#202=IFCINDEXEDPOLYGONALFACE((1,4,3));
#203=IFCINDEXEDPOLYGONALFACE((3,2,1));
#204=IFCINDEXEDPOLYGONALFACE((8,5,6));
#205=IFCINDEXEDPOLYGONALFACE((6,7,8));
#206=IFCCARTESIANPOINTLIST3D(((813.2710659556,98.2971056953356,60.),(-885.48334356149,98.2971056953355,60.0000000000003),(-885.48334356149,-110.233500304664,28.2440700000003),(813.2710659556,-110.233500304664,28.2440700000001),(813.2710659556,91.5643843360744,104.211536713799),(-885.48334356149,91.5643843360744,104.211536713799),(-885.48334356149,-116.966221663925,72.4556067137993),(813.2710659556,-116.966221663925,72.4556067137991)));
#207=IFCPOLYGONALFACESET(#206,.T.,(#198,#199,#200,#201,#202,#203,#204,#205),$);
#208=IFCSHAPEREPRESENTATION(#12,'Body','Tessellation',(#207));
#209=IFCPRODUCTDEFINITIONSHAPE($,$,(#208));
#210=IFCBUILDINGELEMENTPROXY('1LvOiC5KHFIOoF7Rgi9zPl',$,'inner_beams_2_0_cutter_1',$,$,$,#235,$,$);
#211=IFCRELCONTAINEDINSPATIALSTRUCTURE('0vnM4Y9DvBOQIIysi5hWm1',$,$,$,(#210),#22);
#212=IFCINDEXEDPOLYGONALFACE((1,2,10,9));
#213=IFCINDEXEDPOLYGONALFACE((2,3,11,10));
#214=IFCINDEXEDPOLYGONALFACE((3,4,12,11));
#215=IFCINDEXEDPOLYGONALFACE((4,5,13,12));
#216=IFCINDEXEDPOLYGONALFACE((5,6,14,13));
#217=IFCINDEXEDPOLYGONALFACE((6,7,15,14));
#218=IFCINDEXEDPOLYGONALFACE((7,8,16,15));
#219=IFCINDEXEDPOLYGONALFACE((8,1,9,16));
#220=IFCINDEXEDPOLYGONALFACE((1,8,7));
#221=IFCINDEXEDPOLYGONALFACE((7,6,5));
#222=IFCINDEXEDPOLYGONALFACE((5,4,3));
#223=IFCINDEXEDPOLYGONALFACE((3,2,1));
#224=IFCINDEXEDPOLYGONALFACE((1,7,5));
#225=IFCINDEXEDPOLYGONALFACE((5,3,1));
#226=IFCINDEXEDPOLYGONALFACE((16,9,10));
#227=IFCINDEXEDPOLYGONALFACE((10,11,12));
#228=IFCINDEXEDPOLYGONALFACE((12,13,14));
#229=IFCINDEXEDPOLYGONALFACE((14,15,16));
#230=IFCINDEXEDPOLYGONALFACE((16,10,12));
#231=IFCINDEXEDPOLYGONALFACE((12,14,16));
#232=IFCCARTESIANPOINTLIST3D(((643.395625003891,-8.70289430466439,140.),(636.324557192025,-5.7739621165297,140.),(633.395625003891,1.29710569533561,140.),(636.324557192025,8.36817350720091,140.),(643.395625003891,11.2971056953356,140.),(650.466692815756,8.36817350720091,140.),(653.395625003891,1.29710569533561,140.),(650.466692815756,-5.7739621165297,140.),(643.395625003891,-8.70289430466442,-19.9999999999999),(636.324557192025,-5.77396211652972,-19.9999999999999),(633.395625003891,1.29710569533558,-19.9999999999999),(636.324557192025,8.36817350720089,-19.9999999999999),(643.395625003891,11.2971056953356,-19.9999999999999),(650.466692815756,8.36817350720089,-19.9999999999999),(653.395625003891,1.29710569533558,-19.9999999999999),(650.466692815756,-5.77396211652972,-19.9999999999999)));
#233=IFCPOLYGONALFACESET(#232,.T.,(#212,#213,#214,#215,#216,#217,#218,#219,#220,#221,#222,#223,#224,#225,#226,#227,#228,#229,#230,#231),$);
#234=IFCSHAPEREPRESENTATION(#12,'Body','Tessellation',(#233));
#235=IFCPRODUCTDEFINITIONSHAPE($,$,(#234));
#236=IFCBUILDINGELEMENTPROXY('0Bl4TUgKH0$RFr0ySf2JG0',$,'inner_beams_2_0_cutter_2',$,$,$,#261,$,$);
#237=IFCRELCONTAINEDINSPATIALSTRUCTURE('2i467XOX16nxS2KPhwGUYT',$,$,$,(#236),#22);
#238=IFCINDEXEDPOLYGONALFACE((1,2,10,9));
#239=IFCINDEXEDPOLYGONALFACE((2,3,11,10));
#240=IFCINDEXEDPOLYGONALFACE((3,4,12,11));
#241=IFCINDEXEDPOLYGONALFACE((4,5,13,12));
#242=IFCINDEXEDPOLYGONALFACE((5,6,14,13));
#243=IFCINDEXEDPOLYGONALFACE((6,7,15,14));
#244=IFCINDEXEDPOLYGONALFACE((7,8,16,15));
#245=IFCINDEXEDPOLYGONALFACE((8,1,9,16));
#246=IFCINDEXEDPOLYGONALFACE((1,8,7));
#247=IFCINDEXEDPOLYGONALFACE((7,6,5));
#248=IFCINDEXEDPOLYGONALFACE((5,4,3));
#249=IFCINDEXEDPOLYGONALFACE((3,2,1));
#250=IFCINDEXEDPOLYGONALFACE((1,7,5));
#251=IFCINDEXEDPOLYGONALFACE((5,3,1));
#252=IFCINDEXEDPOLYGONALFACE((16,9,10));
#253=IFCINDEXEDPOLYGONALFACE((10,11,12));
#254=IFCINDEXEDPOLYGONALFACE((12,13,14));
#255=IFCINDEXEDPOLYGONALFACE((14,15,16));
#256=IFCINDEXEDPOLYGONALFACE((16,10,12));
#257=IFCINDEXEDPOLYGONALFACE((12,14,16));
#258=IFCCARTESIANPOINTLIST3D(((303.644743100473,-8.7028943046644,140.),(296.573675288607,-5.77396211652971,140.),(293.644743100473,1.2971056953356,140.),(296.573675288607,8.3681735072009,140.),(303.644743100473,11.2971056953356,140.),(310.715810912338,8.3681735072009,140.),(313.644743100473,1.2971056953356,140.),(310.715810912338,-5.77396211652971,140.),(303.644743100473,-8.70289430466443,-19.9999999999999),(296.573675288607,-5.77396211652973,-19.9999999999999),(293.644743100473,1.29710569533557,-19.9999999999999),(296.573675288607,8.36817350720088,-19.9999999999999),(303.644743100473,11.2971056953356,-19.9999999999999),(310.715810912338,8.36817350720088,-19.9999999999999),(313.644743100473,1.29710569533557,-19.9999999999999),(310.715810912338,-5.77396211652973,-19.9999999999999)));
#259=IFCPOLYGONALFACESET(#258,.T.,(#238,#239,#240,#241,#242,#243,#244,#245,#246,#247,#248,#249,#250,#251,#252,#253,#254,#255,#256,#257),$);
#260=IFCSHAPEREPRESENTATION(#12,'Body','Tessellation',(#259));
#261=IFCPRODUCTDEFINITIONSHAPE($,$,(#260));
#262=IFCBUILDINGELEMENTPROXY('1LN06Akbn9MAifXVD$N88o',$,'inner_beams_2_0_cutter_3',$,$,$,#287,$,$);
#263=IFCRELCONTAINEDINSPATIALSTRUCTURE('03SeWrNhXFWQ5G2iuLJWYt',$,$,$,(#262),#22);
#264=IFCINDEXEDPOLYGONALFACE((1,2,10,9));
#265=IFCINDEXEDPOLYGONALFACE((2,3,11,10));
#266=IFCINDEXEDPOLYGONALFACE((3,4,12,11));
#267=IFCINDEXEDPOLYGONALFACE((4,5,13,12));
#268=IFCINDEXEDPOLYGONALFACE((5,6,14,13));
#269=IFCINDEXEDPOLYGONALFACE((6,7,15,14));
#270=IFCINDEXEDPOLYGONALFACE((7,8,16,15));
#271=IFCINDEXEDPOLYGONALFACE((8,1,9,16));
#272=IFCINDEXEDPOLYGONALFACE((1,8,7));
#273=IFCINDEXEDPOLYGONALFACE((7,6,5));
#274=IFCINDEXEDPOLYGONALFACE((5,4,3));
#275=IFCINDEXEDPOLYGONALFACE((3,2,1));
#276=IFCINDEXEDPOLYGONALFACE((1,7,5));
#277=IFCINDEXEDPOLYGONALFACE((5,3,1));
#278=IFCINDEXEDPOLYGONALFACE((16,9,10));
#279=IFCINDEXEDPOLYGONALFACE((10,11,12));
#280=IFCINDEXEDPOLYGONALFACE((12,13,14));
#281=IFCINDEXEDPOLYGONALFACE((14,15,16));
#282=IFCINDEXEDPOLYGONALFACE((16,10,12));
#283=IFCINDEXEDPOLYGONALFACE((12,14,16));
#284=IFCCARTESIANPOINTLIST3D(((-36.1061388029449,-8.70289430466441,140.),(-43.1772066148104,-5.77396211652972,140.),(-46.1061388029449,1.29710569533559,140.),(-43.1772066148104,8.36817350720089,140.),(-36.1061388029449,11.2971056953356,140.),(-29.0350709910794,8.36817350720089,140.),(-26.1061388029449,1.29710569533559,140.),(-29.0350709910794,-5.77396211652972,140.),(-36.1061388029449,-8.70289430466444,-19.9999999999998),(-43.1772066148104,-5.77396211652974,-19.9999999999998),(-46.1061388029449,1.29710569533556,-19.9999999999998),(-43.1772066148104,8.36817350720087,-19.9999999999998),(-36.1061388029449,11.2971056953356,-19.9999999999998),(-29.0350709910794,8.36817350720087,-19.9999999999998),(-26.1061388029449,1.29710569533556,-19.9999999999998),(-29.0350709910794,-5.77396211652974,-19.9999999999998)));
#285=IFCPOLYGONALFACESET(#284,.T.,(#264,#265,#266,#267,#268,#269,#270,#271,#272,#273,#274,#275,#276,#277,#278,#279,#280,#281,#282,#283),$);
#286=IFCSHAPEREPRESENTATION(#12,'Body','Tessellation',(#285));
#287=IFCPRODUCTDEFINITIONSHAPE($,$,(#286));
#288=IFCBUILDINGELEMENTPROXY('3oFBhMxtfEARKMWrl5Oy$8',$,'inner_beams_2_0_cutter_4',$,$,$,#313,$,$);
#289=IFCRELCONTAINEDINSPATIALSTRUCTURE('2MFpKR8onADwAFGSt4YZKX',$,$,$,(#288),#22);
#290=IFCINDEXEDPOLYGONALFACE((1,2,10,9));
#291=IFCINDEXEDPOLYGONALFACE((2,3,11,10));
#292=IFCINDEXEDPOLYGONALFACE((3,4,12,11));
#293=IFCINDEXEDPOLYGONALFACE((4,5,13,12));
#294=IFCINDEXEDPOLYGONALFACE((5,6,14,13));
#295=IFCINDEXEDPOLYGONALFACE((6,7,15,14));
#296=IFCINDEXEDPOLYGONALFACE((7,8,16,15));
#297=IFCINDEXEDPOLYGONALFACE((8,1,9,16));
#298=IFCINDEXEDPOLYGONALFACE((1,8,7));
#299=IFCINDEXEDPOLYGONALFACE((7,6,5));
#300=IFCINDEXEDPOLYGONALFACE((5,4,3));
#301=IFCINDEXEDPOLYGONALFACE((3,2,1));
#302=IFCINDEXEDPOLYGONALFACE((1,7,5));
#303=IFCINDEXEDPOLYGONALFACE((5,3,1));
#304=IFCINDEXEDPOLYGONALFACE((16,9,10));
#305=IFCINDEXEDPOLYGONALFACE((10,11,12));
#306=IFCINDEXEDPOLYGONALFACE((12,13,14));
#307=IFCINDEXEDPOLYGONALFACE((14,15,16));
#308=IFCINDEXEDPOLYGONALFACE((16,10,12));
#309=IFCINDEXEDPOLYGONALFACE((12,14,16));
#310=IFCCARTESIANPOINTLIST3D(((-375.857020706363,-8.70289430466442,140.),(-382.928088518228,-5.77396211652973,140.),(-385.857020706363,1.29710569533558,140.),(-382.928088518228,8.36817350720088,140.),(-375.857020706363,11.2971056953356,140.),(-368.785952894497,8.36817350720088,140.),(-365.857020706363,1.29710569533558,140.),(-368.785952894497,-5.77396211652973,140.),(-375.857020706363,-8.70289430466445,-19.9999999999998),(-382.928088518228,-5.77396211652975,-19.9999999999998),(-385.857020706363,1.29710569533555,-19.9999999999998),(-382.928088518228,8.36817350720086,-19.9999999999998),(-375.857020706363,11.2971056953356,-19.9999999999998),(-368.785952894497,8.36817350720086,-19.9999999999998),(-365.857020706363,1.29710569533555,-19.9999999999998),(-368.785952894497,-5.77396211652975,-19.9999999999998)));
#311=IFCPOLYGONALFACESET(#310,.T.,(#290,#291,#292,#293,#294,#295,#296,#297,#298,#299,#300,#301,#302,#303,#304,#305,#306,#307,#308,#309),$);
#312=IFCSHAPEREPRESENTATION(#12,'Body','Tessellation',(#311));
#313=IFCPRODUCTDEFINITIONSHAPE($,$,(#312));
#314=IFCBUILDINGELEMENTPROXY('2gSbuPdE114ejl$3XQY67$',$,'inner_beams_2_0_cutter_5',$,$,$,#339,$,$);
#315=IFCRELCONTAINEDINSPATIALSTRUCTURE('294BIgGfjCeuYYCRwpletY',$,$,$,(#314),#22);
#316=IFCINDEXEDPOLYGONALFACE((1,2,10,9));
#317=IFCINDEXEDPOLYGONALFACE((2,3,11,10));
#318=IFCINDEXEDPOLYGONALFACE((3,4,12,11));
#319=IFCINDEXEDPOLYGONALFACE((4,5,13,12));
#320=IFCINDEXEDPOLYGONALFACE((5,6,14,13));
#321=IFCINDEXEDPOLYGONALFACE((6,7,15,14));
#322=IFCINDEXEDPOLYGONALFACE((7,8,16,15));
#323=IFCINDEXEDPOLYGONALFACE((8,1,9,16));
#324=IFCINDEXEDPOLYGONALFACE((1,8,7));
#325=IFCINDEXEDPOLYGONALFACE((7,6,5));
#326=IFCINDEXEDPOLYGONALFACE((5,4,3));
#327=IFCINDEXEDPOLYGONALFACE((3,2,1));
#328=IFCINDEXEDPOLYGONALFACE((1,7,5));
#329=IFCINDEXEDPOLYGONALFACE((5,3,1));
#330=IFCINDEXEDPOLYGONALFACE((16,9,10));
#331=IFCINDEXEDPOLYGONALFACE((10,11,12));
#332=IFCINDEXEDPOLYGONALFACE((12,13,14));
#333=IFCINDEXEDPOLYGONALFACE((14,15,16));
#334=IFCINDEXEDPOLYGONALFACE((16,10,12));
#335=IFCINDEXEDPOLYGONALFACE((12,14,16));
#336=IFCCARTESIANPOINTLIST3D(((-715.60790260978,-8.70289430466443,140.),(-722.678970421646,-5.77396211652974,140.),(-725.60790260978,1.29710569533557,140.),(-722.678970421646,8.36817350720087,140.),(-715.60790260978,11.2971056953356,140.),(-708.536834797915,8.36817350720087,140.),(-705.60790260978,1.29710569533557,140.),(-708.536834797915,-5.77396211652974,140.),(-715.60790260978,-8.70289430466446,-19.9999999999997),(-722.678970421646,-5.77396211652976,-19.9999999999997),(-725.60790260978,1.29710569533554,-19.9999999999997),(-722.678970421646,8.36817350720085,-19.9999999999997),(-715.60790260978,11.2971056953355,-19.9999999999997),(-708.536834797915,8.36817350720085,-19.9999999999997),(-705.60790260978,1.29710569533554,-19.9999999999997),(-708.536834797915,-5.77396211652976,-19.9999999999997)));
#337=IFCPOLYGONALFACESET(#336,.T.,(#316,#317,#318,#319,#320,#321,#322,#323,#324,#325,#326,#327,#328,#329,#330,#331,#332,#333,#334,#335),$);
#338=IFCSHAPEREPRESENTATION(#12,'Body','Tessellation',(#337));
#339=IFCPRODUCTDEFINITIONSHAPE($,$,(#338));
ENDSEC;
END-ISO-10303-21;
