# OBJ
# COMPAS
# version: 2.15.1
# precision: 3
# V F E: 94 204 306

o inner_beams_2_0_preview
v -986.106 98.297 0.000
v -715.608 11.297 0.000
v -722.679 8.368 0.000
v -708.537 8.368 0.000
v -725.608 1.297 0.000
v -705.608 1.297 0.000
v -375.857 11.297 0.000
v -382.928 8.368 0.000
v -368.786 8.368 0.000
v -385.857 1.297 0.000
v -365.857 1.297 0.000
v -36.106 11.297 -0.000
v -43.177 8.368 -0.000
v -29.035 8.368 -0.000
v -46.106 1.297 -0.000
v -26.106 1.297 -0.000
v -722.679 -5.774 0.000
v -708.537 -5.774 0.000
v -715.608 -8.703 0.000
v -986.106 -98.703 0.000
v -885.483 -98.703 30.000
v -382.928 -5.774 0.000
v -368.786 -5.774 0.000
v -375.857 -8.703 0.000
v -43.177 -5.774 -0.000
v -29.035 -5.774 -0.000
v -36.106 -8.703 -0.000
v -986.106 98.297 60.000
v -885.483 98.297 60.000
v -715.608 11.297 46.751
v -722.679 8.368 46.305
v -708.537 8.368 46.305
v -725.608 1.297 45.228
v -705.608 1.297 45.228
v -375.857 11.297 46.751
v -382.928 8.368 46.305
v -368.786 8.368 46.305
v -385.857 1.297 45.228
v -365.857 1.297 45.228
v -36.106 11.297 46.751
v -43.177 8.368 46.305
v -29.035 8.368 46.305
v -46.106 1.297 45.228
v -26.106 1.297 45.228
v -722.679 -5.774 44.152
v -708.537 -5.774 44.152
v -715.608 -8.703 43.706
v -986.106 -98.703 60.000
v -885.483 -98.703 60.000
v -382.928 -5.774 44.152
v -368.786 -5.774 44.152
v -375.857 -8.703 43.706
v -43.177 -5.774 44.152
v -29.035 -5.774 44.152
v -36.106 -8.703 43.706
v 303.645 11.297 -0.000
v 296.574 8.368 0.000
v 310.716 8.368 -0.000
v 293.645 1.297 -0.000
v 313.645 1.297 -0.000
v 998.268 98.297 0.000
v 643.396 11.297 -0.000
v 636.325 8.368 -0.000
v 650.467 8.368 -0.000
v 633.396 1.297 -0.000
v 653.396 1.297 -0.000
v 296.574 -5.774 -0.000
v 310.716 -5.774 -0.000
v 303.645 -8.703 -0.000
v 636.325 -5.774 -0.000
v 650.467 -5.774 -0.000
v 643.396 -8.703 -0.000
v 973.894 -98.703 -0.000
v 813.271 -98.703 30.000
v 303.645 11.297 46.751
v 296.574 8.368 46.305
v 310.716 8.368 46.305
v 293.645 1.297 45.228
v 313.645 1.297 45.228
v 813.271 98.297 60.000
v 938.268 98.297 60.000
v 643.396 11.297 46.751
v 636.325 8.368 46.305
v 650.467 8.368 46.305
v 633.396 1.297 45.228
v 653.396 1.297 45.228
v 296.574 -5.774 44.152
v 310.716 -5.774 44.152
v 303.645 -8.703 43.706
v 636.325 -5.774 44.152
v 650.467 -5.774 44.152
v 643.396 -8.703 43.706
v 813.271 -98.703 60.000
v 913.894 -98.703 60.000
f 1 2 3
f 1 3 5
f 1 5 20
f 1 7 2
f 2 8 4
f 4 10 6
f 2 7 8
f 4 8 10
f 1 15 7
f 1 12 13
f 1 13 15
f 15 9 7
f 15 11 9
f 1 56 57
f 1 67 12
f 1 57 59
f 1 59 67
f 20 5 17
f 20 17 19
f 6 22 18
f 19 18 24
f 6 10 22
f 20 19 24
f 18 22 24
f 11 25 23
f 24 23 25
f 20 24 25
f 20 25 27
f 15 25 11
f 20 27 73
f 1 61 56
f 12 67 14
f 56 63 58
f 58 65 60
f 61 62 56
f 56 62 63
f 58 63 65
f 61 64 62
f 61 66 64
f 61 73 66
f 14 67 69
f 60 70 68
f 69 68 72
f 73 16 14
f 73 26 16
f 73 27 26
f 73 14 69
f 60 65 70
f 68 70 72
f 73 69 72
f 73 71 66
f 73 72 71
f 30 29 31
f 31 29 21
f 30 35 29
f 30 32 35
f 32 34 36
f 34 38 36
f 35 80 29
f 32 36 35
f 51 41 40
f 51 43 41
f 31 21 33
f 45 33 21
f 45 21 47
f 46 38 34
f 46 47 50
f 46 50 38
f 47 52 50
f 47 21 52
f 51 52 53
f 52 21 53
f 53 21 55
f 51 53 43
f 55 21 89
f 35 37 80
f 37 39 80
f 51 80 39
f 40 42 80
f 51 40 80
f 42 44 80
f 54 80 44
f 54 76 75
f 54 78 76
f 54 75 80
f 75 77 82
f 77 79 83
f 75 82 80
f 82 84 80
f 84 86 80
f 77 83 82
f 79 85 83
f 86 74 80
f 54 55 87
f 54 87 78
f 55 89 87
f 89 21 92
f 88 85 79
f 89 90 88
f 92 21 74
f 88 90 85
f 89 92 90
f 91 74 86
f 91 92 74
f 29 49 21
f 93 80 74
f 80 81 61
f 61 1 28
f 28 29 80
f 80 61 28
f 28 1 20
f 20 48 28
f 21 49 48
f 73 94 93
f 21 48 20
f 73 93 74
f 74 21 20
f 20 73 74
f 29 28 48
f 48 49 29
f 81 94 73
f 73 61 81
f 80 93 94
f 94 81 80
f 32 30 2
f 2 4 32
f 31 3 2
f 2 30 31
f 5 3 31
f 31 33 5
f 4 6 34
f 34 32 4
f 9 37 35
f 35 7 9
f 35 36 8
f 8 7 35
f 36 38 10
f 10 8 36
f 11 39 37
f 37 9 11
f 14 42 40
f 40 12 14
f 13 12 40
f 40 41 13
f 13 41 43
f 43 15 13
f 14 16 44
f 44 42 14
f 33 45 17
f 17 5 33
f 18 46 34
f 34 6 18
f 17 45 47
f 47 19 17
f 47 46 18
f 18 19 47
f 50 22 10
f 10 38 50
f 11 23 51
f 51 39 11
f 22 50 52
f 52 24 22
f 24 52 51
f 51 23 24
f 43 53 25
f 25 15 43
f 54 44 16
f 16 26 54
f 53 55 27
f 27 25 53
f 55 54 26
f 26 27 55
f 75 56 58
f 58 77 75
f 56 75 76
f 76 57 56
f 78 59 57
f 57 76 78
f 77 58 60
f 60 79 77
f 82 83 63
f 63 62 82
f 64 84 82
f 82 62 64
f 63 83 85
f 85 65 63
f 64 66 86
f 86 84 64
f 78 87 67
f 67 59 78
f 88 79 60
f 60 68 88
f 87 89 69
f 69 67 87
f 68 69 89
f 89 88 68
f 70 65 85
f 85 90 70
f 71 91 86
f 86 66 71
f 90 92 72
f 72 70 90
f 71 72 92
f 92 91 71
