# OBJ
# COMPAS
# version: 2.15.1
# precision: 3
# V F E: 94 204 306

o inner_beams_0_0_preview
v 98.297 -986.106 -0.000
v 11.297 -715.608 -0.000
v 8.368 -722.679 -0.000
v 8.368 -708.537 -0.000
v 1.297 -725.608 -0.000
v 1.297 -705.608 -0.000
v 11.297 -375.857 -0.000
v 8.368 -382.928 -0.000
v 8.368 -368.786 -0.000
v 1.297 -385.857 -0.000
v 1.297 -365.857 -0.000
v 11.297 -36.106 -0.000
v 8.368 -43.177 -0.000
v 8.368 -29.035 -0.000
v 1.297 -46.106 -0.000
v 1.297 -26.106 -0.000
v -5.774 -722.679 -0.000
v -5.774 -708.537 -0.000
v -8.703 -715.608 -0.000
v -98.703 -986.106 -0.000
v -5.774 -382.928 -0.000
v -5.774 -368.786 -0.000
v -8.703 -375.857 -0.000
v -5.774 -43.177 -0.000
v -5.774 -29.035 -0.000
v -8.703 -36.106 -0.000
v -98.703 -885.483 30.000
v 11.297 303.645 0.000
v 8.368 296.574 0.000
v 8.368 310.716 0.000
v 1.297 293.645 0.000
v 1.297 313.645 0.000
v 98.297 998.268 0.000
v 11.297 643.396 0.000
v 8.368 636.325 0.000
v 8.368 650.467 0.000
v 1.297 633.396 0.000
v 1.297 653.396 0.000
v -5.774 296.574 0.000
v -5.774 310.716 0.000
v -8.703 303.645 0.000
v -5.774 636.325 0.000
v -5.774 650.467 0.000
v -8.703 643.396 0.000
v -98.703 973.894 0.000
v -98.703 813.271 30.000
v 98.297 -986.106 60.000
v 98.297 -885.483 60.000
v 11.297 -715.608 46.751
v 8.368 -722.679 46.305
v 8.368 -708.537 46.305
v 1.297 -725.608 45.228
v 1.297 -705.608 45.228
v 11.297 -375.857 46.751
v 8.368 -382.928 46.305
v 8.368 -368.786 46.305
v 1.297 -385.857 45.228
v 1.297 -365.857 45.228
v 11.297 -36.106 46.751
v 8.368 -43.177 46.305
v 8.368 -29.035 46.305
v 1.297 -46.106 45.228
v 1.297 -26.106 45.228
v -5.774 -722.679 44.152
v -5.774 -708.537 44.152
v -8.703 -715.608 43.706
v -5.774 -382.928 44.152
v -5.774 -368.786 44.152
v -8.703 -375.857 43.706
v -5.774 -43.177 44.152
v -5.774 -29.035 44.152
v -8.703 -36.106 43.706
v -98.703 -986.106 60.000
v -98.703 -885.483 60.000
v 11.297 303.645 46.751
v 8.368 296.574 46.305
v 8.368 310.716 46.305
v 1.297 293.645 45.228
v 1.297 313.645 45.228
v 98.297 813.271 60.000
v 98.297 938.268 60.000
v 11.297 643.396 46.751
v 8.368 636.325 46.305
v 8.368 650.467 46.305
v 1.297 633.396 45.228
v 1.297 653.396 45.228
v -5.774 296.574 44.152
v -5.774 310.716 44.152
v -8.703 303.645 43.706
v -5.774 636.325 44.152
v -5.774 650.467 44.152
v -8.703 643.396 43.706
v -98.703 813.271 60.000
v -98.703 913.894 60.000
f 1 3 2
f 1 5 3
f 1 20 5
f 1 2 7
f 7 2 4
f 4 6 8
f 6 10 8
f 1 12 33
f 1 7 24
f 1 13 12
f 1 15 13
f 1 24 15
f 7 4 8
f 7 9 24
f 9 11 24
f 20 17 5
f 20 19 17
f 6 18 10
f 18 19 21
f 10 18 21
f 21 19 23
f 20 23 19
f 11 22 24
f 22 23 24
f 20 24 23
f 20 26 24
f 20 45 26
f 14 16 29
f 14 29 28
f 16 31 29
f 33 12 14
f 33 14 28
f 34 28 30
f 30 32 35
f 33 28 34
f 30 35 34
f 32 37 35
f 33 34 36
f 33 36 38
f 33 38 45
f 16 39 31
f 16 41 39
f 32 40 37
f 40 41 42
f 45 16 25
f 45 25 26
f 45 41 16
f 37 40 42
f 42 41 44
f 45 44 41
f 45 38 43
f 45 43 44
f 49 50 48
f 50 52 48
f 52 27 48
f 49 48 54
f 49 55 51
f 51 57 53
f 49 54 55
f 51 55 57
f 54 48 70
f 60 48 59
f 60 62 48
f 70 48 62
f 54 70 56
f 56 70 58
f 59 48 75
f 64 27 52
f 64 66 27
f 65 53 67
f 65 69 66
f 53 57 67
f 65 67 69
f 68 58 70
f 68 72 69
f 68 70 72
f 66 69 46
f 66 46 27
f 75 48 80
f 59 76 61
f 61 78 63
f 59 75 76
f 61 76 78
f 75 83 77
f 77 85 79
f 75 80 82
f 82 80 84
f 84 80 86
f 91 86 80
f 75 82 83
f 77 83 85
f 71 63 87
f 63 78 87
f 71 87 89
f 69 72 46
f 71 46 72
f 88 79 90
f 89 88 92
f 71 89 46
f 79 85 90
f 88 90 92
f 89 92 46
f 91 46 92
f 91 80 46
f 27 74 48
f 93 46 80
f 20 1 47
f 47 73 20
f 20 73 74
f 46 93 94
f 20 74 27
f 46 94 45
f 45 20 27
f 27 46 45
f 80 48 47
f 47 1 33
f 33 81 80
f 80 47 33
f 33 45 94
f 94 81 33
f 74 73 47
f 47 48 74
f 81 94 93
f 93 80 81
f 2 3 50
f 50 49 2
f 2 49 51
f 51 4 2
f 50 3 5
f 5 52 50
f 4 51 53
f 53 6 4
f 7 8 55
f 55 54 7
f 54 56 9
f 9 7 54
f 57 55 8
f 8 10 57
f 9 56 58
f 58 11 9
f 60 59 12
f 12 13 60
f 14 12 59
f 59 61 14
f 15 62 60
f 60 13 15
f 16 14 61
f 61 63 16
f 52 5 17
f 17 64 52
f 53 65 18
f 18 6 53
f 66 64 17
f 17 19 66
f 66 19 18
f 18 65 66
f 67 57 10
f 10 21 67
f 68 22 11
f 11 58 68
f 69 67 21
f 21 23 69
f 69 23 22
f 22 68 69
f 62 15 24
f 24 70 62
f 25 16 63
f 63 71 25
f 72 70 24
f 24 26 72
f 25 71 72
f 72 26 25
f 29 76 75
f 75 28 29
f 77 30 28
f 28 75 77
f 31 78 76
f 76 29 31
f 30 77 79
f 79 32 30
f 35 83 82
f 82 34 35
f 36 34 82
f 82 84 36
f 83 35 37
f 37 85 83
f 86 38 36
f 36 84 86
f 87 78 31
f 31 39 87
f 88 40 32
f 32 79 88
f 89 41 40
f 40 88 89
f 39 41 89
f 89 87 39
f 42 90 85
f 85 37 42
f 86 91 43
f 43 38 86
f 90 42 44
f 44 92 90
f 43 91 92
f 92 44 43
