ISO-10303-21;
HEADER;
FILE_DESCRIPTION(('Open CASCADE Model'),'2;1');
FILE_NAME('Open CASCADE Shape Model','2026-08-25T22:33:34',('Author'),(
    'Open CASCADE'),'Open CASCADE STEP processor 8.0','Open CASCADE 8.0'
  ,'Unknown');
FILE_SCHEMA(('AUTOMOTIVE_DESIGN { 1 0 10303 214 1 1 1 1 }'));
ENDSEC;
DATA;
#1 = APPLICATION_PROTOCOL_DEFINITION('international standard',
  'automotive_design',2000,#2);
#2 = APPLICATION_CONTEXT(
  'core data for automotive mechanical design processes');
#3 = SHAPE_DEFINITION_REPRESENTATION(#4,#10);
#4 = PRODUCT_DEFINITION_SHAPE('','',#5);
#5 = PRODUCT_DEFINITION('design','',#6,#9);
#6 = PRODUCT_DEFINITION_FORMATION('','',#7);
#7 = PRODUCT('inner_ribs_0_0_fab 1','inner_ribs_0_0_fab 1','',(#8));
#8 = PRODUCT_CONTEXT('',#2,'mechanical');
#9 = PRODUCT_DEFINITION_CONTEXT('part definition',#2,'design');
#10 = SHAPE_REPRESENTATION('',(#11,#15,#19),#23);
#11 = AXIS2_PLACEMENT_3D('',#12,#13,#14);
#12 = CARTESIAN_POINT('',(0.,0.,0.));
#13 = DIRECTION('',(0.,0.,1.));
#14 = DIRECTION('',(1.,0.,-0.));
#15 = AXIS2_PLACEMENT_3D('',#16,#17,#18);
#16 = CARTESIAN_POINT('',(0.,0.,0.));
#17 = DIRECTION('',(0.,0.,1.));
#18 = DIRECTION('',(1.,0.,-0.));
#19 = AXIS2_PLACEMENT_3D('',#20,#21,#22);
#20 = CARTESIAN_POINT('',(0.,0.,0.));
#21 = DIRECTION('',(0.,0.,1.));
#22 = DIRECTION('',(1.,0.,-0.));
#23 = ( GEOMETRIC_REPRESENTATION_CONTEXT(3) 
GLOBAL_UNCERTAINTY_ASSIGNED_CONTEXT((#27)) GLOBAL_UNIT_ASSIGNED_CONTEXT(
(#24,#25,#26)) REPRESENTATION_CONTEXT('Context #1',
  '3D Context with UNIT and UNCERTAINTY') );
#24 = ( LENGTH_UNIT() NAMED_UNIT(*) SI_UNIT(.MILLI.,.METRE.) );
#25 = ( NAMED_UNIT(*) PLANE_ANGLE_UNIT() SI_UNIT($,.RADIAN.) );
#26 = ( NAMED_UNIT(*) SI_UNIT($,.STERADIAN.) SOLID_ANGLE_UNIT() );
#27 = UNCERTAINTY_MEASURE_WITH_UNIT(LENGTH_MEASURE(1.E-07),#24,
  'distance_accuracy_value','confusion accuracy');
#28 = PRODUCT_RELATED_PRODUCT_CATEGORY('part',$,(#7));
#29 = SHAPE_DEFINITION_REPRESENTATION(#30,#36);
#30 = PRODUCT_DEFINITION_SHAPE('','',#31);
#31 = PRODUCT_DEFINITION('design','',#32,#35);
#32 = PRODUCT_DEFINITION_FORMATION('','',#33);
#33 = PRODUCT('inner_ribs_0_0_fab 1.1','inner_ribs_0_0_fab 1.1','',(#34)
  );
#34 = PRODUCT_CONTEXT('',#2,'mechanical');
#35 = PRODUCT_DEFINITION_CONTEXT('part definition',#2,'design');
#36 = ADVANCED_BREP_SHAPE_REPRESENTATION('',(#11,#37),#748);
#37 = MANIFOLD_SOLID_BREP('',#38);
#38 = CLOSED_SHELL('',(#39,#157,#232,#307,#382,#457,#532,#607,#677,#724,
    #736));
#39 = ADVANCED_FACE('',(#40),#54,.T.);
#40 = FACE_BOUND('',#41,.T.);
#41 = EDGE_LOOP('',(#42,#77,#104,#132));
#42 = ORIENTED_EDGE('',*,*,#43,.T.);
#43 = EDGE_CURVE('',#44,#46,#48,.T.);
#44 = VERTEX_POINT('',#45);
#45 = CARTESIAN_POINT('',(1.753155215147E+03,934.52919006578,
    59.999999999999));
#46 = VERTEX_POINT('',#47);
#47 = CARTESIAN_POINT('',(-966.8447848526,-920.6179961918,60.));
#48 = SURFACE_CURVE('',#49,(#53,#65),.PCURVE_S1.);
#49 = LINE('',#50,#51);
#50 = CARTESIAN_POINT('',(1.753155215147E+03,934.52919006578,
    59.999999999999));
#51 = VECTOR('',#52,1.);
#52 = DIRECTION('',(-0.826142267284,-0.563461581838,3.798296031735E-16)
  );
#53 = PCURVE('',#54,#59);
#54 = PLANE('',#55);
#55 = AXIS2_PLACEMENT_3D('',#56,#57,#58);
#56 = CARTESIAN_POINT('',(397.84025435152,10.150978296198,
    29.999999999999));
#57 = DIRECTION('',(0.563461581838,-0.826142267284,1.829296084116E-15));
#58 = DIRECTION('',(-0.826142267284,-0.563461581838,0.));
#59 = DEFINITIONAL_REPRESENTATION('',(#60),#64);
#60 = LINE('',#61,#62);
#61 = CARTESIAN_POINT('',(-1.640534584016E+03,-29.99999999999));
#62 = VECTOR('',#63,1.);
#63 = DIRECTION('',(1.,-3.798296031735E-16));
#64 = ( GEOMETRIC_REPRESENTATION_CONTEXT(2) 
PARAMETRIC_REPRESENTATION_CONTEXT() REPRESENTATION_CONTEXT('2D SPACE',''
  ) );
#65 = PCURVE('',#66,#71);
#66 = PLANE('',#67);
#67 = AXIS2_PLACEMENT_3D('',#68,#69,#70);
#68 = CARTESIAN_POINT('',(1.523171478772E+03,950.37066600423,
    59.999999999999));
#69 = DIRECTION('',(3.640243897795E-16,0.,1.));
#70 = DIRECTION('',(1.,0.,-3.640243897795E-16));
#71 = DEFINITIONAL_REPRESENTATION('',(#72),#76);
#72 = LINE('',#73,#74);
#73 = CARTESIAN_POINT('',(229.98373637498,-15.84147593845));
#74 = VECTOR('',#75,1.);
#75 = DIRECTION('',(-0.826142267284,-0.563461581838));
#76 = ( GEOMETRIC_REPRESENTATION_CONTEXT(2) 
PARAMETRIC_REPRESENTATION_CONTEXT() REPRESENTATION_CONTEXT('2D SPACE',''
  ) );
#77 = ORIENTED_EDGE('',*,*,#78,.T.);
#78 = EDGE_CURVE('',#46,#79,#81,.T.);
#79 = VERTEX_POINT('',#80);
#80 = CARTESIAN_POINT('',(-957.4747064443,-914.2272334733,
    -3.093482807587E-13));
#81 = SURFACE_CURVE('',#82,(#86,#93),.PCURVE_S1.);
#82 = LINE('',#83,#84);
#83 = CARTESIAN_POINT('',(-966.8447848526,-920.6179961918,60.));
#84 = VECTOR('',#85,1.);
#85 = DIRECTION('',(0.153450386009,0.104659210233,-0.982598304877));
#86 = PCURVE('',#54,#87);
#87 = DEFINITIONAL_REPRESENTATION('',(#88),#92);
#88 = LINE('',#89,#90);
#89 = CARTESIAN_POINT('',(1.651876551107E+03,-30.));
#90 = VECTOR('',#91,1.);
#91 = DIRECTION('',(-0.185743293965,0.982598304877));
#92 = ( GEOMETRIC_REPRESENTATION_CONTEXT(2) 
PARAMETRIC_REPRESENTATION_CONTEXT() REPRESENTATION_CONTEXT('2D SPACE',''
  ) );
#93 = PCURVE('',#94,#99);
#94 = PLANE('',#95);
#95 = AXIS2_PLACEMENT_3D('',#96,#97,#98);
#96 = CARTESIAN_POINT('',(-1.106402542815E+03,-595.2971714406,30.));
#97 = DIRECTION('',(-0.897277518854,-0.401787011268,-0.182921435967));
#98 = DIRECTION('',(0.408682492699,-0.912676624091,0.));
#99 = DEFINITIONAL_REPRESENTATION('',(#100),#103);
#100 = B_SPLINE_CURVE_WITH_KNOTS('',1,(#101,#102),.UNSPECIFIED.,.F.,.F.,
  (2,2),(0.,61.062592620204),.PIECEWISE_BEZIER_KNOTS.);
#101 = CARTESIAN_POINT('',(353.94752447966,30.514860951496));
#102 = CARTESIAN_POINT('',(351.94421173711,-30.51486095149));
#103 = ( GEOMETRIC_REPRESENTATION_CONTEXT(2) 
PARAMETRIC_REPRESENTATION_CONTEXT() REPRESENTATION_CONTEXT('2D SPACE',''
  ) );
#104 = ORIENTED_EDGE('',*,*,#105,.T.);
#105 = EDGE_CURVE('',#79,#106,#108,.T.);
#106 = VERTEX_POINT('',#107);
#107 = CARTESIAN_POINT('',(1.762525293556E+03,940.91995278422,
    -1.048312725949E-12));
#108 = SURFACE_CURVE('',#109,(#113,#120),.PCURVE_S1.);
#109 = LINE('',#110,#111);
#110 = CARTESIAN_POINT('',(-957.4747064443,-914.2272334733,
    -3.093482807587E-13));
#111 = VECTOR('',#112,1.);
#112 = DIRECTION('',(0.826142267284,0.563461581838,-2.244447655116E-16)
  );
#113 = PCURVE('',#54,#114);
#114 = DEFINITIONAL_REPRESENTATION('',(#115),#119);
#115 = LINE('',#116,#117);
#116 = CARTESIAN_POINT('',(1.640534584016E+03,30.));
#117 = VECTOR('',#118,1.);
#118 = DIRECTION('',(-1.,2.244447655116E-16));
#119 = ( GEOMETRIC_REPRESENTATION_CONTEXT(2) 
PARAMETRIC_REPRESENTATION_CONTEXT() REPRESENTATION_CONTEXT('2D SPACE',''
  ) );
#120 = PCURVE('',#121,#126);
#121 = PLANE('',#122);
#122 = AXIS2_PLACEMENT_3D('',#123,#124,#125);
#123 = CARTESIAN_POINT('',(413.49661539332,82.797648239502,
    -6.806355820622E-13));
#124 = DIRECTION('',(-2.84616924971E-16,-0.,-1.));
#125 = DIRECTION('',(-1.,0.,2.84616924971E-16));
#126 = DEFINITIONAL_REPRESENTATION('',(#127),#131);
#127 = LINE('',#128,#129);
#128 = CARTESIAN_POINT('',(1.370971321838E+03,-997.0248817128));
#129 = VECTOR('',#130,1.);
#130 = DIRECTION('',(-0.826142267284,0.563461581838));
#131 = ( GEOMETRIC_REPRESENTATION_CONTEXT(2) 
PARAMETRIC_REPRESENTATION_CONTEXT() REPRESENTATION_CONTEXT('2D SPACE',''
  ) );
#132 = ORIENTED_EDGE('',*,*,#133,.T.);
#133 = EDGE_CURVE('',#106,#44,#134,.T.);
#134 = SURFACE_CURVE('',#135,(#139,#146),.PCURVE_S1.);
#135 = LINE('',#136,#137);
#136 = CARTESIAN_POINT('',(1.762525293556E+03,940.91995278422,
    -1.048312725949E-12));
#137 = VECTOR('',#138,1.);
#138 = DIRECTION('',(-0.153450386009,-0.104659210233,0.982598304877));
#139 = PCURVE('',#54,#140);
#140 = DEFINITIONAL_REPRESENTATION('',(#141),#145);
#141 = LINE('',#142,#143);
#142 = CARTESIAN_POINT('',(-1.651876551107E+03,30.));
#143 = VECTOR('',#144,1.);
#144 = DIRECTION('',(0.185743293965,-0.982598304877));
#145 = ( GEOMETRIC_REPRESENTATION_CONTEXT(2) 
PARAMETRIC_REPRESENTATION_CONTEXT() REPRESENTATION_CONTEXT('2D SPACE',''
  ) );
#146 = PCURVE('',#147,#152);
#147 = PLANE('',#148);
#148 = AXIS2_PLACEMENT_3D('',#149,#150,#151);
#149 = CARTESIAN_POINT('',(1.701836831657E+03,1.019836282483E+03,
    29.999999999999));
#150 = DIRECTION('',(0.81176599142,0.553656395177,0.185743293965));
#151 = DIRECTION('',(-0.563461581838,0.826142267284,1.387778780781E-17)
  );
#152 = DEFINITIONAL_REPRESENTATION('',(#153),#156);
#153 = B_SPLINE_CURVE_WITH_KNOTS('',1,(#154,#155),.UNSPECIFIED.,.F.,.F.,
  (2,2),(0.,61.062592620203),.PIECEWISE_BEZIER_KNOTS.);
#154 = CARTESIAN_POINT('',(-99.39173228346,-30.5312963101));
#155 = CARTESIAN_POINT('',(-99.39173228346,30.531296310102));
#156 = ( GEOMETRIC_REPRESENTATION_CONTEXT(2) 
PARAMETRIC_REPRESENTATION_CONTEXT() REPRESENTATION_CONTEXT('2D SPACE',''
  ) );
#157 = ADVANCED_FACE('',(#158),#94,.T.);
#158 = FACE_BOUND('',#159,.T.);
#159 = EDGE_LOOP('',(#160,#183,#210,#231));
#160 = ORIENTED_EDGE('',*,*,#161,.T.);
#161 = EDGE_CURVE('',#46,#162,#164,.T.);
#162 = VERTEX_POINT('',#163);
#163 = CARTESIAN_POINT('',(-1.255330379185E+03,-276.3671094079,60.));
#164 = SURFACE_CURVE('',#165,(#169,#176),.PCURVE_S1.);
#165 = LINE('',#166,#167);
#166 = CARTESIAN_POINT('',(-966.8447848526,-920.6179961918,60.));
#167 = VECTOR('',#168,1.);
#168 = DIRECTION('',(-0.408682492699,0.912676624091,-3.623719782364E-16)
  );
#169 = PCURVE('',#94,#170);
#170 = DEFINITIONAL_REPRESENTATION('',(#171),#175);
#171 = LINE('',#172,#173);
#172 = CARTESIAN_POINT('',(353.94752447966,30.514860951496));
#173 = VECTOR('',#174,1.);
#174 = DIRECTION('',(-1.,-3.643030982861E-16));
#175 = ( GEOMETRIC_REPRESENTATION_CONTEXT(2) 
PARAMETRIC_REPRESENTATION_CONTEXT() REPRESENTATION_CONTEXT('2D SPACE',''
  ) );
#176 = PCURVE('',#66,#177);
#177 = DEFINITIONAL_REPRESENTATION('',(#178),#182);
#178 = LINE('',#179,#180);
#179 = CARTESIAN_POINT('',(-2.490016263625E+03,-1.870988662196E+03));
#180 = VECTOR('',#181,1.);
#181 = DIRECTION('',(-0.408682492699,0.912676624091));
#182 = ( GEOMETRIC_REPRESENTATION_CONTEXT(2) 
PARAMETRIC_REPRESENTATION_CONTEXT() REPRESENTATION_CONTEXT('2D SPACE',''
  ) );
#183 = ORIENTED_EDGE('',*,*,#184,.T.);
#184 = EDGE_CURVE('',#162,#185,#187,.T.);
#185 = VERTEX_POINT('',#186);
#186 = CARTESIAN_POINT('',(-1.245960300777E+03,-269.9763466895,
    -3.399029938666E-13));
#187 = SURFACE_CURVE('',#188,(#192,#199),.PCURVE_S1.);
#188 = LINE('',#189,#190);
#189 = CARTESIAN_POINT('',(-1.255330379185E+03,-276.3671094079,60.));
#190 = VECTOR('',#191,1.);
#191 = DIRECTION('',(0.153450386009,0.104659210233,-0.982598304877));
#192 = PCURVE('',#94,#193);
#193 = DEFINITIONAL_REPRESENTATION('',(#194),#198);
#194 = LINE('',#195,#196);
#195 = CARTESIAN_POINT('',(-351.9442117371,30.514860951496));
#196 = VECTOR('',#197,1.);
#197 = DIRECTION('',(-3.280752841608E-02,-0.99946168815));
#198 = ( GEOMETRIC_REPRESENTATION_CONTEXT(2) 
PARAMETRIC_REPRESENTATION_CONTEXT() REPRESENTATION_CONTEXT('2D SPACE',''
  ) );
#199 = PCURVE('',#200,#205);
#200 = PLANE('',#201);
#201 = AXIS2_PLACEMENT_3D('',#202,#203,#204);
#202 = CARTESIAN_POINT('',(-918.864653269,-157.7671274288,30.));
#203 = DIRECTION('',(-0.328128847281,0.943348997319,4.923544292498E-02)
  );
#204 = DIRECTION('',(0.944494480094,0.328527285127,0.));
#205 = DEFINITIONAL_REPRESENTATION('',(#206),#209);
#206 = B_SPLINE_CURVE_WITH_KNOTS('',1,(#207,#208),.UNSPECIFIED.,.F.,.F.,
  (2,2),(0.,61.062592620204),.PIECEWISE_BEZIER_KNOTS.);
#207 = CARTESIAN_POINT('',(-356.753350964,-30.03642817594));
#208 = CARTESIAN_POINT('',(-345.8038237036,30.03642817594));
#209 = ( GEOMETRIC_REPRESENTATION_CONTEXT(2) 
PARAMETRIC_REPRESENTATION_CONTEXT() REPRESENTATION_CONTEXT('2D SPACE',''
  ) );
#210 = ORIENTED_EDGE('',*,*,#211,.T.);
#211 = EDGE_CURVE('',#185,#79,#212,.T.);
#212 = SURFACE_CURVE('',#213,(#217,#224),.PCURVE_S1.);
#213 = LINE('',#214,#215);
#214 = CARTESIAN_POINT('',(-1.245960300777E+03,-269.9763466895,
    -3.399029938666E-13));
#215 = VECTOR('',#216,1.);
#216 = DIRECTION('',(0.408682492699,-0.912676624091,4.328526817954E-17)
  );
#217 = PCURVE('',#94,#218);
#218 = DEFINITIONAL_REPRESENTATION('',(#219),#223);
#219 = LINE('',#220,#221);
#220 = CARTESIAN_POINT('',(-353.9475244796,-30.51486095149));
#221 = VECTOR('',#222,1.);
#222 = DIRECTION('',(1.,4.721895908483E-17));
#223 = ( GEOMETRIC_REPRESENTATION_CONTEXT(2) 
PARAMETRIC_REPRESENTATION_CONTEXT() REPRESENTATION_CONTEXT('2D SPACE',''
  ) );
#224 = PCURVE('',#121,#225);
#225 = DEFINITIONAL_REPRESENTATION('',(#226),#230);
#226 = LINE('',#227,#228);
#227 = CARTESIAN_POINT('',(1.65945691617E+03,-352.773994929));
#228 = VECTOR('',#229,1.);
#229 = DIRECTION('',(-0.408682492699,-0.912676624091));
#230 = ( GEOMETRIC_REPRESENTATION_CONTEXT(2) 
PARAMETRIC_REPRESENTATION_CONTEXT() REPRESENTATION_CONTEXT('2D SPACE',''
  ) );
#231 = ORIENTED_EDGE('',*,*,#78,.F.);
#232 = ADVANCED_FACE('',(#233),#200,.T.);
#233 = FACE_BOUND('',#234,.T.);
#234 = EDGE_LOOP('',(#235,#258,#285,#306));
#235 = ORIENTED_EDGE('',*,*,#236,.T.);
#236 = EDGE_CURVE('',#162,#237,#239,.T.);
#237 = VERTEX_POINT('',#238);
#238 = CARTESIAN_POINT('',(-591.7690057612,-45.55790816812,
    59.999999999999));
#239 = SURFACE_CURVE('',#240,(#244,#251),.PCURVE_S1.);
#240 = LINE('',#241,#242);
#241 = CARTESIAN_POINT('',(-1.255330379185E+03,-276.3671094079,60.));
#242 = VECTOR('',#243,1.);
#243 = DIRECTION('',(0.944494480094,0.328527285127,-7.180701593835E-16)
  );
#244 = PCURVE('',#200,#245);
#245 = DEFINITIONAL_REPRESENTATION('',(#246),#250);
#246 = LINE('',#247,#248);
#247 = CARTESIAN_POINT('',(-356.753350964,-30.03642817594));
#248 = VECTOR('',#249,1.);
#249 = DIRECTION('',(1.,7.25384828187E-16));
#250 = ( GEOMETRIC_REPRESENTATION_CONTEXT(2) 
PARAMETRIC_REPRESENTATION_CONTEXT() REPRESENTATION_CONTEXT('2D SPACE',''
  ) );
#251 = PCURVE('',#66,#252);
#252 = DEFINITIONAL_REPRESENTATION('',(#253),#257);
#253 = LINE('',#254,#255);
#254 = CARTESIAN_POINT('',(-2.778501857958E+03,-1.226737775412E+03));
#255 = VECTOR('',#256,1.);
#256 = DIRECTION('',(0.944494480094,0.328527285127));
#257 = ( GEOMETRIC_REPRESENTATION_CONTEXT(2) 
PARAMETRIC_REPRESENTATION_CONTEXT() REPRESENTATION_CONTEXT('2D SPACE',''
  ) );
#258 = ORIENTED_EDGE('',*,*,#259,.T.);
#259 = EDGE_CURVE('',#237,#260,#262,.T.);
#260 = VERTEX_POINT('',#261);
#261 = CARTESIAN_POINT('',(-582.398927353,-39.16714544968,
    -3.918021924825E-13));
#262 = SURFACE_CURVE('',#263,(#267,#274),.PCURVE_S1.);
#263 = LINE('',#264,#265);
#264 = CARTESIAN_POINT('',(-591.7690057612,-45.55790816812,
    59.999999999999));
#265 = VECTOR('',#266,1.);
#266 = DIRECTION('',(0.153450386009,0.104659210233,-0.982598304877));
#267 = PCURVE('',#200,#268);
#268 = DEFINITIONAL_REPRESENTATION('',(#269),#273);
#269 = LINE('',#270,#271);
#270 = CARTESIAN_POINT('',(345.80382370363,-30.03642817593));
#271 = VECTOR('',#272,1.);
#272 = DIRECTION('',(0.179316448755,0.983791447008));
#273 = ( GEOMETRIC_REPRESENTATION_CONTEXT(2) 
PARAMETRIC_REPRESENTATION_CONTEXT() REPRESENTATION_CONTEXT('2D SPACE',''
  ) );
#274 = PCURVE('',#275,#280);
#275 = PLANE('',#276);
#276 = AXIS2_PLACEMENT_3D('',#277,#278,#279);
#277 = CARTESIAN_POINT('',(-343.5112878189,55.222175060274,30.));
#278 = DIRECTION('',(-0.37159286996,0.927500612313,4.075970011698E-02));
#279 = DIRECTION('',(0.928272026674,0.371901928598,1.734723475977E-18));
#280 = DEFINITIONAL_REPRESENTATION('',(#281),#284);
#281 = B_SPLINE_CURVE_WITH_KNOTS('',1,(#282,#283),.UNSPECIFIED.,.F.,.F.,
  (2,2),(0.,61.062592620203),.PIECEWISE_BEZIER_KNOTS.);
#282 = CARTESIAN_POINT('',(-267.9310022887,-30.02495139141));
#283 = CARTESIAN_POINT('',(-256.8562836343,30.024951391417));
#284 = ( GEOMETRIC_REPRESENTATION_CONTEXT(2) 
PARAMETRIC_REPRESENTATION_CONTEXT() REPRESENTATION_CONTEXT('2D SPACE',''
  ) );
#285 = ORIENTED_EDGE('',*,*,#286,.T.);
#286 = EDGE_CURVE('',#260,#185,#287,.T.);
#287 = SURFACE_CURVE('',#288,(#292,#299),.PCURVE_S1.);
#288 = LINE('',#289,#290);
#289 = CARTESIAN_POINT('',(-582.398927353,-39.16714544968,
    -3.918021924825E-13));
#290 = VECTOR('',#291,1.);
#291 = DIRECTION('',(-0.944494480094,-0.328527285127,7.387185055863E-17)
  );
#292 = PCURVE('',#200,#293);
#293 = DEFINITIONAL_REPRESENTATION('',(#294),#298);
#294 = LINE('',#295,#296);
#295 = CARTESIAN_POINT('',(356.75335096408,30.03642817594));
#296 = VECTOR('',#297,1.);
#297 = DIRECTION('',(-1.,-7.360340108707E-17));
#298 = ( GEOMETRIC_REPRESENTATION_CONTEXT(2) 
PARAMETRIC_REPRESENTATION_CONTEXT() REPRESENTATION_CONTEXT('2D SPACE',''
  ) );
#299 = PCURVE('',#121,#300);
#300 = DEFINITIONAL_REPRESENTATION('',(#301),#305);
#301 = LINE('',#302,#303);
#302 = CARTESIAN_POINT('',(995.89554274633,-121.9647936891));
#303 = VECTOR('',#304,1.);
#304 = DIRECTION('',(0.944494480094,-0.328527285127));
#305 = ( GEOMETRIC_REPRESENTATION_CONTEXT(2) 
PARAMETRIC_REPRESENTATION_CONTEXT() REPRESENTATION_CONTEXT('2D SPACE',''
  ) );
#306 = ORIENTED_EDGE('',*,*,#184,.F.);
#307 = ADVANCED_FACE('',(#308),#275,.T.);
#308 = FACE_BOUND('',#309,.T.);
#309 = EDGE_LOOP('',(#310,#333,#360,#381));
#310 = ORIENTED_EDGE('',*,*,#311,.T.);
#311 = EDGE_CURVE('',#237,#312,#314,.T.);
#312 = VERTEX_POINT('',#313);
#313 = CARTESIAN_POINT('',(-104.6236482847,149.61149557023,60.));
#314 = SURFACE_CURVE('',#315,(#319,#326),.PCURVE_S1.);
#315 = LINE('',#316,#317);
#316 = CARTESIAN_POINT('',(-591.7690057612,-45.55790816812,
    59.999999999999));
#317 = VECTOR('',#318,1.);
#318 = DIRECTION('',(0.928272026674,0.371901928598,3.655700963063E-16));
#319 = PCURVE('',#275,#320);
#320 = DEFINITIONAL_REPRESENTATION('',(#321),#325);
#321 = LINE('',#322,#323);
#322 = CARTESIAN_POINT('',(-267.9310022887,-30.02495139141));
#323 = VECTOR('',#324,1.);
#324 = DIRECTION('',(1.,-3.646594632406E-16));
#325 = ( GEOMETRIC_REPRESENTATION_CONTEXT(2) 
PARAMETRIC_REPRESENTATION_CONTEXT() REPRESENTATION_CONTEXT('2D SPACE',''
  ) );
#326 = PCURVE('',#66,#327);
#327 = DEFINITIONAL_REPRESENTATION('',(#328),#332);
#328 = LINE('',#329,#330);
#329 = CARTESIAN_POINT('',(-2.114940484534E+03,-995.9285741723));
#330 = VECTOR('',#331,1.);
#331 = DIRECTION('',(0.928272026674,0.371901928598));
#332 = ( GEOMETRIC_REPRESENTATION_CONTEXT(2) 
PARAMETRIC_REPRESENTATION_CONTEXT() REPRESENTATION_CONTEXT('2D SPACE',''
  ) );
#333 = ORIENTED_EDGE('',*,*,#334,.T.);
#334 = EDGE_CURVE('',#312,#335,#337,.T.);
#335 = VERTEX_POINT('',#336);
#336 = CARTESIAN_POINT('',(-95.2535698765,156.00225828867,
    -4.238833064904E-13));
#337 = SURFACE_CURVE('',#338,(#342,#349),.PCURVE_S1.);
#338 = LINE('',#339,#340);
#339 = CARTESIAN_POINT('',(-104.6236482847,149.61149557023,60.));
#340 = VECTOR('',#341,1.);
#341 = DIRECTION('',(0.153450386009,0.104659210233,-0.982598304877));
#342 = PCURVE('',#275,#343);
#343 = DEFINITIONAL_REPRESENTATION('',(#344),#348);
#344 = LINE('',#345,#346);
#345 = CARTESIAN_POINT('',(256.85628363435,-30.02495139141));
#346 = VECTOR('',#347,1.);
#347 = DIRECTION('',(0.181366662946,0.983415544707));
#348 = ( GEOMETRIC_REPRESENTATION_CONTEXT(2) 
PARAMETRIC_REPRESENTATION_CONTEXT() REPRESENTATION_CONTEXT('2D SPACE',''
  ) );
#349 = PCURVE('',#350,#355);
#350 = PLANE('',#351);
#351 = AXIS2_PLACEMENT_3D('',#352,#353,#354);
#352 = CARTESIAN_POINT('',(136.54384475279,260.78720232862,
    29.999999999999));
#353 = DIRECTION('',(-0.415146194897,0.909191470816,3.200790930875E-02)
  );
#354 = DIRECTION('',(0.90965756516,0.415359018378,0.));
#355 = DEFINITIONAL_REPRESENTATION('',(#356),#359);
#356 = B_SPLINE_CURVE_WITH_KNOTS('',1,(#357,#358),.UNSPECIFIED.,.F.,.F.,
  (2,2),(0.,61.062592620203),.PIECEWISE_BEZIER_KNOTS.);
#357 = CARTESIAN_POINT('',(-265.5576669388,-30.01537941211));
#358 = CARTESIAN_POINT('',(-254.3796432992,30.015379412112));
#359 = ( GEOMETRIC_REPRESENTATION_CONTEXT(2) 
PARAMETRIC_REPRESENTATION_CONTEXT() REPRESENTATION_CONTEXT('2D SPACE',''
  ) );
#360 = ORIENTED_EDGE('',*,*,#361,.T.);
#361 = EDGE_CURVE('',#335,#260,#362,.T.);
#362 = SURFACE_CURVE('',#363,(#367,#374),.PCURVE_S1.);
#363 = LINE('',#364,#365);
#364 = CARTESIAN_POINT('',(-95.2535698765,156.00225828867,
    -4.238833064904E-13));
#365 = VECTOR('',#366,1.);
#366 = DIRECTION('',(-0.928272026674,-0.371901928598,6.113165251613E-17)
  );
#367 = PCURVE('',#275,#368);
#368 = DEFINITIONAL_REPRESENTATION('',(#369),#373);
#369 = LINE('',#370,#371);
#370 = CARTESIAN_POINT('',(267.9310022887,30.024951391417));
#371 = VECTOR('',#372,1.);
#372 = DIRECTION('',(-1.,-6.097937391154E-17));
#373 = ( GEOMETRIC_REPRESENTATION_CONTEXT(2) 
PARAMETRIC_REPRESENTATION_CONTEXT() REPRESENTATION_CONTEXT('2D SPACE',''
  ) );
#374 = PCURVE('',#121,#375);
#375 = DEFINITIONAL_REPRESENTATION('',(#376),#380);
#376 = LINE('',#377,#378);
#377 = CARTESIAN_POINT('',(508.75018526983,73.204610049173));
#378 = VECTOR('',#379,1.);
#379 = DIRECTION('',(0.928272026674,-0.371901928598));
#380 = ( GEOMETRIC_REPRESENTATION_CONTEXT(2) 
PARAMETRIC_REPRESENTATION_CONTEXT() REPRESENTATION_CONTEXT('2D SPACE',''
  ) );
#381 = ORIENTED_EDGE('',*,*,#259,.F.);
#382 = ADVANCED_FACE('',(#383),#350,.T.);
#383 = FACE_BOUND('',#384,.T.);
#384 = EDGE_LOOP('',(#385,#408,#435,#456));
#385 = ORIENTED_EDGE('',*,*,#386,.T.);
#386 = EDGE_CURVE('',#312,#387,#389,.T.);
#387 = VERTEX_POINT('',#388);
#388 = CARTESIAN_POINT('',(368.3412593821,365.57214636857,
    59.999999999999));
#389 = SURFACE_CURVE('',#390,(#394,#401),.PCURVE_S1.);
#390 = LINE('',#391,#392);
#391 = CARTESIAN_POINT('',(-104.6236482847,149.61149557023,60.));
#392 = VECTOR('',#393,1.);
#393 = DIRECTION('',(0.90965756516,0.415359018378,-4.783075817393E-16));
#394 = PCURVE('',#350,#395);
#395 = DEFINITIONAL_REPRESENTATION('',(#396),#400);
#396 = LINE('',#397,#398);
#397 = CARTESIAN_POINT('',(-265.5576669388,-30.01537941211));
#398 = VECTOR('',#399,1.);
#399 = DIRECTION('',(1.,4.811244973529E-16));
#400 = ( GEOMETRIC_REPRESENTATION_CONTEXT(2) 
PARAMETRIC_REPRESENTATION_CONTEXT() REPRESENTATION_CONTEXT('2D SPACE',''
  ) );
#401 = PCURVE('',#66,#402);
#402 = DEFINITIONAL_REPRESENTATION('',(#403),#407);
#403 = LINE('',#404,#405);
#404 = CARTESIAN_POINT('',(-1.627795127057E+03,-800.759170434));
#405 = VECTOR('',#406,1.);
#406 = DIRECTION('',(0.90965756516,0.415359018378));
#407 = ( GEOMETRIC_REPRESENTATION_CONTEXT(2) 
PARAMETRIC_REPRESENTATION_CONTEXT() REPRESENTATION_CONTEXT('2D SPACE',''
  ) );
#408 = ORIENTED_EDGE('',*,*,#409,.T.);
#409 = EDGE_CURVE('',#387,#410,#412,.T.);
#410 = VERTEX_POINT('',#411);
#411 = CARTESIAN_POINT('',(377.71133779039,371.96290908701,
    -4.488352840522E-13));
#412 = SURFACE_CURVE('',#413,(#417,#424),.PCURVE_S1.);
#413 = LINE('',#414,#415);
#414 = CARTESIAN_POINT('',(368.3412593821,365.57214636857,
    59.999999999999));
#415 = VECTOR('',#416,1.);
#416 = DIRECTION('',(0.153450386009,0.104659210233,-0.982598304877));
#417 = PCURVE('',#350,#418);
#418 = DEFINITIONAL_REPRESENTATION('',(#419),#423);
#419 = LINE('',#420,#421);
#420 = CARTESIAN_POINT('',(254.37964329921,-30.01537941211));
#421 = VECTOR('',#422,1.);
#422 = DIRECTION('',(0.183058451337,0.983102031019));
#423 = ( GEOMETRIC_REPRESENTATION_CONTEXT(2) 
PARAMETRIC_REPRESENTATION_CONTEXT() REPRESENTATION_CONTEXT('2D SPACE',''
  ) );
#424 = PCURVE('',#425,#430);
#425 = PLANE('',#426);
#426 = AXIS2_PLACEMENT_3D('',#427,#428,#429);
#427 = CARTESIAN_POINT('',(602.41852751491,487.14347665694,
    29.999999999999));
#428 = DIRECTION('',(-0.458459977765,0.888416583989,2.303089407796E-02)
  );
#429 = DIRECTION('',(0.88865229565,0.458581614804,0.));
#430 = DEFINITIONAL_REPRESENTATION('',(#431),#434);
#431 = B_SPLINE_CURVE_WITH_KNOTS('',1,(#432,#433),.UNSPECIFIED.,.F.,.F.,
  (2,2),(0.,61.062592620203),.PIECEWISE_BEZIER_KNOTS.);
#432 = CARTESIAN_POINT('',(-263.7636786431,-30.00795949779));
#433 = CARTESIAN_POINT('',(-252.5062506679,30.00795949779));
#434 = ( GEOMETRIC_REPRESENTATION_CONTEXT(2) 
PARAMETRIC_REPRESENTATION_CONTEXT() REPRESENTATION_CONTEXT('2D SPACE',''
  ) );
#435 = ORIENTED_EDGE('',*,*,#436,.T.);
#436 = EDGE_CURVE('',#410,#335,#437,.T.);
#437 = SURFACE_CURVE('',#438,(#442,#449),.PCURVE_S1.);
#438 = LINE('',#439,#440);
#439 = CARTESIAN_POINT('',(377.71133779039,371.96290908701,
    -4.488352840522E-13));
#440 = VECTOR('',#441,1.);
#441 = DIRECTION('',(-0.90965756516,-0.415359018378,4.799035781891E-17)
  );
#442 = PCURVE('',#350,#443);
#443 = DEFINITIONAL_REPRESENTATION('',(#444),#448);
#444 = LINE('',#445,#446);
#445 = CARTESIAN_POINT('',(265.55766693886,30.015379412112));
#446 = VECTOR('',#447,1.);
#447 = DIRECTION('',(-1.,-4.614074158675E-17));
#448 = ( GEOMETRIC_REPRESENTATION_CONTEXT(2) 
PARAMETRIC_REPRESENTATION_CONTEXT() REPRESENTATION_CONTEXT('2D SPACE',''
  ) );
#449 = PCURVE('',#121,#450);
#450 = DEFINITIONAL_REPRESENTATION('',(#451),#455);
#451 = LINE('',#452,#453);
#452 = CARTESIAN_POINT('',(35.785277602929,289.1652608475));
#453 = VECTOR('',#454,1.);
#454 = DIRECTION('',(0.90965756516,-0.415359018378));
#455 = ( GEOMETRIC_REPRESENTATION_CONTEXT(2) 
PARAMETRIC_REPRESENTATION_CONTEXT() REPRESENTATION_CONTEXT('2D SPACE',''
  ) );
#456 = ORIENTED_EDGE('',*,*,#334,.F.);
#457 = ADVANCED_FACE('',(#458),#425,.T.);
#458 = FACE_BOUND('',#459,.T.);
#459 = EDGE_LOOP('',(#460,#483,#510,#531));
#460 = ORIENTED_EDGE('',*,*,#461,.T.);
#461 = EDGE_CURVE('',#387,#462,#464,.T.);
#462 = VERTEX_POINT('',#463);
#463 = CARTESIAN_POINT('',(827.12571723942,602.32404422687,
    59.999999999999));
#464 = SURFACE_CURVE('',#465,(#469,#476),.PCURVE_S1.);
#465 = LINE('',#466,#467);
#466 = CARTESIAN_POINT('',(368.3412593821,365.57214636857,
    59.999999999999));
#467 = VECTOR('',#468,1.);
#468 = DIRECTION('',(0.88865229565,0.458581614804,-3.71601225954E-16));
#469 = PCURVE('',#425,#470);
#470 = DEFINITIONAL_REPRESENTATION('',(#471),#475);
#471 = LINE('',#472,#473);
#472 = CARTESIAN_POINT('',(-263.7636786431,-30.00795949779));
#473 = VECTOR('',#474,1.);
#474 = DIRECTION('',(1.,3.695708834435E-16));
#475 = ( GEOMETRIC_REPRESENTATION_CONTEXT(2) 
PARAMETRIC_REPRESENTATION_CONTEXT() REPRESENTATION_CONTEXT('2D SPACE',''
  ) );
#476 = PCURVE('',#66,#477);
#477 = DEFINITIONAL_REPRESENTATION('',(#478),#482);
#478 = LINE('',#479,#480);
#479 = CARTESIAN_POINT('',(-1.15483021939E+03,-584.7985196356));
#480 = VECTOR('',#481,1.);
#481 = DIRECTION('',(0.88865229565,0.458581614804));
#482 = ( GEOMETRIC_REPRESENTATION_CONTEXT(2) 
PARAMETRIC_REPRESENTATION_CONTEXT() REPRESENTATION_CONTEXT('2D SPACE',''
  ) );
#483 = ORIENTED_EDGE('',*,*,#484,.T.);
#484 = EDGE_CURVE('',#462,#485,#487,.T.);
#485 = VERTEX_POINT('',#486);
#486 = CARTESIAN_POINT('',(836.49579564771,608.71480694531,
    -5.803449628893E-13));
#487 = SURFACE_CURVE('',#488,(#492,#499),.PCURVE_S1.);
#488 = LINE('',#489,#490);
#489 = CARTESIAN_POINT('',(827.12571723942,602.32404422687,
    59.999999999999));
#490 = VECTOR('',#491,1.);
#491 = DIRECTION('',(0.153450386009,0.104659210233,-0.982598304877));
#492 = PCURVE('',#425,#493);
#493 = DEFINITIONAL_REPRESENTATION('',(#494),#498);
#494 = LINE('',#495,#496);
#495 = CARTESIAN_POINT('',(252.50625066797,-30.00795949779));
#496 = VECTOR('',#497,1.);
#497 = DIRECTION('',(0.184358827428,0.982859004511));
#498 = ( GEOMETRIC_REPRESENTATION_CONTEXT(2) 
PARAMETRIC_REPRESENTATION_CONTEXT() REPRESENTATION_CONTEXT('2D SPACE',''
  ) );
#499 = PCURVE('',#500,#505);
#500 = PLANE('',#501);
#501 = AXIS2_PLACEMENT_3D('',#502,#503,#504);
#502 = CARTESIAN_POINT('',(1.054112760467E+03,734.29099804523,
    29.999999999999));
#503 = DIRECTION('',(-0.501193196687,0.865223976837,1.388702639349E-02)
  );
#504 = DIRECTION('',(0.865307417912,0.501241531107,0.));
#505 = DEFINITIONAL_REPRESENTATION('',(#506),#509);
#506 = B_SPLINE_CURVE_WITH_KNOTS('',1,(#507,#508),.UNSPECIFIED.,.F.,.F.,
  (2,2),(0.,61.062592620203),.PIECEWISE_BEZIER_KNOTS.);
#507 = CARTESIAN_POINT('',(-262.5608902625,-30.00289316099));
#508 = CARTESIAN_POINT('',(-251.2495762195,30.002893160996));
#509 = ( GEOMETRIC_REPRESENTATION_CONTEXT(2) 
PARAMETRIC_REPRESENTATION_CONTEXT() REPRESENTATION_CONTEXT('2D SPACE',''
  ) );
#510 = ORIENTED_EDGE('',*,*,#511,.T.);
#511 = EDGE_CURVE('',#485,#410,#512,.T.);
#512 = SURFACE_CURVE('',#513,(#517,#524),.PCURVE_S1.);
#513 = LINE('',#514,#515);
#514 = CARTESIAN_POINT('',(836.49579564771,608.71480694531,
    -5.803449628893E-13));
#515 = VECTOR('',#516,1.);
#516 = DIRECTION('',(-0.88865229565,-0.458581614804,2.547304643767E-16)
  );
#517 = PCURVE('',#425,#518);
#518 = DEFINITIONAL_REPRESENTATION('',(#519),#523);
#519 = LINE('',#520,#521);
#520 = CARTESIAN_POINT('',(263.76367864317,30.00795949779));
#521 = VECTOR('',#522,1.);
#522 = DIRECTION('',(-1.,-2.527930957836E-16));
#523 = ( GEOMETRIC_REPRESENTATION_CONTEXT(2) 
PARAMETRIC_REPRESENTATION_CONTEXT() REPRESENTATION_CONTEXT('2D SPACE',''
  ) );
#524 = PCURVE('',#121,#525);
#525 = DEFINITIONAL_REPRESENTATION('',(#526),#530);
#526 = LINE('',#527,#528);
#527 = CARTESIAN_POINT('',(-422.9991802543,525.91715870581));
#528 = VECTOR('',#529,1.);
#529 = DIRECTION('',(0.88865229565,-0.458581614804));
#530 = ( GEOMETRIC_REPRESENTATION_CONTEXT(2) 
PARAMETRIC_REPRESENTATION_CONTEXT() REPRESENTATION_CONTEXT('2D SPACE',''
  ) );
#531 = ORIENTED_EDGE('',*,*,#409,.F.);
#532 = ADVANCED_FACE('',(#533),#500,.T.);
#533 = FACE_BOUND('',#534,.T.);
#534 = EDGE_LOOP('',(#535,#558,#585,#606));
#535 = ORIENTED_EDGE('',*,*,#536,.T.);
#536 = EDGE_CURVE('',#462,#537,#539,.T.);
#537 = VERTEX_POINT('',#538);
#538 = CARTESIAN_POINT('',(1.271729725287E+03,859.86718914515,
    59.999999999999));
#539 = SURFACE_CURVE('',#540,(#544,#551),.PCURVE_S1.);
#540 = LINE('',#541,#542);
#541 = CARTESIAN_POINT('',(827.12571723942,602.32404422687,
    59.999999999999));
#542 = VECTOR('',#543,1.);
#543 = DIRECTION('',(0.865307417912,0.501241531107,-1.244599913588E-16)
  );
#544 = PCURVE('',#500,#545);
#545 = DEFINITIONAL_REPRESENTATION('',(#546),#550);
#546 = LINE('',#547,#548);
#547 = CARTESIAN_POINT('',(-262.5608902625,-30.00289316099));
#548 = VECTOR('',#549,1.);
#549 = DIRECTION('',(1.,1.230754715543E-16));
#550 = ( GEOMETRIC_REPRESENTATION_CONTEXT(2) 
PARAMETRIC_REPRESENTATION_CONTEXT() REPRESENTATION_CONTEXT('2D SPACE',''
  ) );
#551 = PCURVE('',#66,#552);
#552 = DEFINITIONAL_REPRESENTATION('',(#553),#557);
#553 = LINE('',#554,#555);
#554 = CARTESIAN_POINT('',(-696.0457615329,-348.0466217773));
#555 = VECTOR('',#556,1.);
#556 = DIRECTION('',(0.865307417912,0.501241531107));
#557 = ( GEOMETRIC_REPRESENTATION_CONTEXT(2) 
PARAMETRIC_REPRESENTATION_CONTEXT() REPRESENTATION_CONTEXT('2D SPACE',''
  ) );
#558 = ORIENTED_EDGE('',*,*,#559,.T.);
#559 = EDGE_CURVE('',#537,#560,#562,.T.);
#560 = VERTEX_POINT('',#561);
#561 = CARTESIAN_POINT('',(1.281099803695E+03,866.25795186359,
    -8.184123430018E-13));
#562 = SURFACE_CURVE('',#563,(#567,#574),.PCURVE_S1.);
#563 = LINE('',#564,#565);
#564 = CARTESIAN_POINT('',(1.271729725287E+03,859.86718914515,
    59.999999999999));
#565 = VECTOR('',#566,1.);
#566 = DIRECTION('',(0.153450386009,0.104659210233,-0.982598304877));
#567 = PCURVE('',#500,#568);
#568 = DEFINITIONAL_REPRESENTATION('',(#569),#573);
#569 = LINE('',#570,#571);
#570 = CARTESIAN_POINT('',(251.2495762195,-30.00289316099));
#571 = VECTOR('',#572,1.);
#572 = DIRECTION('',(0.185241300077,0.98269306538));
#573 = ( GEOMETRIC_REPRESENTATION_CONTEXT(2) 
PARAMETRIC_REPRESENTATION_CONTEXT() REPRESENTATION_CONTEXT('2D SPACE',''
  ) );
#574 = PCURVE('',#575,#580);
#575 = PLANE('',#576);
#576 = AXIS2_PLACEMENT_3D('',#577,#578,#579);
#577 = CARTESIAN_POINT('',(1.461124086727E+03,982.50528202259,
    29.999999999999));
#578 = DIRECTION('',(-0.5430047971,0.839716771064,4.640551827688E-03));
#579 = DIRECTION('',(0.839725812743,0.543010643922,0.));
#580 = DEFINITIONAL_REPRESENTATION('',(#581),#584);
#581 = B_SPLINE_CURVE_WITH_KNOTS('',1,(#582,#583),.UNSPECIFIED.,.F.,.F.,
  (2,2),(0.,61.062592620203),.PIECEWISE_BEZIER_KNOTS.);
#582 = CARTESIAN_POINT('',(-225.6331238721,-30.00032302603));
#583 = CARTESIAN_POINT('',(-214.2945749863,30.000323026036));
#584 = ( GEOMETRIC_REPRESENTATION_CONTEXT(2) 
PARAMETRIC_REPRESENTATION_CONTEXT() REPRESENTATION_CONTEXT('2D SPACE',''
  ) );
#585 = ORIENTED_EDGE('',*,*,#586,.T.);
#586 = EDGE_CURVE('',#560,#485,#587,.T.);
#587 = SURFACE_CURVE('',#588,(#592,#599),.PCURVE_S1.);
#588 = LINE('',#589,#590);
#589 = CARTESIAN_POINT('',(1.281099803695E+03,866.25795186359,
    -8.184123430018E-13));
#590 = VECTOR('',#591,1.);
#591 = DIRECTION('',(-0.865307417912,-0.501241531107,4.633369610832E-16)
  );
#592 = PCURVE('',#500,#593);
#593 = DEFINITIONAL_REPRESENTATION('',(#594),#598);
#594 = LINE('',#595,#596);
#595 = CARTESIAN_POINT('',(262.56089026254,30.002893160996));
#596 = VECTOR('',#597,1.);
#597 = DIRECTION('',(-1.,-4.65515367551E-16));
#598 = ( GEOMETRIC_REPRESENTATION_CONTEXT(2) 
PARAMETRIC_REPRESENTATION_CONTEXT() REPRESENTATION_CONTEXT('2D SPACE',''
  ) );
#599 = PCURVE('',#121,#600);
#600 = DEFINITIONAL_REPRESENTATION('',(#601),#605);
#601 = LINE('',#602,#603);
#602 = CARTESIAN_POINT('',(-867.6031883021,783.46030362408));
#603 = VECTOR('',#604,1.);
#604 = DIRECTION('',(0.865307417912,-0.501241531107));
#605 = ( GEOMETRIC_REPRESENTATION_CONTEXT(2) 
PARAMETRIC_REPRESENTATION_CONTEXT() REPRESENTATION_CONTEXT('2D SPACE',''
  ) );
#606 = ORIENTED_EDGE('',*,*,#484,.F.);
#607 = ADVANCED_FACE('',(#608),#575,.T.);
#608 = FACE_BOUND('',#609,.T.);
#609 = EDGE_LOOP('',(#610,#633,#655,#676));
#610 = ORIENTED_EDGE('',*,*,#611,.T.);
#611 = EDGE_CURVE('',#537,#612,#614,.T.);
#612 = VERTEX_POINT('',#613);
#613 = CARTESIAN_POINT('',(1.641148369759E+03,1.098752612182E+03,
    59.999999999999));
#614 = SURFACE_CURVE('',#615,(#619,#626),.PCURVE_S1.);
#615 = LINE('',#616,#617);
#616 = CARTESIAN_POINT('',(1.271729725287E+03,859.86718914515,
    59.999999999999));
#617 = VECTOR('',#618,1.);
#618 = DIRECTION('',(0.839725812743,0.543010643922,-3.230270508558E-16)
  );
#619 = PCURVE('',#575,#620);
#620 = DEFINITIONAL_REPRESENTATION('',(#621),#625);
#621 = LINE('',#622,#623);
#622 = CARTESIAN_POINT('',(-225.6331238721,-30.00032302603));
#623 = VECTOR('',#624,1.);
#624 = DIRECTION('',(1.,3.227590168651E-16));
#625 = ( GEOMETRIC_REPRESENTATION_CONTEXT(2) 
PARAMETRIC_REPRESENTATION_CONTEXT() REPRESENTATION_CONTEXT('2D SPACE',''
  ) );
#626 = PCURVE('',#66,#627);
#627 = DEFINITIONAL_REPRESENTATION('',(#628),#632);
#628 = LINE('',#629,#630);
#629 = CARTESIAN_POINT('',(-251.4417534852,-90.50347685908));
#630 = VECTOR('',#631,1.);
#631 = DIRECTION('',(0.839725812743,0.543010643922));
#632 = ( GEOMETRIC_REPRESENTATION_CONTEXT(2) 
PARAMETRIC_REPRESENTATION_CONTEXT() REPRESENTATION_CONTEXT('2D SPACE',''
  ) );
#633 = ORIENTED_EDGE('',*,*,#634,.T.);
#634 = EDGE_CURVE('',#612,#635,#637,.T.);
#635 = VERTEX_POINT('',#636);
#636 = CARTESIAN_POINT('',(1.650518448168E+03,1.1051433749E+03,
    -1.013318235486E-12));
#637 = SURFACE_CURVE('',#638,(#642,#649),.PCURVE_S1.);
#638 = LINE('',#639,#640);
#639 = CARTESIAN_POINT('',(1.641148369759E+03,1.098752612182E+03,
    59.999999999999));
#640 = VECTOR('',#641,1.);
#641 = DIRECTION('',(0.153450386009,0.104659210233,-0.982598304877));
#642 = PCURVE('',#575,#643);
#643 = DEFINITIONAL_REPRESENTATION('',(#644),#648);
#644 = LINE('',#645,#646);
#645 = CARTESIAN_POINT('',(214.29457498635,-30.00032302603));
#646 = VECTOR('',#647,1.);
#647 = DIRECTION('',(0.185687315249,0.982608885038));
#648 = ( GEOMETRIC_REPRESENTATION_CONTEXT(2) 
PARAMETRIC_REPRESENTATION_CONTEXT() REPRESENTATION_CONTEXT('2D SPACE',''
  ) );
#649 = PCURVE('',#147,#650);
#650 = DEFINITIONAL_REPRESENTATION('',(#651),#654);
#651 = B_SPLINE_CURVE_WITH_KNOTS('',1,(#652,#653),.UNSPECIFIED.,.F.,.F.,
  (2,2),(0.,61.062592620203),.PIECEWISE_BEZIER_KNOTS.);
#652 = CARTESIAN_POINT('',(99.391732283464,30.531296310102));
#653 = CARTESIAN_POINT('',(99.391732283464,-30.5312963101));
#654 = ( GEOMETRIC_REPRESENTATION_CONTEXT(2) 
PARAMETRIC_REPRESENTATION_CONTEXT() REPRESENTATION_CONTEXT('2D SPACE',''
  ) );
#655 = ORIENTED_EDGE('',*,*,#656,.T.);
#656 = EDGE_CURVE('',#635,#560,#657,.T.);
#657 = SURFACE_CURVE('',#658,(#662,#669),.PCURVE_S1.);
#658 = LINE('',#659,#660);
#659 = CARTESIAN_POINT('',(1.650518448168E+03,1.1051433749E+03,
    -1.013318235486E-12));
#660 = VECTOR('',#661,1.);
#661 = DIRECTION('',(-0.839725812743,-0.543010643922,4.430407382628E-16)
  );
#662 = PCURVE('',#575,#663);
#663 = DEFINITIONAL_REPRESENTATION('',(#664),#668);
#664 = LINE('',#665,#666);
#665 = CARTESIAN_POINT('',(225.63312387211,30.000323026036));
#666 = VECTOR('',#667,1.);
#667 = DIRECTION('',(-1.,-4.42768827601E-16));
#668 = ( GEOMETRIC_REPRESENTATION_CONTEXT(2) 
PARAMETRIC_REPRESENTATION_CONTEXT() REPRESENTATION_CONTEXT('2D SPACE',''
  ) );
#669 = PCURVE('',#121,#670);
#670 = DEFINITIONAL_REPRESENTATION('',(#671),#675);
#671 = LINE('',#672,#673);
#672 = CARTESIAN_POINT('',(-1.237021832774E+03,1.022345726661E+03));
#673 = VECTOR('',#674,1.);
#674 = DIRECTION('',(0.839725812743,-0.543010643922));
#675 = ( GEOMETRIC_REPRESENTATION_CONTEXT(2) 
PARAMETRIC_REPRESENTATION_CONTEXT() REPRESENTATION_CONTEXT('2D SPACE',''
  ) );
#676 = ORIENTED_EDGE('',*,*,#559,.F.);
#677 = ADVANCED_FACE('',(#678),#147,.T.);
#678 = FACE_BOUND('',#679,.T.);
#679 = EDGE_LOOP('',(#680,#701,#702,#723));
#680 = ORIENTED_EDGE('',*,*,#681,.T.);
#681 = EDGE_CURVE('',#612,#44,#682,.T.);
#682 = SURFACE_CURVE('',#683,(#687,#694),.PCURVE_S1.);
#683 = LINE('',#684,#685);
#684 = CARTESIAN_POINT('',(1.641148369759E+03,1.098752612182E+03,
    59.999999999999));
#685 = VECTOR('',#686,1.);
#686 = DIRECTION('',(0.563461581838,-0.826142267284,-1.787227970164E-16)
  );
#687 = PCURVE('',#147,#688);
#688 = DEFINITIONAL_REPRESENTATION('',(#689),#693);
#689 = LINE('',#690,#691);
#690 = CARTESIAN_POINT('',(99.391732283464,30.531296310102));
#691 = VECTOR('',#692,1.);
#692 = DIRECTION('',(-1.,-1.55676190514E-16));
#693 = ( GEOMETRIC_REPRESENTATION_CONTEXT(2) 
PARAMETRIC_REPRESENTATION_CONTEXT() REPRESENTATION_CONTEXT('2D SPACE',''
  ) );
#694 = PCURVE('',#66,#695);
#695 = DEFINITIONAL_REPRESENTATION('',(#696),#700);
#696 = LINE('',#697,#698);
#697 = CARTESIAN_POINT('',(117.97689098684,148.38194617736));
#698 = VECTOR('',#699,1.);
#699 = DIRECTION('',(0.563461581838,-0.826142267284));
#700 = ( GEOMETRIC_REPRESENTATION_CONTEXT(2) 
PARAMETRIC_REPRESENTATION_CONTEXT() REPRESENTATION_CONTEXT('2D SPACE',''
  ) );
#701 = ORIENTED_EDGE('',*,*,#133,.F.);
#702 = ORIENTED_EDGE('',*,*,#703,.T.);
#703 = EDGE_CURVE('',#106,#635,#704,.T.);
#704 = SURFACE_CURVE('',#705,(#709,#716),.PCURVE_S1.);
#705 = LINE('',#706,#707);
#706 = CARTESIAN_POINT('',(1.762525293556E+03,940.91995278422,
    -1.048312725949E-12));
#707 = VECTOR('',#708,1.);
#708 = DIRECTION('',(-0.563461581838,0.826142267284,1.760432666726E-16)
  );
#709 = PCURVE('',#147,#710);
#710 = DEFINITIONAL_REPRESENTATION('',(#711),#715);
#711 = LINE('',#712,#713);
#712 = CARTESIAN_POINT('',(-99.39173228346,-30.5312963101));
#713 = VECTOR('',#714,1.);
#714 = DIRECTION('',(1.,1.062235233841E-16));
#715 = ( GEOMETRIC_REPRESENTATION_CONTEXT(2) 
PARAMETRIC_REPRESENTATION_CONTEXT() REPRESENTATION_CONTEXT('2D SPACE',''
  ) );
#716 = PCURVE('',#121,#717);
#717 = DEFINITIONAL_REPRESENTATION('',(#718),#722);
#718 = LINE('',#719,#720);
#719 = CARTESIAN_POINT('',(-1.349028678162E+03,858.12230454472));
#720 = VECTOR('',#721,1.);
#721 = DIRECTION('',(0.563461581838,0.826142267284));
#722 = ( GEOMETRIC_REPRESENTATION_CONTEXT(2) 
PARAMETRIC_REPRESENTATION_CONTEXT() REPRESENTATION_CONTEXT('2D SPACE',''
  ) );
#723 = ORIENTED_EDGE('',*,*,#634,.F.);
#724 = ADVANCED_FACE('',(#725),#66,.T.);
#725 = FACE_BOUND('',#726,.T.);
#726 = EDGE_LOOP('',(#727,#728,#729,#730,#731,#732,#733,#734,#735));
#727 = ORIENTED_EDGE('',*,*,#681,.F.);
#728 = ORIENTED_EDGE('',*,*,#611,.F.);
#729 = ORIENTED_EDGE('',*,*,#536,.F.);
#730 = ORIENTED_EDGE('',*,*,#461,.F.);
#731 = ORIENTED_EDGE('',*,*,#386,.F.);
#732 = ORIENTED_EDGE('',*,*,#311,.F.);
#733 = ORIENTED_EDGE('',*,*,#236,.F.);
#734 = ORIENTED_EDGE('',*,*,#161,.F.);
#735 = ORIENTED_EDGE('',*,*,#43,.F.);
#736 = ADVANCED_FACE('',(#737),#121,.T.);
#737 = FACE_BOUND('',#738,.T.);
#738 = EDGE_LOOP('',(#739,#740,#741,#742,#743,#744,#745,#746,#747));
#739 = ORIENTED_EDGE('',*,*,#703,.F.);
#740 = ORIENTED_EDGE('',*,*,#105,.F.);
#741 = ORIENTED_EDGE('',*,*,#211,.F.);
#742 = ORIENTED_EDGE('',*,*,#286,.F.);
#743 = ORIENTED_EDGE('',*,*,#361,.F.);
#744 = ORIENTED_EDGE('',*,*,#436,.F.);
#745 = ORIENTED_EDGE('',*,*,#511,.F.);
#746 = ORIENTED_EDGE('',*,*,#586,.F.);
#747 = ORIENTED_EDGE('',*,*,#656,.F.);
#748 = ( GEOMETRIC_REPRESENTATION_CONTEXT(3) 
GLOBAL_UNCERTAINTY_ASSIGNED_CONTEXT((#752)) GLOBAL_UNIT_ASSIGNED_CONTEXT
((#749,#750,#751)) REPRESENTATION_CONTEXT('Context #1',
  '3D Context with UNIT and UNCERTAINTY') );
#749 = ( LENGTH_UNIT() NAMED_UNIT(*) SI_UNIT(.MILLI.,.METRE.) );
#750 = ( NAMED_UNIT(*) PLANE_ANGLE_UNIT() SI_UNIT($,.RADIAN.) );
#751 = ( NAMED_UNIT(*) SI_UNIT($,.STERADIAN.) SOLID_ANGLE_UNIT() );
#752 = UNCERTAINTY_MEASURE_WITH_UNIT(LENGTH_MEASURE(1.E-07),#749,
  'distance_accuracy_value','confusion accuracy');
#753 = CONTEXT_DEPENDENT_SHAPE_REPRESENTATION(#754,#756);
#754 = ( REPRESENTATION_RELATIONSHIP('','',#36,#10) 
REPRESENTATION_RELATIONSHIP_WITH_TRANSFORMATION(#755) 
SHAPE_REPRESENTATION_RELATIONSHIP() );
#755 = ITEM_DEFINED_TRANSFORMATION('','',#11,#15);
#756 = PRODUCT_DEFINITION_SHAPE('Placement','Placement of an item',#757
  );
#757 = NEXT_ASSEMBLY_USAGE_OCCURRENCE('1','','',#5,#31,$);
#758 = PRODUCT_RELATED_PRODUCT_CATEGORY('part',$,(#33));
#759 = SHAPE_DEFINITION_REPRESENTATION(#760,#766);
#760 = PRODUCT_DEFINITION_SHAPE('','',#761);
#761 = PRODUCT_DEFINITION('design','',#762,#765);
#762 = PRODUCT_DEFINITION_FORMATION('','',#763);
#763 = PRODUCT('inner_ribs_0_0_fab 1.2','inner_ribs_0_0_fab 1.2','',(
    #764));
#764 = PRODUCT_CONTEXT('',#2,'mechanical');
#765 = PRODUCT_DEFINITION_CONTEXT('part definition',#2,'design');
#766 = ADVANCED_BREP_SHAPE_REPRESENTATION('',(#11,#767),#1478);
#767 = MANIFOLD_SOLID_BREP('',#768);
#768 = CLOSED_SHELL('',(#769,#887,#962,#1037,#1112,#1187,#1262,#1337,
    #1407,#1454,#1466));
#769 = ADVANCED_FACE('',(#770),#784,.T.);
#770 = FACE_BOUND('',#771,.T.);
#771 = EDGE_LOOP('',(#772,#807,#834,#862));
#772 = ORIENTED_EDGE('',*,*,#773,.T.);
#773 = EDGE_CURVE('',#774,#776,#778,.T.);
#774 = VERTEX_POINT('',#775);
#775 = CARTESIAN_POINT('',(1.753155215147E+03,934.52919006578,
    59.999999999999));
#776 = VERTEX_POINT('',#777);
#777 = CARTESIAN_POINT('',(-966.8447848526,-920.6179961918,60.));
#778 = SURFACE_CURVE('',#779,(#783,#795),.PCURVE_S1.);
#779 = LINE('',#780,#781);
#780 = CARTESIAN_POINT('',(1.753155215147E+03,934.52919006578,
    59.999999999999));
#781 = VECTOR('',#782,1.);
#782 = DIRECTION('',(-0.826142267284,-0.563461581838,3.798296031735E-16)
  );
#783 = PCURVE('',#784,#789);
#784 = PLANE('',#785);
#785 = AXIS2_PLACEMENT_3D('',#786,#787,#788);
#786 = CARTESIAN_POINT('',(397.84025435152,10.150978296198,
    29.999999999999));
#787 = DIRECTION('',(0.563461581838,-0.826142267284,1.829296084116E-15)
  );
#788 = DIRECTION('',(-0.826142267284,-0.563461581838,0.));
#789 = DEFINITIONAL_REPRESENTATION('',(#790),#794);
#790 = LINE('',#791,#792);
#791 = CARTESIAN_POINT('',(-1.640534584016E+03,-29.99999999999));
#792 = VECTOR('',#793,1.);
#793 = DIRECTION('',(1.,-3.798296031735E-16));
#794 = ( GEOMETRIC_REPRESENTATION_CONTEXT(2) 
PARAMETRIC_REPRESENTATION_CONTEXT() REPRESENTATION_CONTEXT('2D SPACE',''
  ) );
#795 = PCURVE('',#796,#801);
#796 = PLANE('',#797);
#797 = AXIS2_PLACEMENT_3D('',#798,#799,#800);
#798 = CARTESIAN_POINT('',(1.523171478772E+03,950.37066600423,
    59.999999999999));
#799 = DIRECTION('',(3.640243897795E-16,0.,1.));
#800 = DIRECTION('',(1.,0.,-3.640243897795E-16));
#801 = DEFINITIONAL_REPRESENTATION('',(#802),#806);
#802 = LINE('',#803,#804);
#803 = CARTESIAN_POINT('',(229.98373637498,-15.84147593845));
#804 = VECTOR('',#805,1.);
#805 = DIRECTION('',(-0.826142267284,-0.563461581838));
#806 = ( GEOMETRIC_REPRESENTATION_CONTEXT(2) 
PARAMETRIC_REPRESENTATION_CONTEXT() REPRESENTATION_CONTEXT('2D SPACE',''
  ) );
#807 = ORIENTED_EDGE('',*,*,#808,.T.);
#808 = EDGE_CURVE('',#776,#809,#811,.T.);
#809 = VERTEX_POINT('',#810);
#810 = CARTESIAN_POINT('',(-957.4747064443,-914.2272334733,
    -3.093482807587E-13));
#811 = SURFACE_CURVE('',#812,(#816,#823),.PCURVE_S1.);
#812 = LINE('',#813,#814);
#813 = CARTESIAN_POINT('',(-966.8447848526,-920.6179961918,60.));
#814 = VECTOR('',#815,1.);
#815 = DIRECTION('',(0.153450386009,0.104659210233,-0.982598304877));
#816 = PCURVE('',#784,#817);
#817 = DEFINITIONAL_REPRESENTATION('',(#818),#822);
#818 = LINE('',#819,#820);
#819 = CARTESIAN_POINT('',(1.651876551107E+03,-30.));
#820 = VECTOR('',#821,1.);
#821 = DIRECTION('',(-0.185743293965,0.982598304877));
#822 = ( GEOMETRIC_REPRESENTATION_CONTEXT(2) 
PARAMETRIC_REPRESENTATION_CONTEXT() REPRESENTATION_CONTEXT('2D SPACE',''
  ) );
#823 = PCURVE('',#824,#829);
#824 = PLANE('',#825);
#825 = AXIS2_PLACEMENT_3D('',#826,#827,#828);
#826 = CARTESIAN_POINT('',(-1.106402542815E+03,-595.2971714406,30.));
#827 = DIRECTION('',(-0.897277518854,-0.401787011268,-0.182921435967));
#828 = DIRECTION('',(0.408682492699,-0.912676624091,0.));
#829 = DEFINITIONAL_REPRESENTATION('',(#830),#833);
#830 = B_SPLINE_CURVE_WITH_KNOTS('',1,(#831,#832),.UNSPECIFIED.,.F.,.F.,
  (2,2),(0.,61.062592620204),.PIECEWISE_BEZIER_KNOTS.);
#831 = CARTESIAN_POINT('',(353.94752447966,30.514860951496));
#832 = CARTESIAN_POINT('',(351.94421173711,-30.51486095149));
#833 = ( GEOMETRIC_REPRESENTATION_CONTEXT(2) 
PARAMETRIC_REPRESENTATION_CONTEXT() REPRESENTATION_CONTEXT('2D SPACE',''
  ) );
#834 = ORIENTED_EDGE('',*,*,#835,.T.);
#835 = EDGE_CURVE('',#809,#836,#838,.T.);
#836 = VERTEX_POINT('',#837);
#837 = CARTESIAN_POINT('',(1.762525293556E+03,940.91995278422,
    -1.048312725949E-12));
#838 = SURFACE_CURVE('',#839,(#843,#850),.PCURVE_S1.);
#839 = LINE('',#840,#841);
#840 = CARTESIAN_POINT('',(-957.4747064443,-914.2272334733,
    -3.093482807587E-13));
#841 = VECTOR('',#842,1.);
#842 = DIRECTION('',(0.826142267284,0.563461581838,-2.244447655116E-16)
  );
#843 = PCURVE('',#784,#844);
#844 = DEFINITIONAL_REPRESENTATION('',(#845),#849);
#845 = LINE('',#846,#847);
#846 = CARTESIAN_POINT('',(1.640534584016E+03,30.));
#847 = VECTOR('',#848,1.);
#848 = DIRECTION('',(-1.,2.244447655116E-16));
#849 = ( GEOMETRIC_REPRESENTATION_CONTEXT(2) 
PARAMETRIC_REPRESENTATION_CONTEXT() REPRESENTATION_CONTEXT('2D SPACE',''
  ) );
#850 = PCURVE('',#851,#856);
#851 = PLANE('',#852);
#852 = AXIS2_PLACEMENT_3D('',#853,#854,#855);
#853 = CARTESIAN_POINT('',(413.49661539332,82.797648239502,
    -6.806355820622E-13));
#854 = DIRECTION('',(-2.84616924971E-16,-0.,-1.));
#855 = DIRECTION('',(-1.,0.,2.84616924971E-16));
#856 = DEFINITIONAL_REPRESENTATION('',(#857),#861);
#857 = LINE('',#858,#859);
#858 = CARTESIAN_POINT('',(1.370971321838E+03,-997.0248817128));
#859 = VECTOR('',#860,1.);
#860 = DIRECTION('',(-0.826142267284,0.563461581838));
#861 = ( GEOMETRIC_REPRESENTATION_CONTEXT(2) 
PARAMETRIC_REPRESENTATION_CONTEXT() REPRESENTATION_CONTEXT('2D SPACE',''
  ) );
#862 = ORIENTED_EDGE('',*,*,#863,.T.);
#863 = EDGE_CURVE('',#836,#774,#864,.T.);
#864 = SURFACE_CURVE('',#865,(#869,#876),.PCURVE_S1.);
#865 = LINE('',#866,#867);
#866 = CARTESIAN_POINT('',(1.762525293556E+03,940.91995278422,
    -1.048312725949E-12));
#867 = VECTOR('',#868,1.);
#868 = DIRECTION('',(-0.153450386009,-0.104659210233,0.982598304877));
#869 = PCURVE('',#784,#870);
#870 = DEFINITIONAL_REPRESENTATION('',(#871),#875);
#871 = LINE('',#872,#873);
#872 = CARTESIAN_POINT('',(-1.651876551107E+03,30.));
#873 = VECTOR('',#874,1.);
#874 = DIRECTION('',(0.185743293965,-0.982598304877));
#875 = ( GEOMETRIC_REPRESENTATION_CONTEXT(2) 
PARAMETRIC_REPRESENTATION_CONTEXT() REPRESENTATION_CONTEXT('2D SPACE',''
  ) );
#876 = PCURVE('',#877,#882);
#877 = PLANE('',#878);
#878 = AXIS2_PLACEMENT_3D('',#879,#880,#881);
#879 = CARTESIAN_POINT('',(1.701836831657E+03,1.019836282483E+03,
    29.999999999999));
#880 = DIRECTION('',(0.81176599142,0.553656395177,0.185743293965));
#881 = DIRECTION('',(-0.563461581838,0.826142267284,1.387778780781E-17)
  );
#882 = DEFINITIONAL_REPRESENTATION('',(#883),#886);
#883 = B_SPLINE_CURVE_WITH_KNOTS('',1,(#884,#885),.UNSPECIFIED.,.F.,.F.,
  (2,2),(0.,61.062592620203),.PIECEWISE_BEZIER_KNOTS.);
#884 = CARTESIAN_POINT('',(-99.39173228346,-30.5312963101));
#885 = CARTESIAN_POINT('',(-99.39173228346,30.531296310102));
#886 = ( GEOMETRIC_REPRESENTATION_CONTEXT(2) 
PARAMETRIC_REPRESENTATION_CONTEXT() REPRESENTATION_CONTEXT('2D SPACE',''
  ) );
#887 = ADVANCED_FACE('',(#888),#824,.T.);
#888 = FACE_BOUND('',#889,.T.);
#889 = EDGE_LOOP('',(#890,#913,#940,#961));
#890 = ORIENTED_EDGE('',*,*,#891,.T.);
#891 = EDGE_CURVE('',#776,#892,#894,.T.);
#892 = VERTEX_POINT('',#893);
#893 = CARTESIAN_POINT('',(-1.255330379185E+03,-276.3671094079,60.));
#894 = SURFACE_CURVE('',#895,(#899,#906),.PCURVE_S1.);
#895 = LINE('',#896,#897);
#896 = CARTESIAN_POINT('',(-966.8447848526,-920.6179961918,60.));
#897 = VECTOR('',#898,1.);
#898 = DIRECTION('',(-0.408682492699,0.912676624091,-3.623719782364E-16)
  );
#899 = PCURVE('',#824,#900);
#900 = DEFINITIONAL_REPRESENTATION('',(#901),#905);
#901 = LINE('',#902,#903);
#902 = CARTESIAN_POINT('',(353.94752447966,30.514860951496));
#903 = VECTOR('',#904,1.);
#904 = DIRECTION('',(-1.,-3.643030982861E-16));
#905 = ( GEOMETRIC_REPRESENTATION_CONTEXT(2) 
PARAMETRIC_REPRESENTATION_CONTEXT() REPRESENTATION_CONTEXT('2D SPACE',''
  ) );
#906 = PCURVE('',#796,#907);
#907 = DEFINITIONAL_REPRESENTATION('',(#908),#912);
#908 = LINE('',#909,#910);
#909 = CARTESIAN_POINT('',(-2.490016263625E+03,-1.870988662196E+03));
#910 = VECTOR('',#911,1.);
#911 = DIRECTION('',(-0.408682492699,0.912676624091));
#912 = ( GEOMETRIC_REPRESENTATION_CONTEXT(2) 
PARAMETRIC_REPRESENTATION_CONTEXT() REPRESENTATION_CONTEXT('2D SPACE',''
  ) );
#913 = ORIENTED_EDGE('',*,*,#914,.T.);
#914 = EDGE_CURVE('',#892,#915,#917,.T.);
#915 = VERTEX_POINT('',#916);
#916 = CARTESIAN_POINT('',(-1.245960300777E+03,-269.9763466895,
    -3.399029938666E-13));
#917 = SURFACE_CURVE('',#918,(#922,#929),.PCURVE_S1.);
#918 = LINE('',#919,#920);
#919 = CARTESIAN_POINT('',(-1.255330379185E+03,-276.3671094079,60.));
#920 = VECTOR('',#921,1.);
#921 = DIRECTION('',(0.153450386009,0.104659210233,-0.982598304877));
#922 = PCURVE('',#824,#923);
#923 = DEFINITIONAL_REPRESENTATION('',(#924),#928);
#924 = LINE('',#925,#926);
#925 = CARTESIAN_POINT('',(-351.9442117371,30.514860951496));
#926 = VECTOR('',#927,1.);
#927 = DIRECTION('',(-3.280752841608E-02,-0.99946168815));
#928 = ( GEOMETRIC_REPRESENTATION_CONTEXT(2) 
PARAMETRIC_REPRESENTATION_CONTEXT() REPRESENTATION_CONTEXT('2D SPACE',''
  ) );
#929 = PCURVE('',#930,#935);
#930 = PLANE('',#931);
#931 = AXIS2_PLACEMENT_3D('',#932,#933,#934);
#932 = CARTESIAN_POINT('',(-918.864653269,-157.7671274288,30.));
#933 = DIRECTION('',(-0.328128847281,0.943348997319,4.923544292498E-02)
  );
#934 = DIRECTION('',(0.944494480094,0.328527285127,0.));
#935 = DEFINITIONAL_REPRESENTATION('',(#936),#939);
#936 = B_SPLINE_CURVE_WITH_KNOTS('',1,(#937,#938),.UNSPECIFIED.,.F.,.F.,
  (2,2),(0.,61.062592620204),.PIECEWISE_BEZIER_KNOTS.);
#937 = CARTESIAN_POINT('',(-356.753350964,-30.03642817594));
#938 = CARTESIAN_POINT('',(-345.8038237036,30.03642817594));
#939 = ( GEOMETRIC_REPRESENTATION_CONTEXT(2) 
PARAMETRIC_REPRESENTATION_CONTEXT() REPRESENTATION_CONTEXT('2D SPACE',''
  ) );
#940 = ORIENTED_EDGE('',*,*,#941,.T.);
#941 = EDGE_CURVE('',#915,#809,#942,.T.);
#942 = SURFACE_CURVE('',#943,(#947,#954),.PCURVE_S1.);
#943 = LINE('',#944,#945);
#944 = CARTESIAN_POINT('',(-1.245960300777E+03,-269.9763466895,
    -3.399029938666E-13));
#945 = VECTOR('',#946,1.);
#946 = DIRECTION('',(0.408682492699,-0.912676624091,4.328526817954E-17)
  );
#947 = PCURVE('',#824,#948);
#948 = DEFINITIONAL_REPRESENTATION('',(#949),#953);
#949 = LINE('',#950,#951);
#950 = CARTESIAN_POINT('',(-353.9475244796,-30.51486095149));
#951 = VECTOR('',#952,1.);
#952 = DIRECTION('',(1.,4.721895908483E-17));
#953 = ( GEOMETRIC_REPRESENTATION_CONTEXT(2) 
PARAMETRIC_REPRESENTATION_CONTEXT() REPRESENTATION_CONTEXT('2D SPACE',''
  ) );
#954 = PCURVE('',#851,#955);
#955 = DEFINITIONAL_REPRESENTATION('',(#956),#960);
#956 = LINE('',#957,#958);
#957 = CARTESIAN_POINT('',(1.65945691617E+03,-352.773994929));
#958 = VECTOR('',#959,1.);
#959 = DIRECTION('',(-0.408682492699,-0.912676624091));
#960 = ( GEOMETRIC_REPRESENTATION_CONTEXT(2) 
PARAMETRIC_REPRESENTATION_CONTEXT() REPRESENTATION_CONTEXT('2D SPACE',''
  ) );
#961 = ORIENTED_EDGE('',*,*,#808,.F.);
#962 = ADVANCED_FACE('',(#963),#930,.T.);
#963 = FACE_BOUND('',#964,.T.);
#964 = EDGE_LOOP('',(#965,#988,#1015,#1036));
#965 = ORIENTED_EDGE('',*,*,#966,.T.);
#966 = EDGE_CURVE('',#892,#967,#969,.T.);
#967 = VERTEX_POINT('',#968);
#968 = CARTESIAN_POINT('',(-591.7690057612,-45.55790816812,
    59.999999999999));
#969 = SURFACE_CURVE('',#970,(#974,#981),.PCURVE_S1.);
#970 = LINE('',#971,#972);
#971 = CARTESIAN_POINT('',(-1.255330379185E+03,-276.3671094079,60.));
#972 = VECTOR('',#973,1.);
#973 = DIRECTION('',(0.944494480094,0.328527285127,-7.180701593835E-16)
  );
#974 = PCURVE('',#930,#975);
#975 = DEFINITIONAL_REPRESENTATION('',(#976),#980);
#976 = LINE('',#977,#978);
#977 = CARTESIAN_POINT('',(-356.753350964,-30.03642817594));
#978 = VECTOR('',#979,1.);
#979 = DIRECTION('',(1.,7.25384828187E-16));
#980 = ( GEOMETRIC_REPRESENTATION_CONTEXT(2) 
PARAMETRIC_REPRESENTATION_CONTEXT() REPRESENTATION_CONTEXT('2D SPACE',''
  ) );
#981 = PCURVE('',#796,#982);
#982 = DEFINITIONAL_REPRESENTATION('',(#983),#987);
#983 = LINE('',#984,#985);
#984 = CARTESIAN_POINT('',(-2.778501857958E+03,-1.226737775412E+03));
#985 = VECTOR('',#986,1.);
#986 = DIRECTION('',(0.944494480094,0.328527285127));
#987 = ( GEOMETRIC_REPRESENTATION_CONTEXT(2) 
PARAMETRIC_REPRESENTATION_CONTEXT() REPRESENTATION_CONTEXT('2D SPACE',''
  ) );
#988 = ORIENTED_EDGE('',*,*,#989,.T.);
#989 = EDGE_CURVE('',#967,#990,#992,.T.);
#990 = VERTEX_POINT('',#991);
#991 = CARTESIAN_POINT('',(-582.398927353,-39.16714544968,
    -3.918021924825E-13));
#992 = SURFACE_CURVE('',#993,(#997,#1004),.PCURVE_S1.);
#993 = LINE('',#994,#995);
#994 = CARTESIAN_POINT('',(-591.7690057612,-45.55790816812,
    59.999999999999));
#995 = VECTOR('',#996,1.);
#996 = DIRECTION('',(0.153450386009,0.104659210233,-0.982598304877));
#997 = PCURVE('',#930,#998);
#998 = DEFINITIONAL_REPRESENTATION('',(#999),#1003);
#999 = LINE('',#1000,#1001);
#1000 = CARTESIAN_POINT('',(345.80382370363,-30.03642817593));
#1001 = VECTOR('',#1002,1.);
#1002 = DIRECTION('',(0.179316448755,0.983791447008));
#1003 = ( GEOMETRIC_REPRESENTATION_CONTEXT(2) 
PARAMETRIC_REPRESENTATION_CONTEXT() REPRESENTATION_CONTEXT('2D SPACE',''
  ) );
#1004 = PCURVE('',#1005,#1010);
#1005 = PLANE('',#1006);
#1006 = AXIS2_PLACEMENT_3D('',#1007,#1008,#1009);
#1007 = CARTESIAN_POINT('',(-343.5112878189,55.222175060274,30.));
#1008 = DIRECTION('',(-0.37159286996,0.927500612313,4.075970011698E-02)
  );
#1009 = DIRECTION('',(0.928272026674,0.371901928598,1.734723475977E-18)
  );
#1010 = DEFINITIONAL_REPRESENTATION('',(#1011),#1014);
#1011 = B_SPLINE_CURVE_WITH_KNOTS('',1,(#1012,#1013),.UNSPECIFIED.,.F.,
  .F.,(2,2),(0.,61.062592620203),.PIECEWISE_BEZIER_KNOTS.);
#1012 = CARTESIAN_POINT('',(-267.9310022887,-30.02495139141));
#1013 = CARTESIAN_POINT('',(-256.8562836343,30.024951391417));
#1014 = ( GEOMETRIC_REPRESENTATION_CONTEXT(2) 
PARAMETRIC_REPRESENTATION_CONTEXT() REPRESENTATION_CONTEXT('2D SPACE',''
  ) );
#1015 = ORIENTED_EDGE('',*,*,#1016,.T.);
#1016 = EDGE_CURVE('',#990,#915,#1017,.T.);
#1017 = SURFACE_CURVE('',#1018,(#1022,#1029),.PCURVE_S1.);
#1018 = LINE('',#1019,#1020);
#1019 = CARTESIAN_POINT('',(-582.398927353,-39.16714544968,
    -3.918021924825E-13));
#1020 = VECTOR('',#1021,1.);
#1021 = DIRECTION('',(-0.944494480094,-0.328527285127,7.387185055863E-17
    ));
#1022 = PCURVE('',#930,#1023);
#1023 = DEFINITIONAL_REPRESENTATION('',(#1024),#1028);
#1024 = LINE('',#1025,#1026);
#1025 = CARTESIAN_POINT('',(356.75335096408,30.03642817594));
#1026 = VECTOR('',#1027,1.);
#1027 = DIRECTION('',(-1.,-7.360340108707E-17));
#1028 = ( GEOMETRIC_REPRESENTATION_CONTEXT(2) 
PARAMETRIC_REPRESENTATION_CONTEXT() REPRESENTATION_CONTEXT('2D SPACE',''
  ) );
#1029 = PCURVE('',#851,#1030);
#1030 = DEFINITIONAL_REPRESENTATION('',(#1031),#1035);
#1031 = LINE('',#1032,#1033);
#1032 = CARTESIAN_POINT('',(995.89554274633,-121.9647936891));
#1033 = VECTOR('',#1034,1.);
#1034 = DIRECTION('',(0.944494480094,-0.328527285127));
#1035 = ( GEOMETRIC_REPRESENTATION_CONTEXT(2) 
PARAMETRIC_REPRESENTATION_CONTEXT() REPRESENTATION_CONTEXT('2D SPACE',''
  ) );
#1036 = ORIENTED_EDGE('',*,*,#914,.F.);
#1037 = ADVANCED_FACE('',(#1038),#1005,.T.);
#1038 = FACE_BOUND('',#1039,.T.);
#1039 = EDGE_LOOP('',(#1040,#1063,#1090,#1111));
#1040 = ORIENTED_EDGE('',*,*,#1041,.T.);
#1041 = EDGE_CURVE('',#967,#1042,#1044,.T.);
#1042 = VERTEX_POINT('',#1043);
#1043 = CARTESIAN_POINT('',(-104.6236482847,149.61149557023,60.));
#1044 = SURFACE_CURVE('',#1045,(#1049,#1056),.PCURVE_S1.);
#1045 = LINE('',#1046,#1047);
#1046 = CARTESIAN_POINT('',(-591.7690057612,-45.55790816812,
    59.999999999999));
#1047 = VECTOR('',#1048,1.);
#1048 = DIRECTION('',(0.928272026674,0.371901928598,3.655700963063E-16)
  );
#1049 = PCURVE('',#1005,#1050);
#1050 = DEFINITIONAL_REPRESENTATION('',(#1051),#1055);
#1051 = LINE('',#1052,#1053);
#1052 = CARTESIAN_POINT('',(-267.9310022887,-30.02495139141));
#1053 = VECTOR('',#1054,1.);
#1054 = DIRECTION('',(1.,-3.646594632406E-16));
#1055 = ( GEOMETRIC_REPRESENTATION_CONTEXT(2) 
PARAMETRIC_REPRESENTATION_CONTEXT() REPRESENTATION_CONTEXT('2D SPACE',''
  ) );
#1056 = PCURVE('',#796,#1057);
#1057 = DEFINITIONAL_REPRESENTATION('',(#1058),#1062);
#1058 = LINE('',#1059,#1060);
#1059 = CARTESIAN_POINT('',(-2.114940484534E+03,-995.9285741723));
#1060 = VECTOR('',#1061,1.);
#1061 = DIRECTION('',(0.928272026674,0.371901928598));
#1062 = ( GEOMETRIC_REPRESENTATION_CONTEXT(2) 
PARAMETRIC_REPRESENTATION_CONTEXT() REPRESENTATION_CONTEXT('2D SPACE',''
  ) );
#1063 = ORIENTED_EDGE('',*,*,#1064,.T.);
#1064 = EDGE_CURVE('',#1042,#1065,#1067,.T.);
#1065 = VERTEX_POINT('',#1066);
#1066 = CARTESIAN_POINT('',(-95.2535698765,156.00225828867,
    -4.238833064904E-13));
#1067 = SURFACE_CURVE('',#1068,(#1072,#1079),.PCURVE_S1.);
#1068 = LINE('',#1069,#1070);
#1069 = CARTESIAN_POINT('',(-104.6236482847,149.61149557023,60.));
#1070 = VECTOR('',#1071,1.);
#1071 = DIRECTION('',(0.153450386009,0.104659210233,-0.982598304877));
#1072 = PCURVE('',#1005,#1073);
#1073 = DEFINITIONAL_REPRESENTATION('',(#1074),#1078);
#1074 = LINE('',#1075,#1076);
#1075 = CARTESIAN_POINT('',(256.85628363435,-30.02495139141));
#1076 = VECTOR('',#1077,1.);
#1077 = DIRECTION('',(0.181366662946,0.983415544707));
#1078 = ( GEOMETRIC_REPRESENTATION_CONTEXT(2) 
PARAMETRIC_REPRESENTATION_CONTEXT() REPRESENTATION_CONTEXT('2D SPACE',''
  ) );
#1079 = PCURVE('',#1080,#1085);
#1080 = PLANE('',#1081);
#1081 = AXIS2_PLACEMENT_3D('',#1082,#1083,#1084);
#1082 = CARTESIAN_POINT('',(136.54384475279,260.78720232862,
    29.999999999999));
#1083 = DIRECTION('',(-0.415146194897,0.909191470816,3.200790930875E-02)
  );
#1084 = DIRECTION('',(0.90965756516,0.415359018378,0.));
#1085 = DEFINITIONAL_REPRESENTATION('',(#1086),#1089);
#1086 = B_SPLINE_CURVE_WITH_KNOTS('',1,(#1087,#1088),.UNSPECIFIED.,.F.,
  .F.,(2,2),(0.,61.062592620203),.PIECEWISE_BEZIER_KNOTS.);
#1087 = CARTESIAN_POINT('',(-265.5576669388,-30.01537941211));
#1088 = CARTESIAN_POINT('',(-254.3796432992,30.015379412112));
#1089 = ( GEOMETRIC_REPRESENTATION_CONTEXT(2) 
PARAMETRIC_REPRESENTATION_CONTEXT() REPRESENTATION_CONTEXT('2D SPACE',''
  ) );
#1090 = ORIENTED_EDGE('',*,*,#1091,.T.);
#1091 = EDGE_CURVE('',#1065,#990,#1092,.T.);
#1092 = SURFACE_CURVE('',#1093,(#1097,#1104),.PCURVE_S1.);
#1093 = LINE('',#1094,#1095);
#1094 = CARTESIAN_POINT('',(-95.2535698765,156.00225828867,
    -4.238833064904E-13));
#1095 = VECTOR('',#1096,1.);
#1096 = DIRECTION('',(-0.928272026674,-0.371901928598,6.113165251613E-17
    ));
#1097 = PCURVE('',#1005,#1098);
#1098 = DEFINITIONAL_REPRESENTATION('',(#1099),#1103);
#1099 = LINE('',#1100,#1101);
#1100 = CARTESIAN_POINT('',(267.9310022887,30.024951391417));
#1101 = VECTOR('',#1102,1.);
#1102 = DIRECTION('',(-1.,-6.097937391154E-17));
#1103 = ( GEOMETRIC_REPRESENTATION_CONTEXT(2) 
PARAMETRIC_REPRESENTATION_CONTEXT() REPRESENTATION_CONTEXT('2D SPACE',''
  ) );
#1104 = PCURVE('',#851,#1105);
#1105 = DEFINITIONAL_REPRESENTATION('',(#1106),#1110);
#1106 = LINE('',#1107,#1108);
#1107 = CARTESIAN_POINT('',(508.75018526983,73.204610049173));
#1108 = VECTOR('',#1109,1.);
#1109 = DIRECTION('',(0.928272026674,-0.371901928598));
#1110 = ( GEOMETRIC_REPRESENTATION_CONTEXT(2) 
PARAMETRIC_REPRESENTATION_CONTEXT() REPRESENTATION_CONTEXT('2D SPACE',''
  ) );
#1111 = ORIENTED_EDGE('',*,*,#989,.F.);
#1112 = ADVANCED_FACE('',(#1113),#1080,.T.);
#1113 = FACE_BOUND('',#1114,.T.);
#1114 = EDGE_LOOP('',(#1115,#1138,#1165,#1186));
#1115 = ORIENTED_EDGE('',*,*,#1116,.T.);
#1116 = EDGE_CURVE('',#1042,#1117,#1119,.T.);
#1117 = VERTEX_POINT('',#1118);
#1118 = CARTESIAN_POINT('',(368.3412593821,365.57214636857,
    59.999999999999));
#1119 = SURFACE_CURVE('',#1120,(#1124,#1131),.PCURVE_S1.);
#1120 = LINE('',#1121,#1122);
#1121 = CARTESIAN_POINT('',(-104.6236482847,149.61149557023,60.));
#1122 = VECTOR('',#1123,1.);
#1123 = DIRECTION('',(0.90965756516,0.415359018378,-4.783075817393E-16)
  );
#1124 = PCURVE('',#1080,#1125);
#1125 = DEFINITIONAL_REPRESENTATION('',(#1126),#1130);
#1126 = LINE('',#1127,#1128);
#1127 = CARTESIAN_POINT('',(-265.5576669388,-30.01537941211));
#1128 = VECTOR('',#1129,1.);
#1129 = DIRECTION('',(1.,4.811244973529E-16));
#1130 = ( GEOMETRIC_REPRESENTATION_CONTEXT(2) 
PARAMETRIC_REPRESENTATION_CONTEXT() REPRESENTATION_CONTEXT('2D SPACE',''
  ) );
#1131 = PCURVE('',#796,#1132);
#1132 = DEFINITIONAL_REPRESENTATION('',(#1133),#1137);
#1133 = LINE('',#1134,#1135);
#1134 = CARTESIAN_POINT('',(-1.627795127057E+03,-800.759170434));
#1135 = VECTOR('',#1136,1.);
#1136 = DIRECTION('',(0.90965756516,0.415359018378));
#1137 = ( GEOMETRIC_REPRESENTATION_CONTEXT(2) 
PARAMETRIC_REPRESENTATION_CONTEXT() REPRESENTATION_CONTEXT('2D SPACE',''
  ) );
#1138 = ORIENTED_EDGE('',*,*,#1139,.T.);
#1139 = EDGE_CURVE('',#1117,#1140,#1142,.T.);
#1140 = VERTEX_POINT('',#1141);
#1141 = CARTESIAN_POINT('',(377.71133779039,371.96290908701,
    -4.488352840522E-13));
#1142 = SURFACE_CURVE('',#1143,(#1147,#1154),.PCURVE_S1.);
#1143 = LINE('',#1144,#1145);
#1144 = CARTESIAN_POINT('',(368.3412593821,365.57214636857,
    59.999999999999));
#1145 = VECTOR('',#1146,1.);
#1146 = DIRECTION('',(0.153450386009,0.104659210233,-0.982598304877));
#1147 = PCURVE('',#1080,#1148);
#1148 = DEFINITIONAL_REPRESENTATION('',(#1149),#1153);
#1149 = LINE('',#1150,#1151);
#1150 = CARTESIAN_POINT('',(254.37964329921,-30.01537941211));
#1151 = VECTOR('',#1152,1.);
#1152 = DIRECTION('',(0.183058451337,0.983102031019));
#1153 = ( GEOMETRIC_REPRESENTATION_CONTEXT(2) 
PARAMETRIC_REPRESENTATION_CONTEXT() REPRESENTATION_CONTEXT('2D SPACE',''
  ) );
#1154 = PCURVE('',#1155,#1160);
#1155 = PLANE('',#1156);
#1156 = AXIS2_PLACEMENT_3D('',#1157,#1158,#1159);
#1157 = CARTESIAN_POINT('',(602.41852751491,487.14347665694,
    29.999999999999));
#1158 = DIRECTION('',(-0.458459977765,0.888416583989,2.303089407796E-02)
  );
#1159 = DIRECTION('',(0.88865229565,0.458581614804,0.));
#1160 = DEFINITIONAL_REPRESENTATION('',(#1161),#1164);
#1161 = B_SPLINE_CURVE_WITH_KNOTS('',1,(#1162,#1163),.UNSPECIFIED.,.F.,
  .F.,(2,2),(0.,61.062592620203),.PIECEWISE_BEZIER_KNOTS.);
#1162 = CARTESIAN_POINT('',(-263.7636786431,-30.00795949779));
#1163 = CARTESIAN_POINT('',(-252.5062506679,30.00795949779));
#1164 = ( GEOMETRIC_REPRESENTATION_CONTEXT(2) 
PARAMETRIC_REPRESENTATION_CONTEXT() REPRESENTATION_CONTEXT('2D SPACE',''
  ) );
#1165 = ORIENTED_EDGE('',*,*,#1166,.T.);
#1166 = EDGE_CURVE('',#1140,#1065,#1167,.T.);
#1167 = SURFACE_CURVE('',#1168,(#1172,#1179),.PCURVE_S1.);
#1168 = LINE('',#1169,#1170);
#1169 = CARTESIAN_POINT('',(377.71133779039,371.96290908701,
    -4.488352840522E-13));
#1170 = VECTOR('',#1171,1.);
#1171 = DIRECTION('',(-0.90965756516,-0.415359018378,4.799035781891E-17)
  );
#1172 = PCURVE('',#1080,#1173);
#1173 = DEFINITIONAL_REPRESENTATION('',(#1174),#1178);
#1174 = LINE('',#1175,#1176);
#1175 = CARTESIAN_POINT('',(265.55766693886,30.015379412112));
#1176 = VECTOR('',#1177,1.);
#1177 = DIRECTION('',(-1.,-4.614074158675E-17));
#1178 = ( GEOMETRIC_REPRESENTATION_CONTEXT(2) 
PARAMETRIC_REPRESENTATION_CONTEXT() REPRESENTATION_CONTEXT('2D SPACE',''
  ) );
#1179 = PCURVE('',#851,#1180);
#1180 = DEFINITIONAL_REPRESENTATION('',(#1181),#1185);
#1181 = LINE('',#1182,#1183);
#1182 = CARTESIAN_POINT('',(35.785277602929,289.1652608475));
#1183 = VECTOR('',#1184,1.);
#1184 = DIRECTION('',(0.90965756516,-0.415359018378));
#1185 = ( GEOMETRIC_REPRESENTATION_CONTEXT(2) 
PARAMETRIC_REPRESENTATION_CONTEXT() REPRESENTATION_CONTEXT('2D SPACE',''
  ) );
#1186 = ORIENTED_EDGE('',*,*,#1064,.F.);
#1187 = ADVANCED_FACE('',(#1188),#1155,.T.);
#1188 = FACE_BOUND('',#1189,.T.);
#1189 = EDGE_LOOP('',(#1190,#1213,#1240,#1261));
#1190 = ORIENTED_EDGE('',*,*,#1191,.T.);
#1191 = EDGE_CURVE('',#1117,#1192,#1194,.T.);
#1192 = VERTEX_POINT('',#1193);
#1193 = CARTESIAN_POINT('',(827.12571723942,602.32404422687,
    59.999999999999));
#1194 = SURFACE_CURVE('',#1195,(#1199,#1206),.PCURVE_S1.);
#1195 = LINE('',#1196,#1197);
#1196 = CARTESIAN_POINT('',(368.3412593821,365.57214636857,
    59.999999999999));
#1197 = VECTOR('',#1198,1.);
#1198 = DIRECTION('',(0.88865229565,0.458581614804,-3.71601225954E-16));
#1199 = PCURVE('',#1155,#1200);
#1200 = DEFINITIONAL_REPRESENTATION('',(#1201),#1205);
#1201 = LINE('',#1202,#1203);
#1202 = CARTESIAN_POINT('',(-263.7636786431,-30.00795949779));
#1203 = VECTOR('',#1204,1.);
#1204 = DIRECTION('',(1.,3.695708834435E-16));
#1205 = ( GEOMETRIC_REPRESENTATION_CONTEXT(2) 
PARAMETRIC_REPRESENTATION_CONTEXT() REPRESENTATION_CONTEXT('2D SPACE',''
  ) );
#1206 = PCURVE('',#796,#1207);
#1207 = DEFINITIONAL_REPRESENTATION('',(#1208),#1212);
#1208 = LINE('',#1209,#1210);
#1209 = CARTESIAN_POINT('',(-1.15483021939E+03,-584.7985196356));
#1210 = VECTOR('',#1211,1.);
#1211 = DIRECTION('',(0.88865229565,0.458581614804));
#1212 = ( GEOMETRIC_REPRESENTATION_CONTEXT(2) 
PARAMETRIC_REPRESENTATION_CONTEXT() REPRESENTATION_CONTEXT('2D SPACE',''
  ) );
#1213 = ORIENTED_EDGE('',*,*,#1214,.T.);
#1214 = EDGE_CURVE('',#1192,#1215,#1217,.T.);
#1215 = VERTEX_POINT('',#1216);
#1216 = CARTESIAN_POINT('',(836.49579564771,608.71480694531,
    -5.803449628893E-13));
#1217 = SURFACE_CURVE('',#1218,(#1222,#1229),.PCURVE_S1.);
#1218 = LINE('',#1219,#1220);
#1219 = CARTESIAN_POINT('',(827.12571723942,602.32404422687,
    59.999999999999));
#1220 = VECTOR('',#1221,1.);
#1221 = DIRECTION('',(0.153450386009,0.104659210233,-0.982598304877));
#1222 = PCURVE('',#1155,#1223);
#1223 = DEFINITIONAL_REPRESENTATION('',(#1224),#1228);
#1224 = LINE('',#1225,#1226);
#1225 = CARTESIAN_POINT('',(252.50625066797,-30.00795949779));
#1226 = VECTOR('',#1227,1.);
#1227 = DIRECTION('',(0.184358827428,0.982859004511));
#1228 = ( GEOMETRIC_REPRESENTATION_CONTEXT(2) 
PARAMETRIC_REPRESENTATION_CONTEXT() REPRESENTATION_CONTEXT('2D SPACE',''
  ) );
#1229 = PCURVE('',#1230,#1235);
#1230 = PLANE('',#1231);
#1231 = AXIS2_PLACEMENT_3D('',#1232,#1233,#1234);
#1232 = CARTESIAN_POINT('',(1.054112760467E+03,734.29099804523,
    29.999999999999));
#1233 = DIRECTION('',(-0.501193196687,0.865223976837,1.388702639349E-02)
  );
#1234 = DIRECTION('',(0.865307417912,0.501241531107,0.));
#1235 = DEFINITIONAL_REPRESENTATION('',(#1236),#1239);
#1236 = B_SPLINE_CURVE_WITH_KNOTS('',1,(#1237,#1238),.UNSPECIFIED.,.F.,
  .F.,(2,2),(0.,61.062592620203),.PIECEWISE_BEZIER_KNOTS.);
#1237 = CARTESIAN_POINT('',(-262.5608902625,-30.00289316099));
#1238 = CARTESIAN_POINT('',(-251.2495762195,30.002893160996));
#1239 = ( GEOMETRIC_REPRESENTATION_CONTEXT(2) 
PARAMETRIC_REPRESENTATION_CONTEXT() REPRESENTATION_CONTEXT('2D SPACE',''
  ) );
#1240 = ORIENTED_EDGE('',*,*,#1241,.T.);
#1241 = EDGE_CURVE('',#1215,#1140,#1242,.T.);
#1242 = SURFACE_CURVE('',#1243,(#1247,#1254),.PCURVE_S1.);
#1243 = LINE('',#1244,#1245);
#1244 = CARTESIAN_POINT('',(836.49579564771,608.71480694531,
    -5.803449628893E-13));
#1245 = VECTOR('',#1246,1.);
#1246 = DIRECTION('',(-0.88865229565,-0.458581614804,2.547304643767E-16)
  );
#1247 = PCURVE('',#1155,#1248);
#1248 = DEFINITIONAL_REPRESENTATION('',(#1249),#1253);
#1249 = LINE('',#1250,#1251);
#1250 = CARTESIAN_POINT('',(263.76367864317,30.00795949779));
#1251 = VECTOR('',#1252,1.);
#1252 = DIRECTION('',(-1.,-2.527930957836E-16));
#1253 = ( GEOMETRIC_REPRESENTATION_CONTEXT(2) 
PARAMETRIC_REPRESENTATION_CONTEXT() REPRESENTATION_CONTEXT('2D SPACE',''
  ) );
#1254 = PCURVE('',#851,#1255);
#1255 = DEFINITIONAL_REPRESENTATION('',(#1256),#1260);
#1256 = LINE('',#1257,#1258);
#1257 = CARTESIAN_POINT('',(-422.9991802543,525.91715870581));
#1258 = VECTOR('',#1259,1.);
#1259 = DIRECTION('',(0.88865229565,-0.458581614804));
#1260 = ( GEOMETRIC_REPRESENTATION_CONTEXT(2) 
PARAMETRIC_REPRESENTATION_CONTEXT() REPRESENTATION_CONTEXT('2D SPACE',''
  ) );
#1261 = ORIENTED_EDGE('',*,*,#1139,.F.);
#1262 = ADVANCED_FACE('',(#1263),#1230,.T.);
#1263 = FACE_BOUND('',#1264,.T.);
#1264 = EDGE_LOOP('',(#1265,#1288,#1315,#1336));
#1265 = ORIENTED_EDGE('',*,*,#1266,.T.);
#1266 = EDGE_CURVE('',#1192,#1267,#1269,.T.);
#1267 = VERTEX_POINT('',#1268);
#1268 = CARTESIAN_POINT('',(1.271729725287E+03,859.86718914515,
    59.999999999999));
#1269 = SURFACE_CURVE('',#1270,(#1274,#1281),.PCURVE_S1.);
#1270 = LINE('',#1271,#1272);
#1271 = CARTESIAN_POINT('',(827.12571723942,602.32404422687,
    59.999999999999));
#1272 = VECTOR('',#1273,1.);
#1273 = DIRECTION('',(0.865307417912,0.501241531107,-1.244599913588E-16)
  );
#1274 = PCURVE('',#1230,#1275);
#1275 = DEFINITIONAL_REPRESENTATION('',(#1276),#1280);
#1276 = LINE('',#1277,#1278);
#1277 = CARTESIAN_POINT('',(-262.5608902625,-30.00289316099));
#1278 = VECTOR('',#1279,1.);
#1279 = DIRECTION('',(1.,1.230754715543E-16));
#1280 = ( GEOMETRIC_REPRESENTATION_CONTEXT(2) 
PARAMETRIC_REPRESENTATION_CONTEXT() REPRESENTATION_CONTEXT('2D SPACE',''
  ) );
#1281 = PCURVE('',#796,#1282);
#1282 = DEFINITIONAL_REPRESENTATION('',(#1283),#1287);
#1283 = LINE('',#1284,#1285);
#1284 = CARTESIAN_POINT('',(-696.0457615329,-348.0466217773));
#1285 = VECTOR('',#1286,1.);
#1286 = DIRECTION('',(0.865307417912,0.501241531107));
#1287 = ( GEOMETRIC_REPRESENTATION_CONTEXT(2) 
PARAMETRIC_REPRESENTATION_CONTEXT() REPRESENTATION_CONTEXT('2D SPACE',''
  ) );
#1288 = ORIENTED_EDGE('',*,*,#1289,.T.);
#1289 = EDGE_CURVE('',#1267,#1290,#1292,.T.);
#1290 = VERTEX_POINT('',#1291);
#1291 = CARTESIAN_POINT('',(1.281099803695E+03,866.25795186359,
    -8.184123430018E-13));
#1292 = SURFACE_CURVE('',#1293,(#1297,#1304),.PCURVE_S1.);
#1293 = LINE('',#1294,#1295);
#1294 = CARTESIAN_POINT('',(1.271729725287E+03,859.86718914515,
    59.999999999999));
#1295 = VECTOR('',#1296,1.);
#1296 = DIRECTION('',(0.153450386009,0.104659210233,-0.982598304877));
#1297 = PCURVE('',#1230,#1298);
#1298 = DEFINITIONAL_REPRESENTATION('',(#1299),#1303);
#1299 = LINE('',#1300,#1301);
#1300 = CARTESIAN_POINT('',(251.2495762195,-30.00289316099));
#1301 = VECTOR('',#1302,1.);
#1302 = DIRECTION('',(0.185241300077,0.98269306538));
#1303 = ( GEOMETRIC_REPRESENTATION_CONTEXT(2) 
PARAMETRIC_REPRESENTATION_CONTEXT() REPRESENTATION_CONTEXT('2D SPACE',''
  ) );
#1304 = PCURVE('',#1305,#1310);
#1305 = PLANE('',#1306);
#1306 = AXIS2_PLACEMENT_3D('',#1307,#1308,#1309);
#1307 = CARTESIAN_POINT('',(1.461124086727E+03,982.50528202259,
    29.999999999999));
#1308 = DIRECTION('',(-0.5430047971,0.839716771064,4.640551827688E-03));
#1309 = DIRECTION('',(0.839725812743,0.543010643922,0.));
#1310 = DEFINITIONAL_REPRESENTATION('',(#1311),#1314);
#1311 = B_SPLINE_CURVE_WITH_KNOTS('',1,(#1312,#1313),.UNSPECIFIED.,.F.,
  .F.,(2,2),(0.,61.062592620203),.PIECEWISE_BEZIER_KNOTS.);
#1312 = CARTESIAN_POINT('',(-225.6331238721,-30.00032302603));
#1313 = CARTESIAN_POINT('',(-214.2945749863,30.000323026036));
#1314 = ( GEOMETRIC_REPRESENTATION_CONTEXT(2) 
PARAMETRIC_REPRESENTATION_CONTEXT() REPRESENTATION_CONTEXT('2D SPACE',''
  ) );
#1315 = ORIENTED_EDGE('',*,*,#1316,.T.);
#1316 = EDGE_CURVE('',#1290,#1215,#1317,.T.);
#1317 = SURFACE_CURVE('',#1318,(#1322,#1329),.PCURVE_S1.);
#1318 = LINE('',#1319,#1320);
#1319 = CARTESIAN_POINT('',(1.281099803695E+03,866.25795186359,
    -8.184123430018E-13));
#1320 = VECTOR('',#1321,1.);
#1321 = DIRECTION('',(-0.865307417912,-0.501241531107,4.633369610832E-16
    ));
#1322 = PCURVE('',#1230,#1323);
#1323 = DEFINITIONAL_REPRESENTATION('',(#1324),#1328);
#1324 = LINE('',#1325,#1326);
#1325 = CARTESIAN_POINT('',(262.56089026254,30.002893160996));
#1326 = VECTOR('',#1327,1.);
#1327 = DIRECTION('',(-1.,-4.65515367551E-16));
#1328 = ( GEOMETRIC_REPRESENTATION_CONTEXT(2) 
PARAMETRIC_REPRESENTATION_CONTEXT() REPRESENTATION_CONTEXT('2D SPACE',''
  ) );
#1329 = PCURVE('',#851,#1330);
#1330 = DEFINITIONAL_REPRESENTATION('',(#1331),#1335);
#1331 = LINE('',#1332,#1333);
#1332 = CARTESIAN_POINT('',(-867.6031883021,783.46030362408));
#1333 = VECTOR('',#1334,1.);
#1334 = DIRECTION('',(0.865307417912,-0.501241531107));
#1335 = ( GEOMETRIC_REPRESENTATION_CONTEXT(2) 
PARAMETRIC_REPRESENTATION_CONTEXT() REPRESENTATION_CONTEXT('2D SPACE',''
  ) );
#1336 = ORIENTED_EDGE('',*,*,#1214,.F.);
#1337 = ADVANCED_FACE('',(#1338),#1305,.T.);
#1338 = FACE_BOUND('',#1339,.T.);
#1339 = EDGE_LOOP('',(#1340,#1363,#1385,#1406));
#1340 = ORIENTED_EDGE('',*,*,#1341,.T.);
#1341 = EDGE_CURVE('',#1267,#1342,#1344,.T.);
#1342 = VERTEX_POINT('',#1343);
#1343 = CARTESIAN_POINT('',(1.641148369759E+03,1.098752612182E+03,
    59.999999999999));
#1344 = SURFACE_CURVE('',#1345,(#1349,#1356),.PCURVE_S1.);
#1345 = LINE('',#1346,#1347);
#1346 = CARTESIAN_POINT('',(1.271729725287E+03,859.86718914515,
    59.999999999999));
#1347 = VECTOR('',#1348,1.);
#1348 = DIRECTION('',(0.839725812743,0.543010643922,-3.230270508558E-16)
  );
#1349 = PCURVE('',#1305,#1350);
#1350 = DEFINITIONAL_REPRESENTATION('',(#1351),#1355);
#1351 = LINE('',#1352,#1353);
#1352 = CARTESIAN_POINT('',(-225.6331238721,-30.00032302603));
#1353 = VECTOR('',#1354,1.);
#1354 = DIRECTION('',(1.,3.227590168651E-16));
#1355 = ( GEOMETRIC_REPRESENTATION_CONTEXT(2) 
PARAMETRIC_REPRESENTATION_CONTEXT() REPRESENTATION_CONTEXT('2D SPACE',''
  ) );
#1356 = PCURVE('',#796,#1357);
#1357 = DEFINITIONAL_REPRESENTATION('',(#1358),#1362);
#1358 = LINE('',#1359,#1360);
#1359 = CARTESIAN_POINT('',(-251.4417534852,-90.50347685908));
#1360 = VECTOR('',#1361,1.);
#1361 = DIRECTION('',(0.839725812743,0.543010643922));
#1362 = ( GEOMETRIC_REPRESENTATION_CONTEXT(2) 
PARAMETRIC_REPRESENTATION_CONTEXT() REPRESENTATION_CONTEXT('2D SPACE',''
  ) );
#1363 = ORIENTED_EDGE('',*,*,#1364,.T.);
#1364 = EDGE_CURVE('',#1342,#1365,#1367,.T.);
#1365 = VERTEX_POINT('',#1366);
#1366 = CARTESIAN_POINT('',(1.650518448168E+03,1.1051433749E+03,
    -1.013318235486E-12));
#1367 = SURFACE_CURVE('',#1368,(#1372,#1379),.PCURVE_S1.);
#1368 = LINE('',#1369,#1370);
#1369 = CARTESIAN_POINT('',(1.641148369759E+03,1.098752612182E+03,
    59.999999999999));
#1370 = VECTOR('',#1371,1.);
#1371 = DIRECTION('',(0.153450386009,0.104659210233,-0.982598304877));
#1372 = PCURVE('',#1305,#1373);
#1373 = DEFINITIONAL_REPRESENTATION('',(#1374),#1378);
#1374 = LINE('',#1375,#1376);
#1375 = CARTESIAN_POINT('',(214.29457498635,-30.00032302603));
#1376 = VECTOR('',#1377,1.);
#1377 = DIRECTION('',(0.185687315249,0.982608885038));
#1378 = ( GEOMETRIC_REPRESENTATION_CONTEXT(2) 
PARAMETRIC_REPRESENTATION_CONTEXT() REPRESENTATION_CONTEXT('2D SPACE',''
  ) );
#1379 = PCURVE('',#877,#1380);
#1380 = DEFINITIONAL_REPRESENTATION('',(#1381),#1384);
#1381 = B_SPLINE_CURVE_WITH_KNOTS('',1,(#1382,#1383),.UNSPECIFIED.,.F.,
  .F.,(2,2),(0.,61.062592620203),.PIECEWISE_BEZIER_KNOTS.);
#1382 = CARTESIAN_POINT('',(99.391732283464,30.531296310102));
#1383 = CARTESIAN_POINT('',(99.391732283464,-30.5312963101));
#1384 = ( GEOMETRIC_REPRESENTATION_CONTEXT(2) 
PARAMETRIC_REPRESENTATION_CONTEXT() REPRESENTATION_CONTEXT('2D SPACE',''
  ) );
#1385 = ORIENTED_EDGE('',*,*,#1386,.T.);
#1386 = EDGE_CURVE('',#1365,#1290,#1387,.T.);
#1387 = SURFACE_CURVE('',#1388,(#1392,#1399),.PCURVE_S1.);
#1388 = LINE('',#1389,#1390);
#1389 = CARTESIAN_POINT('',(1.650518448168E+03,1.1051433749E+03,
    -1.013318235486E-12));
#1390 = VECTOR('',#1391,1.);
#1391 = DIRECTION('',(-0.839725812743,-0.543010643922,4.430407382628E-16
    ));
#1392 = PCURVE('',#1305,#1393);
#1393 = DEFINITIONAL_REPRESENTATION('',(#1394),#1398);
#1394 = LINE('',#1395,#1396);
#1395 = CARTESIAN_POINT('',(225.63312387211,30.000323026036));
#1396 = VECTOR('',#1397,1.);
#1397 = DIRECTION('',(-1.,-4.42768827601E-16));
#1398 = ( GEOMETRIC_REPRESENTATION_CONTEXT(2) 
PARAMETRIC_REPRESENTATION_CONTEXT() REPRESENTATION_CONTEXT('2D SPACE',''
  ) );
#1399 = PCURVE('',#851,#1400);
#1400 = DEFINITIONAL_REPRESENTATION('',(#1401),#1405);
#1401 = LINE('',#1402,#1403);
#1402 = CARTESIAN_POINT('',(-1.237021832774E+03,1.022345726661E+03));
#1403 = VECTOR('',#1404,1.);
#1404 = DIRECTION('',(0.839725812743,-0.543010643922));
#1405 = ( GEOMETRIC_REPRESENTATION_CONTEXT(2) 
PARAMETRIC_REPRESENTATION_CONTEXT() REPRESENTATION_CONTEXT('2D SPACE',''
  ) );
#1406 = ORIENTED_EDGE('',*,*,#1289,.F.);
#1407 = ADVANCED_FACE('',(#1408),#877,.T.);
#1408 = FACE_BOUND('',#1409,.T.);
#1409 = EDGE_LOOP('',(#1410,#1431,#1432,#1453));
#1410 = ORIENTED_EDGE('',*,*,#1411,.T.);
#1411 = EDGE_CURVE('',#1342,#774,#1412,.T.);
#1412 = SURFACE_CURVE('',#1413,(#1417,#1424),.PCURVE_S1.);
#1413 = LINE('',#1414,#1415);
#1414 = CARTESIAN_POINT('',(1.641148369759E+03,1.098752612182E+03,
    59.999999999999));
#1415 = VECTOR('',#1416,1.);
#1416 = DIRECTION('',(0.563461581838,-0.826142267284,-1.787227970164E-16
    ));
#1417 = PCURVE('',#877,#1418);
#1418 = DEFINITIONAL_REPRESENTATION('',(#1419),#1423);
#1419 = LINE('',#1420,#1421);
#1420 = CARTESIAN_POINT('',(99.391732283464,30.531296310102));
#1421 = VECTOR('',#1422,1.);
#1422 = DIRECTION('',(-1.,-1.55676190514E-16));
#1423 = ( GEOMETRIC_REPRESENTATION_CONTEXT(2) 
PARAMETRIC_REPRESENTATION_CONTEXT() REPRESENTATION_CONTEXT('2D SPACE',''
  ) );
#1424 = PCURVE('',#796,#1425);
#1425 = DEFINITIONAL_REPRESENTATION('',(#1426),#1430);
#1426 = LINE('',#1427,#1428);
#1427 = CARTESIAN_POINT('',(117.97689098684,148.38194617736));
#1428 = VECTOR('',#1429,1.);
#1429 = DIRECTION('',(0.563461581838,-0.826142267284));
#1430 = ( GEOMETRIC_REPRESENTATION_CONTEXT(2) 
PARAMETRIC_REPRESENTATION_CONTEXT() REPRESENTATION_CONTEXT('2D SPACE',''
  ) );
#1431 = ORIENTED_EDGE('',*,*,#863,.F.);
#1432 = ORIENTED_EDGE('',*,*,#1433,.T.);
#1433 = EDGE_CURVE('',#836,#1365,#1434,.T.);
#1434 = SURFACE_CURVE('',#1435,(#1439,#1446),.PCURVE_S1.);
#1435 = LINE('',#1436,#1437);
#1436 = CARTESIAN_POINT('',(1.762525293556E+03,940.91995278422,
    -1.048312725949E-12));
#1437 = VECTOR('',#1438,1.);
#1438 = DIRECTION('',(-0.563461581838,0.826142267284,1.760432666726E-16)
  );
#1439 = PCURVE('',#877,#1440);
#1440 = DEFINITIONAL_REPRESENTATION('',(#1441),#1445);
#1441 = LINE('',#1442,#1443);
#1442 = CARTESIAN_POINT('',(-99.39173228346,-30.5312963101));
#1443 = VECTOR('',#1444,1.);
#1444 = DIRECTION('',(1.,1.062235233841E-16));
#1445 = ( GEOMETRIC_REPRESENTATION_CONTEXT(2) 
PARAMETRIC_REPRESENTATION_CONTEXT() REPRESENTATION_CONTEXT('2D SPACE',''
  ) );
#1446 = PCURVE('',#851,#1447);
#1447 = DEFINITIONAL_REPRESENTATION('',(#1448),#1452);
#1448 = LINE('',#1449,#1450);
#1449 = CARTESIAN_POINT('',(-1.349028678162E+03,858.12230454472));
#1450 = VECTOR('',#1451,1.);
#1451 = DIRECTION('',(0.563461581838,0.826142267284));
#1452 = ( GEOMETRIC_REPRESENTATION_CONTEXT(2) 
PARAMETRIC_REPRESENTATION_CONTEXT() REPRESENTATION_CONTEXT('2D SPACE',''
  ) );
#1453 = ORIENTED_EDGE('',*,*,#1364,.F.);
#1454 = ADVANCED_FACE('',(#1455),#796,.T.);
#1455 = FACE_BOUND('',#1456,.T.);
#1456 = EDGE_LOOP('',(#1457,#1458,#1459,#1460,#1461,#1462,#1463,#1464,
    #1465));
#1457 = ORIENTED_EDGE('',*,*,#1411,.F.);
#1458 = ORIENTED_EDGE('',*,*,#1341,.F.);
#1459 = ORIENTED_EDGE('',*,*,#1266,.F.);
#1460 = ORIENTED_EDGE('',*,*,#1191,.F.);
#1461 = ORIENTED_EDGE('',*,*,#1116,.F.);
#1462 = ORIENTED_EDGE('',*,*,#1041,.F.);
#1463 = ORIENTED_EDGE('',*,*,#966,.F.);
#1464 = ORIENTED_EDGE('',*,*,#891,.F.);
#1465 = ORIENTED_EDGE('',*,*,#773,.F.);
#1466 = ADVANCED_FACE('',(#1467),#851,.T.);
#1467 = FACE_BOUND('',#1468,.T.);
#1468 = EDGE_LOOP('',(#1469,#1470,#1471,#1472,#1473,#1474,#1475,#1476,
    #1477));
#1469 = ORIENTED_EDGE('',*,*,#1433,.F.);
#1470 = ORIENTED_EDGE('',*,*,#835,.F.);
#1471 = ORIENTED_EDGE('',*,*,#941,.F.);
#1472 = ORIENTED_EDGE('',*,*,#1016,.F.);
#1473 = ORIENTED_EDGE('',*,*,#1091,.F.);
#1474 = ORIENTED_EDGE('',*,*,#1166,.F.);
#1475 = ORIENTED_EDGE('',*,*,#1241,.F.);
#1476 = ORIENTED_EDGE('',*,*,#1316,.F.);
#1477 = ORIENTED_EDGE('',*,*,#1386,.F.);
#1478 = ( GEOMETRIC_REPRESENTATION_CONTEXT(3) 
GLOBAL_UNCERTAINTY_ASSIGNED_CONTEXT((#1482)) 
GLOBAL_UNIT_ASSIGNED_CONTEXT((#1479,#1480,#1481)) REPRESENTATION_CONTEXT
('Context #1','3D Context with UNIT and UNCERTAINTY') );
#1479 = ( LENGTH_UNIT() NAMED_UNIT(*) SI_UNIT(.MILLI.,.METRE.) );
#1480 = ( NAMED_UNIT(*) PLANE_ANGLE_UNIT() SI_UNIT($,.RADIAN.) );
#1481 = ( NAMED_UNIT(*) SI_UNIT($,.STERADIAN.) SOLID_ANGLE_UNIT() );
#1482 = UNCERTAINTY_MEASURE_WITH_UNIT(LENGTH_MEASURE(1.E-07),#1479,
  'distance_accuracy_value','confusion accuracy');
#1483 = CONTEXT_DEPENDENT_SHAPE_REPRESENTATION(#1484,#1486);
#1484 = ( REPRESENTATION_RELATIONSHIP('','',#766,#10) 
REPRESENTATION_RELATIONSHIP_WITH_TRANSFORMATION(#1485) 
SHAPE_REPRESENTATION_RELATIONSHIP() );
#1485 = ITEM_DEFINED_TRANSFORMATION('','',#11,#19);
#1486 = PRODUCT_DEFINITION_SHAPE('Placement','Placement of an item',
  #1487);
#1487 = NEXT_ASSEMBLY_USAGE_OCCURRENCE('2','','',#5,#761,$);
#1488 = PRODUCT_RELATED_PRODUCT_CATEGORY('part',$,(#763));
ENDSEC;
END-ISO-10303-21;
