# OBJ
# COMPAS
# version: 2.15.1
# precision: 3
# V F E: 190 268 452

o inner_beams_0_0_uncut
v -98.703 -986.106 60.000
v -98.703 913.894 60.000
v 98.297 938.268 60.000
v 98.297 -986.106 60.000
v -98.703 -986.106 -0.000
v -98.703 973.894 0.000
v 98.297 998.268 0.000
v 98.297 -986.106 -0.000
f 1 2 6 5
f 2 3 7 6
f 3 4 8 7
f 4 1 5 8
f 1 4 3
f 3 2 1
f 8 5 6
f 6 7 8
o inner_beams_0_0_cut
v 98.297 -986.106 -0.000
v 11.297 -715.608 -0.000
v 8.368 -722.679 -0.000
v 8.368 -708.537 -0.000
v 1.297 -725.608 -0.000
v 1.297 -705.608 -0.000
v 11.297 -375.857 -0.000
v 8.368 -382.928 -0.000
v 8.368 -368.786 -0.000
v 1.297 -385.857 -0.000
v 1.297 -365.857 -0.000
v 11.297 -36.106 -0.000
v 8.368 -43.177 -0.000
v 8.368 -29.035 -0.000
v 1.297 -46.106 -0.000
v 1.297 -26.106 -0.000
v -5.774 -722.679 -0.000
v -5.774 -708.537 -0.000
v -8.703 -715.608 -0.000
v -98.703 -986.106 -0.000
v -5.774 -382.928 -0.000
v -5.774 -368.786 -0.000
v -8.703 -375.857 -0.000
v -5.774 -43.177 -0.000
v -5.774 -29.035 -0.000
v -8.703 -36.106 -0.000
v -98.703 -885.483 30.000
v 11.297 303.645 0.000
v 8.368 296.574 0.000
v 8.368 310.716 0.000
v 1.297 293.645 0.000
v 1.297 313.645 0.000
v 98.297 998.268 0.000
v 11.297 643.396 0.000
v 8.368 636.325 0.000
v 8.368 650.467 0.000
v 1.297 633.396 0.000
v 1.297 653.396 0.000
v -5.774 296.574 0.000
v -5.774 310.716 0.000
v -8.703 303.645 0.000
v -5.774 636.325 0.000
v -5.774 650.467 0.000
v -8.703 643.396 0.000
v -98.703 973.894 0.000
v -98.703 813.271 30.000
v 98.297 -986.106 60.000
v 98.297 -885.483 60.000
v 11.297 -715.608 46.751
v 8.368 -722.679 46.305
v 8.368 -708.537 46.305
v 1.297 -725.608 45.228
v 1.297 -705.608 45.228
v 11.297 -375.857 46.751
v 8.368 -382.928 46.305
v 8.368 -368.786 46.305
v 1.297 -385.857 45.228
v 1.297 -365.857 45.228
v 11.297 -36.106 46.751
v 8.368 -43.177 46.305
v 8.368 -29.035 46.305
v 1.297 -46.106 45.228
v 1.297 -26.106 45.228
v -5.774 -722.679 44.152
v -5.774 -708.537 44.152
v -8.703 -715.608 43.706
v -5.774 -382.928 44.152
v -5.774 -368.786 44.152
v -8.703 -375.857 43.706
v -5.774 -43.177 44.152
v -5.774 -29.035 44.152
v -8.703 -36.106 43.706
v -98.703 -986.106 60.000
v -98.703 -885.483 60.000
v 11.297 303.645 46.751
v 8.368 296.574 46.305
v 8.368 310.716 46.305
v 1.297 293.645 45.228
v 1.297 313.645 45.228
v 98.297 813.271 60.000
v 98.297 938.268 60.000
v 11.297 643.396 46.751
v 8.368 636.325 46.305
v 8.368 650.467 46.305
v 1.297 633.396 45.228
v 1.297 653.396 45.228
v -5.774 296.574 44.152
v -5.774 310.716 44.152
v -8.703 303.645 43.706
v -5.774 636.325 44.152
v -5.774 650.467 44.152
v -8.703 643.396 43.706
v -98.703 813.271 60.000
v -98.703 913.894 60.000
f 9 11 10
f 9 13 11
f 9 28 13
f 9 10 15
f 15 10 12
f 12 14 16
f 14 18 16
f 9 20 41
f 9 15 32
f 9 21 20
f 9 23 21
f 9 32 23
f 15 12 16
f 15 17 32
f 17 19 32
f 28 25 13
f 28 27 25
f 14 26 18
f 26 27 29
f 18 26 29
f 29 27 31
f 28 31 27
f 19 30 32
f 30 31 32
f 28 32 31
f 28 34 32
f 28 53 34
f 22 24 37
f 22 37 36
f 24 39 37
f 41 20 22
f 41 22 36
f 42 36 38
f 38 40 43
f 41 36 42
f 38 43 42
f 40 45 43
f 41 42 44
f 41 44 46
f 41 46 53
f 24 47 39
f 24 49 47
f 40 48 45
f 48 49 50
f 53 24 33
f 53 33 34
f 53 49 24
f 45 48 50
f 50 49 52
f 53 52 49
f 53 46 51
f 53 51 52
f 9 55 81 28
f 81 82 35 54 101 102 53 28
f 56 55 9 41 89 88
f 53 102 89 41
f 81 55 56 82
f 102 101 88 89
f 11 58 57 10
f 57 59 12 10
f 11 13 60 58
f 59 61 14 12
f 16 63 62 15
f 64 17 15 62
f 63 16 18 65
f 64 66 19 17
f 67 20 21 68
f 20 67 69 22
f 70 68 21 23
f 22 69 71 24
f 13 25 72 60
f 73 26 14 61
f 72 25 27 74
f 27 26 73 74
f 65 18 29 75
f 30 19 66 76
f 75 29 31 77
f 31 30 76 77
f 23 32 78 70
f 24 71 79 33
f 78 32 34 80
f 79 80 34 33
f 84 83 36 37
f 38 36 83 85
f 86 84 37 39
f 85 87 40 38
f 91 90 42 43
f 42 90 92 44
f 43 45 93 91
f 46 44 92 94
f 86 39 47 95
f 48 40 87 96
f 49 48 96 97
f 49 97 95 47
f 98 93 45 50
f 99 51 46 94
f 50 52 100 98
f 99 100 52 51
f 57 58 56
f 58 60 56
f 60 35 56
f 57 56 62
f 57 63 59
f 59 65 61
f 57 62 63
f 59 63 65
f 62 56 78
f 68 56 67
f 68 70 56
f 78 56 70
f 62 78 64
f 64 78 66
f 67 56 83
f 72 35 60
f 72 74 35
f 73 61 75
f 73 77 74
f 61 65 75
f 73 75 77
f 76 66 78
f 76 80 77
f 76 78 80
f 74 77 54
f 74 54 35
f 83 56 88
f 67 84 69
f 69 86 71
f 67 83 84
f 69 84 86
f 83 91 85
f 85 93 87
f 83 88 90
f 90 88 92
f 92 88 94
f 99 94 88
f 83 90 91
f 85 91 93
f 79 71 95
f 71 86 95
f 79 95 97
f 77 80 54
f 79 54 80
f 96 87 98
f 97 96 100
f 79 97 54
f 87 93 98
f 96 98 100
f 97 100 54
f 99 54 100
f 99 88 54
f 35 82 56
f 101 54 88
o inner_beams_0_0_cutter_0
v 98.297 -885.483 60.000
v 98.297 813.271 60.000
v -110.234 813.271 28.244
v -110.234 -885.483 28.244
v 91.564 -885.483 104.212
v 91.564 813.271 104.212
v -116.966 813.271 72.456
v -116.966 -885.483 72.456
f 103 104 108 107
f 104 105 109 108
f 105 106 110 109
f 106 103 107 110
f 103 106 105
f 105 104 103
f 110 107 108
f 108 109 110
o inner_beams_0_0_cutter_1
v 1.297 -705.608 140.000
v 8.368 -708.537 140.000
v 11.297 -715.608 140.000
v 8.368 -722.679 140.000
v 1.297 -725.608 140.000
v -5.774 -722.679 140.000
v -8.703 -715.608 140.000
v -5.774 -708.537 140.000
v 1.297 -705.608 -20.000
v 8.368 -708.537 -20.000
v 11.297 -715.608 -20.000
v 8.368 -722.679 -20.000
v 1.297 -725.608 -20.000
v -5.774 -722.679 -20.000
v -8.703 -715.608 -20.000
v -5.774 -708.537 -20.000
f 111 112 120 119
f 112 113 121 120
f 113 114 122 121
f 114 115 123 122
f 115 116 124 123
f 116 117 125 124
f 117 118 126 125
f 118 111 119 126
f 111 118 117
f 117 116 115
f 115 114 113
f 113 112 111
f 111 117 115
f 115 113 111
f 126 119 120
f 120 121 122
f 122 123 124
f 124 125 126
f 126 120 122
f 122 124 126
o inner_beams_0_0_cutter_2
v 1.297 -365.857 140.000
v 8.368 -368.786 140.000
v 11.297 -375.857 140.000
v 8.368 -382.928 140.000
v 1.297 -385.857 140.000
v -5.774 -382.928 140.000
v -8.703 -375.857 140.000
v -5.774 -368.786 140.000
v 1.297 -365.857 -20.000
v 8.368 -368.786 -20.000
v 11.297 -375.857 -20.000
v 8.368 -382.928 -20.000
v 1.297 -385.857 -20.000
v -5.774 -382.928 -20.000
v -8.703 -375.857 -20.000
v -5.774 -368.786 -20.000
f 127 128 136 135
f 128 129 137 136
f 129 130 138 137
f 130 131 139 138
f 131 132 140 139
f 132 133 141 140
f 133 134 142 141
f 134 127 135 142
f 127 134 133
f 133 132 131
f 131 130 129
f 129 128 127
f 127 133 131
f 131 129 127
f 142 135 136
f 136 137 138
f 138 139 140
f 140 141 142
f 142 136 138
f 138 140 142
o inner_beams_0_0_cutter_3
v 1.297 -26.106 140.000
v 8.368 -29.035 140.000
v 11.297 -36.106 140.000
v 8.368 -43.177 140.000
v 1.297 -46.106 140.000
v -5.774 -43.177 140.000
v -8.703 -36.106 140.000
v -5.774 -29.035 140.000
v 1.297 -26.106 -20.000
v 8.368 -29.035 -20.000
v 11.297 -36.106 -20.000
v 8.368 -43.177 -20.000
v 1.297 -46.106 -20.000
v -5.774 -43.177 -20.000
v -8.703 -36.106 -20.000
v -5.774 -29.035 -20.000
f 143 144 152 151
f 144 145 153 152
f 145 146 154 153
f 146 147 155 154
f 147 148 156 155
f 148 149 157 156
f 149 150 158 157
f 150 143 151 158
f 143 150 149
f 149 148 147
f 147 146 145
f 145 144 143
f 143 149 147
f 147 145 143
f 158 151 152
f 152 153 154
f 154 155 156
f 156 157 158
f 158 152 154
f 154 156 158
o inner_beams_0_0_cutter_4
v 1.297 313.645 140.000
v 8.368 310.716 140.000
v 11.297 303.645 140.000
v 8.368 296.574 140.000
v 1.297 293.645 140.000
v -5.774 296.574 140.000
v -8.703 303.645 140.000
v -5.774 310.716 140.000
v 1.297 313.645 -20.000
v 8.368 310.716 -20.000
v 11.297 303.645 -20.000
v 8.368 296.574 -20.000
v 1.297 293.645 -20.000
v -5.774 296.574 -20.000
v -8.703 303.645 -20.000
v -5.774 310.716 -20.000
f 159 160 168 167
f 160 161 169 168
f 161 162 170 169
f 162 163 171 170
f 163 164 172 171
f 164 165 173 172
f 165 166 174 173
f 166 159 167 174
f 159 166 165
f 165 164 163
f 163 162 161
f 161 160 159
f 159 165 163
f 163 161 159
f 174 167 168
f 168 169 170
f 170 171 172
f 172 173 174
f 174 168 170
f 170 172 174
o inner_beams_0_0_cutter_5
v 1.297 653.396 140.000
v 8.368 650.467 140.000
v 11.297 643.396 140.000
v 8.368 636.325 140.000
v 1.297 633.396 140.000
v -5.774 636.325 140.000
v -8.703 643.396 140.000
v -5.774 650.467 140.000
v 1.297 653.396 -20.000
v 8.368 650.467 -20.000
v 11.297 643.396 -20.000
v 8.368 636.325 -20.000
v 1.297 633.396 -20.000
v -5.774 636.325 -20.000
v -8.703 643.396 -20.000
v -5.774 650.467 -20.000
f 175 176 184 183
f 176 177 185 184
f 177 178 186 185
f 178 179 187 186
f 179 180 188 187
f 180 181 189 188
f 181 182 190 189
f 182 175 183 190
f 175 182 181
f 181 180 179
f 179 178 177
f 177 176 175
f 175 181 179
f 179 177 175
f 190 183 184
f 184 185 186
f 186 187 188
f 188 189 190
f 190 184 186
f 186 188 190
