# OBJ
# COMPAS
# version: 2.15.1
# precision: 3
# V F E: 126 171 291

o inner_beams_1_0_uncut
v 370.350 -509.650 60.000
v -509.650 370.350 60.000
v -358.163 497.463 77.235
v 497.463 -358.163 77.235
v 412.776 -552.076 0.000
v -552.076 412.776 -0.000
v -412.776 552.076 0.000
v 552.076 -412.776 0.000
f 1 2 6 5
f 2 3 7 6
f 3 4 8 7
f 4 1 5 8
f 1 4 3
f 3 2 1
f 8 5 6
f 6 7 8
o inner_beams_1_0_cut
v -412.776 552.076 0.000
v -358.163 497.463 77.235
v -298.141 436.381 77.170
v -236.978 252.703 -0.000
v -244.049 255.632 -0.000
v -251.120 252.703 -0.000
v -234.049 245.632 0.000
v -236.978 238.561 0.000
v 0.792 10.792 -0.000
v -6.279 7.863 -0.000
v -251.120 252.703 53.687
v -236.978 252.703 56.117
v -234.049 245.632 55.406
v -244.049 255.632 55.406
v -236.978 238.561 53.687
v -254.049 245.632 -0.000
v -251.120 238.561 -0.000
v -552.076 412.776 -0.000
v -509.650 370.350 60.000
v -436.911 297.611 29.479
v -436.911 297.611 60.000
v -244.049 235.632 0.000
v -9.208 0.792 -0.000
v -254.049 245.632 51.969
v -244.049 235.632 51.969
v -251.120 238.561 51.257
v 10.792 0.792 -0.000
v 7.863 -6.279 -0.000
v 245.632 -234.049 0.000
v 238.561 -236.978 0.000
v 552.076 -412.776 0.000
v 497.463 -358.163 77.235
v 436.381 -298.141 77.170
v 252.703 -236.978 0.000
v 255.632 -244.049 0.000
v 252.703 -251.120 0.000
v 252.703 -251.120 53.687
v 252.703 -236.978 56.117
v 245.632 -234.049 55.406
v 255.632 -244.049 55.406
v 238.561 -236.978 53.687
v 0.792 -9.208 -0.000
v 235.632 -244.049 0.000
v 245.632 -254.049 0.000
v 238.561 -251.120 0.000
v 412.776 -552.076 0.000
v 370.350 -509.650 60.000
v 297.611 -436.911 29.479
v 297.611 -436.911 60.000
v 245.632 -254.049 51.969
v 235.632 -244.049 51.969
v 238.561 -251.120 51.257
v 7.863 7.863 -0.000
v 7.863 7.863 56.117
v 0.792 10.792 55.406
v 10.792 0.792 55.406
v -6.279 7.863 53.687
v 7.863 -6.279 53.687
v -6.279 -6.279 -0.000
v -9.208 0.792 51.969
v 0.792 -9.208 51.969
v -6.279 -6.279 51.257
f 27 10 9 26
f 9 13 26
f 9 12 13
f 9 39 12
f 17 15 12
f 18 16 15
f 17 12 61
f 17 18 15
f 26 13 14
f 26 14 24
f 26 24 25
f 26 25 31
f 31 30 16
f 31 25 30
f 26 31 67
f 18 31 16
f 26 67 53
f 39 61 12
f 35 38 36
f 39 35 61
f 35 42 37
f 35 37 38
f 39 42 35
f 39 43 42
f 39 54 43
f 50 36 51
f 67 50 53
f 36 38 51
f 50 51 53
f 26 53 54
f 54 44 43
f 54 52 44
f 54 53 52
f 10 27 29 11 41 57 55 40
f 9 10 40 39
f 27 26 54 55 57 56 28 29
f 40 55 54 39
f 11 22 20
f 11 19 22
f 11 32 19
f 62 20 21
f 63 21 23
f 62 21 63
f 63 23 65
f 62 11 20
f 33 34 28
f 32 28 34
f 11 28 32
f 65 23 33
f 68 33 28
f 70 28 60
f 65 33 68
f 70 68 28
f 69 47 46
f 69 49 47
f 62 64 41
f 64 66 41
f 66 69 41
f 46 48 41
f 48 45 41
f 45 56 41
f 69 46 41
f 70 59 69
f 69 59 49
f 70 60 59
f 60 28 56
f 45 58 56
f 58 60 56
f 62 41 11
f 15 21 20 12
f 22 13 12 20
f 19 14 13 22
f 15 16 23 21
f 29 28 11
f 33 23 16 30
f 24 14 19 32
f 30 25 34 33
f 34 25 24 32
f 37 42 46 47
f 48 46 42 43
f 49 38 37 47
f 48 43 44 45
f 57 41 56
f 51 38 49 59
f 44 52 58 45
f 60 53 51 59
f 53 60 58 52
f 61 62 63 17
f 64 62 61 35
f 65 18 17 63
f 35 36 66 64
f 68 31 18 65
f 69 66 36 50
f 68 70 67 31
f 50 67 70 69
o inner_beams_1_0_cutter_0
v 436.381 -298.141 77.170
v -298.141 436.381 77.170
v -443.076 291.446 27.360
v 291.446 -443.076 27.360
v 428.747 -305.775 121.596
v -305.775 428.747 121.596
v -450.710 283.812 71.786
v 283.812 -450.710 71.786
f 71 72 76 75
f 72 73 77 76
f 73 74 78 77
f 74 71 75 78
f 71 74 73
f 73 72 71
f 78 75 76
f 76 77 78
o inner_beams_1_0_cutter_1
v 238.561 -251.120 148.716
v 235.632 -244.049 148.716
v 238.561 -236.978 148.716
v 245.632 -234.049 148.716
v 252.703 -236.978 148.716
v 255.632 -244.049 148.716
v 252.703 -251.120 148.716
v 245.632 -254.049 148.716
v 238.561 -251.120 -11.284
v 235.632 -244.049 -11.284
v 238.561 -236.978 -11.284
v 245.632 -234.049 -11.284
v 252.703 -236.978 -11.284
v 255.632 -244.049 -11.284
v 252.703 -251.120 -11.284
v 245.632 -254.049 -11.284
f 79 80 88 87
f 80 81 89 88
f 81 82 90 89
f 82 83 91 90
f 83 84 92 91
f 84 85 93 92
f 85 86 94 93
f 86 79 87 94
f 79 86 85
f 85 84 83
f 83 82 81
f 81 80 79
f 79 85 83
f 83 81 79
f 94 87 88
f 88 89 90
f 90 91 92
f 92 93 94
f 94 88 90
f 90 92 94
o inner_beams_1_0_cutter_2
v -6.279 -6.279 148.716
v -9.208 0.792 148.716
v -6.279 7.863 148.716
v 0.792 10.792 148.716
v 7.863 7.863 148.716
v 10.792 0.792 148.716
v 7.863 -6.279 148.716
v 0.792 -9.208 148.716
v -6.279 -6.279 -11.284
v -9.208 0.792 -11.284
v -6.279 7.863 -11.284
v 0.792 10.792 -11.284
v 7.863 7.863 -11.284
v 10.792 0.792 -11.284
v 7.863 -6.279 -11.284
v 0.792 -9.208 -11.284
f 95 96 104 103
f 96 97 105 104
f 97 98 106 105
f 98 99 107 106
f 99 100 108 107
f 100 101 109 108
f 101 102 110 109
f 102 95 103 110
f 95 102 101
f 101 100 99
f 99 98 97
f 97 96 95
f 95 101 99
f 99 97 95
f 110 103 104
f 104 105 106
f 106 107 108
f 108 109 110
f 110 104 106
f 106 108 110
o inner_beams_1_0_cutter_3
v -251.120 238.561 148.716
v -254.049 245.632 148.716
v -251.120 252.703 148.716
v -244.049 255.632 148.716
v -236.978 252.703 148.716
v -234.049 245.632 148.716
v -236.978 238.561 148.716
v -244.049 235.632 148.716
v -251.120 238.561 -11.284
v -254.049 245.632 -11.284
v -251.120 252.703 -11.284
v -244.049 255.632 -11.284
v -236.978 252.703 -11.284
v -234.049 245.632 -11.284
v -236.978 238.561 -11.284
v -244.049 235.632 -11.284
f 111 112 120 119
f 112 113 121 120
f 113 114 122 121
f 114 115 123 122
f 115 116 124 123
f 116 117 125 124
f 117 118 126 125
f 118 111 119 126
f 111 118 117
f 117 116 115
f 115 114 113
f 113 112 111
f 111 117 115
f 115 113 111
f 126 119 120
f 120 121 122
f 122 123 124
f 124 125 126
f 126 120 122
f 122 124 126
