# OBJ
# COMPAS
# version: 2.15.1
# precision: 3
# V F E: 62 132 198

o inner_beams_1_0_preview
v -412.776 552.076 0.000
v -358.163 497.463 77.235
v -298.141 436.381 77.170
v -236.978 252.703 -0.000
v -244.049 255.632 -0.000
v -251.120 252.703 -0.000
v -234.049 245.632 0.000
v -236.978 238.561 0.000
v 0.792 10.792 -0.000
v -6.279 7.863 -0.000
v -251.120 252.703 53.687
v -236.978 252.703 56.117
v -234.049 245.632 55.406
v -244.049 255.632 55.406
v -236.978 238.561 53.687
v -254.049 245.632 -0.000
v -251.120 238.561 -0.000
v -552.076 412.776 -0.000
v -509.650 370.350 60.000
v -436.911 297.611 29.479
v -436.911 297.611 60.000
v -244.049 235.632 0.000
v -9.208 0.792 -0.000
v -254.049 245.632 51.969
v -244.049 235.632 51.969
v -251.120 238.561 51.257
v 10.792 0.792 -0.000
v 7.863 -6.279 -0.000
v 245.632 -234.049 0.000
v 238.561 -236.978 0.000
v 552.076 -412.776 0.000
v 497.463 -358.163 77.235
v 436.381 -298.141 77.170
v 252.703 -236.978 0.000
v 255.632 -244.049 0.000
v 252.703 -251.120 0.000
v 252.703 -251.120 53.687
v 252.703 -236.978 56.117
v 245.632 -234.049 55.406
v 255.632 -244.049 55.406
v 238.561 -236.978 53.687
v 0.792 -9.208 -0.000
v 235.632 -244.049 0.000
v 245.632 -254.049 0.000
v 238.561 -251.120 0.000
v 412.776 -552.076 0.000
v 370.350 -509.650 60.000
v 297.611 -436.911 29.479
v 297.611 -436.911 60.000
v 245.632 -254.049 51.969
v 235.632 -244.049 51.969
v 238.561 -251.120 51.257
v 7.863 7.863 -0.000
v 7.863 7.863 56.117
v 0.792 10.792 55.406
v 10.792 0.792 55.406
v -6.279 7.863 53.687
v 7.863 -6.279 53.687
v -6.279 -6.279 -0.000
v -9.208 0.792 51.969
v 0.792 -9.208 51.969
v -6.279 -6.279 51.257
f 1 5 18
f 1 4 5
f 1 31 4
f 9 7 4
f 10 8 7
f 9 4 53
f 9 10 7
f 18 5 6
f 18 6 16
f 18 16 17
f 18 17 23
f 23 22 8
f 23 17 22
f 18 23 59
f 10 23 8
f 18 59 45
f 31 53 4
f 27 30 28
f 31 27 53
f 27 34 29
f 27 29 30
f 31 34 27
f 31 35 34
f 31 46 35
f 42 28 43
f 59 42 45
f 28 30 43
f 42 43 45
f 18 45 46
f 46 36 35
f 46 44 36
f 46 45 44
f 3 14 12
f 3 11 14
f 3 24 11
f 54 12 13
f 55 13 15
f 54 13 55
f 55 15 57
f 54 3 12
f 25 26 20
f 24 20 26
f 3 20 24
f 57 15 25
f 60 25 20
f 62 20 52
f 57 25 60
f 62 60 20
f 61 39 38
f 61 41 39
f 54 56 33
f 56 58 33
f 58 61 33
f 38 40 33
f 40 37 33
f 37 48 33
f 61 38 33
f 62 51 61
f 61 51 41
f 62 52 51
f 52 20 48
f 37 50 48
f 50 52 48
f 54 33 3
f 21 20 3
f 49 33 48
f 18 19 2
f 2 1 18
f 2 19 21
f 33 49 47
f 2 21 3
f 33 47 32
f 32 2 3
f 3 33 32
f 31 1 2
f 2 32 31
f 21 19 18
f 46 47 49
f 20 21 18
f 46 49 48
f 48 20 18
f 18 46 48
f 31 32 47
f 47 46 31
f 4 7 13
f 13 12 4
f 12 14 5
f 5 4 12
f 14 11 6
f 6 5 14
f 13 7 8
f 8 15 13
f 22 25 15
f 15 8 22
f 24 16 6
f 6 11 24
f 25 22 17
f 17 26 25
f 24 26 17
f 17 16 24
f 39 29 34
f 34 38 39
f 35 40 38
f 38 34 35
f 39 41 30
f 30 29 39
f 37 40 35
f 35 36 37
f 51 43 30
f 30 41 51
f 37 36 44
f 44 50 37
f 51 52 45
f 45 43 51
f 44 45 52
f 52 50 44
f 9 53 54
f 54 55 9
f 27 56 54
f 54 53 27
f 55 57 10
f 10 9 55
f 56 27 28
f 28 58 56
f 57 60 23
f 23 10 57
f 42 61 58
f 58 28 42
f 23 60 62
f 62 59 23
f 61 42 59
f 59 62 61
