# OBJ
# COMPAS
# version: 2.15.1
# precision: 3
# V F E: 190 268 452

o inner_beams_2_0_uncut
v -986.106 -98.703 60.000
v -986.106 98.297 60.000
v 938.268 98.297 60.000
v 913.894 -98.703 60.000
v -986.106 -98.703 0.000
v -986.106 98.297 0.000
v 998.268 98.297 0.000
v 973.894 -98.703 -0.000
f 1 2 6 5
f 2 3 7 6
f 3 4 8 7
f 4 1 5 8
f 1 4 3
f 3 2 1
f 8 5 6
f 6 7 8
o inner_beams_2_0_cut
v -986.106 98.297 0.000
v -715.608 11.297 0.000
v -722.679 8.368 0.000
v -708.537 8.368 0.000
v -725.608 1.297 0.000
v -705.608 1.297 0.000
v -375.857 11.297 0.000
v -382.928 8.368 0.000
v -368.786 8.368 0.000
v -385.857 1.297 0.000
v -365.857 1.297 0.000
v -36.106 11.297 -0.000
v -43.177 8.368 -0.000
v -29.035 8.368 -0.000
v -46.106 1.297 -0.000
v -26.106 1.297 -0.000
v -722.679 -5.774 0.000
v -708.537 -5.774 0.000
v -715.608 -8.703 0.000
v -986.106 -98.703 0.000
v -885.483 -98.703 30.000
v -382.928 -5.774 0.000
v -368.786 -5.774 0.000
v -375.857 -8.703 0.000
v -43.177 -5.774 -0.000
v -29.035 -5.774 -0.000
v -36.106 -8.703 -0.000
v -986.106 98.297 60.000
v -885.483 98.297 60.000
v -715.608 11.297 46.751
v -722.679 8.368 46.305
v -708.537 8.368 46.305
v -725.608 1.297 45.228
v -705.608 1.297 45.228
v -375.857 11.297 46.751
v -382.928 8.368 46.305
v -368.786 8.368 46.305
v -385.857 1.297 45.228
v -365.857 1.297 45.228
v -36.106 11.297 46.751
v -43.177 8.368 46.305
v -29.035 8.368 46.305
v -46.106 1.297 45.228
v -26.106 1.297 45.228
v -722.679 -5.774 44.152
v -708.537 -5.774 44.152
v -715.608 -8.703 43.706
v -986.106 -98.703 60.000
v -885.483 -98.703 60.000
v -382.928 -5.774 44.152
v -368.786 -5.774 44.152
v -375.857 -8.703 43.706
v -43.177 -5.774 44.152
v -29.035 -5.774 44.152
v -36.106 -8.703 43.706
v 303.645 11.297 -0.000
v 296.574 8.368 0.000
v 310.716 8.368 -0.000
v 293.645 1.297 -0.000
v 313.645 1.297 -0.000
v 998.268 98.297 0.000
v 643.396 11.297 -0.000
v 636.325 8.368 -0.000
v 650.467 8.368 -0.000
v 633.396 1.297 -0.000
v 653.396 1.297 -0.000
v 296.574 -5.774 -0.000
v 310.716 -5.774 -0.000
v 303.645 -8.703 -0.000
v 636.325 -5.774 -0.000
v 650.467 -5.774 -0.000
v 643.396 -8.703 -0.000
v 973.894 -98.703 -0.000
v 813.271 -98.703 30.000
v 303.645 11.297 46.751
v 296.574 8.368 46.305
v 310.716 8.368 46.305
v 293.645 1.297 45.228
v 313.645 1.297 45.228
v 813.271 98.297 60.000
v 938.268 98.297 60.000
v 643.396 11.297 46.751
v 636.325 8.368 46.305
v 650.467 8.368 46.305
v 633.396 1.297 45.228
v 653.396 1.297 45.228
v 296.574 -5.774 44.152
v 310.716 -5.774 44.152
v 303.645 -8.703 43.706
v 636.325 -5.774 44.152
v 650.467 -5.774 44.152
v 643.396 -8.703 43.706
v 813.271 -98.703 60.000
v 913.894 -98.703 60.000
f 9 10 11
f 9 11 13
f 9 13 28
f 9 15 10
f 10 16 12
f 12 18 14
f 10 15 16
f 12 16 18
f 9 23 15
f 9 20 21
f 9 21 23
f 23 17 15
f 23 19 17
f 9 64 65
f 9 75 20
f 9 65 67
f 9 67 75
f 28 13 25
f 28 25 27
f 14 30 26
f 27 26 32
f 14 18 30
f 28 27 32
f 26 30 32
f 19 33 31
f 32 31 33
f 28 32 33
f 28 33 35
f 23 33 19
f 28 35 81
f 9 69 64
f 20 75 22
f 64 71 66
f 66 73 68
f 69 70 64
f 64 70 71
f 66 71 73
f 69 72 70
f 69 74 72
f 69 81 74
f 22 75 77
f 68 78 76
f 77 76 80
f 81 24 22
f 81 34 24
f 81 35 34
f 81 22 77
f 68 73 78
f 76 78 80
f 81 77 80
f 81 79 74
f 81 80 79
f 89 69 9 36 37 88
f 9 28 56 36
f 82 29 57 56 28 81 102 101
f 36 56 57 37
f 102 81 69 89
f 101 102 89 88
f 38 10 12 40
f 11 10 38 39
f 11 39 41 13
f 14 42 40 12
f 45 43 15 17
f 44 16 15 43
f 46 18 16 44
f 47 45 17 19
f 50 48 20 22
f 20 48 49 21
f 49 51 23 21
f 24 52 50 22
f 53 25 13 41
f 54 42 14 26
f 53 55 27 25
f 54 26 27 55
f 30 18 46 58
f 31 59 47 19
f 58 60 32 30
f 60 59 31 32
f 61 33 23 51
f 52 24 34 62
f 63 35 33 61
f 62 34 35 63
f 38 37 39
f 39 37 29
f 38 43 37
f 38 40 43
f 40 42 44
f 42 46 44
f 43 88 37
f 40 44 43
f 59 49 48
f 59 51 49
f 39 29 41
f 53 41 29
f 53 29 55
f 54 46 42
f 54 55 58
f 54 58 46
f 55 60 58
f 55 29 60
f 59 60 61
f 60 29 61
f 61 29 63
f 59 61 51
f 63 29 97
f 43 45 88
f 45 47 88
f 59 88 47
f 48 50 88
f 59 48 88
f 50 52 88
f 62 88 52
f 62 84 83
f 62 86 84
f 62 83 88
f 83 85 90
f 85 87 91
f 83 90 88
f 90 92 88
f 92 94 88
f 85 91 90
f 87 93 91
f 94 82 88
f 62 63 95
f 62 95 86
f 63 97 95
f 97 29 100
f 96 93 87
f 97 98 96
f 100 29 82
f 96 98 93
f 97 100 98
f 99 82 94
f 99 100 82
f 37 57 29
f 64 66 85 83
f 83 84 65 64
f 67 65 84 86
f 66 68 87 85
f 91 71 70 90
f 92 90 70 72
f 91 93 73 71
f 74 94 92 72
f 95 75 67 86
f 87 68 76 96
f 97 77 75 95
f 77 97 96 76
f 73 93 98 78
f 99 94 74 79
f 100 80 78 98
f 80 100 99 79
f 101 88 82
o inner_beams_2_0_cutter_0
v 813.271 98.297 60.000
v -885.483 98.297 60.000
v -885.483 -110.234 28.244
v 813.271 -110.234 28.244
v 813.271 91.564 104.212
v -885.483 91.564 104.212
v -885.483 -116.966 72.456
v 813.271 -116.966 72.456
f 103 104 108 107
f 104 105 109 108
f 105 106 110 109
f 106 103 107 110
f 103 106 105
f 105 104 103
f 110 107 108
f 108 109 110
o inner_beams_2_0_cutter_1
v 643.396 -8.703 140.000
v 636.325 -5.774 140.000
v 633.396 1.297 140.000
v 636.325 8.368 140.000
v 643.396 11.297 140.000
v 650.467 8.368 140.000
v 653.396 1.297 140.000
v 650.467 -5.774 140.000
v 643.396 -8.703 -20.000
v 636.325 -5.774 -20.000
v 633.396 1.297 -20.000
v 636.325 8.368 -20.000
v 643.396 11.297 -20.000
v 650.467 8.368 -20.000
v 653.396 1.297 -20.000
v 650.467 -5.774 -20.000
f 111 112 120 119
f 112 113 121 120
f 113 114 122 121
f 114 115 123 122
f 115 116 124 123
f 116 117 125 124
f 117 118 126 125
f 118 111 119 126
f 111 118 117
f 117 116 115
f 115 114 113
f 113 112 111
f 111 117 115
f 115 113 111
f 126 119 120
f 120 121 122
f 122 123 124
f 124 125 126
f 126 120 122
f 122 124 126
o inner_beams_2_0_cutter_2
v 303.645 -8.703 140.000
v 296.574 -5.774 140.000
v 293.645 1.297 140.000
v 296.574 8.368 140.000
v 303.645 11.297 140.000
v 310.716 8.368 140.000
v 313.645 1.297 140.000
v 310.716 -5.774 140.000
v 303.645 -8.703 -20.000
v 296.574 -5.774 -20.000
v 293.645 1.297 -20.000
v 296.574 8.368 -20.000
v 303.645 11.297 -20.000
v 310.716 8.368 -20.000
v 313.645 1.297 -20.000
v 310.716 -5.774 -20.000
f 127 128 136 135
f 128 129 137 136
f 129 130 138 137
f 130 131 139 138
f 131 132 140 139
f 132 133 141 140
f 133 134 142 141
f 134 127 135 142
f 127 134 133
f 133 132 131
f 131 130 129
f 129 128 127
f 127 133 131
f 131 129 127
f 142 135 136
f 136 137 138
f 138 139 140
f 140 141 142
f 142 136 138
f 138 140 142
o inner_beams_2_0_cutter_3
v -36.106 -8.703 140.000
v -43.177 -5.774 140.000
v -46.106 1.297 140.000
v -43.177 8.368 140.000
v -36.106 11.297 140.000
v -29.035 8.368 140.000
v -26.106 1.297 140.000
v -29.035 -5.774 140.000
v -36.106 -8.703 -20.000
v -43.177 -5.774 -20.000
v -46.106 1.297 -20.000
v -43.177 8.368 -20.000
v -36.106 11.297 -20.000
v -29.035 8.368 -20.000
v -26.106 1.297 -20.000
v -29.035 -5.774 -20.000
f 143 144 152 151
f 144 145 153 152
f 145 146 154 153
f 146 147 155 154
f 147 148 156 155
f 148 149 157 156
f 149 150 158 157
f 150 143 151 158
f 143 150 149
f 149 148 147
f 147 146 145
f 145 144 143
f 143 149 147
f 147 145 143
f 158 151 152
f 152 153 154
f 154 155 156
f 156 157 158
f 158 152 154
f 154 156 158
o inner_beams_2_0_cutter_4
v -375.857 -8.703 140.000
v -382.928 -5.774 140.000
v -385.857 1.297 140.000
v -382.928 8.368 140.000
v -375.857 11.297 140.000
v -368.786 8.368 140.000
v -365.857 1.297 140.000
v -368.786 -5.774 140.000
v -375.857 -8.703 -20.000
v -382.928 -5.774 -20.000
v -385.857 1.297 -20.000
v -382.928 8.368 -20.000
v -375.857 11.297 -20.000
v -368.786 8.368 -20.000
v -365.857 1.297 -20.000
v -368.786 -5.774 -20.000
f 159 160 168 167
f 160 161 169 168
f 161 162 170 169
f 162 163 171 170
f 163 164 172 171
f 164 165 173 172
f 165 166 174 173
f 166 159 167 174
f 159 166 165
f 165 164 163
f 163 162 161
f 161 160 159
f 159 165 163
f 163 161 159
f 174 167 168
f 168 169 170
f 170 171 172
f 172 173 174
f 174 168 170
f 170 172 174
o inner_beams_2_0_cutter_5
v -715.608 -8.703 140.000
v -722.679 -5.774 140.000
v -725.608 1.297 140.000
v -722.679 8.368 140.000
v -715.608 11.297 140.000
v -708.537 8.368 140.000
v -705.608 1.297 140.000
v -708.537 -5.774 140.000
v -715.608 -8.703 -20.000
v -722.679 -5.774 -20.000
v -725.608 1.297 -20.000
v -722.679 8.368 -20.000
v -715.608 11.297 -20.000
v -708.537 8.368 -20.000
v -705.608 1.297 -20.000
v -708.537 -5.774 -20.000
f 175 176 184 183
f 176 177 185 184
f 177 178 186 185
f 178 179 187 186
f 179 180 188 187
f 180 181 189 188
f 181 182 190 189
f 182 175 183 190
f 175 182 181
f 181 180 179
f 179 178 177
f 177 176 175
f 175 181 179
f 179 177 175
f 190 183 184
f 184 185 186
f 186 187 188
f 188 189 190
f 190 184 186
f 186 188 190
