ISO-10303-21;
HEADER;
FILE_DESCRIPTION(('ViewDefinition [CoordinationView]'),'2;1');
FILE_NAME('','2026-08-20T14:42:11',(''),(''),'IfcOpenShell 0.8.4-e8eb5e4','IfcOpenShell 0.8.4-e8eb5e4','');
FILE_SCHEMA(('IFC4'));
ENDSEC;
DATA;
#1=IFCPROJECT('3Dz6iNx418nvPl1AhEuVrd',$,'Default Project',$,$,$,$,(#11),#6);
#2=IFCSIUNIT(*,.LENGTHUNIT.,.MILLI.,.METRE.);
#3=IFCSIUNIT(*,.AREAUNIT.,.MILLI.,.SQUARE_METRE.);
#4=IFCSIUNIT(*,.VOLUMEUNIT.,.MILLI.,.CUBIC_METRE.);
#5=IFCSIUNIT(*,.PLANEANGLEUNIT.,$,.RADIAN.);
#6=IFCUNITASSIGNMENT((#2,#3,#4,#5));
#7=IFCCARTESIANPOINT((0.,0.,0.));
#8=IFCDIRECTION((0.,0.,1.));
#9=IFCDIRECTION((1.,0.,0.));
#10=IFCAXIS2PLACEMENT3D(#7,#8,#9);
#11=IFCGEOMETRICREPRESENTATIONCONTEXT($,'Model',3,1.E-05,#10,$);
#12=IFCGEOMETRICREPRESENTATIONSUBCONTEXT('Body','Model',*,*,*,*,#11,$,.MODEL_VIEW.,$);
#13=IFCPERSON($,'Unknown Author',$,$,$,$,$,$);
#14=IFCORGANIZATION($,'compas.dev',$,$,$);
#15=IFCPERSONANDORGANIZATION(#13,#14,$);
#16=IFCAPPLICATION(#14,'2.1.0','compas_ifc','compas_ifc v2.1.0');
#17=IFCOWNERHISTORY(#15,#16,$,$,$,$,$,1787229731);
#18=IFCSITE('0xKrspkYTAb9MWbT96baPV',$,'Default Site',$,$,$,$,$,$,$,$,$,$,$);
#19=IFCRELAGGREGATES('2bxGpErWb8qBVVyDsXZ1Pa',$,$,$,#1,(#18));
#20=IFCBUILDING('1a0xVlR8r0kf2GrdXGHzs6',$,'Default Building 1',$,$,$,$,$,$,$,$,$);
#21=IFCRELAGGREGATES('2qpouOauXEgwS8L7w5ugqj',$,$,$,#18,(#20));
#22=IFCBUILDINGSTOREY('2sYvnIUdjEgB3yj0MqDsAD',$,'Default Storey 1',$,$,$,$,$,$,$);
#23=IFCRELAGGREGATES('1o6Qb2M4T36w0nOCgpNzcr',$,$,$,#20,(#22));
#24=IFCBUILDINGELEMENTPROXY('2mPDJ_vl56Jv4r5bf5FAER',$,'oculus_8_uncut',$,$,$,#37,$,$);
#25=IFCRELCONTAINEDINSPATIALSTRUCTURE('2FHZBqsY17nQ7iNsh3G8B4',$,$,$,(#24),#22);
#26=IFCINDEXEDPOLYGONALFACE((1,2,6,5));
#27=IFCINDEXEDPOLYGONALFACE((2,3,7,6));
#28=IFCINDEXEDPOLYGONALFACE((3,4,8,7));
#29=IFCINDEXEDPOLYGONALFACE((4,1,5,8));
#30=IFCINDEXEDPOLYGONALFACE((1,4,3));
#31=IFCINDEXEDPOLYGONALFACE((3,2,1));
#32=IFCINDEXEDPOLYGONALFACE((8,5,6));
#33=IFCINDEXEDPOLYGONALFACE((6,7,8));
#34=IFCCARTESIANPOINTLIST3D(((0.,1294.2135623731,27.),(1294.2135623731,1294.2135623731,27.),(1294.2135623731,3.41060513164848E-13,27.),(4.54747350886464E-13,1.13686837721616E-13,27.),(0.,1294.2135623731,0.),(1294.2135623731,1294.2135623731,0.),(1294.2135623731,3.41060513164848E-13,0.),(4.54747350886464E-13,1.13686837721616E-13,0.)));
#35=IFCPOLYGONALFACESET(#34,.T.,(#26,#27,#28,#29,#30,#31,#32,#33),$);
#36=IFCSHAPEREPRESENTATION(#12,'Body','Tessellation',(#35));
#37=IFCPRODUCTDEFINITIONSHAPE($,$,(#36));
#38=IFCBUILDINGELEMENTPROXY('2M4p2nupX89ub8QBRtv8bt',$,'oculus_8',$,$,$,#51,$,$);
#39=IFCRELCONTAINEDINSPATIALSTRUCTURE('1bM7th8_XA4RftstSKfPIp',$,$,$,(#38),#22);
#40=IFCINDEXEDPOLYGONALFACE((1,2,6,5));
#41=IFCINDEXEDPOLYGONALFACE((2,3,7,6));
#42=IFCINDEXEDPOLYGONALFACE((3,4,8,7));
#43=IFCINDEXEDPOLYGONALFACE((4,1,5,8));
#44=IFCINDEXEDPOLYGONALFACE((1,4,3));
#45=IFCINDEXEDPOLYGONALFACE((3,2,1));
#46=IFCINDEXEDPOLYGONALFACE((8,5,6));
#47=IFCINDEXEDPOLYGONALFACE((6,7,8));
#48=IFCCARTESIANPOINTLIST3D(((0.,1294.2135623731,27.),(1294.2135623731,1294.2135623731,27.),(1294.2135623731,3.41060513164848E-13,27.),(4.54747350886464E-13,1.13686837721616E-13,27.),(0.,1294.2135623731,0.),(1294.2135623731,1294.2135623731,0.),(1294.2135623731,3.41060513164848E-13,0.),(4.54747350886464E-13,1.13686837721616E-13,0.)));
#49=IFCPOLYGONALFACESET(#48,.T.,(#40,#41,#42,#43,#44,#45,#46,#47),$);
#50=IFCSHAPEREPRESENTATION(#12,'Body','Tessellation',(#49));
#51=IFCPRODUCTDEFINITIONSHAPE($,$,(#50));
ENDSEC;
END-ISO-10303-21;
