# OBJ
# COMPAS
# version: 2.15.1
# precision: 3
# V F E: 64 64 112

o oculus_4_uncut
v 1267.214 27.000 27.000
v 1267.214 0.000 27.000
v 0.000 0.000 27.000
v 0.000 27.000 27.000
v 1267.214 27.000 0.000
v 1267.214 0.000 0.000
v 0.000 0.000 0.000
v 0.000 27.000 0.000
f 1 2 6 5
f 2 3 7 6
f 3 4 8 7
f 4 1 5 8
f 1 4 3
f 3 2 1
f 8 5 6
f 6 7 8
o oculus_4
v 1267.214 27.000 27.000
v 1267.214 0.000 27.000
v 0.000 0.000 27.000
v 0.000 27.000 27.000
v 1267.214 27.000 0.000
v 1267.214 0.000 0.000
v 0.000 0.000 0.000
v 0.000 27.000 0.000
f 9 10 14 13
f 10 11 15 14
f 11 12 16 15
f 12 9 13 16
f 9 12 11
f 11 10 9
f 16 13 14
f 14 15 16
o oculus_5_uncut
v 1267.214 154.000 27.000
v 1267.214 127.000 27.000
v 0.000 127.000 27.000
v 0.000 154.000 27.000
v 1267.214 154.000 0.000
v 1267.214 127.000 0.000
v 0.000 127.000 0.000
v 0.000 154.000 0.000
f 17 18 22 21
f 18 19 23 22
f 19 20 24 23
f 20 17 21 24
f 17 20 19
f 19 18 17
f 24 21 22
f 22 23 24
o oculus_5
v 1267.214 154.000 27.000
v 1267.214 127.000 27.000
v 0.000 127.000 27.000
v 0.000 154.000 27.000
v 1267.214 154.000 0.000
v 1267.214 127.000 0.000
v 0.000 127.000 0.000
v 0.000 154.000 0.000
f 25 26 30 29
f 26 27 31 30
f 27 28 32 31
f 28 25 29 32
f 25 28 27
f 27 26 25
f 32 29 30
f 30 31 32
o oculus_6_uncut
v 0.000 254.000 27.000
v 0.000 281.000 27.000
v 1267.214 281.000 27.000
v 1267.214 254.000 27.000
v 0.000 254.000 0.000
v 0.000 281.000 0.000
v 1267.214 281.000 0.000
v 1267.214 254.000 0.000
f 33 34 38 37
f 34 35 39 38
f 35 36 40 39
f 36 33 37 40
f 33 36 35
f 35 34 33
f 40 37 38
f 38 39 40
o oculus_6
v 0.000 254.000 27.000
v 0.000 281.000 27.000
v 1267.214 281.000 27.000
v 1267.214 254.000 27.000
v 0.000 254.000 0.000
v 0.000 281.000 0.000
v 1267.214 281.000 0.000
v 1267.214 254.000 0.000
f 41 42 46 45
f 42 43 47 46
f 43 44 48 47
f 44 41 45 48
f 41 44 43
f 43 42 41
f 48 45 46
f 46 47 48
o oculus_7_uncut
v 0.000 381.000 27.000
v 0.000 408.000 27.000
v 1267.214 408.000 27.000
v 1267.214 381.000 27.000
v 0.000 381.000 0.000
v 0.000 408.000 0.000
v 1267.214 408.000 0.000
v 1267.214 381.000 0.000
f 49 50 54 53
f 50 51 55 54
f 51 52 56 55
f 52 49 53 56
f 49 52 51
f 51 50 49
f 56 53 54
f 54 55 56
o oculus_7
v 0.000 381.000 27.000
v 0.000 408.000 27.000
v 1267.214 408.000 27.000
v 1267.214 381.000 27.000
v 0.000 381.000 0.000
v 0.000 408.000 0.000
v 1267.214 408.000 0.000
v 1267.214 381.000 0.000
f 57 58 62 61
f 58 59 63 62
f 59 60 64 63
f 60 57 61 64
f 57 60 59
f 59 58 57
f 64 61 62
f 62 63 64
