ISO-10303-21;
HEADER;
FILE_DESCRIPTION(('ViewDefinition [CoordinationView]'),'2;1');
FILE_NAME('','2026-08-20T14:42:11',(''),(''),'IfcOpenShell 0.8.4-e8eb5e4','IfcOpenShell 0.8.4-e8eb5e4','');
FILE_SCHEMA(('IFC4'));
ENDSEC;
DATA;
#1=IFCPROJECT('3KQePX6Tf2RvT7qjGP_8g_',$,'Default Project',$,$,$,$,(#11),#6);
#2=IFCSIUNIT(*,.LENGTHUNIT.,.MILLI.,.METRE.);
#3=IFCSIUNIT(*,.AREAUNIT.,.MILLI.,.SQUARE_METRE.);
#4=IFCSIUNIT(*,.VOLUMEUNIT.,.MILLI.,.CUBIC_METRE.);
#5=IFCSIUNIT(*,.PLANEANGLEUNIT.,$,.RADIAN.);
#6=IFCUNITASSIGNMENT((#2,#3,#4,#5));
#7=IFCCARTESIANPOINT((0.,0.,0.));
#8=IFCDIRECTION((0.,0.,1.));
#9=IFCDIRECTION((1.,0.,0.));
#10=IFCAXIS2PLACEMENT3D(#7,#8,#9);
#11=IFCGEOMETRICREPRESENTATIONCONTEXT($,'Model',3,1.E-05,#10,$);
#12=IFCGEOMETRICREPRESENTATIONSUBCONTEXT('Body','Model',*,*,*,*,#11,$,.MODEL_VIEW.,$);
#13=IFCPERSON($,'Unknown Author',$,$,$,$,$,$);
#14=IFCORGANIZATION($,'compas.dev',$,$,$);
#15=IFCPERSONANDORGANIZATION(#13,#14,$);
#16=IFCAPPLICATION(#14,'2.1.0','compas_ifc','compas_ifc v2.1.0');
#17=IFCOWNERHISTORY(#15,#16,$,$,$,$,$,1787229731);
#18=IFCSITE('1cv1HC8NHFW9EgnsN6ycZR',$,'Default Site',$,$,$,$,$,$,$,$,$,$,$);
#19=IFCRELAGGREGATES('2kUgHj5RHBJO7PxaqQZV1$',$,$,$,#1,(#18));
#20=IFCBUILDING('3JaagHsXP6A9mlCv4H68E1',$,'Default Building 1',$,$,$,$,$,$,$,$,$);
#21=IFCRELAGGREGATES('0FGnqNlrD34wNmqZcC1a0Z',$,$,$,#18,(#20));
#22=IFCBUILDINGSTOREY('0xfge1vPv3ifBrzo4JJdcY',$,'Default Storey 1',$,$,$,$,$,$,$);
#23=IFCRELAGGREGATES('0P8_$W2ZPC_x98_rGt9bvn',$,$,$,#20,(#22));
#24=IFCBUILDINGELEMENTPROXY('3x_3e$IWf7pgQpxxxfqaCJ',$,'oculus_4_uncut',$,$,$,#37,$,$);
#25=IFCRELCONTAINEDINSPATIALSTRUCTURE('3WP2$TVn5ERhrSOI0kJoEv',$,$,$,(#24),#22);
#26=IFCINDEXEDPOLYGONALFACE((1,2,6,5));
#27=IFCINDEXEDPOLYGONALFACE((2,3,7,6));
#28=IFCINDEXEDPOLYGONALFACE((3,4,8,7));
#29=IFCINDEXEDPOLYGONALFACE((4,1,5,8));
#30=IFCINDEXEDPOLYGONALFACE((1,4,3));
#31=IFCINDEXEDPOLYGONALFACE((3,2,1));
#32=IFCINDEXEDPOLYGONALFACE((8,5,6));
#33=IFCINDEXEDPOLYGONALFACE((6,7,8));
#34=IFCCARTESIANPOINTLIST3D(((1267.2135623731,27.0000000000001,27.),(1267.2135623731,0.,27.),(0.,4.54747350886464E-13,27.),(3.41060513164848E-13,27.0000000000004,27.),(1267.2135623731,27.0000000000001,0.),(1267.2135623731,0.,0.),(0.,4.54747350886464E-13,0.),(3.41060513164848E-13,27.0000000000004,0.)));
#35=IFCPOLYGONALFACESET(#34,.T.,(#26,#27,#28,#29,#30,#31,#32,#33),$);
#36=IFCSHAPEREPRESENTATION(#12,'Body','Tessellation',(#35));
#37=IFCPRODUCTDEFINITIONSHAPE($,$,(#36));
#38=IFCBUILDINGELEMENTPROXY('2ofCLBc0HCRhsq$nKj2voW',$,'oculus_4',$,$,$,#51,$,$);
#39=IFCRELCONTAINEDINSPATIALSTRUCTURE('3qOKVcgSfCXfnkU2SRaox4',$,$,$,(#38),#22);
#40=IFCINDEXEDPOLYGONALFACE((1,2,6,5));
#41=IFCINDEXEDPOLYGONALFACE((2,3,7,6));
#42=IFCINDEXEDPOLYGONALFACE((3,4,8,7));
#43=IFCINDEXEDPOLYGONALFACE((4,1,5,8));
#44=IFCINDEXEDPOLYGONALFACE((1,4,3));
#45=IFCINDEXEDPOLYGONALFACE((3,2,1));
#46=IFCINDEXEDPOLYGONALFACE((8,5,6));
#47=IFCINDEXEDPOLYGONALFACE((6,7,8));
#48=IFCCARTESIANPOINTLIST3D(((1267.2135623731,27.0000000000001,27.),(1267.2135623731,0.,27.),(0.,4.54747350886464E-13,27.),(3.41060513164848E-13,27.0000000000004,27.),(1267.2135623731,27.0000000000001,0.),(1267.2135623731,0.,0.),(0.,4.54747350886464E-13,0.),(3.41060513164848E-13,27.0000000000004,0.)));
#49=IFCPOLYGONALFACESET(#48,.T.,(#40,#41,#42,#43,#44,#45,#46,#47),$);
#50=IFCSHAPEREPRESENTATION(#12,'Body','Tessellation',(#49));
#51=IFCPRODUCTDEFINITIONSHAPE($,$,(#50));
#52=IFCBUILDINGELEMENTPROXY('2VXZeFd9H2MOk34XELVT_j',$,'oculus_5_uncut',$,$,$,#65,$,$);
#53=IFCRELCONTAINEDINSPATIALSTRUCTURE('3P$cAis1fFhAlE$QtOhM2I',$,$,$,(#52),#22);
#54=IFCINDEXEDPOLYGONALFACE((1,2,6,5));
#55=IFCINDEXEDPOLYGONALFACE((2,3,7,6));
#56=IFCINDEXEDPOLYGONALFACE((3,4,8,7));
#57=IFCINDEXEDPOLYGONALFACE((4,1,5,8));
#58=IFCINDEXEDPOLYGONALFACE((1,4,3));
#59=IFCINDEXEDPOLYGONALFACE((3,2,1));
#60=IFCINDEXEDPOLYGONALFACE((8,5,6));
#61=IFCINDEXEDPOLYGONALFACE((6,7,8));
#62=IFCCARTESIANPOINTLIST3D(((1267.2135623731,154.,27.),(1267.2135623731,127.,27.),(2.27373675443232E-13,127.,27.),(0.,154.,27.),(1267.2135623731,154.,0.),(1267.2135623731,127.,0.),(2.27373675443232E-13,127.,0.),(0.,154.,0.)));
#63=IFCPOLYGONALFACESET(#62,.T.,(#54,#55,#56,#57,#58,#59,#60,#61),$);
#64=IFCSHAPEREPRESENTATION(#12,'Body','Tessellation',(#63));
#65=IFCPRODUCTDEFINITIONSHAPE($,$,(#64));
#66=IFCBUILDINGELEMENTPROXY('0GO0zC6tb8JxIMziY1pTIm',$,'oculus_5',$,$,$,#79,$,$);
#67=IFCRELCONTAINEDINSPATIALSTRUCTURE('2Xfwi3oZ5439NLbfRn3b2K',$,$,$,(#66),#22);
#68=IFCINDEXEDPOLYGONALFACE((1,2,6,5));
#69=IFCINDEXEDPOLYGONALFACE((2,3,7,6));
#70=IFCINDEXEDPOLYGONALFACE((3,4,8,7));
#71=IFCINDEXEDPOLYGONALFACE((4,1,5,8));
#72=IFCINDEXEDPOLYGONALFACE((1,4,3));
#73=IFCINDEXEDPOLYGONALFACE((3,2,1));
#74=IFCINDEXEDPOLYGONALFACE((8,5,6));
#75=IFCINDEXEDPOLYGONALFACE((6,7,8));
#76=IFCCARTESIANPOINTLIST3D(((1267.2135623731,154.,27.),(1267.2135623731,127.,27.),(2.27373675443232E-13,127.,27.),(0.,154.,27.),(1267.2135623731,154.,0.),(1267.2135623731,127.,0.),(2.27373675443232E-13,127.,0.),(0.,154.,0.)));
#77=IFCPOLYGONALFACESET(#76,.T.,(#68,#69,#70,#71,#72,#73,#74,#75),$);
#78=IFCSHAPEREPRESENTATION(#12,'Body','Tessellation',(#77));
#79=IFCPRODUCTDEFINITIONSHAPE($,$,(#78));
#80=IFCBUILDINGELEMENTPROXY('3qdlnffIn5quLWgSrChin7',$,'oculus_6_uncut',$,$,$,#93,$,$);
#81=IFCRELCONTAINEDINSPATIALSTRUCTURE('3ehiJQ9GDFPfwCRSLYFYLD',$,$,$,(#80),#22);
#82=IFCINDEXEDPOLYGONALFACE((1,2,6,5));
#83=IFCINDEXEDPOLYGONALFACE((2,3,7,6));
#84=IFCINDEXEDPOLYGONALFACE((3,4,8,7));
#85=IFCINDEXEDPOLYGONALFACE((4,1,5,8));
#86=IFCINDEXEDPOLYGONALFACE((1,4,3));
#87=IFCINDEXEDPOLYGONALFACE((3,2,1));
#88=IFCINDEXEDPOLYGONALFACE((8,5,6));
#89=IFCINDEXEDPOLYGONALFACE((6,7,8));
#90=IFCCARTESIANPOINTLIST3D(((0.,254.000000000001,27.),(1.13686837721616E-13,281.000000000001,27.),(1267.2135623731,281.,27.),(1267.2135623731,254.,27.),(0.,254.000000000001,0.),(1.13686837721616E-13,281.000000000001,0.),(1267.2135623731,281.,0.),(1267.2135623731,254.,0.)));
#91=IFCPOLYGONALFACESET(#90,.T.,(#82,#83,#84,#85,#86,#87,#88,#89),$);
#92=IFCSHAPEREPRESENTATION(#12,'Body','Tessellation',(#91));
#93=IFCPRODUCTDEFINITIONSHAPE($,$,(#92));
#94=IFCBUILDINGELEMENTPROXY('068sfp72T6HOa39VWIRvNL',$,'oculus_6',$,$,$,#107,$,$);
#95=IFCRELCONTAINEDINSPATIALSTRUCTURE('2kZgKJ_nr1$PQJKyvOyBNn',$,$,$,(#94),#22);
#96=IFCINDEXEDPOLYGONALFACE((1,2,6,5));
#97=IFCINDEXEDPOLYGONALFACE((2,3,7,6));
#98=IFCINDEXEDPOLYGONALFACE((3,4,8,7));
#99=IFCINDEXEDPOLYGONALFACE((4,1,5,8));
#100=IFCINDEXEDPOLYGONALFACE((1,4,3));
#101=IFCINDEXEDPOLYGONALFACE((3,2,1));
#102=IFCINDEXEDPOLYGONALFACE((8,5,6));
#103=IFCINDEXEDPOLYGONALFACE((6,7,8));
#104=IFCCARTESIANPOINTLIST3D(((0.,254.000000000001,27.),(1.13686837721616E-13,281.000000000001,27.),(1267.2135623731,281.,27.),(1267.2135623731,254.,27.),(0.,254.000000000001,0.),(1.13686837721616E-13,281.000000000001,0.),(1267.2135623731,281.,0.),(1267.2135623731,254.,0.)));
#105=IFCPOLYGONALFACESET(#104,.T.,(#96,#97,#98,#99,#100,#101,#102,#103),$);
#106=IFCSHAPEREPRESENTATION(#12,'Body','Tessellation',(#105));
#107=IFCPRODUCTDEFINITIONSHAPE($,$,(#106));
#108=IFCBUILDINGELEMENTPROXY('25wjC3zdjDpB9XxUku2T4F',$,'oculus_7_uncut',$,$,$,#121,$,$);
#109=IFCRELCONTAINEDINSPATIALSTRUCTURE('21xAcsDj9FU8$B7q2E4Okg',$,$,$,(#108),#22);
#110=IFCINDEXEDPOLYGONALFACE((1,2,6,5));
#111=IFCINDEXEDPOLYGONALFACE((2,3,7,6));
#112=IFCINDEXEDPOLYGONALFACE((3,4,8,7));
#113=IFCINDEXEDPOLYGONALFACE((4,1,5,8));
#114=IFCINDEXEDPOLYGONALFACE((1,4,3));
#115=IFCINDEXEDPOLYGONALFACE((3,2,1));
#116=IFCINDEXEDPOLYGONALFACE((8,5,6));
#117=IFCINDEXEDPOLYGONALFACE((6,7,8));
#118=IFCCARTESIANPOINTLIST3D(((1.13686837721616E-13,381.000000000001,27.),(0.,408.000000000001,27.),(1267.2135623731,408.000000000001,27.),(1267.2135623731,381.000000000001,27.),(1.13686837721616E-13,381.000000000001,0.),(0.,408.000000000001,0.),(1267.2135623731,408.000000000001,0.),(1267.2135623731,381.000000000001,0.)));
#119=IFCPOLYGONALFACESET(#118,.T.,(#110,#111,#112,#113,#114,#115,#116,#117),$);
#120=IFCSHAPEREPRESENTATION(#12,'Body','Tessellation',(#119));
#121=IFCPRODUCTDEFINITIONSHAPE($,$,(#120));
#122=IFCBUILDINGELEMENTPROXY('0Qg7G5zuD11PPzl7pjy0NM',$,'oculus_7',$,$,$,#135,$,$);
#123=IFCRELCONTAINEDINSPATIALSTRUCTURE('1dSyJ2cdT4qe5A_GX5ttOl',$,$,$,(#122),#22);
#124=IFCINDEXEDPOLYGONALFACE((1,2,6,5));
#125=IFCINDEXEDPOLYGONALFACE((2,3,7,6));
#126=IFCINDEXEDPOLYGONALFACE((3,4,8,7));
#127=IFCINDEXEDPOLYGONALFACE((4,1,5,8));
#128=IFCINDEXEDPOLYGONALFACE((1,4,3));
#129=IFCINDEXEDPOLYGONALFACE((3,2,1));
#130=IFCINDEXEDPOLYGONALFACE((8,5,6));
#131=IFCINDEXEDPOLYGONALFACE((6,7,8));
#132=IFCCARTESIANPOINTLIST3D(((1.13686837721616E-13,381.000000000001,27.),(0.,408.000000000001,27.),(1267.2135623731,408.000000000001,27.),(1267.2135623731,381.000000000001,27.),(1.13686837721616E-13,381.000000000001,0.),(0.,408.000000000001,0.),(1267.2135623731,408.000000000001,0.),(1267.2135623731,381.000000000001,0.)));
#133=IFCPOLYGONALFACESET(#132,.T.,(#124,#125,#126,#127,#128,#129,#130,#131),$);
#134=IFCSHAPEREPRESENTATION(#12,'Body','Tessellation',(#133));
#135=IFCPRODUCTDEFINITIONSHAPE($,$,(#134));
ENDSEC;
END-ISO-10303-21;
