ISO-10303-21;
HEADER;
FILE_DESCRIPTION(('ViewDefinition [CoordinationView]'),'2;1');
FILE_NAME('','2026-08-20T16:49:43',(''),(''),'IfcOpenShell 0.8.4-e8eb5e4','IfcOpenShell 0.8.4-e8eb5e4','');
FILE_SCHEMA(('IFC4'));
ENDSEC;
DATA;
#1=IFCPROJECT('1r$MgakLbEz9i2TWGVlVRr',$,'Default Project',$,$,$,$,(#11),#6);
#2=IFCSIUNIT(*,.LENGTHUNIT.,.MILLI.,.METRE.);
#3=IFCSIUNIT(*,.AREAUNIT.,.MILLI.,.SQUARE_METRE.);
#4=IFCSIUNIT(*,.VOLUMEUNIT.,.MILLI.,.CUBIC_METRE.);
#5=IFCSIUNIT(*,.PLANEANGLEUNIT.,$,.RADIAN.);
#6=IFCUNITASSIGNMENT((#2,#3,#4,#5));
#7=IFCCARTESIANPOINT((0.,0.,0.));
#8=IFCDIRECTION((0.,0.,1.));
#9=IFCDIRECTION((1.,0.,0.));
#10=IFCAXIS2PLACEMENT3D(#7,#8,#9);
#11=IFCGEOMETRICREPRESENTATIONCONTEXT($,'Model',3,1.E-05,#10,$);
#12=IFCGEOMETRICREPRESENTATIONSUBCONTEXT('Body','Model',*,*,*,*,#11,$,.MODEL_VIEW.,$);
#13=IFCPERSON($,'Unknown Author',$,$,$,$,$,$);
#14=IFCORGANIZATION($,'compas.dev',$,$,$);
#15=IFCPERSONANDORGANIZATION(#13,#14,$);
#16=IFCAPPLICATION(#14,'2.1.0','compas_ifc','compas_ifc v2.1.0');
#17=IFCOWNERHISTORY(#15,#16,$,$,$,$,$,1787237383);
#18=IFCSITE('10DNWaQHz2Duxo09IkuBnw',$,'Default Site',$,$,$,$,$,$,$,$,$,$,$);
#19=IFCRELAGGREGATES('0aB4xjrMbCIx0vg59o5JNS',$,$,$,#1,(#18));
#20=IFCBUILDING('1M80PXXKD0UQgOPLqpPs7u',$,'Default Building 1',$,$,$,$,$,$,$,$,$);
#21=IFCRELAGGREGATES('3d7HJEK2L6ofEZHusdFpiS',$,$,$,#18,(#20));
#22=IFCBUILDINGSTOREY('2L6QvoYF99MQCwSFz0ucIF',$,'Default Storey 1',$,$,$,$,$,$,$);
#23=IFCRELAGGREGATES('2jntLUDVj3euEoASUwiwim',$,$,$,#20,(#22));
#24=IFCBUILDINGELEMENTPROXY('0dNRPGTVT1NBFedH3oQLQp',$,'outer_rib_connector_0',$,$,$,#59,$,$);
#25=IFCRELCONTAINEDINSPATIALSTRUCTURE('2CnUbfhFT2hBEKLjR_wXf7',$,$,$,(#24),#22);
#26=IFCINDEXEDPOLYGONALFACE((4,8,1,6));
#27=IFCINDEXEDPOLYGONALFACE((8,4,11));
#28=IFCINDEXEDPOLYGONALFACE((1,14,6));
#29=IFCINDEXEDPOLYGONALFACE((2,1,8,16));
#30=IFCINDEXEDPOLYGONALFACE((9,17,16,8));
#31=IFCINDEXEDPOLYGONALFACE((3,12,1,2));
#32=IFCINDEXEDPOLYGONALFACE((17,9,12,3));
#33=IFCINDEXEDPOLYGONALFACE((5,10,11,4));
#34=IFCINDEXEDPOLYGONALFACE((6,7,5,4));
#35=IFCINDEXEDPOLYGONALFACE((6,14,13,7));
#36=IFCINDEXEDPOLYGONALFACE((9,5,7,12));
#37=IFCINDEXEDPOLYGONALFACE((9,10,5));
#38=IFCINDEXEDPOLYGONALFACE((13,12,7));
#39=IFCINDEXEDPOLYGONALFACE((8,11,10,9));
#40=IFCINDEXEDPOLYGONALFACE((1,12,13,14));
#41=IFCINDEXEDPOLYGONALFACE((18,20,15,22));
#42=IFCINDEXEDPOLYGONALFACE((22,25,18));
#43=IFCINDEXEDPOLYGONALFACE((15,20,28));
#44=IFCINDEXEDPOLYGONALFACE((2,16,22,15));
#45=IFCINDEXEDPOLYGONALFACE((23,22,16,17));
#46=IFCINDEXEDPOLYGONALFACE((3,2,15,26));
#47=IFCINDEXEDPOLYGONALFACE((17,3,26,23));
#48=IFCINDEXEDPOLYGONALFACE((19,18,25,24));
#49=IFCINDEXEDPOLYGONALFACE((20,18,19,21));
#50=IFCINDEXEDPOLYGONALFACE((20,21,27,28));
#51=IFCINDEXEDPOLYGONALFACE((23,26,21,19));
#52=IFCINDEXEDPOLYGONALFACE((23,19,24));
#53=IFCINDEXEDPOLYGONALFACE((27,21,26));
#54=IFCINDEXEDPOLYGONALFACE((22,23,24,25));
#55=IFCINDEXEDPOLYGONALFACE((15,28,27,26));
#56=IFCCARTESIANPOINTLIST3D(((200.,29.2500000027588,30.0000000000001),(2.36752979842856E-14,23.3051181131517,30.0000000000001),(2.36752979842856E-14,-35.1948818898369,30.0000000000002),(400.,35.1948818923653,1.58153087494654E-13),(400.,-35.1948818923655,1.58153087494657E-13),(400.,35.194881892365,40.0000000000002),(400.,-35.1948818923658,40.0000000000002),(200.,29.250000002759,10.0000000000001),(200.,-35.1948818900669,10.0000000000002),(200.,-35.1948818923655,1.58153087494657E-13),(200.,29.2500000027581,1.1974666097361E-13),(200.,-35.194881890067,30.0000000000002),(200.,-35.1948818923658,40.0000000000002),(200.,29.2500000027579,40.0000000000001),(-200.,29.2500000027588,30.0000000000001),(2.30629745847119E-14,23.3051181131518,10.0000000000001),(2.30629745847119E-14,-35.1948818898368,10.0000000000002),(-400.,35.1948818923653,1.58153087494654E-13),(-400.,-35.1948818923655,1.58153087494657E-13),(-400.,35.194881892365,40.0000000000002),(-400.,-35.1948818923658,40.0000000000002),(-200.,29.250000002759,10.0000000000001),(-200.,-35.1948818900669,10.0000000000002),(-200.,-35.1948818923655,1.58153087494657E-13),(-200.,29.2500000027581,1.1974666097361E-13),(-200.,-35.194881890067,30.0000000000002),(-200.,-35.1948818923658,40.0000000000002),(-200.,29.2500000027579,40.0000000000001)));
#57=IFCPOLYGONALFACESET(#56,.T.,(#26,#27,#28,#29,#30,#31,#32,#33,#34,#35,#36,#37,#38,#39,#40,#41,#42,#43,#44,#45,#46,#47,#48,#49,#50,#51,#52,#53,#54,#55),$);
#58=IFCSHAPEREPRESENTATION(#12,'Body','Tessellation',(#57));
#59=IFCPRODUCTDEFINITIONSHAPE($,$,(#58));
ENDSEC;
END-ISO-10303-21;
