# OBJ
# COMPAS
# version: 2.15.1
# precision: 3
# V F E: 28 52 78

o outer_rib_connector_0_preview
v 200.000 29.250 30.000
v 0.000 23.305 30.000
v 0.000 -35.195 30.000
v 400.000 35.195 0.000
v 400.000 -35.195 0.000
v 400.000 35.195 40.000
v 400.000 -35.195 40.000
v 200.000 29.250 10.000
v 200.000 -35.195 10.000
v 200.000 -35.195 0.000
v 200.000 29.250 0.000
v 200.000 -35.195 30.000
v 200.000 -35.195 40.000
v 200.000 29.250 40.000
v -200.000 29.250 30.000
v 0.000 23.305 10.000
v 0.000 -35.195 10.000
v -400.000 35.195 0.000
v -400.000 -35.195 0.000
v -400.000 35.195 40.000
v -400.000 -35.195 40.000
v -200.000 29.250 10.000
v -200.000 -35.195 10.000
v -200.000 -35.195 0.000
v -200.000 29.250 0.000
v -200.000 -35.195 30.000
v -200.000 -35.195 40.000
v -200.000 29.250 40.000
f 8 4 11
f 1 14 6
f 9 10 5
f 13 12 7
f 22 25 18
f 15 20 28
f 23 19 24
f 27 21 26
f 6 4 8
f 8 1 6
f 16 2 1
f 1 8 16
f 8 9 17
f 17 16 8
f 2 3 12
f 12 1 2
f 3 17 9
f 9 12 3
f 4 5 10
f 10 11 4
f 4 6 7
f 7 5 4
f 7 6 14
f 14 13 7
f 12 9 5
f 5 7 12
f 9 8 11
f 11 10 9
f 14 1 12
f 12 13 14
f 22 18 20
f 20 15 22
f 15 2 16
f 16 22 15
f 17 23 22
f 22 16 17
f 26 3 2
f 2 15 26
f 23 17 3
f 3 26 23
f 24 19 18
f 18 25 24
f 21 20 18
f 18 19 21
f 28 20 21
f 21 27 28
f 19 23 26
f 26 21 19
f 25 22 23
f 23 24 25
f 26 15 28
f 28 27 26
