# OBJ
# COMPAS
# version: 2.15.1
# precision: 3
# V F E: 173 358 537

o outer_ribs_0_0_preview
v -995.560 480.376 0.000
v -435.231 297.166 0.000
v -11.898 183.916 0.000
v -994.381 -16.321 0.000
v -984.814 -14.418 0.000
v -975.247 -16.321 0.000
v -1002.492 -21.740 0.000
v -1007.911 -29.851 0.000
v -1009.814 -39.418 0.000
v -967.137 -21.740 0.000
v -961.717 -29.851 0.000
v -959.814 -39.418 0.000
v -1007.911 -48.985 0.000
v -1002.492 -57.095 0.000
v -961.717 -48.985 0.000
v -967.137 -57.095 0.000
v -994.381 -62.515 0.000
v -984.814 -64.418 0.000
v -975.247 -62.515 0.000
v -994.381 -116.321 0.000
v -984.814 -114.418 0.000
v -975.247 -116.321 0.000
v -1002.492 -121.740 0.000
v -967.137 -121.740 0.000
v -1007.911 -129.851 0.000
v -1009.814 -139.418 0.000
v -1007.911 -148.985 0.000
v -961.717 -129.851 0.000
v -959.814 -139.418 0.000
v -961.717 -148.985 0.000
v -1002.492 -157.095 0.000
v -994.381 -162.515 0.000
v -984.814 -164.418 0.000
v -975.247 -162.515 0.000
v -967.137 -157.095 0.000
v -1098.564 -214.418 0.000
v -1061.502 35.582 35.000
v -994.381 -16.321 35.000
v -984.814 -14.418 35.000
v -975.247 -16.321 35.000
v -1002.492 -21.740 35.000
v -1007.911 -29.851 35.000
v -1009.814 -39.418 35.000
v -967.137 -21.740 35.000
v -961.717 -29.851 35.000
v -959.814 -39.418 35.000
v -833.564 35.582 35.000
v -1078.199 -77.046 35.000
v -1007.911 -48.985 35.000
v -1002.492 -57.095 35.000
v -961.717 -48.985 35.000
v -967.137 -57.095 35.000
v -994.381 -62.515 35.000
v -984.814 -64.418 35.000
v -975.247 -62.515 35.000
v -994.381 -116.321 35.000
v -984.814 -114.418 35.000
v -975.247 -116.321 35.000
v -1002.492 -121.740 35.000
v -967.137 -121.740 35.000
v -1007.911 -129.851 35.000
v -1009.814 -139.418 35.000
v -1007.911 -148.985 35.000
v -961.717 -129.851 35.000
v -959.814 -139.418 35.000
v -961.717 -148.985 35.000
v -1002.492 -157.095 35.000
v -994.381 -162.515 35.000
v -984.814 -164.418 35.000
v -975.247 -162.515 35.000
v -967.137 -157.095 35.000
v -1098.564 -214.418 35.000
v -833.564 -214.418 35.000
v -995.560 480.376 100.000
v -435.231 297.166 100.000
v -11.898 183.916 100.000
v -1061.502 35.582 65.000
v -994.381 -16.321 65.000
v -984.814 -14.418 65.000
v -975.247 -16.321 65.000
v -1002.492 -21.740 65.000
v -1007.911 -29.851 65.000
v -1009.814 -39.418 65.000
v -967.137 -21.740 65.000
v -961.717 -29.851 65.000
v -959.814 -39.418 65.000
v -833.564 35.582 65.000
v -1007.911 -48.985 65.000
v -1002.492 -57.095 65.000
v -961.717 -48.985 65.000
v -967.137 -57.095 65.000
v -994.381 -62.515 65.000
v -984.814 -64.418 65.000
v -975.247 -62.515 65.000
v -994.381 -116.321 65.000
v -984.814 -114.418 65.000
v -975.247 -116.321 65.000
v -1002.492 -121.740 65.000
v -967.137 -121.740 65.000
v -1007.911 -129.851 65.000
v -1009.814 -139.418 65.000
v -1007.911 -148.985 65.000
v -961.717 -129.851 65.000
v -959.814 -139.418 65.000
v -961.717 -148.985 65.000
v -1002.492 -157.095 65.000
v -994.381 -162.515 65.000
v -984.814 -164.418 65.000
v -975.247 -162.515 65.000
v -967.137 -157.095 65.000
v -1098.564 -214.418 65.000
v -833.564 -214.418 65.000
v -994.381 -16.321 100.000
v -984.814 -14.418 100.000
v -975.247 -16.321 100.000
v -1002.492 -21.740 100.000
v -1007.911 -29.851 100.000
v -1009.814 -39.418 100.000
v -967.137 -21.740 100.000
v -961.717 -29.851 100.000
v -959.814 -39.418 100.000
v -1007.911 -48.985 100.000
v -1002.492 -57.095 100.000
v -961.717 -48.985 100.000
v -967.137 -57.095 100.000
v -994.381 -62.515 100.000
v -984.814 -64.418 100.000
v -975.247 -62.515 100.000
v -994.381 -116.321 100.000
v -984.814 -114.418 100.000
v -975.247 -116.321 100.000
v -1002.492 -121.740 100.000
v -967.137 -121.740 100.000
v -1007.911 -129.851 100.000
v -1009.814 -139.418 100.000
v -1007.911 -148.985 100.000
v -961.717 -129.851 100.000
v -959.814 -139.418 100.000
v -961.717 -148.985 100.000
v -1002.492 -157.095 100.000
v -994.381 -162.515 100.000
v -984.814 -164.418 100.000
v -975.247 -162.515 100.000
v -967.137 -157.095 100.000
v -1098.564 -214.418 100.000
v 411.436 95.832 0.000
v 834.769 32.916 0.000
v 1258.102 -4.834 0.000
v 1681.436 -17.418 0.000
v 1681.436 -214.418 0.000
v 1281.436 -5.528 30.000
v 1481.436 -11.473 30.000
v 1481.436 -11.473 40.000
v 1681.436 -17.418 40.000
v 1281.436 -75.918 30.000
v 1481.436 -75.918 30.000
v 1481.436 -72.281 40.000
v 1481.436 -75.918 40.000
v 1681.436 -75.918 40.000
v 411.436 95.832 100.000
v 834.769 32.916 100.000
v 1281.436 -5.528 70.000
v 1481.436 -11.473 60.000
v 1681.436 -17.418 60.000
v 1481.436 -11.473 70.000
v 1281.436 -75.918 70.000
v 1481.436 -62.584 60.000
v 1481.436 -75.918 60.000
v 1681.436 -75.918 60.000
v 1481.436 -75.918 70.000
v 1258.102 -4.834 100.000
v 1681.436 -17.418 100.000
v 1681.436 -214.418 100.000
f 1 2 5
f 1 5 4
f 1 4 7
f 1 7 8
f 1 8 9
f 1 9 36
f 2 6 5
f 2 10 6
f 2 11 10
f 2 12 11
f 2 15 12
f 2 21 15
f 2 22 21
f 2 24 22
f 2 28 24
f 2 29 28
f 2 3 29
f 3 30 29
f 14 25 13
f 17 23 14
f 18 20 17
f 15 21 16
f 16 21 19
f 19 21 18
f 36 9 13
f 17 20 23
f 14 23 25
f 18 21 20
f 36 13 25
f 36 25 26
f 36 26 27
f 36 27 31
f 36 31 32
f 36 32 33
f 36 33 34
f 3 36 34
f 3 35 30
f 3 34 35
f 3 146 36
f 36 146 147
f 36 147 148
f 36 148 149
f 36 149 150
f 74 119 75
f 74 113 114
f 74 116 113
f 74 114 115
f 74 115 119
f 74 117 116
f 74 118 117
f 74 145 118
f 75 119 120
f 75 120 121
f 75 121 124
f 75 124 125
f 75 125 128
f 75 128 131
f 75 131 133
f 75 133 137
f 75 137 138
f 75 138 76
f 76 138 139
f 122 132 123
f 123 129 126
f 126 130 127
f 127 131 128
f 145 122 118
f 122 134 132
f 123 132 129
f 126 129 130
f 127 130 131
f 145 134 122
f 145 135 134
f 145 136 135
f 145 140 136
f 145 141 140
f 145 142 141
f 145 143 142
f 76 143 145
f 76 139 144
f 76 144 143
f 76 145 160
f 145 161 160
f 145 171 161
f 145 173 171
f 171 173 172
f 39 47 37
f 39 37 38
f 38 37 41
f 41 37 42
f 42 37 43
f 43 37 49
f 49 37 48
f 39 40 47
f 40 44 47
f 44 45 47
f 45 46 47
f 49 48 56
f 49 56 50
f 50 56 53
f 53 57 54
f 55 54 58
f 52 55 60
f 46 51 65
f 51 52 64
f 56 48 59
f 59 48 61
f 61 48 62
f 62 48 63
f 53 56 57
f 54 57 58
f 55 58 60
f 52 60 64
f 51 64 65
f 47 46 65
f 47 65 73
f 63 48 67
f 67 48 72
f 67 72 68
f 68 72 69
f 70 69 72
f 71 70 73
f 70 72 73
f 65 66 73
f 66 71 73
f 78 77 87
f 78 81 77
f 81 82 77
f 82 83 77
f 79 78 87
f 79 87 80
f 80 87 84
f 84 87 85
f 85 87 86
f 83 111 77
f 92 93 95
f 91 97 94
f 94 96 93
f 86 103 90
f 90 99 91
f 83 88 111
f 88 89 111
f 89 92 111
f 92 95 98
f 92 98 100
f 93 96 95
f 94 97 96
f 91 99 97
f 90 103 99
f 86 104 103
f 87 104 86
f 87 112 104
f 92 100 111
f 100 101 111
f 101 102 111
f 102 106 111
f 106 107 111
f 107 108 111
f 110 112 109
f 109 112 108
f 108 112 111
f 104 112 105
f 105 112 110
f 48 72 36
f 74 145 111
f 37 48 36
f 74 111 77
f 37 36 1
f 1 74 77
f 77 37 1
f 74 75 2
f 2 1 74
f 2 75 76
f 76 3 2
f 76 160 146
f 146 3 76
f 72 36 150
f 150 173 145
f 145 111 112
f 73 72 150
f 150 145 112
f 112 73 150
f 161 147 146
f 146 160 161
f 171 148 147
f 147 161 171
f 165 163 164
f 164 172 171
f 148 149 154
f 154 153 152
f 165 164 171
f 148 154 152
f 162 165 171
f 148 152 151
f 151 162 171
f 171 148 151
f 154 149 150
f 150 173 172
f 172 164 169
f 159 154 150
f 150 172 169
f 169 159 150
f 38 41 7
f 7 4 38
f 38 4 5
f 5 39 38
f 5 6 40
f 40 39 5
f 8 7 41
f 41 42 8
f 44 40 6
f 6 10 44
f 43 9 8
f 8 42 43
f 44 10 11
f 11 45 44
f 45 11 12
f 12 46 45
f 9 43 49
f 49 13 9
f 13 49 50
f 50 14 13
f 14 50 53
f 53 17 14
f 55 52 16
f 16 19 55
f 15 51 46
f 46 12 15
f 16 52 51
f 51 15 16
f 18 17 53
f 53 54 18
f 55 19 18
f 18 54 55
f 20 21 57
f 57 56 20
f 58 57 21
f 21 22 58
f 23 20 56
f 56 59 23
f 59 61 25
f 25 23 59
f 58 22 24
f 24 60 58
f 60 24 28
f 28 64 60
f 26 25 61
f 61 62 26
f 27 26 62
f 62 63 27
f 28 29 65
f 65 64 28
f 29 30 66
f 66 65 29
f 31 27 63
f 63 67 31
f 68 32 31
f 31 67 68
f 69 33 32
f 32 68 69
f 33 69 70
f 70 34 33
f 71 35 34
f 34 70 71
f 35 71 66
f 66 30 35
f 77 37 47
f 47 87 77
f 87 47 73
f 73 112 87
f 113 116 81
f 81 78 113
f 78 79 114
f 114 113 78
f 79 80 115
f 115 114 79
f 81 116 117
f 117 82 81
f 84 119 115
f 115 80 84
f 118 83 82
f 82 117 118
f 119 84 85
f 85 120 119
f 85 86 121
f 121 120 85
f 118 122 88
f 88 83 118
f 123 89 88
f 88 122 123
f 126 92 89
f 89 123 126
f 91 94 128
f 128 125 91
f 86 90 124
f 124 121 86
f 91 125 124
f 124 90 91
f 92 126 127
f 127 93 92
f 94 93 127
f 127 128 94
f 130 129 95
f 95 96 130
f 96 97 131
f 131 130 96
f 132 98 95
f 95 129 132
f 134 100 98
f 98 132 134
f 133 131 97
f 97 99 133
f 99 103 137
f 137 133 99
f 134 135 101
f 101 100 134
f 101 135 136
f 136 102 101
f 103 104 138
f 138 137 103
f 139 138 104
f 104 105 139
f 102 136 140
f 140 106 102
f 107 106 140
f 140 141 107
f 141 142 108
f 108 107 141
f 108 142 143
f 143 109 108
f 144 110 109
f 109 143 144
f 144 139 105
f 105 110 144
f 151 155 156
f 156 152 151
f 157 153 152
f 152 156 158
f 158 157 152
f 154 153 157
f 157 158 159
f 159 154 157
f 151 162 166
f 166 155 151
f 169 159 158
f 158 156 155
f 155 166 170
f 168 169 158
f 155 170 168
f 168 158 155
f 163 164 169
f 169 168 167
f 167 163 169
f 170 165 163
f 167 168 170
f 170 163 167
f 162 165 170
f 170 166 162
