# OBJ
# COMPAS
# version: 2.15.1
# precision: 3
# V F E: 287 403 686

o outer_ribs_0_0_uncut
v 1681.436 -214.418 100.000
v -1098.564 -214.418 100.000
v -995.560 480.376 100.000
v -435.231 297.166 100.000
v -11.898 183.916 100.000
v 411.436 95.832 100.000
v 834.769 32.916 100.000
v 1258.102 -4.834 100.000
v 1681.436 -17.418 100.000
v 1681.436 -214.418 0.000
v -1098.564 -214.418 0.000
v -995.560 480.376 0.000
v -435.231 297.166 0.000
v -11.898 183.916 0.000
v 411.436 95.832 0.000
v 834.769 32.916 0.000
v 1258.102 -4.834 0.000
v 1681.436 -17.418 0.000
f 1 2 11 10
f 2 3 12 11
f 3 4 13 12
f 4 5 14 13
f 5 6 15 14
f 6 7 16 15
f 7 8 17 16
f 8 9 18 17
f 9 1 10 18
f 1 9 8
f 4 3 2
f 2 1 8
f 5 4 2
f 2 8 7
f 6 5 2
f 2 7 6
f 18 10 11
f 11 12 13
f 17 18 11
f 11 13 14
f 16 17 11
f 11 14 15
f 15 16 11
o outer_ribs_0_0_cut
v -995.560 480.376 0.000
v -435.231 297.166 0.000
v -11.898 183.916 0.000
v -994.381 -16.321 0.000
v -984.814 -14.418 0.000
v -975.247 -16.321 0.000
v -1002.492 -21.740 0.000
v -1007.911 -29.851 0.000
v -1009.814 -39.418 0.000
v -967.137 -21.740 0.000
v -961.717 -29.851 0.000
v -959.814 -39.418 0.000
v -1007.911 -48.985 0.000
v -1002.492 -57.095 0.000
v -961.717 -48.985 0.000
v -967.137 -57.095 0.000
v -994.381 -62.515 0.000
v -984.814 -64.418 0.000
v -975.247 -62.515 0.000
v -994.381 -116.321 0.000
v -984.814 -114.418 0.000
v -975.247 -116.321 0.000
v -1002.492 -121.740 0.000
v -967.137 -121.740 0.000
v -1007.911 -129.851 0.000
v -1009.814 -139.418 0.000
v -1007.911 -148.985 0.000
v -961.717 -129.851 0.000
v -959.814 -139.418 0.000
v -961.717 -148.985 0.000
v -1002.492 -157.095 0.000
v -994.381 -162.515 0.000
v -984.814 -164.418 0.000
v -975.247 -162.515 0.000
v -967.137 -157.095 0.000
v -1098.564 -214.418 0.000
v -1061.502 35.582 35.000
v -994.381 -16.321 35.000
v -984.814 -14.418 35.000
v -975.247 -16.321 35.000
v -1002.492 -21.740 35.000
v -1007.911 -29.851 35.000
v -1009.814 -39.418 35.000
v -967.137 -21.740 35.000
v -961.717 -29.851 35.000
v -959.814 -39.418 35.000
v -833.564 35.582 35.000
v -1078.199 -77.046 35.000
v -1007.911 -48.985 35.000
v -1002.492 -57.095 35.000
v -961.717 -48.985 35.000
v -967.137 -57.095 35.000
v -994.381 -62.515 35.000
v -984.814 -64.418 35.000
v -975.247 -62.515 35.000
v -994.381 -116.321 35.000
v -984.814 -114.418 35.000
v -975.247 -116.321 35.000
v -1002.492 -121.740 35.000
v -967.137 -121.740 35.000
v -1007.911 -129.851 35.000
v -1009.814 -139.418 35.000
v -1007.911 -148.985 35.000
v -961.717 -129.851 35.000
v -959.814 -139.418 35.000
v -961.717 -148.985 35.000
v -1002.492 -157.095 35.000
v -994.381 -162.515 35.000
v -984.814 -164.418 35.000
v -975.247 -162.515 35.000
v -967.137 -157.095 35.000
v -1098.564 -214.418 35.000
v -833.564 -214.418 35.000
v -995.560 480.376 100.000
v -435.231 297.166 100.000
v -11.898 183.916 100.000
v -1061.502 35.582 65.000
v -994.381 -16.321 65.000
v -984.814 -14.418 65.000
v -975.247 -16.321 65.000
v -1002.492 -21.740 65.000
v -1007.911 -29.851 65.000
v -1009.814 -39.418 65.000
v -967.137 -21.740 65.000
v -961.717 -29.851 65.000
v -959.814 -39.418 65.000
v -833.564 35.582 65.000
v -1007.911 -48.985 65.000
v -1002.492 -57.095 65.000
v -961.717 -48.985 65.000
v -967.137 -57.095 65.000
v -994.381 -62.515 65.000
v -984.814 -64.418 65.000
v -975.247 -62.515 65.000
v -994.381 -116.321 65.000
v -984.814 -114.418 65.000
v -975.247 -116.321 65.000
v -1002.492 -121.740 65.000
v -967.137 -121.740 65.000
v -1007.911 -129.851 65.000
v -1009.814 -139.418 65.000
v -1007.911 -148.985 65.000
v -961.717 -129.851 65.000
v -959.814 -139.418 65.000
v -961.717 -148.985 65.000
v -1002.492 -157.095 65.000
v -994.381 -162.515 65.000
v -984.814 -164.418 65.000
v -975.247 -162.515 65.000
v -967.137 -157.095 65.000
v -1098.564 -214.418 65.000
v -833.564 -214.418 65.000
v -994.381 -16.321 100.000
v -984.814 -14.418 100.000
v -975.247 -16.321 100.000
v -1002.492 -21.740 100.000
v -1007.911 -29.851 100.000
v -1009.814 -39.418 100.000
v -967.137 -21.740 100.000
v -961.717 -29.851 100.000
v -959.814 -39.418 100.000
v -1007.911 -48.985 100.000
v -1002.492 -57.095 100.000
v -961.717 -48.985 100.000
v -967.137 -57.095 100.000
v -994.381 -62.515 100.000
v -984.814 -64.418 100.000
v -975.247 -62.515 100.000
v -994.381 -116.321 100.000
v -984.814 -114.418 100.000
v -975.247 -116.321 100.000
v -1002.492 -121.740 100.000
v -967.137 -121.740 100.000
v -1007.911 -129.851 100.000
v -1009.814 -139.418 100.000
v -1007.911 -148.985 100.000
v -961.717 -129.851 100.000
v -959.814 -139.418 100.000
v -961.717 -148.985 100.000
v -1002.492 -157.095 100.000
v -994.381 -162.515 100.000
v -984.814 -164.418 100.000
v -975.247 -162.515 100.000
v -967.137 -157.095 100.000
v -1098.564 -214.418 100.000
v 411.436 95.832 0.000
v 834.769 32.916 0.000
v 1258.102 -4.834 0.000
v 1681.436 -17.418 0.000
v 1681.436 -214.418 0.000
v 1281.436 -5.528 30.000
v 1481.436 -11.473 30.000
v 1481.436 -11.473 40.000
v 1681.436 -17.418 40.000
v 1281.436 -75.918 30.000
v 1481.436 -75.918 30.000
v 1481.436 -72.281 40.000
v 1481.436 -75.918 40.000
v 1681.436 -75.918 40.000
v 411.436 95.832 100.000
v 834.769 32.916 100.000
v 1281.436 -5.528 70.000
v 1481.436 -11.473 60.000
v 1681.436 -17.418 60.000
v 1481.436 -11.473 70.000
v 1281.436 -75.918 70.000
v 1481.436 -62.584 60.000
v 1481.436 -75.918 60.000
v 1681.436 -75.918 60.000
v 1481.436 -75.918 70.000
v 1258.102 -4.834 100.000
v 1681.436 -17.418 100.000
v 1681.436 -214.418 100.000
f 19 20 23
f 19 23 22
f 19 22 25
f 19 25 26
f 19 26 27
f 19 27 54
f 20 24 23
f 20 28 24
f 20 29 28
f 20 30 29
f 20 33 30
f 20 39 33
f 20 40 39
f 20 42 40
f 20 46 42
f 20 47 46
f 20 21 47
f 21 48 47
f 32 43 31
f 35 41 32
f 36 38 35
f 33 39 34
f 34 39 37
f 37 39 36
f 54 27 31
f 35 38 41
f 32 41 43
f 36 39 38
f 54 31 43
f 54 43 44
f 54 44 45
f 54 45 49
f 54 49 50
f 54 50 51
f 54 51 52
f 21 54 52
f 21 53 48
f 21 52 53
f 21 164 54
f 54 164 165
f 54 165 166
f 54 166 167
f 54 167 168
f 95 129 163 92 19 54 90 66 55
f 93 20 19 92
f 93 94 21 20
f 178 164 21 94
f 54 168 191 163 129 130 91 90
f 92 137 93
f 92 131 132
f 92 134 131
f 92 132 133
f 92 133 137
f 92 135 134
f 92 136 135
f 92 163 136
f 93 137 138
f 93 138 139
f 93 139 142
f 93 142 143
f 93 143 146
f 93 146 149
f 93 149 151
f 93 151 155
f 93 155 156
f 93 156 94
f 94 156 157
f 140 150 141
f 141 147 144
f 144 148 145
f 145 149 146
f 163 140 136
f 140 152 150
f 141 150 147
f 144 147 148
f 145 148 149
f 163 152 140
f 163 153 152
f 163 154 153
f 163 158 154
f 163 159 158
f 163 160 159
f 163 161 160
f 94 161 163
f 94 157 162
f 94 162 161
f 94 163 178
f 163 179 178
f 163 189 179
f 163 191 189
f 189 191 190
f 165 164 178 179
f 166 165 179 189
f 169 170 171 172 167 166 189 190 182 181 183 180
f 172 177 187 182 190 191 168 167
f 59 25 22 56
f 22 23 57 56
f 24 58 57 23
f 25 59 60 26
f 58 24 28 62
f 27 26 60 61
f 28 29 63 62
f 29 30 64 63
f 61 67 31 27
f 67 68 32 31
f 68 71 35 32
f 70 34 37 73
f 69 64 30 33
f 70 69 33 34
f 35 71 72 36
f 37 36 72 73
f 39 75 74 38
f 75 39 40 76
f 38 74 77 41
f 79 43 41 77
f 40 42 78 76
f 42 46 82 78
f 43 79 80 44
f 44 80 81 45
f 47 83 82 46
f 48 84 83 47
f 45 81 85 49
f 50 49 85 86
f 51 50 86 87
f 87 88 52 51
f 53 52 88 89
f 89 84 48 53
f 57 65 55
f 57 55 56
f 56 55 59
f 59 55 60
f 60 55 61
f 61 55 67
f 67 55 66
f 57 58 65
f 58 62 65
f 62 63 65
f 63 64 65
f 67 66 74
f 67 74 68
f 68 74 71
f 71 75 72
f 73 72 76
f 70 73 78
f 64 69 83
f 69 70 82
f 74 66 77
f 77 66 79
f 79 66 80
f 80 66 81
f 71 74 75
f 72 75 76
f 73 76 78
f 70 78 82
f 69 82 83
f 65 64 83
f 65 83 91
f 81 66 85
f 85 66 90
f 85 90 86
f 86 90 87
f 88 87 90
f 89 88 91
f 88 90 91
f 83 84 91
f 84 89 91
f 55 65 105 95
f 65 91 130 105
f 96 95 105
f 96 99 95
f 99 100 95
f 100 101 95
f 97 96 105
f 97 105 98
f 98 105 102
f 102 105 103
f 103 105 104
f 101 129 95
f 110 111 113
f 109 115 112
f 112 114 111
f 104 121 108
f 108 117 109
f 101 106 129
f 106 107 129
f 107 110 129
f 110 113 116
f 110 116 118
f 111 114 113
f 112 115 114
f 109 117 115
f 108 121 117
f 104 122 121
f 105 122 104
f 105 130 122
f 110 118 129
f 118 119 129
f 119 120 129
f 120 124 129
f 124 125 129
f 125 126 129
f 128 130 127
f 127 130 126
f 126 130 129
f 122 130 123
f 123 130 128
f 134 99 96 131
f 97 132 131 96
f 98 133 132 97
f 134 135 100 99
f 137 133 98 102
f 101 100 135 136
f 102 103 138 137
f 104 139 138 103
f 140 106 101 136
f 107 106 140 141
f 110 107 141 144
f 112 146 143 109
f 108 142 139 104
f 143 142 108 109
f 144 145 111 110
f 111 145 146 112
f 147 113 114 148
f 115 149 148 114
f 116 113 147 150
f 118 116 150 152
f 149 115 117 151
f 121 155 151 117
f 153 119 118 152
f 153 154 120 119
f 122 156 155 121
f 156 122 123 157
f 154 158 124 120
f 124 158 159 125
f 160 126 125 159
f 160 161 127 126
f 128 127 161 162
f 157 123 128 162
f 173 174 170 169
f 175 171 170 174 176
f 171 175 176 177 172
f 180 184 173 169
f 177 176 174 173 184 188 186 187
f 182 187 186 185 181
f 183 181 185 186 188
f 183 188 184 180
o outer_ribs_0_0_cutter_0
v -1318.564 35.582 35.000
v -1318.564 35.582 65.000
v -833.564 35.582 65.000
v -833.564 35.582 35.000
v -1318.564 -239.418 35.000
v -833.564 -239.418 35.000
v -833.564 -239.418 65.000
v -1318.564 -239.418 65.000
f 192 193 194 195
f 192 195 197 196
f 195 194 198 197
f 194 193 199 198
f 193 192 196 199
f 196 197 198 199
o outer_ribs_0_0_cutter_1
v -984.814 -164.418 125.000
v -984.814 -164.418 -25.000
v -975.247 -162.515 125.000
v -975.247 -162.515 -25.000
v -967.137 -157.095 125.000
v -967.137 -157.095 -25.000
v -961.717 -148.985 125.000
v -961.717 -148.985 -25.000
v -959.814 -139.418 125.000
v -959.814 -139.418 -25.000
v -961.717 -129.851 125.000
v -961.717 -129.851 -25.000
v -967.137 -121.740 125.000
v -967.137 -121.740 -25.000
v -975.247 -116.321 125.000
v -975.247 -116.321 -25.000
v -984.814 -114.418 125.000
v -984.814 -114.418 -25.000
v -994.381 -116.321 125.000
v -994.381 -116.321 -25.000
v -1002.492 -121.740 125.000
v -1002.492 -121.740 -25.000
v -1007.911 -129.851 125.000
v -1007.911 -129.851 -25.000
v -1009.814 -139.418 125.000
v -1009.814 -139.418 -25.000
v -1007.911 -148.985 125.000
v -1007.911 -148.985 -25.000
v -1002.492 -157.095 125.000
v -1002.492 -157.095 -25.000
v -994.381 -162.515 125.000
v -994.381 -162.515 -25.000
v -984.814 -139.418 125.000
v -984.814 -139.418 -25.000
f 200 201 203 202
f 202 203 205 204
f 204 205 207 206
f 206 207 209 208
f 208 209 211 210
f 210 211 213 212
f 212 213 215 214
f 214 215 217 216
f 216 217 219 218
f 218 219 221 220
f 220 221 223 222
f 222 223 225 224
f 224 225 227 226
f 226 227 229 228
f 228 229 231 230
f 230 231 201 200
f 200 202 232
f 233 203 201
f 202 204 232
f 233 205 203
f 204 206 232
f 233 207 205
f 206 208 232
f 233 209 207
f 208 210 232
f 233 211 209
f 210 212 232
f 233 213 211
f 212 214 232
f 233 215 213
f 214 216 232
f 233 217 215
f 216 218 232
f 233 219 217
f 218 220 232
f 233 221 219
f 220 222 232
f 233 223 221
f 222 224 232
f 233 225 223
f 224 226 232
f 233 227 225
f 226 228 232
f 233 229 227
f 228 230 232
f 233 231 229
f 230 200 232
f 233 201 231
o outer_ribs_0_0_cutter_2
v -984.814 -64.418 125.000
v -984.814 -64.418 -25.000
v -975.247 -62.515 125.000
v -975.247 -62.515 -25.000
v -967.137 -57.095 125.000
v -967.137 -57.095 -25.000
v -961.717 -48.985 125.000
v -961.717 -48.985 -25.000
v -959.814 -39.418 125.000
v -959.814 -39.418 -25.000
v -961.717 -29.851 125.000
v -961.717 -29.851 -25.000
v -967.137 -21.740 125.000
v -967.137 -21.740 -25.000
v -975.247 -16.321 125.000
v -975.247 -16.321 -25.000
v -984.814 -14.418 125.000
v -984.814 -14.418 -25.000
v -994.381 -16.321 125.000
v -994.381 -16.321 -25.000
v -1002.492 -21.740 125.000
v -1002.492 -21.740 -25.000
v -1007.911 -29.851 125.000
v -1007.911 -29.851 -25.000
v -1009.814 -39.418 125.000
v -1009.814 -39.418 -25.000
v -1007.911 -48.985 125.000
v -1007.911 -48.985 -25.000
v -1002.492 -57.095 125.000
v -1002.492 -57.095 -25.000
v -994.381 -62.515 125.000
v -994.381 -62.515 -25.000
v -984.814 -39.418 125.000
v -984.814 -39.418 -25.000
f 234 235 237 236
f 236 237 239 238
f 238 239 241 240
f 240 241 243 242
f 242 243 245 244
f 244 245 247 246
f 246 247 249 248
f 248 249 251 250
f 250 251 253 252
f 252 253 255 254
f 254 255 257 256
f 256 257 259 258
f 258 259 261 260
f 260 261 263 262
f 262 263 265 264
f 264 265 235 234
f 234 236 266
f 267 237 235
f 236 238 266
f 267 239 237
f 238 240 266
f 267 241 239
f 240 242 266
f 267 243 241
f 242 244 266
f 267 245 243
f 244 246 266
f 267 247 245
f 246 248 266
f 267 249 247
f 248 250 266
f 267 251 249
f 250 252 266
f 267 253 251
f 252 254 266
f 267 255 253
f 254 256 266
f 267 257 255
f 256 258 266
f 267 259 257
f 258 260 266
f 267 261 259
f 260 262 266
f 267 263 261
f 262 264 266
f 267 265 263
f 264 234 266
f 267 235 265
o outer_ribs_0_0_cutter_3
v 1481.436 -75.918 70.000
v 1481.436 4.082 70.000
v 1281.436 4.082 70.000
v 1481.436 -75.918 30.000
v 1481.436 -62.584 60.000
v 1481.436 0.446 60.000
v 1481.436 -75.918 60.000
v 1481.436 -9.251 40.000
v 1481.436 -72.281 40.000
v 1691.436 -75.918 60.000
v 1691.436 4.082 40.000
v 1281.436 -75.918 70.000
v 1281.436 -75.918 30.000
v 1481.436 -75.918 40.000
v 1691.436 -75.918 40.000
v 1481.436 4.082 30.000
v 1281.436 4.082 30.000
v 1481.436 4.082 60.000
v 1691.436 4.082 60.000
v 1481.436 4.082 40.000
f 279 268 269 270
f 271 280 284 283
f 270 284 280 279
f 269 272 273
f 269 268 272
f 273 285 269
f 275 283 287
f 272 268 274
f 271 275 276
f 276 281 271
f 283 275 271
f 286 277 282 278
f 272 274 277
f 273 272 277
f 273 277 286
f 286 285 273
f 278 282 276
f 281 276 282
f 287 278 275
f 276 275 278
f 281 280 271
f 274 279 281
f 280 281 279
f 277 274 282
f 281 282 274
f 279 274 268
f 287 283 284
f 287 284 285
f 270 285 284
f 286 278 285
f 287 285 278
f 270 269 285
