ISO-10303-21;
HEADER;
FILE_DESCRIPTION(('ViewDefinition [CoordinationView]'),'2;1');
FILE_NAME('','2026-08-20T14:41:59',(''),(''),'IfcOpenShell 0.8.4-e8eb5e4','IfcOpenShell 0.8.4-e8eb5e4','');
FILE_SCHEMA(('IFC4'));
ENDSEC;
DATA;
#1=IFCPROJECT('3SL2_VPKb6i8KqzWpy4Usg',$,'Default Project',$,$,$,$,(#11),#6);
#2=IFCSIUNIT(*,.LENGTHUNIT.,.MILLI.,.METRE.);
#3=IFCSIUNIT(*,.AREAUNIT.,.MILLI.,.SQUARE_METRE.);
#4=IFCSIUNIT(*,.VOLUMEUNIT.,.MILLI.,.CUBIC_METRE.);
#5=IFCSIUNIT(*,.PLANEANGLEUNIT.,$,.RADIAN.);
#6=IFCUNITASSIGNMENT((#2,#3,#4,#5));
#7=IFCCARTESIANPOINT((0.,0.,0.));
#8=IFCDIRECTION((0.,0.,1.));
#9=IFCDIRECTION((1.,0.,0.));
#10=IFCAXIS2PLACEMENT3D(#7,#8,#9);
#11=IFCGEOMETRICREPRESENTATIONCONTEXT($,'Model',3,1.E-05,#10,$);
#12=IFCGEOMETRICREPRESENTATIONSUBCONTEXT('Body','Model',*,*,*,*,#11,$,.MODEL_VIEW.,$);
#13=IFCPERSON($,'Unknown Author',$,$,$,$,$,$);
#14=IFCORGANIZATION($,'compas.dev',$,$,$);
#15=IFCPERSONANDORGANIZATION(#13,#14,$);
#16=IFCAPPLICATION(#14,'2.1.0','compas_ifc','compas_ifc v2.1.0');
#17=IFCOWNERHISTORY(#15,#16,$,$,$,$,$,1787229719);
#18=IFCSITE('1X$LUxzw54AB4ZTP8LQAwf',$,'Default Site',$,$,$,$,$,$,$,$,$,$,$);
#19=IFCRELAGGREGATES('3KQoG7_Rb2pggpe$flhflD',$,$,$,#1,(#18));
#20=IFCBUILDING('1QlQC5OZDFbxLR9vmf1IiS',$,'Default Building 1',$,$,$,$,$,$,$,$,$);
#21=IFCRELAGGREGATES('2OUnt2SRL5Kg0xpQH2k3A1',$,$,$,#18,(#20));
#22=IFCBUILDINGSTOREY('1XqJKT_lv5sedruuYP5LKN',$,'Default Storey 1',$,$,$,$,$,$,$);
#23=IFCRELAGGREGATES('16j5bZDRL9rv1c45QrS8Gi',$,$,$,#20,(#22));
#24=IFCBUILDINGELEMENTPROXY('1_inpGrcv1aPdFwQdpzlEL',$,'outer_ribs_0_0_uncut',$,$,$,#52,$,$);
#25=IFCRELCONTAINEDINSPATIALSTRUCTURE('0IKqqHYXH4LOiLVMGU5SZO',$,$,$,(#24),#22);
#26=IFCINDEXEDPOLYGONALFACE((1,2,11,10));
#27=IFCINDEXEDPOLYGONALFACE((2,3,12,11));
#28=IFCINDEXEDPOLYGONALFACE((3,4,13,12));
#29=IFCINDEXEDPOLYGONALFACE((4,5,14,13));
#30=IFCINDEXEDPOLYGONALFACE((5,6,15,14));
#31=IFCINDEXEDPOLYGONALFACE((6,7,16,15));
#32=IFCINDEXEDPOLYGONALFACE((7,8,17,16));
#33=IFCINDEXEDPOLYGONALFACE((8,9,18,17));
#34=IFCINDEXEDPOLYGONALFACE((9,1,10,18));
#35=IFCINDEXEDPOLYGONALFACE((1,9,8));
#36=IFCINDEXEDPOLYGONALFACE((4,3,2));
#37=IFCINDEXEDPOLYGONALFACE((2,1,8));
#38=IFCINDEXEDPOLYGONALFACE((5,4,2));
#39=IFCINDEXEDPOLYGONALFACE((2,8,7));
#40=IFCINDEXEDPOLYGONALFACE((6,5,2));
#41=IFCINDEXEDPOLYGONALFACE((2,7,6));
#42=IFCINDEXEDPOLYGONALFACE((18,10,11));
#43=IFCINDEXEDPOLYGONALFACE((11,12,13));
#44=IFCINDEXEDPOLYGONALFACE((17,18,11));
#45=IFCINDEXEDPOLYGONALFACE((11,13,14));
#46=IFCINDEXEDPOLYGONALFACE((16,17,11));
#47=IFCINDEXEDPOLYGONALFACE((11,14,15));
#48=IFCINDEXEDPOLYGONALFACE((15,16,11));
#49=IFCCARTESIANPOINTLIST3D(((1681.43572648005,-214.417690417096,100.000000000001),(-1098.56427351995,-214.417690417096,100.000000000001),(-995.560458436431,480.375747210125,100.000000000001),(-435.230940186613,297.165642916238,100.000000000001),(-11.8976068532799,183.915642916238,100.000000000001),(411.435726480054,95.8323095829042,100.000000000001),(834.769059813387,32.9156429162376,100.000000000001),(1258.10239314672,-4.83435708376241,100.000000000001),(1681.43572648005,-17.4176904170959,100.000000000001),(1681.43572648005,-214.417690417096,9.6915856889866E-13),(-1098.56427351995,-214.417690417096,6.28706758735695E-13),(-995.560458436431,480.375747210125,8.38140050315273E-13),(-435.230940186613,297.165642916238,4.00114075912093E-13),(-11.8976068532799,183.915642916238,4.19876343068066E-13),(411.435726480054,95.8323095829042,9.0151509755671E-13),(834.769059813387,32.9156429162377,9.35535637605097E-13),(1258.10239314672,-4.83435708376238,9.76685314099691E-13),(1681.43572648005,-17.4176904170959,1.02496412704049E-12)));
#50=IFCPOLYGONALFACESET(#49,.T.,(#26,#27,#28,#29,#30,#31,#32,#33,#34,#35,#36,#37,#38,#39,#40,#41,#42,#43,#44,#45,#46,#47,#48),$);
#51=IFCSHAPEREPRESENTATION(#12,'Body','Tessellation',(#50));
#52=IFCPRODUCTDEFINITIONSHAPE($,$,(#51));
#53=IFCBUILDINGELEMENTPROXY('2vfreqPV99xhm$42ftRrNE',$,'outer_ribs_0_0_cut',$,$,$,#304,$,$);
#54=IFCRELCONTAINEDINSPATIALSTRUCTURE('2fGJmP7GL1SQ$mBvvk8LuE',$,$,$,(#53),#22);
#55=IFCINDEXEDPOLYGONALFACE((1,2,5));
#56=IFCINDEXEDPOLYGONALFACE((1,5,4));
#57=IFCINDEXEDPOLYGONALFACE((1,4,7));
#58=IFCINDEXEDPOLYGONALFACE((1,7,8));
#59=IFCINDEXEDPOLYGONALFACE((1,8,9));
#60=IFCINDEXEDPOLYGONALFACE((1,9,36));
#61=IFCINDEXEDPOLYGONALFACE((2,6,5));
#62=IFCINDEXEDPOLYGONALFACE((2,10,6));
#63=IFCINDEXEDPOLYGONALFACE((2,11,10));
#64=IFCINDEXEDPOLYGONALFACE((2,12,11));
#65=IFCINDEXEDPOLYGONALFACE((2,15,12));
#66=IFCINDEXEDPOLYGONALFACE((2,21,15));
#67=IFCINDEXEDPOLYGONALFACE((2,22,21));
#68=IFCINDEXEDPOLYGONALFACE((2,24,22));
#69=IFCINDEXEDPOLYGONALFACE((2,28,24));
#70=IFCINDEXEDPOLYGONALFACE((2,29,28));
#71=IFCINDEXEDPOLYGONALFACE((2,3,29));
#72=IFCINDEXEDPOLYGONALFACE((3,30,29));
#73=IFCINDEXEDPOLYGONALFACE((14,25,13));
#74=IFCINDEXEDPOLYGONALFACE((17,23,14));
#75=IFCINDEXEDPOLYGONALFACE((18,20,17));
#76=IFCINDEXEDPOLYGONALFACE((15,21,16));
#77=IFCINDEXEDPOLYGONALFACE((16,21,19));
#78=IFCINDEXEDPOLYGONALFACE((19,21,18));
#79=IFCINDEXEDPOLYGONALFACE((36,9,13));
#80=IFCINDEXEDPOLYGONALFACE((17,20,23));
#81=IFCINDEXEDPOLYGONALFACE((14,23,25));
#82=IFCINDEXEDPOLYGONALFACE((18,21,20));
#83=IFCINDEXEDPOLYGONALFACE((36,13,25));
#84=IFCINDEXEDPOLYGONALFACE((36,25,26));
#85=IFCINDEXEDPOLYGONALFACE((36,26,27));
#86=IFCINDEXEDPOLYGONALFACE((36,27,31));
#87=IFCINDEXEDPOLYGONALFACE((36,31,32));
#88=IFCINDEXEDPOLYGONALFACE((36,32,33));
#89=IFCINDEXEDPOLYGONALFACE((36,33,34));
#90=IFCINDEXEDPOLYGONALFACE((3,36,34));
#91=IFCINDEXEDPOLYGONALFACE((3,35,30));
#92=IFCINDEXEDPOLYGONALFACE((3,34,35));
#93=IFCINDEXEDPOLYGONALFACE((3,146,36));
#94=IFCINDEXEDPOLYGONALFACE((36,146,147));
#95=IFCINDEXEDPOLYGONALFACE((36,147,148));
#96=IFCINDEXEDPOLYGONALFACE((36,148,149));
#97=IFCINDEXEDPOLYGONALFACE((36,149,150));
#98=IFCINDEXEDPOLYGONALFACE((77,111,145,74,1,36,72,48,37));
#99=IFCINDEXEDPOLYGONALFACE((75,2,1,74));
#100=IFCINDEXEDPOLYGONALFACE((75,76,3,2));
#101=IFCINDEXEDPOLYGONALFACE((160,146,3,76));
#102=IFCINDEXEDPOLYGONALFACE((36,150,173,145,111,112,73,72));
#103=IFCINDEXEDPOLYGONALFACE((74,119,75));
#104=IFCINDEXEDPOLYGONALFACE((74,113,114));
#105=IFCINDEXEDPOLYGONALFACE((74,116,113));
#106=IFCINDEXEDPOLYGONALFACE((74,114,115));
#107=IFCINDEXEDPOLYGONALFACE((74,115,119));
#108=IFCINDEXEDPOLYGONALFACE((74,117,116));
#109=IFCINDEXEDPOLYGONALFACE((74,118,117));
#110=IFCINDEXEDPOLYGONALFACE((74,145,118));
#111=IFCINDEXEDPOLYGONALFACE((75,119,120));
#112=IFCINDEXEDPOLYGONALFACE((75,120,121));
#113=IFCINDEXEDPOLYGONALFACE((75,121,124));
#114=IFCINDEXEDPOLYGONALFACE((75,124,125));
#115=IFCINDEXEDPOLYGONALFACE((75,125,128));
#116=IFCINDEXEDPOLYGONALFACE((75,128,131));
#117=IFCINDEXEDPOLYGONALFACE((75,131,133));
#118=IFCINDEXEDPOLYGONALFACE((75,133,137));
#119=IFCINDEXEDPOLYGONALFACE((75,137,138));
#120=IFCINDEXEDPOLYGONALFACE((75,138,76));
#121=IFCINDEXEDPOLYGONALFACE((76,138,139));
#122=IFCINDEXEDPOLYGONALFACE((122,132,123));
#123=IFCINDEXEDPOLYGONALFACE((123,129,126));
#124=IFCINDEXEDPOLYGONALFACE((126,130,127));
#125=IFCINDEXEDPOLYGONALFACE((127,131,128));
#126=IFCINDEXEDPOLYGONALFACE((145,122,118));
#127=IFCINDEXEDPOLYGONALFACE((122,134,132));
#128=IFCINDEXEDPOLYGONALFACE((123,132,129));
#129=IFCINDEXEDPOLYGONALFACE((126,129,130));
#130=IFCINDEXEDPOLYGONALFACE((127,130,131));
#131=IFCINDEXEDPOLYGONALFACE((145,134,122));
#132=IFCINDEXEDPOLYGONALFACE((145,135,134));
#133=IFCINDEXEDPOLYGONALFACE((145,136,135));
#134=IFCINDEXEDPOLYGONALFACE((145,140,136));
#135=IFCINDEXEDPOLYGONALFACE((145,141,140));
#136=IFCINDEXEDPOLYGONALFACE((145,142,141));
#137=IFCINDEXEDPOLYGONALFACE((145,143,142));
#138=IFCINDEXEDPOLYGONALFACE((76,143,145));
#139=IFCINDEXEDPOLYGONALFACE((76,139,144));
#140=IFCINDEXEDPOLYGONALFACE((76,144,143));
#141=IFCINDEXEDPOLYGONALFACE((76,145,160));
#142=IFCINDEXEDPOLYGONALFACE((145,161,160));
#143=IFCINDEXEDPOLYGONALFACE((145,171,161));
#144=IFCINDEXEDPOLYGONALFACE((145,173,171));
#145=IFCINDEXEDPOLYGONALFACE((171,173,172));
#146=IFCINDEXEDPOLYGONALFACE((147,146,160,161));
#147=IFCINDEXEDPOLYGONALFACE((148,147,161,171));
#148=IFCINDEXEDPOLYGONALFACE((151,152,153,154,149,148,171,172,164,163,165,162));
#149=IFCINDEXEDPOLYGONALFACE((154,159,169,164,172,173,150,149));
#150=IFCINDEXEDPOLYGONALFACE((41,7,4,38));
#151=IFCINDEXEDPOLYGONALFACE((4,5,39,38));
#152=IFCINDEXEDPOLYGONALFACE((6,40,39,5));
#153=IFCINDEXEDPOLYGONALFACE((7,41,42,8));
#154=IFCINDEXEDPOLYGONALFACE((40,6,10,44));
#155=IFCINDEXEDPOLYGONALFACE((9,8,42,43));
#156=IFCINDEXEDPOLYGONALFACE((10,11,45,44));
#157=IFCINDEXEDPOLYGONALFACE((11,12,46,45));
#158=IFCINDEXEDPOLYGONALFACE((43,49,13,9));
#159=IFCINDEXEDPOLYGONALFACE((49,50,14,13));
#160=IFCINDEXEDPOLYGONALFACE((50,53,17,14));
#161=IFCINDEXEDPOLYGONALFACE((52,16,19,55));
#162=IFCINDEXEDPOLYGONALFACE((51,46,12,15));
#163=IFCINDEXEDPOLYGONALFACE((52,51,15,16));
#164=IFCINDEXEDPOLYGONALFACE((17,53,54,18));
#165=IFCINDEXEDPOLYGONALFACE((19,18,54,55));
#166=IFCINDEXEDPOLYGONALFACE((21,57,56,20));
#167=IFCINDEXEDPOLYGONALFACE((57,21,22,58));
#168=IFCINDEXEDPOLYGONALFACE((20,56,59,23));
#169=IFCINDEXEDPOLYGONALFACE((61,25,23,59));
#170=IFCINDEXEDPOLYGONALFACE((22,24,60,58));
#171=IFCINDEXEDPOLYGONALFACE((24,28,64,60));
#172=IFCINDEXEDPOLYGONALFACE((25,61,62,26));
#173=IFCINDEXEDPOLYGONALFACE((26,62,63,27));
#174=IFCINDEXEDPOLYGONALFACE((29,65,64,28));
#175=IFCINDEXEDPOLYGONALFACE((30,66,65,29));
#176=IFCINDEXEDPOLYGONALFACE((27,63,67,31));
#177=IFCINDEXEDPOLYGONALFACE((32,31,67,68));
#178=IFCINDEXEDPOLYGONALFACE((33,32,68,69));
#179=IFCINDEXEDPOLYGONALFACE((69,70,34,33));
#180=IFCINDEXEDPOLYGONALFACE((35,34,70,71));
#181=IFCINDEXEDPOLYGONALFACE((71,66,30,35));
#182=IFCINDEXEDPOLYGONALFACE((39,47,37));
#183=IFCINDEXEDPOLYGONALFACE((39,37,38));
#184=IFCINDEXEDPOLYGONALFACE((38,37,41));
#185=IFCINDEXEDPOLYGONALFACE((41,37,42));
#186=IFCINDEXEDPOLYGONALFACE((42,37,43));
#187=IFCINDEXEDPOLYGONALFACE((43,37,49));
#188=IFCINDEXEDPOLYGONALFACE((49,37,48));
#189=IFCINDEXEDPOLYGONALFACE((39,40,47));
#190=IFCINDEXEDPOLYGONALFACE((40,44,47));
#191=IFCINDEXEDPOLYGONALFACE((44,45,47));
#192=IFCINDEXEDPOLYGONALFACE((45,46,47));
#193=IFCINDEXEDPOLYGONALFACE((49,48,56));
#194=IFCINDEXEDPOLYGONALFACE((49,56,50));
#195=IFCINDEXEDPOLYGONALFACE((50,56,53));
#196=IFCINDEXEDPOLYGONALFACE((53,57,54));
#197=IFCINDEXEDPOLYGONALFACE((55,54,58));
#198=IFCINDEXEDPOLYGONALFACE((52,55,60));
#199=IFCINDEXEDPOLYGONALFACE((46,51,65));
#200=IFCINDEXEDPOLYGONALFACE((51,52,64));
#201=IFCINDEXEDPOLYGONALFACE((56,48,59));
#202=IFCINDEXEDPOLYGONALFACE((59,48,61));
#203=IFCINDEXEDPOLYGONALFACE((61,48,62));
#204=IFCINDEXEDPOLYGONALFACE((62,48,63));
#205=IFCINDEXEDPOLYGONALFACE((53,56,57));
#206=IFCINDEXEDPOLYGONALFACE((54,57,58));
#207=IFCINDEXEDPOLYGONALFACE((55,58,60));
#208=IFCINDEXEDPOLYGONALFACE((52,60,64));
#209=IFCINDEXEDPOLYGONALFACE((51,64,65));
#210=IFCINDEXEDPOLYGONALFACE((47,46,65));
#211=IFCINDEXEDPOLYGONALFACE((47,65,73));
#212=IFCINDEXEDPOLYGONALFACE((63,48,67));
#213=IFCINDEXEDPOLYGONALFACE((67,48,72));
#214=IFCINDEXEDPOLYGONALFACE((67,72,68));
#215=IFCINDEXEDPOLYGONALFACE((68,72,69));
#216=IFCINDEXEDPOLYGONALFACE((70,69,72));
#217=IFCINDEXEDPOLYGONALFACE((71,70,73));
#218=IFCINDEXEDPOLYGONALFACE((70,72,73));
#219=IFCINDEXEDPOLYGONALFACE((65,66,73));
#220=IFCINDEXEDPOLYGONALFACE((66,71,73));
#221=IFCINDEXEDPOLYGONALFACE((37,47,87,77));
#222=IFCINDEXEDPOLYGONALFACE((47,73,112,87));
#223=IFCINDEXEDPOLYGONALFACE((78,77,87));
#224=IFCINDEXEDPOLYGONALFACE((78,81,77));
#225=IFCINDEXEDPOLYGONALFACE((81,82,77));
#226=IFCINDEXEDPOLYGONALFACE((82,83,77));
#227=IFCINDEXEDPOLYGONALFACE((79,78,87));
#228=IFCINDEXEDPOLYGONALFACE((79,87,80));
#229=IFCINDEXEDPOLYGONALFACE((80,87,84));
#230=IFCINDEXEDPOLYGONALFACE((84,87,85));
#231=IFCINDEXEDPOLYGONALFACE((85,87,86));
#232=IFCINDEXEDPOLYGONALFACE((83,111,77));
#233=IFCINDEXEDPOLYGONALFACE((92,93,95));
#234=IFCINDEXEDPOLYGONALFACE((91,97,94));
#235=IFCINDEXEDPOLYGONALFACE((94,96,93));
#236=IFCINDEXEDPOLYGONALFACE((86,103,90));
#237=IFCINDEXEDPOLYGONALFACE((90,99,91));
#238=IFCINDEXEDPOLYGONALFACE((83,88,111));
#239=IFCINDEXEDPOLYGONALFACE((88,89,111));
#240=IFCINDEXEDPOLYGONALFACE((89,92,111));
#241=IFCINDEXEDPOLYGONALFACE((92,95,98));
#242=IFCINDEXEDPOLYGONALFACE((92,98,100));
#243=IFCINDEXEDPOLYGONALFACE((93,96,95));
#244=IFCINDEXEDPOLYGONALFACE((94,97,96));
#245=IFCINDEXEDPOLYGONALFACE((91,99,97));
#246=IFCINDEXEDPOLYGONALFACE((90,103,99));
#247=IFCINDEXEDPOLYGONALFACE((86,104,103));
#248=IFCINDEXEDPOLYGONALFACE((87,104,86));
#249=IFCINDEXEDPOLYGONALFACE((87,112,104));
#250=IFCINDEXEDPOLYGONALFACE((92,100,111));
#251=IFCINDEXEDPOLYGONALFACE((100,101,111));
#252=IFCINDEXEDPOLYGONALFACE((101,102,111));
#253=IFCINDEXEDPOLYGONALFACE((102,106,111));
#254=IFCINDEXEDPOLYGONALFACE((106,107,111));
#255=IFCINDEXEDPOLYGONALFACE((107,108,111));
#256=IFCINDEXEDPOLYGONALFACE((110,112,109));
#257=IFCINDEXEDPOLYGONALFACE((109,112,108));
#258=IFCINDEXEDPOLYGONALFACE((108,112,111));
#259=IFCINDEXEDPOLYGONALFACE((104,112,105));
#260=IFCINDEXEDPOLYGONALFACE((105,112,110));
#261=IFCINDEXEDPOLYGONALFACE((116,81,78,113));
#262=IFCINDEXEDPOLYGONALFACE((79,114,113,78));
#263=IFCINDEXEDPOLYGONALFACE((80,115,114,79));
#264=IFCINDEXEDPOLYGONALFACE((116,117,82,81));
#265=IFCINDEXEDPOLYGONALFACE((119,115,80,84));
#266=IFCINDEXEDPOLYGONALFACE((83,82,117,118));
#267=IFCINDEXEDPOLYGONALFACE((84,85,120,119));
#268=IFCINDEXEDPOLYGONALFACE((86,121,120,85));
#269=IFCINDEXEDPOLYGONALFACE((122,88,83,118));
#270=IFCINDEXEDPOLYGONALFACE((89,88,122,123));
#271=IFCINDEXEDPOLYGONALFACE((92,89,123,126));
#272=IFCINDEXEDPOLYGONALFACE((94,128,125,91));
#273=IFCINDEXEDPOLYGONALFACE((90,124,121,86));
#274=IFCINDEXEDPOLYGONALFACE((125,124,90,91));
#275=IFCINDEXEDPOLYGONALFACE((126,127,93,92));
#276=IFCINDEXEDPOLYGONALFACE((93,127,128,94));
#277=IFCINDEXEDPOLYGONALFACE((129,95,96,130));
#278=IFCINDEXEDPOLYGONALFACE((97,131,130,96));
#279=IFCINDEXEDPOLYGONALFACE((98,95,129,132));
#280=IFCINDEXEDPOLYGONALFACE((100,98,132,134));
#281=IFCINDEXEDPOLYGONALFACE((131,97,99,133));
#282=IFCINDEXEDPOLYGONALFACE((103,137,133,99));
#283=IFCINDEXEDPOLYGONALFACE((135,101,100,134));
#284=IFCINDEXEDPOLYGONALFACE((135,136,102,101));
#285=IFCINDEXEDPOLYGONALFACE((104,138,137,103));
#286=IFCINDEXEDPOLYGONALFACE((138,104,105,139));
#287=IFCINDEXEDPOLYGONALFACE((136,140,106,102));
#288=IFCINDEXEDPOLYGONALFACE((106,140,141,107));
#289=IFCINDEXEDPOLYGONALFACE((142,108,107,141));
#290=IFCINDEXEDPOLYGONALFACE((142,143,109,108));
#291=IFCINDEXEDPOLYGONALFACE((110,109,143,144));
#292=IFCINDEXEDPOLYGONALFACE((139,105,110,144));
#293=IFCINDEXEDPOLYGONALFACE((155,156,152,151));
#294=IFCINDEXEDPOLYGONALFACE((157,153,152,156,158));
#295=IFCINDEXEDPOLYGONALFACE((153,157,158,159,154));
#296=IFCINDEXEDPOLYGONALFACE((162,166,155,151));
#297=IFCINDEXEDPOLYGONALFACE((159,158,156,155,166,170,168,169));
#298=IFCINDEXEDPOLYGONALFACE((164,169,168,167,163));
#299=IFCINDEXEDPOLYGONALFACE((165,163,167,168,170));
#300=IFCINDEXEDPOLYGONALFACE((165,170,166,162));
#301=IFCCARTESIANPOINTLIST3D(((-995.560458436431,480.375747210125,9.09494701772928E-13),(-435.230940186613,297.165642916238,0.),(-11.8976068532797,183.915642916238,4.54747350886464E-13),(-994.381359329074,-16.3207021043136,4.54747350886464E-13),(-984.814273519946,-14.4176904170959,4.54747350886464E-13),(-975.247187710819,-16.3207021043136,4.54747350886464E-13),(-1002.49194304961,-21.7400208874324,4.54747350886464E-13),(-1007.91126183273,-29.8506046079688,4.54747350886464E-13),(-1009.81427351995,-39.4176904170959,4.54747350886464E-13),(-967.136603990283,-21.7400208874324,4.54747350886464E-13),(-961.717285207164,-29.8506046079688,4.54747350886464E-13),(-959.814273519946,-39.4176904170959,4.54747350886464E-13),(-1007.91126183273,-48.9847762262229,4.54747350886464E-13),(-1002.49194304961,-57.0953599467593,4.54747350886464E-13),(-961.717285207164,-48.9847762262229,4.54747350886464E-13),(-967.136603990283,-57.0953599467593,4.54747350886464E-13),(-994.381359329074,-62.5146787298781,4.54747350886464E-13),(-984.814273519946,-64.4176904170959,4.54747350886464E-13),(-975.247187710819,-62.5146787298781,4.54747350886464E-13),(-994.381359329074,-116.320702104314,4.54747350886464E-13),(-984.814273519946,-114.417690417096,4.54747350886464E-13),(-975.247187710819,-116.320702104314,4.54747350886464E-13),(-1002.49194304961,-121.740020887432,4.54747350886464E-13),(-967.136603990283,-121.740020887432,4.54747350886464E-13),(-1007.91126183273,-129.850604607969,4.54747350886464E-13),(-1009.81427351995,-139.417690417096,4.54747350886464E-13),(-1007.91126183273,-148.984776226223,4.54747350886464E-13),(-961.717285207164,-129.850604607969,4.54747350886464E-13),(-959.814273519946,-139.417690417096,4.54747350886464E-13),(-961.717285207164,-148.984776226223,4.54747350886464E-13),(-1002.49194304961,-157.095359946759,4.54747350886464E-13),(-994.381359329074,-162.514678729878,4.54747350886464E-13),(-984.814273519946,-164.417690417096,4.54747350886464E-13),(-975.247187710819,-162.514678729878,4.54747350886464E-13),(-967.136603990283,-157.095359946759,4.54747350886464E-13),(-1098.56427351995,-214.417690417095,4.54747350886464E-13),(-1061.50152598045,35.5823095829041,35.0000000000005),(-994.381359329074,-16.3207021043136,35.0000000000005),(-984.814273519946,-14.4176904170959,35.0000000000005),(-975.247187710819,-16.3207021043136,35.0000000000005),(-1002.49194304961,-21.7400208874324,35.0000000000005),(-1007.91126183273,-29.8506046079688,35.0000000000005),(-1009.81427351995,-39.4176904170959,35.0000000000005),(-967.136603990283,-21.7400208874324,35.0000000000005),(-961.717285207164,-29.8506046079688,35.0000000000005),(-959.814273519946,-39.4176904170959,35.0000000000005),(-833.564273519946,35.5823095829041,35.0000000000005),(-1078.19881350825,-77.0461963718012,35.0000000000005),(-1007.91126183273,-48.9847762262229,35.0000000000005),(-1002.49194304961,-57.0953599467593,35.0000000000005),(-961.717285207164,-48.9847762262229,35.0000000000005),(-967.136603990283,-57.0953599467593,35.0000000000005),(-994.381359329074,-62.5146787298781,35.0000000000005),(-984.814273519946,-64.4176904170959,35.0000000000005),(-975.247187710819,-62.5146787298781,35.0000000000005),(-994.381359329074,-116.320702104314,35.0000000000005),(-984.814273519946,-114.417690417096,35.0000000000005),(-975.247187710819,-116.320702104314,35.0000000000005),(-1002.49194304961,-121.740020887432,35.0000000000005),(-967.136603990283,-121.740020887432,35.0000000000005),(-1007.91126183273,-129.850604607969,35.0000000000005),(-1009.81427351995,-139.417690417096,35.0000000000005),(-1007.91126183273,-148.984776226223,35.0000000000005),(-961.717285207164,-129.850604607969,35.0000000000005),(-959.814273519946,-139.417690417096,35.0000000000005),(-961.717285207164,-148.984776226223,35.0000000000005),(-1002.49194304961,-157.095359946759,35.0000000000005),(-994.381359329074,-162.514678729878,35.0000000000005),(-984.814273519946,-164.417690417096,35.0000000000005),(-975.247187710819,-162.514678729878,35.0000000000005),(-967.136603990283,-157.095359946759,35.0000000000005),(-1098.56427351995,-214.417690417095,35.0000000000005),(-833.564273519946,-214.417690417095,35.0000000000005),(-995.560458436431,480.375747210125,100.000000000001),(-435.230940186613,297.165642916238,100.),(-11.8976068532797,183.915642916238,100.000000000001),(-1061.50152598045,35.5823095829041,65.0000000000005),(-994.381359329074,-16.3207021043136,65.0000000000005),(-984.814273519946,-14.4176904170959,65.0000000000005),(-975.247187710819,-16.3207021043136,65.0000000000005),(-1002.49194304961,-21.7400208874324,65.0000000000005),(-1007.91126183273,-29.8506046079688,65.0000000000005),(-1009.81427351995,-39.4176904170959,65.0000000000005),(-967.136603990283,-21.7400208874324,65.0000000000005),(-961.717285207164,-29.8506046079688,65.0000000000005),(-959.814273519946,-39.4176904170959,65.0000000000005),(-833.564273519946,35.5823095829041,65.0000000000005),(-1007.91126183273,-48.9847762262229,65.0000000000005),(-1002.49194304961,-57.0953599467593,65.0000000000005),(-961.717285207164,-48.9847762262229,65.0000000000005),(-967.136603990283,-57.0953599467593,65.0000000000005),(-994.381359329074,-62.5146787298781,65.0000000000005),(-984.814273519946,-64.4176904170959,65.0000000000005),(-975.247187710819,-62.5146787298781,65.0000000000005),(-994.381359329074,-116.320702104314,65.0000000000005),(-984.814273519946,-114.417690417096,65.0000000000005),(-975.247187710819,-116.320702104314,65.0000000000005),(-1002.49194304961,-121.740020887432,65.0000000000005),(-967.136603990283,-121.740020887432,65.0000000000005),(-1007.91126183273,-129.850604607969,65.0000000000005),(-1009.81427351995,-139.417690417096,65.0000000000005),(-1007.91126183273,-148.984776226223,65.0000000000005),(-961.717285207164,-129.850604607969,65.0000000000005),(-959.814273519946,-139.417690417096,65.0000000000005),(-961.717285207164,-148.984776226223,65.0000000000005),(-1002.49194304961,-157.095359946759,65.0000000000005),(-994.381359329074,-162.514678729878,65.0000000000005),(-984.814273519946,-164.417690417096,65.0000000000005),(-975.247187710819,-162.514678729878,65.0000000000005),(-967.136603990283,-157.095359946759,65.0000000000005),(-1098.56427351995,-214.417690417095,65.0000000000005),(-833.564273519946,-214.417690417095,65.0000000000005),(-994.381359329074,-16.3207021043136,100.),(-984.814273519946,-14.4176904170959,100.),(-975.247187710819,-16.3207021043136,100.),(-1002.49194304961,-21.7400208874324,100.),(-1007.91126183273,-29.8506046079688,100.),(-1009.81427351995,-39.4176904170959,100.),(-967.136603990283,-21.7400208874324,100.),(-961.717285207164,-29.8506046079688,100.),(-959.814273519946,-39.4176904170959,100.),(-1007.91126183273,-48.9847762262229,100.),(-1002.49194304961,-57.0953599467593,100.),(-961.717285207164,-48.9847762262229,100.),(-967.136603990283,-57.0953599467593,100.),(-994.381359329074,-62.5146787298781,100.),(-984.814273519946,-64.4176904170959,100.),(-975.247187710819,-62.5146787298781,100.),(-994.381359329074,-116.320702104314,100.),(-984.814273519946,-114.417690417096,100.),(-975.247187710819,-116.320702104314,100.),(-1002.49194304961,-121.740020887432,100.),(-967.136603990283,-121.740020887432,100.),(-1007.91126183273,-129.850604607969,100.),(-1009.81427351995,-139.417690417096,100.),(-1007.91126183273,-148.984776226223,100.),(-961.717285207164,-129.850604607969,100.),(-959.814273519946,-139.417690417096,100.),(-961.717285207164,-148.984776226223,100.),(-1002.49194304961,-157.095359946759,100.),(-994.381359329074,-162.514678729878,100.),(-984.814273519946,-164.417690417096,100.),(-975.247187710819,-162.514678729878,100.),(-967.136603990283,-157.095359946759,100.),(-1098.56427351995,-214.417690417095,100.),(411.435726480054,95.8323095829041,9.09494701772928E-13),(834.769059813387,32.9156429162376,9.09494701772928E-13),(1258.10239314672,-4.83435708376237,9.09494701772928E-13),(1681.43572648005,-17.4176904170959,9.09494701772928E-13),(1681.43572648005,-214.417690417096,9.09494701772928E-13),(1281.43572648005,-5.52792663756827,30.0000000000009),(1481.43572648005,-11.4728085273323,30.0000000000009),(1481.43572648005,-11.4728085273323,40.0000000000009),(1681.43572648005,-17.4176904170959,40.0000000000009),(1281.43572648005,-75.9176904251422,30.0000000000009),(1481.43572648005,-75.9176904251422,30.0000000000009),(1481.43572648005,-72.2813267863307,40.0000000000009),(1481.43572648005,-75.917690421616,40.0000000000009),(1681.43572648005,-75.9176904225319,40.0000000000009),(411.435726480054,95.8323095829041,100.000000000001),(834.769059813387,32.9156429162376,100.000000000001),(1281.43572648005,-5.52792663756827,70.0000000000014),(1481.43572648005,-11.4728085273323,60.0000000000014),(1681.43572648005,-17.4176904170959,60.0000000000014),(1481.43572648005,-11.4728085273323,70.0000000000014),(1281.43572648005,-75.9176904251422,70.0000000000014),(1481.43572648005,-62.5843570918091,60.0000000000014),(1481.43572648005,-75.91769042243,60.0000000000014),(1681.43572648005,-75.917690422571,60.0000000000014),(1481.43572648005,-75.9176904251422,70.0000000000014),(1258.10239314672,-4.83435708376237,100.000000000001),(1681.43572648005,-17.4176904170959,100.000000000001),(1681.43572648005,-214.417690417096,100.000000000001)));
#302=IFCPOLYGONALFACESET(#301,.T.,(#55,#56,#57,#58,#59,#60,#61,#62,#63,#64,#65,#66,#67,#68,#69,#70,#71,#72,#73,#74,#75,#76,#77,#78,#79,#80,#81,#82,#83,#84,#85,#86,#87,#88,#89,#90,#91,#92,#93,#94,#95,#96,#97,#98,#99,#100,#101,#102,#103,#104,#105,#106,#107,#108,#109,#110,#111,#112,#113,#114,#115,#116,#117,#118,#119,#120,#121,#122,#123,#124,#125,#126,#127,#128,#129,#130,#131,#132,#133,#134,#135,#136,#137,#138,#139,#140,#141,#142,#143,#144,#145,#146,#147,#148,#149,#150,#151,#152,#153,#154,#155,#156,#157,#158,#159,#160,#161,#162,#163,#164,#165,#166,#167,#168,#169,#170,#171,#172,#173,#174,#175,#176,#177,#178,#179,#180,#181,#182,#183,#184,#185,#186,#187,#188,#189,#190,#191,#192,#193,#194,#195,#196,#197,#198,#199,#200,#201,#202,#203,#204,#205,#206,#207,#208,#209,#210,#211,#212,#213,#214,#215,#216,#217,#218,#219,#220,#221,#222,#223,#224,#225,#226,#227,#228,#229,#230,#231,#232,#233,#234,#235,#236,#237,#238,#239,#240,#241,#242,#243,#244,#245,#246,#247,#248,#249,#250,#251,#252,#253,#254,#255,#256,#257,#258,#259,#260,#261,#262,#263,#264,#265,#266,#267,#268,#269,#270,#271,#272,#273,#274,#275,#276,#277,#278,#279,#280,#281,#282,#283,#284,#285,#286,#287,#288,#289,#290,#291,#292,#293,#294,#295,#296,#297,#298,#299,#300),$);
#303=IFCSHAPEREPRESENTATION(#12,'Body','Tessellation',(#302));
#304=IFCPRODUCTDEFINITIONSHAPE($,$,(#303));
#305=IFCBUILDINGELEMENTPROXY('2oVB6W9Dn62e2Y$xxaYHUG',$,'outer_ribs_0_0_cutter_0',$,$,$,#316,$,$);
#306=IFCRELCONTAINEDINSPATIALSTRUCTURE('2YNA$N$BXD1B6zpYnkkwTl',$,$,$,(#305),#22);
#307=IFCINDEXEDPOLYGONALFACE((1,2,3,4));
#308=IFCINDEXEDPOLYGONALFACE((1,4,6,5));
#309=IFCINDEXEDPOLYGONALFACE((4,3,7,6));
#310=IFCINDEXEDPOLYGONALFACE((3,2,8,7));
#311=IFCINDEXEDPOLYGONALFACE((2,1,5,8));
#312=IFCINDEXEDPOLYGONALFACE((5,6,7,8));
#313=IFCCARTESIANPOINTLIST3D(((-1318.56427351995,35.582309582904,35.0000000000007),(-1318.56427351995,35.582309582904,65.0000000000007),(-833.564273519946,35.5823095829039,65.0000000000007),(-833.564273519946,35.5823095829039,35.0000000000007),(-1318.56427351995,-239.417690417096,35.0000000000006),(-833.564273519946,-239.417690417096,35.0000000000007),(-833.564273519946,-239.417690417096,65.0000000000007),(-1318.56427351995,-239.417690417096,65.0000000000006)));
#314=IFCPOLYGONALFACESET(#313,.T.,(#307,#308,#309,#310,#311,#312),$);
#315=IFCSHAPEREPRESENTATION(#12,'Body','Tessellation',(#314));
#316=IFCPRODUCTDEFINITIONSHAPE($,$,(#315));
#317=IFCBUILDINGELEMENTPROXY('1EOiARGpzAIxfS2S5BZaqJ',$,'outer_ribs_0_0_cutter_1',$,$,$,#370,$,$);
#318=IFCRELCONTAINEDINSPATIALSTRUCTURE('2XO5XnP4vCZ99Q9OJmnnUY',$,$,$,(#317),#22);
#319=IFCINDEXEDPOLYGONALFACE((1,2,4,3));
#320=IFCINDEXEDPOLYGONALFACE((3,4,6,5));
#321=IFCINDEXEDPOLYGONALFACE((5,6,8,7));
#322=IFCINDEXEDPOLYGONALFACE((7,8,10,9));
#323=IFCINDEXEDPOLYGONALFACE((9,10,12,11));
#324=IFCINDEXEDPOLYGONALFACE((11,12,14,13));
#325=IFCINDEXEDPOLYGONALFACE((13,14,16,15));
#326=IFCINDEXEDPOLYGONALFACE((15,16,18,17));
#327=IFCINDEXEDPOLYGONALFACE((17,18,20,19));
#328=IFCINDEXEDPOLYGONALFACE((19,20,22,21));
#329=IFCINDEXEDPOLYGONALFACE((21,22,24,23));
#330=IFCINDEXEDPOLYGONALFACE((23,24,26,25));
#331=IFCINDEXEDPOLYGONALFACE((25,26,28,27));
#332=IFCINDEXEDPOLYGONALFACE((27,28,30,29));
#333=IFCINDEXEDPOLYGONALFACE((29,30,32,31));
#334=IFCINDEXEDPOLYGONALFACE((31,32,2,1));
#335=IFCINDEXEDPOLYGONALFACE((1,3,33));
#336=IFCINDEXEDPOLYGONALFACE((34,4,2));
#337=IFCINDEXEDPOLYGONALFACE((3,5,33));
#338=IFCINDEXEDPOLYGONALFACE((34,6,4));
#339=IFCINDEXEDPOLYGONALFACE((5,7,33));
#340=IFCINDEXEDPOLYGONALFACE((34,8,6));
#341=IFCINDEXEDPOLYGONALFACE((7,9,33));
#342=IFCINDEXEDPOLYGONALFACE((34,10,8));
#343=IFCINDEXEDPOLYGONALFACE((9,11,33));
#344=IFCINDEXEDPOLYGONALFACE((34,12,10));
#345=IFCINDEXEDPOLYGONALFACE((11,13,33));
#346=IFCINDEXEDPOLYGONALFACE((34,14,12));
#347=IFCINDEXEDPOLYGONALFACE((13,15,33));
#348=IFCINDEXEDPOLYGONALFACE((34,16,14));
#349=IFCINDEXEDPOLYGONALFACE((15,17,33));
#350=IFCINDEXEDPOLYGONALFACE((34,18,16));
#351=IFCINDEXEDPOLYGONALFACE((17,19,33));
#352=IFCINDEXEDPOLYGONALFACE((34,20,18));
#353=IFCINDEXEDPOLYGONALFACE((19,21,33));
#354=IFCINDEXEDPOLYGONALFACE((34,22,20));
#355=IFCINDEXEDPOLYGONALFACE((21,23,33));
#356=IFCINDEXEDPOLYGONALFACE((34,24,22));
#357=IFCINDEXEDPOLYGONALFACE((23,25,33));
#358=IFCINDEXEDPOLYGONALFACE((34,26,24));
#359=IFCINDEXEDPOLYGONALFACE((25,27,33));
#360=IFCINDEXEDPOLYGONALFACE((34,28,26));
#361=IFCINDEXEDPOLYGONALFACE((27,29,33));
#362=IFCINDEXEDPOLYGONALFACE((34,30,28));
#363=IFCINDEXEDPOLYGONALFACE((29,31,33));
#364=IFCINDEXEDPOLYGONALFACE((34,32,30));
#365=IFCINDEXEDPOLYGONALFACE((31,1,33));
#366=IFCINDEXEDPOLYGONALFACE((34,2,32));
#367=IFCCARTESIANPOINTLIST3D(((-984.814273519946,-164.417690417096,125.000000000001),(-984.814273519946,-164.417690417096,-24.9999999999998),(-975.247187710819,-162.514678729878,125.000000000001),(-975.247187710819,-162.514678729878,-24.9999999999998),(-967.136603990283,-157.09535994676,125.000000000001),(-967.136603990283,-157.09535994676,-24.9999999999998),(-961.717285207164,-148.984776226223,125.000000000001),(-961.717285207164,-148.984776226223,-24.9999999999998),(-959.814273519946,-139.417690417096,125.000000000001),(-959.814273519946,-139.417690417096,-24.9999999999998),(-961.717285207164,-129.850604607969,125.000000000001),(-961.717285207164,-129.850604607969,-24.9999999999998),(-967.136603990283,-121.740020887433,125.000000000001),(-967.136603990283,-121.740020887433,-24.9999999999998),(-975.247187710819,-116.320702104314,125.000000000001),(-975.247187710819,-116.320702104314,-24.9999999999998),(-984.814273519946,-114.417690417096,125.000000000001),(-984.814273519946,-114.417690417096,-24.9999999999998),(-994.381359329074,-116.320702104314,125.000000000001),(-994.381359329074,-116.320702104314,-24.9999999999998),(-1002.49194304961,-121.740020887433,125.000000000001),(-1002.49194304961,-121.740020887433,-24.9999999999998),(-1007.91126183273,-129.850604607969,125.000000000001),(-1007.91126183273,-129.850604607969,-24.9999999999998),(-1009.81427351995,-139.417690417096,125.000000000001),(-1009.81427351995,-139.417690417096,-24.9999999999998),(-1007.91126183273,-148.984776226223,125.000000000001),(-1007.91126183273,-148.984776226223,-24.9999999999998),(-1002.49194304961,-157.09535994676,125.000000000001),(-1002.49194304961,-157.09535994676,-24.9999999999998),(-994.381359329074,-162.514678729878,125.000000000001),(-994.381359329074,-162.514678729878,-24.9999999999998),(-984.814273519946,-139.417690417096,125.000000000001),(-984.814273519946,-139.417690417096,-24.9999999999998)));
#368=IFCPOLYGONALFACESET(#367,.T.,(#319,#320,#321,#322,#323,#324,#325,#326,#327,#328,#329,#330,#331,#332,#333,#334,#335,#336,#337,#338,#339,#340,#341,#342,#343,#344,#345,#346,#347,#348,#349,#350,#351,#352,#353,#354,#355,#356,#357,#358,#359,#360,#361,#362,#363,#364,#365,#366),$);
#369=IFCSHAPEREPRESENTATION(#12,'Body','Tessellation',(#368));
#370=IFCPRODUCTDEFINITIONSHAPE($,$,(#369));
#371=IFCBUILDINGELEMENTPROXY('0$g0JHtmn4zfd2W28Xkht6',$,'outer_ribs_0_0_cutter_2',$,$,$,#424,$,$);
#372=IFCRELCONTAINEDINSPATIALSTRUCTURE('0eZ$$lZ$PA8wUzptLwFaGs',$,$,$,(#371),#22);
#373=IFCINDEXEDPOLYGONALFACE((1,2,4,3));
#374=IFCINDEXEDPOLYGONALFACE((3,4,6,5));
#375=IFCINDEXEDPOLYGONALFACE((5,6,8,7));
#376=IFCINDEXEDPOLYGONALFACE((7,8,10,9));
#377=IFCINDEXEDPOLYGONALFACE((9,10,12,11));
#378=IFCINDEXEDPOLYGONALFACE((11,12,14,13));
#379=IFCINDEXEDPOLYGONALFACE((13,14,16,15));
#380=IFCINDEXEDPOLYGONALFACE((15,16,18,17));
#381=IFCINDEXEDPOLYGONALFACE((17,18,20,19));
#382=IFCINDEXEDPOLYGONALFACE((19,20,22,21));
#383=IFCINDEXEDPOLYGONALFACE((21,22,24,23));
#384=IFCINDEXEDPOLYGONALFACE((23,24,26,25));
#385=IFCINDEXEDPOLYGONALFACE((25,26,28,27));
#386=IFCINDEXEDPOLYGONALFACE((27,28,30,29));
#387=IFCINDEXEDPOLYGONALFACE((29,30,32,31));
#388=IFCINDEXEDPOLYGONALFACE((31,32,2,1));
#389=IFCINDEXEDPOLYGONALFACE((1,3,33));
#390=IFCINDEXEDPOLYGONALFACE((34,4,2));
#391=IFCINDEXEDPOLYGONALFACE((3,5,33));
#392=IFCINDEXEDPOLYGONALFACE((34,6,4));
#393=IFCINDEXEDPOLYGONALFACE((5,7,33));
#394=IFCINDEXEDPOLYGONALFACE((34,8,6));
#395=IFCINDEXEDPOLYGONALFACE((7,9,33));
#396=IFCINDEXEDPOLYGONALFACE((34,10,8));
#397=IFCINDEXEDPOLYGONALFACE((9,11,33));
#398=IFCINDEXEDPOLYGONALFACE((34,12,10));
#399=IFCINDEXEDPOLYGONALFACE((11,13,33));
#400=IFCINDEXEDPOLYGONALFACE((34,14,12));
#401=IFCINDEXEDPOLYGONALFACE((13,15,33));
#402=IFCINDEXEDPOLYGONALFACE((34,16,14));
#403=IFCINDEXEDPOLYGONALFACE((15,17,33));
#404=IFCINDEXEDPOLYGONALFACE((34,18,16));
#405=IFCINDEXEDPOLYGONALFACE((17,19,33));
#406=IFCINDEXEDPOLYGONALFACE((34,20,18));
#407=IFCINDEXEDPOLYGONALFACE((19,21,33));
#408=IFCINDEXEDPOLYGONALFACE((34,22,20));
#409=IFCINDEXEDPOLYGONALFACE((21,23,33));
#410=IFCINDEXEDPOLYGONALFACE((34,24,22));
#411=IFCINDEXEDPOLYGONALFACE((23,25,33));
#412=IFCINDEXEDPOLYGONALFACE((34,26,24));
#413=IFCINDEXEDPOLYGONALFACE((25,27,33));
#414=IFCINDEXEDPOLYGONALFACE((34,28,26));
#415=IFCINDEXEDPOLYGONALFACE((27,29,33));
#416=IFCINDEXEDPOLYGONALFACE((34,30,28));
#417=IFCINDEXEDPOLYGONALFACE((29,31,33));
#418=IFCINDEXEDPOLYGONALFACE((34,32,30));
#419=IFCINDEXEDPOLYGONALFACE((31,1,33));
#420=IFCINDEXEDPOLYGONALFACE((34,2,32));
#421=IFCCARTESIANPOINTLIST3D(((-984.814273519946,-64.4176904170961,125.000000000001),(-984.814273519946,-64.417690417096,-24.9999999999998),(-975.247187710819,-62.5146787298784,125.000000000001),(-975.247187710819,-62.5146787298783,-24.9999999999998),(-967.136603990283,-57.0953599467596,125.000000000001),(-967.136603990283,-57.0953599467595,-24.9999999999998),(-961.717285207164,-48.9847762262232,125.000000000001),(-961.717285207164,-48.9847762262231,-24.9999999999998),(-959.814273519946,-39.4176904170961,125.000000000001),(-959.814273519946,-39.417690417096,-24.9999999999998),(-961.717285207164,-29.850604607969,125.000000000001),(-961.717285207164,-29.8506046079689,-24.9999999999998),(-967.136603990283,-21.7400208874326,125.000000000001),(-967.136603990283,-21.7400208874326,-24.9999999999998),(-975.247187710819,-16.3207021043138,125.000000000001),(-975.247187710819,-16.3207021043137,-24.9999999999998),(-984.814273519946,-14.4176904170961,125.000000000001),(-984.814273519946,-14.417690417096,-24.9999999999998),(-994.381359329074,-16.3207021043138,125.000000000001),(-994.381359329074,-16.3207021043137,-24.9999999999998),(-1002.49194304961,-21.7400208874326,125.000000000001),(-1002.49194304961,-21.7400208874325,-24.9999999999998),(-1007.91126183273,-29.850604607969,125.000000000001),(-1007.91126183273,-29.8506046079689,-24.9999999999998),(-1009.81427351995,-39.4176904170961,125.000000000001),(-1009.81427351995,-39.417690417096,-24.9999999999998),(-1007.91126183273,-48.9847762262232,125.000000000001),(-1007.91126183273,-48.9847762262231,-24.9999999999998),(-1002.49194304961,-57.0953599467596,125.000000000001),(-1002.49194304961,-57.0953599467595,-24.9999999999998),(-994.381359329074,-62.5146787298784,125.000000000001),(-994.381359329074,-62.5146787298783,-24.9999999999998),(-984.814273519946,-39.4176904170961,125.000000000001),(-984.814273519946,-39.417690417096,-24.9999999999998)));
#422=IFCPOLYGONALFACESET(#421,.T.,(#373,#374,#375,#376,#377,#378,#379,#380,#381,#382,#383,#384,#385,#386,#387,#388,#389,#390,#391,#392,#393,#394,#395,#396,#397,#398,#399,#400,#401,#402,#403,#404,#405,#406,#407,#408,#409,#410,#411,#412,#413,#414,#415,#416,#417,#418,#419,#420),$);
#423=IFCSHAPEREPRESENTATION(#12,'Body','Tessellation',(#422));
#424=IFCPRODUCTDEFINITIONSHAPE($,$,(#423));
#425=IFCBUILDINGELEMENTPROXY('0aNkGiucr79utKJ8xhjUc9',$,'outer_ribs_0_0_cutter_3',$,$,$,#462,$,$);
#426=IFCRELCONTAINEDINSPATIALSTRUCTURE('3f1rD4DgzByOb$XYO7OS44',$,$,$,(#425),#22);
#427=IFCINDEXEDPOLYGONALFACE((12,1,2,3));
#428=IFCINDEXEDPOLYGONALFACE((4,13,17,16));
#429=IFCINDEXEDPOLYGONALFACE((3,17,13,12));
#430=IFCINDEXEDPOLYGONALFACE((2,5,6));
#431=IFCINDEXEDPOLYGONALFACE((2,1,5));
#432=IFCINDEXEDPOLYGONALFACE((6,18,2));
#433=IFCINDEXEDPOLYGONALFACE((8,16,20));
#434=IFCINDEXEDPOLYGONALFACE((5,1,7));
#435=IFCINDEXEDPOLYGONALFACE((4,8,9));
#436=IFCINDEXEDPOLYGONALFACE((9,14,4));
#437=IFCINDEXEDPOLYGONALFACE((16,8,4));
#438=IFCINDEXEDPOLYGONALFACE((19,10,15,11));
#439=IFCINDEXEDPOLYGONALFACE((5,7,10));
#440=IFCINDEXEDPOLYGONALFACE((6,5,10));
#441=IFCINDEXEDPOLYGONALFACE((6,10,19));
#442=IFCINDEXEDPOLYGONALFACE((19,18,6));
#443=IFCINDEXEDPOLYGONALFACE((11,15,9));
#444=IFCINDEXEDPOLYGONALFACE((14,9,15));
#445=IFCINDEXEDPOLYGONALFACE((20,11,8));
#446=IFCINDEXEDPOLYGONALFACE((9,8,11));
#447=IFCINDEXEDPOLYGONALFACE((14,13,4));
#448=IFCINDEXEDPOLYGONALFACE((7,12,14));
#449=IFCINDEXEDPOLYGONALFACE((13,14,12));
#450=IFCINDEXEDPOLYGONALFACE((10,7,15));
#451=IFCINDEXEDPOLYGONALFACE((14,15,7));
#452=IFCINDEXEDPOLYGONALFACE((12,7,1));
#453=IFCINDEXEDPOLYGONALFACE((20,16,17));
#454=IFCINDEXEDPOLYGONALFACE((20,17,18));
#455=IFCINDEXEDPOLYGONALFACE((3,18,17));
#456=IFCINDEXEDPOLYGONALFACE((19,11,18));
#457=IFCINDEXEDPOLYGONALFACE((20,18,11));
#458=IFCINDEXEDPOLYGONALFACE((3,2,18));
#459=IFCCARTESIANPOINTLIST3D(((1481.43572648005,-75.9176904251422,70.0000000000014),(1481.43572648005,4.08230957485779,70.0000000000015),(1281.43572648005,4.08230957485782,70.0000000000014),(1481.43572648005,-75.9176904251422,30.000000000001),(1481.43572648005,-62.5843570918092,60.0000000000014),(1481.43572648005,0.445945938610696,60.0000000000015),(1481.43572648005,-75.9176904224301,60.0000000000014),(1481.43572648005,-9.25102375847523,40.000000000001),(1481.43572648005,-72.2813267863308,40.000000000001),(1691.43572648005,-75.9176904225779,60.0000000000015),(1691.43572648005,4.08230957485777,40.000000000001),(1281.43572648005,-75.9176904251422,70.0000000000014),(1281.43572648005,-75.9176904251422,30.000000000001),(1481.43572648005,-75.9176904216161,40.000000000001),(1691.43572648005,-75.9176904225779,40.000000000001),(1481.43572648005,4.0823095748578,30.000000000001),(1281.43572648005,4.08230957485783,30.000000000001),(1481.43572648005,4.08230957485779,60.0000000000015),(1691.43572648005,4.08230957485777,60.0000000000015),(1481.43572648005,4.0823095748578,40.000000000001)));
#460=IFCPOLYGONALFACESET(#459,.T.,(#427,#428,#429,#430,#431,#432,#433,#434,#435,#436,#437,#438,#439,#440,#441,#442,#443,#444,#445,#446,#447,#448,#449,#450,#451,#452,#453,#454,#455,#456,#457,#458),$);
#461=IFCSHAPEREPRESENTATION(#12,'Body','Tessellation',(#460));
#462=IFCPRODUCTDEFINITIONSHAPE($,$,(#461));
ENDSEC;
END-ISO-10303-21;
