# OBJ
# COMPAS
# version: 2.15.1
# precision: 3
# V F E: 104 220 330

o support_0_preview
v 70.000 70.000 0.000
v 70.000 -70.000 0.000
v -70.000 -70.000 12.000
v -70.000 -70.000 0.000
v -70.000 70.000 12.000
v -70.000 70.000 0.000
v 70.000 70.000 12.000
v 70.000 -70.000 12.000
v 59.500 -52.000 12.000
v 55.750 -58.495 12.000
v 48.250 -58.495 12.000
v -48.250 -58.495 12.000
v -44.500 -52.000 12.000
v -59.500 -52.000 12.000
v -55.750 -58.495 12.000
v -48.250 -45.505 12.000
v 48.250 58.495 12.000
v 44.500 52.000 12.000
v 59.500 52.000 12.000
v 55.750 58.495 12.000
v 55.750 45.505 12.000
v 48.250 45.505 12.000
v -44.500 52.000 12.000
v -59.500 52.000 12.000
v -55.750 45.505 12.000
v -55.750 58.495 12.000
v -48.250 58.495 12.000
v 10.500 -18.187 12.000
v 21.000 0.000 12.000
v -21.000 0.000 12.000
v 10.500 18.187 12.000
v 59.500 -52.000 0.000
v 55.750 -58.495 0.000
v 48.250 -58.495 0.000
v -48.250 -58.495 0.000
v -59.500 -52.000 0.000
v -55.750 -58.495 0.000
v 48.250 58.495 0.000
v 59.500 52.000 0.000
v 55.750 58.495 0.000
v -59.500 52.000 0.000
v -55.750 58.495 0.000
v -48.250 58.495 0.000
v 44.500 -52.000 12.000
v 44.500 -52.000 0.000
v 48.250 -45.505 12.000
v 48.250 -45.505 0.000
v 55.750 -45.505 12.000
v 55.750 -45.505 0.000
v -55.750 -45.505 12.000
v -55.750 -45.505 0.000
v -48.250 -45.505 0.000
v -44.500 -52.000 0.000
v 44.500 52.000 0.000
v 55.750 45.505 0.000
v 48.250 45.505 0.000
v -48.250 45.505 12.000
v -48.250 45.505 0.000
v -55.750 45.505 0.000
v -44.500 52.000 0.000
v 53.000 0.000 138.000
v 26.500 -45.899 138.000
v -26.500 -45.899 138.000
v -53.000 0.000 138.000
v -26.500 45.899 138.000
v 26.500 45.899 138.000
v 53.000 0.000 150.000
v 26.500 -45.899 150.000
v -26.500 -45.899 150.000
v -53.000 0.000 150.000
v -26.500 45.899 150.000
v 26.500 45.899 150.000
v 31.750 0.000 138.000
v 15.875 27.496 138.000
v -15.875 27.496 138.000
v -31.750 0.000 138.000
v -15.875 -27.496 138.000
v 15.875 -27.496 138.000
v 15.875 27.496 108.000
v -15.875 27.496 108.000
v -31.750 0.000 108.000
v -15.875 -27.496 108.000
v 15.875 -27.496 108.000
v 31.750 0.000 108.000
v 15.000 0.000 108.000
v 7.500 -12.990 108.000
v -7.500 -12.990 108.000
v -15.000 0.000 108.000
v -7.500 12.990 108.000
v 7.500 12.990 108.000
v 15.000 0.000 64.000
v -15.000 0.000 64.000
v 7.500 12.990 64.000
v 10.500 -18.187 64.000
v -10.500 -18.187 64.000
v -10.500 -18.187 12.000
v -21.000 0.000 64.000
v -10.500 18.187 64.000
v -10.500 18.187 12.000
v 10.500 18.187 64.000
v 21.000 0.000 64.000
v -7.500 -12.990 64.000
v 7.500 -12.990 64.000
v -7.500 12.990 64.000
f 6 5 7
f 1 7 8
f 2 8 3
f 4 3 5
f 24 26 5
f 27 5 26
f 3 14 24
f 25 24 14
f 23 99 18
f 30 57 25
f 23 57 99
f 27 23 17
f 5 27 17
f 99 57 30
f 12 15 3
f 14 3 15
f 16 96 30
f 96 16 13
f 13 12 11
f 44 96 13
f 50 16 30
f 30 25 50
f 12 3 11
f 22 31 29
f 18 31 22
f 19 7 20
f 17 20 7
f 19 21 48
f 7 19 9
f 21 22 29
f 46 28 44
f 29 28 46
f 28 96 44
f 29 46 48
f 8 9 10
f 11 8 10
f 48 21 29
f 4 6 41
f 42 41 6
f 59 51 36
f 6 43 42
f 52 58 56
f 43 38 60
f 6 1 38
f 58 52 51
f 37 4 36
f 52 47 53
f 4 37 35
f 53 45 34
f 35 34 4
f 60 54 56
f 39 40 1
f 38 1 40
f 39 32 49
f 1 2 32
f 55 49 47
f 34 33 2
f 32 2 33
f 45 47 46
f 47 49 48
f 49 32 9
f 32 33 10
f 33 34 11
f 34 45 44
f 53 35 12
f 35 37 15
f 37 36 14
f 36 51 50
f 51 52 16
f 52 53 13
f 54 38 17
f 38 40 20
f 40 39 19
f 39 55 21
f 55 56 22
f 56 54 18
f 60 58 57
f 58 59 25
f 59 41 24
f 41 42 26
f 42 43 27
f 43 60 23
f 61 67 68
f 62 68 69
f 63 69 70
f 64 70 71
f 65 71 72
f 66 72 67
f 62 78 61
f 73 61 78
f 63 78 62
f 66 61 74
f 73 74 61
f 65 66 74
f 64 76 77
f 78 63 77
f 63 64 77
f 65 75 64
f 76 64 75
f 74 75 65
f 73 84 79
f 74 79 80
f 75 80 81
f 76 81 82
f 77 82 83
f 78 83 84
f 87 82 81
f 86 82 87
f 88 87 81
f 80 89 81
f 88 81 89
f 79 89 80
f 84 86 85
f 82 86 83
f 83 86 84
f 79 84 90
f 85 90 84
f 89 79 90
f 91 85 86
f 102 87 88
f 92 88 89
f 93 90 85
f 29 101 94
f 28 94 95
f 96 95 97
f 30 97 98
f 99 98 100
f 31 100 101
f 103 94 101
f 102 94 103
f 91 103 101
f 101 100 93
f 98 93 100
f 91 101 93
f 97 102 92
f 94 102 95
f 95 102 97
f 98 97 104
f 92 104 97
f 93 98 104
f 102 86 87
f 86 102 103
f 90 104 89
f 104 90 93
f 6 7 1
f 1 8 2
f 2 3 4
f 4 5 6
f 3 24 5
f 25 14 50
f 99 31 18
f 23 18 17
f 5 17 7
f 13 11 44
f 3 8 11
f 19 48 9
f 7 9 8
f 4 41 36
f 59 36 41
f 52 56 47
f 38 54 60
f 6 38 43
f 58 51 59
f 47 45 53
f 53 34 35
f 34 2 4
f 60 56 58
f 39 49 55
f 1 32 39
f 55 47 56
f 45 46 44
f 47 48 46
f 49 9 48
f 32 10 9
f 33 11 10
f 34 44 11
f 53 12 13
f 35 15 12
f 37 14 15
f 36 50 14
f 51 16 50
f 52 13 16
f 54 17 18
f 38 20 17
f 40 19 20
f 39 21 19
f 55 22 21
f 56 18 22
f 60 57 23
f 58 25 57
f 59 24 25
f 41 26 24
f 42 27 26
f 43 23 27
f 61 68 62
f 62 69 63
f 63 70 64
f 64 71 65
f 65 72 66
f 66 67 61
f 73 79 74
f 74 80 75
f 75 81 76
f 76 82 77
f 77 83 78
f 78 84 73
f 91 86 103
f 102 88 92
f 92 89 104
f 93 85 91
f 29 94 28
f 28 95 96
f 96 97 30
f 30 98 99
f 99 100 31
f 31 101 29
f 71 67 72
f 70 67 71
f 70 69 67
f 68 67 69
