ISO-10303-21;
HEADER;
FILE_DESCRIPTION(('ViewDefinition [CoordinationView]'),'2;1');
FILE_NAME('','2026-08-25T22:33:53',(''),(''),'IfcOpenShell 0.8.4-e8eb5e4','IfcOpenShell 0.8.4-e8eb5e4','');
FILE_SCHEMA(('IFC4'));
ENDSEC;
DATA;
#1=IFCPROJECT('1$LFZgc1v8_ByR5TW7xb5S',$,'Default Project',$,$,$,$,(#11),#6);
#2=IFCSIUNIT(*,.LENGTHUNIT.,.MILLI.,.METRE.);
#3=IFCSIUNIT(*,.AREAUNIT.,.MILLI.,.SQUARE_METRE.);
#4=IFCSIUNIT(*,.VOLUMEUNIT.,.MILLI.,.CUBIC_METRE.);
#5=IFCSIUNIT(*,.PLANEANGLEUNIT.,$,.RADIAN.);
#6=IFCUNITASSIGNMENT((#2,#3,#4,#5));
#7=IFCCARTESIANPOINT((0.,0.,0.));
#8=IFCDIRECTION((0.,0.,1.));
#9=IFCDIRECTION((1.,0.,0.));
#10=IFCAXIS2PLACEMENT3D(#7,#8,#9);
#11=IFCGEOMETRICREPRESENTATIONCONTEXT($,'Model',3,1.E-05,#10,$);
#12=IFCGEOMETRICREPRESENTATIONSUBCONTEXT('Body','Model',*,*,*,*,#11,$,.MODEL_VIEW.,$);
#13=IFCPERSON($,'Unknown Author',$,$,$,$,$,$);
#14=IFCORGANIZATION($,'compas.dev',$,$,$);
#15=IFCPERSONANDORGANIZATION(#13,#14,$);
#16=IFCAPPLICATION(#14,'2.1.0','compas_ifc','compas_ifc v2.1.0');
#17=IFCOWNERHISTORY(#15,#16,$,$,$,$,$,1787690033);
#18=IFCSITE('1UAsYjPUv8gh69ZM1PJp7n',$,'Default Site',$,$,$,$,$,$,$,$,$,$,$);
#19=IFCRELAGGREGATES('3M4Y6l8qn1FeGJZYikbQxD',$,$,$,#1,(#18));
#20=IFCBUILDING('1JFOyFo4P2E8d9KCOKhX5B',$,'Default Building 1',$,$,$,$,$,$,$,$,$);
#21=IFCRELAGGREGATES('0Gl$AFzUfCu9pUxYUjVTsE',$,$,$,#18,(#20));
#22=IFCBUILDINGSTOREY('04SlO3cq5C0Q_Cc2hkzd8L',$,'Default Storey 1',$,$,$,$,$,$,$);
#23=IFCRELAGGREGATES('1ffv0CvBvAGwsH_HSKPu5r',$,$,$,#20,(#22));
#24=IFCBUILDINGELEMENTPROXY('0IaTWJ_U92MQCKiPSWJO1y',$,'tsections_0_0_uncut',$,$,$,#67,$,$);
#25=IFCRELCONTAINEDINSPATIALSTRUCTURE('0g3f57b1D8SeM0dgZR7qj3',$,$,$,(#24),#22);
#26=IFCINDEXEDPOLYGONALFACE((1,2,16,15));
#27=IFCINDEXEDPOLYGONALFACE((2,3,17,16));
#28=IFCINDEXEDPOLYGONALFACE((3,4,18,17));
#29=IFCINDEXEDPOLYGONALFACE((4,5,19,18));
#30=IFCINDEXEDPOLYGONALFACE((5,6,20,19));
#31=IFCINDEXEDPOLYGONALFACE((6,7,21,20));
#32=IFCINDEXEDPOLYGONALFACE((7,8,22,21));
#33=IFCINDEXEDPOLYGONALFACE((8,9,23,22));
#34=IFCINDEXEDPOLYGONALFACE((9,10,24,23));
#35=IFCINDEXEDPOLYGONALFACE((10,11,25,24));
#36=IFCINDEXEDPOLYGONALFACE((11,12,26,25));
#37=IFCINDEXEDPOLYGONALFACE((12,13,27,26));
#38=IFCINDEXEDPOLYGONALFACE((13,14,28,27));
#39=IFCINDEXEDPOLYGONALFACE((14,1,15,28));
#40=IFCINDEXEDPOLYGONALFACE((1,14,13));
#41=IFCINDEXEDPOLYGONALFACE((13,12,11));
#42=IFCINDEXEDPOLYGONALFACE((11,10,9));
#43=IFCINDEXEDPOLYGONALFACE((9,8,7));
#44=IFCINDEXEDPOLYGONALFACE((2,1,13));
#45=IFCINDEXEDPOLYGONALFACE((9,7,6));
#46=IFCINDEXEDPOLYGONALFACE((3,2,13));
#47=IFCINDEXEDPOLYGONALFACE((11,9,6));
#48=IFCINDEXEDPOLYGONALFACE((4,3,13));
#49=IFCINDEXEDPOLYGONALFACE((11,6,5));
#50=IFCINDEXEDPOLYGONALFACE((4,13,11));
#51=IFCINDEXEDPOLYGONALFACE((11,5,4));
#52=IFCINDEXEDPOLYGONALFACE((27,28,15));
#53=IFCINDEXEDPOLYGONALFACE((25,26,27));
#54=IFCINDEXEDPOLYGONALFACE((23,24,25));
#55=IFCINDEXEDPOLYGONALFACE((21,22,23));
#56=IFCINDEXEDPOLYGONALFACE((27,15,16));
#57=IFCINDEXEDPOLYGONALFACE((20,21,23));
#58=IFCINDEXEDPOLYGONALFACE((27,16,17));
#59=IFCINDEXEDPOLYGONALFACE((20,23,25));
#60=IFCINDEXEDPOLYGONALFACE((27,17,18));
#61=IFCINDEXEDPOLYGONALFACE((19,20,25));
#62=IFCINDEXEDPOLYGONALFACE((25,27,18));
#63=IFCINDEXEDPOLYGONALFACE((18,19,25));
#64=IFCCARTESIANPOINTLIST3D(((-1335.95478335023,144.180344148761,27.0000000000007),(-751.380376502523,67.9709339942582,27.0000000000007),(-314.393172847236,35.1249684483362,27.0000000000007),(117.930698176822,27.0098427563621,27.0000000000007),(545.591236569649,43.6255569183359,27.0000000000007),(968.588442331247,84.972110934258,27.0000000000007),(1327.63090037227,141.684204885563,27.0000000000007),(1332.6361556854,115.140062023393,27.0000000000007),(972.011025156377,58.1779790559597,27.0000000000007),(547.430249980845,16.6766364565199,27.0000000000007),(118.201674185574,7.105427357601E-15,27.0000000000007),(-315.659405081172,8.14398053644734,27.0000000000007),(-754.139492185299,41.1021580598049,27.0000000000007),(-1334.88149919187,116.811948442969,27.0000000000007),(-1335.95478335023,144.180344148761,6.95288600863837E-13),(-751.380376502523,67.9709339942582,6.95288600863837E-13),(-314.393172847236,35.1249684483362,6.96753307707892E-13),(117.930698176822,27.0098427563621,6.99682721396003E-13),(545.591236569649,43.6255569183359,7.04076841928169E-13),(968.588442331247,84.972110934258,7.0993566930439E-13),(1327.63090037227,141.684204885563,7.16221222296595E-13),(1332.6361556854,115.140062023393,7.1464912090621E-13),(972.011025156377,58.1779790559597,7.08335860963002E-13),(547.430249980845,16.6766364565199,7.02455099967106E-13),(118.201674185574,7.105427357601E-15,6.98044868186117E-13),(-315.659405081172,8.14398053644734,6.95105038420681E-13),(-754.139492185299,41.1021580598049,6.93635327684997E-13),(-1334.88149919187,116.811948442969,6.93635327684985E-13)));
#65=IFCPOLYGONALFACESET(#64,.T.,(#26,#27,#28,#29,#30,#31,#32,#33,#34,#35,#36,#37,#38,#39,#40,#41,#42,#43,#44,#45,#46,#47,#48,#49,#50,#51,#52,#53,#54,#55,#56,#57,#58,#59,#60,#61,#62,#63),$);
#66=IFCSHAPEREPRESENTATION(#12,'Body','Tessellation',(#65));
#67=IFCPRODUCTDEFINITIONSHAPE($,$,(#66));
#68=IFCBUILDINGELEMENTPROXY('3Gd65ZpwDB0x8gtFi7QBQX',$,'tsections_0_0',$,$,$,#111,$,$);
#69=IFCRELCONTAINEDINSPATIALSTRUCTURE('00arQQdOrAoxvaMEqSIueV',$,$,$,(#68),#22);
#70=IFCINDEXEDPOLYGONALFACE((1,2,16,15));
#71=IFCINDEXEDPOLYGONALFACE((2,3,17,16));
#72=IFCINDEXEDPOLYGONALFACE((3,4,18,17));
#73=IFCINDEXEDPOLYGONALFACE((4,5,19,18));
#74=IFCINDEXEDPOLYGONALFACE((5,6,20,19));
#75=IFCINDEXEDPOLYGONALFACE((6,7,21,20));
#76=IFCINDEXEDPOLYGONALFACE((7,8,22,21));
#77=IFCINDEXEDPOLYGONALFACE((8,9,23,22));
#78=IFCINDEXEDPOLYGONALFACE((9,10,24,23));
#79=IFCINDEXEDPOLYGONALFACE((10,11,25,24));
#80=IFCINDEXEDPOLYGONALFACE((11,12,26,25));
#81=IFCINDEXEDPOLYGONALFACE((12,13,27,26));
#82=IFCINDEXEDPOLYGONALFACE((13,14,28,27));
#83=IFCINDEXEDPOLYGONALFACE((14,1,15,28));
#84=IFCINDEXEDPOLYGONALFACE((1,14,13));
#85=IFCINDEXEDPOLYGONALFACE((13,12,11));
#86=IFCINDEXEDPOLYGONALFACE((11,10,9));
#87=IFCINDEXEDPOLYGONALFACE((9,8,7));
#88=IFCINDEXEDPOLYGONALFACE((2,1,13));
#89=IFCINDEXEDPOLYGONALFACE((9,7,6));
#90=IFCINDEXEDPOLYGONALFACE((3,2,13));
#91=IFCINDEXEDPOLYGONALFACE((11,9,6));
#92=IFCINDEXEDPOLYGONALFACE((4,3,13));
#93=IFCINDEXEDPOLYGONALFACE((11,6,5));
#94=IFCINDEXEDPOLYGONALFACE((4,13,11));
#95=IFCINDEXEDPOLYGONALFACE((11,5,4));
#96=IFCINDEXEDPOLYGONALFACE((27,28,15));
#97=IFCINDEXEDPOLYGONALFACE((25,26,27));
#98=IFCINDEXEDPOLYGONALFACE((23,24,25));
#99=IFCINDEXEDPOLYGONALFACE((21,22,23));
#100=IFCINDEXEDPOLYGONALFACE((27,15,16));
#101=IFCINDEXEDPOLYGONALFACE((20,21,23));
#102=IFCINDEXEDPOLYGONALFACE((27,16,17));
#103=IFCINDEXEDPOLYGONALFACE((20,23,25));
#104=IFCINDEXEDPOLYGONALFACE((27,17,18));
#105=IFCINDEXEDPOLYGONALFACE((19,20,25));
#106=IFCINDEXEDPOLYGONALFACE((25,27,18));
#107=IFCINDEXEDPOLYGONALFACE((18,19,25));
#108=IFCCARTESIANPOINTLIST3D(((-1335.95478335023,144.180344148761,27.0000000000007),(-751.380376502523,67.9709339942582,27.0000000000007),(-314.393172847236,35.1249684483362,27.0000000000007),(117.930698176822,27.0098427563621,27.0000000000007),(545.591236569649,43.6255569183359,27.0000000000007),(968.588442331247,84.972110934258,27.0000000000007),(1327.63090037227,141.684204885563,27.0000000000007),(1332.6361556854,115.140062023393,27.0000000000007),(972.011025156377,58.1779790559597,27.0000000000007),(547.430249980845,16.6766364565199,27.0000000000007),(118.201674185574,7.105427357601E-15,27.0000000000007),(-315.659405081172,8.14398053644734,27.0000000000007),(-754.139492185299,41.1021580598049,27.0000000000007),(-1334.88149919187,116.811948442969,27.0000000000007),(-1335.95478335023,144.180344148761,6.95288600863837E-13),(-751.380376502523,67.9709339942582,6.95288600863837E-13),(-314.393172847236,35.1249684483362,6.96753307707892E-13),(117.930698176822,27.0098427563621,6.99682721396003E-13),(545.591236569649,43.6255569183359,7.04076841928169E-13),(968.588442331247,84.972110934258,7.0993566930439E-13),(1327.63090037227,141.684204885563,7.16221222296595E-13),(1332.6361556854,115.140062023393,7.1464912090621E-13),(972.011025156377,58.1779790559597,7.08335860963002E-13),(547.430249980845,16.6766364565199,7.02455099967106E-13),(118.201674185574,7.105427357601E-15,6.98044868186117E-13),(-315.659405081172,8.14398053644734,6.95105038420681E-13),(-754.139492185299,41.1021580598049,6.93635327684997E-13),(-1334.88149919187,116.811948442969,6.93635327684985E-13)));
#109=IFCPOLYGONALFACESET(#108,.T.,(#70,#71,#72,#73,#74,#75,#76,#77,#78,#79,#80,#81,#82,#83,#84,#85,#86,#87,#88,#89,#90,#91,#92,#93,#94,#95,#96,#97,#98,#99,#100,#101,#102,#103,#104,#105,#106,#107),$);
#110=IFCSHAPEREPRESENTATION(#12,'Body','Tessellation',(#109));
#111=IFCPRODUCTDEFINITIONSHAPE($,$,(#110));
#112=IFCBUILDINGELEMENTPROXY('3eCG81NvD9pQ8qHP6paO8U',$,'tsections_1_0_uncut',$,$,$,#155,$,$);
#113=IFCRELCONTAINEDINSPATIALSTRUCTURE('00cFD9AMTCQv2qMbJSijKA',$,$,$,(#112),#22);
#114=IFCINDEXEDPOLYGONALFACE((1,2,16,15));
#115=IFCINDEXEDPOLYGONALFACE((2,3,17,16));
#116=IFCINDEXEDPOLYGONALFACE((3,4,18,17));
#117=IFCINDEXEDPOLYGONALFACE((4,5,19,18));
#118=IFCINDEXEDPOLYGONALFACE((5,6,20,19));
#119=IFCINDEXEDPOLYGONALFACE((6,7,21,20));
#120=IFCINDEXEDPOLYGONALFACE((7,8,22,21));
#121=IFCINDEXEDPOLYGONALFACE((8,9,23,22));
#122=IFCINDEXEDPOLYGONALFACE((9,10,24,23));
#123=IFCINDEXEDPOLYGONALFACE((10,11,25,24));
#124=IFCINDEXEDPOLYGONALFACE((11,12,26,25));
#125=IFCINDEXEDPOLYGONALFACE((12,13,27,26));
#126=IFCINDEXEDPOLYGONALFACE((13,14,28,27));
#127=IFCINDEXEDPOLYGONALFACE((14,1,15,28));
#128=IFCINDEXEDPOLYGONALFACE((2,1,14));
#129=IFCINDEXEDPOLYGONALFACE((4,3,2));
#130=IFCINDEXEDPOLYGONALFACE((6,5,4));
#131=IFCINDEXEDPOLYGONALFACE((8,7,6));
#132=IFCINDEXEDPOLYGONALFACE((10,9,8));
#133=IFCINDEXEDPOLYGONALFACE((2,14,13));
#134=IFCINDEXEDPOLYGONALFACE((10,8,6));
#135=IFCINDEXEDPOLYGONALFACE((4,2,13));
#136=IFCINDEXEDPOLYGONALFACE((11,10,6));
#137=IFCINDEXEDPOLYGONALFACE((4,13,12));
#138=IFCINDEXEDPOLYGONALFACE((11,6,4));
#139=IFCINDEXEDPOLYGONALFACE((4,12,11));
#140=IFCINDEXEDPOLYGONALFACE((28,15,16));
#141=IFCINDEXEDPOLYGONALFACE((16,17,18));
#142=IFCINDEXEDPOLYGONALFACE((18,19,20));
#143=IFCINDEXEDPOLYGONALFACE((20,21,22));
#144=IFCINDEXEDPOLYGONALFACE((22,23,24));
#145=IFCINDEXEDPOLYGONALFACE((28,16,18));
#146=IFCINDEXEDPOLYGONALFACE((20,22,24));
#147=IFCINDEXEDPOLYGONALFACE((27,28,18));
#148=IFCINDEXEDPOLYGONALFACE((20,24,25));
#149=IFCINDEXEDPOLYGONALFACE((26,27,18));
#150=IFCINDEXEDPOLYGONALFACE((18,20,25));
#151=IFCINDEXEDPOLYGONALFACE((25,26,18));
#152=IFCCARTESIANPOINTLIST3D(((-1608.57243701288,194.180344148761,26.9999999999987),(-1609.34168721997,227.8537234171,26.9999999999994),(-915.540569488071,303.853840011874,26.9999999999995),(-389.998263944155,336.897894818605,26.9999999999994),(131.724996377191,344.992077510453,26.9999999999992),(649.613415586529,328.129935662734,26.999999999999),(1163.64886549958,286.307360938853,26.9999999999984),(1601.77764855585,228.952837599706,26.9999999999978),(1597.52603293342,201.692928568021,26.9999999999976),(1184.64707430741,255.742050160921,26.9999999999982),(672.528835120226,297.408638193889,26.9999999999986),(156.532341233214,314.209180067596,26.9999999999991),(-363.342407353621,306.143675782045,26.9999999999991),(-887.095410640281,273.212125337235,26.9999999999991),(-1590.51793984362,197.496996248103,-7.83639785868534E-13),(-1591.14659459812,225.015909836989,-6.0015407346027E-13),(-897.345476866227,301.016026431764,-5.04391892216955E-13),(-371.803171322311,334.060081238495,-6.44296566870527E-13),(149.920088999035,342.154263930343,-8.41451266733201E-13),(667.808508208373,325.292122082624,-1.20960249091113E-12),(1181.84395812142,283.469547358743,-1.57826639290299E-12),(1619.9727411777,226.115024019596,-2.24376782749347E-12),(1615.81012691081,199.425761318987,-2.42670232115468E-12),(1179.60415597284,256.528573342236,-1.76087848006527E-12),(667.485916785652,298.195161375203,-1.44810089845275E-12),(151.48942289864,314.995703248911,-9.07857122811606E-13),(-368.385325688196,306.93019896336,-9.35955017193162E-13),(-892.138328974856,273.998648518549,-6.79743298685292E-13)));
#153=IFCPOLYGONALFACESET(#152,.T.,(#114,#115,#116,#117,#118,#119,#120,#121,#122,#123,#124,#125,#126,#127,#128,#129,#130,#131,#132,#133,#134,#135,#136,#137,#138,#139,#140,#141,#142,#143,#144,#145,#146,#147,#148,#149,#150,#151),$);
#154=IFCSHAPEREPRESENTATION(#12,'Body','Tessellation',(#153));
#155=IFCPRODUCTDEFINITIONSHAPE($,$,(#154));
#156=IFCBUILDINGELEMENTPROXY('3qSb56qZbAGQp2kcoO1jK7',$,'tsections_1_0',$,$,$,#199,$,$);
#157=IFCRELCONTAINEDINSPATIALSTRUCTURE('0KF64FlNnDZxedzqSv57Ek',$,$,$,(#156),#22);
#158=IFCINDEXEDPOLYGONALFACE((1,2,16,15));
#159=IFCINDEXEDPOLYGONALFACE((2,3,17,16));
#160=IFCINDEXEDPOLYGONALFACE((3,4,18,17));
#161=IFCINDEXEDPOLYGONALFACE((4,5,19,18));
#162=IFCINDEXEDPOLYGONALFACE((5,6,20,19));
#163=IFCINDEXEDPOLYGONALFACE((6,7,21,20));
#164=IFCINDEXEDPOLYGONALFACE((7,8,22,21));
#165=IFCINDEXEDPOLYGONALFACE((8,9,23,22));
#166=IFCINDEXEDPOLYGONALFACE((9,10,24,23));
#167=IFCINDEXEDPOLYGONALFACE((10,11,25,24));
#168=IFCINDEXEDPOLYGONALFACE((11,12,26,25));
#169=IFCINDEXEDPOLYGONALFACE((12,13,27,26));
#170=IFCINDEXEDPOLYGONALFACE((13,14,28,27));
#171=IFCINDEXEDPOLYGONALFACE((14,1,15,28));
#172=IFCINDEXEDPOLYGONALFACE((2,1,14));
#173=IFCINDEXEDPOLYGONALFACE((4,3,2));
#174=IFCINDEXEDPOLYGONALFACE((6,5,4));
#175=IFCINDEXEDPOLYGONALFACE((8,7,6));
#176=IFCINDEXEDPOLYGONALFACE((10,9,8));
#177=IFCINDEXEDPOLYGONALFACE((2,14,13));
#178=IFCINDEXEDPOLYGONALFACE((10,8,6));
#179=IFCINDEXEDPOLYGONALFACE((4,2,13));
#180=IFCINDEXEDPOLYGONALFACE((11,10,6));
#181=IFCINDEXEDPOLYGONALFACE((4,13,12));
#182=IFCINDEXEDPOLYGONALFACE((11,6,4));
#183=IFCINDEXEDPOLYGONALFACE((4,12,11));
#184=IFCINDEXEDPOLYGONALFACE((28,15,16));
#185=IFCINDEXEDPOLYGONALFACE((16,17,18));
#186=IFCINDEXEDPOLYGONALFACE((18,19,20));
#187=IFCINDEXEDPOLYGONALFACE((20,21,22));
#188=IFCINDEXEDPOLYGONALFACE((22,23,24));
#189=IFCINDEXEDPOLYGONALFACE((28,16,18));
#190=IFCINDEXEDPOLYGONALFACE((20,22,24));
#191=IFCINDEXEDPOLYGONALFACE((27,28,18));
#192=IFCINDEXEDPOLYGONALFACE((20,24,25));
#193=IFCINDEXEDPOLYGONALFACE((26,27,18));
#194=IFCINDEXEDPOLYGONALFACE((18,20,25));
#195=IFCINDEXEDPOLYGONALFACE((25,26,18));
#196=IFCCARTESIANPOINTLIST3D(((-1608.57243701288,194.180344148761,26.9999999999987),(-1609.34168721997,227.8537234171,26.9999999999994),(-915.540569488071,303.853840011874,26.9999999999995),(-389.998263944155,336.897894818605,26.9999999999994),(131.724996377191,344.992077510453,26.9999999999992),(649.613415586529,328.129935662734,26.999999999999),(1163.64886549958,286.307360938853,26.9999999999984),(1601.77764855585,228.952837599706,26.9999999999978),(1597.52603293342,201.692928568021,26.9999999999976),(1184.64707430741,255.742050160921,26.9999999999982),(672.528835120226,297.408638193889,26.9999999999986),(156.532341233214,314.209180067596,26.9999999999991),(-363.342407353621,306.143675782045,26.9999999999991),(-887.095410640281,273.212125337235,26.9999999999991),(-1590.51793984362,197.496996248103,-7.83639785868534E-13),(-1591.14659459812,225.015909836989,-6.0015407346027E-13),(-897.345476866227,301.016026431764,-5.04391892216955E-13),(-371.803171322311,334.060081238495,-6.44296566870527E-13),(149.920088999035,342.154263930343,-8.41451266733201E-13),(667.808508208373,325.292122082624,-1.20960249091113E-12),(1181.84395812142,283.469547358743,-1.57826639290299E-12),(1619.9727411777,226.115024019596,-2.24376782749347E-12),(1615.81012691081,199.425761318987,-2.42670232115468E-12),(1179.60415597284,256.528573342236,-1.76087848006527E-12),(667.485916785652,298.195161375203,-1.44810089845275E-12),(151.48942289864,314.995703248911,-9.07857122811606E-13),(-368.385325688196,306.93019896336,-9.35955017193162E-13),(-892.138328974856,273.998648518549,-6.79743298685292E-13)));
#197=IFCPOLYGONALFACESET(#196,.T.,(#158,#159,#160,#161,#162,#163,#164,#165,#166,#167,#168,#169,#170,#171,#172,#173,#174,#175,#176,#177,#178,#179,#180,#181,#182,#183,#184,#185,#186,#187,#188,#189,#190,#191,#192,#193,#194,#195),$);
#198=IFCSHAPEREPRESENTATION(#12,'Body','Tessellation',(#197));
#199=IFCPRODUCTDEFINITIONSHAPE($,$,(#198));
#200=IFCBUILDINGELEMENTPROXY('0Gh4Dg14HBk9BkaGLFumFZ',$,'tsections_2_0_uncut',$,$,$,#243,$,$);
#201=IFCRELCONTAINEDINSPATIALSTRUCTURE('2soQ51klvDox7cFhzcJhuz',$,$,$,(#200),#22);
#202=IFCINDEXEDPOLYGONALFACE((1,2,16,15));
#203=IFCINDEXEDPOLYGONALFACE((2,3,17,16));
#204=IFCINDEXEDPOLYGONALFACE((3,4,18,17));
#205=IFCINDEXEDPOLYGONALFACE((4,5,19,18));
#206=IFCINDEXEDPOLYGONALFACE((5,6,20,19));
#207=IFCINDEXEDPOLYGONALFACE((6,7,21,20));
#208=IFCINDEXEDPOLYGONALFACE((7,8,22,21));
#209=IFCINDEXEDPOLYGONALFACE((8,9,23,22));
#210=IFCINDEXEDPOLYGONALFACE((9,10,24,23));
#211=IFCINDEXEDPOLYGONALFACE((10,11,25,24));
#212=IFCINDEXEDPOLYGONALFACE((11,12,26,25));
#213=IFCINDEXEDPOLYGONALFACE((12,13,27,26));
#214=IFCINDEXEDPOLYGONALFACE((13,14,28,27));
#215=IFCINDEXEDPOLYGONALFACE((14,1,15,28));
#216=IFCINDEXEDPOLYGONALFACE((1,14,13));
#217=IFCINDEXEDPOLYGONALFACE((13,12,11));
#218=IFCINDEXEDPOLYGONALFACE((11,10,9));
#219=IFCINDEXEDPOLYGONALFACE((9,8,7));
#220=IFCINDEXEDPOLYGONALFACE((2,1,13));
#221=IFCINDEXEDPOLYGONALFACE((9,7,6));
#222=IFCINDEXEDPOLYGONALFACE((3,2,13));
#223=IFCINDEXEDPOLYGONALFACE((11,9,6));
#224=IFCINDEXEDPOLYGONALFACE((4,3,13));
#225=IFCINDEXEDPOLYGONALFACE((11,6,5));
#226=IFCINDEXEDPOLYGONALFACE((4,13,11));
#227=IFCINDEXEDPOLYGONALFACE((11,5,4));
#228=IFCINDEXEDPOLYGONALFACE((27,28,15));
#229=IFCINDEXEDPOLYGONALFACE((25,26,27));
#230=IFCINDEXEDPOLYGONALFACE((23,24,25));
#231=IFCINDEXEDPOLYGONALFACE((21,22,23));
#232=IFCINDEXEDPOLYGONALFACE((27,15,16));
#233=IFCINDEXEDPOLYGONALFACE((20,21,23));
#234=IFCINDEXEDPOLYGONALFACE((27,16,17));
#235=IFCINDEXEDPOLYGONALFACE((20,23,25));
#236=IFCINDEXEDPOLYGONALFACE((27,17,18));
#237=IFCINDEXEDPOLYGONALFACE((19,20,25));
#238=IFCINDEXEDPOLYGONALFACE((25,27,18));
#239=IFCINDEXEDPOLYGONALFACE((18,19,25));
#240=IFCCARTESIANPOINTLIST3D(((-1616.29668713513,540.209059326327,26.9999999999973),(-917.941715169865,463.482813435596,26.9999999999979),(-394.199329692895,430.382826707684,26.9999999999986),(125.672798158735,422.150132092598,26.9999999999996),(641.674668385023,438.784729590337,27.000000000001),(1153.80628098597,480.286619200902,27.0000000000031),(1590.03059352409,537.249145246961,27.0000000000052),(1594.18462435875,510.558545237565,27.0000000000045),(1156.03741885188,453.344926261404,27.0000000000024),(641.988545459188,411.687666539374,27.0000000000005),(124.094730197973,394.992077510453,26.9999999999989),(-397.625900069652,403.25404500827,26.9999999999977),(-923.157551530157,436.467111528543,26.9999999999974),(-1616.93419188826,512.690349334711,26.9999999999972),(-1611.25351611695,540.993960673866,-2.01431723038132E-12),(-912.89854415169,464.267714783135,-2.11643087314842E-12),(-389.156158674719,431.167728055223,-1.35879733390945E-12),(130.71596917691,422.935033440137,-5.42153127947032E-13),(646.717839403198,439.569630937876,1.12930960879018E-12),(1158.84945200415,481.071520548441,3.03031326883327E-12),(1595.07376454227,538.0340465945,5.25410931953508E-12),(1599.22779537693,511.343446585104,4.66715464140354E-12),(1161.08058987006,454.129827608943,2.3661707339483E-12),(647.031716477364,412.472567886913,4.11208679360491E-13),(129.137901216149,395.776978857992,-1.0850145061844E-12),(-392.582729051476,404.038946355809,-2.00895188092636E-12),(-918.114380511981,437.252012876083,-2.64500037912163E-12),(-1611.89102087008,513.47525068225,-2.56740633479227E-12)));
#241=IFCPOLYGONALFACESET(#240,.T.,(#202,#203,#204,#205,#206,#207,#208,#209,#210,#211,#212,#213,#214,#215,#216,#217,#218,#219,#220,#221,#222,#223,#224,#225,#226,#227,#228,#229,#230,#231,#232,#233,#234,#235,#236,#237,#238,#239),$);
#242=IFCSHAPEREPRESENTATION(#12,'Body','Tessellation',(#241));
#243=IFCPRODUCTDEFINITIONSHAPE($,$,(#242));
#244=IFCBUILDINGELEMENTPROXY('3E3Y3Qw1vDOO89laljMcFu',$,'tsections_2_0',$,$,$,#287,$,$);
#245=IFCRELCONTAINEDINSPATIALSTRUCTURE('383Qj$BQT4H9l$KkcwM6o1',$,$,$,(#244),#22);
#246=IFCINDEXEDPOLYGONALFACE((1,2,16,15));
#247=IFCINDEXEDPOLYGONALFACE((2,3,17,16));
#248=IFCINDEXEDPOLYGONALFACE((3,4,18,17));
#249=IFCINDEXEDPOLYGONALFACE((4,5,19,18));
#250=IFCINDEXEDPOLYGONALFACE((5,6,20,19));
#251=IFCINDEXEDPOLYGONALFACE((6,7,21,20));
#252=IFCINDEXEDPOLYGONALFACE((7,8,22,21));
#253=IFCINDEXEDPOLYGONALFACE((8,9,23,22));
#254=IFCINDEXEDPOLYGONALFACE((9,10,24,23));
#255=IFCINDEXEDPOLYGONALFACE((10,11,25,24));
#256=IFCINDEXEDPOLYGONALFACE((11,12,26,25));
#257=IFCINDEXEDPOLYGONALFACE((12,13,27,26));
#258=IFCINDEXEDPOLYGONALFACE((13,14,28,27));
#259=IFCINDEXEDPOLYGONALFACE((14,1,15,28));
#260=IFCINDEXEDPOLYGONALFACE((1,14,13));
#261=IFCINDEXEDPOLYGONALFACE((13,12,11));
#262=IFCINDEXEDPOLYGONALFACE((11,10,9));
#263=IFCINDEXEDPOLYGONALFACE((9,8,7));
#264=IFCINDEXEDPOLYGONALFACE((2,1,13));
#265=IFCINDEXEDPOLYGONALFACE((9,7,6));
#266=IFCINDEXEDPOLYGONALFACE((3,2,13));
#267=IFCINDEXEDPOLYGONALFACE((11,9,6));
#268=IFCINDEXEDPOLYGONALFACE((4,3,13));
#269=IFCINDEXEDPOLYGONALFACE((11,6,5));
#270=IFCINDEXEDPOLYGONALFACE((4,13,11));
#271=IFCINDEXEDPOLYGONALFACE((11,5,4));
#272=IFCINDEXEDPOLYGONALFACE((27,28,15));
#273=IFCINDEXEDPOLYGONALFACE((25,26,27));
#274=IFCINDEXEDPOLYGONALFACE((23,24,25));
#275=IFCINDEXEDPOLYGONALFACE((21,22,23));
#276=IFCINDEXEDPOLYGONALFACE((27,15,16));
#277=IFCINDEXEDPOLYGONALFACE((20,21,23));
#278=IFCINDEXEDPOLYGONALFACE((27,16,17));
#279=IFCINDEXEDPOLYGONALFACE((20,23,25));
#280=IFCINDEXEDPOLYGONALFACE((27,17,18));
#281=IFCINDEXEDPOLYGONALFACE((19,20,25));
#282=IFCINDEXEDPOLYGONALFACE((25,27,18));
#283=IFCINDEXEDPOLYGONALFACE((18,19,25));
#284=IFCCARTESIANPOINTLIST3D(((-1616.29668713513,540.209059326327,26.9999999999973),(-917.941715169865,463.482813435596,26.9999999999979),(-394.199329692895,430.382826707684,26.9999999999986),(125.672798158735,422.150132092598,26.9999999999996),(641.674668385023,438.784729590337,27.000000000001),(1153.80628098597,480.286619200902,27.0000000000031),(1590.03059352409,537.249145246961,27.0000000000052),(1594.18462435875,510.558545237565,27.0000000000045),(1156.03741885188,453.344926261404,27.0000000000024),(641.988545459188,411.687666539374,27.0000000000005),(124.094730197973,394.992077510453,26.9999999999989),(-397.625900069652,403.25404500827,26.9999999999977),(-923.157551530157,436.467111528543,26.9999999999974),(-1616.93419188826,512.690349334711,26.9999999999972),(-1611.25351611695,540.993960673866,-2.01431723038132E-12),(-912.89854415169,464.267714783135,-2.11643087314842E-12),(-389.156158674719,431.167728055223,-1.35879733390945E-12),(130.71596917691,422.935033440137,-5.42153127947032E-13),(646.717839403198,439.569630937876,1.12930960879018E-12),(1158.84945200415,481.071520548441,3.03031326883327E-12),(1595.07376454227,538.0340465945,5.25410931953508E-12),(1599.22779537693,511.343446585104,4.66715464140354E-12),(1161.08058987006,454.129827608943,2.3661707339483E-12),(647.031716477364,412.472567886913,4.11208679360491E-13),(129.137901216149,395.776978857992,-1.0850145061844E-12),(-392.582729051476,404.038946355809,-2.00895188092636E-12),(-918.114380511981,437.252012876083,-2.64500037912163E-12),(-1611.89102087008,513.47525068225,-2.56740633479227E-12)));
#285=IFCPOLYGONALFACESET(#284,.T.,(#246,#247,#248,#249,#250,#251,#252,#253,#254,#255,#256,#257,#258,#259,#260,#261,#262,#263,#264,#265,#266,#267,#268,#269,#270,#271,#272,#273,#274,#275,#276,#277,#278,#279,#280,#281,#282,#283),$);
#286=IFCSHAPEREPRESENTATION(#12,'Body','Tessellation',(#285));
#287=IFCPRODUCTDEFINITIONSHAPE($,$,(#286));
#288=IFCBUILDINGELEMENTPROXY('2UPuUjfu54bBpJhvJrqvfj',$,'tsections_3_0_uncut',$,$,$,#331,$,$);
#289=IFCRELCONTAINEDINSPATIALSTRUCTURE('1RyX9Vp1LAdhAfQ1ekcV2K',$,$,$,(#288),#22);
#290=IFCINDEXEDPOLYGONALFACE((1,2,16,15));
#291=IFCINDEXEDPOLYGONALFACE((2,3,17,16));
#292=IFCINDEXEDPOLYGONALFACE((3,4,18,17));
#293=IFCINDEXEDPOLYGONALFACE((4,5,19,18));
#294=IFCINDEXEDPOLYGONALFACE((5,6,20,19));
#295=IFCINDEXEDPOLYGONALFACE((6,7,21,20));
#296=IFCINDEXEDPOLYGONALFACE((7,8,22,21));
#297=IFCINDEXEDPOLYGONALFACE((8,9,23,22));
#298=IFCINDEXEDPOLYGONALFACE((9,10,24,23));
#299=IFCINDEXEDPOLYGONALFACE((10,11,25,24));
#300=IFCINDEXEDPOLYGONALFACE((11,12,26,25));
#301=IFCINDEXEDPOLYGONALFACE((12,13,27,26));
#302=IFCINDEXEDPOLYGONALFACE((13,14,28,27));
#303=IFCINDEXEDPOLYGONALFACE((14,1,15,28));
#304=IFCINDEXEDPOLYGONALFACE((2,1,14));
#305=IFCINDEXEDPOLYGONALFACE((4,3,2));
#306=IFCINDEXEDPOLYGONALFACE((6,5,4));
#307=IFCINDEXEDPOLYGONALFACE((8,7,6));
#308=IFCINDEXEDPOLYGONALFACE((10,9,8));
#309=IFCINDEXEDPOLYGONALFACE((4,2,14));
#310=IFCINDEXEDPOLYGONALFACE((10,8,6));
#311=IFCINDEXEDPOLYGONALFACE((4,14,13));
#312=IFCINDEXEDPOLYGONALFACE((11,10,6));
#313=IFCINDEXEDPOLYGONALFACE((4,13,12));
#314=IFCINDEXEDPOLYGONALFACE((11,6,4));
#315=IFCINDEXEDPOLYGONALFACE((4,12,11));
#316=IFCINDEXEDPOLYGONALFACE((28,15,16));
#317=IFCINDEXEDPOLYGONALFACE((16,17,18));
#318=IFCINDEXEDPOLYGONALFACE((18,19,20));
#319=IFCINDEXEDPOLYGONALFACE((20,21,22));
#320=IFCINDEXEDPOLYGONALFACE((22,23,24));
#321=IFCINDEXEDPOLYGONALFACE((28,16,18));
#322=IFCINDEXEDPOLYGONALFACE((20,22,24));
#323=IFCINDEXEDPOLYGONALFACE((27,28,18));
#324=IFCINDEXEDPOLYGONALFACE((20,24,25));
#325=IFCINDEXEDPOLYGONALFACE((26,27,18));
#326=IFCINDEXEDPOLYGONALFACE((18,20,25));
#327=IFCINDEXEDPOLYGONALFACE((25,26,18));
#328=IFCCARTESIANPOINTLIST3D(((-1592.19205900997,591.778862021405,26.9999999999981),(-1592.8295637631,619.297572013021,26.9999999999982),(-899.052923404999,695.520809819188,26.9999999999986),(-373.521271944495,728.733876339462,26.9999999999985),(148.199358323131,736.995843837278,26.9999999999993),(666.093173584346,720.300254808357,26.9999999999996),(1180.14204697704,678.642995086328,27.0000000000003),(1618.28925248391,621.429376110167,27.0000000000009),(1614.13522164925,594.73877610077,27.0000000000012),(1177.91090911113,651.70130214683,27.0000000000004),(665.77929651018,693.203191757394,26.9999999999998),(149.777426283892,709.837789255134,26.9999999999994),(-370.094701567737,701.605094640047,26.999999999999),(-893.837087044707,668.505107912135,26.9999999999987),(-1587.1488879918,590.993960673866,-1.42944348116201E-12),(-1587.78639274492,618.512670665482,-1.6046572966994E-12),(-894.009752386824,694.73590847165,-1.41747639207686E-12),(-368.478100926319,727.948974991923,-1.01550340960992E-12),(153.242529341306,736.210942489739,-9.05047085148884E-13),(671.136344602521,719.515353460818,-2.90242582910475E-13),(1185.18521799521,677.858093738789,3.17363645181363E-13),(1623.33242350209,620.644474762628,1.02170407359509E-12),(1619.17839266742,593.953874753232,1.23191865719893E-12),(1182.9540801293,650.916400799291,4.91743220217475E-13),(670.822467528356,692.418290409856,-1.16776958473478E-13),(154.820597302067,709.052887907595,-6.19386486544461E-13),(-365.051530549562,700.820193292509,-7.3186826969143E-13),(-888.793916026532,667.720206564597,-1.2500301719657E-12)));
#329=IFCPOLYGONALFACESET(#328,.T.,(#290,#291,#292,#293,#294,#295,#296,#297,#298,#299,#300,#301,#302,#303,#304,#305,#306,#307,#308,#309,#310,#311,#312,#313,#314,#315,#316,#317,#318,#319,#320,#321,#322,#323,#324,#325,#326,#327),$);
#330=IFCSHAPEREPRESENTATION(#12,'Body','Tessellation',(#329));
#331=IFCPRODUCTDEFINITIONSHAPE($,$,(#330));
#332=IFCBUILDINGELEMENTPROXY('1$CCqDA_n4WeM0Bb3aPSXK',$,'tsections_3_0',$,$,$,#375,$,$);
#333=IFCRELCONTAINEDINSPATIALSTRUCTURE('2BVnvOFTz5GAL3MYA$__Vp',$,$,$,(#332),#22);
#334=IFCINDEXEDPOLYGONALFACE((1,2,16,15));
#335=IFCINDEXEDPOLYGONALFACE((2,3,17,16));
#336=IFCINDEXEDPOLYGONALFACE((3,4,18,17));
#337=IFCINDEXEDPOLYGONALFACE((4,5,19,18));
#338=IFCINDEXEDPOLYGONALFACE((5,6,20,19));
#339=IFCINDEXEDPOLYGONALFACE((6,7,21,20));
#340=IFCINDEXEDPOLYGONALFACE((7,8,22,21));
#341=IFCINDEXEDPOLYGONALFACE((8,9,23,22));
#342=IFCINDEXEDPOLYGONALFACE((9,10,24,23));
#343=IFCINDEXEDPOLYGONALFACE((10,11,25,24));
#344=IFCINDEXEDPOLYGONALFACE((11,12,26,25));
#345=IFCINDEXEDPOLYGONALFACE((12,13,27,26));
#346=IFCINDEXEDPOLYGONALFACE((13,14,28,27));
#347=IFCINDEXEDPOLYGONALFACE((14,1,15,28));
#348=IFCINDEXEDPOLYGONALFACE((2,1,14));
#349=IFCINDEXEDPOLYGONALFACE((4,3,2));
#350=IFCINDEXEDPOLYGONALFACE((6,5,4));
#351=IFCINDEXEDPOLYGONALFACE((8,7,6));
#352=IFCINDEXEDPOLYGONALFACE((10,9,8));
#353=IFCINDEXEDPOLYGONALFACE((4,2,14));
#354=IFCINDEXEDPOLYGONALFACE((10,8,6));
#355=IFCINDEXEDPOLYGONALFACE((4,14,13));
#356=IFCINDEXEDPOLYGONALFACE((11,10,6));
#357=IFCINDEXEDPOLYGONALFACE((4,13,12));
#358=IFCINDEXEDPOLYGONALFACE((11,6,4));
#359=IFCINDEXEDPOLYGONALFACE((4,12,11));
#360=IFCINDEXEDPOLYGONALFACE((28,15,16));
#361=IFCINDEXEDPOLYGONALFACE((16,17,18));
#362=IFCINDEXEDPOLYGONALFACE((18,19,20));
#363=IFCINDEXEDPOLYGONALFACE((20,21,22));
#364=IFCINDEXEDPOLYGONALFACE((22,23,24));
#365=IFCINDEXEDPOLYGONALFACE((28,16,18));
#366=IFCINDEXEDPOLYGONALFACE((20,22,24));
#367=IFCINDEXEDPOLYGONALFACE((27,28,18));
#368=IFCINDEXEDPOLYGONALFACE((20,24,25));
#369=IFCINDEXEDPOLYGONALFACE((26,27,18));
#370=IFCINDEXEDPOLYGONALFACE((18,20,25));
#371=IFCINDEXEDPOLYGONALFACE((25,26,18));
#372=IFCCARTESIANPOINTLIST3D(((-1592.19205900997,591.778862021405,26.9999999999981),(-1592.8295637631,619.297572013021,26.9999999999982),(-899.052923404999,695.520809819188,26.9999999999986),(-373.521271944495,728.733876339462,26.9999999999985),(148.199358323131,736.995843837278,26.9999999999993),(666.093173584346,720.300254808357,26.9999999999996),(1180.14204697704,678.642995086328,27.0000000000003),(1618.28925248391,621.429376110167,27.0000000000009),(1614.13522164925,594.73877610077,27.0000000000012),(1177.91090911113,651.70130214683,27.0000000000004),(665.77929651018,693.203191757394,26.9999999999998),(149.777426283892,709.837789255134,26.9999999999994),(-370.094701567737,701.605094640047,26.999999999999),(-893.837087044707,668.505107912135,26.9999999999987),(-1587.1488879918,590.993960673866,-1.42944348116201E-12),(-1587.78639274492,618.512670665482,-1.6046572966994E-12),(-894.009752386824,694.73590847165,-1.41747639207686E-12),(-368.478100926319,727.948974991923,-1.01550340960992E-12),(153.242529341306,736.210942489739,-9.05047085148884E-13),(671.136344602521,719.515353460818,-2.90242582910475E-13),(1185.18521799521,677.858093738789,3.17363645181363E-13),(1623.33242350209,620.644474762628,1.02170407359509E-12),(1619.17839266742,593.953874753232,1.23191865719893E-12),(1182.9540801293,650.916400799291,4.91743220217475E-13),(670.822467528356,692.418290409856,-1.16776958473478E-13),(154.820597302067,709.052887907595,-6.19386486544461E-13),(-365.051530549562,700.820193292509,-7.3186826969143E-13),(-888.793916026532,667.720206564597,-1.2500301719657E-12)));
#373=IFCPOLYGONALFACESET(#372,.T.,(#334,#335,#336,#337,#338,#339,#340,#341,#342,#343,#344,#345,#346,#347,#348,#349,#350,#351,#352,#353,#354,#355,#356,#357,#358,#359,#360,#361,#362,#363,#364,#365,#366,#367,#368,#369,#370,#371),$);
#374=IFCSHAPEREPRESENTATION(#12,'Body','Tessellation',(#373));
#375=IFCPRODUCTDEFINITIONSHAPE($,$,(#374));
#376=IFCBUILDINGELEMENTPROXY('39FxaV5mv9NfFxKinmFeqt',$,'tsections_4_0_uncut',$,$,$,#419,$,$);
#377=IFCRELCONTAINEDINSPATIALSTRUCTURE('1$W$WehVHERw6o71vwiuRp',$,$,$,(#376),#22);
#378=IFCINDEXEDPOLYGONALFACE((1,2,16,15));
#379=IFCINDEXEDPOLYGONALFACE((2,3,17,16));
#380=IFCINDEXEDPOLYGONALFACE((3,4,18,17));
#381=IFCINDEXEDPOLYGONALFACE((4,5,19,18));
#382=IFCINDEXEDPOLYGONALFACE((5,6,20,19));
#383=IFCINDEXEDPOLYGONALFACE((6,7,21,20));
#384=IFCINDEXEDPOLYGONALFACE((7,8,22,21));
#385=IFCINDEXEDPOLYGONALFACE((8,9,23,22));
#386=IFCINDEXEDPOLYGONALFACE((9,10,24,23));
#387=IFCINDEXEDPOLYGONALFACE((10,11,25,24));
#388=IFCINDEXEDPOLYGONALFACE((11,12,26,25));
#389=IFCINDEXEDPOLYGONALFACE((12,13,27,26));
#390=IFCINDEXEDPOLYGONALFACE((13,14,28,27));
#391=IFCINDEXEDPOLYGONALFACE((14,1,15,28));
#392=IFCINDEXEDPOLYGONALFACE((1,14,13));
#393=IFCINDEXEDPOLYGONALFACE((13,12,11));
#394=IFCINDEXEDPOLYGONALFACE((11,10,9));
#395=IFCINDEXEDPOLYGONALFACE((9,8,7));
#396=IFCINDEXEDPOLYGONALFACE((2,1,13));
#397=IFCINDEXEDPOLYGONALFACE((9,7,6));
#398=IFCINDEXEDPOLYGONALFACE((3,2,13));
#399=IFCINDEXEDPOLYGONALFACE((11,9,6));
#400=IFCINDEXEDPOLYGONALFACE((4,3,13));
#401=IFCINDEXEDPOLYGONALFACE((11,6,5));
#402=IFCINDEXEDPOLYGONALFACE((4,13,11));
#403=IFCINDEXEDPOLYGONALFACE((11,5,4));
#404=IFCINDEXEDPOLYGONALFACE((27,28,15));
#405=IFCINDEXEDPOLYGONALFACE((25,26,27));
#406=IFCINDEXEDPOLYGONALFACE((23,24,25));
#407=IFCINDEXEDPOLYGONALFACE((21,22,23));
#408=IFCINDEXEDPOLYGONALFACE((27,15,16));
#409=IFCINDEXEDPOLYGONALFACE((20,21,23));
#410=IFCINDEXEDPOLYGONALFACE((27,16,17));
#411=IFCINDEXEDPOLYGONALFACE((20,23,25));
#412=IFCINDEXEDPOLYGONALFACE((27,17,18));
#413=IFCINDEXEDPOLYGONALFACE((19,20,25));
#414=IFCINDEXEDPOLYGONALFACE((25,27,18));
#415=IFCINDEXEDPOLYGONALFACE((18,19,25));
#416=IFCCARTESIANPOINTLIST3D(((-1631.10467087045,937.807577198971,26.9999999999986),(-909.627644497855,858.775796010497,26.9999999999983),(-385.874641211195,825.844245565686,26.9999999999989),(134.00010737564,817.778741280135,26.9999999999997),(649.996601262652,834.579283153843,27.0000000000008),(1162.11484044984,876.24587118681,27.0000000000021),(1574.99379907584,930.29499277971,27.0000000000035),(1579.24541469828,903.035083748025,27.0000000000031),(1141.116631642,845.680560408878,27.0000000000017),(627.081181728955,803.857985684997,27.0000000000003),(109.192762519617,786.995843837278,26.9999999999993),(-412.530497801728,795.090026529126,26.9999999999984),(-938.072803345645,828.134081335857,26.9999999999982),(-1631.87392107754,904.134197930632,26.9999999999984),(-1613.0501737012,934.490925099629,-1.2390646564411E-12),(-914.67056283243,857.989272829183,-1.22456905726763E-12),(-390.91755954577,825.057722384372,-1.05634945235521E-12),(128.957189041066,816.992218098821,-4.32869018407432E-13),(644.953682928078,833.792759972529,7.02715663436506E-13),(1157.07192211527,875.459348005496,2.03776578944216E-12),(1593.27789305324,932.562160028744,3.59648739049003E-12),(1597.44050732012,905.872897328136,3.22986867163621E-12),(1159.31172426385,848.518373988989,1.67179320492432E-12),(645.276274350799,806.695799265107,3.38661198416374E-13),(127.387855141461,789.833657417389,-6.80105653096517E-13),(-394.335405179885,797.927840109237,-1.64039574485541E-12),(-919.877710723801,830.971894915968,-1.80336419895274E-12),(-1613.6788284557,906.972011510743,-1.60678807188226E-12)));
#417=IFCPOLYGONALFACESET(#416,.T.,(#378,#379,#380,#381,#382,#383,#384,#385,#386,#387,#388,#389,#390,#391,#392,#393,#394,#395,#396,#397,#398,#399,#400,#401,#402,#403,#404,#405,#406,#407,#408,#409,#410,#411,#412,#413,#414,#415),$);
#418=IFCSHAPEREPRESENTATION(#12,'Body','Tessellation',(#417));
#419=IFCPRODUCTDEFINITIONSHAPE($,$,(#418));
#420=IFCBUILDINGELEMENTPROXY('3NNpeO9GP82wEIBbAgsrLR',$,'tsections_4_0',$,$,$,#463,$,$);
#421=IFCRELCONTAINEDINSPATIALSTRUCTURE('3Oc_I6BHTAqPGDINBwlFzP',$,$,$,(#420),#22);
#422=IFCINDEXEDPOLYGONALFACE((1,2,16,15));
#423=IFCINDEXEDPOLYGONALFACE((2,3,17,16));
#424=IFCINDEXEDPOLYGONALFACE((3,4,18,17));
#425=IFCINDEXEDPOLYGONALFACE((4,5,19,18));
#426=IFCINDEXEDPOLYGONALFACE((5,6,20,19));
#427=IFCINDEXEDPOLYGONALFACE((6,7,21,20));
#428=IFCINDEXEDPOLYGONALFACE((7,8,22,21));
#429=IFCINDEXEDPOLYGONALFACE((8,9,23,22));
#430=IFCINDEXEDPOLYGONALFACE((9,10,24,23));
#431=IFCINDEXEDPOLYGONALFACE((10,11,25,24));
#432=IFCINDEXEDPOLYGONALFACE((11,12,26,25));
#433=IFCINDEXEDPOLYGONALFACE((12,13,27,26));
#434=IFCINDEXEDPOLYGONALFACE((13,14,28,27));
#435=IFCINDEXEDPOLYGONALFACE((14,1,15,28));
#436=IFCINDEXEDPOLYGONALFACE((1,14,13));
#437=IFCINDEXEDPOLYGONALFACE((13,12,11));
#438=IFCINDEXEDPOLYGONALFACE((11,10,9));
#439=IFCINDEXEDPOLYGONALFACE((9,8,7));
#440=IFCINDEXEDPOLYGONALFACE((2,1,13));
#441=IFCINDEXEDPOLYGONALFACE((9,7,6));
#442=IFCINDEXEDPOLYGONALFACE((3,2,13));
#443=IFCINDEXEDPOLYGONALFACE((11,9,6));
#444=IFCINDEXEDPOLYGONALFACE((4,3,13));
#445=IFCINDEXEDPOLYGONALFACE((11,6,5));
#446=IFCINDEXEDPOLYGONALFACE((4,13,11));
#447=IFCINDEXEDPOLYGONALFACE((11,5,4));
#448=IFCINDEXEDPOLYGONALFACE((27,28,15));
#449=IFCINDEXEDPOLYGONALFACE((25,26,27));
#450=IFCINDEXEDPOLYGONALFACE((23,24,25));
#451=IFCINDEXEDPOLYGONALFACE((21,22,23));
#452=IFCINDEXEDPOLYGONALFACE((27,15,16));
#453=IFCINDEXEDPOLYGONALFACE((20,21,23));
#454=IFCINDEXEDPOLYGONALFACE((27,16,17));
#455=IFCINDEXEDPOLYGONALFACE((20,23,25));
#456=IFCINDEXEDPOLYGONALFACE((27,17,18));
#457=IFCINDEXEDPOLYGONALFACE((19,20,25));
#458=IFCINDEXEDPOLYGONALFACE((25,27,18));
#459=IFCINDEXEDPOLYGONALFACE((18,19,25));
#460=IFCCARTESIANPOINTLIST3D(((-1631.10467087045,937.807577198971,26.9999999999986),(-909.627644497855,858.775796010497,26.9999999999983),(-385.874641211195,825.844245565686,26.9999999999989),(134.00010737564,817.778741280135,26.9999999999997),(649.996601262652,834.579283153843,27.0000000000008),(1162.11484044984,876.24587118681,27.0000000000021),(1574.99379907584,930.29499277971,27.0000000000035),(1579.24541469828,903.035083748025,27.0000000000031),(1141.116631642,845.680560408878,27.0000000000017),(627.081181728955,803.857985684997,27.0000000000003),(109.192762519617,786.995843837278,26.9999999999993),(-412.530497801728,795.090026529126,26.9999999999984),(-938.072803345645,828.134081335857,26.9999999999982),(-1631.87392107754,904.134197930632,26.9999999999984),(-1613.0501737012,934.490925099629,-1.2390646564411E-12),(-914.67056283243,857.989272829183,-1.22456905726763E-12),(-390.91755954577,825.057722384372,-1.05634945235521E-12),(128.957189041066,816.992218098821,-4.32869018407432E-13),(644.953682928078,833.792759972529,7.02715663436506E-13),(1157.07192211527,875.459348005496,2.03776578944216E-12),(1593.27789305324,932.562160028744,3.59648739049003E-12),(1597.44050732012,905.872897328136,3.22986867163621E-12),(1159.31172426385,848.518373988989,1.67179320492432E-12),(645.276274350799,806.695799265107,3.38661198416374E-13),(127.387855141461,789.833657417389,-6.80105653096517E-13),(-394.335405179885,797.927840109237,-1.64039574485541E-12),(-919.877710723801,830.971894915968,-1.80336419895274E-12),(-1613.6788284557,906.972011510743,-1.60678807188226E-12)));
#461=IFCPOLYGONALFACESET(#460,.T.,(#422,#423,#424,#425,#426,#427,#428,#429,#430,#431,#432,#433,#434,#435,#436,#437,#438,#439,#440,#441,#442,#443,#444,#445,#446,#447,#448,#449,#450,#451,#452,#453,#454,#455,#456,#457,#458,#459),$);
#462=IFCSHAPEREPRESENTATION(#12,'Body','Tessellation',(#461));
#463=IFCPRODUCTDEFINITIONSHAPE($,$,(#462));
#464=IFCBUILDINGELEMENTPROXY('0bsSM4KGbAOvhwCdsbW8Hu',$,'tsections_5_0_uncut',$,$,$,#507,$,$);
#465=IFCRELCONTAINEDINSPATIALSTRUCTURE('2tfrg$5Df3IRkHVr77km1B',$,$,$,(#464),#22);
#466=IFCINDEXEDPOLYGONALFACE((1,2,16,15));
#467=IFCINDEXEDPOLYGONALFACE((2,3,17,16));
#468=IFCINDEXEDPOLYGONALFACE((3,4,18,17));
#469=IFCINDEXEDPOLYGONALFACE((4,5,19,18));
#470=IFCINDEXEDPOLYGONALFACE((5,6,20,19));
#471=IFCINDEXEDPOLYGONALFACE((6,7,21,20));
#472=IFCINDEXEDPOLYGONALFACE((7,8,22,21));
#473=IFCINDEXEDPOLYGONALFACE((8,9,23,22));
#474=IFCINDEXEDPOLYGONALFACE((9,10,24,23));
#475=IFCINDEXEDPOLYGONALFACE((10,11,25,24));
#476=IFCINDEXEDPOLYGONALFACE((11,12,26,25));
#477=IFCINDEXEDPOLYGONALFACE((12,13,27,26));
#478=IFCINDEXEDPOLYGONALFACE((13,14,28,27));
#479=IFCINDEXEDPOLYGONALFACE((14,1,15,28));
#480=IFCINDEXEDPOLYGONALFACE((2,1,14));
#481=IFCINDEXEDPOLYGONALFACE((4,3,2));
#482=IFCINDEXEDPOLYGONALFACE((6,5,4));
#483=IFCINDEXEDPOLYGONALFACE((8,7,6));
#484=IFCINDEXEDPOLYGONALFACE((10,9,8));
#485=IFCINDEXEDPOLYGONALFACE((4,2,14));
#486=IFCINDEXEDPOLYGONALFACE((10,8,6));
#487=IFCINDEXEDPOLYGONALFACE((4,14,13));
#488=IFCINDEXEDPOLYGONALFACE((11,10,6));
#489=IFCINDEXEDPOLYGONALFACE((4,13,12));
#490=IFCINDEXEDPOLYGONALFACE((11,6,4));
#491=IFCINDEXEDPOLYGONALFACE((4,12,11));
#492=IFCINDEXEDPOLYGONALFACE((28,15,16));
#493=IFCINDEXEDPOLYGONALFACE((16,17,18));
#494=IFCINDEXEDPOLYGONALFACE((18,19,20));
#495=IFCINDEXEDPOLYGONALFACE((20,21,22));
#496=IFCINDEXEDPOLYGONALFACE((22,23,24));
#497=IFCINDEXEDPOLYGONALFACE((28,16,18));
#498=IFCINDEXEDPOLYGONALFACE((20,22,24));
#499=IFCINDEXEDPOLYGONALFACE((27,28,18));
#500=IFCINDEXEDPOLYGONALFACE((20,24,25));
#501=IFCINDEXEDPOLYGONALFACE((26,27,18));
#502=IFCINDEXEDPOLYGONALFACE((18,20,25));
#503=IFCINDEXEDPOLYGONALFACE((25,26,18));
#504=IFCCARTESIANPOINTLIST3D(((-1317.41070026898,987.807577198971,26.9999999999992),(-1316.31176871275,1015.17495507534,26.9999999999992),(-735.499066455973,1090.340478815,26.9999999999992),(-296.988285646322,1122.88772702761,26.9999999999992),(136.880235112915,1130.62511778132,26.9999999999993),(566.092994177159,1113.5462437201,26.9999999999993),(990.63469057278,1071.6470300313,26.9999999999993),(1351.20628161156,1014.34701780765,26.9999999999993),(1346.17615306295,987.807577198971,26.9999999999993),(987.186999543863,1044.8561173392,26.9999999999993),(564.228726809084,1086.59905849485,26.9999999999993),(136.583947366355,1103.61554082624,26.9999999999993),(-295.747338784326,1095.90556433339,26.9999999999992),(-732.765131642958,1063.46912901628,26.9999999999992),(-1317.41070026898,987.807577198971,-8.32872192254938E-13),(-1316.31176871275,1015.17495507534,-8.34771411933639E-13),(-735.499066455973,1090.340478815,-8.00686058522438E-13),(-296.988285646322,1122.88772702761,-7.73206100692133E-13),(136.880235112915,1130.62511778132,-7.44252410934036E-13),(566.092994177159,1113.5462437201,-7.13825445477991E-13),(990.63469057278,1071.6470300313,-6.81925951187321E-13),(1351.20628161156,1014.34701780765,-6.53266872150625E-13),(1346.17615306295,987.807577198971,-6.51694770760239E-13),(987.186999543863,1044.8561173392,-6.80228073936955E-13),(564.228726809084,1086.59905849485,-7.12008591895128E-13),(136.583947366355,1103.61554082624,-7.42324403009247E-13),(-295.747338784326,1095.90556433339,-7.71175507279309E-13),(-732.765131642958,1063.46912901628,-7.98561904705317E-13)));
#505=IFCPOLYGONALFACESET(#504,.T.,(#466,#467,#468,#469,#470,#471,#472,#473,#474,#475,#476,#477,#478,#479,#480,#481,#482,#483,#484,#485,#486,#487,#488,#489,#490,#491,#492,#493,#494,#495,#496,#497,#498,#499,#500,#501,#502,#503),$);
#506=IFCSHAPEREPRESENTATION(#12,'Body','Tessellation',(#505));
#507=IFCPRODUCTDEFINITIONSHAPE($,$,(#506));
#508=IFCBUILDINGELEMENTPROXY('1nQCvrFKHBtwAh37sKwCRU',$,'tsections_5_0',$,$,$,#551,$,$);
#509=IFCRELCONTAINEDINSPATIALSTRUCTURE('2UGE$vChz3puw2UiJSHcGc',$,$,$,(#508),#22);
#510=IFCINDEXEDPOLYGONALFACE((1,2,16,15));
#511=IFCINDEXEDPOLYGONALFACE((2,3,17,16));
#512=IFCINDEXEDPOLYGONALFACE((3,4,18,17));
#513=IFCINDEXEDPOLYGONALFACE((4,5,19,18));
#514=IFCINDEXEDPOLYGONALFACE((5,6,20,19));
#515=IFCINDEXEDPOLYGONALFACE((6,7,21,20));
#516=IFCINDEXEDPOLYGONALFACE((7,8,22,21));
#517=IFCINDEXEDPOLYGONALFACE((8,9,23,22));
#518=IFCINDEXEDPOLYGONALFACE((9,10,24,23));
#519=IFCINDEXEDPOLYGONALFACE((10,11,25,24));
#520=IFCINDEXEDPOLYGONALFACE((11,12,26,25));
#521=IFCINDEXEDPOLYGONALFACE((12,13,27,26));
#522=IFCINDEXEDPOLYGONALFACE((13,14,28,27));
#523=IFCINDEXEDPOLYGONALFACE((14,1,15,28));
#524=IFCINDEXEDPOLYGONALFACE((2,1,14));
#525=IFCINDEXEDPOLYGONALFACE((4,3,2));
#526=IFCINDEXEDPOLYGONALFACE((6,5,4));
#527=IFCINDEXEDPOLYGONALFACE((8,7,6));
#528=IFCINDEXEDPOLYGONALFACE((10,9,8));
#529=IFCINDEXEDPOLYGONALFACE((4,2,14));
#530=IFCINDEXEDPOLYGONALFACE((10,8,6));
#531=IFCINDEXEDPOLYGONALFACE((4,14,13));
#532=IFCINDEXEDPOLYGONALFACE((11,10,6));
#533=IFCINDEXEDPOLYGONALFACE((4,13,12));
#534=IFCINDEXEDPOLYGONALFACE((11,6,4));
#535=IFCINDEXEDPOLYGONALFACE((4,12,11));
#536=IFCINDEXEDPOLYGONALFACE((28,15,16));
#537=IFCINDEXEDPOLYGONALFACE((16,17,18));
#538=IFCINDEXEDPOLYGONALFACE((18,19,20));
#539=IFCINDEXEDPOLYGONALFACE((20,21,22));
#540=IFCINDEXEDPOLYGONALFACE((22,23,24));
#541=IFCINDEXEDPOLYGONALFACE((28,16,18));
#542=IFCINDEXEDPOLYGONALFACE((20,22,24));
#543=IFCINDEXEDPOLYGONALFACE((27,28,18));
#544=IFCINDEXEDPOLYGONALFACE((20,24,25));
#545=IFCINDEXEDPOLYGONALFACE((26,27,18));
#546=IFCINDEXEDPOLYGONALFACE((18,20,25));
#547=IFCINDEXEDPOLYGONALFACE((25,26,18));
#548=IFCCARTESIANPOINTLIST3D(((-1317.41070026898,987.807577198971,26.9999999999992),(-1316.31176871275,1015.17495507534,26.9999999999992),(-735.499066455973,1090.340478815,26.9999999999992),(-296.988285646322,1122.88772702761,26.9999999999992),(136.880235112915,1130.62511778132,26.9999999999993),(566.092994177159,1113.5462437201,26.9999999999993),(990.63469057278,1071.6470300313,26.9999999999993),(1351.20628161156,1014.34701780765,26.9999999999993),(1346.17615306295,987.807577198971,26.9999999999993),(987.186999543863,1044.8561173392,26.9999999999993),(564.228726809084,1086.59905849485,26.9999999999993),(136.583947366355,1103.61554082624,26.9999999999993),(-295.747338784326,1095.90556433339,26.9999999999992),(-732.765131642958,1063.46912901628,26.9999999999992),(-1317.41070026898,987.807577198971,-8.32872192254938E-13),(-1316.31176871275,1015.17495507534,-8.34771411933639E-13),(-735.499066455973,1090.340478815,-8.00686058522438E-13),(-296.988285646322,1122.88772702761,-7.73206100692133E-13),(136.880235112915,1130.62511778132,-7.44252410934036E-13),(566.092994177159,1113.5462437201,-7.13825445477991E-13),(990.63469057278,1071.6470300313,-6.81925951187321E-13),(1351.20628161156,1014.34701780765,-6.53266872150625E-13),(1346.17615306295,987.807577198971,-6.51694770760239E-13),(987.186999543863,1044.8561173392,-6.80228073936955E-13),(564.228726809084,1086.59905849485,-7.12008591895128E-13),(136.583947366355,1103.61554082624,-7.42324403009247E-13),(-295.747338784326,1095.90556433339,-7.71175507279309E-13),(-732.765131642958,1063.46912901628,-7.98561904705317E-13)));
#549=IFCPOLYGONALFACESET(#548,.T.,(#510,#511,#512,#513,#514,#515,#516,#517,#518,#519,#520,#521,#522,#523,#524,#525,#526,#527,#528,#529,#530,#531,#532,#533,#534,#535,#536,#537,#538,#539,#540,#541,#542,#543,#544,#545,#546,#547),$);
#550=IFCSHAPEREPRESENTATION(#12,'Body','Tessellation',(#549));
#551=IFCPRODUCTDEFINITIONSHAPE($,$,(#550));
ENDSEC;
END-ISO-10303-21;
