# OBJ
# COMPAS
# version: 2.15.1
# precision: 3
# V F E: 336 456 768

o tsections_0_0_uncut
v -1335.955 144.180 27.000
v -751.380 67.971 27.000
v -314.393 35.125 27.000
v 117.931 27.010 27.000
v 545.591 43.626 27.000
v 968.588 84.972 27.000
v 1327.631 141.684 27.000
v 1332.636 115.140 27.000
v 972.011 58.178 27.000
v 547.430 16.677 27.000
v 118.202 0.000 27.000
v -315.659 8.144 27.000
v -754.139 41.102 27.000
v -1334.881 116.812 27.000
v -1335.955 144.180 0.000
v -751.380 67.971 0.000
v -314.393 35.125 0.000
v 117.931 27.010 0.000
v 545.591 43.626 0.000
v 968.588 84.972 0.000
v 1327.631 141.684 0.000
v 1332.636 115.140 0.000
v 972.011 58.178 0.000
v 547.430 16.677 0.000
v 118.202 0.000 0.000
v -315.659 8.144 0.000
v -754.139 41.102 0.000
v -1334.881 116.812 0.000
f 1 2 16 15
f 2 3 17 16
f 3 4 18 17
f 4 5 19 18
f 5 6 20 19
f 6 7 21 20
f 7 8 22 21
f 8 9 23 22
f 9 10 24 23
f 10 11 25 24
f 11 12 26 25
f 12 13 27 26
f 13 14 28 27
f 14 1 15 28
f 1 14 13
f 13 12 11
f 11 10 9
f 9 8 7
f 2 1 13
f 9 7 6
f 3 2 13
f 11 9 6
f 4 3 13
f 11 6 5
f 4 13 11
f 11 5 4
f 27 28 15
f 25 26 27
f 23 24 25
f 21 22 23
f 27 15 16
f 20 21 23
f 27 16 17
f 20 23 25
f 27 17 18
f 19 20 25
f 25 27 18
f 18 19 25
o tsections_0_0
v -1335.955 144.180 27.000
v -751.380 67.971 27.000
v -314.393 35.125 27.000
v 117.931 27.010 27.000
v 545.591 43.626 27.000
v 968.588 84.972 27.000
v 1327.631 141.684 27.000
v 1332.636 115.140 27.000
v 972.011 58.178 27.000
v 547.430 16.677 27.000
v 118.202 0.000 27.000
v -315.659 8.144 27.000
v -754.139 41.102 27.000
v -1334.881 116.812 27.000
v -1335.955 144.180 0.000
v -751.380 67.971 0.000
v -314.393 35.125 0.000
v 117.931 27.010 0.000
v 545.591 43.626 0.000
v 968.588 84.972 0.000
v 1327.631 141.684 0.000
v 1332.636 115.140 0.000
v 972.011 58.178 0.000
v 547.430 16.677 0.000
v 118.202 0.000 0.000
v -315.659 8.144 0.000
v -754.139 41.102 0.000
v -1334.881 116.812 0.000
f 29 30 44 43
f 30 31 45 44
f 31 32 46 45
f 32 33 47 46
f 33 34 48 47
f 34 35 49 48
f 35 36 50 49
f 36 37 51 50
f 37 38 52 51
f 38 39 53 52
f 39 40 54 53
f 40 41 55 54
f 41 42 56 55
f 42 29 43 56
f 29 42 41
f 41 40 39
f 39 38 37
f 37 36 35
f 30 29 41
f 37 35 34
f 31 30 41
f 39 37 34
f 32 31 41
f 39 34 33
f 32 41 39
f 39 33 32
f 55 56 43
f 53 54 55
f 51 52 53
f 49 50 51
f 55 43 44
f 48 49 51
f 55 44 45
f 48 51 53
f 55 45 46
f 47 48 53
f 53 55 46
f 46 47 53
o tsections_1_0_uncut
v -1608.572 194.180 27.000
v -1609.342 227.854 27.000
v -915.541 303.854 27.000
v -389.998 336.898 27.000
v 131.725 344.992 27.000
v 649.613 328.130 27.000
v 1163.649 286.307 27.000
v 1601.778 228.953 27.000
v 1597.526 201.693 27.000
v 1184.647 255.742 27.000
v 672.529 297.409 27.000
v 156.532 314.209 27.000
v -363.342 306.144 27.000
v -887.095 273.212 27.000
v -1590.518 197.497 -0.000
v -1591.147 225.016 -0.000
v -897.345 301.016 -0.000
v -371.803 334.060 -0.000
v 149.920 342.154 -0.000
v 667.809 325.292 -0.000
v 1181.844 283.470 -0.000
v 1619.973 226.115 -0.000
v 1615.810 199.426 -0.000
v 1179.604 256.529 -0.000
v 667.486 298.195 -0.000
v 151.489 314.996 -0.000
v -368.385 306.930 -0.000
v -892.138 273.999 -0.000
f 57 58 72 71
f 58 59 73 72
f 59 60 74 73
f 60 61 75 74
f 61 62 76 75
f 62 63 77 76
f 63 64 78 77
f 64 65 79 78
f 65 66 80 79
f 66 67 81 80
f 67 68 82 81
f 68 69 83 82
f 69 70 84 83
f 70 57 71 84
f 58 57 70
f 60 59 58
f 62 61 60
f 64 63 62
f 66 65 64
f 58 70 69
f 66 64 62
f 60 58 69
f 67 66 62
f 60 69 68
f 67 62 60
f 60 68 67
f 84 71 72
f 72 73 74
f 74 75 76
f 76 77 78
f 78 79 80
f 84 72 74
f 76 78 80
f 83 84 74
f 76 80 81
f 82 83 74
f 74 76 81
f 81 82 74
o tsections_1_0
v -1608.572 194.180 27.000
v -1609.342 227.854 27.000
v -915.541 303.854 27.000
v -389.998 336.898 27.000
v 131.725 344.992 27.000
v 649.613 328.130 27.000
v 1163.649 286.307 27.000
v 1601.778 228.953 27.000
v 1597.526 201.693 27.000
v 1184.647 255.742 27.000
v 672.529 297.409 27.000
v 156.532 314.209 27.000
v -363.342 306.144 27.000
v -887.095 273.212 27.000
v -1590.518 197.497 -0.000
v -1591.147 225.016 -0.000
v -897.345 301.016 -0.000
v -371.803 334.060 -0.000
v 149.920 342.154 -0.000
v 667.809 325.292 -0.000
v 1181.844 283.470 -0.000
v 1619.973 226.115 -0.000
v 1615.810 199.426 -0.000
v 1179.604 256.529 -0.000
v 667.486 298.195 -0.000
v 151.489 314.996 -0.000
v -368.385 306.930 -0.000
v -892.138 273.999 -0.000
f 85 86 100 99
f 86 87 101 100
f 87 88 102 101
f 88 89 103 102
f 89 90 104 103
f 90 91 105 104
f 91 92 106 105
f 92 93 107 106
f 93 94 108 107
f 94 95 109 108
f 95 96 110 109
f 96 97 111 110
f 97 98 112 111
f 98 85 99 112
f 86 85 98
f 88 87 86
f 90 89 88
f 92 91 90
f 94 93 92
f 86 98 97
f 94 92 90
f 88 86 97
f 95 94 90
f 88 97 96
f 95 90 88
f 88 96 95
f 112 99 100
f 100 101 102
f 102 103 104
f 104 105 106
f 106 107 108
f 112 100 102
f 104 106 108
f 111 112 102
f 104 108 109
f 110 111 102
f 102 104 109
f 109 110 102
o tsections_2_0_uncut
v -1616.297 540.209 27.000
v -917.942 463.483 27.000
v -394.199 430.383 27.000
v 125.673 422.150 27.000
v 641.675 438.785 27.000
v 1153.806 480.287 27.000
v 1590.031 537.249 27.000
v 1594.185 510.559 27.000
v 1156.037 453.345 27.000
v 641.989 411.688 27.000
v 124.095 394.992 27.000
v -397.626 403.254 27.000
v -923.158 436.467 27.000
v -1616.934 512.690 27.000
v -1611.254 540.994 -0.000
v -912.899 464.268 -0.000
v -389.156 431.168 -0.000
v 130.716 422.935 -0.000
v 646.718 439.570 0.000
v 1158.849 481.072 0.000
v 1595.074 538.034 0.000
v 1599.228 511.343 0.000
v 1161.081 454.130 0.000
v 647.032 412.473 0.000
v 129.138 395.777 -0.000
v -392.583 404.039 -0.000
v -918.114 437.252 -0.000
v -1611.891 513.475 -0.000
f 113 114 128 127
f 114 115 129 128
f 115 116 130 129
f 116 117 131 130
f 117 118 132 131
f 118 119 133 132
f 119 120 134 133
f 120 121 135 134
f 121 122 136 135
f 122 123 137 136
f 123 124 138 137
f 124 125 139 138
f 125 126 140 139
f 126 113 127 140
f 113 126 125
f 125 124 123
f 123 122 121
f 121 120 119
f 114 113 125
f 121 119 118
f 115 114 125
f 123 121 118
f 116 115 125
f 123 118 117
f 116 125 123
f 123 117 116
f 139 140 127
f 137 138 139
f 135 136 137
f 133 134 135
f 139 127 128
f 132 133 135
f 139 128 129
f 132 135 137
f 139 129 130
f 131 132 137
f 137 139 130
f 130 131 137
o tsections_2_0
v -1616.297 540.209 27.000
v -917.942 463.483 27.000
v -394.199 430.383 27.000
v 125.673 422.150 27.000
v 641.675 438.785 27.000
v 1153.806 480.287 27.000
v 1590.031 537.249 27.000
v 1594.185 510.559 27.000
v 1156.037 453.345 27.000
v 641.989 411.688 27.000
v 124.095 394.992 27.000
v -397.626 403.254 27.000
v -923.158 436.467 27.000
v -1616.934 512.690 27.000
v -1611.254 540.994 -0.000
v -912.899 464.268 -0.000
v -389.156 431.168 -0.000
v 130.716 422.935 -0.000
v 646.718 439.570 0.000
v 1158.849 481.072 0.000
v 1595.074 538.034 0.000
v 1599.228 511.343 0.000
v 1161.081 454.130 0.000
v 647.032 412.473 0.000
v 129.138 395.777 -0.000
v -392.583 404.039 -0.000
v -918.114 437.252 -0.000
v -1611.891 513.475 -0.000
f 141 142 156 155
f 142 143 157 156
f 143 144 158 157
f 144 145 159 158
f 145 146 160 159
f 146 147 161 160
f 147 148 162 161
f 148 149 163 162
f 149 150 164 163
f 150 151 165 164
f 151 152 166 165
f 152 153 167 166
f 153 154 168 167
f 154 141 155 168
f 141 154 153
f 153 152 151
f 151 150 149
f 149 148 147
f 142 141 153
f 149 147 146
f 143 142 153
f 151 149 146
f 144 143 153
f 151 146 145
f 144 153 151
f 151 145 144
f 167 168 155
f 165 166 167
f 163 164 165
f 161 162 163
f 167 155 156
f 160 161 163
f 167 156 157
f 160 163 165
f 167 157 158
f 159 160 165
f 165 167 158
f 158 159 165
o tsections_3_0_uncut
v -1592.192 591.779 27.000
v -1592.830 619.298 27.000
v -899.053 695.521 27.000
v -373.521 728.734 27.000
v 148.199 736.996 27.000
v 666.093 720.300 27.000
v 1180.142 678.643 27.000
v 1618.289 621.429 27.000
v 1614.135 594.739 27.000
v 1177.911 651.701 27.000
v 665.779 693.203 27.000
v 149.777 709.838 27.000
v -370.095 701.605 27.000
v -893.837 668.505 27.000
v -1587.149 590.994 -0.000
v -1587.786 618.513 -0.000
v -894.010 694.736 -0.000
v -368.478 727.949 -0.000
v 153.243 736.211 -0.000
v 671.136 719.515 -0.000
v 1185.185 677.858 0.000
v 1623.332 620.644 0.000
v 1619.178 593.954 0.000
v 1182.954 650.916 0.000
v 670.822 692.418 -0.000
v 154.821 709.053 -0.000
v -365.052 700.820 -0.000
v -888.794 667.720 -0.000
f 169 170 184 183
f 170 171 185 184
f 171 172 186 185
f 172 173 187 186
f 173 174 188 187
f 174 175 189 188
f 175 176 190 189
f 176 177 191 190
f 177 178 192 191
f 178 179 193 192
f 179 180 194 193
f 180 181 195 194
f 181 182 196 195
f 182 169 183 196
f 170 169 182
f 172 171 170
f 174 173 172
f 176 175 174
f 178 177 176
f 172 170 182
f 178 176 174
f 172 182 181
f 179 178 174
f 172 181 180
f 179 174 172
f 172 180 179
f 196 183 184
f 184 185 186
f 186 187 188
f 188 189 190
f 190 191 192
f 196 184 186
f 188 190 192
f 195 196 186
f 188 192 193
f 194 195 186
f 186 188 193
f 193 194 186
o tsections_3_0
v -1592.192 591.779 27.000
v -1592.830 619.298 27.000
v -899.053 695.521 27.000
v -373.521 728.734 27.000
v 148.199 736.996 27.000
v 666.093 720.300 27.000
v 1180.142 678.643 27.000
v 1618.289 621.429 27.000
v 1614.135 594.739 27.000
v 1177.911 651.701 27.000
v 665.779 693.203 27.000
v 149.777 709.838 27.000
v -370.095 701.605 27.000
v -893.837 668.505 27.000
v -1587.149 590.994 -0.000
v -1587.786 618.513 -0.000
v -894.010 694.736 -0.000
v -368.478 727.949 -0.000
v 153.243 736.211 -0.000
v 671.136 719.515 -0.000
v 1185.185 677.858 0.000
v 1623.332 620.644 0.000
v 1619.178 593.954 0.000
v 1182.954 650.916 0.000
v 670.822 692.418 -0.000
v 154.821 709.053 -0.000
v -365.052 700.820 -0.000
v -888.794 667.720 -0.000
f 197 198 212 211
f 198 199 213 212
f 199 200 214 213
f 200 201 215 214
f 201 202 216 215
f 202 203 217 216
f 203 204 218 217
f 204 205 219 218
f 205 206 220 219
f 206 207 221 220
f 207 208 222 221
f 208 209 223 222
f 209 210 224 223
f 210 197 211 224
f 198 197 210
f 200 199 198
f 202 201 200
f 204 203 202
f 206 205 204
f 200 198 210
f 206 204 202
f 200 210 209
f 207 206 202
f 200 209 208
f 207 202 200
f 200 208 207
f 224 211 212
f 212 213 214
f 214 215 216
f 216 217 218
f 218 219 220
f 224 212 214
f 216 218 220
f 223 224 214
f 216 220 221
f 222 223 214
f 214 216 221
f 221 222 214
o tsections_4_0_uncut
v -1631.105 937.808 27.000
v -909.628 858.776 27.000
v -385.875 825.844 27.000
v 134.000 817.779 27.000
v 649.997 834.579 27.000
v 1162.115 876.246 27.000
v 1574.994 930.295 27.000
v 1579.245 903.035 27.000
v 1141.117 845.681 27.000
v 627.081 803.858 27.000
v 109.193 786.996 27.000
v -412.530 795.090 27.000
v -938.073 828.134 27.000
v -1631.874 904.134 27.000
v -1613.050 934.491 -0.000
v -914.671 857.989 -0.000
v -390.918 825.058 -0.000
v 128.957 816.992 -0.000
v 644.954 833.793 0.000
v 1157.072 875.459 0.000
v 1593.278 932.562 0.000
v 1597.441 905.873 0.000
v 1159.312 848.518 0.000
v 645.276 806.696 0.000
v 127.388 789.834 -0.000
v -394.335 797.928 -0.000
v -919.878 830.972 -0.000
v -1613.679 906.972 -0.000
f 225 226 240 239
f 226 227 241 240
f 227 228 242 241
f 228 229 243 242
f 229 230 244 243
f 230 231 245 244
f 231 232 246 245
f 232 233 247 246
f 233 234 248 247
f 234 235 249 248
f 235 236 250 249
f 236 237 251 250
f 237 238 252 251
f 238 225 239 252
f 225 238 237
f 237 236 235
f 235 234 233
f 233 232 231
f 226 225 237
f 233 231 230
f 227 226 237
f 235 233 230
f 228 227 237
f 235 230 229
f 228 237 235
f 235 229 228
f 251 252 239
f 249 250 251
f 247 248 249
f 245 246 247
f 251 239 240
f 244 245 247
f 251 240 241
f 244 247 249
f 251 241 242
f 243 244 249
f 249 251 242
f 242 243 249
o tsections_4_0
v -1631.105 937.808 27.000
v -909.628 858.776 27.000
v -385.875 825.844 27.000
v 134.000 817.779 27.000
v 649.997 834.579 27.000
v 1162.115 876.246 27.000
v 1574.994 930.295 27.000
v 1579.245 903.035 27.000
v 1141.117 845.681 27.000
v 627.081 803.858 27.000
v 109.193 786.996 27.000
v -412.530 795.090 27.000
v -938.073 828.134 27.000
v -1631.874 904.134 27.000
v -1613.050 934.491 -0.000
v -914.671 857.989 -0.000
v -390.918 825.058 -0.000
v 128.957 816.992 -0.000
v 644.954 833.793 0.000
v 1157.072 875.459 0.000
v 1593.278 932.562 0.000
v 1597.441 905.873 0.000
v 1159.312 848.518 0.000
v 645.276 806.696 0.000
v 127.388 789.834 -0.000
v -394.335 797.928 -0.000
v -919.878 830.972 -0.000
v -1613.679 906.972 -0.000
f 253 254 268 267
f 254 255 269 268
f 255 256 270 269
f 256 257 271 270
f 257 258 272 271
f 258 259 273 272
f 259 260 274 273
f 260 261 275 274
f 261 262 276 275
f 262 263 277 276
f 263 264 278 277
f 264 265 279 278
f 265 266 280 279
f 266 253 267 280
f 253 266 265
f 265 264 263
f 263 262 261
f 261 260 259
f 254 253 265
f 261 259 258
f 255 254 265
f 263 261 258
f 256 255 265
f 263 258 257
f 256 265 263
f 263 257 256
f 279 280 267
f 277 278 279
f 275 276 277
f 273 274 275
f 279 267 268
f 272 273 275
f 279 268 269
f 272 275 277
f 279 269 270
f 271 272 277
f 277 279 270
f 270 271 277
o tsections_5_0_uncut
v -1317.411 987.808 27.000
v -1316.312 1015.175 27.000
v -735.499 1090.340 27.000
v -296.988 1122.888 27.000
v 136.880 1130.625 27.000
v 566.093 1113.546 27.000
v 990.635 1071.647 27.000
v 1351.206 1014.347 27.000
v 1346.176 987.808 27.000
v 987.187 1044.856 27.000
v 564.229 1086.599 27.000
v 136.584 1103.616 27.000
v -295.747 1095.906 27.000
v -732.765 1063.469 27.000
v -1317.411 987.808 -0.000
v -1316.312 1015.175 -0.000
v -735.499 1090.340 -0.000
v -296.988 1122.888 -0.000
v 136.880 1130.625 -0.000
v 566.093 1113.546 -0.000
v 990.635 1071.647 -0.000
v 1351.206 1014.347 -0.000
v 1346.176 987.808 -0.000
v 987.187 1044.856 -0.000
v 564.229 1086.599 -0.000
v 136.584 1103.616 -0.000
v -295.747 1095.906 -0.000
v -732.765 1063.469 -0.000
f 281 282 296 295
f 282 283 297 296
f 283 284 298 297
f 284 285 299 298
f 285 286 300 299
f 286 287 301 300
f 287 288 302 301
f 288 289 303 302
f 289 290 304 303
f 290 291 305 304
f 291 292 306 305
f 292 293 307 306
f 293 294 308 307
f 294 281 295 308
f 282 281 294
f 284 283 282
f 286 285 284
f 288 287 286
f 290 289 288
f 284 282 294
f 290 288 286
f 284 294 293
f 291 290 286
f 284 293 292
f 291 286 284
f 284 292 291
f 308 295 296
f 296 297 298
f 298 299 300
f 300 301 302
f 302 303 304
f 308 296 298
f 300 302 304
f 307 308 298
f 300 304 305
f 306 307 298
f 298 300 305
f 305 306 298
o tsections_5_0
v -1317.411 987.808 27.000
v -1316.312 1015.175 27.000
v -735.499 1090.340 27.000
v -296.988 1122.888 27.000
v 136.880 1130.625 27.000
v 566.093 1113.546 27.000
v 990.635 1071.647 27.000
v 1351.206 1014.347 27.000
v 1346.176 987.808 27.000
v 987.187 1044.856 27.000
v 564.229 1086.599 27.000
v 136.584 1103.616 27.000
v -295.747 1095.906 27.000
v -732.765 1063.469 27.000
v -1317.411 987.808 -0.000
v -1316.312 1015.175 -0.000
v -735.499 1090.340 -0.000
v -296.988 1122.888 -0.000
v 136.880 1130.625 -0.000
v 566.093 1113.546 -0.000
v 990.635 1071.647 -0.000
v 1351.206 1014.347 -0.000
v 1346.176 987.808 -0.000
v 987.187 1044.856 -0.000
v 564.229 1086.599 -0.000
v 136.584 1103.616 -0.000
v -295.747 1095.906 -0.000
v -732.765 1063.469 -0.000
f 309 310 324 323
f 310 311 325 324
f 311 312 326 325
f 312 313 327 326
f 313 314 328 327
f 314 315 329 328
f 315 316 330 329
f 316 317 331 330
f 317 318 332 331
f 318 319 333 332
f 319 320 334 333
f 320 321 335 334
f 321 322 336 335
f 322 309 323 336
f 310 309 322
f 312 311 310
f 314 313 312
f 316 315 314
f 318 317 316
f 312 310 322
f 318 316 314
f 312 322 321
f 319 318 314
f 312 321 320
f 319 314 312
f 312 320 319
f 336 323 324
f 324 325 326
f 326 327 328
f 328 329 330
f 330 331 332
f 336 324 326
f 328 330 332
f 335 336 326
f 328 332 333
f 334 335 326
f 326 328 333
f 333 334 326
