ISO-10303-21;
HEADER;
FILE_DESCRIPTION(('ViewDefinition [CoordinationView]'),'2;1');
FILE_NAME('','2026-08-25T22:33:32',(''),(''),'IfcOpenShell 0.8.4-e8eb5e4','IfcOpenShell 0.8.4-e8eb5e4','');
FILE_SCHEMA(('IFC4'));
ENDSEC;
DATA;
#1=IFCPROJECT('3$Sx2z7o5C2gGewbpE4ES$',$,'Default Project',$,$,$,$,(#11),#6);
#2=IFCSIUNIT(*,.LENGTHUNIT.,.MILLI.,.METRE.);
#3=IFCSIUNIT(*,.AREAUNIT.,.MILLI.,.SQUARE_METRE.);
#4=IFCSIUNIT(*,.VOLUMEUNIT.,.MILLI.,.CUBIC_METRE.);
#5=IFCSIUNIT(*,.PLANEANGLEUNIT.,$,.RADIAN.);
#6=IFCUNITASSIGNMENT((#2,#3,#4,#5));
#7=IFCCARTESIANPOINT((0.,0.,0.));
#8=IFCDIRECTION((0.,0.,1.));
#9=IFCDIRECTION((1.,0.,0.));
#10=IFCAXIS2PLACEMENT3D(#7,#8,#9);
#11=IFCGEOMETRICREPRESENTATIONCONTEXT($,'Model',3,1.E-05,#10,$);
#12=IFCGEOMETRICREPRESENTATIONSUBCONTEXT('Body','Model',*,*,*,*,#11,$,.MODEL_VIEW.,$);
#13=IFCPERSON($,'Unknown Author',$,$,$,$,$,$);
#14=IFCORGANIZATION($,'compas.dev',$,$,$);
#15=IFCPERSONANDORGANIZATION(#13,#14,$);
#16=IFCAPPLICATION(#14,'2.1.0','compas_ifc','compas_ifc v2.1.0');
#17=IFCOWNERHISTORY(#15,#16,$,$,$,$,$,1787690012);
#18=IFCSITE('1KaP4YfWL0cP4CucNcsLgV',$,'Default Site',$,$,$,$,$,$,$,$,$,$,$);
#19=IFCRELAGGREGATES('0tkbKcCmzAohsPoQB_ZLky',$,$,$,#1,(#18));
#20=IFCBUILDING('2LHPkiN2n5KehfwHN6AIPD',$,'Default Building 1',$,$,$,$,$,$,$,$,$);
#21=IFCRELAGGREGATES('0EZsVw0Uf99B$MbB9VEhTO',$,$,$,#18,(#20));
#22=IFCBUILDINGSTOREY('2klWseairBFwYK5T7xPc8N',$,'Default Storey 1',$,$,$,$,$,$,$);
#23=IFCRELAGGREGATES('2NhU8l7SX7AQkydCI8GXVN',$,$,$,#20,(#22));
#24=IFCBUILDINGELEMENTPROXY('3tjKEOYmT7xOyv_hAHy9PM',$,'wedges_inner_beams_0_0_uncut',$,$,$,#37,$,$);
#25=IFCRELCONTAINEDINSPATIALSTRUCTURE('20VuA8opX6dhc5ieJYOC5v',$,$,$,(#24),#22);
#26=IFCINDEXEDPOLYGONALFACE((1,2,6,5));
#27=IFCINDEXEDPOLYGONALFACE((2,3,7,6));
#28=IFCINDEXEDPOLYGONALFACE((3,4,8,7));
#29=IFCINDEXEDPOLYGONALFACE((4,1,5,8));
#30=IFCINDEXEDPOLYGONALFACE((1,4,3));
#31=IFCINDEXEDPOLYGONALFACE((3,2,1));
#32=IFCINDEXEDPOLYGONALFACE((8,5,6));
#33=IFCINDEXEDPOLYGONALFACE((6,7,8));
#34=IFCCARTESIANPOINTLIST3D(((496.044060976549,535.533039039646,240.),(550.543751473722,470.599521496837,240.),(12.8576903018532,103.87643933799,240.),(0.,119.195701725693,240.),(464.709126106053,509.233150833737,5.79897241337336E-13),(620.674014167556,323.409181878844,2.71604610305292E-13),(146.494401235816,-2.8421709430404E-14,5.78180759827154E-13),(27.2531498095494,142.069685546381,1.14630527292555E-14)));
#35=IFCPOLYGONALFACESET(#34,.T.,(#26,#27,#28,#29,#30,#31,#32,#33),$);
#36=IFCSHAPEREPRESENTATION(#12,'Body','Tessellation',(#35));
#37=IFCPRODUCTDEFINITIONSHAPE($,$,(#36));
#38=IFCBUILDINGELEMENTPROXY('0WFwE3igHB2RDQkr$LHeW5',$,'wedges_inner_beams_0_0',$,$,$,#51,$,$);
#39=IFCRELCONTAINEDINSPATIALSTRUCTURE('0u45aLWKL5YfLIsY2hK3i0',$,$,$,(#38),#22);
#40=IFCINDEXEDPOLYGONALFACE((1,2,6,5));
#41=IFCINDEXEDPOLYGONALFACE((2,3,7,6));
#42=IFCINDEXEDPOLYGONALFACE((3,4,8,7));
#43=IFCINDEXEDPOLYGONALFACE((4,1,5,8));
#44=IFCINDEXEDPOLYGONALFACE((1,4,3));
#45=IFCINDEXEDPOLYGONALFACE((3,2,1));
#46=IFCINDEXEDPOLYGONALFACE((8,5,6));
#47=IFCINDEXEDPOLYGONALFACE((6,7,8));
#48=IFCCARTESIANPOINTLIST3D(((496.044060976549,535.533039039646,240.),(550.543751473722,470.599521496837,240.),(12.8576903018532,103.87643933799,240.),(0.,119.195701725693,240.),(464.709126106053,509.233150833737,5.79897241337336E-13),(620.674014167556,323.409181878844,2.71604610305292E-13),(146.494401235816,-2.8421709430404E-14,5.78180759827154E-13),(27.2531498095494,142.069685546381,1.14630527292555E-14)));
#49=IFCPOLYGONALFACESET(#48,.T.,(#40,#41,#42,#43,#44,#45,#46,#47),$);
#50=IFCSHAPEREPRESENTATION(#12,'Body','Tessellation',(#49));
#51=IFCPRODUCTDEFINITIONSHAPE($,$,(#50));
#52=IFCBUILDINGELEMENTPROXY('0_dXm726j0TfmdTvlM$Q3C',$,'wedges_inner_beams_1_0_uncut',$,$,$,#65,$,$);
#53=IFCRELCONTAINEDINSPATIALSTRUCTURE('1H4GAstYH0$8bdIgOwrrPf',$,$,$,(#52),#22);
#54=IFCINDEXEDPOLYGONALFACE((1,2,6,5));
#55=IFCINDEXEDPOLYGONALFACE((2,3,7,6));
#56=IFCINDEXEDPOLYGONALFACE((3,4,8,7));
#57=IFCINDEXEDPOLYGONALFACE((4,1,5,8));
#58=IFCINDEXEDPOLYGONALFACE((1,4,3));
#59=IFCINDEXEDPOLYGONALFACE((3,2,1));
#60=IFCINDEXEDPOLYGONALFACE((8,5,6));
#61=IFCINDEXEDPOLYGONALFACE((6,7,8));
#62=IFCCARTESIANPOINTLIST3D(((350.928097386281,1206.45504423571,300.),(403.268345859096,1173.21910021145,300.),(36.5452637001531,635.533039039646,300.),(20.2557578704341,645.876839837989,300.),(289.443277839156,1212.08495759417,0.),(434.512675620864,1119.96620529584,2.27373675443232E-13),(113.513552698258,649.320198974666,2.27373675443232E-13),(0.,721.401058228284,0.)));
#63=IFCPOLYGONALFACESET(#62,.T.,(#54,#55,#56,#57,#58,#59,#60,#61),$);
#64=IFCSHAPEREPRESENTATION(#12,'Body','Tessellation',(#63));
#65=IFCPRODUCTDEFINITIONSHAPE($,$,(#64));
#66=IFCBUILDINGELEMENTPROXY('0p5LvRak18iO2HhKsDg1pX',$,'wedges_inner_beams_1_0',$,$,$,#79,$,$);
#67=IFCRELCONTAINEDINSPATIALSTRUCTURE('0kxEwFvB1FmQE8j24qQ3M_',$,$,$,(#66),#22);
#68=IFCINDEXEDPOLYGONALFACE((1,2,6,5));
#69=IFCINDEXEDPOLYGONALFACE((2,3,7,6));
#70=IFCINDEXEDPOLYGONALFACE((3,4,8,7));
#71=IFCINDEXEDPOLYGONALFACE((4,1,5,8));
#72=IFCINDEXEDPOLYGONALFACE((1,4,3));
#73=IFCINDEXEDPOLYGONALFACE((3,2,1));
#74=IFCINDEXEDPOLYGONALFACE((8,5,6));
#75=IFCINDEXEDPOLYGONALFACE((6,7,8));
#76=IFCCARTESIANPOINTLIST3D(((350.928097386281,1206.45504423571,300.),(403.268345859096,1173.21910021145,300.),(36.5452637001531,635.533039039646,300.),(20.2557578704341,645.876839837989,300.),(289.443277839156,1212.08495759417,0.),(434.512675620864,1119.96620529584,2.27373675443232E-13),(113.513552698258,649.320198974666,2.27373675443232E-13),(0.,721.401058228284,0.)));
#77=IFCPOLYGONALFACESET(#76,.T.,(#68,#69,#70,#71,#72,#73,#74,#75),$);
#78=IFCSHAPEREPRESENTATION(#12,'Body','Tessellation',(#77));
#79=IFCPRODUCTDEFINITIONSHAPE($,$,(#78));
#80=IFCBUILDINGELEMENTPROXY('0SPKcjwAT0rOpz1RpsO95c',$,'wedges_inner_beams_2_0_uncut',$,$,$,#93,$,$);
#81=IFCRELCONTAINEDINSPATIALSTRUCTURE('3O6Bm9Un55hxnH8ZyUe6FB',$,$,$,(#80),#22);
#82=IFCINDEXEDPOLYGONALFACE((1,2,6,5));
#83=IFCINDEXEDPOLYGONALFACE((2,3,7,6));
#84=IFCINDEXEDPOLYGONALFACE((3,4,8,7));
#85=IFCINDEXEDPOLYGONALFACE((4,1,5,8));
#86=IFCINDEXEDPOLYGONALFACE((1,4,3));
#87=IFCINDEXEDPOLYGONALFACE((3,2,1));
#88=IFCINDEXEDPOLYGONALFACE((8,5,6));
#89=IFCINDEXEDPOLYGONALFACE((6,7,8));
#90=IFCCARTESIANPOINTLIST3D(((470.59952149615,1862.62870906862,240.),(535.533039038982,1808.12901857163,240.),(119.195701726175,1312.08495759417,240.000000000001),(103.876439338283,1324.94264789613,240.000000000001),(323.409181877943,1932.75897176216,7.38697138462738E-14),(509.233150833158,1776.79408370109,9.5964902691037E-15),(142.069685546801,1339.33810740377,5.78030678877184E-13),(2.8421709430404E-14,1458.57935882985,3.46258778722348E-13)));
#91=IFCPOLYGONALFACESET(#90,.T.,(#82,#83,#84,#85,#86,#87,#88,#89),$);
#92=IFCSHAPEREPRESENTATION(#12,'Body','Tessellation',(#91));
#93=IFCPRODUCTDEFINITIONSHAPE($,$,(#92));
#94=IFCBUILDINGELEMENTPROXY('3uyB1laW12XfDzoIv6s2zT',$,'wedges_inner_beams_2_0',$,$,$,#107,$,$);
#95=IFCRELCONTAINEDINSPATIALSTRUCTURE('3dDi9sqVH7oBezvhbYpT9s',$,$,$,(#94),#22);
#96=IFCINDEXEDPOLYGONALFACE((1,2,6,5));
#97=IFCINDEXEDPOLYGONALFACE((2,3,7,6));
#98=IFCINDEXEDPOLYGONALFACE((3,4,8,7));
#99=IFCINDEXEDPOLYGONALFACE((4,1,5,8));
#100=IFCINDEXEDPOLYGONALFACE((1,4,3));
#101=IFCINDEXEDPOLYGONALFACE((3,2,1));
#102=IFCINDEXEDPOLYGONALFACE((8,5,6));
#103=IFCINDEXEDPOLYGONALFACE((6,7,8));
#104=IFCCARTESIANPOINTLIST3D(((470.59952149615,1862.62870906862,240.),(535.533039038982,1808.12901857163,240.),(119.195701726175,1312.08495759417,240.000000000001),(103.876439338283,1324.94264789613,240.000000000001),(323.409181877943,1932.75897176216,7.38697138462738E-14),(509.233150833158,1776.79408370109,9.5964902691037E-15),(142.069685546801,1339.33810740377,5.78030678877184E-13),(2.8421709430404E-14,1458.57935882985,3.46258778722348E-13)));
#105=IFCPOLYGONALFACESET(#104,.T.,(#96,#97,#98,#99,#100,#101,#102,#103),$);
#106=IFCSHAPEREPRESENTATION(#12,'Body','Tessellation',(#105));
#107=IFCPRODUCTDEFINITIONSHAPE($,$,(#106));
ENDSEC;
END-ISO-10303-21;
