# OBJ
# COMPAS
# version: 2.15.1
# precision: 3
# V F E: 48 48 84

o wedges_inner_beams_0_0_uncut
v 496.044 535.533 240.000
v 550.544 470.600 240.000
v 12.858 103.876 240.000
v 0.000 119.196 240.000
v 464.709 509.233 0.000
v 620.674 323.409 0.000
v 146.494 -0.000 0.000
v 27.253 142.070 0.000
f 1 2 6 5
f 2 3 7 6
f 3 4 8 7
f 4 1 5 8
f 1 4 3
f 3 2 1
f 8 5 6
f 6 7 8
o wedges_inner_beams_0_0
v 496.044 535.533 240.000
v 550.544 470.600 240.000
v 12.858 103.876 240.000
v 0.000 119.196 240.000
v 464.709 509.233 0.000
v 620.674 323.409 0.000
v 146.494 -0.000 0.000
v 27.253 142.070 0.000
f 9 10 14 13
f 10 11 15 14
f 11 12 16 15
f 12 9 13 16
f 9 12 11
f 11 10 9
f 16 13 14
f 14 15 16
o wedges_inner_beams_1_0_uncut
v 350.928 1206.455 300.000
v 403.268 1173.219 300.000
v 36.545 635.533 300.000
v 20.256 645.877 300.000
v 289.443 1212.085 0.000
v 434.513 1119.966 0.000
v 113.514 649.320 0.000
v 0.000 721.401 0.000
f 17 18 22 21
f 18 19 23 22
f 19 20 24 23
f 20 17 21 24
f 17 20 19
f 19 18 17
f 24 21 22
f 22 23 24
o wedges_inner_beams_1_0
v 350.928 1206.455 300.000
v 403.268 1173.219 300.000
v 36.545 635.533 300.000
v 20.256 645.877 300.000
v 289.443 1212.085 0.000
v 434.513 1119.966 0.000
v 113.514 649.320 0.000
v 0.000 721.401 0.000
f 25 26 30 29
f 26 27 31 30
f 27 28 32 31
f 28 25 29 32
f 25 28 27
f 27 26 25
f 32 29 30
f 30 31 32
o wedges_inner_beams_2_0_uncut
v 470.600 1862.629 240.000
v 535.533 1808.129 240.000
v 119.196 1312.085 240.000
v 103.876 1324.943 240.000
v 323.409 1932.759 0.000
v 509.233 1776.794 0.000
v 142.070 1339.338 0.000
v 0.000 1458.579 0.000
f 33 34 38 37
f 34 35 39 38
f 35 36 40 39
f 36 33 37 40
f 33 36 35
f 35 34 33
f 40 37 38
f 38 39 40
o wedges_inner_beams_2_0
v 470.600 1862.629 240.000
v 535.533 1808.129 240.000
v 119.196 1312.085 240.000
v 103.876 1324.943 240.000
v 323.409 1932.759 0.000
v 509.233 1776.794 0.000
v 142.070 1339.338 0.000
v 0.000 1458.579 0.000
f 41 42 46 45
f 42 43 47 46
f 43 44 48 47
f 44 41 45 48
f 41 44 43
f 43 42 41
f 48 45 46
f 46 47 48
